<?xml version="1.0" encoding="utf-8"?>
<!-- Generator: Adobe Illustrator 24.1.1, SVG Export Plug-In . SVG Version: 6.00 Build 0)  -->
<svg version="1.1" id="Layer_1" xmlns="http://www.w3.org/2000/svg" xmlns:xlink="http://www.w3.org/1999/xlink" x="0px" y="0px"
	 viewBox="0 0 541.26 276.77" style="enable-background:new 0 0 541.26 276.77;" xml:space="preserve">
<style type="text/css">
	.st0{fill:#FFFFFF;}
</style>
<g>
	<rect x="116.26" y="46.88" class="st0" width="83" height="205"/>
	<path d="M199.76,252.38h-84v-206h84V252.38z M116.76,251.38h82v-204h-82V251.38z"/>
</g>
<g>
	<rect x="330.26" y="65.85" class="st0" width="73" height="165"/>
	<path d="M403.76,231.35h-74v-166h74V231.35z M330.76,230.35h72v-164h-72V230.35z"/>
</g>
<g>
	<g>
		<rect x="18.55" y="215.61" width="97.71" height="1"/>
	</g>
	<g>
		<g>
			<polygon points="21.52,211.75 5.26,216.11 21.52,220.46 			"/>
		</g>
	</g>
</g>
<g>
	<g>
		<rect x="5.26" y="82.61" width="97.71" height="1"/>
	</g>
	<g>
		<g>
			<polygon points="100,87.46 116.26,83.11 100,78.75 			"/>
		</g>
	</g>
</g>
<g>
	<g>
		<rect x="212.55" y="82.61" width="73.71" height="1"/>
	</g>
	<g>
		<g>
			<polygon points="215.52,87.46 199.26,83.11 215.52,78.75 			"/>
		</g>
	</g>
</g>
<g>
	<g>
		<polygon points="259.76,226.61 199.26,226.61 199.26,225.61 258.76,225.61 258.76,148.11 316.97,148.11 316.97,149.11 
			259.76,149.11 		"/>
	</g>
	<g>
		<g>
			<polygon points="314,152.96 330.26,148.61 314,144.25 			"/>
		</g>
	</g>
</g>
<g>
	<path d="M10.43,70.62l6.36-9.3v-0.05h-5.81v-1.24h7.73v0.9l-6.32,9.26v0.05h6.41v1.24h-8.36V70.62z"/>
	<path d="M25.11,71.49l-0.12-1.04h-0.05c-0.46,0.65-1.34,1.22-2.52,1.22c-1.67,0-2.52-1.17-2.52-2.36c0-1.99,1.77-3.08,4.95-3.06
		v-0.17c0-0.68-0.19-1.9-1.87-1.9c-0.76,0-1.56,0.24-2.14,0.61l-0.34-0.99c0.68-0.44,1.67-0.73,2.7-0.73c2.52,0,3.13,1.72,3.13,3.37
		v3.08c0,0.71,0.03,1.41,0.14,1.97H25.11z M24.89,67.29c-1.63-0.03-3.48,0.26-3.48,1.85c0,0.97,0.65,1.43,1.41,1.43
		c1.07,0,1.75-0.68,1.99-1.38c0.05-0.15,0.09-0.32,0.09-0.48V67.29z"/>
	<path d="M28.75,65.49c0-0.85-0.02-1.55-0.07-2.23h1.33l0.09,1.36h0.03c0.41-0.78,1.36-1.55,2.72-1.55c1.14,0,2.91,0.68,2.91,3.5
		v4.91h-1.5v-4.74c0-1.33-0.49-2.43-1.9-2.43c-0.99,0-1.75,0.7-2.01,1.53c-0.07,0.19-0.1,0.44-0.1,0.7v4.95h-1.5V65.49z"/>
	<path d="M45.29,59.42v9.94c0,0.73,0.02,1.56,0.07,2.13h-1.34l-0.07-1.43h-0.03c-0.46,0.92-1.46,1.61-2.8,1.61
		c-1.99,0-3.52-1.68-3.52-4.18c-0.02-2.74,1.68-4.42,3.69-4.42c1.26,0,2.11,0.59,2.48,1.26h0.03v-4.91H45.29z M43.8,66.61
		c0-0.19-0.02-0.44-0.07-0.63c-0.22-0.95-1.04-1.73-2.16-1.73c-1.55,0-2.46,1.36-2.46,3.18c0,1.67,0.82,3.04,2.43,3.04
		c1,0,1.92-0.66,2.19-1.78c0.05-0.2,0.07-0.41,0.07-0.65V66.61z"/>
</g>
<g>
	<path d="M13.93,94h-0.03l-1.92,1.04l-0.29-1.14l2.41-1.29h1.27v11.05h-1.44V94z"/>
	<path d="M26.75,98.02c0,3.76-1.39,5.83-3.84,5.83c-2.16,0-3.62-2.02-3.65-5.68c0-3.71,1.6-5.75,3.84-5.75
		C25.42,92.42,26.75,94.5,26.75,98.02z M20.74,98.19c0,2.87,0.88,4.5,2.24,4.5c1.53,0,2.26-1.79,2.26-4.61c0-2.72-0.7-4.5-2.24-4.5
		C21.7,93.58,20.74,95.18,20.74,98.19z"/>
	<path d="M30.84,99.14v-1.75h-3.21v-0.68l3.01-4.23h1.34v4.08h0.95v0.83h-0.95v1.75H30.84z M30.84,94.55c0-0.37,0.03-0.73,0.05-1.07
		h-0.03c-0.2,0.39-0.37,0.7-0.58,1l-1.48,2.04l0.02,0.03h2.02V94.55z"/>
	<path d="M39.58,99.21h0.03c0.2-0.29,0.49-0.65,0.73-0.94l2.41-2.84h1.8l-3.18,3.38l3.62,4.84h-1.82l-2.84-3.94l-0.77,0.85v3.09
		H38.1V91.59h1.48V99.21z"/>
	<path d="M53.16,95.43c-0.03,0.59-0.07,1.26-0.07,2.26v4.78c0,1.89-0.37,3.04-1.17,3.76c-0.8,0.75-1.96,0.99-2.99,0.99
		c-0.99,0-2.07-0.24-2.74-0.68l0.37-1.14c0.54,0.34,1.39,0.65,2.41,0.65c1.53,0,2.65-0.8,2.65-2.87v-0.92H51.6
		c-0.46,0.76-1.34,1.38-2.62,1.38c-2.04,0-3.5-1.73-3.5-4.01c0-2.79,1.82-4.37,3.71-4.37c1.43,0,2.21,0.75,2.57,1.43h0.03l0.07-1.24
		H53.16z M51.62,98.68c0-0.25-0.02-0.48-0.08-0.68c-0.27-0.87-1-1.58-2.09-1.58c-1.43,0-2.45,1.21-2.45,3.11
		c0,1.61,0.82,2.96,2.43,2.96c0.92,0,1.75-0.58,2.07-1.53c0.08-0.25,0.12-0.54,0.12-0.8V98.68z"/>
	<path d="M55.27,103.85l6.44-11.42h0.97l-6.46,11.42H55.27z"/>
	<path d="M64.84,91.59h1.5v5.13h0.03c0.24-0.43,0.61-0.8,1.07-1.05c0.44-0.25,0.97-0.42,1.53-0.42c1.1,0,2.87,0.68,2.87,3.52v4.9
		h-1.5v-4.73c0-1.33-0.49-2.45-1.9-2.45c-0.97,0-1.73,0.68-2.01,1.5c-0.08,0.2-0.1,0.42-0.1,0.71v4.96h-1.5V91.59z"/>
</g>
<g>
	<path d="M13.93,115.96h-0.03L11.97,117l-0.29-1.14l2.41-1.29h1.27v11.05h-1.44V115.96z"/>
	<path d="M24.38,117.68c0,2.33-1.22,3.48-2.65,3.48c-1.38,0-2.57-1.1-2.58-3.33c0-2.21,1.21-3.45,2.67-3.45
		C23.36,114.38,24.38,115.57,24.38,117.68z M20.34,117.78c-0.03,1.41,0.49,2.48,1.43,2.48c0.99,0,1.43-1.05,1.43-2.52
		c0-1.34-0.39-2.46-1.43-2.46C20.83,115.28,20.34,116.39,20.34,117.78z M21.63,125.8l6.49-11.42h0.95l-6.49,11.42H21.63z
		 M31.57,122.25c0,2.33-1.22,3.48-2.63,3.48c-1.38,0-2.57-1.1-2.58-3.31c0-2.23,1.21-3.47,2.67-3.47
		C30.57,118.95,31.57,120.14,31.57,122.25z M27.53,122.35c-0.02,1.41,0.53,2.48,1.44,2.48c0.99,0,1.43-1.05,1.43-2.52
		c0-1.34-0.39-2.46-1.43-2.46C28.04,119.85,27.53,120.96,27.53,122.35z"/>
	<path d="M36.01,124.75l3.72-4.84c0.36-0.44,0.7-0.83,1.07-1.27v-0.03h-4.45v-1.21h6.27l-0.02,0.93l-3.67,4.78
		c-0.34,0.46-0.68,0.87-1.05,1.29v0.03h4.81v1.19h-6.68V124.75z"/>
	<path d="M51.55,121.44c0,3.04-2.11,4.37-4.1,4.37c-2.23,0-3.94-1.63-3.94-4.23c0-2.75,1.8-4.37,4.08-4.37
		C49.95,117.2,51.55,118.92,51.55,121.44z M45.02,121.52c0,1.8,1.04,3.16,2.5,3.16c1.43,0,2.5-1.34,2.5-3.2
		c0-1.39-0.7-3.16-2.46-3.16C45.79,118.32,45.02,119.96,45.02,121.52z"/>
	<path d="M60.32,123.37c0,0.85,0.02,1.6,0.07,2.24h-1.33l-0.08-1.34h-0.03c-0.39,0.66-1.26,1.53-2.72,1.53
		c-1.29,0-2.84-0.71-2.84-3.6v-4.81h1.5v4.56c0,1.56,0.48,2.62,1.84,2.62c1,0,1.7-0.7,1.97-1.36c0.08-0.22,0.14-0.49,0.14-0.77
		v-5.05h1.5V123.37z"/>
	<path d="M64.6,115.03v2.36h2.14v1.14H64.6v4.44c0,1.02,0.29,1.6,1.12,1.6c0.39,0,0.68-0.05,0.87-0.1l0.07,1.12
		c-0.29,0.12-0.75,0.2-1.33,0.2c-0.7,0-1.26-0.22-1.61-0.63c-0.42-0.44-0.58-1.17-0.58-2.14v-4.49h-1.27v-1.14h1.27v-1.97
		L64.6,115.03z"/>
</g>
<g>
	<path d="M15.61,238.59l-1.19,3.6h-1.53l3.89-11.46h1.79l3.91,11.46H20.9l-1.22-3.6H15.61z M19.37,237.44l-1.12-3.3
		c-0.25-0.75-0.42-1.43-0.59-2.09h-0.03c-0.17,0.68-0.36,1.38-0.58,2.07l-1.12,3.31H19.37z"/>
	<path d="M29.19,237.74h0.03c0.2-0.29,0.49-0.65,0.73-0.93l2.41-2.84h1.8L31,237.35l3.62,4.84H32.8l-2.84-3.94l-0.77,0.85v3.09
		h-1.48v-12.07h1.48V237.74z"/>
	<path d="M42.78,233.97c-0.03,0.59-0.07,1.26-0.07,2.26V241c0,1.89-0.37,3.04-1.17,3.76c-0.8,0.75-1.96,0.99-2.99,0.99
		c-0.99,0-2.07-0.24-2.74-0.68l0.37-1.14c0.54,0.34,1.39,0.65,2.41,0.65c1.53,0,2.65-0.8,2.65-2.87v-0.92h-0.03
		c-0.46,0.76-1.34,1.38-2.62,1.38c-2.04,0-3.5-1.73-3.5-4.01c0-2.79,1.82-4.37,3.71-4.37c1.43,0,2.21,0.75,2.57,1.43h0.03l0.07-1.24
		H42.78z M41.23,237.21c0-0.25-0.02-0.48-0.08-0.68c-0.27-0.87-1-1.58-2.09-1.58c-1.43,0-2.45,1.21-2.45,3.11
		c0,1.62,0.82,2.96,2.43,2.96c0.92,0,1.75-0.58,2.07-1.53c0.08-0.25,0.12-0.54,0.12-0.8V237.21z"/>
	<path d="M44.88,242.38l6.44-11.42h0.97l-6.46,11.42H44.88z"/>
	<path d="M54.46,230.13h1.5v5.13h0.03c0.24-0.42,0.61-0.8,1.07-1.05c0.44-0.25,0.97-0.42,1.53-0.42c1.1,0,2.87,0.68,2.87,3.52v4.9
		h-1.5v-4.73c0-1.33-0.49-2.45-1.9-2.45c-0.97,0-1.73,0.68-2.01,1.5c-0.08,0.2-0.1,0.42-0.1,0.71v4.96h-1.5V230.13z"/>
	<path d="M7.2,254.37l1.17,1.77c0.31,0.46,0.56,0.88,0.83,1.34h0.05c0.27-0.49,0.54-0.92,0.82-1.36l1.16-1.75h1.61l-2.8,3.98
		l2.89,4.25h-1.7l-1.21-1.85c-0.32-0.48-0.59-0.93-0.88-1.43H9.1c-0.27,0.49-0.56,0.93-0.87,1.43l-1.19,1.85H5.39l2.92-4.2
		l-2.79-4.03H7.2z"/>
	<path d="M14.96,262.15l-0.69,2.1h-0.89l2.27-6.68h1.04l2.28,6.68h-0.92l-0.71-2.1H14.96z M17.16,261.48l-0.65-1.92
		c-0.15-0.44-0.25-0.83-0.35-1.22h-0.02c-0.1,0.4-0.21,0.8-0.34,1.21l-0.65,1.93H17.16z"/>
	<path d="M23.55,258.12c0-0.61,0.42-1.07,1.02-1.07c0.6,0,0.99,0.44,1,1.07c0,0.61-0.41,1.07-1.02,1.07
		C23.96,259.2,23.53,258.74,23.55,258.12z"/>
	<path d="M33.93,252.94H33.9l-1.92,1.04l-0.29-1.14l2.41-1.29h1.27v11.05h-1.44V252.94z"/>
	<path d="M46.75,256.95c0,3.76-1.39,5.83-3.84,5.83c-2.16,0-3.62-2.02-3.65-5.68c0-3.71,1.6-5.75,3.84-5.75
		C45.42,251.36,46.75,253.43,46.75,256.95z M40.75,257.12c0,2.87,0.88,4.5,2.24,4.5c1.53,0,2.26-1.79,2.26-4.61
		c0-2.72-0.7-4.5-2.24-4.5C41.7,252.51,40.75,254.11,40.75,257.12z"/>
	<path d="M55.47,256.95c0,3.76-1.39,5.83-3.84,5.83c-2.16,0-3.62-2.02-3.65-5.68c0-3.71,1.6-5.75,3.84-5.75
		C54.15,251.36,55.47,253.43,55.47,256.95z M49.47,257.12c0,2.87,0.88,4.5,2.24,4.5c1.53,0,2.26-1.79,2.26-4.61
		c0-2.72-0.7-4.5-2.24-4.5C50.42,252.51,49.47,254.11,49.47,257.12z"/>
	<path d="M61.83,254.66c0,2.33-1.22,3.48-2.65,3.48c-1.38,0-2.57-1.11-2.58-3.33c0-2.21,1.21-3.45,2.67-3.45
		C60.81,251.36,61.83,252.55,61.83,254.66z M57.78,254.76c-0.03,1.41,0.49,2.48,1.43,2.48c0.99,0,1.43-1.05,1.43-2.52
		c0-1.34-0.39-2.46-1.43-2.46C58.28,252.26,57.78,253.37,57.78,254.76z M59.08,262.78l6.49-11.42h0.95l-6.49,11.42H59.08z
		 M69.02,259.23c0,2.33-1.22,3.48-2.63,3.48c-1.38,0-2.57-1.1-2.58-3.31c0-2.23,1.21-3.47,2.67-3.47
		C68.02,255.93,69.02,257.12,69.02,259.23z M64.97,259.33c-0.02,1.41,0.53,2.48,1.44,2.48c0.99,0,1.43-1.05,1.43-2.52
		c0-1.34-0.39-2.46-1.43-2.46C65.48,256.83,64.97,257.94,64.97,259.33z"/>
	<path d="M73.46,261.73l3.72-4.84c0.36-0.44,0.7-0.83,1.07-1.28v-0.03H73.8v-1.21h6.27l-0.02,0.93l-3.67,4.78
		c-0.34,0.46-0.68,0.87-1.05,1.29v0.03h4.81v1.19h-6.68V261.73z"/>
	<path d="M88.99,258.41c0,3.04-2.11,4.37-4.1,4.37c-2.23,0-3.94-1.63-3.94-4.23c0-2.75,1.8-4.37,4.08-4.37
		C87.4,254.18,88.99,255.9,88.99,258.41z M82.47,258.5c0,1.8,1.04,3.16,2.5,3.16c1.43,0,2.5-1.34,2.5-3.2c0-1.39-0.7-3.16-2.46-3.16
		C83.23,255.3,82.47,256.93,82.47,258.5z"/>
	<path d="M97.77,260.35c0,0.85,0.02,1.6,0.07,2.24h-1.33l-0.08-1.34h-0.03c-0.39,0.66-1.26,1.53-2.72,1.53
		c-1.29,0-2.84-0.71-2.84-3.6v-4.81h1.5v4.55c0,1.56,0.48,2.62,1.84,2.62c1,0,1.7-0.7,1.97-1.36c0.08-0.22,0.14-0.49,0.14-0.77
		v-5.05h1.5V260.35z"/>
	<path d="M102.05,252v2.36h2.14v1.14h-2.14v4.44c0,1.02,0.29,1.6,1.12,1.6c0.39,0,0.68-0.05,0.87-0.1l0.07,1.12
		c-0.29,0.12-0.75,0.2-1.33,0.2c-0.7,0-1.26-0.22-1.61-0.63c-0.42-0.44-0.58-1.17-0.58-2.14v-4.49h-1.27v-1.14h1.27v-1.97
		L102.05,252z"/>
</g>
<g>
	<path d="M136.14,133.07l-2.91-11.46h1.56l1.36,5.8c0.34,1.43,0.65,2.86,0.85,3.96h0.03c0.19-1.14,0.54-2.5,0.94-3.98l1.53-5.78
		h1.55l1.39,5.81c0.32,1.36,0.63,2.72,0.8,3.93h0.03c0.24-1.26,0.56-2.53,0.92-3.96l1.51-5.78h1.51l-3.25,11.46h-1.55l-1.44-5.97
		c-0.36-1.46-0.6-2.58-0.75-3.74h-0.03c-0.2,1.14-0.46,2.26-0.88,3.74l-1.63,5.97H136.14z"/>
	<path d="M152.6,133.07l-0.12-1.04h-0.05c-0.46,0.65-1.34,1.22-2.52,1.22c-1.67,0-2.52-1.17-2.52-2.36c0-1.99,1.77-3.08,4.95-3.06
		v-0.17c0-0.68-0.19-1.9-1.87-1.9c-0.76,0-1.56,0.24-2.14,0.61l-0.34-0.99c0.68-0.44,1.67-0.73,2.7-0.73c2.52,0,3.13,1.72,3.13,3.37
		v3.08c0,0.71,0.03,1.41,0.14,1.97H152.6z M152.38,128.87c-1.63-0.03-3.48,0.25-3.48,1.85c0,0.97,0.65,1.43,1.41,1.43
		c1.07,0,1.75-0.68,1.99-1.38c0.05-0.15,0.09-0.32,0.09-0.48V128.87z"/>
	<path d="M156.04,131.54c0.44,0.29,1.22,0.59,1.97,0.59c1.09,0,1.6-0.54,1.6-1.22c0-0.71-0.42-1.1-1.53-1.51
		c-1.48-0.53-2.18-1.34-2.18-2.33c0-1.33,1.07-2.41,2.84-2.41c0.83,0,1.56,0.24,2.02,0.51l-0.37,1.09c-0.32-0.2-0.92-0.48-1.68-0.48
		c-0.88,0-1.38,0.51-1.38,1.12c0,0.68,0.49,0.99,1.56,1.39c1.43,0.54,2.16,1.26,2.16,2.48c0,1.44-1.12,2.46-3.08,2.46
		c-0.9,0-1.73-0.22-2.31-0.56L156.04,131.54z"/>
	<path d="M162.77,131.54c0.44,0.29,1.22,0.59,1.97,0.59c1.09,0,1.6-0.54,1.6-1.22c0-0.71-0.42-1.1-1.53-1.51
		c-1.48-0.53-2.18-1.34-2.18-2.33c0-1.33,1.07-2.41,2.84-2.41c0.83,0,1.56,0.24,2.02,0.51l-0.37,1.09c-0.32-0.2-0.92-0.48-1.68-0.48
		c-0.88,0-1.38,0.51-1.38,1.12c0,0.68,0.49,0.99,1.56,1.39c1.43,0.54,2.16,1.26,2.16,2.48c0,1.44-1.12,2.46-3.08,2.46
		c-0.9,0-1.73-0.22-2.31-0.56L162.77,131.54z"/>
	<path d="M170.54,129.22c0.03,2.02,1.33,2.86,2.82,2.86c1.07,0,1.72-0.19,2.28-0.42l0.26,1.07c-0.53,0.24-1.43,0.51-2.74,0.51
		c-2.53,0-4.05-1.67-4.05-4.15s1.46-4.44,3.86-4.44c2.69,0,3.4,2.36,3.4,3.88c0,0.31-0.03,0.54-0.05,0.7H170.54z M174.92,128.15
		c0.02-0.95-0.39-2.43-2.07-2.43c-1.51,0-2.18,1.39-2.29,2.43H174.92z"/>
	<path d="M178.22,127.4c0-0.97-0.02-1.8-0.07-2.57h1.31l0.05,1.61h0.07c0.37-1.1,1.28-1.8,2.28-1.8c0.17,0,0.29,0.02,0.42,0.05v1.41
		c-0.15-0.03-0.31-0.05-0.51-0.05c-1.05,0-1.8,0.8-2.01,1.92c-0.03,0.2-0.07,0.44-0.07,0.7v4.39h-1.48V127.4z"/>
	<path d="M158.3,144.42v3.99h3.84v1.02h-3.84v4.03h-1.09v-4.03h-3.84v-1.02h3.84v-3.99H158.3z"/>
	<path d="M128,172.06c0.66,0.41,1.63,0.75,2.65,0.75c1.51,0,2.4-0.8,2.4-1.96c0-1.07-0.61-1.68-2.16-2.28
		c-1.87-0.66-3.03-1.63-3.03-3.25c0-1.78,1.48-3.11,3.71-3.11c1.17,0,2.02,0.27,2.53,0.56l-0.41,1.21c-0.37-0.2-1.14-0.54-2.18-0.54
		c-1.56,0-2.16,0.94-2.16,1.72c0,1.07,0.7,1.6,2.28,2.21c1.94,0.75,2.92,1.68,2.92,3.37c0,1.77-1.31,3.3-4.01,3.3
		c-1.1,0-2.31-0.32-2.92-0.73L128,172.06z"/>
	<path d="M142.5,173.56c-0.39,0.2-1.26,0.48-2.36,0.48c-2.48,0-4.1-1.68-4.1-4.2c0-2.53,1.73-4.37,4.42-4.37
		c0.88,0,1.67,0.22,2.07,0.42l-0.34,1.16c-0.36-0.2-0.92-0.39-1.73-0.39c-1.89,0-2.91,1.39-2.91,3.11c0,1.9,1.22,3.08,2.86,3.08
		c0.85,0,1.41-0.22,1.84-0.41L142.5,173.56z"/>
	<path d="M144.25,161.8h1.5v5.13h0.03c0.24-0.43,0.61-0.8,1.07-1.05c0.44-0.25,0.97-0.42,1.53-0.42c1.1,0,2.87,0.68,2.87,3.52v4.9
		h-1.5v-4.73c0-1.33-0.49-2.45-1.9-2.45c-0.97,0-1.73,0.68-2.01,1.5c-0.08,0.2-0.1,0.42-0.1,0.71v4.96h-1.5V161.8z"/>
	<path d="M154.52,170.02c0.03,2.02,1.33,2.86,2.82,2.86c1.07,0,1.72-0.19,2.28-0.42l0.25,1.07c-0.53,0.24-1.43,0.51-2.74,0.51
		c-2.53,0-4.05-1.67-4.05-4.15s1.46-4.44,3.86-4.44c2.69,0,3.4,2.36,3.4,3.88c0,0.31-0.03,0.54-0.05,0.7H154.52z M158.91,168.95
		c0.02-0.95-0.39-2.43-2.07-2.43c-1.51,0-2.18,1.39-2.29,2.43H158.91z"/>
	<path d="M163.87,163.33c0.02,0.51-0.36,0.92-0.95,0.92c-0.53,0-0.9-0.41-0.9-0.92c0-0.53,0.39-0.93,0.94-0.93
		C163.51,162.39,163.87,162.8,163.87,163.33z M162.21,173.87v-8.23h1.5v8.23H162.21z"/>
	<path d="M173.29,161.8v9.94c0,0.73,0.02,1.56,0.07,2.13h-1.34l-0.07-1.43h-0.03c-0.46,0.92-1.46,1.61-2.8,1.61
		c-1.99,0-3.52-1.68-3.52-4.18c-0.02-2.74,1.68-4.42,3.69-4.42c1.26,0,2.11,0.59,2.48,1.26h0.03v-4.91H173.29z M171.79,168.99
		c0-0.19-0.02-0.44-0.07-0.63c-0.22-0.95-1.04-1.73-2.16-1.73c-1.55,0-2.46,1.36-2.46,3.18c0,1.67,0.82,3.04,2.43,3.04
		c1,0,1.92-0.66,2.19-1.78c0.05-0.2,0.07-0.41,0.07-0.65V168.99z"/>
	<path d="M176.6,170.02c0.03,2.02,1.33,2.86,2.82,2.86c1.07,0,1.72-0.19,2.28-0.42l0.26,1.07c-0.53,0.24-1.43,0.51-2.74,0.51
		c-2.53,0-4.05-1.67-4.05-4.15s1.46-4.44,3.86-4.44c2.69,0,3.4,2.36,3.4,3.88c0,0.31-0.03,0.54-0.05,0.7H176.6z M180.99,168.95
		c0.02-0.95-0.39-2.43-2.07-2.43c-1.51,0-2.18,1.39-2.29,2.43H180.99z"/>
	<path d="M184.29,168.2c0-0.97-0.02-1.8-0.07-2.57h1.31l0.05,1.61h0.07c0.37-1.1,1.28-1.8,2.28-1.8c0.17,0,0.29,0.02,0.42,0.05v1.41
		c-0.15-0.03-0.31-0.05-0.51-0.05c-1.05,0-1.8,0.8-2.01,1.92c-0.03,0.2-0.07,0.44-0.07,0.7v4.39h-1.48V168.2z"/>
</g>
<g>
	<path d="M226.42,73.57l-2.91-11.46h1.56l1.36,5.8c0.34,1.43,0.65,2.86,0.85,3.96h0.03c0.19-1.14,0.54-2.5,0.94-3.98l1.53-5.78h1.55
		l1.39,5.81c0.32,1.36,0.63,2.72,0.8,3.93h0.03c0.24-1.26,0.56-2.53,0.92-3.96l1.51-5.78h1.51l-3.25,11.46h-1.55l-1.44-5.97
		c-0.36-1.46-0.6-2.58-0.75-3.74h-0.03c-0.2,1.14-0.46,2.26-0.88,3.74l-1.63,5.97H226.42z"/>
	<path d="M242.88,73.57l-0.12-1.04h-0.05c-0.46,0.65-1.34,1.22-2.52,1.22c-1.67,0-2.52-1.17-2.52-2.36c0-1.99,1.77-3.08,4.95-3.06
		v-0.17c0-0.68-0.19-1.9-1.87-1.9c-0.77,0-1.56,0.24-2.14,0.61l-0.34-0.99c0.68-0.44,1.67-0.73,2.7-0.73c2.52,0,3.13,1.72,3.13,3.37
		v3.08c0,0.71,0.03,1.41,0.14,1.97H242.88z M242.66,69.37c-1.63-0.03-3.48,0.26-3.48,1.85c0,0.97,0.65,1.43,1.41,1.43
		c1.07,0,1.75-0.68,1.99-1.38c0.05-0.15,0.08-0.32,0.08-0.48V69.37z"/>
	<path d="M248.25,62.98v2.36h2.14v1.14h-2.14v4.44c0,1.02,0.29,1.6,1.12,1.6c0.39,0,0.68-0.05,0.87-0.1l0.07,1.12
		c-0.29,0.12-0.75,0.2-1.33,0.2c-0.7,0-1.26-0.22-1.61-0.63c-0.42-0.44-0.58-1.17-0.58-2.14v-4.49h-1.27v-1.14h1.27v-1.97
		L248.25,62.98z"/>
	<path d="M252.81,69.73c0.03,2.02,1.33,2.86,2.82,2.86c1.07,0,1.72-0.19,2.28-0.42l0.25,1.07c-0.53,0.24-1.43,0.51-2.74,0.51
		c-2.53,0-4.04-1.67-4.04-4.15c0-2.48,1.46-4.44,3.86-4.44c2.69,0,3.4,2.36,3.4,3.88c0,0.31-0.03,0.54-0.05,0.7H252.81z
		 M257.19,68.66c0.02-0.95-0.39-2.43-2.07-2.43c-1.51,0-2.18,1.39-2.29,2.43H257.19z"/>
	<path d="M260.49,67.91c0-0.97-0.02-1.8-0.07-2.57h1.31l0.05,1.61h0.07c0.37-1.1,1.28-1.8,2.28-1.8c0.17,0,0.29,0.02,0.42,0.05v1.41
		c-0.15-0.03-0.31-0.05-0.51-0.05c-1.05,0-1.8,0.8-2.01,1.92c-0.03,0.2-0.07,0.44-0.07,0.7v4.39h-1.48V67.91z"/>
</g>
<g>
	<path d="M224.03,105.74v-0.92l1.17-1.14c2.82-2.69,4.1-4.11,4.11-5.78c0-1.12-0.54-2.16-2.19-2.16c-1,0-1.84,0.51-2.35,0.94
		l-0.48-1.05c0.76-0.65,1.85-1.12,3.13-1.12c2.38,0,3.38,1.63,3.38,3.21c0,2.04-1.48,3.69-3.81,5.93l-0.88,0.82v0.03h4.96v1.24
		H224.03z"/>
	<path d="M232.73,101.27c0-0.61,0.42-1.07,1.02-1.07c0.59,0,0.99,0.44,1,1.07c0,0.61-0.41,1.07-1.02,1.07
		C233.14,102.34,232.71,101.88,232.73,101.27z"/>
	<path d="M239.51,96.08h-0.03l-1.92,1.04l-0.29-1.14l2.41-1.29h1.28v11.05h-1.45V96.08z"/>
	<path d="M252.33,100.09c0,3.76-1.39,5.83-3.84,5.83c-2.16,0-3.62-2.02-3.65-5.68c0-3.71,1.6-5.75,3.84-5.75
		C251,94.5,252.33,96.58,252.33,100.09z M246.33,100.26c0,2.87,0.88,4.5,2.24,4.5c1.53,0,2.26-1.79,2.26-4.61
		c0-2.72-0.7-4.5-2.24-4.5C247.28,95.66,246.33,97.26,246.33,100.26z"/>
	<path d="M256.43,101.22v-1.75h-3.21v-0.68l3.01-4.23h1.34v4.08h0.95v0.83h-0.95v1.75H256.43z M256.43,96.63
		c0-0.37,0.03-0.73,0.05-1.07h-0.03c-0.2,0.39-0.37,0.7-0.58,1l-1.48,2.04l0.02,0.03h2.02V96.63z"/>
	<path d="M265.16,101.28h0.03c0.2-0.29,0.49-0.65,0.73-0.94l2.41-2.84h1.8l-3.18,3.38l3.62,4.84h-1.82l-2.84-3.94l-0.76,0.85v3.09
		h-1.48V93.67h1.48V101.28z"/>
	<path d="M278.75,97.51c-0.03,0.59-0.07,1.26-0.07,2.26v4.78c0,1.89-0.37,3.04-1.17,3.76c-0.8,0.75-1.96,0.99-2.99,0.99
		c-0.99,0-2.07-0.24-2.74-0.68l0.37-1.14c0.54,0.34,1.39,0.65,2.41,0.65c1.53,0,2.65-0.8,2.65-2.87v-0.92h-0.03
		c-0.46,0.76-1.34,1.38-2.62,1.38c-2.04,0-3.5-1.73-3.5-4.01c0-2.79,1.82-4.37,3.71-4.37c1.43,0,2.21,0.75,2.57,1.43h0.03l0.07-1.24
		H278.75z M277.2,100.76c0-0.25-0.02-0.48-0.08-0.68c-0.27-0.87-1-1.58-2.09-1.58c-1.43,0-2.45,1.21-2.45,3.11
		c0,1.61,0.82,2.96,2.43,2.96c0.92,0,1.75-0.58,2.07-1.53c0.08-0.25,0.12-0.54,0.12-0.8V100.76z"/>
	<path d="M280.85,105.92l6.44-11.42h0.97l-6.46,11.42H280.85z"/>
	<path d="M290.43,93.67h1.5v5.13h0.03c0.24-0.43,0.61-0.8,1.07-1.05c0.44-0.25,0.97-0.42,1.53-0.42c1.11,0,2.87,0.68,2.87,3.52v4.9
		h-1.5v-4.73c0-1.33-0.49-2.45-1.9-2.45c-0.97,0-1.73,0.68-2.01,1.5c-0.08,0.2-0.1,0.42-0.1,0.71v4.96h-1.5V93.67z"/>
</g>
<g>
	<path d="M207.39,235.58c0.65-0.14,1.67-0.24,2.7-0.24c1.48,0,2.43,0.25,3.14,0.83c0.6,0.44,0.95,1.12,0.95,2.02
		c0,1.11-0.73,2.07-1.94,2.52v0.03c1.09,0.27,2.36,1.17,2.36,2.87c0,0.99-0.39,1.73-0.97,2.29c-0.8,0.73-2.09,1.07-3.96,1.07
		c-1.02,0-1.8-0.07-2.29-0.14V235.58z M208.87,240.27h1.34c1.56,0,2.48-0.82,2.48-1.92c0-1.34-1.02-1.87-2.52-1.87
		c-0.68,0-1.07,0.05-1.31,0.1V240.27z M208.87,245.76c0.29,0.05,0.71,0.07,1.24,0.07c1.53,0,2.94-0.56,2.94-2.23
		c0-1.56-1.34-2.21-2.96-2.21h-1.22V245.76z"/>
	<path d="M221.63,242.43h0.03c0.2-0.29,0.49-0.65,0.73-0.93l2.41-2.84h1.8l-3.18,3.38l3.62,4.84h-1.82l-2.84-3.94l-0.77,0.85v3.09
		h-1.48v-12.07h1.48V242.43z"/>
	<path d="M235.21,238.65c-0.03,0.59-0.07,1.26-0.07,2.26v4.78c0,1.89-0.37,3.04-1.17,3.76c-0.8,0.75-1.96,0.99-2.99,0.99
		c-0.99,0-2.07-0.24-2.74-0.68l0.37-1.14c0.54,0.34,1.39,0.65,2.41,0.65c1.53,0,2.65-0.8,2.65-2.87v-0.92h-0.03
		c-0.46,0.76-1.34,1.38-2.62,1.38c-2.04,0-3.5-1.73-3.5-4.01c0-2.79,1.82-4.37,3.71-4.37c1.43,0,2.21,0.75,2.57,1.43h0.03l0.07-1.24
		H235.21z M233.67,241.9c0-0.25-0.02-0.48-0.08-0.68c-0.27-0.87-1-1.58-2.09-1.58c-1.43,0-2.45,1.21-2.45,3.11
		c0,1.62,0.82,2.96,2.43,2.96c0.92,0,1.75-0.58,2.07-1.53c0.09-0.25,0.12-0.54,0.12-0.8V241.9z"/>
	<path d="M237.32,247.07l6.44-11.42h0.97l-6.46,11.42H237.32z"/>
	<path d="M246.89,234.81h1.5v5.13h0.03c0.24-0.42,0.61-0.8,1.07-1.05c0.44-0.25,0.97-0.42,1.53-0.42c1.1,0,2.87,0.68,2.87,3.52v4.9
		h-1.5v-4.73c0-1.33-0.49-2.45-1.9-2.45c-0.97,0-1.73,0.68-2.01,1.5c-0.08,0.2-0.1,0.42-0.1,0.71v4.96h-1.5V234.81z"/>
	<path d="M207.34,261.74c0-1.05-0.03-1.9-0.07-2.69h1.34l0.07,1.41h0.03c0.61-1,1.58-1.6,2.92-1.6c1.99,0,3.48,1.68,3.48,4.18
		c0,2.96-1.8,4.42-3.74,4.42c-1.09,0-2.04-0.48-2.53-1.29h-0.03v4.47h-1.48V261.74z M208.81,263.93c0,0.22,0.03,0.42,0.07,0.61
		c0.27,1.04,1.17,1.75,2.24,1.75c1.58,0,2.5-1.29,2.5-3.18c0-1.65-0.87-3.06-2.45-3.06c-1.02,0-1.97,0.73-2.26,1.85
		c-0.05,0.19-0.1,0.41-0.1,0.61V263.93z"/>
	<path d="M217.84,263.44c0.03,2.02,1.33,2.86,2.82,2.86c1.07,0,1.72-0.19,2.28-0.42l0.25,1.07c-0.53,0.24-1.43,0.51-2.74,0.51
		c-2.53,0-4.05-1.67-4.05-4.15s1.46-4.44,3.86-4.44c2.69,0,3.4,2.36,3.4,3.88c0,0.31-0.03,0.54-0.05,0.7H217.84z M222.23,262.37
		c0.02-0.95-0.39-2.43-2.07-2.43c-1.51,0-2.18,1.39-2.29,2.43H222.23z"/>
	<path d="M227,262.83h0.03c0.2-0.29,0.49-0.65,0.73-0.94l2.41-2.84h1.8l-3.18,3.38l3.62,4.84h-1.82l-2.84-3.94l-0.77,0.85v3.09
		h-1.48v-12.07H227V262.83z"/>
	<path d="M234.33,263.44c0.03,2.02,1.33,2.86,2.82,2.86c1.07,0,1.72-0.19,2.28-0.42l0.25,1.07c-0.53,0.24-1.43,0.51-2.74,0.51
		c-2.53,0-4.04-1.67-4.04-4.15s1.46-4.44,3.86-4.44c2.69,0,3.4,2.36,3.4,3.88c0,0.31-0.03,0.54-0.05,0.7H234.33z M238.72,262.37
		c0.02-0.95-0.39-2.43-2.07-2.43c-1.51,0-2.18,1.39-2.29,2.43H238.72z"/>
	<path d="M242.02,255.21h1.5v12.07h-1.5V255.21z"/>
	<path d="M245.72,267.47l6.44-11.42h0.97l-6.46,11.42H245.72z"/>
	<path d="M254.36,266.41l3.72-4.84c0.36-0.44,0.7-0.83,1.07-1.28v-0.03h-4.45v-1.21h6.27l-0.02,0.93l-3.67,4.78
		c-0.34,0.46-0.68,0.87-1.05,1.29v0.03h4.81v1.19h-6.68V266.41z"/>
	<path d="M267.12,267.28l-0.12-1.04h-0.05c-0.46,0.65-1.34,1.22-2.52,1.22c-1.67,0-2.52-1.17-2.52-2.36c0-1.99,1.77-3.08,4.95-3.06
		v-0.17c0-0.68-0.19-1.9-1.87-1.9c-0.76,0-1.56,0.24-2.14,0.61l-0.34-0.99c0.68-0.44,1.67-0.73,2.7-0.73c2.52,0,3.13,1.72,3.13,3.37
		v3.08c0,0.71,0.03,1.41,0.14,1.97H267.12z M266.9,263.08c-1.63-0.03-3.48,0.25-3.48,1.85c0,0.97,0.65,1.43,1.41,1.43
		c1.07,0,1.75-0.68,1.99-1.38c0.05-0.15,0.08-0.32,0.08-0.48V263.08z"/>
	<path d="M270.76,261.28c0-0.85-0.02-1.55-0.07-2.23h1.33l0.08,1.36h0.03c0.41-0.78,1.36-1.55,2.72-1.55c1.14,0,2.91,0.68,2.91,3.5
		v4.91h-1.5v-4.74c0-1.33-0.49-2.43-1.9-2.43c-0.99,0-1.75,0.7-2.01,1.53c-0.07,0.19-0.1,0.44-0.1,0.7v4.95h-1.5V261.28z"/>
	<path d="M287.3,255.21v9.94c0,0.73,0.02,1.56,0.07,2.13h-1.34l-0.07-1.43h-0.03c-0.46,0.92-1.46,1.62-2.8,1.62
		c-1.99,0-3.52-1.68-3.52-4.18c-0.02-2.74,1.68-4.42,3.69-4.42c1.26,0,2.11,0.59,2.48,1.26h0.03v-4.91H287.3z M285.81,262.4
		c0-0.19-0.02-0.44-0.07-0.63c-0.22-0.95-1.04-1.73-2.16-1.73c-1.55,0-2.46,1.36-2.46,3.18c0,1.67,0.82,3.04,2.43,3.04
		c1,0,1.92-0.66,2.19-1.79c0.05-0.2,0.07-0.41,0.07-0.65V262.4z"/>
	<path d="M292.83,261.55v-1.02h8.77v1.02H292.83z M292.83,264.88v-1.02h8.77v1.02H292.83z"/>
	<path d="M309.89,257.63h-0.03l-1.92,1.04l-0.29-1.14l2.41-1.29h1.28v11.05h-1.45V257.63z"/>
	<path d="M319.09,260.41c0-0.63,0.42-1.07,1.02-1.07s0.99,0.44,1,1.07c0,0.59-0.39,1.05-1.02,1.05
		C319.5,261.47,319.09,261.01,319.09,260.41z M319.09,266.41c0-0.63,0.42-1.07,1.02-1.07s0.99,0.44,1,1.07
		c0,0.59-0.39,1.05-1.02,1.05C319.5,267.47,319.09,267.01,319.09,266.41z"/>
	<path d="M326.1,267.28v-0.92l1.17-1.14c2.82-2.69,4.1-4.11,4.11-5.78c0-1.12-0.54-2.16-2.19-2.16c-1,0-1.83,0.51-2.35,0.94
		l-0.48-1.05c0.76-0.65,1.85-1.12,3.13-1.12c2.38,0,3.38,1.63,3.38,3.21c0,2.04-1.48,3.69-3.81,5.93l-0.88,0.82v0.03h4.96v1.24
		H326.1z"/>
</g>
<g>
	<path d="M343.24,142.33c0.9-0.14,1.97-0.24,3.14-0.24c2.13,0,3.64,0.49,4.64,1.43c1.02,0.93,1.62,2.26,1.62,4.11
		c0,1.87-0.58,3.4-1.65,4.45c-1.07,1.07-2.84,1.65-5.07,1.65c-1.05,0-1.94-0.05-2.69-0.14V142.33z M344.72,152.46
		c0.37,0.07,0.92,0.08,1.5,0.08c3.16,0,4.88-1.77,4.88-4.86c0.02-2.7-1.51-4.42-4.64-4.42c-0.76,0-1.34,0.07-1.73,0.15V152.46z"/>
	<path d="M354.51,147.98c0-0.97-0.02-1.8-0.07-2.57h1.31l0.05,1.61h0.07c0.37-1.1,1.27-1.8,2.28-1.8c0.17,0,0.29,0.02,0.42,0.05
		v1.41c-0.15-0.03-0.31-0.05-0.51-0.05c-1.05,0-1.8,0.8-2.01,1.92c-0.03,0.2-0.07,0.44-0.07,0.7v4.39h-1.48V147.98z"/>
	<path d="M367.35,149.45c0,3.04-2.11,4.37-4.1,4.37c-2.23,0-3.94-1.63-3.94-4.23c0-2.75,1.8-4.37,4.08-4.37
		C365.75,145.22,367.35,146.94,367.35,149.45z M360.82,149.54c0,1.8,1.04,3.16,2.5,3.16c1.43,0,2.5-1.34,2.5-3.2
		c0-1.39-0.7-3.16-2.46-3.16C361.58,146.34,360.82,147.98,360.82,149.54z"/>
	<path d="M376.32,145.41c-0.03,0.59-0.07,1.26-0.07,2.26v4.78c0,1.89-0.37,3.04-1.17,3.76c-0.8,0.75-1.96,0.99-2.99,0.99
		c-0.99,0-2.07-0.24-2.74-0.68l0.37-1.14c0.54,0.34,1.39,0.65,2.41,0.65c1.53,0,2.65-0.8,2.65-2.87v-0.92h-0.03
		c-0.46,0.76-1.34,1.38-2.62,1.38c-2.04,0-3.5-1.73-3.5-4.01c0-2.79,1.82-4.37,3.71-4.37c1.43,0,2.21,0.75,2.57,1.43h0.03l0.07-1.24
		H376.32z M374.78,148.66c0-0.25-0.02-0.48-0.08-0.68c-0.27-0.87-1-1.58-2.09-1.58c-1.43,0-2.45,1.21-2.45,3.11
		c0,1.61,0.82,2.96,2.43,2.96c0.92,0,1.75-0.58,2.07-1.53c0.09-0.25,0.12-0.54,0.12-0.8V148.66z"/>
	<path d="M379.57,149.79c0.03,2.02,1.33,2.86,2.82,2.86c1.07,0,1.72-0.19,2.28-0.42l0.25,1.07c-0.53,0.24-1.43,0.51-2.74,0.51
		c-2.53,0-4.05-1.67-4.05-4.15s1.46-4.44,3.86-4.44c2.69,0,3.4,2.36,3.4,3.88c0,0.31-0.03,0.54-0.05,0.7H379.57z M383.96,148.72
		c0.02-0.95-0.39-2.43-2.07-2.43c-1.51,0-2.18,1.39-2.29,2.43H383.96z"/>
	<path d="M387.25,147.98c0-0.97-0.02-1.8-0.07-2.57h1.31l0.05,1.61h0.07c0.37-1.1,1.28-1.8,2.28-1.8c0.17,0,0.29,0.02,0.42,0.05
		v1.41c-0.15-0.03-0.31-0.05-0.51-0.05c-1.05,0-1.8,0.8-2.01,1.92c-0.03,0.2-0.07,0.44-0.07,0.7v4.39h-1.48V147.98z"/>
</g>
<g>
	<g>
		<rect x="403.26" y="148.88" width="119.28" height="1"/>
	</g>
	<g>
		<g>
			<polygon points="519.57,145.02 535.83,149.38 519.57,153.74 			"/>
		</g>
	</g>
</g>
<g>
	<g>
		<rect x="366.26" y="18.14" width="1" height="47.71"/>
	</g>
	<g>
		<g>
			<polygon points="362.4,21.11 366.76,4.85 371.12,21.11 			"/>
		</g>
	</g>
</g>
<g>
	<path d="M411.01,126.86c0.9-0.14,1.97-0.24,3.14-0.24c2.13,0,3.64,0.49,4.64,1.43c1.02,0.93,1.61,2.26,1.61,4.11
		c0,1.87-0.58,3.4-1.65,4.45c-1.07,1.07-2.84,1.65-5.07,1.65c-1.05,0-1.94-0.05-2.69-0.14V126.86z M412.49,136.99
		c0.37,0.07,0.92,0.08,1.5,0.08c3.16,0,4.88-1.77,4.88-4.86c0.02-2.7-1.51-4.42-4.64-4.42c-0.76,0-1.34,0.07-1.73,0.15V136.99z"/>
	<path d="M427.37,133.71h0.03c0.2-0.29,0.49-0.65,0.73-0.94l2.41-2.84h1.8l-3.18,3.38l3.62,4.84h-1.82l-2.84-3.94l-0.76,0.85v3.09
		h-1.48v-12.07h1.48V133.71z"/>
	<path d="M440.95,129.93c-0.03,0.59-0.07,1.26-0.07,2.26v4.78c0,1.89-0.37,3.04-1.17,3.76c-0.8,0.75-1.96,0.99-2.99,0.99
		c-0.99,0-2.07-0.24-2.74-0.68l0.37-1.14c0.54,0.34,1.39,0.65,2.41,0.65c1.53,0,2.65-0.8,2.65-2.87v-0.92h-0.03
		c-0.46,0.76-1.34,1.38-2.62,1.38c-2.04,0-3.5-1.73-3.5-4.01c0-2.79,1.82-4.37,3.71-4.37c1.43,0,2.21,0.75,2.57,1.43h0.03l0.07-1.24
		H440.95z M439.4,133.18c0-0.25-0.02-0.48-0.08-0.68c-0.27-0.87-1-1.58-2.09-1.58c-1.43,0-2.45,1.21-2.45,3.11
		c0,1.61,0.82,2.96,2.43,2.96c0.92,0,1.75-0.58,2.07-1.53c0.08-0.25,0.12-0.54,0.12-0.8V133.18z"/>
	<path d="M446.03,137.29l3.72-4.84c0.36-0.44,0.7-0.83,1.07-1.27v-0.03h-4.45v-1.21h6.27l-0.02,0.93l-3.67,4.78
		c-0.34,0.46-0.68,0.87-1.05,1.29v0.03h4.81v1.19h-6.68V137.29z"/>
	<path d="M458.8,138.16l-0.12-1.04h-0.05c-0.46,0.65-1.34,1.22-2.52,1.22c-1.67,0-2.52-1.17-2.52-2.36c0-1.99,1.77-3.08,4.95-3.06
		v-0.17c0-0.68-0.19-1.9-1.87-1.9c-0.76,0-1.56,0.24-2.14,0.61l-0.34-0.99c0.68-0.44,1.67-0.73,2.7-0.73c2.52,0,3.13,1.72,3.13,3.37
		v3.08c0,0.71,0.03,1.41,0.14,1.97H458.8z M458.58,133.96c-1.63-0.03-3.48,0.25-3.48,1.85c0,0.97,0.65,1.43,1.41,1.43
		c1.07,0,1.75-0.68,1.99-1.38c0.05-0.15,0.08-0.32,0.08-0.48V133.96z"/>
	<path d="M462.44,132.16c0-0.85-0.02-1.55-0.07-2.23h1.33l0.08,1.36h0.03c0.41-0.78,1.36-1.55,2.72-1.55c1.14,0,2.91,0.68,2.91,3.5
		v4.91h-1.5v-4.74c0-1.33-0.49-2.43-1.9-2.43c-0.99,0-1.75,0.7-2.01,1.53c-0.07,0.19-0.1,0.44-0.1,0.7v4.95h-1.5V132.16z"/>
	<path d="M478.98,126.09v9.94c0,0.73,0.02,1.56,0.07,2.13h-1.34l-0.07-1.43h-0.03c-0.46,0.92-1.46,1.61-2.8,1.61
		c-1.99,0-3.52-1.68-3.52-4.18c-0.02-2.74,1.68-4.42,3.69-4.42c1.26,0,2.11,0.59,2.48,1.26h0.03v-4.91H478.98z M477.48,133.28
		c0-0.19-0.02-0.44-0.07-0.63c-0.22-0.95-1.04-1.73-2.16-1.73c-1.55,0-2.46,1.36-2.46,3.18c0,1.67,0.82,3.04,2.43,3.04
		c1,0,1.92-0.66,2.19-1.78c0.05-0.2,0.07-0.41,0.07-0.65V133.28z"/>
	<path d="M481.15,138.35l6.44-11.42h0.97l-6.46,11.42H481.15z"/>
	<path d="M490.72,126.09h1.5v5.13h0.03c0.24-0.43,0.61-0.8,1.07-1.05c0.44-0.25,0.97-0.42,1.53-0.42c1.1,0,2.87,0.68,2.87,3.52v4.9
		h-1.5v-4.73c0-1.33-0.49-2.45-1.9-2.45c-0.97,0-1.73,0.68-2.01,1.5c-0.08,0.2-0.1,0.42-0.1,0.71v4.96h-1.5V126.09z"/>
	<path d="M411.66,162.93l1.17,1.77c0.31,0.46,0.56,0.88,0.83,1.34h0.05c0.27-0.49,0.54-0.92,0.82-1.36l1.16-1.75h1.62l-2.8,3.98
		l2.89,4.25h-1.7l-1.21-1.85c-0.32-0.48-0.59-0.93-0.88-1.43h-0.03c-0.27,0.49-0.56,0.94-0.87,1.43l-1.19,1.85h-1.65l2.92-4.2
		l-2.79-4.03H411.66z"/>
	<path d="M418.35,166.22c0.53-0.08,1.15-0.14,1.83-0.14c1.24,0,2.12,0.29,2.71,0.83c0.6,0.55,0.94,1.32,0.94,2.4
		c0,1.09-0.34,1.98-0.96,2.6c-0.63,0.62-1.66,0.96-2.96,0.96c-0.61,0-1.13-0.03-1.57-0.08V166.22z M419.21,172.14
		c0.22,0.04,0.54,0.05,0.87,0.05c1.84,0,2.85-1.03,2.85-2.84c0.01-1.58-0.88-2.58-2.71-2.58c-0.45,0-0.78,0.04-1.01,0.09V172.14z"/>
	<path d="M428.54,166.69c0-0.61,0.42-1.07,1.02-1.07s0.99,0.44,1,1.07c0,0.61-0.41,1.07-1.02,1.07
		C428.95,167.76,428.53,167.3,428.54,166.69z"/>
	<path d="M438.93,161.5h-0.03l-1.92,1.04l-0.29-1.14l2.41-1.29h1.28v11.05h-1.45V161.5z"/>
	<path d="M451.75,165.52c0,3.76-1.39,5.83-3.84,5.83c-2.16,0-3.62-2.02-3.65-5.68c0-3.71,1.6-5.75,3.84-5.75
		C450.42,159.92,451.75,162,451.75,165.52z M445.75,165.69c0,2.87,0.88,4.5,2.24,4.5c1.53,0,2.26-1.79,2.26-4.61
		c0-2.72-0.7-4.5-2.24-4.5C446.7,161.08,445.75,162.68,445.75,165.69z"/>
	<path d="M460.47,165.52c0,3.76-1.39,5.83-3.84,5.83c-2.16,0-3.62-2.02-3.66-5.68c0-3.71,1.6-5.75,3.84-5.75
		C459.14,159.92,460.47,162,460.47,165.52z M454.47,165.69c0,2.87,0.88,4.5,2.24,4.5c1.53,0,2.26-1.79,2.26-4.61
		c0-2.72-0.7-4.5-2.24-4.5C455.42,161.08,454.47,162.68,454.47,165.69z"/>
	<path d="M466.83,163.22c0,2.33-1.22,3.48-2.65,3.48c-1.38,0-2.57-1.1-2.58-3.33c0-2.21,1.21-3.45,2.67-3.45
		C465.81,159.92,466.83,161.11,466.83,163.22z M462.78,163.32c-0.03,1.41,0.49,2.48,1.43,2.48c0.99,0,1.43-1.05,1.43-2.52
		c0-1.34-0.39-2.46-1.43-2.46C463.27,160.82,462.78,161.93,462.78,163.32z M464.07,171.35l6.49-11.42h0.95l-6.49,11.42H464.07z
		 M474.02,167.79c0,2.33-1.22,3.48-2.63,3.48c-1.38,0-2.57-1.1-2.58-3.31c0-2.23,1.21-3.47,2.67-3.47
		C473.01,164.5,474.02,165.69,474.02,167.79z M469.97,167.9c-0.02,1.41,0.53,2.48,1.45,2.48c0.99,0,1.43-1.05,1.43-2.52
		c0-1.34-0.39-2.46-1.43-2.46C470.48,165.4,469.97,166.5,469.97,167.9z"/>
	<path d="M478.45,170.29l3.72-4.84c0.36-0.44,0.7-0.83,1.07-1.27v-0.03h-4.45v-1.21h6.27l-0.02,0.93l-3.67,4.78
		c-0.34,0.46-0.68,0.87-1.05,1.29v0.03h4.81v1.19h-6.68V170.29z"/>
	<path d="M493.99,166.98c0,3.04-2.11,4.37-4.1,4.37c-2.23,0-3.94-1.63-3.94-4.23c0-2.75,1.8-4.37,4.08-4.37
		C492.39,162.75,493.99,164.46,493.99,166.98z M487.46,167.06c0,1.8,1.04,3.16,2.5,3.16c1.43,0,2.5-1.34,2.5-3.2
		c0-1.39-0.7-3.16-2.46-3.16S487.46,165.5,487.46,167.06z"/>
	<path d="M502.76,168.92c0,0.85,0.02,1.6,0.07,2.24h-1.33l-0.08-1.34h-0.03c-0.39,0.66-1.26,1.53-2.72,1.53
		c-1.29,0-2.84-0.71-2.84-3.6v-4.81h1.5v4.56c0,1.56,0.48,2.62,1.84,2.62c1,0,1.7-0.7,1.97-1.36c0.08-0.22,0.14-0.49,0.14-0.77
		v-5.05h1.5V168.92z"/>
	<path d="M507.05,160.57v2.36h2.14v1.14h-2.14v4.44c0,1.02,0.29,1.6,1.12,1.6c0.39,0,0.68-0.05,0.87-0.1l0.07,1.12
		c-0.29,0.12-0.75,0.2-1.33,0.2c-0.7,0-1.26-0.22-1.61-0.63c-0.42-0.44-0.58-1.17-0.58-2.14v-4.49h-1.27v-1.14h1.27v-1.97
		L507.05,160.57z"/>
</g>
<g>
	<path d="M384.62,31.29c-0.54,0.27-1.63,0.54-3.03,0.54c-3.23,0-5.66-2.04-5.66-5.8c0-3.59,2.43-6.02,5.98-6.02
		c1.43,0,2.33,0.31,2.72,0.51l-0.36,1.21c-0.56-0.27-1.36-0.48-2.31-0.48c-2.69,0-4.47,1.72-4.47,4.73c0,2.8,1.62,4.61,4.4,4.61
		c0.9,0,1.82-0.19,2.41-0.48L384.62,31.29z"/>
	<path d="M391.5,27.21h0.03c0.2-0.29,0.49-0.65,0.73-0.94l2.41-2.84h1.8l-3.18,3.38l3.62,4.84h-1.82l-2.84-3.94l-0.76,0.85v3.09
		h-1.48V19.59h1.48V27.21z"/>
	<path d="M405.08,23.43c-0.03,0.59-0.07,1.26-0.07,2.26v4.78c0,1.89-0.37,3.04-1.17,3.76c-0.8,0.75-1.95,0.99-2.99,0.99
		c-0.99,0-2.07-0.24-2.74-0.68l0.37-1.14c0.54,0.34,1.39,0.65,2.41,0.65c1.53,0,2.65-0.8,2.65-2.87v-0.92h-0.03
		c-0.46,0.76-1.34,1.38-2.62,1.38c-2.04,0-3.5-1.73-3.5-4.01c0-2.79,1.82-4.37,3.71-4.37c1.43,0,2.21,0.75,2.57,1.43h0.03l0.07-1.24
		H405.08z M403.54,26.68c0-0.25-0.02-0.48-0.08-0.68c-0.27-0.87-1-1.58-2.09-1.58c-1.43,0-2.45,1.21-2.45,3.11
		c0,1.61,0.82,2.96,2.43,2.96c0.92,0,1.75-0.58,2.07-1.53c0.08-0.25,0.12-0.54,0.12-0.8V26.68z"/>
	<path d="M409.85,32.34l4.74-12.32h1.16l-4.76,12.32H409.85z"/>
	<path d="M420.54,19.59h1.5v5.13h0.03c0.24-0.43,0.61-0.8,1.07-1.05c0.44-0.25,0.97-0.42,1.53-0.42c1.11,0,2.87,0.68,2.87,3.52v4.9
		h-1.5v-4.73c0-1.33-0.49-2.45-1.9-2.45c-0.97,0-1.73,0.68-2.01,1.5c-0.08,0.2-0.1,0.42-0.1,0.71v4.96h-1.5V19.59z"/>
	<path d="M378.48,52.06l-2.91-11.46h1.56l1.36,5.8c0.34,1.43,0.65,2.86,0.85,3.96h0.03c0.19-1.14,0.54-2.5,0.93-3.98l1.53-5.78h1.55
		l1.39,5.81c0.32,1.36,0.63,2.72,0.8,3.93h0.03c0.24-1.26,0.56-2.53,0.92-3.96l1.51-5.78h1.51l-3.25,11.46h-1.55l-1.45-5.97
		c-0.36-1.46-0.59-2.58-0.75-3.74h-0.03c-0.2,1.14-0.46,2.26-0.88,3.74l-1.63,5.97H378.48z"/>
	<path d="M394.94,52.06l-0.12-1.04h-0.05c-0.46,0.65-1.34,1.22-2.52,1.22c-1.67,0-2.52-1.17-2.52-2.36c0-1.99,1.77-3.08,4.95-3.06
		v-0.17c0-0.68-0.19-1.9-1.87-1.9c-0.77,0-1.56,0.24-2.14,0.61l-0.34-0.99c0.68-0.44,1.67-0.73,2.7-0.73c2.52,0,3.13,1.72,3.13,3.37
		v3.08c0,0.71,0.03,1.41,0.14,1.97H394.94z M394.72,47.86c-1.63-0.03-3.48,0.26-3.48,1.85c0,0.97,0.65,1.43,1.41,1.43
		c1.07,0,1.75-0.68,1.99-1.38c0.05-0.15,0.08-0.32,0.08-0.48V47.86z"/>
	<path d="M400.31,41.47v2.36h2.14v1.14h-2.14v4.44c0,1.02,0.29,1.6,1.12,1.6c0.39,0,0.68-0.05,0.87-0.1l0.07,1.12
		c-0.29,0.12-0.75,0.2-1.33,0.2c-0.7,0-1.26-0.22-1.61-0.63c-0.43-0.44-0.58-1.17-0.58-2.14v-4.49h-1.28v-1.14h1.28v-1.97
		L400.31,41.47z"/>
	<path d="M404.86,48.22c0.03,2.02,1.33,2.86,2.82,2.86c1.07,0,1.72-0.19,2.28-0.42l0.26,1.07c-0.53,0.24-1.43,0.51-2.74,0.51
		c-2.53,0-4.05-1.67-4.05-4.15c0-2.48,1.46-4.44,3.86-4.44c2.69,0,3.4,2.36,3.4,3.88c0,0.31-0.03,0.54-0.05,0.7H404.86z
		 M409.25,47.15c0.02-0.95-0.39-2.43-2.07-2.43c-1.51,0-2.18,1.39-2.29,2.43H409.25z"/>
	<path d="M412.55,46.4c0-0.97-0.02-1.8-0.07-2.57h1.31l0.05,1.61h0.07c0.37-1.1,1.28-1.8,2.28-1.8c0.17,0,0.29,0.02,0.42,0.05v1.41
		c-0.15-0.03-0.31-0.05-0.51-0.05c-1.05,0-1.8,0.8-2.01,1.92c-0.03,0.2-0.07,0.44-0.07,0.7v4.39h-1.48V46.4z"/>
</g>
</svg>
