<?xml version="1.0" encoding="utf-8"?>
<!-- Generator: Adobe Illustrator 24.1.1, SVG Export Plug-In . SVG Version: 6.00 Build 0)  -->
<svg version="1.1" id="Layer_1" xmlns="http://www.w3.org/2000/svg" xmlns:xlink="http://www.w3.org/1999/xlink" x="0px" y="0px"
	 viewBox="0 0 548.43 168.51" style="enable-background:new 0 0 548.43 168.51;" xml:space="preserve">
<style type="text/css">
	.st0{fill:#FFFFFF;}
</style>
<g>
	<rect x="191.88" y="61.38" class="st0" width="93" height="50"/>
	<path d="M285.38,111.88h-94v-51h94V111.88z M192.38,110.88h92v-49h-92V110.88z"/>
</g>
<g>
	<rect x="379.88" y="61.38" class="st0" width="93" height="50"/>
	<path d="M473.38,111.88h-94v-51h94V111.88z M380.38,110.88h92v-49h-92V110.88z"/>
</g>
<g>
	<g>
		<rect x="284.88" y="85.88" width="81.71" height="1"/>
	</g>
	<g>
		<g>
			<polygon points="363.62,90.74 379.88,86.38 363.62,82.03 			"/>
		</g>
	</g>
</g>
<g>
	<g>
		<rect x="16.87" y="85.88" width="161.71" height="1"/>
	</g>
	<g>
		<g>
			<polygon points="175.62,82.03 191.88,86.38 175.62,90.74 			"/>
		</g>
	</g>
</g>
<g>
	<g>
		<rect x="472.88" y="85.88" width="55.71" height="1"/>
	</g>
	<g>
		<g>
			<polygon points="525.61,90.74 541.87,86.38 525.61,82.03 			"/>
		</g>
	</g>
</g>
<g>
	<g>
		<rect x="425.88" y="23.67" width="1" height="37.71"/>
	</g>
	<g>
		<g>
			<polygon points="430.74,26.64 426.38,10.38 422.02,26.64 			"/>
		</g>
	</g>
</g>
<g>
	<g>
		<polygon points="426.88,155.86 128.38,155.86 128.38,102.65 129.38,102.65 129.38,154.86 425.88,154.86 425.88,111.38 
			426.88,111.38 		"/>
	</g>
	<g>
		<g>
			<polygon points="124.52,105.62 128.88,89.36 133.23,105.62 			"/>
		</g>
	</g>
</g>
<g>
	<path d="M62.44,62.44h7.62v1.53h-5.79v4.7h5.35v1.51h-5.35v6.4h-1.83V62.44z"/>
	<path d="M21,95.67h-0.04l-2.37,1.28l-0.36-1.41l2.98-1.6h1.57v13.65H21V95.67z"/>
	<path d="M36.83,100.63c0,4.64-1.72,7.2-4.75,7.2c-2.67,0-4.47-2.5-4.51-7.01c0-4.58,1.97-7.1,4.75-7.1
		C35.19,93.72,36.83,96.28,36.83,100.63z M29.42,100.84c0,3.55,1.09,5.56,2.77,5.56c1.89,0,2.79-2.21,2.79-5.69
		c0-3.36-0.86-5.56-2.77-5.56C30.6,95.15,29.42,97.12,29.42,100.84z"/>
	<path d="M47.6,100.63c0,4.64-1.72,7.2-4.75,7.2c-2.67,0-4.47-2.5-4.51-7.01c0-4.58,1.97-7.1,4.75-7.1
		C45.97,93.72,47.6,96.28,47.6,100.63z M40.19,100.84c0,3.55,1.09,5.56,2.77,5.56c1.89,0,2.79-2.21,2.79-5.69
		c0-3.36-0.86-5.56-2.77-5.56C41.37,95.15,40.19,97.12,40.19,100.84z"/>
	<path d="M56.17,102.09h0.04c0.25-0.36,0.61-0.8,0.9-1.15l2.98-3.51h2.23l-3.93,4.18l4.47,5.98h-2.25l-3.51-4.87l-0.94,1.05v3.82
		h-1.83V92.69h1.83V102.09z"/>
	<path d="M64.55,100.18c0-1.05-0.02-1.91-0.08-2.75h1.62l0.08,1.64h0.06c0.57-0.97,1.51-1.87,3.19-1.87c1.39,0,2.44,0.84,2.88,2.04
		h0.04c0.31-0.57,0.71-1.01,1.13-1.32c0.61-0.46,1.28-0.71,2.25-0.71c1.34,0,3.34,0.88,3.34,4.41v5.98h-1.81v-5.75
		c0-1.95-0.71-3.13-2.2-3.13c-1.05,0-1.87,0.78-2.18,1.68c-0.08,0.25-0.15,0.59-0.15,0.92v6.28h-1.81v-6.09
		c0-1.62-0.71-2.79-2.12-2.79c-1.15,0-1.99,0.92-2.29,1.85c-0.1,0.27-0.15,0.59-0.15,0.9v6.13h-1.81V100.18z"/>
	<path d="M91.26,102.43c0,3.76-2.6,5.4-5.06,5.4c-2.75,0-4.87-2.02-4.87-5.23c0-3.4,2.23-5.4,5.04-5.4
		C89.29,97.2,91.26,99.32,91.26,102.43z M83.2,102.54c0,2.22,1.28,3.9,3.09,3.9c1.76,0,3.09-1.66,3.09-3.95
		c0-1.72-0.86-3.9-3.04-3.9S83.2,100.6,83.2,102.54z"/>
	<path d="M93.59,92.69h1.85v14.91h-1.85V92.69z"/>
	<path d="M97,108.44l5.86-15.22h1.43l-5.88,15.22H97z"/>
	<path d="M105.75,92.69h1.85v6.34h0.04c0.29-0.52,0.76-0.99,1.32-1.3c0.55-0.31,1.2-0.53,1.89-0.53c1.36,0,3.55,0.84,3.55,4.35v6.05
		h-1.85v-5.84c0-1.64-0.61-3.02-2.35-3.02c-1.2,0-2.14,0.84-2.48,1.85c-0.1,0.25-0.13,0.53-0.13,0.88v6.13h-1.85V92.69z"/>
</g>
<g>
	<path d="M151.84,62.44h7.62v1.53h-5.79v4.7h5.35v1.51h-5.35v6.4h-1.83V62.44z"/>
	<path d="M162.47,71.34v8.25h-1.06v-8.25H162.47z"/>
	<path d="M164.33,79.59v-8.25h1.16l2.64,4.17c0.61,0.97,1.09,1.84,1.48,2.68l0.02-0.01c-0.1-1.1-0.12-2.1-0.12-3.39v-3.45h1v8.25
		h-1.08l-2.62-4.19c-0.58-0.92-1.13-1.86-1.54-2.75l-0.04,0.01c0.06,1.04,0.09,2.03,0.09,3.4v3.52H164.33z"/>
</g>
<g>
	<path d="M206.51,78.04c0.92-0.19,2.25-0.29,3.51-0.29c1.95,0,3.21,0.36,4.09,1.15c0.71,0.63,1.11,1.6,1.11,2.69
		c0,1.87-1.18,3.11-2.67,3.61v0.06c1.09,0.38,1.74,1.39,2.08,2.86c0.46,1.97,0.8,3.34,1.09,3.88h-1.89
		c-0.23-0.4-0.55-1.62-0.94-3.38c-0.42-1.95-1.18-2.69-2.83-2.75h-1.72V92h-1.83V78.04z M208.34,84.48h1.87
		c1.95,0,3.19-1.07,3.19-2.69c0-1.83-1.32-2.62-3.25-2.65c-0.88,0-1.51,0.08-1.81,0.17V84.48z"/>
	<path d="M218.86,87.26c0.04,2.5,1.64,3.53,3.49,3.53c1.32,0,2.12-0.23,2.81-0.52l0.31,1.32c-0.65,0.29-1.76,0.63-3.38,0.63
		c-3.13,0-5-2.06-5-5.12s1.81-5.48,4.77-5.48c3.32,0,4.2,2.92,4.2,4.79c0,0.38-0.04,0.67-0.06,0.86H218.86z M224.28,85.93
		c0.02-1.18-0.48-3-2.56-3c-1.87,0-2.69,1.72-2.83,3H224.28z"/>
	<path d="M233.98,92l-0.15-1.28h-0.06c-0.57,0.8-1.66,1.51-3.11,1.51c-2.06,0-3.11-1.45-3.11-2.92c0-2.46,2.18-3.8,6.11-3.78v-0.21
		c0-0.84-0.23-2.35-2.31-2.35c-0.94,0-1.93,0.29-2.65,0.76l-0.42-1.22c0.84-0.55,2.06-0.9,3.34-0.9c3.11,0,3.86,2.12,3.86,4.16v3.8
		c0,0.88,0.04,1.74,0.17,2.44H233.98z M233.7,86.81c-2.02-0.04-4.3,0.31-4.3,2.29c0,1.2,0.8,1.76,1.74,1.76
		c1.32,0,2.16-0.84,2.46-1.7c0.06-0.19,0.1-0.4,0.1-0.59V86.81z"/>
	<path d="M245.72,91.62c-0.48,0.25-1.55,0.59-2.92,0.59c-3.07,0-5.06-2.08-5.06-5.19c0-3.13,2.14-5.4,5.46-5.4
		c1.09,0,2.06,0.27,2.56,0.52l-0.42,1.43c-0.44-0.25-1.13-0.48-2.14-0.48c-2.33,0-3.59,1.72-3.59,3.84c0,2.35,1.51,3.8,3.53,3.8
		c1.05,0,1.74-0.27,2.27-0.5L245.72,91.62z"/>
	<path d="M250.38,78.92v2.92h2.65v1.41h-2.65v5.48c0,1.26,0.36,1.97,1.39,1.97c0.48,0,0.84-0.06,1.07-0.13l0.08,1.39
		c-0.36,0.15-0.92,0.25-1.64,0.25c-0.86,0-1.55-0.27-1.99-0.78c-0.52-0.55-0.71-1.45-0.71-2.65v-5.54H247v-1.41h1.57V79.4
		L250.38,78.92z"/>
	<path d="M264.17,86.84c0,3.76-2.6,5.4-5.06,5.4c-2.75,0-4.87-2.02-4.87-5.23c0-3.4,2.23-5.4,5.04-5.4
		C262.2,81.61,264.17,83.73,264.17,86.84z M256.11,86.94c0,2.23,1.28,3.91,3.09,3.91c1.76,0,3.09-1.66,3.09-3.95
		c0-1.72-0.86-3.91-3.04-3.91S256.11,85.01,256.11,86.94z"/>
	<path d="M266.51,85.01c0-1.2-0.02-2.23-0.08-3.17h1.62l0.06,1.99h0.08c0.46-1.36,1.57-2.23,2.81-2.23c0.21,0,0.36,0.02,0.52,0.06
		v1.74c-0.19-0.04-0.38-0.06-0.63-0.06c-1.3,0-2.23,0.99-2.48,2.37c-0.04,0.25-0.08,0.55-0.08,0.86V92h-1.83V85.01z"/>
</g>
<g>
	<path d="M329.96,66.64h-4.3v-1.55h10.48v1.55h-4.33v12.6h-1.85V66.64z"/>
</g>
<g>
	<path d="M442.85,37.87l-3.59-14.15h1.93l1.68,7.16c0.42,1.76,0.8,3.53,1.05,4.89h0.04c0.23-1.41,0.67-3.09,1.16-4.91l1.89-7.14
		h1.91l1.72,7.18c0.4,1.68,0.78,3.36,0.99,4.85h0.04c0.29-1.55,0.69-3.13,1.13-4.89l1.87-7.14h1.87l-4.01,14.15h-1.91l-1.79-7.37
		c-0.44-1.81-0.73-3.19-0.92-4.62h-0.04c-0.25,1.41-0.57,2.79-1.09,4.62l-2.02,7.37H442.85z"/>
</g>
<g>
	<path d="M507.61,65.25c0.88-0.15,2.04-0.27,3.51-0.27c1.81,0,3.13,0.42,3.97,1.18c0.78,0.67,1.24,1.7,1.24,2.96
		c0,1.28-0.38,2.29-1.09,3.02c-0.96,1.03-2.54,1.55-4.32,1.55c-0.55,0-1.05-0.02-1.47-0.13v5.67h-1.83V65.25z M509.44,72.07
		c0.4,0.1,0.9,0.15,1.51,0.15c2.21,0,3.55-1.07,3.55-3.02c0-1.87-1.32-2.77-3.34-2.77c-0.8,0-1.41,0.06-1.72,0.15V72.07z"/>
</g>
<g>
	<path d="M270.67,131.14c0.92-0.19,2.25-0.29,3.51-0.29c1.95,0,3.21,0.36,4.09,1.15c0.71,0.63,1.11,1.6,1.11,2.69
		c0,1.87-1.18,3.11-2.67,3.61v0.06c1.09,0.38,1.74,1.39,2.08,2.86c0.46,1.97,0.8,3.34,1.09,3.88H278c-0.23-0.4-0.55-1.62-0.95-3.38
		c-0.42-1.95-1.18-2.69-2.83-2.75h-1.72v6.13h-1.83V131.14z M272.5,137.59h1.87c1.95,0,3.19-1.07,3.19-2.69
		c0-1.83-1.32-2.62-3.25-2.65c-0.88,0-1.51,0.08-1.81,0.17V137.59z"/>
</g>
<g>
	<g>
		<rect x="67.37" y="85.88" width="45.23" height="1"/>
	</g>
	<g>
		<g>
			<polygon points="109.64,82.03 125.9,86.38 109.64,90.74 			"/>
		</g>
	</g>
</g>
<g>
	<circle cx="128.88" cy="86.38" r="2.98"/>
</g>
<g>
	<path d="M391.4,89.77c0.82,0.5,2.02,0.92,3.28,0.92c1.87,0,2.96-0.99,2.96-2.41c0-1.32-0.76-2.08-2.67-2.81
		c-2.31-0.82-3.74-2.02-3.74-4.01c0-2.2,1.83-3.84,4.58-3.84c1.45,0,2.5,0.34,3.13,0.69l-0.5,1.49c-0.46-0.25-1.41-0.67-2.69-0.67
		c-1.93,0-2.67,1.15-2.67,2.12c0,1.32,0.86,1.97,2.81,2.73c2.39,0.92,3.61,2.08,3.61,4.16c0,2.18-1.62,4.07-4.96,4.07
		c-1.36,0-2.86-0.4-3.61-0.9L391.4,89.77z"/>
	<path d="M409.32,91.62c-0.48,0.25-1.55,0.59-2.92,0.59c-3.07,0-5.06-2.08-5.06-5.19c0-3.13,2.14-5.4,5.46-5.4
		c1.09,0,2.06,0.27,2.56,0.52l-0.42,1.43c-0.44-0.25-1.13-0.48-2.14-0.48c-2.33,0-3.59,1.72-3.59,3.84c0,2.35,1.51,3.8,3.53,3.8
		c1.05,0,1.74-0.27,2.27-0.5L409.32,91.62z"/>
	<path d="M411.48,77.09h1.85v6.34h0.04c0.29-0.52,0.76-0.99,1.32-1.3c0.55-0.31,1.2-0.52,1.89-0.52c1.37,0,3.55,0.84,3.55,4.35V92
		h-1.85v-5.84c0-1.64-0.61-3.02-2.35-3.02c-1.2,0-2.14,0.84-2.48,1.85c-0.11,0.25-0.13,0.52-0.13,0.88V92h-1.85V77.09z"/>
	<path d="M424.16,87.26c0.04,2.5,1.64,3.53,3.49,3.53c1.32,0,2.12-0.23,2.81-0.52l0.31,1.32c-0.65,0.29-1.76,0.63-3.38,0.63
		c-3.13,0-5-2.06-5-5.12s1.81-5.48,4.77-5.48c3.32,0,4.2,2.92,4.2,4.79c0,0.38-0.04,0.67-0.06,0.86H424.16z M429.58,85.93
		c0.02-1.18-0.48-3-2.56-3c-1.87,0-2.69,1.72-2.83,3H429.58z"/>
	<path d="M435.71,78.98c0.02,0.63-0.44,1.13-1.18,1.13c-0.65,0-1.11-0.5-1.11-1.13c0-0.65,0.48-1.15,1.16-1.15
		C435.27,77.83,435.71,78.33,435.71,78.98z M433.66,92V81.84h1.85V92H433.66z"/>
	<path d="M447.35,77.09v12.28c0,0.9,0.02,1.93,0.08,2.62h-1.66l-0.08-1.76h-0.04c-0.57,1.13-1.81,1.99-3.46,1.99
		c-2.46,0-4.35-2.08-4.35-5.17c-0.02-3.38,2.08-5.46,4.56-5.46c1.55,0,2.6,0.73,3.07,1.55h0.04v-6.07H447.35z M445.5,85.97
		c0-0.23-0.02-0.55-0.08-0.78c-0.27-1.18-1.28-2.14-2.67-2.14c-1.91,0-3.04,1.68-3.04,3.93c0,2.06,1.01,3.76,3,3.76
		c1.24,0,2.37-0.82,2.71-2.2c0.06-0.25,0.08-0.5,0.08-0.8V85.97z"/>
	<path d="M451.44,87.26c0.04,2.5,1.64,3.53,3.49,3.53c1.32,0,2.12-0.23,2.81-0.52l0.31,1.32c-0.65,0.29-1.76,0.63-3.38,0.63
		c-3.13,0-5-2.06-5-5.12s1.81-5.48,4.77-5.48c3.32,0,4.2,2.92,4.2,4.79c0,0.38-0.04,0.67-0.06,0.86H451.44z M456.86,85.93
		c0.02-1.18-0.48-3-2.56-3c-1.87,0-2.69,1.72-2.83,3H456.86z"/>
	<path d="M460.93,85.01c0-1.2-0.02-2.23-0.08-3.17h1.62l0.06,1.99h0.08c0.46-1.36,1.57-2.23,2.81-2.23c0.21,0,0.36,0.02,0.53,0.06
		v1.74c-0.19-0.04-0.38-0.06-0.63-0.06c-1.3,0-2.23,0.99-2.48,2.37c-0.04,0.25-0.08,0.55-0.08,0.86V92h-1.83V85.01z"/>
</g>
<g>
	<g>
		<rect x="234.5" y="154.86" width="45.23" height="1"/>
	</g>
	<g>
		<g>
			<polygon points="237.47,159.72 221.21,155.36 237.47,151 			"/>
		</g>
	</g>
</g>
</svg>
