<?xml version="1.0" encoding="utf-8"?>
<!-- Generator: Adobe Illustrator 24.1.1, SVG Export Plug-In . SVG Version: 6.00 Build 0)  -->
<svg version="1.1" id="Layer_1" xmlns="http://www.w3.org/2000/svg" xmlns:xlink="http://www.w3.org/1999/xlink" x="0px" y="0px"
	 viewBox="0 0 567.09 201.19" style="enable-background:new 0 0 567.09 201.19;" xml:space="preserve">
<style type="text/css">
	.st0{fill:#FFFFFF;}
</style>
<g>
	<rect x="171.85" y="28.6" class="st0" width="81.7" height="126.64"/>
	<path d="M254.05,155.73h-82.7V28.1h82.7V155.73z M172.35,154.73h80.7V29.1h-80.7V154.73z"/>
</g>
<g>
	<rect x="347.51" y="66.38" class="st0" width="123.57" height="51.06"/>
	<path d="M471.58,117.95H347.01V65.88h124.57V117.95z M348.01,116.95h122.57V66.88H348.01V116.95z"/>
</g>
<g>
	<g>
		<polygon points="338.65,92.41 305.5,92.41 305.5,8.67 213.2,8.67 213.2,28.6 212.2,28.6 212.2,7.67 306.5,7.67 306.5,91.41 
			338.65,91.41 		"/>
	</g>
	<g>
		<g>
			<polygon points="336.67,89.01 347.51,91.91 336.67,94.82 			"/>
		</g>
	</g>
</g>
<g>
	<g>
		<polygon points="311.08,189.44 212.2,189.44 212.2,155.23 213.2,155.23 213.2,188.44 311.08,188.44 		"/>
	</g>
	<g>
		<g>
			<polygon points="309.1,186.03 319.94,188.94 309.1,191.84 			"/>
		</g>
	</g>
</g>
<g>
	<g>
		<rect x="55.43" y="55.67" width="107.57" height="1"/>
	</g>
	<g>
		<g>
			<polygon points="161.01,53.26 171.85,56.17 161.01,59.08 			"/>
		</g>
	</g>
</g>
<g>
	<g>
		<rect x="55.43" y="125.12" width="107.57" height="1"/>
	</g>
	<g>
		<g>
			<polygon points="161.01,122.71 171.85,125.62 161.01,128.52 			"/>
		</g>
	</g>
</g>
<g>
	<path d="M5.73,49.5H7.3v10.82h5.19v1.31H5.73V49.5z"/>
	<path d="M21.19,59.26c0,0.9,0.02,1.69,0.07,2.38h-1.4l-0.09-1.42h-0.04c-0.41,0.7-1.33,1.62-2.88,1.62c-1.37,0-3.01-0.76-3.01-3.82
		v-5.1h1.58v4.83c0,1.66,0.5,2.77,1.94,2.77c1.06,0,1.8-0.74,2.09-1.44c0.09-0.23,0.14-0.52,0.14-0.81v-5.35h1.58V59.26z"/>
	<path d="M30.03,61.31c-0.41,0.22-1.33,0.5-2.5,0.5c-2.63,0-4.34-1.78-4.34-4.45c0-2.68,1.84-4.63,4.68-4.63
		c0.94,0,1.76,0.23,2.2,0.45l-0.36,1.22C29.33,54.2,28.73,54,27.87,54c-2,0-3.08,1.48-3.08,3.29c0,2.02,1.3,3.26,3.02,3.26
		c0.9,0,1.49-0.23,1.94-0.43L30.03,61.31z"/>
	<path d="M31.88,48.85h1.58v5.44h0.04c0.25-0.45,0.65-0.85,1.13-1.12c0.47-0.27,1.03-0.45,1.62-0.45c1.17,0,3.04,0.72,3.04,3.73
		v5.19h-1.58v-5.01c0-1.4-0.52-2.59-2.02-2.59c-1.03,0-1.84,0.72-2.12,1.58c-0.09,0.22-0.11,0.45-0.11,0.76v5.26h-1.58V48.85z"/>
	<path d="M43.71,50.42v2.5h2.27v1.21h-2.27v4.7c0,1.08,0.31,1.69,1.19,1.69c0.41,0,0.72-0.05,0.92-0.11l0.07,1.19
		c-0.31,0.13-0.79,0.22-1.4,0.22c-0.74,0-1.33-0.23-1.71-0.67c-0.45-0.47-0.61-1.24-0.61-2.27v-4.75h-1.35v-1.21h1.35v-2.09
		L43.71,50.42z"/>
</g>
<g>
	<path d="M17.96,129.39c0.82,0.5,2.02,0.92,3.28,0.92c1.87,0,2.96-0.99,2.96-2.41c0-1.32-0.76-2.08-2.67-2.81
		c-2.31-0.82-3.74-2.02-3.74-4.01c0-2.2,1.83-3.84,4.58-3.84c1.45,0,2.5,0.34,3.13,0.69l-0.5,1.49c-0.46-0.25-1.41-0.67-2.69-0.67
		c-1.93,0-2.67,1.15-2.67,2.12c0,1.32,0.86,1.97,2.81,2.73c2.39,0.92,3.61,2.08,3.61,4.16c0,2.18-1.62,4.07-4.96,4.07
		c-1.36,0-2.86-0.4-3.61-0.9L17.96,129.39z"/>
	<path d="M32.51,117.05c-1.53,2.06-2.65,4.79-2.65,8.59c0,3.74,1.15,6.42,2.65,8.52h-1.45c-1.32-1.74-2.75-4.43-2.75-8.52
		c0.02-4.14,1.43-6.82,2.75-8.59H32.51z"/>
	<path d="M34.21,129.73c0.55,0.36,1.51,0.73,2.44,0.73c1.34,0,1.97-0.67,1.97-1.51c0-0.88-0.52-1.36-1.89-1.87
		c-1.83-0.65-2.69-1.66-2.69-2.88c0-1.64,1.32-2.98,3.51-2.98c1.03,0,1.93,0.29,2.5,0.63l-0.46,1.34c-0.4-0.25-1.13-0.59-2.08-0.59
		c-1.09,0-1.7,0.63-1.7,1.39c0,0.84,0.61,1.22,1.93,1.72c1.76,0.67,2.67,1.55,2.67,3.07c0,1.78-1.39,3.04-3.8,3.04
		c-1.11,0-2.14-0.27-2.86-0.69L34.21,129.73z"/>
	<path d="M41.67,134.16c1.49-2.08,2.65-4.81,2.65-8.59c0-3.76-1.13-6.45-2.65-8.52h1.43c1.34,1.72,2.75,4.41,2.75,8.55
		c0,4.12-1.41,6.78-2.75,8.57H41.67z"/>
</g>
<g>
	<path d="M56.61,147.29c0.45,0.29,1.49,0.74,2.59,0.74c2.03,0,2.66-1.3,2.65-2.27c-0.02-1.64-1.49-2.34-3.02-2.34h-0.88v-1.19h0.88
		c1.15,0,2.61-0.59,2.61-1.98c0-0.94-0.59-1.76-2.05-1.76c-0.94,0-1.84,0.41-2.34,0.77l-0.41-1.15c0.61-0.45,1.8-0.9,3.06-0.9
		c2.3,0,3.35,1.37,3.35,2.79c0,1.21-0.72,2.23-2.16,2.75v0.04c1.44,0.29,2.61,1.37,2.61,3.01c0,1.87-1.46,3.51-4.27,3.51
		c-1.31,0-2.47-0.41-3.04-0.79L56.61,147.29z"/>
	<path d="M68.91,138.88h-0.04l-2.03,1.1l-0.31-1.21l2.56-1.37h1.35v11.7h-1.53V138.88z"/>
	<path d="M74.83,148.17c0-0.67,0.45-1.13,1.08-1.13s1.06,0.47,1.06,1.13c0,0.65-0.41,1.13-1.08,1.13
		C75.26,149.3,74.83,148.82,74.83,148.17z"/>
	<path d="M78.43,149.11v-0.97l1.24-1.21c2.99-2.84,4.34-4.36,4.36-6.12c0-1.19-0.58-2.29-2.32-2.29c-1.06,0-1.94,0.54-2.48,0.99
		l-0.5-1.12c0.81-0.68,1.96-1.19,3.31-1.19c2.52,0,3.58,1.73,3.58,3.4c0,2.16-1.57,3.91-4.03,6.28l-0.94,0.86v0.04h5.26v1.31H78.43z
		"/>
	<path d="M93.55,144.39h0.04c0.22-0.31,0.52-0.68,0.77-0.99l2.56-3.01h1.91l-3.37,3.58l3.83,5.13h-1.93l-3.01-4.18l-0.81,0.9v3.28
		h-1.57v-12.78h1.57V144.39z"/>
	<path d="M100.73,142.75c0-0.9-0.02-1.64-0.07-2.36h1.39l0.07,1.4h0.05c0.49-0.83,1.3-1.6,2.74-1.6c1.19,0,2.09,0.72,2.47,1.75h0.04
		c0.27-0.49,0.61-0.86,0.97-1.13c0.52-0.4,1.1-0.61,1.93-0.61c1.15,0,2.86,0.76,2.86,3.78v5.13h-1.55v-4.93
		c0-1.67-0.61-2.68-1.89-2.68c-0.9,0-1.6,0.67-1.87,1.44c-0.07,0.22-0.13,0.5-0.13,0.79v5.38h-1.55v-5.22
		c0-1.39-0.61-2.39-1.82-2.39c-0.99,0-1.71,0.79-1.96,1.58c-0.09,0.23-0.13,0.5-0.13,0.77v5.26h-1.55V142.75z"/>
	<path d="M123.63,144.68c0,3.22-2.23,4.63-4.34,4.63c-2.36,0-4.18-1.73-4.18-4.48c0-2.92,1.91-4.63,4.32-4.63
		C121.94,140.19,123.63,142.01,123.63,144.68z M116.71,144.77c0,1.91,1.1,3.35,2.65,3.35c1.51,0,2.65-1.42,2.65-3.39
		c0-1.48-0.74-3.35-2.61-3.35C117.52,141.38,116.71,143.11,116.71,144.77z"/>
	<path d="M125.62,136.32h1.58v12.78h-1.58V136.32z"/>
	<path d="M128.54,149.83l5.02-13.05h1.22l-5.04,13.05H128.54z"/>
	<path d="M136.05,136.32h1.58v5.44h0.04c0.25-0.45,0.65-0.85,1.13-1.12c0.47-0.27,1.03-0.45,1.62-0.45c1.17,0,3.04,0.72,3.04,3.73
		v5.19h-1.58v-5.01c0-1.4-0.52-2.59-2.02-2.59c-1.03,0-1.84,0.72-2.12,1.58c-0.09,0.22-0.11,0.45-0.11,0.76v5.26h-1.58V136.32z"/>
</g>
<g>
	<path d="M102.98,35.89h1.83v12.62h6.05v1.53h-7.87V35.89z"/>
</g>
<g>
	<path d="M291.54,22.13h-4.3v-1.55h10.48v1.55h-4.33v12.6h-1.85V22.13z"/>
</g>
<g>
	<g>
		<rect x="471.08" y="91.41" width="82.03" height="1"/>
	</g>
	<g>
		<g>
			<polygon points="551.14,94.82 561.98,91.91 551.14,89.01 			"/>
		</g>
	</g>
</g>
<g>
	<path d="M192.1,178.72l-3.59-14.15h1.93l1.68,7.16c0.42,1.76,0.8,3.53,1.05,4.89h0.04c0.23-1.41,0.67-3.09,1.15-4.91l1.89-7.14
		h1.91l1.72,7.18c0.4,1.68,0.78,3.36,0.99,4.85h0.04c0.29-1.55,0.69-3.13,1.13-4.89l1.87-7.14h1.87l-4.01,14.15h-1.91l-1.78-7.37
		c-0.44-1.81-0.73-3.19-0.92-4.62h-0.04c-0.25,1.41-0.57,2.79-1.09,4.62l-2.02,7.37H192.1z"/>
</g>
<g>
	<path d="M332.32,192.13c0.7,0.43,1.73,0.79,2.81,0.79c1.6,0,2.54-0.85,2.54-2.07c0-1.13-0.65-1.78-2.29-2.41
		c-1.98-0.7-3.2-1.73-3.2-3.44c0-1.89,1.57-3.29,3.92-3.29c1.24,0,2.14,0.29,2.68,0.59l-0.43,1.28c-0.4-0.22-1.21-0.58-2.3-0.58
		c-1.66,0-2.29,0.99-2.29,1.82c0,1.13,0.74,1.69,2.41,2.34c2.05,0.79,3.1,1.78,3.1,3.56c0,1.87-1.39,3.49-4.25,3.49
		c-1.17,0-2.45-0.34-3.1-0.77L332.32,192.13z"/>
	<path d="M344.8,181.55c-1.31,1.76-2.27,4.1-2.27,7.36c0,3.2,0.99,5.51,2.27,7.31h-1.24c-1.13-1.49-2.36-3.8-2.36-7.31
		c0.02-3.55,1.22-5.85,2.36-7.36H344.8z"/>
	<path d="M346.25,192.42c0.47,0.31,1.3,0.63,2.09,0.63c1.15,0,1.69-0.58,1.69-1.3c0-0.76-0.45-1.17-1.62-1.6
		c-1.57-0.56-2.3-1.42-2.3-2.47c0-1.4,1.13-2.56,3.01-2.56c0.88,0,1.66,0.25,2.14,0.54l-0.4,1.15c-0.34-0.22-0.97-0.5-1.78-0.5
		c-0.94,0-1.46,0.54-1.46,1.19c0,0.72,0.52,1.04,1.66,1.48c1.51,0.58,2.29,1.33,2.29,2.63c0,1.53-1.19,2.61-3.26,2.61
		c-0.96,0-1.84-0.23-2.45-0.59L346.25,192.42z"/>
	<path d="M352.64,196.22c1.28-1.78,2.27-4.12,2.27-7.36c0-3.22-0.97-5.53-2.27-7.31h1.22c1.15,1.48,2.36,3.78,2.36,7.33
		c0,3.53-1.21,5.82-2.36,7.35H352.64z"/>
</g>
<g>
	<path d="M201.88,89.8c0,4.87-2.96,7.45-6.57,7.45c-3.74,0-6.36-2.9-6.36-7.18c0-4.49,2.79-7.43,6.57-7.43
		C199.38,82.64,201.88,85.6,201.88,89.8z M190.9,90.03c0,3.02,1.64,5.73,4.51,5.73c2.9,0,4.54-2.67,4.54-5.88
		c0-2.81-1.47-5.75-4.51-5.75C192.41,84.13,190.9,86.92,190.9,90.03z"/>
	<path d="M205.2,86.86l1.99,5.71c0.34,0.92,0.61,1.76,0.82,2.6h0.06c0.23-0.84,0.52-1.68,0.86-2.6l1.97-5.71h1.93l-3.99,10.16h-1.76
		l-3.86-10.16H205.2z"/>
	<path d="M215.41,92.28c0.04,2.5,1.64,3.53,3.49,3.53c1.32,0,2.12-0.23,2.81-0.53l0.31,1.32c-0.65,0.29-1.76,0.63-3.38,0.63
		c-3.13,0-5-2.06-5-5.12s1.81-5.48,4.77-5.48c3.32,0,4.2,2.92,4.2,4.79c0,0.38-0.04,0.67-0.06,0.86H215.41z M220.82,90.95
		c0.02-1.18-0.48-3-2.56-3c-1.87,0-2.69,1.72-2.83,3H220.82z"/>
	<path d="M224.9,89.61c0-1.05-0.02-1.91-0.08-2.75h1.64l0.11,1.68h0.04c0.5-0.97,1.68-1.91,3.36-1.91c1.41,0,3.59,0.84,3.59,4.33
		v6.07h-1.85v-5.86c0-1.64-0.61-3-2.35-3c-1.22,0-2.16,0.86-2.48,1.89c-0.08,0.23-0.13,0.55-0.13,0.86v6.11h-1.85V89.61z"/>
</g>
<g>
	<path d="M378.42,98.56c-0.67,0.34-2.02,0.67-3.74,0.67c-3.99,0-6.99-2.52-6.99-7.16c0-4.43,3-7.43,7.39-7.43
		c1.76,0,2.88,0.38,3.36,0.63L378,86.76c-0.69-0.34-1.68-0.59-2.86-0.59c-3.32,0-5.52,2.12-5.52,5.84c0,3.46,1.99,5.69,5.44,5.69
		c1.11,0,2.25-0.23,2.98-0.59L378.42,98.56z"/>
	<path d="M389.61,93.86c0,3.76-2.6,5.4-5.06,5.4c-2.75,0-4.87-2.02-4.87-5.23c0-3.4,2.23-5.4,5.04-5.4
		C387.64,88.63,389.61,90.75,389.61,93.86z M381.55,93.96c0,2.23,1.28,3.91,3.09,3.91c1.76,0,3.09-1.66,3.09-3.95
		c0-1.72-0.86-3.91-3.04-3.91S381.55,92.03,381.55,93.96z"/>
	<path d="M391.95,91.61c0-1.05-0.02-1.91-0.08-2.75h1.64l0.1,1.68h0.04c0.5-0.97,1.68-1.91,3.36-1.91c1.41,0,3.59,0.84,3.59,4.32
		v6.07h-1.85v-5.86c0-1.64-0.61-3-2.35-3c-1.22,0-2.16,0.86-2.48,1.89c-0.08,0.23-0.13,0.55-0.13,0.86v6.11h-1.85V91.61z"/>
	<path d="M404.04,88.86l2,5.71c0.34,0.92,0.61,1.76,0.82,2.6h0.06c0.23-0.84,0.53-1.68,0.86-2.6l1.97-5.71h1.93l-3.99,10.16h-1.76
		l-3.86-10.16H404.04z"/>
	<path d="M414.25,94.28c0.04,2.5,1.64,3.53,3.49,3.53c1.32,0,2.12-0.23,2.81-0.52l0.32,1.32c-0.65,0.29-1.76,0.63-3.38,0.63
		c-3.13,0-5-2.06-5-5.12s1.81-5.48,4.77-5.48c3.32,0,4.2,2.92,4.2,4.79c0,0.38-0.04,0.67-0.06,0.86H414.25z M419.67,92.95
		c0.02-1.18-0.48-3-2.56-3c-1.87,0-2.69,1.72-2.83,3H419.67z"/>
	<path d="M423.74,92.03c0-1.2-0.02-2.22-0.08-3.17h1.62l0.06,1.99h0.08c0.46-1.36,1.57-2.22,2.81-2.22c0.21,0,0.36,0.02,0.53,0.06
		v1.74c-0.19-0.04-0.38-0.06-0.63-0.06c-1.3,0-2.23,0.99-2.48,2.37c-0.04,0.25-0.08,0.54-0.08,0.86v5.42h-1.83V92.03z"/>
	<path d="M433.34,85.94v2.92h2.64v1.41h-2.64v5.48c0,1.26,0.36,1.97,1.38,1.97c0.48,0,0.84-0.06,1.07-0.13l0.08,1.39
		c-0.36,0.15-0.92,0.25-1.64,0.25c-0.86,0-1.55-0.27-1.99-0.78c-0.53-0.55-0.71-1.45-0.71-2.65v-5.54h-1.57v-1.41h1.57v-2.44
		L433.34,85.94z"/>
	<path d="M438.96,94.28c0.04,2.5,1.64,3.53,3.49,3.53c1.32,0,2.12-0.23,2.81-0.52l0.32,1.32c-0.65,0.29-1.76,0.63-3.38,0.63
		c-3.13,0-5-2.06-5-5.12s1.81-5.48,4.77-5.48c3.32,0,4.2,2.92,4.2,4.79c0,0.38-0.04,0.67-0.06,0.86H438.96z M444.38,92.95
		c0.02-1.18-0.48-3-2.56-3c-1.87,0-2.69,1.72-2.83,3H444.38z"/>
	<path d="M448.46,92.03c0-1.2-0.02-2.22-0.08-3.17h1.62l0.06,1.99h0.08c0.46-1.36,1.58-2.22,2.81-2.22c0.21,0,0.36,0.02,0.52,0.06
		v1.74c-0.19-0.04-0.38-0.06-0.63-0.06c-1.3,0-2.23,0.99-2.48,2.37c-0.04,0.25-0.08,0.54-0.08,0.86v5.42h-1.83V92.03z"/>
</g>
<g>
	<path d="M509.45,72.83c0.88-0.15,2.04-0.27,3.51-0.27c1.8,0,3.13,0.42,3.97,1.18c0.78,0.67,1.24,1.7,1.24,2.96
		c0,1.28-0.38,2.29-1.09,3.02c-0.97,1.03-2.54,1.55-4.33,1.55c-0.54,0-1.05-0.02-1.47-0.13v5.67h-1.83V72.83z M511.27,79.65
		c0.4,0.1,0.9,0.15,1.51,0.15c2.2,0,3.55-1.07,3.55-3.02c0-1.87-1.32-2.77-3.34-2.77c-0.8,0-1.41,0.06-1.72,0.15V79.65z"/>
</g>
</svg>
