<?xml version="1.0" encoding="utf-8"?>
<!-- Generator: Adobe Illustrator 24.1.1, SVG Export Plug-In . SVG Version: 6.00 Build 0)  -->
<svg version="1.1" id="Layer_1" xmlns="http://www.w3.org/2000/svg" xmlns:xlink="http://www.w3.org/1999/xlink" x="0px" y="0px"
	 viewBox="0 0 382.98 153.19" style="enable-background:new 0 0 382.98 153.19;" xml:space="preserve">
<style type="text/css">
	.st0{fill:#FFFFFF;}
</style>
<g>
	<rect x="90.38" y="49.53" class="st0" width="73.53" height="73.53"/>
	<path d="M164.42,123.56H89.88V49.03h74.53V123.56z M90.88,122.56h72.53V50.03H90.88V122.56z"/>
</g>
<g>
	<rect x="231.83" y="49.53" class="st0" width="73.53" height="73.53"/>
	<path d="M305.86,123.56h-74.53V49.03h74.53V123.56z M232.33,122.56h72.53V50.03h-72.53V122.56z"/>
</g>
<g>
	<g>
		<rect x="6.64" y="85.8" width="74.89" height="1"/>
	</g>
	<g>
		<g>
			<polygon points="79.54,83.39 90.38,86.3 79.54,89.2 			"/>
		</g>
	</g>
</g>
<g>
	<g>
		<rect x="163.91" y="85.8" width="59.06" height="1"/>
	</g>
	<g>
		<g>
			<polygon points="220.99,89.2 231.83,86.3 220.99,83.39 			"/>
		</g>
	</g>
</g>
<g>
	<g>
		<rect x="305.36" y="85.8" width="60.59" height="1"/>
	</g>
	<g>
		<g>
			<polygon points="363.97,89.2 374.81,86.3 363.97,83.39 			"/>
		</g>
	</g>
</g>
<g>
	<g>
		<polygon points="329.27,144.5 66.39,144.5 66.39,109.29 81.52,109.29 81.52,110.29 67.39,110.29 67.39,143.5 328.27,143.5 
			328.27,110.29 305.36,110.29 305.36,109.29 329.27,109.29 		"/>
	</g>
	<g>
		<g>
			<polygon points="79.54,106.88 90.38,109.79 79.54,112.69 			"/>
		</g>
	</g>
</g>
<g>
	<path d="M9.32,74.55l-2.64-8.08h1.13l1.26,3.98c0.35,1.09,0.65,2.07,0.86,3.02h0.02c0.23-0.94,0.56-1.95,0.92-3.01l1.37-3.99h1.12
		l-2.89,8.08H9.32z"/>
	<path d="M19.07,71.6c0,2.15-1.49,3.08-2.89,3.08c-1.57,0-2.78-1.15-2.78-2.99c0-1.94,1.27-3.08,2.88-3.08
		C17.94,68.62,19.07,69.83,19.07,71.6z M14.46,71.66c0,1.27,0.73,2.23,1.76,2.23c1.01,0,1.76-0.95,1.76-2.25
		c0-0.98-0.49-2.23-1.74-2.23C15,69.41,14.46,70.56,14.46,71.66z"/>
	<path d="M20.99,71.84c0.02,1.43,0.94,2.01,1.99,2.01c0.76,0,1.21-0.13,1.61-0.3l0.18,0.76c-0.37,0.17-1.01,0.36-1.93,0.36
		c-1.79,0-2.85-1.18-2.85-2.93s1.03-3.13,2.72-3.13c1.9,0,2.4,1.67,2.4,2.73c0,0.22-0.02,0.38-0.04,0.49H20.99z M24.08,71.09
		c0.01-0.67-0.28-1.71-1.46-1.71c-1.07,0-1.54,0.98-1.62,1.71H24.08z"/>
	<path d="M31.43,66.04v7.02c0,0.52,0.01,1.1,0.05,1.5h-0.95l-0.05-1.01h-0.02c-0.32,0.65-1.03,1.14-1.98,1.14
		c-1.4,0-2.48-1.19-2.48-2.95c-0.01-1.93,1.19-3.12,2.6-3.12c0.89,0,1.49,0.42,1.75,0.89h0.02v-3.47H31.43z M30.37,71.11
		c0-0.13-0.01-0.31-0.05-0.44c-0.16-0.67-0.73-1.22-1.52-1.22c-1.09,0-1.74,0.96-1.74,2.24c0,1.18,0.58,2.15,1.72,2.15
		c0.71,0,1.35-0.47,1.55-1.26c0.04-0.14,0.05-0.29,0.05-0.46V71.11z"/>
	<path d="M34.36,67.12c0.01,0.36-0.25,0.65-0.67,0.65c-0.37,0-0.64-0.29-0.64-0.65c0-0.37,0.28-0.66,0.66-0.66
		C34.11,66.46,34.36,66.75,34.36,67.12z M33.18,74.55v-5.8h1.06v5.8H33.18z"/>
	<path d="M35.99,70.32c0-0.6-0.01-1.09-0.05-1.57h0.94l0.06,0.96h0.02c0.29-0.55,0.96-1.09,1.92-1.09c0.8,0,2.05,0.48,2.05,2.47
		v3.47h-1.06v-3.35c0-0.94-0.35-1.71-1.34-1.71c-0.7,0-1.24,0.49-1.42,1.08c-0.05,0.13-0.07,0.31-0.07,0.49v3.49h-1.06V70.32z"/>
	<path d="M47.65,68.75c-0.02,0.42-0.05,0.89-0.05,1.6v3.37c0,1.33-0.26,2.15-0.83,2.65c-0.56,0.53-1.38,0.7-2.11,0.7
		c-0.7,0-1.46-0.17-1.93-0.48l0.26-0.8c0.38,0.24,0.98,0.46,1.7,0.46c1.08,0,1.87-0.56,1.87-2.03v-0.65h-0.02
		c-0.32,0.54-0.95,0.97-1.85,0.97c-1.44,0-2.47-1.22-2.47-2.83c0-1.97,1.28-3.08,2.61-3.08c1.01,0,1.56,0.53,1.81,1.01h0.02
		l0.05-0.88H47.65z M46.56,71.04c0-0.18-0.01-0.34-0.06-0.48c-0.19-0.61-0.71-1.12-1.48-1.12c-1.01,0-1.73,0.85-1.73,2.19
		c0,1.14,0.58,2.09,1.72,2.09c0.65,0,1.24-0.41,1.46-1.08c0.06-0.18,0.08-0.38,0.08-0.56V71.04z"/>
	<path d="M51.94,66.47h4.35v0.88h-3.31v2.69h3.06v0.86h-3.06v3.66h-1.04V66.47z"/>
	<path d="M9.47,96.54H9.44l-1.36,0.73l-0.2-0.8l1.7-0.91h0.9v7.8H9.47V96.54z"/>
	<path d="M18.51,99.37c0,2.65-0.98,4.11-2.71,4.11c-1.52,0-2.55-1.43-2.58-4.01c0-2.61,1.13-4.05,2.71-4.05
		C17.58,95.43,18.51,96.89,18.51,99.37z M14.28,99.49c0,2.03,0.62,3.18,1.58,3.18c1.08,0,1.6-1.26,1.6-3.25
		c0-1.92-0.49-3.18-1.58-3.18C14.95,96.24,14.28,97.37,14.28,99.49z"/>
	<path d="M24.67,99.37c0,2.65-0.98,4.11-2.71,4.11c-1.52,0-2.55-1.43-2.58-4.01c0-2.61,1.13-4.05,2.71-4.05
		C23.73,95.43,24.67,96.89,24.67,99.37z M20.44,99.49c0,2.03,0.62,3.18,1.58,3.18c1.08,0,1.6-1.26,1.6-3.25
		c0-1.92-0.49-3.18-1.58-3.18C21.11,96.24,20.44,97.37,20.44,99.49z"/>
	<path d="M30.83,99.37c0,2.65-0.98,4.11-2.71,4.11c-1.52,0-2.55-1.43-2.58-4.01c0-2.61,1.13-4.05,2.71-4.05
		C29.89,95.43,30.83,96.89,30.83,99.37z M26.59,99.49c0,2.03,0.62,3.18,1.58,3.18c1.08,0,1.6-1.26,1.6-3.25
		c0-1.92-0.49-3.18-1.58-3.18C27.26,96.24,26.59,97.37,26.59,99.49z"/>
	<path d="M35.72,100.21h0.02c0.14-0.2,0.35-0.46,0.52-0.66l1.7-2h1.27L37,99.94l2.55,3.42h-1.28l-2-2.78l-0.54,0.6v2.18h-1.04v-8.52
		h1.04V100.21z"/>
	<path d="M45.31,97.55c-0.02,0.42-0.05,0.89-0.05,1.6v3.37c0,1.33-0.26,2.15-0.83,2.65c-0.56,0.53-1.38,0.7-2.11,0.7
		c-0.7,0-1.46-0.17-1.93-0.48l0.26-0.8c0.38,0.24,0.98,0.46,1.7,0.46c1.08,0,1.87-0.56,1.87-2.03v-0.65h-0.02
		c-0.32,0.54-0.95,0.97-1.85,0.97c-1.44,0-2.47-1.22-2.47-2.83c0-1.97,1.28-3.08,2.61-3.08c1.01,0,1.56,0.53,1.81,1.01h0.02
		l0.05-0.88H45.31z M44.22,99.84c0-0.18-0.01-0.34-0.06-0.48c-0.19-0.61-0.71-1.12-1.48-1.12c-1.01,0-1.73,0.85-1.73,2.19
		c0,1.14,0.58,2.09,1.72,2.09c0.65,0,1.24-0.41,1.46-1.08c0.06-0.18,0.08-0.38,0.08-0.56V99.84z"/>
	<path d="M46.13,103.83l3.35-8.69h0.82l-3.36,8.69H46.13z"/>
	<path d="M51.13,94.84h1.06v3.62h0.02c0.17-0.3,0.43-0.56,0.76-0.74c0.31-0.18,0.68-0.3,1.08-0.3c0.78,0,2.03,0.48,2.03,2.48v3.45
		h-1.06v-3.33c0-0.94-0.35-1.73-1.34-1.73c-0.68,0-1.22,0.48-1.42,1.06c-0.06,0.14-0.07,0.3-0.07,0.5v3.5h-1.06V94.84z"/>
	<path d="M7.18,117.75v-0.65l0.83-0.8c1.99-1.9,2.89-2.9,2.9-4.08c0-0.79-0.38-1.52-1.55-1.52c-0.71,0-1.3,0.36-1.66,0.66
		l-0.34-0.74c0.54-0.46,1.31-0.79,2.21-0.79c1.68,0,2.39,1.15,2.39,2.27c0,1.44-1.04,2.6-2.69,4.19l-0.62,0.58v0.02h3.5v0.88H7.18z"
		/>
	<path d="M17.99,110.85h-2.97l-0.3,2c0.18-0.02,0.35-0.05,0.64-0.05c0.6,0,1.2,0.13,1.68,0.42c0.61,0.35,1.12,1.02,1.12,2
		c0,1.52-1.21,2.66-2.9,2.66c-0.85,0-1.57-0.24-1.94-0.48l0.26-0.8c0.32,0.19,0.96,0.43,1.67,0.43c1,0,1.85-0.65,1.85-1.69
		c-0.01-1.01-0.68-1.73-2.24-1.73c-0.44,0-0.79,0.05-1.08,0.08l0.5-3.74h3.73V110.85z"/>
	<path d="M23,112.15c0,1.64-0.86,2.46-1.87,2.46c-0.97,0-1.81-0.78-1.82-2.35c0-1.56,0.85-2.43,1.88-2.43
		C22.28,109.83,23,110.67,23,112.15z M20.15,112.22c-0.02,1,0.35,1.75,1.01,1.75c0.7,0,1.01-0.74,1.01-1.77
		c0-0.95-0.28-1.74-1.01-1.74C20.5,110.46,20.15,111.24,20.15,112.22z M21.06,117.89l4.58-8.06h0.67l-4.58,8.06H21.06z
		 M28.08,115.38c0,1.64-0.86,2.46-1.86,2.46c-0.97,0-1.81-0.78-1.82-2.34c0-1.57,0.85-2.45,1.88-2.45
		C27.37,113.05,28.08,113.89,28.08,115.38z M25.22,115.45c-0.01,1,0.37,1.75,1.02,1.75c0.7,0,1.01-0.74,1.01-1.77
		c0-0.95-0.28-1.74-1.01-1.74C25.58,113.69,25.22,114.47,25.22,115.45z"/>
	<path d="M31.21,117.14l2.63-3.42c0.25-0.31,0.49-0.59,0.76-0.9v-0.02h-3.14v-0.85h4.43l-0.01,0.66l-2.59,3.37
		c-0.24,0.32-0.48,0.61-0.74,0.91v0.02h3.39v0.84h-4.71V117.14z"/>
	<path d="M42.18,114.8c0,2.15-1.49,3.08-2.89,3.08c-1.57,0-2.78-1.15-2.78-2.99c0-1.94,1.27-3.08,2.88-3.08
		C41.05,111.82,42.18,113.03,42.18,114.8z M37.57,114.86c0,1.27,0.73,2.23,1.76,2.23c1.01,0,1.76-0.95,1.76-2.25
		c0-0.98-0.49-2.23-1.74-2.23C38.11,112.61,37.57,113.76,37.57,114.86z"/>
	<path d="M48.37,116.17c0,0.6,0.01,1.13,0.05,1.58h-0.94l-0.06-0.95H47.4c-0.28,0.47-0.89,1.08-1.92,1.08c-0.91,0-2-0.5-2-2.54
		v-3.39h1.06v3.21c0,1.1,0.34,1.85,1.3,1.85c0.71,0,1.2-0.49,1.39-0.96c0.06-0.16,0.1-0.35,0.1-0.54v-3.56h1.06V116.17z"/>
	<path d="M51.4,110.28v1.67h1.51v0.8H51.4v3.13c0,0.72,0.2,1.13,0.79,1.13c0.28,0,0.48-0.04,0.61-0.07l0.05,0.79
		c-0.2,0.08-0.53,0.14-0.94,0.14c-0.49,0-0.89-0.16-1.14-0.44c-0.3-0.31-0.41-0.83-0.41-1.51v-3.17h-0.9v-0.8h0.9v-1.39L51.4,110.28
		z"/>
</g>
<g>
	<g>
		<rect x="126.65" y="16.01" width="1" height="33.52"/>
	</g>
	<g>
		<g>
			<polygon points="130.05,17.99 127.15,7.15 124.24,17.99 			"/>
		</g>
	</g>
</g>
<g>
	<path d="M94.23,22.54L95,25.49c0.17,0.65,0.32,1.25,0.43,1.85h0.04c0.13-0.59,0.32-1.21,0.52-1.83l0.95-2.96h0.89l0.9,2.9
		c0.22,0.7,0.38,1.31,0.52,1.9h0.04c0.1-0.59,0.25-1.2,0.44-1.88l0.83-2.91h1.04l-1.87,5.8h-0.96l-0.89-2.77
		c-0.2-0.65-0.37-1.22-0.52-1.91h-0.02c-0.14,0.7-0.32,1.29-0.53,1.92l-0.94,2.76H94.9l-1.75-5.8H94.23z"/>
	<path d="M105.81,28.34l-0.08-0.73h-0.04c-0.32,0.46-0.95,0.86-1.78,0.86c-1.17,0-1.77-0.83-1.77-1.67c0-1.4,1.25-2.17,3.49-2.16
		v-0.12c0-0.48-0.13-1.34-1.32-1.34c-0.54,0-1.1,0.17-1.51,0.43l-0.24-0.7c0.48-0.31,1.17-0.52,1.91-0.52
		c1.78,0,2.21,1.21,2.21,2.37v2.17c0,0.5,0.02,1,0.1,1.39H105.81z M105.65,25.38c-1.15-0.02-2.46,0.18-2.46,1.31
		c0,0.68,0.46,1.01,1,1.01c0.76,0,1.24-0.48,1.4-0.97c0.04-0.11,0.06-0.23,0.06-0.34V25.38z"/>
	<path d="M109.6,20.87v1.67h1.51v0.8h-1.51v3.13c0,0.72,0.2,1.13,0.79,1.13c0.28,0,0.48-0.04,0.61-0.07l0.05,0.79
		c-0.2,0.08-0.53,0.14-0.94,0.14c-0.49,0-0.89-0.16-1.14-0.44c-0.3-0.31-0.41-0.83-0.41-1.51v-3.17h-0.9v-0.8h0.9v-1.39L109.6,20.87
		z"/>
	<path d="M112.82,25.63c0.02,1.43,0.94,2.01,1.99,2.01c0.76,0,1.21-0.13,1.61-0.3l0.18,0.76c-0.37,0.17-1.01,0.36-1.93,0.36
		c-1.79,0-2.85-1.18-2.85-2.93s1.03-3.13,2.72-3.13c1.89,0,2.4,1.67,2.4,2.73c0,0.22-0.02,0.38-0.04,0.49H112.82z M115.91,24.87
		c0.01-0.67-0.28-1.71-1.46-1.71c-1.07,0-1.54,0.98-1.62,1.71H115.91z"/>
	<path d="M118.24,24.35c0-0.68-0.01-1.27-0.05-1.81h0.92l0.04,1.14h0.05c0.26-0.78,0.9-1.27,1.61-1.27c0.12,0,0.2,0.01,0.3,0.04v1
		c-0.11-0.02-0.22-0.04-0.36-0.04c-0.74,0-1.27,0.56-1.42,1.36c-0.02,0.14-0.05,0.31-0.05,0.49v3.09h-1.04V24.35z"/>
</g>
<g>
	<path d="M141.36,15.98c-0.47,0.17-1.39,0.44-2.48,0.44c-1.22,0-2.23-0.31-3.02-1.07c-0.7-0.67-1.13-1.75-1.13-3.01
		c0.01-2.41,1.67-4.17,4.38-4.17c0.94,0,1.67,0.2,2.01,0.37l-0.25,0.85c-0.43-0.19-0.97-0.35-1.79-0.35c-1.97,0-3.25,1.22-3.25,3.25
		c0,2.05,1.24,3.26,3.12,3.26c0.68,0,1.15-0.1,1.39-0.22v-2.41h-1.64v-0.84h2.66V15.98z"/>
</g>
<g>
	<path d="M179.04,70.95h-2.46v-0.89h5.98v0.89h-2.47v7.2h-1.06V70.95z"/>
	<path d="M188.27,69.83c-0.88,1.18-1.51,2.73-1.51,4.91c0,2.13,0.66,3.67,1.51,4.87h-0.83c-0.76-1-1.57-2.53-1.57-4.87
		c0.01-2.36,0.82-3.9,1.57-4.91H188.27z"/>
	<path d="M190.43,75.01h0.02c0.14-0.2,0.35-0.46,0.52-0.66l1.7-2h1.27l-2.24,2.39l2.55,3.42h-1.28l-2-2.78l-0.54,0.6v2.18h-1.04
		v-8.52h1.04V75.01z"/>
	<path d="M200.02,72.34c-0.02,0.42-0.05,0.89-0.05,1.6v3.37c0,1.33-0.26,2.15-0.83,2.65c-0.56,0.53-1.38,0.7-2.11,0.7
		c-0.7,0-1.46-0.17-1.93-0.48l0.26-0.8c0.38,0.24,0.98,0.46,1.7,0.46c1.08,0,1.87-0.56,1.87-2.03v-0.65h-0.02
		c-0.32,0.54-0.95,0.97-1.85,0.97c-1.44,0-2.47-1.22-2.47-2.83c0-1.97,1.28-3.08,2.62-3.08c1.01,0,1.56,0.53,1.81,1.01h0.02
		l0.05-0.88H200.02z M198.93,74.63c0-0.18-0.01-0.34-0.06-0.48c-0.19-0.61-0.71-1.12-1.48-1.12c-1.01,0-1.73,0.85-1.73,2.19
		c0,1.14,0.58,2.09,1.72,2.09c0.65,0,1.24-0.41,1.46-1.08c0.06-0.18,0.08-0.38,0.08-0.56V74.63z"/>
	<path d="M200.84,78.63l3.35-8.69H205l-3.36,8.69H200.84z"/>
	<path d="M205.84,69.63h1.06v3.62h0.02c0.17-0.3,0.43-0.56,0.75-0.74c0.31-0.18,0.68-0.3,1.08-0.3c0.78,0,2.03,0.48,2.03,2.48v3.45
		h-1.06v-3.33c0-0.94-0.35-1.73-1.34-1.73c-0.68,0-1.22,0.48-1.42,1.06c-0.06,0.14-0.07,0.3-0.07,0.5v3.5h-1.06V69.63z"/>
	<path d="M211.86,79.6c0.85-1.19,1.51-2.75,1.51-4.91c0-2.15-0.65-3.68-1.51-4.87h0.82c0.77,0.98,1.57,2.52,1.57,4.88
		c0,2.35-0.8,3.87-1.57,4.89H211.86z"/>
	<path d="M177.51,95.1c-0.22-0.01-0.49,0-0.79,0.05c-1.66,0.28-2.53,1.49-2.71,2.77h0.04c0.37-0.49,1.02-0.9,1.88-0.9
		c1.38,0,2.35,1,2.35,2.52c0,1.43-0.97,2.75-2.59,2.75c-1.67,0-2.76-1.3-2.76-3.32c0-1.54,0.55-2.75,1.32-3.51
		c0.65-0.64,1.51-1.03,2.49-1.15c0.31-0.05,0.58-0.06,0.77-0.06V95.1z M177.21,99.59c0-1.12-0.64-1.79-1.61-1.79
		c-0.64,0-1.22,0.4-1.51,0.96c-0.07,0.12-0.12,0.28-0.12,0.47c0.02,1.28,0.61,2.23,1.71,2.23
		C176.6,101.47,177.21,100.71,177.21,99.59z"/>
	<path d="M181.51,95.34h-0.02l-1.36,0.73l-0.2-0.8l1.7-0.91h0.9v7.8h-1.02V95.34z"/>
	<path d="M188.89,96.55c0,1.64-0.86,2.46-1.87,2.46c-0.97,0-1.81-0.78-1.82-2.35c0-1.56,0.85-2.43,1.88-2.43
		C188.17,94.22,188.89,95.06,188.89,96.55z M186.03,96.62c-0.02,1,0.35,1.75,1.01,1.75c0.7,0,1.01-0.74,1.01-1.77
		c0-0.95-0.28-1.74-1.01-1.74C186.38,94.86,186.03,95.64,186.03,96.62z M186.95,102.28l4.58-8.06h0.67l-4.58,8.06H186.95z
		 M193.96,99.77c0,1.64-0.86,2.46-1.86,2.46c-0.97,0-1.81-0.78-1.82-2.34c0-1.57,0.85-2.45,1.88-2.45
		C193.25,97.45,193.96,98.29,193.96,99.77z M191.11,99.85c-0.01,1,0.37,1.75,1.02,1.75c0.7,0,1.01-0.74,1.01-1.77
		c0-0.95-0.28-1.74-1.01-1.74C191.47,98.08,191.11,98.86,191.11,99.85z"/>
	<path d="M197.1,101.54l2.63-3.42c0.25-0.31,0.49-0.59,0.76-0.9V97.2h-3.14v-0.85h4.43L201.75,97l-2.59,3.37
		c-0.24,0.32-0.48,0.61-0.74,0.91v0.02h3.39v0.84h-4.71V101.54z"/>
	<path d="M208.06,99.2c0,2.15-1.49,3.08-2.89,3.08c-1.57,0-2.78-1.15-2.78-2.99c0-1.94,1.27-3.08,2.88-3.08
		C206.94,96.21,208.06,97.42,208.06,99.2z M203.46,99.26c0,1.27,0.73,2.23,1.76,2.23c1.01,0,1.76-0.95,1.76-2.25
		c0-0.98-0.49-2.23-1.74-2.23S203.46,98.16,203.46,99.26z"/>
	<path d="M214.26,100.57c0,0.6,0.01,1.13,0.05,1.58h-0.94l-0.06-0.95h-0.02c-0.28,0.47-0.89,1.08-1.92,1.08c-0.91,0-2-0.5-2-2.54
		v-3.39h1.06v3.21c0,1.1,0.34,1.85,1.29,1.85c0.71,0,1.2-0.49,1.39-0.96c0.06-0.16,0.1-0.35,0.1-0.54v-3.56h1.06V100.57z"/>
	<path d="M217.28,94.68v1.67h1.51v0.8h-1.51v3.13c0,0.72,0.2,1.13,0.79,1.13c0.28,0,0.48-0.04,0.61-0.07l0.05,0.79
		c-0.2,0.08-0.53,0.14-0.94,0.14c-0.49,0-0.89-0.16-1.14-0.44c-0.3-0.31-0.41-0.83-0.41-1.51v-3.17h-0.9v-0.8h0.9v-1.39
		L217.28,94.68z"/>
</g>
<g>
	<path d="M320.57,70.16c0.5-0.08,1.16-0.16,2-0.16c1.03,0,1.79,0.24,2.27,0.67c0.44,0.38,0.71,0.97,0.71,1.69
		c0,0.73-0.22,1.31-0.62,1.73c-0.55,0.59-1.45,0.89-2.47,0.89c-0.31,0-0.6-0.01-0.84-0.07v3.24h-1.04V70.16z M321.61,74.06
		c0.23,0.06,0.52,0.08,0.86,0.08c1.26,0,2.03-0.61,2.03-1.73c0-1.07-0.76-1.58-1.91-1.58c-0.46,0-0.8,0.04-0.98,0.08V74.06z"/>
	<path d="M331.75,69.83c-0.88,1.18-1.51,2.73-1.51,4.91c0,2.13,0.66,3.67,1.51,4.87h-0.83c-0.76-1-1.57-2.53-1.57-4.87
		c0.01-2.36,0.82-3.9,1.57-4.91H331.75z"/>
	<path d="M333.91,75.01h0.02c0.14-0.2,0.35-0.46,0.52-0.66l1.7-2h1.27l-2.24,2.39l2.55,3.42h-1.28l-2-2.78l-0.54,0.6v2.18h-1.04
		v-8.52h1.04V75.01z"/>
	<path d="M343.5,72.34c-0.02,0.42-0.05,0.89-0.05,1.6v3.37c0,1.33-0.26,2.15-0.83,2.65c-0.56,0.53-1.38,0.7-2.11,0.7
		c-0.7,0-1.46-0.17-1.93-0.48l0.26-0.8c0.38,0.24,0.98,0.46,1.7,0.46c1.08,0,1.87-0.56,1.87-2.03v-0.65h-0.02
		c-0.32,0.54-0.95,0.97-1.85,0.97c-1.44,0-2.47-1.22-2.47-2.83c0-1.97,1.28-3.08,2.61-3.08c1.01,0,1.56,0.53,1.81,1.01h0.02
		l0.05-0.88H343.5z M342.41,74.63c0-0.18-0.01-0.34-0.06-0.48c-0.19-0.61-0.71-1.12-1.48-1.12c-1.01,0-1.73,0.85-1.73,2.19
		c0,1.14,0.58,2.09,1.71,2.09c0.65,0,1.24-0.41,1.46-1.08c0.06-0.18,0.08-0.38,0.08-0.56V74.63z"/>
	<path d="M344.32,78.63l3.35-8.69h0.82l-3.36,8.69H344.32z"/>
	<path d="M349.32,69.63h1.06v3.62h0.02c0.17-0.3,0.43-0.56,0.75-0.74c0.31-0.18,0.68-0.3,1.08-0.3c0.78,0,2.03,0.48,2.03,2.48v3.45
		h-1.06v-3.33c0-0.94-0.35-1.73-1.34-1.73c-0.68,0-1.22,0.48-1.42,1.06c-0.06,0.14-0.07,0.3-0.07,0.5v3.5h-1.06V69.63z"/>
	<path d="M355.34,79.6c0.85-1.19,1.51-2.75,1.51-4.91c0-2.15-0.65-3.68-1.51-4.87h0.82c0.77,0.98,1.57,2.52,1.57,4.88
		c0,2.35-0.8,3.87-1.57,4.89H355.34z"/>
	<path d="M316.94,101.41c0.23,0.02,0.49,0,0.85-0.04c0.61-0.08,1.19-0.34,1.63-0.76c0.52-0.47,0.89-1.15,1.03-2.07h-0.04
		c-0.43,0.53-1.05,0.84-1.83,0.84c-1.4,0-2.3-1.06-2.3-2.39c0-1.48,1.07-2.77,2.66-2.77c1.59,0,2.58,1.3,2.58,3.29
		c0,1.72-0.58,2.91-1.34,3.66c-0.6,0.59-1.43,0.95-2.27,1.04c-0.38,0.06-0.72,0.07-0.97,0.06V101.41z M317.33,96.92
		c0,0.97,0.59,1.65,1.5,1.65c0.71,0,1.26-0.35,1.54-0.82c0.06-0.1,0.1-0.22,0.1-0.38c0-1.33-0.49-2.35-1.59-2.35
		C317.96,95.03,317.33,95.82,317.33,96.92z"/>
	<path d="M327.14,95.24h-2.97l-0.3,2c0.18-0.02,0.35-0.05,0.64-0.05c0.6,0,1.2,0.13,1.68,0.42c0.61,0.35,1.12,1.02,1.12,2
		c0,1.52-1.21,2.66-2.9,2.66c-0.85,0-1.57-0.24-1.94-0.48l0.26-0.8c0.32,0.19,0.96,0.43,1.67,0.43c1,0,1.85-0.65,1.85-1.69
		c-0.01-1.01-0.68-1.73-2.24-1.73c-0.44,0-0.79,0.05-1.08,0.08l0.5-3.74h3.73V95.24z"/>
	<path d="M332.16,96.55c0,1.64-0.86,2.46-1.87,2.46c-0.97,0-1.81-0.78-1.82-2.35c0-1.56,0.85-2.43,1.88-2.43
		C331.44,94.22,332.16,95.06,332.16,96.55z M329.3,96.62c-0.02,1,0.35,1.75,1.01,1.75c0.7,0,1.01-0.74,1.01-1.77
		c0-0.95-0.28-1.74-1.01-1.74C329.65,94.86,329.3,95.64,329.3,96.62z M330.22,102.28l4.58-8.06h0.67l-4.58,8.06H330.22z
		 M337.23,99.77c0,1.64-0.86,2.46-1.86,2.46c-0.97,0-1.81-0.78-1.82-2.34c0-1.57,0.85-2.45,1.88-2.45
		C336.52,97.45,337.23,98.29,337.23,99.77z M334.38,99.85c-0.01,1,0.37,1.75,1.02,1.75c0.7,0,1.01-0.74,1.01-1.77
		c0-0.95-0.28-1.74-1.01-1.74C334.74,98.08,334.38,98.86,334.38,99.85z"/>
	<path d="M340.37,101.54l2.63-3.42c0.25-0.31,0.49-0.59,0.76-0.9V97.2h-3.14v-0.85h4.43L345.02,97l-2.59,3.37
		c-0.24,0.32-0.48,0.61-0.74,0.91v0.02h3.39v0.84h-4.71V101.54z"/>
	<path d="M351.33,99.2c0,2.15-1.49,3.08-2.89,3.08c-1.57,0-2.78-1.15-2.78-2.99c0-1.94,1.27-3.08,2.88-3.08
		C350.21,96.21,351.33,97.42,351.33,99.2z M346.73,99.26c0,1.27,0.73,2.23,1.76,2.23c1.01,0,1.76-0.95,1.76-2.25
		c0-0.98-0.49-2.23-1.74-2.23S346.73,98.16,346.73,99.26z"/>
	<path d="M357.53,100.57c0,0.6,0.01,1.13,0.05,1.58h-0.94l-0.06-0.95h-0.02c-0.28,0.47-0.89,1.08-1.92,1.08c-0.91,0-2-0.5-2-2.54
		v-3.39h1.06v3.21c0,1.1,0.34,1.85,1.29,1.85c0.71,0,1.2-0.49,1.39-0.96c0.06-0.16,0.1-0.35,0.1-0.54v-3.56h1.06V100.57z"/>
	<path d="M360.55,94.68v1.67h1.51v0.8h-1.51v3.13c0,0.72,0.2,1.13,0.79,1.13c0.28,0,0.48-0.04,0.61-0.07l0.05,0.79
		c-0.2,0.08-0.53,0.14-0.94,0.14c-0.49,0-0.89-0.16-1.14-0.44c-0.3-0.31-0.41-0.83-0.41-1.51v-3.17h-0.9v-0.8h0.9v-1.39
		L360.55,94.68z"/>
</g>
<g>
	<path d="M179.32,128.06c0.53-0.11,1.28-0.17,2-0.17c1.12,0,1.83,0.2,2.34,0.66c0.41,0.36,0.64,0.91,0.64,1.54
		c0,1.07-0.67,1.77-1.52,2.06v0.04c0.62,0.22,1,0.79,1.19,1.63c0.26,1.13,0.46,1.91,0.62,2.22h-1.08c-0.13-0.23-0.31-0.92-0.54-1.93
		c-0.24-1.12-0.67-1.54-1.62-1.57h-0.98v3.5h-1.04V128.06z M180.36,131.74h1.07c1.12,0,1.82-0.61,1.82-1.54
		c0-1.04-0.76-1.5-1.86-1.51c-0.5,0-0.86,0.05-1.03,0.1V131.74z"/>
	<path d="M190.57,127.71c-0.88,1.18-1.51,2.73-1.51,4.91c0,2.13,0.66,3.67,1.51,4.87h-0.83c-0.76-1-1.57-2.53-1.57-4.87
		c0.01-2.36,0.82-3.9,1.57-4.91H190.57z"/>
	<path d="M192.73,132.89h0.02c0.14-0.2,0.35-0.46,0.52-0.66l1.7-2h1.27l-2.24,2.39l2.55,3.42h-1.28l-2-2.78l-0.54,0.6v2.18h-1.04
		v-8.52h1.04V132.89z"/>
	<path d="M202.32,130.23c-0.02,0.42-0.05,0.89-0.05,1.6v3.37c0,1.33-0.26,2.15-0.83,2.65c-0.56,0.53-1.38,0.7-2.11,0.7
		c-0.7,0-1.46-0.17-1.93-0.48l0.26-0.8c0.38,0.24,0.98,0.46,1.7,0.46c1.08,0,1.87-0.56,1.87-2.03v-0.65h-0.02
		c-0.32,0.54-0.95,0.97-1.85,0.97c-1.44,0-2.47-1.22-2.47-2.83c0-1.97,1.28-3.08,2.61-3.08c1.01,0,1.56,0.53,1.81,1.01h0.02
		l0.05-0.88H202.32z M201.23,132.52c0-0.18-0.01-0.34-0.06-0.48c-0.19-0.61-0.71-1.12-1.48-1.12c-1.01,0-1.73,0.85-1.73,2.19
		c0,1.14,0.58,2.09,1.71,2.09c0.65,0,1.24-0.41,1.46-1.08c0.06-0.18,0.08-0.38,0.08-0.56V132.52z"/>
	<path d="M203.14,136.51l3.35-8.69h0.82l-3.36,8.69H203.14z"/>
	<path d="M208.14,127.52h1.06v3.62h0.02c0.17-0.3,0.43-0.56,0.75-0.74c0.31-0.18,0.68-0.3,1.08-0.3c0.78,0,2.03,0.48,2.03,2.48v3.45
		h-1.06v-3.33c0-0.94-0.35-1.73-1.34-1.73c-0.68,0-1.22,0.48-1.42,1.06c-0.06,0.14-0.07,0.3-0.07,0.5v3.5h-1.06V127.52z"/>
	<path d="M214.17,137.48c0.85-1.19,1.51-2.75,1.51-4.91c0-2.15-0.65-3.68-1.51-4.87h0.82c0.77,0.98,1.57,2.52,1.57,4.88
		c0,2.35-0.8,3.87-1.57,4.89H214.17z"/>
</g>
<g>
	<g>
		<rect x="192.69" y="143.5" width="10.54" height="1"/>
	</g>
	<g>
		<g>
			<polygon points="194.67,141.09 183.83,144 194.67,146.91 			"/>
		</g>
	</g>
</g>
<g>
	<g>
		<rect x="308.17" y="109.29" width="4.16" height="1"/>
	</g>
	<g>
		<g>
			<polygon points="310.35,112.69 321.19,109.79 310.35,106.88 			"/>
		</g>
	</g>
</g>
<g>
	<path d="M101.12,89.62l-2.64-8.08h1.13l1.26,3.98c0.35,1.09,0.65,2.07,0.86,3.02h0.02c0.23-0.94,0.56-1.95,0.92-3.01l1.37-3.99
		h1.12l-2.89,8.08H101.12z"/>
	<path d="M106.19,86.91c0.02,1.43,0.94,2.01,1.99,2.01c0.76,0,1.21-0.13,1.61-0.3l0.18,0.76c-0.37,0.17-1.01,0.36-1.93,0.36
		c-1.79,0-2.85-1.18-2.85-2.93s1.03-3.13,2.72-3.13c1.9,0,2.4,1.67,2.4,2.73c0,0.22-0.02,0.38-0.04,0.49H106.19z M109.29,86.15
		c0.01-0.67-0.28-1.71-1.46-1.71c-1.07,0-1.54,0.98-1.62,1.71H109.29z"/>
	<path d="M111.62,85.62c0-0.68-0.01-1.27-0.05-1.81h0.92l0.04,1.14h0.05c0.26-0.78,0.9-1.27,1.61-1.27c0.12,0,0.2,0.01,0.3,0.04v1
		c-0.11-0.02-0.22-0.04-0.36-0.04c-0.74,0-1.27,0.56-1.42,1.36c-0.02,0.14-0.05,0.31-0.05,0.49v3.09h-1.04V85.62z"/>
	<path d="M120.43,81.1v7.02c0,0.52,0.01,1.1,0.05,1.5h-0.95l-0.05-1.01h-0.02c-0.32,0.65-1.03,1.14-1.98,1.14
		c-1.4,0-2.48-1.19-2.48-2.95c-0.01-1.93,1.19-3.12,2.6-3.12c0.89,0,1.49,0.42,1.75,0.89h0.02V81.1H120.43z M119.38,86.18
		c0-0.13-0.01-0.31-0.05-0.44c-0.16-0.67-0.73-1.22-1.52-1.22c-1.09,0-1.74,0.96-1.74,2.24c0,1.18,0.58,2.15,1.72,2.15
		c0.71,0,1.35-0.47,1.55-1.26c0.04-0.14,0.05-0.29,0.05-0.46V86.18z"/>
	<path d="M125.4,89.62l-0.08-0.73h-0.04c-0.32,0.46-0.95,0.86-1.77,0.86c-1.18,0-1.77-0.83-1.77-1.67c0-1.4,1.25-2.17,3.49-2.16
		V85.8c0-0.48-0.13-1.34-1.32-1.34c-0.54,0-1.1,0.17-1.51,0.43l-0.24-0.7c0.48-0.31,1.18-0.52,1.91-0.52c1.77,0,2.21,1.21,2.21,2.37
		v2.17c0,0.5,0.02,1,0.1,1.39H125.4z M125.25,86.65c-1.15-0.02-2.46,0.18-2.46,1.31c0,0.68,0.46,1.01,1,1.01
		c0.76,0,1.24-0.48,1.4-0.97c0.04-0.11,0.06-0.23,0.06-0.34V86.65z"/>
	<path d="M127.97,85.38c0-0.6-0.01-1.09-0.05-1.57h0.92l0.05,0.94h0.04c0.32-0.55,0.86-1.07,1.82-1.07c0.79,0,1.39,0.48,1.64,1.16
		h0.02c0.18-0.32,0.41-0.58,0.65-0.76c0.35-0.26,0.73-0.41,1.28-0.41c0.77,0,1.91,0.5,1.91,2.52v3.42h-1.03v-3.29
		c0-1.12-0.41-1.79-1.26-1.79c-0.6,0-1.07,0.44-1.25,0.96c-0.05,0.14-0.08,0.34-0.08,0.53v3.59h-1.03v-3.48
		c0-0.92-0.41-1.6-1.21-1.6c-0.66,0-1.14,0.53-1.31,1.06c-0.06,0.16-0.08,0.34-0.08,0.52v3.5h-1.03V85.38z"/>
	<path d="M137.98,85.71c0-0.74-0.02-1.34-0.05-1.9h0.95l0.05,1h0.02c0.43-0.71,1.12-1.13,2.06-1.13c1.4,0,2.46,1.19,2.46,2.95
		c0,2.09-1.27,3.12-2.64,3.12c-0.77,0-1.44-0.34-1.79-0.91h-0.02v3.15h-1.04V85.71z M139.02,87.25c0,0.16,0.02,0.3,0.05,0.43
		c0.19,0.73,0.83,1.24,1.58,1.24c1.12,0,1.76-0.91,1.76-2.24c0-1.16-0.61-2.16-1.73-2.16c-0.72,0-1.39,0.52-1.6,1.31
		c-0.04,0.13-0.07,0.29-0.07,0.43V87.25z"/>
	<path d="M145.4,86.91c0.02,1.43,0.94,2.01,1.99,2.01c0.76,0,1.21-0.13,1.61-0.3l0.18,0.76c-0.37,0.17-1.01,0.36-1.93,0.36
		c-1.79,0-2.85-1.18-2.85-2.93s1.03-3.13,2.72-3.13c1.9,0,2.4,1.67,2.4,2.73c0,0.22-0.02,0.38-0.04,0.49H145.4z M148.49,86.15
		c0.01-0.67-0.28-1.71-1.46-1.71c-1.07,0-1.54,0.98-1.62,1.71H148.49z"/>
	<path d="M150.82,85.62c0-0.68-0.01-1.27-0.05-1.81h0.92l0.04,1.14h0.05c0.26-0.78,0.9-1.27,1.61-1.27c0.12,0,0.2,0.01,0.3,0.04v1
		c-0.11-0.02-0.22-0.04-0.36-0.04c-0.74,0-1.27,0.56-1.42,1.36c-0.02,0.14-0.05,0.31-0.05,0.49v3.09h-1.04V85.62z"/>
</g>
<g>
	<path d="M238.18,81.58h1.04v3.9h0.04c0.22-0.31,0.43-0.6,0.64-0.86l2.47-3.03h1.29l-2.93,3.43l3.15,4.65h-1.23l-2.66-3.97
		l-0.77,0.89v3.08h-1.04V81.58z"/>
	<path d="M244.77,85.67c0-0.68-0.01-1.27-0.05-1.81h0.92l0.04,1.14h0.05c0.26-0.78,0.9-1.27,1.61-1.27c0.12,0,0.2,0.01,0.3,0.04v1
		c-0.11-0.02-0.22-0.04-0.36-0.04c-0.74,0-1.27,0.56-1.42,1.36c-0.02,0.14-0.05,0.31-0.05,0.49v3.09h-1.04V85.67z"/>
	<path d="M249.91,82.22c0.01,0.36-0.25,0.65-0.67,0.65c-0.37,0-0.64-0.29-0.64-0.65c0-0.37,0.28-0.66,0.66-0.66
		C249.66,81.56,249.91,81.85,249.91,82.22z M248.74,89.66v-5.8h1.06v5.8H248.74z"/>
	<path d="M251.4,88.58c0.31,0.2,0.86,0.42,1.39,0.42c0.77,0,1.13-0.38,1.13-0.86c0-0.5-0.3-0.78-1.08-1.07
		c-1.04-0.37-1.54-0.95-1.54-1.64c0-0.94,0.75-1.7,2-1.7c0.59,0,1.1,0.17,1.43,0.36l-0.26,0.77c-0.23-0.14-0.65-0.34-1.19-0.34
		c-0.62,0-0.97,0.36-0.97,0.79c0,0.48,0.35,0.7,1.1,0.98c1.01,0.38,1.52,0.89,1.52,1.75c0,1.02-0.79,1.74-2.17,1.74
		c-0.64,0-1.22-0.16-1.63-0.4L251.4,88.58z"/>
	<path d="M257.57,82.19v1.67h1.51v0.8h-1.51v3.13c0,0.72,0.2,1.13,0.79,1.13c0.28,0,0.48-0.04,0.61-0.07l0.05,0.79
		c-0.2,0.08-0.53,0.14-0.94,0.14c-0.49,0-0.89-0.16-1.14-0.44c-0.3-0.31-0.41-0.83-0.41-1.51v-3.17h-0.9v-0.8h0.9v-1.39
		L257.57,82.19z"/>
	<path d="M263.48,89.66l-0.08-0.73h-0.04c-0.32,0.46-0.95,0.86-1.78,0.86c-1.17,0-1.77-0.83-1.77-1.67c0-1.4,1.25-2.17,3.49-2.16
		v-0.12c0-0.48-0.13-1.34-1.32-1.34c-0.54,0-1.1,0.17-1.51,0.43l-0.24-0.7c0.48-0.31,1.18-0.52,1.91-0.52
		c1.78,0,2.21,1.21,2.21,2.37v2.17c0,0.5,0.02,1,0.1,1.39H263.48z M263.33,86.7c-1.15-0.02-2.46,0.18-2.46,1.31
		c0,0.68,0.46,1.01,1,1.01c0.75,0,1.24-0.48,1.4-0.97c0.04-0.11,0.06-0.23,0.06-0.34V86.7z"/>
	<path d="M266.05,81.14h1.06v8.52h-1.06V81.14z"/>
	<path d="M268.89,81.14h1.06v8.52h-1.06V81.14z"/>
	<path d="M272.89,82.22c0.01,0.36-0.25,0.65-0.67,0.65c-0.37,0-0.64-0.29-0.64-0.65c0-0.37,0.28-0.66,0.66-0.66
		C272.64,81.56,272.89,81.85,272.89,82.22z M271.72,89.66v-5.8h1.06v5.8H271.72z"/>
	<path d="M274.38,88.58c0.31,0.2,0.86,0.42,1.39,0.42c0.77,0,1.13-0.38,1.13-0.86c0-0.5-0.3-0.78-1.08-1.07
		c-1.04-0.37-1.54-0.95-1.54-1.64c0-0.94,0.75-1.7,2-1.7c0.59,0,1.1,0.17,1.43,0.36l-0.26,0.77c-0.23-0.14-0.65-0.34-1.19-0.34
		c-0.62,0-0.97,0.36-0.97,0.79c0,0.48,0.35,0.7,1.1,0.98c1.01,0.38,1.52,0.89,1.52,1.75c0,1.02-0.79,1.74-2.17,1.74
		c-0.64,0-1.22-0.16-1.63-0.4L274.38,88.58z"/>
	<path d="M282.49,89.66l-0.08-0.73h-0.04c-0.32,0.46-0.95,0.86-1.78,0.86c-1.17,0-1.77-0.83-1.77-1.67c0-1.4,1.25-2.17,3.49-2.16
		v-0.12c0-0.48-0.13-1.34-1.32-1.34c-0.54,0-1.1,0.17-1.51,0.43l-0.24-0.7c0.48-0.31,1.18-0.52,1.91-0.52
		c1.78,0,2.21,1.21,2.21,2.37v2.17c0,0.5,0.02,1,0.1,1.39H282.49z M282.34,86.7c-1.15-0.02-2.46,0.18-2.46,1.31
		c0,0.68,0.46,1.01,1,1.01c0.75,0,1.24-0.48,1.4-0.97c0.04-0.11,0.06-0.23,0.06-0.34V86.7z"/>
	<path d="M286.29,82.19v1.67h1.51v0.8h-1.51v3.13c0,0.72,0.2,1.13,0.79,1.13c0.28,0,0.48-0.04,0.61-0.07l0.05,0.79
		c-0.2,0.08-0.53,0.14-0.94,0.14c-0.49,0-0.89-0.16-1.14-0.44c-0.3-0.31-0.41-0.83-0.41-1.51v-3.17h-0.9v-0.8h0.9v-1.39
		L286.29,82.19z"/>
	<path d="M294.17,86.71c0,2.15-1.49,3.08-2.89,3.08c-1.57,0-2.78-1.15-2.78-2.99c0-1.94,1.27-3.08,2.88-3.08
		C293.04,83.72,294.17,84.93,294.17,86.71z M289.56,86.77c0,1.27,0.73,2.23,1.76,2.23c1.01,0,1.76-0.95,1.76-2.25
		c0-0.98-0.49-2.23-1.74-2.23C290.1,84.51,289.56,85.67,289.56,86.77z"/>
	<path d="M295.5,85.67c0-0.68-0.01-1.27-0.05-1.81h0.92l0.04,1.14h0.05c0.26-0.78,0.9-1.27,1.61-1.27c0.12,0,0.2,0.01,0.3,0.04v1
		c-0.11-0.02-0.22-0.04-0.36-0.04c-0.74,0-1.27,0.56-1.42,1.36c-0.02,0.14-0.05,0.31-0.05,0.49v3.09h-1.04V85.67z"/>
</g>
</svg>
