<?xml version="1.0" encoding="utf-8"?>
<!-- Generator: Adobe Illustrator 24.1.1, SVG Export Plug-In . SVG Version: 6.00 Build 0)  -->
<svg version="1.1" id="Layer_1" xmlns="http://www.w3.org/2000/svg" xmlns:xlink="http://www.w3.org/1999/xlink" x="0px" y="0px"
	 viewBox="0 0 576 379.91" style="enable-background:new 0 0 576 379.91;" xml:space="preserve">
<style type="text/css">
	.st0{display:none;}
	
		.st1{display:inline;fill-rule:evenodd;clip-rule:evenodd;fill:#FFFFFF;stroke:#010101;stroke-width:0.66;stroke-linecap:square;stroke-linejoin:bevel;}
	.st2{fill-rule:evenodd;clip-rule:evenodd;fill:#010101;}
	.st3{clip-path:url.(#SVGID_2_);}
	.st4{opacity:0.25;fill-rule:evenodd;clip-rule:evenodd;fill:#0F8140;}
	.st5{fill:none;stroke:#010101;stroke-width:1.33;stroke-linecap:square;stroke-linejoin:bevel;}
	.st6{fill:none;stroke:#010101;stroke-width:0.66;stroke-linecap:square;stroke-linejoin:bevel;}
	.st7{clip-path:url.(#SVGID_4_);}
	.st8{fill:none;stroke:#3A53A4;stroke-width:1.33;stroke-linecap:square;stroke-linejoin:bevel;}
	.st9{opacity:0.25;fill-rule:evenodd;clip-rule:evenodd;fill:#ED2224;}
	.st10{fill:none;stroke:#010101;stroke-width:0.33;stroke-linejoin:bevel;}
	.st11{fill:none;stroke:#010101;stroke-width:0.66;stroke-linejoin:bevel;}
	.st12{display:inline;fill:none;stroke:#010101;stroke-width:0.66;stroke-linejoin:bevel;}
</style>
<g>
	<g>
		<g>
			<g class="st0">
				<path id="p0" class="st1" d="M53.05,8.54h502.67V321.1H53.05L53.05,8.54"/>
			</g>
			<g>
				<path class="st2" d="M426,205.77l6.59-17.17h2.44l7.03,17.17h-2.58l-2-5.2h-7.18l-1.88,5.2h-2.41 M430.96,198.72h5.82
					l-1.79-4.75c-0.54-1.44-0.95-2.63-1.21-3.56c-0.21,1.1-0.52,2.19-0.92,3.28l-1.88,5.03 M451.76,201.21l2.07,0.26
					c-0.22,1.42-0.8,2.54-1.74,3.35c-0.93,0.8-2.08,1.21-3.43,1.21c-1.7,0-3.07-0.55-4.1-1.66s-1.55-2.7-1.55-4.78
					c0-1.34,0.22-2.51,0.66-3.52c0.44-1,1.12-1.76,2.03-2.26s1.9-0.75,2.97-0.75c1.35,0,2.45,0.34,3.31,1.02
					c0.85,0.68,1.41,1.65,1.65,2.91l-2.05,0.31c-0.19-0.83-0.54-1.46-1.03-1.88s-1.09-0.63-1.79-0.63c-1.06,0-1.92,0.38-2.58,1.14
					c-0.66,0.76-0.99,1.96-0.99,3.61c0,1.67,0.32,2.88,0.96,3.64c0.64,0.75,1.47,1.13,2.5,1.13c0.82,0,1.51-0.25,2.07-0.76
					c0.55-0.5,0.9-1.28,1.05-2.34 M463.77,201.21l2.07,0.26c-0.22,1.42-0.8,2.54-1.74,3.35c-0.93,0.8-2.08,1.21-3.43,1.21
					c-1.7,0-3.07-0.55-4.1-1.66s-1.55-2.7-1.55-4.78c0-1.34,0.22-2.51,0.66-3.52c0.44-1,1.12-1.76,2.03-2.26s1.9-0.75,2.97-0.75
					c1.35,0,2.45,0.34,3.31,1.02c0.85,0.68,1.41,1.65,1.65,2.91l-2.05,0.31c-0.19-0.83-0.54-1.46-1.03-1.88s-1.09-0.63-1.79-0.63
					c-1.06,0-1.92,0.38-2.58,1.14c-0.66,0.76-0.99,1.96-0.99,3.61c0,1.67,0.32,2.88,0.96,3.64c0.64,0.75,1.47,1.13,2.5,1.13
					c0.82,0,1.51-0.25,2.07-0.76c0.55-0.5,0.9-1.28,1.05-2.34 M468.25,205.76v-2.4h2.4v2.4H468.25 M492.15,195.66h-11.34v-1.96
					h11.34V195.66 M492.15,200.87h-11.34v-1.96h11.34V200.87 M501.16,197.29c0-2.03,0.2-3.66,0.62-4.9
					c0.41-1.23,1.03-2.19,1.86-2.86c0.82-0.67,1.86-1,3.11-1c0.92,0,1.73,0.18,2.42,0.55c0.69,0.37,1.26,0.9,1.72,1.6
					c0.45,0.69,0.8,1.55,1.06,2.55c0.25,1,0.38,2.35,0.38,4.06c0,2.01-0.2,3.64-0.62,4.88c-0.41,1.23-1.03,2.19-1.85,2.87
					c-0.82,0.67-1.86,1.01-3.12,1.01c-1.65,0-2.95-0.59-3.9-1.78c-1.13-1.42-1.69-3.75-1.69-6.98 M503.31,197.29
					c0,2.82,0.33,4.69,0.99,5.63c0.66,0.93,1.47,1.4,2.44,1.4c0.96,0,1.78-0.46,2.44-1.4c0.66-0.93,0.99-2.81,0.99-5.62
					c0-2.82-0.33-4.7-0.99-5.63c-0.66-0.92-1.48-1.39-2.46-1.39c-0.96,0-1.74,0.41-2.32,1.23c-0.72,1.04-1.08,2.98-1.08,5.8"/>
			</g>
		</g>
	</g>
	<g>
		<defs>
			<polyline id="SVGID_1_" points="53.05,8.54 555.72,8.54 555.72,321.1 53.05,321.1 53.05,8.54 			"/>
		</defs>
		<clipPath id="SVGID_2_">
			<use xlink:href="#SVGID_1_"  style="overflow:visible;"/>
		</clipPath>
		<g class="st3">
			<g>
				<path class="st4" d="M388.17,94.49c55.85,0,111.7,0,167.55,0V321.1H388.17"/>
			</g>
			<g>
				<path class="st5" d="M388.17,94.49c55.85,0,111.7,0,167.55,0"/>
			</g>
		</g>
	</g>
	<g>
		<g>
			<g>
				<g>
					<path id="p0_1_" class="st6" d="M53.05,8.54h502.67V321.1H53.05L53.05,8.54"/>
				</g>
			</g>
			<g>
				<path class="st2" d="M218.89,205.77l6.59-17.17h2.44l7.03,17.17h-2.58l-2-5.2h-7.18l-1.88,5.2H218.89 M223.85,198.72h5.82
					l-1.79-4.75c-0.54-1.44-0.95-2.63-1.21-3.56c-0.21,1.1-0.52,2.19-0.92,3.28l-1.88,5.03 M244.65,201.21l2.07,0.26
					c-0.22,1.42-0.8,2.54-1.74,3.35c-0.93,0.8-2.08,1.21-3.43,1.21c-1.7,0-3.07-0.55-4.1-1.66s-1.55-2.7-1.55-4.78
					c0-1.34,0.22-2.51,0.66-3.52c0.44-1,1.12-1.76,2.03-2.26s1.9-0.75,2.97-0.75c1.35,0,2.45,0.34,3.31,1.02
					c0.85,0.68,1.41,1.65,1.65,2.91l-2.05,0.31c-0.19-0.83-0.54-1.46-1.03-1.88s-1.09-0.63-1.79-0.63c-1.06,0-1.92,0.38-2.58,1.14
					s-0.99,1.96-0.99,3.61c0,1.67,0.32,2.88,0.96,3.64c0.64,0.75,1.47,1.13,2.5,1.13c0.82,0,1.51-0.25,2.07-0.76
					c0.55-0.5,0.9-1.28,1.05-2.34 M256.66,201.21l2.07,0.26c-0.22,1.42-0.8,2.54-1.74,3.35c-0.93,0.8-2.08,1.21-3.43,1.21
					c-1.7,0-3.07-0.55-4.1-1.66s-1.55-2.7-1.55-4.78c0-1.34,0.22-2.51,0.66-3.52c0.44-1,1.12-1.76,2.03-2.26s1.9-0.75,2.97-0.75
					c1.35,0,2.45,0.34,3.31,1.02c0.85,0.68,1.41,1.65,1.65,2.91l-2.05,0.31c-0.19-0.83-0.54-1.46-1.03-1.88s-1.09-0.63-1.79-0.63
					c-1.06,0-1.92,0.38-2.58,1.14c-0.66,0.76-0.99,1.96-0.99,3.61c0,1.67,0.32,2.88,0.96,3.64c0.64,0.75,1.47,1.13,2.5,1.13
					c0.82,0,1.51-0.25,2.07-0.76c0.55-0.5,0.9-1.28,1.05-2.34 M261.14,205.76v-2.4h2.4v2.4H261.14 M278.16,200.88l-2.27,5.21h-1.59
					l2.28-5.21h-3.3v-1.96h4.17l1.42-3.24h-5.6v-1.96h6.45l2.29-5.2h1.57l-2.28,5.2h3.3v1.96h-4.17l-1.41,3.24h5.58v1.96H278.16
					 M293.24,197.3c0-2.03,0.2-3.66,0.62-4.9c0.41-1.23,1.03-2.19,1.86-2.86c0.82-0.67,1.86-1,3.11-1c0.92,0,1.73,0.18,2.42,0.55
					c0.69,0.37,1.26,0.9,1.72,1.6c0.45,0.69,0.8,1.55,1.06,2.55c0.25,1,0.38,2.35,0.38,4.06c0,2.01-0.2,3.64-0.62,4.88
					c-0.41,1.23-1.03,2.19-1.85,2.87c-0.82,0.67-1.86,1.01-3.12,1.01c-1.65,0-2.95-0.59-3.9-1.78c-1.13-1.42-1.69-3.75-1.69-6.98
					 M295.39,197.3c0,2.82,0.33,4.69,0.99,5.63c0.66,0.93,1.47,1.4,2.44,1.4c0.96,0,1.78-0.46,2.44-1.4
					c0.66-0.93,0.99-2.81,0.99-5.62c0-2.82-0.33-4.7-0.99-5.63c-0.66-0.92-1.48-1.39-2.46-1.39c-0.96,0-1.74,0.41-2.32,1.23
					c-0.72,1.04-1.08,2.98-1.08,5.8"/>
			</g>
		</g>
	</g>
	<g>
		<defs>
			<polyline id="SVGID_3_" points="53.05,8.54 555.72,8.54 555.72,321.1 53.05,321.1 53.05,8.54 			"/>
		</defs>
		<clipPath id="SVGID_4_">
			<use xlink:href="#SVGID_3_"  style="overflow:visible;"/>
		</clipPath>
		<g class="st7">
			<g>
				<polyline class="st8" points="388.17,8.54 388.17,14.92 388.17,21.3 388.17,27.68 388.17,34.05 388.17,40.43 388.17,46.81 
					388.17,53.19 388.17,59.57 388.17,65.95 388.17,72.33 388.17,78.71 388.17,85.09 388.17,91.46 388.17,97.84 388.17,104.22 
					388.17,110.6 388.17,116.98 388.17,123.36 388.17,129.74 388.17,136.12 388.17,142.5 388.17,148.88 388.17,155.25 
					388.17,161.63 388.17,168.01 388.17,174.39 388.17,180.77 388.17,187.15 388.17,193.53 388.17,199.91 388.17,206.29 
					388.17,212.66 388.17,219.04 388.17,225.42 388.17,231.8 388.17,238.18 388.17,244.56 388.17,250.94 388.17,257.32 
					388.17,263.7 388.17,270.07 388.17,276.45 388.17,282.83 388.17,289.21 388.17,295.59 388.17,301.97 388.17,308.35 
					388.17,314.73 388.17,321.11 				"/>
			</g>
			<g>
				<path class="st9" d="M53.05,321.11c5.09-8.91,121.28-212.24,150.8-234.42c50.42-37.88,93.5-17.21,142.42-3.9
					c13.99,3.8,27.92,7.81,41.88,11.72v226.61H53.04"/>
			</g>
			<g>
				<path class="st5" d="M53.05,321.11c5.09-8.91,121.28-212.24,150.8-234.42c50.42-37.88,93.5-17.21,142.42-3.9
					c13.99,3.8,27.92,7.81,41.88,11.72"/>
			</g>
			<g>
				<g transform="translate(64.25,313.7)">
					<path id="p1" class="st2" d="M-7.2,7.41c0,2.2-1.79,4-4,4c-2.2,0-4-1.79-4-4c0-2.2,1.79-4,4-4C-9,3.41-7.2,5.2-7.2,7.41"/>
				</g>
				<g>
					<path id="p1_1_" class="st2" d="M140.83,180.45c0,2.2-1.79,4-4,4c-2.2,0-4-1.79-4-4c0-2.2,1.79-4,4-4
						C139.03,176.45,140.83,178.24,140.83,180.45"/>
				</g>
				<g>
					<path id="p1_2_" class="st2" d="M207.85,86.68c0,2.2-1.79,4-4,4c-2.2,0-4-1.79-4-4c0-2.2,1.79-4,4-4
						C206.05,82.68,207.85,84.47,207.85,86.68"/>
				</g>
				<g>
					<path id="p1_3_" class="st2" d="M291.63,67.15c0,2.2-1.79,4-4,4c-2.2,0-4-1.79-4-4c0-2.2,1.79-4,4-4
						C289.83,63.15,291.63,64.94,291.63,67.15"/>
				</g>
				<g>
					<path id="p1_4_" class="st2" d="M350.28,82.77c0,2.2-1.79,4-4,4c-2.2,0-4-1.79-4-4c0-2.2,1.79-4,4-4
						C348.48,78.77,350.28,80.56,350.28,82.77"/>
				</g>
				<g>
					<path id="p1_5_" class="st2" d="M392.17,94.49c0,2.2-1.79,4-4,4c-2.2,0-4-1.79-4-4c0-2.2,1.79-4,4-4
						C390.37,90.49,392.17,92.28,392.17,94.49"/>
				</g>
			</g>
		</g>
	</g>
	<g>
		<g>
			<g>
				<path class="st10" d="M53.05,321.11V8.55"/>
			</g>
			<g>
				<path class="st11" d="M53.05,321.11h4 M53.05,305.48h4 M53.05,289.85h4 M53.05,274.22h4 M53.05,258.59h4 M53.05,242.96h4
					 M53.05,227.34h4 M53.05,211.71h4 M53.05,196.08h4 M53.05,180.45h4 M53.05,164.82h4 M53.05,149.19h4 M53.05,133.57h4
					 M53.05,117.94h4 M53.05,102.31h4 M53.05,86.68h4 M53.05,71.05h4 M53.05,55.42h4 M53.05,39.8h4 M53.05,24.17h4 M53.05,8.54h4"/>
				<path class="st11" d="M53.05,321.11h8 M53.05,242.96h8 M53.05,164.82h8 M53.05,86.68h8 M53.05,8.54h8"/>
			</g>
			<g>
				<g transform="matrix(0 -1 1 0 38.95 199.56)">
					<path class="st2" d="M-2.15-11.2l-5.18-13.38h1.91l3.47,9.72c0.28,0.77,0.51,1.5,0.7,2.19c0.2-0.73,0.44-1.46,0.72-2.19
						l3.61-9.72h1.8L-0.36-11.2h-1.81 M4.68-16.04c0-1.79,0.49-3.12,1.49-3.99C7-20.74,8.02-21.1,9.21-21.1
						c1.33,0,2.42,0.43,3.26,1.31c0.84,0.87,1.26,2.08,1.26,3.62c0,1.24-0.18,2.22-0.56,2.94c-0.37,0.71-0.91,1.27-1.63,1.66
						c-0.71,0.39-1.49,0.59-2.34,0.59c-1.35,0-2.45-0.43-3.29-1.3c-0.83-0.87-1.25-2.12-1.25-3.76 M6.34-16.04
						c0,1.24,0.27,2.17,0.81,2.78c0.54,0.61,1.22,0.92,2.04,0.92c0.81,0,1.49-0.31,2.03-0.93c0.54-0.62,0.81-1.56,0.81-2.83
						c0-1.19-0.27-2.1-0.81-2.72c-0.54-0.61-1.22-0.92-2.03-0.92c-0.82,0-1.5,0.3-2.04,0.92C6.61-18.21,6.34-17.28,6.34-16.04
						 M15.62-11.2v-13.38h1.64v13.38H15.62 M26.21-11.2v-1.42c-0.75,1.09-1.78,1.64-3.07,1.64c-0.57,0-1.1-0.1-1.6-0.32
						c-0.49-0.21-0.86-0.49-1.1-0.82s-0.4-0.73-0.5-1.21c-0.06-0.32-0.1-0.83-0.1-1.53v-6h1.64v5.37c0,0.85,0.03,1.43,0.1,1.73
						c0.1,0.43,0.32,0.77,0.65,1.01s0.74,0.36,1.24,0.36c0.49,0,0.95-0.12,1.38-0.37s0.73-0.59,0.91-1.03
						c0.17-0.43,0.26-1.06,0.26-1.89v-5.19h1.64v9.69h-1.47 M30.23-11.18v-9.69h1.47v1.36c0.3-0.47,0.7-0.85,1.21-1.14
						c0.5-0.28,1.08-0.43,1.72-0.43c0.71,0,1.3,0.14,1.76,0.44c0.45,0.29,0.78,0.71,0.97,1.25c0.76-1.13,1.76-1.69,2.99-1.69
						c0.96,0,1.7,0.26,2.21,0.79c0.51,0.53,0.77,1.35,0.77,2.46v6.65H41.7v-6.1c0-0.65-0.05-1.13-0.15-1.41
						c-0.1-0.28-0.29-0.52-0.57-0.69s-0.6-0.26-0.98-0.26c-0.68,0-1.24,0.22-1.69,0.68c-0.45,0.45-0.67,1.17-0.67,2.17v5.63H36v-6.3
						c0-0.73-0.13-1.27-0.4-1.64c-0.26-0.36-0.7-0.54-1.31-0.54c-0.46,0-0.89,0.12-1.28,0.36s-0.67,0.59-0.85,1.06
						c-0.17,0.46-0.26,1.14-0.26,2.02v5.03h-1.64 M52.49-14.29l1.69,0.21c-0.26,0.99-0.76,1.76-1.48,2.31
						c-0.72,0.54-1.64,0.82-2.77,0.82c-1.41,0-2.54-0.43-3.37-1.31c-0.83-0.87-1.24-2.09-1.24-3.67c0-1.63,0.42-2.89,1.26-3.79
						s1.92-1.35,3.26-1.35c1.29,0,2.35,0.44,3.17,1.32c0.82,0.88,1.23,2.12,1.23,3.72c0,0.09,0,0.24,0,0.43h-7.23
						c0.06,1.06,0.36,1.88,0.9,2.44c0.54,0.56,1.21,0.84,2.02,0.84c0.6,0,1.11-0.15,1.54-0.47c0.42-0.31,0.76-0.82,1.01-1.51
						 M47.09-16.95h5.41c-0.07-0.81-0.28-1.42-0.62-1.83c-0.52-0.63-1.2-0.94-2.03-0.94c-0.75,0-1.38,0.25-1.9,0.75
						c-0.51,0.5-0.79,1.18-0.85,2.02 M64.59-7.24c-0.9-1.14-1.67-2.48-2.3-4.01c-0.62-1.53-0.94-3.12-0.94-4.76
						c0-1.44,0.23-2.83,0.7-4.16c0.54-1.54,1.39-3.07,2.53-4.6h1.17c-0.73,1.26-1.22,2.17-1.46,2.71c-0.37,0.84-0.66,1.71-0.87,2.62
						c-0.26,1.13-0.39,2.28-0.39,3.43c0,2.92,0.91,5.85,2.73,8.77L64.59-7.24 M67.61-11.17v-13.38h1.64v13.38H67.61 M72.92-7.24
						h-1.17c1.82-2.92,2.73-5.84,2.73-8.77c0-1.14-0.13-2.27-0.39-3.4c-0.2-0.91-0.49-1.78-0.86-2.62
						c-0.23-0.54-0.72-1.46-1.47-2.73h1.17c1.14,1.52,1.99,3.06,2.53,4.6c0.46,1.32,0.7,2.71,0.7,4.16c0,1.64-0.31,3.23-0.94,4.76
						c-0.63,1.53-1.39,2.87-2.29,4.01"/>
				</g>
				<path class="st2" d="M40.91,321.36c0-1.35,0.13-2.44,0.41-3.26c0.27-0.82,0.69-1.46,1.24-1.91c0.54-0.44,1.24-0.67,2.07-0.67
					c0.61,0,1.15,0.12,1.61,0.37c0.46,0.24,0.84,0.6,1.14,1.07c0.3,0.46,0.53,1.03,0.71,1.7c0.17,0.66,0.25,1.57,0.25,2.7
					c0,1.34-0.13,2.42-0.41,3.25c-0.27,0.82-0.68,1.46-1.23,1.91c-0.54,0.45-1.24,0.67-2.08,0.67c-1.1,0-1.97-0.39-2.6-1.18
					c-0.75-0.95-1.13-2.5-1.13-4.65 M42.33,321.36c0,1.88,0.22,3.13,0.66,3.75s0.98,0.93,1.62,0.93s1.18-0.31,1.62-0.93
					s0.66-1.87,0.66-3.75s-0.22-3.13-0.66-3.75c-0.44-0.61-0.98-0.92-1.64-0.92c-0.64,0-1.16,0.27-1.54,0.82
					C42.57,318.2,42.33,319.49,42.33,321.36"/>
				<path class="st2" d="M46.21,248.86h-1.4v-8.96c-0.33,0.32-0.78,0.64-1.33,0.96c-0.54,0.32-1.04,0.56-1.48,0.72v-1.35
					c0.78-0.36,1.47-0.81,2.06-1.34c0.58-0.52,1-1.03,1.25-1.53h0.9V248.86"/>
				<path class="st2" d="M48.3,169.37v1.35h-7.57c-0.01-0.33,0.04-0.66,0.16-0.97c0.19-0.51,0.5-1.02,0.92-1.52s1.03-1.07,1.83-1.73
					c1.24-1.02,2.08-1.82,2.52-2.42c0.43-0.59,0.65-1.16,0.65-1.69c0-0.55-0.19-1.02-0.59-1.41c-0.39-0.38-0.91-0.57-1.55-0.57
					c-0.67,0-1.21,0.2-1.62,0.6c-0.4,0.4-0.61,0.96-0.61,1.68L41,162.55c0.09-1.07,0.47-1.89,1.11-2.46
					c0.64-0.56,1.51-0.84,2.6-0.84s1.96,0.3,2.6,0.91c0.64,0.6,0.96,1.36,0.96,2.26c0,0.45-0.09,0.9-0.28,1.35
					c-0.18,0.44-0.49,0.9-0.93,1.39c-0.43,0.48-1.15,1.16-2.16,2.01c-0.84,0.7-1.38,1.18-1.62,1.44c-0.23,0.25-0.43,0.5-0.59,0.76
					L48.3,169.37"/>
				<path class="st2" d="M40.92,89.56l1.4-0.18c0.16,0.79,0.43,1.37,0.82,1.72c0.38,0.35,0.86,0.52,1.41,0.52
					c0.66,0,1.22-0.22,1.67-0.68c0.45-0.45,0.68-1.02,0.68-1.7c0-0.64-0.21-1.17-0.63-1.59c-0.42-0.41-0.95-0.62-1.6-0.62
					c-0.26,0-0.59,0.05-0.99,0.15l0.15-1.23c0.09,0.01,0.16,0.01,0.22,0.01c0.59,0,1.13-0.15,1.61-0.46
					c0.47-0.31,0.71-0.79,0.71-1.44c0-0.51-0.17-0.94-0.52-1.28c-0.34-0.33-0.79-0.5-1.35-0.5c-0.54,0-1,0.17-1.36,0.51
					c-0.36,0.34-0.59,0.85-0.7,1.54l-1.4-0.25c0.17-0.94,0.56-1.67,1.17-2.19c0.6-0.51,1.36-0.77,2.27-0.77
					c0.62,0,1.2,0.13,1.72,0.4c0.52,0.26,0.92,0.63,1.2,1.09c0.27,0.46,0.41,0.95,0.41,1.47c0,0.49-0.13,0.94-0.39,1.35
					c-0.26,0.4-0.65,0.72-1.17,0.96c0.67,0.15,1.2,0.48,1.57,0.97s0.56,1.1,0.56,1.84c0,1-0.36,1.84-1.09,2.54
					c-0.72,0.69-1.65,1.04-2.76,1.04c-1,0-1.83-0.29-2.5-0.89c-0.66-0.59-1.04-1.37-1.13-2.32"/>
				<path class="st2" d="M45.42,22.76v-2.74h-4.96v-1.28l5.22-7.42h1.14v7.42h1.54v1.28h-1.54v2.74H45.42 M45.42,18.73v-5.16
					l-3.58,5.16H45.42"/>
			</g>
			<g>
				<path class="st11" d="M53.05,321.11v-4 M94.94,321.11v-4 M136.83,321.11v-4 M178.72,321.11v-4 M220.61,321.11v-4 M262.5,321.11
					v-4 M304.39,321.11v-4 M346.28,321.11v-4 M388.17,321.11v-4 M430.05,321.11v-4 M471.94,321.11v-4 M513.83,321.11v-4
					 M555.72,321.11v-4"/>
				<path class="st11" d="M53.05,321.11v-8 M136.83,321.11v-8 M220.61,321.11v-8 M304.39,321.11v-8 M388.17,321.11v-8
					 M471.94,321.11v-8 M555.72,321.11v-8"/>
			</g>
			<g>
				<path class="st2" d="M280.98,364.71v-11.8h-4.41v-1.57h10.61v1.57h-4.42v11.8H280.98 M288.08,353.22v-1.89h1.64v1.89H288.08
					 M288.08,364.71v-9.69h1.64v9.69H288.08 M292.26,353.24v-1.9h1.64v1.9H292.26 M290.18,368.47l0.31-1.39
					c0.32,0.08,0.58,0.12,0.77,0.12c0.33,0,0.58-0.11,0.74-0.33s0.24-0.77,0.24-1.66v-10.19h1.64v10.22c0,1.19-0.15,2.02-0.46,2.49
					c-0.39,0.6-1.05,0.91-1.97,0.91c-0.44,0-0.87-0.05-1.28-0.17 M302.75,364.71v-1.22c-0.61,0.96-1.51,1.44-2.71,1.44
					c-0.77,0-1.48-0.21-2.13-0.63c-0.64-0.42-1.15-1.02-1.5-1.78s-0.53-1.64-0.53-2.63c0-0.96,0.16-1.84,0.48-2.63
					c0.32-0.78,0.8-1.39,1.45-1.81c0.64-0.42,1.36-0.63,2.16-0.63c0.58,0,1.1,0.12,1.56,0.36c0.45,0.24,0.82,0.56,1.11,0.96v-4.8
					h1.63v13.38L302.75,364.71 M297.56,359.89c0,1.24,0.26,2.17,0.78,2.78s1.14,0.92,1.85,0.92s1.32-0.29,1.83-0.88
					c0.5-0.58,0.75-1.48,0.75-2.68c0-1.32-0.25-2.3-0.76-2.92c-0.51-0.62-1.14-0.93-1.89-0.93c-0.73,0-1.34,0.29-1.83,0.89
					C297.8,357.66,297.56,358.6,297.56,359.89 M315.2,368.66c-0.9-1.14-1.67-2.48-2.3-4.01c-0.62-1.53-0.94-3.12-0.94-4.76
					c0-1.44,0.23-2.83,0.7-4.16c0.54-1.54,1.39-3.07,2.53-4.6h1.17c-0.73,1.26-1.22,2.17-1.46,2.71c-0.37,0.84-0.66,1.71-0.87,2.62
					c-0.26,1.13-0.39,2.28-0.39,3.43c0,2.92,0.91,5.85,2.73,8.77L315.2,368.66 M317.6,361.84l1.62-0.25
					c0.09,0.65,0.34,1.15,0.76,1.49c0.41,0.34,0.99,0.52,1.74,0.52s1.31-0.15,1.68-0.46c0.36-0.3,0.54-0.66,0.54-1.08
					c0-0.37-0.16-0.66-0.48-0.87c-0.22-0.14-0.78-0.33-1.68-0.55c-1.2-0.3-2.04-0.56-2.5-0.78s-0.81-0.52-1.05-0.92
					c-0.24-0.39-0.36-0.82-0.36-1.3c0-0.43,0.09-0.83,0.29-1.2c0.19-0.36,0.46-0.67,0.8-0.91c0.25-0.18,0.6-0.34,1.04-0.47
					s0.91-0.19,1.41-0.19c0.76,0,1.42,0.1,2,0.32c0.57,0.21,0.99,0.51,1.27,0.89c0.27,0.37,0.46,0.87,0.56,1.5l-1.6,0.21
					c-0.07-0.49-0.28-0.88-0.63-1.16s-0.84-0.42-1.48-0.42c-0.75,0-1.29,0.12-1.61,0.37c-0.32,0.24-0.48,0.54-0.48,0.87
					c0,0.21,0.06,0.4,0.2,0.57c0.13,0.17,0.34,0.32,0.63,0.43c0.16,0.06,0.64,0.2,1.45,0.42c1.16,0.31,1.97,0.56,2.43,0.76
					c0.45,0.19,0.82,0.48,1.08,0.86c0.26,0.37,0.39,0.84,0.39,1.4c0,0.54-0.15,1.06-0.47,1.54c-0.31,0.48-0.78,0.85-1.38,1.12
					c-0.6,0.26-1.28,0.39-2.04,0.39c-1.26,0-2.22-0.26-2.88-0.78s-1.08-1.29-1.26-2.32 M328.72,368.66h-1.17
					c1.82-2.92,2.73-5.84,2.73-8.77c0-1.14-0.13-2.27-0.39-3.4c-0.2-0.91-0.49-1.78-0.86-2.62c-0.23-0.54-0.72-1.46-1.47-2.73h1.17
					c1.14,1.52,1.99,3.06,2.53,4.6c0.46,1.32,0.7,2.71,0.7,4.16c0,1.64-0.31,3.23-0.94,4.76s-1.39,2.87-2.29,4.01"/>
				<path class="st2" d="M49.26,333.76c0-1.35,0.13-2.44,0.41-3.26c0.27-0.82,0.69-1.46,1.24-1.91c0.54-0.44,1.24-0.67,2.07-0.67
					c0.61,0,1.15,0.12,1.61,0.37c0.46,0.24,0.84,0.6,1.14,1.07c0.3,0.46,0.53,1.03,0.71,1.7c0.17,0.66,0.25,1.57,0.25,2.7
					c0,1.34-0.13,2.42-0.41,3.25c-0.27,0.82-0.68,1.46-1.23,1.91c-0.54,0.45-1.24,0.67-2.08,0.67c-1.1,0-1.97-0.39-2.6-1.18
					c-0.75-0.95-1.13-2.5-1.13-4.65 M50.68,333.76c0,1.88,0.22,3.13,0.66,3.75s0.98,0.93,1.62,0.93s1.18-0.31,1.62-0.93
					s0.66-1.87,0.66-3.75s-0.22-3.13-0.66-3.75c-0.44-0.61-0.98-0.92-1.64-0.92c-0.64,0-1.16,0.27-1.54,0.82
					C50.92,330.6,50.68,331.89,50.68,333.76"/>
				<path class="st2" d="M133.89,339.41h-1.4v-8.96c-0.33,0.32-0.78,0.64-1.33,0.96c-0.54,0.32-1.04,0.56-1.48,0.72v-1.35
					c0.78-0.36,1.47-0.81,2.06-1.34c0.58-0.52,1-1.03,1.25-1.53h0.9V339.41 M137.49,333.77c0-1.35,0.13-2.44,0.41-3.26
					c0.27-0.82,0.69-1.46,1.24-1.91c0.54-0.44,1.24-0.67,2.07-0.67c0.61,0,1.15,0.12,1.61,0.37c0.46,0.24,0.84,0.6,1.14,1.07
					c0.3,0.46,0.53,1.03,0.71,1.7c0.17,0.66,0.25,1.57,0.25,2.7c0,1.34-0.13,2.42-0.41,3.25c-0.27,0.82-0.68,1.46-1.23,1.91
					c-0.54,0.45-1.24,0.67-2.08,0.67c-1.1,0-1.97-0.39-2.6-1.18c-0.75-0.95-1.13-2.5-1.13-4.65 M138.91,333.77
					c0,1.88,0.22,3.13,0.66,3.75s0.98,0.93,1.62,0.93s1.18-0.31,1.62-0.93s0.66-1.87,0.66-3.75s-0.22-3.13-0.66-3.75
					c-0.44-0.61-0.98-0.92-1.64-0.92c-0.64,0-1.16,0.27-1.54,0.82C139.15,330.61,138.91,331.9,138.91,333.77"/>
				<path class="st2" d="M219.76,338.05v1.35h-7.57c-0.01-0.33,0.04-0.66,0.16-0.97c0.19-0.51,0.5-1.02,0.92-1.52
					s1.03-1.07,1.83-1.73c1.24-1.02,2.08-1.82,2.52-2.42c0.43-0.59,0.65-1.16,0.65-1.69c0-0.55-0.19-1.02-0.59-1.41
					c-0.39-0.38-0.91-0.57-1.55-0.57c-0.67,0-1.21,0.2-1.62,0.6c-0.4,0.4-0.61,0.96-0.61,1.68l-1.44-0.14
					c0.09-1.07,0.47-1.89,1.11-2.46c0.64-0.56,1.51-0.84,2.6-0.84c1.09,0,1.96,0.3,2.6,0.91c0.64,0.6,0.96,1.36,0.96,2.26
					c0,0.45-0.09,0.9-0.28,1.35c-0.18,0.44-0.49,0.9-0.93,1.39c-0.43,0.48-1.15,1.16-2.16,2.01c-0.84,0.7-1.38,1.18-1.62,1.44
					c-0.23,0.25-0.43,0.5-0.59,0.76L219.76,338.05 M221.26,333.76c0-1.35,0.13-2.44,0.41-3.26c0.27-0.82,0.69-1.46,1.24-1.91
					c0.54-0.44,1.24-0.67,2.07-0.67c0.61,0,1.15,0.12,1.61,0.37c0.46,0.24,0.84,0.6,1.14,1.07c0.3,0.46,0.53,1.03,0.71,1.7
					c0.17,0.66,0.25,1.57,0.25,2.7c0,1.34-0.13,2.42-0.41,3.25c-0.27,0.82-0.68,1.46-1.23,1.91c-0.54,0.45-1.24,0.67-2.08,0.67
					c-1.1,0-1.97-0.39-2.6-1.18c-0.75-0.95-1.13-2.5-1.13-4.65 M222.68,333.76c0,1.88,0.22,3.13,0.66,3.75s0.98,0.93,1.62,0.93
					s1.18-0.31,1.62-0.93s0.66-1.87,0.66-3.75s-0.22-3.13-0.66-3.75c-0.44-0.61-0.98-0.92-1.64-0.92c-0.64,0-1.16,0.27-1.54,0.82
					C222.92,330.6,222.68,331.89,222.68,333.76"/>
				<path class="st2" d="M296.16,336.38l1.4-0.18c0.16,0.79,0.43,1.37,0.82,1.72c0.38,0.35,0.86,0.52,1.41,0.52
					c0.66,0,1.22-0.22,1.67-0.68c0.45-0.45,0.68-1.02,0.68-1.7c0-0.64-0.21-1.17-0.63-1.59c-0.42-0.41-0.95-0.62-1.6-0.62
					c-0.26,0-0.59,0.05-0.99,0.15l0.15-1.23c0.09,0.01,0.16,0.01,0.22,0.01c0.59,0,1.13-0.15,1.61-0.46
					c0.47-0.31,0.71-0.79,0.71-1.44c0-0.51-0.17-0.94-0.52-1.28c-0.34-0.33-0.79-0.5-1.35-0.5c-0.54,0-1,0.17-1.36,0.51
					s-0.59,0.85-0.7,1.54l-1.4-0.25c0.17-0.94,0.56-1.67,1.17-2.19c0.6-0.51,1.36-0.77,2.27-0.77c0.62,0,1.2,0.13,1.72,0.4
					c0.52,0.26,0.92,0.63,1.2,1.09c0.27,0.46,0.41,0.95,0.41,1.47c0,0.49-0.13,0.94-0.39,1.35c-0.26,0.4-0.65,0.72-1.17,0.96
					c0.67,0.15,1.2,0.48,1.57,0.97s0.56,1.1,0.56,1.84c0,1-0.36,1.84-1.09,2.54c-0.72,0.69-1.65,1.04-2.76,1.04
					c-1,0-1.83-0.29-2.5-0.89c-0.66-0.59-1.04-1.37-1.13-2.32 M305.03,333.77c0-1.35,0.13-2.44,0.41-3.26
					c0.27-0.82,0.69-1.46,1.24-1.91c0.54-0.44,1.24-0.67,2.07-0.67c0.61,0,1.15,0.12,1.61,0.37c0.46,0.24,0.84,0.6,1.14,1.07
					c0.3,0.46,0.53,1.03,0.71,1.7c0.17,0.66,0.25,1.57,0.25,2.7c0,1.34-0.13,2.42-0.41,3.25c-0.27,0.82-0.68,1.46-1.23,1.91
					c-0.54,0.45-1.24,0.67-2.08,0.67c-1.1,0-1.97-0.39-2.6-1.18c-0.75-0.95-1.13-2.5-1.13-4.65 M306.45,333.77
					c0,1.88,0.22,3.13,0.66,3.75s0.98,0.93,1.62,0.93c0.64,0,1.18-0.31,1.62-0.93s0.66-1.87,0.66-3.75s-0.22-3.13-0.66-3.75
					c-0.44-0.61-0.98-0.92-1.64-0.92c-0.64,0-1.16,0.27-1.54,0.82C306.69,330.61,306.45,331.9,306.45,333.77"/>
				<path class="st2" d="M384.44,339.41v-2.74h-4.96v-1.28l5.22-7.42h1.14v7.42h1.54v1.28h-1.54v2.74H384.44 M384.44,335.38v-5.16
					l-3.58,5.16H384.44 M388.83,333.77c0-1.35,0.13-2.44,0.41-3.26c0.27-0.82,0.69-1.46,1.24-1.91c0.54-0.44,1.24-0.67,2.07-0.67
					c0.61,0,1.15,0.12,1.61,0.37c0.46,0.24,0.84,0.6,1.14,1.07c0.3,0.46,0.53,1.03,0.71,1.7c0.17,0.66,0.25,1.57,0.25,2.7
					c0,1.34-0.13,2.42-0.41,3.25c-0.27,0.82-0.68,1.46-1.23,1.91c-0.54,0.45-1.24,0.67-2.08,0.67c-1.1,0-1.97-0.39-2.6-1.18
					c-0.75-0.95-1.13-2.5-1.13-4.65 M390.25,333.77c0,1.88,0.22,3.13,0.66,3.75s0.98,0.93,1.62,0.93c0.64,0,1.18-0.31,1.62-0.93
					s0.66-1.87,0.66-3.75s-0.22-3.13-0.66-3.75c-0.44-0.61-0.98-0.92-1.64-0.92c-0.64,0-1.16,0.27-1.54,0.82
					C390.49,330.61,390.25,331.9,390.25,333.77"/>
				<path class="st2" d="M463.71,336.41l1.47-0.12c0.1,0.71,0.36,1.25,0.76,1.62c0.39,0.36,0.87,0.54,1.44,0.54
					c0.67,0,1.25-0.25,1.71-0.76s0.7-1.18,0.7-2.03c0-0.8-0.22-1.43-0.67-1.89c-0.45-0.46-1.04-0.69-1.76-0.69
					c-0.45,0-0.86,0.1-1.22,0.3c-0.36,0.2-0.65,0.47-0.85,0.8l-1.32-0.17l1.1-5.88h5.69v1.34h-4.57l-0.61,3.07
					c0.68-0.47,1.4-0.71,2.16-0.71c1,0,1.84,0.34,2.53,1.03c0.68,0.69,1.03,1.58,1.03,2.67c0,1.03-0.3,1.93-0.9,2.68
					c-0.73,0.92-1.73,1.39-3,1.39c-1.04,0-1.89-0.29-2.55-0.87c-0.65-0.58-1.03-1.35-1.12-2.32 M472.63,333.77
					c0-1.35,0.13-2.44,0.41-3.26c0.27-0.82,0.69-1.46,1.24-1.91c0.54-0.44,1.24-0.67,2.07-0.67c0.61,0,1.15,0.12,1.61,0.37
					c0.46,0.24,0.84,0.6,1.14,1.07c0.3,0.46,0.53,1.03,0.71,1.7c0.17,0.66,0.25,1.57,0.25,2.7c0,1.34-0.13,2.42-0.41,3.25
					c-0.27,0.82-0.68,1.46-1.23,1.91c-0.54,0.45-1.24,0.67-2.08,0.67c-1.1,0-1.97-0.39-2.6-1.18c-0.75-0.95-1.13-2.5-1.13-4.65
					 M474.05,333.77c0,1.88,0.22,3.13,0.66,3.75s0.98,0.93,1.62,0.93c0.64,0,1.18-0.31,1.62-0.93s0.66-1.87,0.66-3.75
					s-0.22-3.13-0.66-3.75c-0.44-0.61-0.98-0.92-1.64-0.92c-0.64,0-1.16,0.27-1.54,0.82C474.29,330.61,474.05,331.9,474.05,333.77"
					/>
				<path class="st2" d="M545.88,330.76l-1.39,0.1c-0.12-0.55-0.3-0.95-0.53-1.2c-0.38-0.4-0.84-0.6-1.4-0.6
					c-0.44,0-0.84,0.12-1.17,0.37c-0.44,0.32-0.79,0.79-1.04,1.41c-0.25,0.61-0.38,1.5-0.39,2.64c0.33-0.51,0.75-0.89,1.24-1.14
					c0.48-0.25,1-0.37,1.53-0.37c0.93,0,1.73,0.34,2.39,1.03c0.65,0.69,0.98,1.58,0.98,2.67c0,0.71-0.15,1.38-0.46,2
					c-0.3,0.61-0.73,1.08-1.27,1.41c-0.54,0.32-1.15,0.49-1.84,0.49c-1.17,0-2.12-0.43-2.86-1.29c-0.73-0.86-1.1-2.28-1.1-4.26
					c0-2.21,0.4-3.82,1.22-4.82c0.71-0.87,1.67-1.31,2.88-1.31c0.9,0,1.63,0.25,2.21,0.75c0.57,0.5,0.92,1.2,1.03,2.09
					 M540.17,335.66c0,0.48,0.1,0.94,0.3,1.39c0.2,0.44,0.49,0.77,0.86,1.01c0.36,0.23,0.75,0.34,1.16,0.34
					c0.59,0,1.1-0.23,1.53-0.71c0.42-0.47,0.64-1.13,0.64-1.95c0-0.79-0.21-1.41-0.63-1.87c-0.42-0.45-0.95-0.68-1.59-0.68
					c-0.63,0-1.17,0.22-1.61,0.68C540.39,334.32,540.17,334.92,540.17,335.66 M547.51,333.73c0-1.35,0.13-2.44,0.41-3.26
					c0.27-0.82,0.69-1.46,1.24-1.91c0.54-0.44,1.24-0.67,2.07-0.67c0.61,0,1.15,0.12,1.61,0.37c0.46,0.24,0.84,0.6,1.14,1.07
					c0.3,0.46,0.53,1.03,0.71,1.7c0.17,0.66,0.25,1.57,0.25,2.7c0,1.34-0.13,2.42-0.41,3.25c-0.27,0.82-0.68,1.46-1.23,1.91
					c-0.54,0.45-1.24,0.67-2.08,0.67c-1.1,0-1.97-0.39-2.6-1.18c-0.75-0.95-1.13-2.5-1.13-4.65 M548.93,333.73
					c0,1.88,0.22,3.13,0.66,3.75s0.98,0.93,1.62,0.93s1.18-0.31,1.62-0.93s0.66-1.87,0.66-3.75s-0.22-3.13-0.66-3.75
					c-0.44-0.61-0.98-0.92-1.64-0.92c-0.64,0-1.16,0.27-1.54,0.82C549.17,330.57,548.93,331.86,548.93,333.73"/>
			</g>
			<g>
				<path class="st10" d="M555.72,321.11V8.55"/>
			</g>
			<g class="st0">
				<path class="st12" d="M555.72,321.11h-4 M555.72,305.48h-4 M555.72,289.85h-4 M555.72,274.22h-4 M555.72,258.59h-4
					 M555.72,242.96h-4 M555.72,227.34h-4 M555.72,211.71h-4 M555.72,196.08h-4 M555.72,180.45h-4 M555.72,164.82h-4 M555.72,149.19
					h-4 M555.72,133.57h-4 M555.72,117.94h-4 M555.72,102.31h-4 M555.72,86.68h-4 M555.72,71.05h-4 M555.72,55.42h-4 M555.72,39.8
					h-4 M555.72,24.17h-4 M555.72,8.54h-4"/>
				<path class="st12" d="M555.72,321.11h-8 M555.72,242.96h-8 M555.72,164.82h-8 M555.72,86.68h-8 M555.72,8.54h-8"/>
				<path class="st12" d="M53.05,8.54v4 M94.94,8.54v4 M136.83,8.54v4 M178.72,8.54v4 M220.61,8.54v4 M262.5,8.54v4 M304.39,8.54v4
					 M346.28,8.54v4 M388.17,8.54v4 M430.05,8.54v4 M471.94,8.54v4 M513.83,8.54v4 M555.72,8.54v4"/>
				<path class="st12" d="M53.05,8.54v8 M136.83,8.54v8 M220.61,8.54v8 M304.39,8.54v8 M388.17,8.54v8 M471.94,8.54v8 M555.72,8.54
					v8"/>
			</g>
		</g>
	</g>
</g>
</svg>
