<?xml version="1.0" encoding="utf-8"?>
<!-- Generator: Adobe Illustrator 24.1.1, SVG Export Plug-In . SVG Version: 6.00 Build 0)  -->
<svg version="1.1" id="Layer_1" xmlns="http://www.w3.org/2000/svg" xmlns:xlink="http://www.w3.org/1999/xlink" x="0px" y="0px"
	 viewBox="0 0 162.38 198.38" style="enable-background:new 0 0 162.38 198.38;" xml:space="preserve">
<style type="text/css">
	.st0{fill:#FFFFFF;}
</style>
<g>
	<rect x="9.77" y="46.53" class="st0" width="141" height="141"/>
	<path d="M151.27,188.03h-142v-142h142V188.03z M10.27,187.03h140v-140h-140V187.03z"/>
</g>
<g>
	<rect x="79.77" y="5.53" width="1" height="142"/>
</g>
<g>
	<path d="M66.86,153.12c-7.8,0-13.91-2.92-13.91-6.65s6.11-6.65,13.91-6.65s13.91,2.92,13.91,6.65S74.66,153.12,66.86,153.12z
		 M66.86,140.82c-7,0-12.91,2.59-12.91,5.65s5.91,5.65,12.91,5.65s12.91-2.59,12.91-5.65S73.85,140.82,66.86,140.82z"/>
</g>
<g>
	<path d="M93.67,153.12c-7.8,0-13.91-2.92-13.91-6.65s6.11-6.65,13.91-6.65s13.91,2.92,13.91,6.65S101.47,153.12,93.67,153.12z
		 M93.67,140.82c-7,0-12.91,2.59-12.91,5.65s5.91,5.65,12.91,5.65s12.91-2.59,12.91-5.65S100.67,140.82,93.67,140.82z"/>
</g>
</svg>
