<?xml version="1.0" encoding="utf-8"?>
<!-- Generator: Adobe Illustrator 24.1.2, SVG Export Plug-In . SVG Version: 6.00 Build 0)  -->
<svg version="1.1" id="Layer_1" xmlns="http://www.w3.org/2000/svg" xmlns:xlink="http://www.w3.org/1999/xlink" x="0px" y="0px"
	 viewBox="0 0 557.9 134.3" style="enable-background:new 0 0 557.9 134.3;" xml:space="preserve">
<style type="text/css">
	.st0{fill:#FFFFFF;}
</style>
<g>
	<rect x="127.4" y="12.5" class="st0" width="130" height="83"/>
	<path d="M257.9,96h-131V12h131V96z M127.9,95h129V13h-129V95z"/>
</g>
<g>
	<rect x="334.9" y="12" class="st0" width="130" height="83"/>
	<path d="M465.4,95.5h-131v-84h131V95.5z M335.4,94.5h129v-82h-129V94.5z"/>
</g>
<g>
	<g>
		<rect x="258.9" y="53" width="62.7" height="1"/>
	</g>
	<g>
		<g>
			<polygon points="318.6,57.8 334.9,53.5 318.6,49.1 			"/>
		</g>
	</g>
</g>
<g>
	<g>
		<g>
			<rect x="1.4" y="33" width="112.7" height="1"/>
		</g>
		<g>
			<g>
				<polygon points="111.1,37.8 127.4,33.5 111.1,29.1 				"/>
			</g>
		</g>
	</g>
	<g>
		<g>
			<rect x="1.4" y="74" width="38.3" height="1"/>
		</g>
		<g>
			<g>
				<polygon points="36.7,78.8 53,74.5 36.7,70.1 				"/>
			</g>
		</g>
	</g>
</g>
<g>
	<g>
		<g>
			<rect x="464.9" y="33" width="79.7" height="1"/>
		</g>
		<g>
			<g>
				<polygon points="541.6,37.8 557.9,33.5 541.6,29.1 				"/>
			</g>
		</g>
	</g>
	<g>
		<g>
			<rect x="464.9" y="74" width="79.7" height="1"/>
		</g>
		<g>
			<g>
				<polygon points="541.6,78.8 557.9,74.5 541.6,70.1 				"/>
			</g>
		</g>
	</g>
</g>
<g>
	<g>
		<polygon points="400.4,128.5 55.9,128.5 55.9,91.2 56.9,91.2 56.9,127.5 399.4,127.5 399.4,95.5 400.4,95.5 		"/>
	</g>
	<g>
		<g>
			<polygon points="52,94.1 56.4,77.9 60.7,94.1 			"/>
		</g>
	</g>
</g>
<g>
	<g>
		<rect x="429.1" y="95" width="1" height="19.7"/>
	</g>
	<g>
		<g>
			<polygon points="425.3,111.7 429.6,128 434,111.7 			"/>
		</g>
	</g>
</g>
<g>
	<path d="M3,9.3h7.6v1.5H4.8v4.7h5.4v1.5H4.8v6.4H3V9.3z"/>
	<path d="M20.7,21.7c0,3.2-2,5-4.4,5c-2.5,0-4.2-1.9-4.2-4.8c0-3,1.9-5,4.4-5C19.1,16.9,20.7,18.9,20.7,21.7z M13.4,21.8
		c0,2,1.1,3.8,3,3.8c1.9,0,3-1.8,3-3.9c0-1.9-1-3.8-3-3.8C14.4,17.9,13.4,19.8,13.4,21.8z"/>
	<path d="M21.4,28l0.9-0.8c1.2-1.1,1.8-1.7,1.8-2.4c0-0.5-0.3-1-1.1-1c-0.5,0-0.9,0.3-1.2,0.4l-0.3-0.6c0.4-0.3,1-0.6,1.7-0.6
		c1.3,0,1.9,0.8,1.9,1.6c0,1-0.8,1.8-1.9,2.8l-0.4,0.4v0h2.4v0.8h-3.8V28z"/>
</g>
<g>
	<path d="M3,51.8h7.6v1.5H4.8v4.7h5.4v1.5H4.8V66H3V51.8z"/>
	<path d="M12.7,69v-9.4H14l3,4.8c0.7,1.1,1.2,2.1,1.7,3.1l0,0c-0.1-1.3-0.1-2.4-0.1-3.9v-4h1.1V69h-1.2l-3-4.8
		c-0.7-1-1.3-2.1-1.8-3.2l0,0c0.1,1.2,0.1,2.3,0.1,3.9v4H12.7z"/>
	<path d="M23.1,59.5v4h4.6v-4h1.2V69h-1.2v-4.4h-4.6V69h-1.2v-9.4H23.1z"/>
	<path d="M30.3,65.9c0.3-0.2,0.9-0.4,1.6-0.4c1.2,0,1.7,0.6,1.7,1.3c0,0.6-0.4,1-1.1,1.3v0c0.8,0.1,1.3,0.6,1.3,1.4
		c0,0.9-0.8,1.6-2.2,1.6c-0.7,0-1.3-0.2-1.6-0.4l0.3-0.7c0.2,0.2,0.8,0.4,1.3,0.4c0.9,0,1.2-0.5,1.2-0.9c0-0.7-0.7-1-1.5-1H31v-0.6
		h0.4c0.5,0,1.3-0.2,1.3-0.9c0-0.3-0.3-0.7-0.9-0.7c-0.5,0-1,0.2-1.2,0.4L30.3,65.9z"/>
</g>
<g>
	<path d="M289.1,34.6h-4.3v-1.6h10.5v1.6H291v12.6h-1.8V34.6z"/>
</g>
<g>
	<path d="M483.5,9.5c0.9-0.1,2-0.3,3.5-0.3c1.8,0,3.1,0.4,4,1.2c0.8,0.7,1.2,1.7,1.2,3c0,1.3-0.4,2.3-1.1,3c-1,1-2.5,1.6-4.3,1.6
		c-0.5,0-1,0-1.5-0.1v5.7h-1.8V9.5z M485.3,16.3c0.4,0.1,0.9,0.1,1.5,0.1c2.2,0,3.5-1.1,3.5-3c0-1.9-1.3-2.8-3.3-2.8
		c-0.8,0-1.4,0.1-1.7,0.1V16.3z"/>
	<path d="M502.2,21.7c0,3.2-2,5-4.4,5c-2.5,0-4.2-1.9-4.2-4.8c0-3,1.9-5,4.4-5C500.5,16.9,502.2,18.9,502.2,21.7z M494.9,21.8
		c0,2,1.1,3.8,3,3.8c1.9,0,3-1.8,3-3.9c0-1.9-1-3.8-3-3.8C495.9,17.9,494.9,19.8,494.9,21.8z"/>
	<path d="M502.9,28l0.9-0.8c1.2-1.1,1.8-1.7,1.8-2.4c0-0.5-0.3-1-1.1-1c-0.5,0-0.9,0.3-1.2,0.4l-0.3-0.6c0.4-0.3,1-0.6,1.7-0.6
		c1.3,0,1.9,0.8,1.9,1.6c0,1-0.8,1.8-1.9,2.8l-0.4,0.4v0h2.4v0.8h-3.8V28z"/>
</g>
<g>
	<path d="M483.5,52c0.9-0.1,2-0.3,3.5-0.3c1.8,0,3.1,0.4,4,1.2c0.8,0.7,1.2,1.7,1.2,3c0,1.3-0.4,2.3-1.1,3c-1,1-2.5,1.6-4.3,1.6
		c-0.5,0-1,0-1.5-0.1V66h-1.8V52z M485.3,58.8c0.4,0.1,0.9,0.1,1.5,0.1c2.2,0,3.5-1.1,3.5-3c0-1.9-1.3-2.8-3.3-2.8
		c-0.8,0-1.4,0.1-1.7,0.1V58.8z"/>
	<path d="M494.1,69v-9.4h1.3l3,4.8c0.7,1.1,1.2,2.1,1.7,3.1l0,0c-0.1-1.3-0.1-2.4-0.1-3.9v-4h1.1V69H500l-3-4.8
		c-0.7-1-1.3-2.1-1.8-3.2l0,0c0.1,1.2,0.1,2.3,0.1,3.9v4H494.1z"/>
	<path d="M511.4,64.2c0,3.2-2,5-4.4,5c-2.5,0-4.2-1.9-4.2-4.8c0-3,1.9-5,4.4-5C509.7,59.4,511.4,61.4,511.4,64.2z M504.1,64.3
		c0,2,1.1,3.8,3,3.8c1.9,0,3-1.8,3-3.9c0-1.9-1-3.8-3-3.8C505.1,60.4,504.1,62.2,504.1,64.3z"/>
</g>
<g>
	<path d="M446.4,128l-3.6-14.2h1.9l1.7,7.2c0.4,1.8,0.8,3.5,1,4.9h0c0.2-1.4,0.7-3.1,1.2-4.9l1.9-7.1h1.9l1.7,7.2
		c0.4,1.7,0.8,3.4,1,4.9h0c0.3-1.6,0.7-3.1,1.1-4.9l1.9-7.1h1.9l-4,14.2h-1.9l-1.8-7.4c-0.4-1.8-0.7-3.2-0.9-4.6h0
		c-0.3,1.4-0.6,2.8-1.1,4.6l-2,7.4H446.4z"/>
	<path d="M462.5,121.5v4h4.6v-4h1.2v9.4h-1.2v-4.4h-4.6v4.4h-1.2v-9.4H462.5z"/>
	<path d="M469.6,132.5l0.9-0.8c1.2-1.1,1.8-1.7,1.8-2.4c0-0.5-0.3-1-1.1-1c-0.5,0-0.9,0.3-1.2,0.4l-0.3-0.6c0.4-0.3,1-0.6,1.7-0.6
		c1.3,0,1.9,0.8,1.9,1.6c0,1-0.8,1.8-1.9,2.8l-0.4,0.4v0h2.4v0.8h-3.8V132.5z"/>
	<path d="M482.9,126.1c0,3.2-2,5-4.4,5c-2.5,0-4.2-1.9-4.2-4.8c0-3,1.9-5,4.4-5C481.2,121.4,482.9,123.3,482.9,126.1z M475.5,126.3
		c0,2,1.1,3.8,3,3.8c1.9,0,3-1.8,3-3.9c0-1.9-1-3.8-3-3.8C476.6,122.4,475.5,124.2,475.5,126.3z"/>
</g>
<g>
	<path d="M241.2,107.6c0.9-0.2,2.2-0.3,3.5-0.3c2,0,3.2,0.4,4.1,1.2c0.7,0.6,1.1,1.6,1.1,2.7c0,1.9-1.2,3.1-2.7,3.6v0.1
		c1.1,0.4,1.7,1.4,2.1,2.9c0.5,2,0.8,3.3,1.1,3.9h-1.9c-0.2-0.4-0.5-1.6-0.9-3.4c-0.4-2-1.2-2.7-2.8-2.8h-1.7v6.1h-1.8V107.6z
		 M243.1,114.1h1.9c2,0,3.2-1.1,3.2-2.7c0-1.8-1.3-2.6-3.3-2.6c-0.9,0-1.5,0.1-1.8,0.2V114.1z"/>
	<path d="M253.6,116.8c0,2.5,1.6,3.5,3.5,3.5c1.3,0,2.1-0.2,2.8-0.5l0.3,1.3c-0.7,0.3-1.8,0.6-3.4,0.6c-3.1,0-5-2.1-5-5.1
		s1.8-5.5,4.8-5.5c3.3,0,4.2,2.9,4.2,4.8c0,0.4,0,0.7-0.1,0.9H253.6z M259,115.5c0-1.2-0.5-3-2.6-3c-1.9,0-2.7,1.7-2.8,3H259z"/>
	<path d="M270.3,121.2c-0.5,0.3-1.6,0.6-2.9,0.6c-3.1,0-5.1-2.1-5.1-5.2c0-3.1,2.1-5.4,5.5-5.4c1.1,0,2.1,0.3,2.6,0.5l-0.4,1.4
		c-0.4-0.3-1.1-0.5-2.1-0.5c-2.3,0-3.6,1.7-3.6,3.8c0,2.4,1.5,3.8,3.5,3.8c1,0,1.7-0.3,2.3-0.5L270.3,121.2z"/>
	<path d="M273.5,111.4l2.2,6c0.2,0.7,0.5,1.5,0.7,2.1h0c0.2-0.6,0.4-1.4,0.7-2.1l2-6h2l-2.8,7.2c-1.3,3.5-2.2,5.3-3.5,6.4
		c-0.9,0.8-1.8,1.1-2.3,1.2l-0.5-1.6c0.5-0.1,1.1-0.4,1.6-0.9c0.5-0.4,1.1-1.1,1.6-2.1c0.1-0.2,0.1-0.3,0.1-0.4c0-0.1,0-0.3-0.1-0.5
		l-3.8-9.4H273.5z"/>
	<path d="M289.8,121.2c-0.5,0.3-1.6,0.6-2.9,0.6c-3.1,0-5.1-2.1-5.1-5.2c0-3.1,2.1-5.4,5.5-5.4c1.1,0,2.1,0.3,2.6,0.5l-0.4,1.4
		c-0.4-0.3-1.1-0.5-2.1-0.5c-2.3,0-3.6,1.7-3.6,3.8c0,2.4,1.5,3.8,3.5,3.8c1,0,1.7-0.3,2.3-0.5L289.8,121.2z"/>
	<path d="M291.9,106.7h1.8v14.9h-1.8V106.7z"/>
	<path d="M297.9,116.8c0,2.5,1.6,3.5,3.5,3.5c1.3,0,2.1-0.2,2.8-0.5l0.3,1.3c-0.7,0.3-1.8,0.6-3.4,0.6c-3.1,0-5-2.1-5-5.1
		s1.8-5.5,4.8-5.5c3.3,0,4.2,2.9,4.2,4.8c0,0.4,0,0.7-0.1,0.9H297.9z M303.3,115.5c0-1.2-0.5-3-2.6-3c-1.9,0-2.7,1.7-2.8,3H303.3z"
		/>
	<path d="M311.9,121.6v-14.2h2l4.5,7.2c1,1.7,1.9,3.1,2.5,4.6l0,0c-0.2-1.9-0.2-3.6-0.2-5.8v-5.9h1.7v14.2h-1.8l-4.5-7.2
		c-1-1.6-1.9-3.2-2.6-4.7l-0.1,0c0.1,1.8,0.1,3.5,0.1,5.8v6H311.9z"/>
	<path d="M327.6,107.4v5.9h6.8v-5.9h1.8v14.2h-1.8v-6.6h-6.8v6.6h-1.8v-14.2H327.6z"/>
	<path d="M338.4,117c0.5-0.3,1.4-0.7,2.4-0.7c1.8,0,2.6,1,2.6,2c0,0.8-0.6,1.6-1.6,1.9v0c1.2,0.2,2,1,2,2c0,1.3-1.2,2.5-3.3,2.5
		c-1,0-1.9-0.3-2.4-0.6l0.4-1c0.3,0.2,1.2,0.5,2,0.5c1.3,0,1.8-0.8,1.8-1.4c0-1-1.1-1.5-2.2-1.5h-0.6v-1h0.6c0.8,0,1.9-0.4,1.9-1.3
		c0-0.5-0.4-1-1.3-1c-0.8,0-1.4,0.3-1.8,0.5L338.4,117z"/>
</g>
<g>
	<path d="M161.6,47.3c0.9-0.2,2.2-0.3,3.5-0.3c2,0,3.2,0.4,4.1,1.2c0.7,0.6,1.1,1.6,1.1,2.7c0,1.9-1.2,3.1-2.7,3.6v0.1
		c1.1,0.4,1.7,1.4,2.1,2.9c0.5,2,0.8,3.3,1.1,3.9h-1.9c-0.2-0.4-0.5-1.6-0.9-3.4c-0.4-2-1.2-2.7-2.8-2.8h-1.7v6.1h-1.8V47.3z
		 M163.4,53.8h1.9c2,0,3.2-1.1,3.2-2.7c0-1.8-1.3-2.6-3.3-2.6c-0.9,0-1.5,0.1-1.8,0.2V53.8z"/>
	<path d="M173.9,56.5c0,2.5,1.6,3.5,3.5,3.5c1.3,0,2.1-0.2,2.8-0.5l0.3,1.3c-0.7,0.3-1.8,0.6-3.4,0.6c-3.1,0-5-2.1-5-5.1
		s1.8-5.5,4.8-5.5c3.3,0,4.2,2.9,4.2,4.8c0,0.4,0,0.7-0.1,0.9H173.9z M179.4,55.2c0-1.2-0.5-3-2.6-3c-1.9,0-2.7,1.7-2.8,3H179.4z"/>
	<path d="M189.1,61.3l-0.1-1.3h-0.1c-0.6,0.8-1.7,1.5-3.1,1.5c-2.1,0-3.1-1.4-3.1-2.9c0-2.5,2.2-3.8,6.1-3.8v-0.2
		c0-0.8-0.2-2.4-2.3-2.4c-0.9,0-1.9,0.3-2.6,0.8l-0.4-1.2c0.8-0.5,2.1-0.9,3.3-0.9c3.1,0,3.9,2.1,3.9,4.2v3.8c0,0.9,0,1.7,0.2,2.4
		H189.1z M188.8,56.1c-2,0-4.3,0.3-4.3,2.3c0,1.2,0.8,1.8,1.7,1.8c1.3,0,2.2-0.8,2.5-1.7c0.1-0.2,0.1-0.4,0.1-0.6V56.1z"/>
	<path d="M200.8,60.9c-0.5,0.3-1.6,0.6-2.9,0.6c-3.1,0-5.1-2.1-5.1-5.2c0-3.1,2.1-5.4,5.5-5.4c1.1,0,2.1,0.3,2.6,0.5l-0.4,1.4
		c-0.4-0.3-1.1-0.5-2.1-0.5c-2.3,0-3.6,1.7-3.6,3.8c0,2.4,1.5,3.8,3.5,3.8c1,0,1.7-0.3,2.3-0.5L200.8,60.9z"/>
	<path d="M205.5,48.2v2.9h2.6v1.4h-2.6V58c0,1.3,0.4,2,1.4,2c0.5,0,0.8-0.1,1.1-0.1l0.1,1.4c-0.4,0.1-0.9,0.3-1.6,0.3
		c-0.9,0-1.6-0.3-2-0.8c-0.5-0.5-0.7-1.4-0.7-2.6v-5.5h-1.6v-1.4h1.6v-2.4L205.5,48.2z"/>
	<path d="M219.3,56.1c0,3.8-2.6,5.4-5.1,5.4c-2.8,0-4.9-2-4.9-5.2c0-3.4,2.2-5.4,5-5.4C217.3,50.9,219.3,53,219.3,56.1z M211.2,56.2
		c0,2.2,1.3,3.9,3.1,3.9c1.8,0,3.1-1.7,3.1-3.9c0-1.7-0.9-3.9-3-3.9S211.2,54.3,211.2,56.2z"/>
	<path d="M221.6,54.3c0-1.2,0-2.2-0.1-3.2h1.6l0.1,2h0.1c0.5-1.4,1.6-2.2,2.8-2.2c0.2,0,0.4,0,0.5,0.1v1.7c-0.2,0-0.4-0.1-0.6-0.1
		c-1.3,0-2.2,1-2.5,2.4c0,0.3-0.1,0.5-0.1,0.9v5.4h-1.8V54.3z"/>
</g>
<g>
	<path d="M364.5,59.1c0.8,0.5,2,0.9,3.3,0.9c1.9,0,3-1,3-2.4c0-1.3-0.8-2.1-2.7-2.8c-2.3-0.8-3.7-2-3.7-4c0-2.2,1.8-3.8,4.6-3.8
		c1.4,0,2.5,0.3,3.1,0.7l-0.5,1.5c-0.5-0.3-1.4-0.7-2.7-0.7c-1.9,0-2.7,1.2-2.7,2.1c0,1.3,0.9,2,2.8,2.7c2.4,0.9,3.6,2.1,3.6,4.2
		c0,2.2-1.6,4.1-5,4.1c-1.4,0-2.9-0.4-3.6-0.9L364.5,59.1z"/>
	<path d="M382.4,60.9c-0.5,0.3-1.6,0.6-2.9,0.6c-3.1,0-5.1-2.1-5.1-5.2c0-3.1,2.1-5.4,5.5-5.4c1.1,0,2.1,0.3,2.6,0.5l-0.4,1.4
		c-0.4-0.3-1.1-0.5-2.1-0.5c-2.3,0-3.6,1.7-3.6,3.8c0,2.4,1.5,3.8,3.5,3.8c1,0,1.7-0.3,2.3-0.5L382.4,60.9z"/>
	<path d="M384.6,46.4h1.8v6.3h0c0.3-0.5,0.8-1,1.3-1.3c0.5-0.3,1.2-0.5,1.9-0.5c1.4,0,3.5,0.8,3.5,4.3v6h-1.8v-5.8
		c0-1.6-0.6-3-2.4-3c-1.2,0-2.1,0.8-2.5,1.8c-0.1,0.3-0.1,0.5-0.1,0.9v6.1h-1.8V46.4z"/>
	<path d="M397.3,56.5c0,2.5,1.6,3.5,3.5,3.5c1.3,0,2.1-0.2,2.8-0.5l0.3,1.3c-0.7,0.3-1.8,0.6-3.4,0.6c-3.1,0-5-2.1-5-5.1
		s1.8-5.5,4.8-5.5c3.3,0,4.2,2.9,4.2,4.8c0,0.4,0,0.7-0.1,0.9H397.3z M402.7,55.2c0-1.2-0.5-3-2.6-3c-1.9,0-2.7,1.7-2.8,3H402.7z"/>
	<path d="M408.8,48.3c0,0.6-0.4,1.1-1.2,1.1c-0.7,0-1.1-0.5-1.1-1.1c0-0.7,0.5-1.2,1.2-1.2C408.4,47.1,408.8,47.6,408.8,48.3z
		 M406.8,61.3V51.1h1.8v10.2H406.8z"/>
	<path d="M420.4,46.4v12.3c0,0.9,0,1.9,0.1,2.6h-1.7l-0.1-1.8h0c-0.6,1.1-1.8,2-3.5,2c-2.5,0-4.3-2.1-4.3-5.2c0-3.4,2.1-5.5,4.6-5.5
		c1.6,0,2.6,0.7,3.1,1.6h0v-6.1H420.4z M418.6,55.3c0-0.2,0-0.5-0.1-0.8c-0.3-1.2-1.3-2.1-2.7-2.1c-1.9,0-3,1.7-3,3.9
		c0,2.1,1,3.8,3,3.8c1.2,0,2.4-0.8,2.7-2.2c0.1-0.3,0.1-0.5,0.1-0.8V55.3z"/>
	<path d="M424.5,56.5c0,2.5,1.6,3.5,3.5,3.5c1.3,0,2.1-0.2,2.8-0.5l0.3,1.3c-0.7,0.3-1.8,0.6-3.4,0.6c-3.1,0-5-2.1-5-5.1
		s1.8-5.5,4.8-5.5c3.3,0,4.2,2.9,4.2,4.8c0,0.4,0,0.7-0.1,0.9H424.5z M430,55.2c0-1.2-0.5-3-2.6-3c-1.9,0-2.7,1.7-2.8,3H430z"/>
	<path d="M434,54.3c0-1.2,0-2.2-0.1-3.2h1.6l0.1,2h0.1c0.5-1.4,1.6-2.2,2.8-2.2c0.2,0,0.4,0,0.5,0.1v1.7c-0.2,0-0.4-0.1-0.6-0.1
		c-1.3,0-2.2,1-2.5,2.4c0,0.3-0.1,0.5-0.1,0.9v5.4H434V54.3z"/>
</g>
<g>
	<rect x="53" y="71.1" width="6.8" height="6.8"/>
</g>
<g>
	<g>
		<rect x="59.8" y="74" width="54.3" height="1"/>
	</g>
	<g>
		<g>
			<polygon points="111.1,78.8 127.4,74.5 111.1,70.1 			"/>
		</g>
	</g>
</g>
<g>
	<path d="M62.9,51.8h7.6v1.5h-5.8v4.7h5.4v1.5h-5.4V66h-1.8V51.8z"/>
	<path d="M73.8,59.5V69h-1.2v-9.4H73.8z"/>
	<path d="M76,69v-9.4h1.3l3,4.8c0.7,1.1,1.2,2.1,1.7,3.1l0,0c-0.1-1.3-0.1-2.4-0.1-3.9v-4h1.1V69h-1.2l-3-4.8
		c-0.7-1-1.3-2.1-1.8-3.2l0,0c0.1,1.2,0.1,2.3,0.1,3.9v4H76z"/>
	<path d="M84.3,70.7c0.3-0.8,0.7-2.3,0.8-3.3l1.4-0.1c-0.3,1.2-0.9,2.7-1.3,3.4L84.3,70.7z"/>
	<path d="M88.1,69v-9.4h1.3l3,4.8c0.7,1.1,1.2,2.1,1.7,3.1l0,0C94,66.1,94,65,94,63.5v-4h1.1V69h-1.2l-3-4.8c-0.7-1-1.3-2.1-1.8-3.2
		l0,0c0.1,1.2,0.1,2.3,0.1,3.9v4H88.1z"/>
	<path d="M98.5,59.5v4h4.6v-4h1.2V69h-1.2v-4.4h-4.6V69h-1.2v-9.4H98.5z"/>
	<path d="M105.7,65.9c0.3-0.2,0.9-0.4,1.6-0.4c1.2,0,1.7,0.6,1.7,1.3c0,0.6-0.4,1-1.1,1.3v0c0.8,0.1,1.3,0.6,1.3,1.4
		c0,0.9-0.8,1.6-2.2,1.6c-0.7,0-1.3-0.2-1.6-0.4l0.3-0.7c0.2,0.2,0.8,0.4,1.3,0.4c0.9,0,1.2-0.5,1.2-0.9c0-0.7-0.7-1-1.5-1h-0.4
		v-0.6h0.4c0.5,0,1.3-0.2,1.3-0.9c0-0.3-0.3-0.7-0.9-0.7c-0.5,0-1,0.2-1.2,0.4L105.7,65.9z"/>
</g>
</svg>
