<?xml version="1.0" encoding="UTF-8"?>
<svg id="Layer_1" xmlns="http://www.w3.org/2000/svg" version="1.1" viewBox="0 0 490 353">
  <!-- Generator: Adobe Illustrator 30.0.0, SVG Export Plug-In . SVG Version: 2.1.1 Build 123)  -->
  <defs>
    <style>
      .st0 {
        fill: #fff;
      }
    </style>
  </defs>
  <g>
    <rect class="st0" x="121.9" y="75.4" width="69" height="210"/>
    <path d="M191.4,285.9h-70V74.9h70v211ZM122.4,284.9h68V75.9h-68s0,209,0,209Z"/>
  </g>
  <g>
    <rect x="9" y="183.5" width="104.1" height="1"/>
    <polygon points="111.2 186.9 122 184 111.2 181.1 111.2 186.9"/>
  </g>
  <g>
    <path d="M10.4,156.9h6.5v1.3h-5v4h4.6v1.3h-4.6v5.5h-1.6v-12.1h.1Z"/>
    <path d="M22.3,162.9v-1.1h9.3v1.1h-9.3ZM22.3,166.5v-1.1h9.3v1.1h-9.3Z"/>
    <path d="M40.4,158.8h0l-2.1,1.1-.3-1.2,2.6-1.4h1.4v11.7h-1.5v-10.2h-.1Z"/>
    <path d="M53.9,163c0,4-1.5,6.2-4.1,6.2s-3.8-2.1-3.9-6c0-3.9,1.7-6.1,4.1-6.1,2.5,0,3.9,2.2,3.9,5.9ZM47.6,163.2c0,3,.9,4.8,2.4,4.8s2.4-1.9,2.4-4.9-.7-4.8-2.4-4.8-2.4,1.7-2.4,4.9Z"/>
    <path d="M63.2,163c0,4-1.5,6.2-4.1,6.2s-3.8-2.1-3.9-6c0-3.9,1.7-6.1,4.1-6.1,2.5,0,3.9,2.2,3.9,5.9ZM56.8,163.2c0,3,.9,4.8,2.4,4.8s2.4-1.9,2.4-4.9-.7-4.8-2.4-4.8-2.4,1.7-2.4,4.9Z"/>
    <path d="M72.4,163c0,4-1.5,6.2-4.1,6.2s-3.8-2.1-3.9-6c0-3.9,1.7-6.1,4.1-6.1,2.5,0,3.9,2.2,3.9,5.9ZM66.1,163.2c0,3,.9,4.8,2.4,4.8s2.4-1.9,2.4-4.9-.7-4.8-2.4-4.8-2.4,1.7-2.4,4.9Z"/>
    <path d="M79.8,164.3h0c.3-.3.6-.7.8-1l2.6-3h1.8l-3.4,3.6,3.8,5.1h-1.9l-3-4.2-.8.9v3.3h-1.6v-12.8h1.6v8.1h.1Z"/>
    <path d="M94.1,160.3c0,.6,0,1.3,0,2.4v5.1c0,2-.4,3.2-1.2,4-.8.8-2.1,1-3.2,1s-2.2-.3-2.9-.7l.4-1.2c.6.4,1.5.7,2.6.7,1.6,0,2.8-.8,2.8-3v-1h0c-.5.8-1.4,1.5-2.8,1.5-2.2,0-3.7-1.8-3.7-4.2s1.9-4.6,3.9-4.6,2.3.8,2.7,1.5h0v-1.3h1.5v-.2ZM92.5,163.7c0-.3,0-.5,0-.7-.3-.9-1.1-1.7-2.2-1.7s-2.6,1.3-2.6,3.3.9,3.1,2.6,3.1,1.9-.6,2.2-1.6c0-.3,0-.6,0-.8v-1.6Z"/>
    <path d="M95.4,169.7l5-13.1h1.2l-5,13.1h-1.2Z"/>
    <path d="M102.9,156.2h1.6v5.4h0c.3-.5.6-.8,1.1-1.1s1-.5,1.6-.5c1.2,0,3,.7,3,3.7v5.2h-1.6v-5c0-1.4-.5-2.6-2-2.6s-1.8.7-2.1,1.6c0,.2,0,.5,0,.8v5.3h-1.6v-12.8h0Z"/>
  </g>
  <g>
    <path d="M16.8,199.9h-4.5l-.5,3c.3,0,.5-.1,1-.1.9,0,1.8.2,2.5.6.9.5,1.7,1.5,1.7,3,0,2.3-1.8,4-4.4,4s-2.4-.4-2.9-.7l.4-1.2c.5.3,1.4.6,2.5.6s2.8-1,2.8-2.5-1-2.6-3.4-2.6-1.2.1-1.6.1l.8-5.6h5.6v1.4Z"/>
    <path d="M26.8,204.3c0,4-1.5,6.2-4.1,6.2s-3.8-2.1-3.9-6c0-3.9,1.7-6.1,4.1-6.1s3.9,2.2,3.9,5.9ZM20.5,204.5c0,3,.9,4.8,2.4,4.8s2.4-1.9,2.4-4.9-.7-4.8-2.4-4.8-2.4,1.7-2.4,4.9Z"/>
    <path d="M33.6,201.9c0,2.5-1.3,3.7-2.8,3.7s-2.7-1.2-2.7-3.5,1.3-3.7,2.8-3.7,2.7,1.2,2.7,3.5ZM29.3,202c0,1.5.5,2.6,1.5,2.6s1.5-1.1,1.5-2.7-.4-2.6-1.5-2.6-1.5,1.2-1.5,2.7ZM30.6,210.5l6.9-12.1h1l-6.9,12.1h-1ZM41.2,206.7c0,2.5-1.3,3.7-2.8,3.7s-2.7-1.2-2.7-3.5,1.3-3.7,2.8-3.7,2.7,1.3,2.7,3.5ZM36.9,206.8c0,1.5.6,2.6,1.5,2.6s1.5-1.1,1.5-2.7-.4-2.6-1.5-2.6c-1,0-1.5,1.2-1.5,2.7Z"/>
    <path d="M46.8,210.3c0-.6,0-1.5,0-2.3v-10.5h1.6v5.5h0c.6-1,1.6-1.6,3-1.6,2.2,0,3.7,1.8,3.7,4.4s-2,4.7-3.9,4.7-2.3-.5-2.9-1.6h0v1.4h-1.5ZM48.4,206.8c0,.2,0,.4,0,.6.3,1.1,1.2,1.9,2.4,1.9,1.7,0,2.6-1.4,2.6-3.3s-.9-3.2-2.6-3.2-2.1.7-2.4,1.9c0,.2,0,.4,0,.6v1.5Z"/>
    <path d="M58,206.2c0,2.1,1.4,3,3,3s1.8-.2,2.4-.5l.3,1.1c-.6.3-1.5.5-2.9.5-2.7,0-4.3-1.8-4.3-4.4s1.5-4.7,4.1-4.7,3.6,2.5,3.6,4.1,0,.6,0,.7h-6.1v.2ZM62.6,205.1c0-1-.4-2.6-2.2-2.6s-2.3,1.5-2.4,2.6h4.6Z"/>
    <path d="M66.1,203.9c0-.9,0-1.6,0-2.4h1.4v1.4h0c.4-.8,1.4-1.6,2.9-1.6s3.1.7,3.1,3.7v5.2h-1.6v-5c0-1.4-.5-2.6-2-2.6s-1.9.7-2.1,1.6c0,.2,0,.5,0,.7v5.2h-1.6s0-6.2,0-6.2Z"/>
    <path d="M75.1,209.4l3.9-5.1c.4-.5.7-.9,1.1-1.4h-4.7v-1.3h6.6v1l-3.9,5.1c-.4.5-.7.9-1.1,1.4h5.1v1.3h-7.1v-1h0Z"/>
    <path d="M84.6,206.2c0,2.1,1.4,3,3,3s1.8-.2,2.4-.5l.3,1.1c-.6.3-1.5.5-2.9.5-2.7,0-4.3-1.8-4.3-4.4s1.5-4.7,4.1-4.7,3.6,2.5,3.6,4.1,0,.6,0,.7h-6.1v.2ZM89.2,205.1c0-1-.4-2.6-2.2-2.6s-2.3,1.5-2.4,2.6h4.6Z"/>
    <path d="M93.6,206.2c0,2.1,1.4,3,3,3s1.8-.2,2.4-.5l.3,1.1c-.6.3-1.5.5-2.9.5-2.7,0-4.3-1.8-4.3-4.4s1.5-4.7,4.1-4.7,3.6,2.5,3.6,4.1,0,.6,0,.7h-6.1v.2ZM98.2,205.1c0-1-.4-2.6-2.2-2.6s-2.3,1.5-2.4,2.6h4.6Z"/>
    <path d="M101.7,203.9c0-.9,0-1.6,0-2.4h1.4v1.4h0c.4-.8,1.4-1.6,2.9-1.6s3.1.7,3.1,3.7v5.2h-1.6v-5c0-1.4-.5-2.6-2-2.6s-1.9.7-2.1,1.6c0,.2,0,.5,0,.7v5.2h-1.6s0-6.2,0-6.2Z"/>
    <path d="M16.8,221.5h-4.5l-.5,3c.3,0,.5-.1,1-.1.9,0,1.8.2,2.5.6.9.5,1.7,1.5,1.7,3,0,2.3-1.8,4-4.4,4s-2.4-.4-2.9-.7l.4-1.2c.5.3,1.4.6,2.5.6s2.8-1,2.8-2.5-1-2.6-3.4-2.6-1.2.1-1.6.1l.8-5.6h5.6v1.4Z"/>
    <path d="M26.8,225.9c0,4-1.5,6.2-4.1,6.2s-3.8-2.1-3.9-6c0-3.9,1.7-6.1,4.1-6.1,2.5,0,3.9,2.2,3.9,5.9ZM20.5,226.1c0,3,.9,4.8,2.4,4.8s2.4-1.9,2.4-4.9-.7-4.8-2.4-4.8c-1.4,0-2.4,1.7-2.4,4.9Z"/>
    <path d="M33.6,223.5c0,2.5-1.3,3.7-2.8,3.7s-2.7-1.2-2.7-3.5,1.3-3.7,2.8-3.7,2.7,1.2,2.7,3.5ZM29.3,223.6c0,1.5.5,2.6,1.5,2.6s1.5-1.1,1.5-2.7-.4-2.6-1.5-2.6c-1,0-1.5,1.2-1.5,2.7ZM30.6,232.1l6.9-12.1h1l-6.9,12.1h-1ZM41.2,228.3c0,2.5-1.3,3.7-2.8,3.7s-2.7-1.2-2.7-3.5,1.3-3.7,2.8-3.7,2.7,1.3,2.7,3.5ZM36.9,228.4c0,1.5.6,2.6,1.5,2.6s1.5-1.1,1.5-2.7-.4-2.6-1.5-2.6c-1,.1-1.5,1.2-1.5,2.7Z"/>
    <path d="M48.8,220.7v2.5h2.2v1.2h-2.3v4.7c0,1.1.3,1.7,1.2,1.7s.7-.1.9-.1v1.2c-.2.1-.7.2-1.3.2s-1.3-.2-1.7-.7c-.5-.5-.6-1.2-.6-2.3v-4.8h-1.4v-1.2h1.4v-2.1l1.6-.3Z"/>
    <path d="M60.6,227.5c0,3.2-2.2,4.6-4.3,4.6s-4.2-1.7-4.2-4.5,1.9-4.6,4.3-4.6,4.2,1.8,4.2,4.5ZM53.7,227.5c0,1.9,1.1,3.3,2.6,3.3s2.6-1.4,2.6-3.4-.7-3.3-2.6-3.3c-1.8,0-2.6,1.8-2.6,3.4Z"/>
    <path d="M62.6,219.1h1.6v12.8h-1.6v-12.8Z"/>
    <path d="M74.1,229.5c0,.9,0,1.7,0,2.4h-1.4v-1.4h0c-.4.7-1.3,1.6-2.9,1.6s-3-.8-3-3.8v-5.1h1.6v4.8c0,1.7.5,2.8,1.9,2.8s1.8-.7,2.1-1.4c0-.2,0-.5,0-.8v-5.3h1.6s0,6.2,0,6.2Z"/>
    <path d="M77.6,227.8c0,2.1,1.4,3,3,3s1.8-.2,2.4-.5l.3,1.1c-.6.3-1.5.5-2.9.5-2.7,0-4.3-1.8-4.3-4.4s1.5-4.7,4.1-4.7,3.6,2.5,3.6,4.1,0,.6,0,.7h-6.1v.2ZM82.3,226.7c0-1-.4-2.6-2.2-2.6s-2.3,1.5-2.4,2.6h4.6Z"/>
    <path d="M86.7,227.8c0,2.1,1.4,3,3,3s1.8-.2,2.4-.5l.3,1.1c-.6.3-1.5.5-2.9.5-2.7,0-4.3-1.8-4.3-4.4s1.5-4.7,4.1-4.7,3.6,2.5,3.6,4.1,0,.6,0,.7h-6.1v.2ZM91.3,226.7c0-1-.4-2.6-2.2-2.6s-2.3,1.5-2.4,2.6h4.6Z"/>
    <path d="M94.8,225.5c0-.9,0-1.6,0-2.4h1.4v1.4h0c.4-.8,1.4-1.6,2.9-1.6s3.1.7,3.1,3.7v5.2h-1.6v-5c0-1.4-.5-2.6-2-2.6s-1.9.7-2.1,1.6c0,.2,0,.5,0,.7v5.2h-1.6s0-6.2,0-6.2Z"/>
  </g>
  <path d="M318.3,58.3h-41c-.4,0-.8-.3-.8-.8V16.5c0-.4.3-.8.8-.8h41c.4,0,.8.3.8.8v41c0,.4-.4.8-.8.8ZM277.5,57.3h40.5V16.8h-40.5v40.5Z"/>
  <g>
    <polygon points="157 76 156 76 156 36.5 268.1 36.5 268.1 37.5 157 37.5 157 76"/>
    <polygon points="266.2 34.1 277 37 266.2 39.9 266.2 34.1"/>
  </g>
  <g>
    <rect x="199.9" y="99.5" width="270.3" height="1"/>
    <polygon points="201.8 102.9 191 100 201.8 97.1 201.8 102.9"/>
    <polygon points="468.2 102.9 479 100 468.2 97.1 468.2 102.9"/>
  </g>
  <g>
    <polygon points="362.5 91.1 361.5 91.1 361.5 37.5 318.5 37.5 318.5 36.5 362.5 36.5 362.5 91.1"/>
    <polygon points="364.9 89.2 362 100 359.1 89.2 364.9 89.2"/>
  </g>
  <g>
    <polygon points="470.1 324.5 156 324.5 156 286 157 286 157 323.5 470.1 323.5 470.1 324.5"/>
    <polygon points="468.2 321.1 479 324 468.2 326.9 468.2 321.1"/>
  </g>
  <path d="M301.9,43.6c-.6.3-1.7.6-3.2.6-3.4,0-6-2.2-6-6.1s2.6-6.4,6.3-6.4,2.5.3,2.9.5l-.4,1.3c-.6-.3-1.4-.5-2.4-.5-2.8,0-4.7,1.8-4.7,5s1.7,4.9,4.7,4.9,1.9-.2,2.6-.5l.2,1.2Z"/>
  <g>
    <path d="M163.1,144.4c.1,1,.3,2.1.3,3.3,0,2.3-.5,3.9-1.5,4.9-1,1.1-2.4,1.7-4.4,1.7s-3.6-.6-4.7-1.7-1.7-3-1.7-5.4.1-2.1.1-2.8h11.9ZM152.4,146c-.1.4-.1,1-.1,1.6,0,3.3,1.9,5.2,5.1,5.2s4.7-1.6,4.7-4.9-.1-1.4-.2-1.8h-9.5Z"/>
    <path d="M155.2,157.3c-2.1,0-3,1.4-3,3s.2,1.8.5,2.4l-1.1.3c-.3-.6-.5-1.5-.5-2.9,0-2.7,1.8-4.3,4.4-4.3s4.7,1.5,4.7,4.1-2.5,3.6-4.1,3.6-.6,0-.7-.1v-6.1h-.2ZM156.3,161.9c1,0,2.6-.4,2.6-2.2s-1.5-2.3-2.6-2.4v4.6Z"/>
    <path d="M152.8,165.2c-.3.5-.6,1.3-.6,2.1,0,1.2.6,1.7,1.3,1.7s1.2-.5,1.6-1.6c.6-1.6,1.4-2.3,2.5-2.3s2.6,1.1,2.6,3-.3,1.7-.5,2.1l-1.2-.4c.2-.3.5-1,.5-1.8s-.5-1.5-1.2-1.5-1,.5-1.5,1.7c-.6,1.5-1.3,2.3-2.6,2.3s-2.6-1.2-2.6-3.3.2-1.8.6-2.4l1.1.4Z"/>
    <path d="M162.4,174.5h-2.5v2.3h-1.2v-2.3h-4.7c-1.1,0-1.7.3-1.7,1.2s.1.7.1.9h-1.2c-.1-.2-.2-.7-.2-1.3s.2-1.3.7-1.7c.5-.5,1.2-.6,2.3-.6h4.8v-1.4h1.2v1.4h2.1l.3,1.5Z"/>
    <path d="M151.1,178.5h8.7v1.6h-8.7v-1.6ZM162.3,180.3c-.5,0-1-.4-1-1s.4-1,1-1,1,.4,1,1-.4,1-1,1Z"/>
    <path d="M163.9,182.7v1.6h-12.8v-1.6h12.8Z"/>
    <path d="M163.9,187v1.6h-12.8v-1.6h12.8Z"/>
    <path d="M151.1,196h1.1v-.2c-.7-.5-1.3-1.4-1.3-2.7s1.2-2.7,2.5-2.7c2.1,0,3.3,1.9,3.2,5.2h.2c.7,0,2-.2,2-2s-.3-1.7-.6-2.3l1-.4c.5.7.8,1.8.8,2.9,0,2.7-1.8,3.3-3.6,3.3h-3.3c-.8,0-1.5,0-2.1.1v-1.2h.1ZM155.6,195.8c0-1.7-.3-3.7-2-3.7s-1.5.7-1.5,1.5.7,1.9,1.5,2.1c.2.1.3.1.5.1h1.5Z"/>
    <path d="M162.4,201.7h-2.5v2.3h-1.2v-2.3h-4.7c-1.1,0-1.7.3-1.7,1.2s.1.7.1.9h-1.2c-.1-.2-.2-.7-.2-1.3s.2-1.3.7-1.7c.5-.5,1.2-.6,2.3-.6h4.8v-1.4h1.2v1.4h2.1l.3,1.5Z"/>
    <path d="M151.1,205.8h8.7v1.6h-8.7v-1.6ZM162.3,207.5c-.5,0-1-.4-1-1s.4-1,1-1,1,.4,1,1-.4,1-1,1Z"/>
    <path d="M155.2,210.9c-2.1,0-3,1.4-3,3s.2,1.8.5,2.4l-1.1.3c-.3-.6-.5-1.5-.5-2.9,0-2.7,1.8-4.3,4.4-4.3s4.7,1.5,4.7,4.1-2.5,3.6-4.1,3.6-.6,0-.7-.1v-6.1h-.2ZM156.3,215.5c1,0,2.6-.4,2.6-2.2s-1.5-2.3-2.6-2.4v4.6Z"/>
  </g>
  <g>
    <path d="M165.2,26.3l-4-12.1h1.7l1.9,6c.5,1.6,1,3.1,1.3,4.5h0c.3-1.4.8-2.9,1.4-4.5l2.1-6h1.7l-4.3,12.1h-1.8Z"/>
    <path d="M175.7,20.2v-1.1h9.3v1.1h-9.3ZM175.7,23.7v-1.1h9.3v1.1h-9.3Z"/>
    <path d="M190.2,23.3c0-1.5.9-2.5,2.3-3.1h0c-1.3-.7-1.9-1.7-1.9-2.7,0-1.9,1.6-3.1,3.6-3.1s3.4,1.4,3.4,2.9-.5,2.1-1.9,2.7h0c1.5.7,2.4,1.7,2.4,3.1,0,2-1.7,3.4-4,3.4-2.4,0-3.9-1.5-3.9-3.2ZM196.5,23.2c0-1.4-1-2.1-2.6-2.6-1.4.4-2.1,1.3-2.1,2.4-.1,1.2.8,2.2,2.3,2.2,1.5,0,2.4-.8,2.4-2ZM192.2,17.4c0,1.2.9,1.8,2.2,2.2,1-.3,1.8-1.1,1.8-2.1s-.6-1.9-2-1.9c-1.3-.1-2,.8-2,1.8Z"/>
    <path d="M207.4,20.3c0,4-1.5,6.2-4.1,6.2s-3.8-2.1-3.9-6c0-3.9,1.7-6.1,4.1-6.1s3.9,2.2,3.9,5.9ZM201,20.5c0,3,.9,4.8,2.4,4.8s2.4-1.9,2.4-4.9-.7-4.8-2.4-4.8c-1.4,0-2.4,1.7-2.4,4.9Z"/>
    <path d="M216.6,20.3c0,4-1.5,6.2-4.1,6.2s-3.8-2.1-3.9-6c0-3.9,1.7-6.1,4.1-6.1s3.9,2.2,3.9,5.9ZM210.3,20.5c0,3,.9,4.8,2.4,4.8s2.4-1.9,2.4-4.9-.7-4.8-2.4-4.8c-1.4,0-2.4,1.7-2.4,4.9Z"/>
    <path d="M223.9,21.6h0c.3-.3.6-.7.8-1l2.6-3h1.9l-3.4,3.6,3.8,5.1h-1.9l-3-4.2-.8.9v3.3h-1.6v-12.8h1.6v8.1h0Z"/>
    <path d="M238.3,17.6c0,.6-.1,1.3-.1,2.4v5c0,2-.4,3.2-1.2,4s-2.1,1-3.2,1-2.2-.3-2.9-.7l.4-1.2c.6.4,1.5.7,2.6.7,1.6,0,2.8-.8,2.8-3v-1h0c-.5.8-1.4,1.5-2.8,1.5-2.2,0-3.7-1.8-3.7-4.2s1.9-4.6,3.9-4.6,2.3.8,2.7,1.5h0v-1.3h1.5ZM236.7,21c0-.3,0-.5-.1-.7-.3-.9-1.1-1.7-2.2-1.7s-2.6,1.3-2.6,3.3.9,3.1,2.6,3.1,1.9-.6,2.2-1.6c.1-.3.1-.6.1-.8v-1.6Z"/>
    <path d="M239.6,27l5-13.1h1.2l-5,13.1h-1.2Z"/>
    <path d="M247.1,13.5h1.6v5.4h0c.3-.5.6-.8,1.1-1.1.5-.3,1-.5,1.6-.5,1.2,0,3,.7,3,3.7v5.2h-1.6v-5c0-1.4-.5-2.6-2-2.6s-1.8.7-2.1,1.6c-.1.2-.1.5-.1.8v5.3h-1.6v-12.8h.1Z"/>
  </g>
  <path d="M265.4,112c.8-.2,1.9-.3,3-.3,1.7,0,2.8.3,3.5,1,.6.5,1,1.4,1,2.3,0,1.6-1,2.7-2.3,3.1h0c.9.4,1.5,1.3,1.8,2.5.4,1.7.7,2.9.9,3.3h-1.6c-.2-.3-.5-1.4-.8-2.9-.4-1.7-1-2.3-2.4-2.4h-1.5v5.3h-1.6v-11.9ZM266.9,117.6h1.6c1.7,0,2.7-.9,2.7-2.3s-1.1-2.3-2.8-2.3-1.3,0-1.5,0v4.5h0Z"/>
  <path d="M399.4,112c1,0,2.1-.3,3.3-.3,2.3,0,3.9.5,4.9,1.5,1.1,1,1.7,2.4,1.7,4.4s-.6,3.6-1.7,4.7-3,1.7-5.4,1.7-2.1,0-2.8,0v-11.9ZM400.9,122.8c.4,0,1,0,1.6,0,3.3,0,5.2-1.9,5.2-5.1s-1.6-4.7-4.9-4.7-1.4,0-1.8.2v9.5h-.1Z"/>
  <path d="M265.4,336c.7-.1,1.8-.3,2.9-.3,1.6,0,2.6.3,3.3.9.6.5,1,1.2,1,2.1s-.8,2.2-2.1,2.7h0c1.2.3,2.5,1.2,2.5,3s-.4,1.8-1,2.4-2.2,1.1-4.2,1.1-1.9-.1-2.4-.1v-11.8h0ZM266.9,341h1.4c1.7,0,2.6-.9,2.6-2s-1.1-2-2.7-2-1.1.1-1.4.1v3.9h.1ZM266.9,346.8c.3.1.8.1,1.3.1,1.6,0,3.1-.6,3.1-2.4s-1.4-2.3-3.1-2.3h-1.3v4.6Z"/>
  <g>
    <path d="M392.8,290v-3.2h-5.4v-1l5.2-7.5h1.7v7.3h1.6v1.2h-1.6v3.2h-1.5ZM392.8,285.6v-3.9c0-.6,0-1.2.1-1.8h-.1c-.4.7-.6,1.2-1,1.7l-2.9,4h3.9Z"/>
    <path d="M402.4,281.6c0,2.5-1.3,3.7-2.8,3.7s-2.7-1.2-2.7-3.5,1.3-3.7,2.8-3.7,2.7,1.3,2.7,3.5ZM398.1,281.7c0,1.5.5,2.6,1.5,2.6s1.5-1.1,1.5-2.7-.4-2.6-1.5-2.6-1.5,1.2-1.5,2.7ZM399.5,290.2l6.9-12.1h1l-6.9,12.1h-1ZM410,286.4c0,2.5-1.3,3.7-2.8,3.7s-2.7-1.2-2.7-3.5,1.3-3.7,2.8-3.7,2.7,1.3,2.7,3.5ZM405.7,286.5c0,1.5.6,2.6,1.5,2.6s1.5-1.1,1.5-2.7-.4-2.6-1.5-2.6c-.9.1-1.5,1.3-1.5,2.7Z"/>
    <path d="M415.6,290c0-.6.1-1.5.1-2.3v-10.5h1.6v5.5h0c.6-1,1.6-1.6,3-1.6,2.2,0,3.7,1.8,3.7,4.4s-2,4.7-3.9,4.7-2.3-.5-2.9-1.6h-.1v1.4h-1.5ZM417.3,286.5c0,.2,0,.4.1.6.3,1.1,1.2,1.9,2.4,1.9,1.7,0,2.6-1.4,2.6-3.3s-.9-3.2-2.6-3.2-2.1.7-2.4,1.9c0,.2-.1.4-.1.6v1.5Z"/>
    <path d="M426.8,285.9c0,2.1,1.4,3,3,3s1.8-.2,2.4-.5l.3,1.1c-.6.3-1.5.5-2.9.5-2.7,0-4.3-1.8-4.3-4.4s1.5-4.7,4.1-4.7,3.6,2.5,3.6,4.1,0,.6-.1.7h-6.1v.2ZM431.5,284.8c0-1-.4-2.6-2.2-2.6s-2.3,1.5-2.4,2.6h4.6Z"/>
    <path d="M435,283.6c0-.9,0-1.6-.1-2.4h1.4v1.4h.1c.4-.8,1.4-1.6,2.9-1.6s3.1.7,3.1,3.7v5.2h-1.6v-5c0-1.4-.5-2.6-2-2.6s-1.9.7-2.1,1.6c-.1.2-.1.5-.1.7v5.2h-1.6v-6.2Z"/>
    <path d="M444,289.1l3.9-5.1c.4-.5.7-.9,1.1-1.4h-4.7v-1.3h6.6v1l-3.9,5.1c-.4.5-.7.9-1.1,1.4h5.1v1.3h-7v-1Z"/>
    <path d="M453.4,285.9c0,2.1,1.4,3,3,3s1.8-.2,2.4-.5l.3,1.1c-.6.3-1.5.5-2.9.5-2.7,0-4.3-1.8-4.3-4.4s1.5-4.7,4.1-4.7,3.6,2.5,3.6,4.1,0,.6-.1.7h-6.1v.2ZM458.1,284.8c0-1-.4-2.6-2.2-2.6s-2.3,1.5-2.4,2.6h4.6Z"/>
    <path d="M462.4,285.9c0,2.1,1.4,3,3,3s1.8-.2,2.4-.5l.3,1.1c-.6.3-1.5.5-2.9.5-2.7,0-4.3-1.8-4.3-4.4s1.5-4.7,4.1-4.7,3.6,2.5,3.6,4.1,0,.6-.1.7h-6.1v.2ZM467.1,284.8c0-1-.4-2.6-2.2-2.6s-2.3,1.5-2.4,2.6h4.6Z"/>
    <path d="M470.6,283.6c0-.9,0-1.6-.1-2.4h1.4v1.4h.1c.4-.8,1.4-1.6,2.9-1.6s3.1.7,3.1,3.7v5.2h-1.6v-5c0-1.4-.5-2.6-2-2.6s-1.9.7-2.1,1.6c-.1.2-.1.5-.1.7v5.2h-1.6v-6.2h0Z"/>
    <path d="M377.4,310.5c.3,0,.7,0,1.3-.1.9-.1,1.8-.5,2.4-1.1.8-.7,1.3-1.7,1.5-3.1h-.1c-.6.8-1.6,1.3-2.8,1.3-2.1,0-3.5-1.6-3.5-3.6s1.6-4.2,4-4.2,3.9,1.9,3.9,4.9-.9,4.4-2,5.5-2.1,1.4-3.4,1.6c-.6.1-1.1.1-1.5.1v-1.3h.2ZM377.9,303.7c0,1.5.9,2.5,2.3,2.5s1.9-.5,2.3-1.2c.1-.1.1-.3.1-.6,0-2-.7-3.5-2.4-3.5s-2.3,1.2-2.3,2.8Z"/>
    <path d="M392.4,301c-.3,0-.7,0-1.2.1-2.5.4-3.8,2.2-4.1,4.2h.1c.6-.7,1.5-1.4,2.8-1.4,2.1,0,3.5,1.5,3.5,3.8s-1.5,4.1-3.9,4.1-4.1-1.9-4.1-5,.8-4.1,2-5.3c1-1,2.3-1.5,3.7-1.7.5-.1.9-.1,1.2-.1v1.3ZM391.9,307.8c0-1.7-1-2.7-2.4-2.7s-1.8.6-2.3,1.4c-.1.2-.2.4-.2.7,0,1.9.9,3.3,2.6,3.3,1.4.1,2.3-1.1,2.3-2.7Z"/>
    <path d="M400.2,303.2c0,2.5-1.3,3.7-2.8,3.7s-2.7-1.2-2.7-3.5,1.3-3.7,2.8-3.7,2.7,1.3,2.7,3.5ZM395.9,303.3c0,1.5.5,2.6,1.5,2.6s1.5-1.1,1.5-2.7-.4-2.6-1.5-2.6c-1,0-1.5,1.2-1.5,2.7ZM397.3,311.8l6.9-12.1h1l-6.9,12.1h-1ZM407.8,308c0,2.5-1.3,3.7-2.8,3.7s-2.7-1.2-2.7-3.5,1.3-3.7,2.8-3.7,2.7,1.3,2.7,3.5ZM403.5,308.1c0,1.5.6,2.6,1.5,2.6s1.5-1.1,1.5-2.7-.4-2.6-1.5-2.6c-.9.1-1.5,1.3-1.5,2.7Z"/>
    <path d="M419.2,300.4v2.5h2.3v1.2h-2.3v4.7c0,1.1.3,1.7,1.2,1.7s.7-.1.9-.1v1.2c-.2.1-.7.2-1.3.2s-1.3-.2-1.7-.7c-.5-.5-.6-1.2-.6-2.3v-4.8h-1.4v-1.2h1.4v-2.1l1.5-.3Z"/>
    <path d="M431,307.2c0,3.2-2.2,4.6-4.3,4.6s-4.2-1.7-4.2-4.5,1.9-4.6,4.3-4.6,4.2,1.8,4.2,4.5ZM424.1,307.3c0,1.9,1.1,3.3,2.6,3.3s2.6-1.4,2.6-3.4-.7-3.3-2.6-3.3-2.6,1.7-2.6,3.4Z"/>
    <path d="M433,298.8h1.6v12.8h-1.6v-12.8Z"/>
    <path d="M444.6,309.2c0,.9,0,1.7.1,2.4h-1.4v-1.4h-.1c-.4.7-1.3,1.6-2.9,1.6s-3-.8-3-3.8v-5.1h1.6v4.8c0,1.7.5,2.8,1.9,2.8s1.8-.7,2.1-1.4c.1-.2.1-.5.1-.8v-5.3h1.6v6.2h0Z"/>
    <path d="M448.1,307.5c0,2.1,1.4,3,3,3s1.8-.2,2.4-.5l.3,1.1c-.6.3-1.5.5-2.9.5-2.7,0-4.3-1.8-4.3-4.4s1.5-4.7,4.1-4.7,3.6,2.5,3.6,4.1,0,.6-.1.7h-6.1v.2ZM452.7,306.4c0-1-.4-2.6-2.2-2.6s-2.3,1.5-2.4,2.6h4.6Z"/>
    <path d="M457.1,307.5c0,2.1,1.4,3,3,3s1.8-.2,2.4-.5l.3,1.1c-.6.3-1.5.5-2.9.5-2.7,0-4.3-1.8-4.3-4.4s1.5-4.7,4.1-4.7,3.6,2.5,3.6,4.1,0,.6-.1.7h-6.1v.2ZM461.8,306.4c0-1-.4-2.6-2.2-2.6s-2.3,1.5-2.4,2.6h4.6Z"/>
    <path d="M465.2,305.2c0-.9,0-1.6-.1-2.4h1.4v1.4h.1c.4-.8,1.4-1.6,2.9-1.6s3.1.7,3.1,3.7v5.2h-1.6v-5c0-1.4-.5-2.6-2-2.6s-1.9.7-2.1,1.6c-.1.2-.1.5-.1.7v5.2h-1.6v-6.2h0Z"/>
  </g>
  <g>
    <path d="M242,82.4h-4.5l-.5,3c.3,0,.5,0,1,0,.9,0,1.8.2,2.5.6.9.5,1.7,1.5,1.7,3,0,2.3-1.8,4-4.4,4s-2.4-.4-2.9-.7l.4-1.2c.5.3,1.4.6,2.5.6s2.8-1,2.8-2.5-1-2.6-3.4-2.6-1.2,0-1.6,0l.8-5.6h5.6v1.4Z"/>
    <path d="M249.5,84.4c0,2.5-1.3,3.7-2.8,3.7s-2.7-1.2-2.7-3.5,1.3-3.7,2.8-3.7,2.7,1.2,2.7,3.5ZM245.2,84.5c0,1.5.5,2.6,1.5,2.6s1.5-1.1,1.5-2.7-.4-2.6-1.5-2.6c-1,0-1.5,1.2-1.5,2.7ZM246.6,93l6.9-12.1h1l-6.9,12.1h-1ZM257.1,89.2c0,2.5-1.3,3.7-2.8,3.7s-2.7-1.2-2.7-3.5,1.3-3.7,2.8-3.7,2.7,1.3,2.7,3.5ZM252.8,89.3c0,1.5.6,2.6,1.5,2.6s1.5-1.1,1.5-2.7-.4-2.6-1.5-2.6c-.9,0-1.5,1.3-1.5,2.7Z"/>
    <path d="M264.7,81.6v2.5h2.3v1.2h-2.3v4.7c0,1.1.3,1.7,1.2,1.7s.7,0,.9,0v1.1c-.2,0-.7.2-1.3.2s-1.3-.2-1.7-.7c-.5-.5-.6-1.2-.6-2.3v-4.8h-1.3v-1.2h1.3v-2.1l1.5-.2Z"/>
    <path d="M276.5,88.4c0,3.2-2.2,4.6-4.3,4.6s-4.2-1.7-4.2-4.5,1.9-4.6,4.3-4.6,4.2,1.8,4.2,4.5ZM269.6,88.4c0,1.9,1.1,3.3,2.6,3.3s2.6-1.4,2.6-3.4-.7-3.3-2.6-3.3-2.6,1.8-2.6,3.4Z"/>
    <path d="M278.5,80h1.6v12.8h-1.6v-12.8Z"/>
    <path d="M290.1,90.4c0,.9,0,1.7.1,2.4h-1.4v-1.4h-.1c-.4.7-1.3,1.6-2.9,1.6s-3-.8-3-3.8v-5.1h1.6v4.8c0,1.7.5,2.8,1.9,2.8s1.8-.7,2.1-1.4c.1-.2.1-.5.1-.8v-5.3h1.6v6.2h0Z"/>
    <path d="M293.6,88.7c0,2.1,1.4,3,3,3s1.8-.2,2.4-.5l.3,1.1c-.6.3-1.5.5-2.9.5-2.7,0-4.3-1.8-4.3-4.4s1.5-4.7,4.1-4.7,3.6,2.5,3.6,4.1,0,.6-.1.7h-6.1v.2ZM298.2,87.6c0-1-.4-2.6-2.2-2.6s-2.3,1.5-2.4,2.6h4.6Z"/>
    <path d="M302.6,88.7c0,2.1,1.4,3,3,3s1.8-.2,2.4-.5l.3,1.1c-.6.3-1.5.5-2.9.5-2.7,0-4.3-1.8-4.3-4.4s1.5-4.7,4.1-4.7,3.6,2.5,3.6,4.1,0,.6-.1.7h-6.1v.2ZM307.2,87.6c0-1-.4-2.6-2.2-2.6s-2.3,1.5-2.4,2.6h4.6Z"/>
    <path d="M310.7,86.4c0-.9,0-1.6-.1-2.4h1.4v1.4h.1c.4-.8,1.4-1.6,2.9-1.6s3.1.7,3.1,3.7v5.2h-1.6v-5c0-1.4-.5-2.6-2-2.6s-1.9.7-2.1,1.6c-.1.2-.1.5-.1.7v5.2h-1.6v-6.2h0Z"/>
  </g>
</svg>