<svg id="Layer_1" data-name="Layer 1" xmlns="http://www.w3.org/2000/svg" viewBox="0 0 532.97 211.56"><defs><style>.cls-1{fill:#fff;}.cls-2{fill:#231f20;}</style></defs><rect class="cls-1" x="192.22" y="70.51" width="113" height="58"/><path class="cls-2" d="M310,132.84H196v-59H310Zm-113-1H309v-57H197Z" transform="translate(-4.32 -3.83)"/><rect class="cls-2" y="99.01" width="178.93" height="1"/><polygon class="cls-2" points="175.96 103.87 192.22 99.51 175.96 95.15 175.96 103.87"/><path class="cls-2" d="M423,153.34H381v-100h42Zm-41-1h40v-98H382Z" transform="translate(-4.32 -3.83)"/><path class="cls-2" d="M219.13,97.38a18.9,18.9,0,0,1,3.51-.3c2,0,3.21.36,4.09,1.16a3.53,3.53,0,0,1,1.11,2.69,3.71,3.71,0,0,1-2.66,3.61v.06a3.55,3.55,0,0,1,2.08,2.86,22,22,0,0,0,1.09,3.88h-1.89a18.47,18.47,0,0,1-1-3.38c-.42-1.95-1.17-2.69-2.83-2.75H221v6.13h-1.83Zm1.83,6.44h1.86c2,0,3.2-1.07,3.2-2.68,0-1.83-1.33-2.63-3.26-2.65a7.11,7.11,0,0,0-1.8.17Z" transform="translate(-4.32 -3.83)"/><path class="cls-2" d="M231.48,106.6a3.25,3.25,0,0,0,3.48,3.52,6.79,6.79,0,0,0,2.82-.52l.31,1.32a8.28,8.28,0,0,1-3.38.63c-3.13,0-5-2.06-5-5.12s1.81-5.48,4.77-5.48c3.32,0,4.2,2.92,4.2,4.78a7.48,7.48,0,0,1-.06.87Zm5.41-1.33c0-1.17-.48-3-2.56-3-1.87,0-2.68,1.72-2.83,3Z" transform="translate(-4.32 -3.83)"/><path class="cls-2" d="M246.6,111.34l-.15-1.28h-.06a3.79,3.79,0,0,1-3.11,1.51,2.9,2.9,0,0,1-3.11-2.92c0-2.45,2.19-3.8,6.11-3.78v-.21a2.09,2.09,0,0,0-2.31-2.35,5.07,5.07,0,0,0-2.64.76l-.42-1.22a6.24,6.24,0,0,1,3.33-.9c3.11,0,3.87,2.12,3.87,4.15v3.8a13.87,13.87,0,0,0,.17,2.44Zm-.28-5.19c-2,0-4.3.32-4.3,2.29a1.64,1.64,0,0,0,1.74,1.77,2.54,2.54,0,0,0,2.46-1.7,2,2,0,0,0,.1-.59Z" transform="translate(-4.32 -3.83)"/><path class="cls-2" d="M258.33,111a6.79,6.79,0,0,1-2.91.59,4.83,4.83,0,0,1-5.06-5.19,5.16,5.16,0,0,1,5.46-5.39,6.24,6.24,0,0,1,2.56.52l-.42,1.43a4.32,4.32,0,0,0-2.14-.48,3.83,3.83,0,0,0-.07,7.64,5.3,5.3,0,0,0,2.27-.5Z" transform="translate(-4.32 -3.83)"/><path class="cls-2" d="M263,98.26v2.92h2.64v1.41H263v5.48c0,1.25.35,2,1.38,2a3.74,3.74,0,0,0,1.07-.13l.09,1.39a4.51,4.51,0,0,1-1.64.25,2.53,2.53,0,0,1-2-.78,3.73,3.73,0,0,1-.72-2.64v-5.54h-1.57v-1.41h1.57V98.74Z" transform="translate(-4.32 -3.83)"/><path class="cls-2" d="M276.79,106.18c0,3.75-2.6,5.39-5.06,5.39-2.75,0-4.87-2-4.87-5.23,0-3.4,2.23-5.39,5-5.39S276.79,103.07,276.79,106.18Zm-8.06.1c0,2.23,1.28,3.91,3.09,3.91s3.08-1.66,3.08-4c0-1.72-.86-3.91-3-3.91S268.73,104.35,268.73,106.28Z" transform="translate(-4.32 -3.83)"/><path class="cls-2" d="M279.13,104.35c0-1.2,0-2.23-.09-3.17h1.62l.06,2h.09a3,3,0,0,1,2.81-2.22,2,2,0,0,1,.52.06v1.74a2.86,2.86,0,0,0-.63-.06,2.59,2.59,0,0,0-2.47,2.37,4.45,4.45,0,0,0-.09.86v5.42h-1.82Z" transform="translate(-4.32 -3.83)"/><path class="cls-2" d="M400,109.11a6.44,6.44,0,0,0,3.28.93c1.87,0,3-1,3-2.42s-.76-2.07-2.67-2.81c-2.31-.82-3.73-2-3.73-4,0-2.2,1.82-3.84,4.57-3.84a6.4,6.4,0,0,1,3.13.69l-.5,1.49a5.67,5.67,0,0,0-2.69-.67c-1.93,0-2.67,1.15-2.67,2.12,0,1.32.86,2,2.82,2.73,2.39.92,3.61,2.08,3.61,4.16s-1.62,4.07-5,4.07a7.38,7.38,0,0,1-3.61-.9Z" transform="translate(-4.32 -3.83)"/><rect class="cls-2" x="305.22" y="99.01" width="58.71" height="1"/><polygon class="cls-2" points="360.95 103.87 377.21 99.51 360.95 95.15 360.95 103.87"/><rect class="cls-2" x="418.21" y="77.01" width="85.71" height="1"/><polygon class="cls-2" points="500.95 81.87 517.21 77.51 500.95 73.15 500.95 81.87"/><rect class="cls-2" x="418.21" y="128.01" width="85.71" height="1"/><polygon class="cls-2" points="500.95 132.87 517.21 128.51 500.95 124.15 500.95 132.87"/><polygon class="cls-2" points="128.72 81.97 127.72 81.97 127.72 18.01 398.21 18.01 398.21 50.01 397.21 50.01 397.21 19.01 128.72 19.01 128.72 81.97"/><polygon class="cls-2" points="132.57 78.99 128.22 95.25 123.86 78.99 132.57 78.99"/><circle class="cls-2" cx="128.22" cy="99.51" r="4.26"/><rect class="cls-2" x="56" y="99.01" width="53.35" height="1"/><polygon class="cls-2" points="106.38 103.87 122.64 99.51 106.38 95.15 106.38 103.87"/><path class="cls-2" d="M231.13,4.12a19.88,19.88,0,0,1,3.51-.29c2,0,3.21.36,4.09,1.15a3.54,3.54,0,0,1,1.11,2.69,3.7,3.7,0,0,1-2.66,3.61v.07a3.52,3.52,0,0,1,2.08,2.85,21.89,21.89,0,0,0,1.09,3.89h-1.89a18.47,18.47,0,0,1-1-3.38c-.42-2-1.17-2.69-2.83-2.75H233v6.13h-1.83ZM233,10.57h1.87c1.95,0,3.19-1.07,3.19-2.69,0-1.82-1.33-2.62-3.26-2.64a7.8,7.8,0,0,0-1.8.16Z" transform="translate(-4.32 -3.83)"/><path class="cls-2" d="M230.78,32.16h0l-2,1.09-.3-1.2L231,30.68h1.35v11.7h-1.53Z" transform="translate(-4.32 -3.83)"/><path class="cls-2" d="M244.36,36.4c0,4-1.48,6.18-4.07,6.18-2.29,0-3.84-2.14-3.87-6s1.69-6.09,4.07-6.09S244.36,32.68,244.36,36.4Zm-6.36.19c0,3,.94,4.77,2.38,4.77,1.62,0,2.39-1.89,2.39-4.88s-.74-4.77-2.37-4.77C239,31.71,238,33.4,238,36.59Z" transform="translate(-4.32 -3.83)"/><path class="cls-2" d="M253.59,36.4c0,4-1.48,6.18-4.07,6.18-2.29,0-3.83-2.14-3.87-6s1.69-6.09,4.07-6.09S253.59,32.68,253.59,36.4Zm-6.36.19c0,3,.94,4.77,2.38,4.77,1.62,0,2.4-1.89,2.4-4.88s-.74-4.77-2.38-4.77C248.24,31.71,247.23,33.4,247.23,36.59Z" transform="translate(-4.32 -3.83)"/><path class="cls-2" d="M260.32,34c0,2.47-1.3,3.7-2.81,3.7s-2.72-1.17-2.73-3.53,1.27-3.66,2.82-3.66S260.32,31.74,260.32,34Zm-4.28.11c0,1.5.52,2.63,1.51,2.63s1.51-1.12,1.51-2.66-.41-2.61-1.51-2.61S256,32.61,256,34.08Zm1.36,8.5,6.88-12.1h1l-6.88,12.1Zm10.54-3.76c0,2.46-1.3,3.69-2.79,3.69s-2.72-1.17-2.74-3.51,1.28-3.68,2.83-3.68S267.94,36.59,267.94,38.82Zm-4.29.11c0,1.49.56,2.62,1.53,2.62s1.51-1.11,1.51-2.66-.41-2.61-1.51-2.61S263.65,37.45,263.65,38.93Z" transform="translate(-4.32 -3.83)"/><path class="cls-2" d="M273.62,36.51c0-1.11,0-2-.07-2.84H275l.07,1.49h0a3.43,3.43,0,0,1,3.1-1.69c2.1,0,3.69,1.78,3.69,4.43,0,3.13-1.91,4.68-4,4.68a3.06,3.06,0,0,1-2.69-1.37h0V46h-1.57Zm1.57,2.33a3.14,3.14,0,0,0,.07.64,2.45,2.45,0,0,0,2.38,1.86c1.67,0,2.64-1.37,2.64-3.37,0-1.74-.92-3.24-2.59-3.24a2.51,2.51,0,0,0-2.39,2,2.39,2.39,0,0,0-.11.65Z" transform="translate(-4.32 -3.83)"/><path class="cls-2" d="M283.86,36.39c0-1,0-1.91-.07-2.72h1.39l.05,1.71h.07a2.62,2.62,0,0,1,2.42-1.91,2.06,2.06,0,0,1,.45.05V35a2.17,2.17,0,0,0-2.67,2,5.32,5.32,0,0,0-.07.74v4.64h-1.57Z" transform="translate(-4.32 -3.83)"/><path class="cls-2" d="M297.46,38a4.26,4.26,0,0,1-4.34,4.63,4.14,4.14,0,0,1-4.18-4.48c0-2.92,1.91-4.63,4.32-4.63A4.13,4.13,0,0,1,297.46,38Zm-6.92.09c0,1.91,1.1,3.35,2.65,3.35S295.83,40,295.83,38c0-1.48-.73-3.35-2.61-3.35S290.54,36.39,290.54,38Z" transform="translate(-4.32 -3.83)"/><path class="cls-2" d="M299.45,36.51c0-1.11,0-2-.07-2.84h1.42l.07,1.49h0a3.43,3.43,0,0,1,3.1-1.69c2.1,0,3.69,1.78,3.69,4.43,0,3.13-1.91,4.68-4,4.68a3.06,3.06,0,0,1-2.69-1.37h0V46h-1.57ZM301,38.84a3.14,3.14,0,0,0,.07.64,2.45,2.45,0,0,0,2.38,1.86c1.67,0,2.64-1.37,2.64-3.37,0-1.74-.91-3.24-2.59-3.24a2.51,2.51,0,0,0-2.39,2,2.39,2.39,0,0,0-.11.65Z" transform="translate(-4.32 -3.83)"/><path class="cls-2" d="M314.52,42.38l-.13-1.1h-.05a3.24,3.24,0,0,1-2.67,1.3,2.48,2.48,0,0,1-2.66-2.5c0-2.11,1.87-3.26,5.24-3.24v-.18a1.8,1.8,0,0,0-2-2,4.31,4.31,0,0,0-2.27.65l-.36-1a5.47,5.47,0,0,1,2.86-.77c2.67,0,3.32,1.82,3.32,3.57v3.25a12.06,12.06,0,0,0,.14,2.09Zm-.24-4.44c-1.72,0-3.69.27-3.69,2a1.41,1.41,0,0,0,1.5,1.51,2.16,2.16,0,0,0,2.1-1.46,1.47,1.47,0,0,0,.09-.5Z" transform="translate(-4.32 -3.83)"/><path class="cls-2" d="M323.19,42.38l-.12-1.1H323a3.22,3.22,0,0,1-2.66,1.3,2.48,2.48,0,0,1-2.67-2.5c0-2.11,1.88-3.26,5.24-3.24v-.18a1.79,1.79,0,0,0-2-2,4.33,4.33,0,0,0-2.27.65l-.35-1a5.44,5.44,0,0,1,2.86-.77c2.66,0,3.31,1.82,3.31,3.57v3.25a13.14,13.14,0,0,0,.14,2.09ZM323,37.94c-1.73,0-3.69.27-3.69,2a1.4,1.4,0,0,0,1.49,1.51A2.16,2.16,0,0,0,322.87,40a1.76,1.76,0,0,0,.09-.5Z" transform="translate(-4.32 -3.83)"/><path class="cls-2" d="M327,36c0-.9,0-1.64-.07-2.36h1.41l.09,1.44h0a3.21,3.21,0,0,1,2.88-1.64c1.21,0,3.08.72,3.08,3.71v5.2h-1.58v-5c0-1.4-.52-2.58-2-2.58a2.25,2.25,0,0,0-2.12,1.62,2.1,2.1,0,0,0-.11.74v5.24H327Z" transform="translate(-4.32 -3.83)"/><path class="cls-2" d="M9,78.27H16.6v1.54H10.81v4.7h5.35V86H10.81v6.41H9Z" transform="translate(-4.32 -3.83)"/><path class="cls-2" d="M22.78,86.36V85.28h9.29v1.08Zm0,3.53V88.81h9.29v1.08Z" transform="translate(-4.32 -3.83)"/><path class="cls-2" d="M40.86,82.2h0l-2,1.1-.31-1.21L41,80.72h1.35V92.43H40.86Z" transform="translate(-4.32 -3.83)"/><path class="cls-2" d="M54.43,86.45c0,4-1.48,6.17-4.07,6.17-2.29,0-3.84-2.14-3.87-6s1.69-6.09,4.07-6.09S54.43,82.72,54.43,86.45Zm-6.36.18c0,3,.94,4.77,2.38,4.77,1.62,0,2.39-1.89,2.39-4.88s-.73-4.77-2.37-4.77C49.08,81.75,48.07,83.44,48.07,86.63Z" transform="translate(-4.32 -3.83)"/><path class="cls-2" d="M63.66,86.45c0,4-1.47,6.17-4.07,6.17-2.28,0-3.83-2.14-3.87-6s1.69-6.09,4.07-6.09S63.66,82.72,63.66,86.45Zm-6.35.18c0,3,.93,4.77,2.37,4.77,1.62,0,2.4-1.89,2.4-4.88s-.74-4.77-2.38-4.77C58.32,81.75,57.31,83.44,57.31,86.63Z" transform="translate(-4.32 -3.83)"/><path class="cls-2" d="M71,87.71h0c.22-.31.52-.69.77-1l2.56-3h1.91l-3.37,3.58,3.84,5.14H74.82l-3-4.18-.81.9v3.28H69.44V79.64H71Z" transform="translate(-4.32 -3.83)"/><path class="cls-2" d="M78.19,86.07c0-.9,0-1.64-.08-2.36H79.5l.07,1.41h.06a3,3,0,0,1,2.73-1.61,2.58,2.58,0,0,1,2.47,1.75h0a3.52,3.52,0,0,1,1-1.13,3,3,0,0,1,1.92-.62c1.16,0,2.87.76,2.87,3.78v5.14H89.08V87.49c0-1.67-.61-2.68-1.89-2.68a2.05,2.05,0,0,0-1.87,1.44,2.38,2.38,0,0,0-.13.79v5.39H83.64V87.2c0-1.38-.61-2.39-1.82-2.39a2.16,2.16,0,0,0-2,1.58,2.24,2.24,0,0,0-.13.78v5.26H78.19Z" transform="translate(-4.32 -3.83)"/><path class="cls-2" d="M101.08,88a4.25,4.25,0,0,1-4.34,4.62,4.14,4.14,0,0,1-4.17-4.48c0-2.92,1.91-4.63,4.32-4.63S101.08,85.33,101.08,88Zm-6.91.09c0,1.9,1.1,3.35,2.65,3.35s2.64-1.43,2.64-3.39c0-1.48-.73-3.35-2.61-3.35S94.17,86.43,94.17,88.09Z" transform="translate(-4.32 -3.83)"/><path class="cls-2" d="M103.08,79.64h1.58V92.43h-1.58Z" transform="translate(-4.32 -3.83)"/><path class="cls-2" d="M106,93.15l5-13.06h1.22l-5,13.06Z" transform="translate(-4.32 -3.83)"/><path class="cls-2" d="M113.5,79.64h1.59v5.44h0A2.92,2.92,0,0,1,116.26,84a3.22,3.22,0,0,1,1.62-.45c1.17,0,3,.72,3,3.73v5.19h-1.59v-5c0-1.4-.52-2.59-2-2.59a2.28,2.28,0,0,0-2.13,1.58,2,2,0,0,0-.1.76v5.26H113.5Z" transform="translate(-4.32 -3.83)"/><path class="cls-2" d="M8.57,114.37h0l-2,1.1-.31-1.21,2.56-1.37H10.1V124.6H8.57Z" transform="translate(-4.32 -3.83)"/><path class="cls-2" d="M22.14,118.62c0,4-1.47,6.17-4.07,6.17-2.28,0-3.83-2.14-3.87-6s1.69-6.09,4.07-6.09S22.14,114.89,22.14,118.62Zm-6.35.18c0,3,.93,4.77,2.37,4.77,1.62,0,2.4-1.89,2.4-4.88s-.74-4.77-2.38-4.77C16.8,113.92,15.79,115.61,15.79,118.8Z" transform="translate(-4.32 -3.83)"/><path class="cls-2" d="M31.38,118.62c0,4-1.48,6.17-4.07,6.17-2.29,0-3.84-2.14-3.87-6s1.69-6.09,4.06-6.09S31.38,114.89,31.38,118.62ZM25,118.8c0,3,.94,4.77,2.38,4.77,1.62,0,2.39-1.89,2.39-4.88s-.74-4.77-2.38-4.77C26,113.92,25,115.61,25,118.8Z" transform="translate(-4.32 -3.83)"/><path class="cls-2" d="M38.11,116.19c0,2.46-1.3,3.69-2.81,3.69s-2.72-1.17-2.74-3.53,1.28-3.66,2.83-3.66S38.11,114,38.11,116.19Zm-4.29.11c0,1.49.52,2.62,1.51,2.62s1.52-1.11,1.52-2.66-.42-2.61-1.52-2.61S33.82,114.82,33.82,116.3Zm1.37,8.49,6.88-12.1h1l-6.88,12.1ZM45.72,121c0,2.47-1.29,3.69-2.79,3.69s-2.72-1.17-2.73-3.51,1.27-3.67,2.82-3.67S45.72,118.8,45.72,121Zm-4.28.11c0,1.49.56,2.63,1.53,2.63s1.51-1.12,1.51-2.67-.41-2.61-1.51-2.61S41.44,119.66,41.44,121.14Z" transform="translate(-4.32 -3.83)"/><path class="cls-2" d="M51.41,118.73c0-1.12,0-2-.07-2.85h1.42l.07,1.5h0a3.4,3.4,0,0,1,3.09-1.7c2.11,0,3.69,1.79,3.69,4.43,0,3.14-1.9,4.68-4,4.68A3.05,3.05,0,0,1,53,123.43h0v4.73H51.41ZM53,121.05a3.3,3.3,0,0,0,.08.65,2.43,2.43,0,0,0,2.37,1.85c1.68,0,2.65-1.37,2.65-3.37,0-1.74-.92-3.24-2.59-3.24a2.54,2.54,0,0,0-2.4,2,2.68,2.68,0,0,0-.11.64Z" transform="translate(-4.32 -3.83)"/><path class="cls-2" d="M61.65,118.6c0-1,0-1.91-.07-2.72H63l.06,1.71h.07a2.62,2.62,0,0,1,2.41-1.91,1.53,1.53,0,0,1,.45.06v1.49a2.76,2.76,0,0,0-.54,0,2.21,2.21,0,0,0-2.12,2,4.14,4.14,0,0,0-.07.74v4.65H61.65Z" transform="translate(-4.32 -3.83)"/><path class="cls-2" d="M75.24,120.17a4.25,4.25,0,0,1-4.34,4.62,4.14,4.14,0,0,1-4.18-4.48c0-2.92,1.91-4.63,4.33-4.63S75.24,117.5,75.24,120.17Zm-6.91.09c0,1.91,1.1,3.35,2.64,3.35s2.65-1.43,2.65-3.39c0-1.48-.74-3.35-2.61-3.35S68.33,118.6,68.33,120.26Z" transform="translate(-4.32 -3.83)"/><path class="cls-2" d="M77.24,118.73c0-1.12,0-2-.08-2.85h1.43l.07,1.5h0a3.4,3.4,0,0,1,3.09-1.7c2.11,0,3.69,1.79,3.69,4.43,0,3.14-1.91,4.68-4,4.68a3.05,3.05,0,0,1-2.68-1.36h0v4.73H77.24Zm1.56,2.32a3.3,3.3,0,0,0,.08.65,2.43,2.43,0,0,0,2.37,1.85c1.68,0,2.65-1.37,2.65-3.37,0-1.74-.92-3.24-2.59-3.24a2.54,2.54,0,0,0-2.4,2,2.68,2.68,0,0,0-.11.64Z" transform="translate(-4.32 -3.83)"/><path class="cls-2" d="M92.3,124.6l-.12-1.1h-.06a3.24,3.24,0,0,1-2.66,1.29,2.48,2.48,0,0,1-2.67-2.5c0-2.11,1.88-3.26,5.24-3.24v-.18a1.79,1.79,0,0,0-2-2,4.43,4.43,0,0,0-2.27.65l-.36-1a5.41,5.41,0,0,1,2.87-.78c2.66,0,3.31,1.82,3.31,3.57v3.26a13.31,13.31,0,0,0,.14,2.09Zm-.23-4.45c-1.73,0-3.69.27-3.69,2a1.4,1.4,0,0,0,1.49,1.51A2.17,2.17,0,0,0,92,122.17a1.89,1.89,0,0,0,.09-.51Z" transform="translate(-4.32 -3.83)"/><path class="cls-2" d="M101,124.6l-.13-1.1h0a3.26,3.26,0,0,1-2.67,1.29,2.48,2.48,0,0,1-2.66-2.5c0-2.11,1.87-3.26,5.24-3.24v-.18a1.8,1.8,0,0,0-2-2,4.4,4.4,0,0,0-2.27.65l-.36-1a5.38,5.38,0,0,1,2.86-.78c2.67,0,3.32,1.82,3.32,3.57v3.26a12.2,12.2,0,0,0,.14,2.09Zm-.23-4.45c-1.73,0-3.7.27-3.7,2a1.4,1.4,0,0,0,1.5,1.51,2.19,2.19,0,0,0,2.11-1.45,1.89,1.89,0,0,0,.09-.51Z" transform="translate(-4.32 -3.83)"/><path class="cls-2" d="M104.83,118.24c0-.9,0-1.64-.07-2.36h1.4l.09,1.44h0a3.2,3.2,0,0,1,2.88-1.64c1.21,0,3.08.72,3.08,3.71v5.21h-1.59v-5c0-1.4-.52-2.57-2-2.57a2.25,2.25,0,0,0-2.13,1.62,2.37,2.37,0,0,0-.1.74v5.24h-1.59Z" transform="translate(-4.32 -3.83)"/><path class="cls-2" d="M144.89,78.27h7.63v1.54h-5.8v4.7h5.35V86h-5.35v6.41h-1.83Z" transform="translate(-4.32 -3.83)"/><path class="cls-2" d="M155.52,87.17v8.25h-1.06V87.17Z" transform="translate(-4.32 -3.83)"/><path class="cls-2" d="M157.38,95.42V87.17h1.16l2.65,4.17A24,24,0,0,1,162.67,94h0c-.1-1.1-.12-2.1-.12-3.39V87.17h1v8.25H162.5l-2.62-4.19a23.91,23.91,0,0,1-1.54-2.75h0c.06,1,.08,2,.08,3.4v3.53Z" transform="translate(-4.32 -3.83)"/><path class="cls-2" d="M336.13,82.49h-4.31V80.93H342.3v1.56H338v12.6h-1.84Z" transform="translate(-4.32 -3.83)"/><rect class="cls-2" x="397.21" y="149.01" width="1" height="34.55"/><polygon class="cls-2" points="393.35 180.59 397.71 196.85 402.07 180.59 393.35 180.59"/><path class="cls-2" d="M215.58,156.26l-1.81-3.13c-.73-1.2-1.19-2-1.63-2.8h0a31.48,31.48,0,0,1-1.53,2.82l-1.7,3.11h-2.1l4.33-7.16-4.16-7h2.12l1.87,3.32c.52.93.92,1.64,1.3,2.4h.06c.4-.84.76-1.5,1.28-2.4l1.94-3.32h2.09l-4.3,6.89,4.41,7.27Z" transform="translate(-4.32 -3.83)"/><path class="cls-2" d="M219,158.15a2.81,2.81,0,0,0,1.42.43c.79,0,1.15-.4,1.15-.89s-.3-.79-1.1-1.08c-1.06-.38-1.56-1-1.56-1.68a1.82,1.82,0,0,1,2-1.74,2.92,2.92,0,0,1,1.46.37l-.27.78a2.3,2.3,0,0,0-1.21-.34c-.64,0-1,.37-1,.81s.36.71,1.13,1c1,.39,1.55.91,1.55,1.79,0,1-.8,1.77-2.21,1.77a3.46,3.46,0,0,1-1.67-.4Z" transform="translate(-4.32 -3.83)"/><path class="cls-2" d="M226.51,149.18v-1.26h10.83v1.26Zm0,4.12V152h10.83v1.26Z" transform="translate(-4.32 -3.83)"/><path class="cls-2" d="M252.65,149.28c0,4.64-1.72,7.21-4.74,7.21-2.67,0-4.47-2.5-4.52-7s2-7.09,4.75-7.09S252.65,144.94,252.65,149.28Zm-7.41.21c0,3.55,1.09,5.57,2.77,5.57,1.89,0,2.8-2.21,2.8-5.69S250,143.8,248,143.8C246.42,143.8,245.24,145.78,245.24,149.49Z" transform="translate(-4.32 -3.83)"/><path class="cls-2" d="M254.5,155.16a1.25,1.25,0,0,1,1.26-1.32,1.33,1.33,0,0,1,0,2.65A1.24,1.24,0,0,1,254.5,155.16Z" transform="translate(-4.32 -3.83)"/><path class="cls-2" d="M258.7,156.26v-1.14l1.45-1.41c3.49-3.31,5.06-5.08,5.08-7.13a2.44,2.44,0,0,0-2.71-2.67,4.65,4.65,0,0,0-2.89,1.15l-.59-1.3a6,6,0,0,1,3.86-1.38,3.84,3.84,0,0,1,4.18,4c0,2.51-1.83,4.55-4.7,7.32l-1.1,1v0h6.14v1.54Z" transform="translate(-4.32 -3.83)"/><path class="cls-2" d="M278.54,149.28c0,4.64-1.72,7.21-4.74,7.21-2.67,0-4.47-2.5-4.51-7s2-7.09,4.74-7.09S278.54,144.94,278.54,149.28Zm-7.41.21c0,3.55,1.1,5.57,2.77,5.57,1.89,0,2.8-2.21,2.8-5.69s-.86-5.57-2.77-5.57C272.31,143.8,271.13,145.78,271.13,149.49Z" transform="translate(-4.32 -3.83)"/><path class="cls-2" d="M207.58,179.23a6.53,6.53,0,0,0,3.28.92c1.86,0,3-1,3-2.41s-.76-2.08-2.67-2.81c-2.31-.82-3.74-2-3.74-4,0-2.21,1.83-3.85,4.58-3.85a6.39,6.39,0,0,1,3.13.7l-.51,1.49a5.51,5.51,0,0,0-2.68-.67c-1.94,0-2.67,1.15-2.67,2.12,0,1.32.86,2,2.81,2.73,2.4.92,3.61,2.07,3.61,4.15s-1.61,4.08-5,4.08a7.21,7.21,0,0,1-3.61-.91Z" transform="translate(-4.32 -3.83)"/><path class="cls-2" d="M226.33,174.38v-1.26h10.84v1.26Zm0,4.12v-1.26h10.84v1.26Z" transform="translate(-4.32 -3.83)"/><path class="cls-2" d="M252.48,174.48c0,4.65-1.73,7.21-4.75,7.21-2.67,0-4.47-2.5-4.51-7s2-7.09,4.74-7.09S252.48,170.14,252.48,174.48Zm-7.42.21c0,3.55,1.1,5.57,2.78,5.57,1.88,0,2.79-2.21,2.79-5.69s-.86-5.57-2.77-5.57C246.24,169,245.06,171,245.06,174.69Z" transform="translate(-4.32 -3.83)"/><path class="cls-2" d="M254.32,180.36a1.25,1.25,0,0,1,1.26-1.32,1.33,1.33,0,0,1,0,2.65A1.24,1.24,0,0,1,254.32,180.36Z" transform="translate(-4.32 -3.83)"/><path class="cls-2" d="M266.31,169.11a7,7,0,0,0-1.38.08,5.57,5.57,0,0,0-4.75,4.85h.07a4.05,4.05,0,0,1,3.29-1.57c2.42,0,4.12,1.74,4.12,4.41a4.56,4.56,0,0,1-4.54,4.81c-2.92,0-4.83-2.27-4.83-5.82a8.58,8.58,0,0,1,2.31-6.15,7.48,7.48,0,0,1,4.37-2,9.35,9.35,0,0,1,1.34-.1Zm-.52,7.87c0-1.95-1.11-3.12-2.81-3.12a3,3,0,0,0-2.65,1.67,1.55,1.55,0,0,0-.21.82c0,2.25,1.07,3.91,3,3.91C264.72,180.26,265.79,178.94,265.79,177Z" transform="translate(-4.32 -3.83)"/><path class="cls-2" d="M278.37,174.48c0,4.65-1.72,7.21-4.75,7.21-2.66,0-4.47-2.5-4.51-7s2-7.09,4.74-7.09S278.37,170.14,278.37,174.48Zm-7.41.21c0,3.55,1.09,5.57,2.77,5.57,1.89,0,2.79-2.21,2.79-5.69s-.86-5.57-2.77-5.57C272.13,169,271,171,271,174.69Z" transform="translate(-4.32 -3.83)"/><path class="cls-2" d="M429.94,66.38h0l-1.59.86-.23-.94,2-1.06h1.05v9.1h-1.19Z" transform="translate(-4.32 -3.83)"/><path class="cls-2" d="M440.5,69.69c0,3.1-1.15,4.8-3.16,4.8-1.78,0-3-1.66-3-4.67s1.32-4.74,3.17-4.74S440.5,66.79,440.5,69.69Zm-4.94.14c0,2.37.73,3.71,1.85,3.71s1.86-1.47,1.86-3.79S438.7,66,437.42,66C436.34,66,435.56,67.35,435.56,69.83Z" transform="translate(-4.32 -3.83)"/><path class="cls-2" d="M447.68,69.69c0,3.1-1.15,4.8-3.16,4.8-1.78,0-3-1.66-3-4.67s1.31-4.74,3.16-4.74S447.68,66.79,447.68,69.69Zm-4.94.14c0,2.37.73,3.71,1.85,3.71s1.86-1.47,1.86-3.79S445.88,66,444.6,66C443.52,66,442.74,67.35,442.74,69.83Z" transform="translate(-4.32 -3.83)"/><path class="cls-2" d="M452.92,67.8c0,1.92-1,2.87-2.19,2.87s-2.11-.91-2.13-2.75,1-2.84,2.2-2.84S452.92,66.06,452.92,67.8Zm-3.34.08c0,1.17.41,2.05,1.18,2.05s1.18-.87,1.18-2.07-.33-2-1.18-2S449.58,66.73,449.58,67.88Zm1.07,6.61L456,65.08h.78l-5.35,9.41Zm8.19-2.92c0,1.92-1,2.87-2.17,2.87s-2.11-.91-2.13-2.73,1-2.86,2.2-2.86S458.84,69.83,458.84,71.57Zm-3.33.08c0,1.16.43,2,1.19,2s1.18-.87,1.18-2.08-.33-2-1.18-2S455.51,70.5,455.51,71.65Z" transform="translate(-4.32 -3.83)"/><path class="cls-2" d="M463.26,69.77c0-.86,0-1.56-.05-2.21h1.1l.06,1.16h0a2.67,2.67,0,0,1,2.41-1.31c1.64,0,2.87,1.38,2.87,3.44,0,2.44-1.49,3.64-3.08,3.64a2.38,2.38,0,0,1-2.09-1.06h0v3.68h-1.22Zm1.22,1.81a2.74,2.74,0,0,0,.06.51,1.9,1.9,0,0,0,1.85,1.44c1.3,0,2.06-1.07,2.06-2.62,0-1.36-.72-2.52-2-2.52a2,2,0,0,0-1.86,1.52,1.76,1.76,0,0,0-.09.51Z" transform="translate(-4.32 -3.83)"/><path class="cls-2" d="M471.23,69.68c0-.8,0-1.49-.06-2.12h1.08l0,1.33h.06a2,2,0,0,1,1.88-1.48,1.29,1.29,0,0,1,.35,0v1.16a1.82,1.82,0,0,0-.42,0,1.74,1.74,0,0,0-1.66,1.58,4.83,4.83,0,0,0-.05.58v3.61h-1.22Z" transform="translate(-4.32 -3.83)"/><path class="cls-2" d="M481.8,70.89a3.31,3.31,0,0,1-3.37,3.6A3.22,3.22,0,0,1,475.18,71a3.31,3.31,0,0,1,3.36-3.6A3.21,3.21,0,0,1,481.8,70.89Zm-5.38.07c0,1.49.86,2.61,2.06,2.61s2.06-1.11,2.06-2.63c0-1.15-.57-2.61-2-2.61S476.42,69.68,476.42,71Z" transform="translate(-4.32 -3.83)"/><path class="cls-2" d="M483.35,69.77c0-.86,0-1.56-.05-2.21h1.1l.06,1.16h0a2.67,2.67,0,0,1,2.41-1.31c1.63,0,2.87,1.38,2.87,3.44,0,2.44-1.49,3.64-3.08,3.64a2.37,2.37,0,0,1-2.09-1.06h0v3.68h-1.22Zm1.22,1.81a2.74,2.74,0,0,0,.06.51,1.9,1.9,0,0,0,1.85,1.44c1.3,0,2-1.07,2-2.62,0-1.36-.71-2.52-2-2.52a2,2,0,0,0-1.87,1.52,2.17,2.17,0,0,0-.08.51Z" transform="translate(-4.32 -3.83)"/><path class="cls-2" d="M492,71.17a2.18,2.18,0,0,0,2.33,2.36,4.61,4.61,0,0,0,1.88-.35l.21.88a5.47,5.47,0,0,1-2.26.42,3.14,3.14,0,0,1-3.33-3.42c0-2,1.2-3.65,3.18-3.65,2.21,0,2.8,1.94,2.8,3.19a5.55,5.55,0,0,1,0,.57Zm3.62-.88a1.76,1.76,0,0,0-1.71-2,2,2,0,0,0-1.89,2Z" transform="translate(-4.32 -3.83)"/><path class="cls-2" d="M499,71.17a2.17,2.17,0,0,0,2.32,2.36,4.54,4.54,0,0,0,1.88-.35l.21.88a5.41,5.41,0,0,1-2.25.42,3.15,3.15,0,0,1-3.34-3.42c0-2,1.21-3.65,3.18-3.65,2.21,0,2.8,1.94,2.8,3.19a5.55,5.55,0,0,1,0,.57Zm3.61-.88a1.75,1.75,0,0,0-1.71-2,2,2,0,0,0-1.89,2Z" transform="translate(-4.32 -3.83)"/><path class="cls-2" d="M505.35,69.4c0-.7,0-1.28-.06-1.84h1.09l.07,1.12h0a2.5,2.5,0,0,1,2.24-1.27c.94,0,2.4.56,2.4,2.88v4h-1.24V70.43c0-1.09-.4-2-1.56-2a1.75,1.75,0,0,0-1.66,1.26,1.91,1.91,0,0,0-.08.57v4.08h-1.23Z" transform="translate(-4.32 -3.83)"/><path class="cls-2" d="M528.57,74.1a21,21,0,0,1,3.51-.27,5.84,5.84,0,0,1,4,1.17,3.82,3.82,0,0,1,1.24,3,4.19,4.19,0,0,1-1.09,3,5.87,5.87,0,0,1-4.33,1.55,6.57,6.57,0,0,1-1.47-.12v5.67h-1.83Zm1.83,6.83a6.4,6.4,0,0,0,1.51.14c2.21,0,3.55-1.07,3.55-3s-1.32-2.77-3.34-2.77a8,8,0,0,0-1.72.14Z" transform="translate(-4.32 -3.83)"/><path class="cls-2" d="M455.05,152.84l-3.59-14.15h1.94l1.67,7.16c.42,1.76.8,3.53,1.06,4.89h0c.23-1.41.67-3.09,1.15-4.91l1.89-7.14h1.91l1.72,7.18c.4,1.68.78,3.36,1,4.85h0c.3-1.55.7-3.13,1.14-4.89l1.87-7.14h1.86l-4,14.15h-1.91L461,145.47a42.87,42.87,0,0,1-.93-4.62h0a42.45,42.45,0,0,1-1.09,4.62l-2,7.37Z" transform="translate(-4.32 -3.83)"/><path class="cls-2" d="M410.62,162.61h1.82v6.82h.07c.37-.54.75-1.05,1.11-1.51l4.32-5.31h2.27l-5.12,6,5.52,8.15h-2.16l-4.66-6.95-1.35,1.55v5.4h-1.82Z" transform="translate(-4.32 -3.83)"/><path class="cls-2" d="M384.84,207.28h0l-1.58.85-.24-.94,2-1.06h1v9.1h-1.19Z" transform="translate(-4.32 -3.83)"/><path class="cls-2" d="M395.4,210.58c0,3.1-1.15,4.81-3.17,4.81-1.78,0-3-1.67-3-4.68s1.31-4.73,3.16-4.73S395.4,207.68,395.4,210.58Zm-4.95.14c0,2.37.73,3.72,1.85,3.72s1.86-1.48,1.86-3.8-.57-3.71-1.85-3.71C391.24,206.93,390.45,208.24,390.45,210.72Z" transform="translate(-4.32 -3.83)"/><path class="cls-2" d="M402.58,210.58c0,3.1-1.15,4.81-3.17,4.81-1.78,0-3-1.67-3-4.68s1.32-4.73,3.17-4.73S402.58,207.68,402.58,210.58Zm-4.95.14c0,2.37.73,3.72,1.85,3.72s1.86-1.48,1.86-3.8-.57-3.71-1.85-3.71C398.42,206.93,397.63,208.24,397.63,210.72Z" transform="translate(-4.32 -3.83)"/><path class="cls-2" d="M407.81,208.69c0,1.92-1,2.87-2.18,2.87s-2.12-.91-2.13-2.74,1-2.84,2.2-2.84S407.81,207,407.81,208.69Zm-3.33.09c0,1.16.4,2,1.17,2s1.18-.87,1.18-2.07-.32-2-1.18-2S404.48,207.63,404.48,208.78Zm1.06,6.61,5.35-9.41h.79l-5.35,9.41Zm8.2-2.93c0,1.92-1,2.87-2.17,2.87s-2.12-.91-2.13-2.73,1-2.86,2.2-2.86S413.74,210.72,413.74,212.46Zm-3.34.08c0,1.17.44,2.05,1.19,2.05s1.18-.87,1.18-2.07-.32-2-1.18-2S410.4,211.4,410.4,212.54Z" transform="translate(-4.32 -3.83)"/><path class="cls-2" d="M424.8,214.93a6.19,6.19,0,0,1-2.5.44,4.41,4.41,0,0,1-4.66-4.77,4.7,4.7,0,0,1,4.93-5,5,5,0,0,1,2.24.42l-.29,1a4.54,4.54,0,0,0-1.91-.39c-2.21,0-3.68,1.42-3.68,3.9,0,2.31,1.33,3.79,3.62,3.79a4.83,4.83,0,0,0,2-.39Z" transform="translate(-4.32 -3.83)"/><path class="cls-2" d="M484.81,142.4a4.51,4.51,0,0,0-.93.06,3.69,3.69,0,0,0-3.16,3.23h0a2.77,2.77,0,0,1,4.94,1.89,3,3,0,0,1-3,3.21c-1.95,0-3.23-1.51-3.23-3.88a5.73,5.73,0,0,1,1.54-4.1,5,5,0,0,1,2.92-1.35,6.75,6.75,0,0,1,.9-.07Zm-.36,5.25a1.84,1.84,0,0,0-1.87-2.08,2,2,0,0,0-1.77,1.12,1.08,1.08,0,0,0-.14.54c0,1.5.72,2.61,2,2.61C483.74,149.84,484.45,149,484.45,147.65Z" transform="translate(-4.32 -3.83)"/><path class="cls-2" d="M490.6,150.64v-2.48h-4.23v-.81l4.06-5.82h1.33v5.66H493v1h-1.28v2.48Zm0-3.45v-3c0-.47,0-1,0-1.43h0c-.28.54-.5.93-.76,1.35l-2.22,3.09v0Z" transform="translate(-4.32 -3.83)"/><path class="cls-2" d="M498.08,144.1c0,1.92-1,2.87-2.19,2.87s-2.11-.91-2.13-2.75,1-2.84,2.2-2.84S498.08,142.36,498.08,144.1Zm-3.34.08c0,1.16.41,2,1.18,2s1.18-.87,1.18-2.08-.33-2-1.18-2S494.74,143,494.74,144.18Zm1.07,6.61,5.35-9.41h.78l-5.35,9.41Zm8.19-2.93c0,1.92-1,2.88-2.17,2.88s-2.12-.91-2.13-2.74,1-2.85,2.2-2.85S504,146.13,504,147.86Zm-3.33.09c0,1.16.43,2,1.19,2s1.17-.86,1.17-2.07-.32-2-1.17-2S500.67,146.8,500.67,148Z" transform="translate(-4.32 -3.83)"/><path class="cls-2" d="M509.68,141.2v4h4.57v-4h1.23v9.44h-1.23v-4.43h-4.57v4.43h-1.22V141.2Z" transform="translate(-4.32 -3.83)"/><path class="cls-2" d="M516.69,152.18l.89-.83c1.16-1,1.76-1.71,1.76-2.42a1,1,0,0,0-1.06-1,2.18,2.18,0,0,0-1.18.43l-.29-.63a2.69,2.69,0,0,1,1.7-.59,1.65,1.65,0,0,1,1.87,1.59c0,1.05-.8,1.82-1.87,2.76l-.43.39v0h2.4v.77h-3.79Z" transform="translate(-4.32 -3.83)"/><path class="cls-2" d="M491,159.37h-3.47l-.36,2.34a4.62,4.62,0,0,1,.75-.06,3.91,3.91,0,0,1,2,.49,2.61,2.61,0,0,1,1.3,2.34,3.16,3.16,0,0,1-3.39,3.11,4.49,4.49,0,0,1-2.27-.56l.31-.94a4,4,0,0,0,1.95.51,2,2,0,0,0,2.15-2c0-1.17-.79-2-2.62-2a10.14,10.14,0,0,0-1.26.09l.59-4.37H491Z" transform="translate(-4.32 -3.83)"/><path class="cls-2" d="M496.83,160.9c0,1.92-1,2.87-2.18,2.87s-2.12-.91-2.13-2.75,1-2.84,2.19-2.84S496.83,159.16,496.83,160.9Zm-3.33.08c0,1.16.4,2.05,1.17,2.05s1.18-.87,1.18-2.08-.32-2-1.18-2S493.5,159.83,493.5,161Zm1.06,6.61,5.35-9.41h.79l-5.35,9.41Zm8.2-2.93c0,1.92-1,2.88-2.18,2.88s-2.11-.91-2.13-2.74,1-2.85,2.2-2.85S502.76,162.93,502.76,164.66Zm-3.34.09c0,1.16.44,2,1.19,2s1.18-.86,1.18-2.07-.32-2-1.18-2S499.42,163.6,499.42,164.75Z" transform="translate(-4.32 -3.83)"/><path class="cls-2" d="M513.81,167.13a6.1,6.1,0,0,1-2.49.45,4.42,4.42,0,0,1-4.67-4.78,4.71,4.71,0,0,1,4.94-5,5.08,5.08,0,0,1,2.24.42l-.3,1a4.34,4.34,0,0,0-1.9-.39c-2.22,0-3.69,1.41-3.69,3.89,0,2.31,1.34,3.8,3.63,3.8a4.85,4.85,0,0,0,2-.4Z" transform="translate(-4.32 -3.83)"/><path class="cls-2" d="M516.55,158V162h4.57V158h1.23v9.44h-1.23V163h-4.57v4.43h-1.21V158Z" transform="translate(-4.32 -3.83)"/><path class="cls-2" d="M526.27,169.5v-1.45h-2.65v-.56L526.1,164h1.11v3.36H528v.68h-.78v1.45Zm0-3.79c0-.3,0-.6,0-.88h0a7,7,0,0,1-.47.83l-1.22,1.68v0h1.67Z" transform="translate(-4.32 -3.83)"/><path class="cls-2" d="M479.61,184.24v-.76l1-.94c2.33-2.21,3.38-3.39,3.39-4.76a1.62,1.62,0,0,0-1.8-1.78,3.08,3.08,0,0,0-1.93.77l-.4-.87a4,4,0,0,1,2.58-.92,2.56,2.56,0,0,1,2.79,2.65c0,1.68-1.22,3-3.14,4.89l-.73.67v0h4.09v1Z" transform="translate(-4.32 -3.83)"/><path class="cls-2" d="M492.84,179.59c0,3.09-1.15,4.8-3.16,4.8-1.78,0-3-1.66-3-4.68S488,175,489.83,175,492.84,176.69,492.84,179.59Zm-4.94.14c0,2.37.73,3.71,1.85,3.71s1.86-1.47,1.86-3.8-.58-3.71-1.85-3.71C488.68,175.93,487.9,177.25,487.9,179.73Z" transform="translate(-4.32 -3.83)"/><path class="cls-2" d="M498.08,177.7c0,1.92-1,2.87-2.19,2.87s-2.11-.91-2.13-2.75,1-2.84,2.2-2.84S498.08,176,498.08,177.7Zm-3.34.08c0,1.16.41,2.05,1.18,2.05s1.18-.87,1.18-2.08-.33-2-1.18-2S494.74,176.63,494.74,177.78Zm1.07,6.61,5.35-9.41h.78l-5.35,9.41Zm8.19-2.93c0,1.92-1,2.88-2.17,2.88s-2.12-.91-2.13-2.73,1-2.86,2.2-2.86S504,179.73,504,181.46Zm-3.33.09c0,1.16.43,2,1.19,2s1.17-.86,1.17-2.07-.32-2-1.17-2S500.67,180.4,500.67,181.55Z" transform="translate(-4.32 -3.83)"/><path class="cls-2" d="M515.06,183.93a6.13,6.13,0,0,1-2.49.45,4.41,4.41,0,0,1-4.67-4.78,4.7,4.7,0,0,1,4.93-5,5.16,5.16,0,0,1,2.24.42l-.29,1a4.35,4.35,0,0,0-1.91-.39c-2.21,0-3.68,1.41-3.68,3.89,0,2.31,1.33,3.8,3.63,3.8a4.85,4.85,0,0,0,2-.4Z" transform="translate(-4.32 -3.83)"/><path class="cls-2" d="M515.69,185.78l.88-.83c1.16-1,1.76-1.71,1.76-2.42a1,1,0,0,0-1.06-1,2.18,2.18,0,0,0-1.18.43l-.29-.63a2.74,2.74,0,0,1,1.71-.59,1.64,1.64,0,0,1,1.86,1.59c0,1.05-.8,1.82-1.86,2.76l-.44.39v0h2.4v.77h-3.78Z" transform="translate(-4.32 -3.83)"/><path class="cls-2" d="M522.15,174.8v3.95h4.57V174.8H528v9.44h-1.23v-4.43h-4.57v4.43h-1.21V174.8Z" transform="translate(-4.32 -3.83)"/><path class="cls-2" d="M532.74,181.51a5.53,5.53,0,0,0-.56,0,2.07,2.07,0,0,0-1.89,1.71h0a1.78,1.78,0,0,1,1.32-.57,1.64,1.64,0,0,1,1.71,1.75,1.91,1.91,0,0,1-1.94,2,2.09,2.09,0,0,1-2.07-2.34,3.26,3.26,0,0,1,.95-2.42,3,3,0,0,1,1.91-.8,2.28,2.28,0,0,1,.56,0Zm-.37,3a1,1,0,0,0-1.06-1.14,1.13,1.13,0,0,0-1,.63.56.56,0,0,0-.07.3c0,.75.39,1.38,1.13,1.38A1,1,0,0,0,532.37,184.48Z" transform="translate(-4.32 -3.83)"/><path class="cls-2" d="M482.28,193.08h0l-1.59.86-.23-.94,2-1.07h1.05V201h-1.19Z" transform="translate(-4.32 -3.83)"/><path class="cls-2" d="M492.84,196.39c0,3.09-1.15,4.8-3.16,4.8-1.78,0-3-1.66-3-4.68s1.32-4.73,3.17-4.73S492.84,193.49,492.84,196.39Zm-4.94.14c0,2.37.73,3.71,1.85,3.71s1.86-1.47,1.86-3.8-.58-3.71-1.85-3.71C488.68,192.73,487.9,194.05,487.9,196.53Z" transform="translate(-4.32 -3.83)"/><path class="cls-2" d="M498.08,194.5c0,1.92-1,2.87-2.19,2.87s-2.11-.91-2.13-2.75,1-2.84,2.2-2.84S498.08,192.76,498.08,194.5Zm-3.34.08c0,1.16.41,2,1.18,2s1.18-.87,1.18-2.08-.33-2-1.18-2S494.74,193.43,494.74,194.58Zm1.07,6.61,5.35-9.41h.78l-5.35,9.41Zm8.19-2.93c0,1.92-1,2.88-2.17,2.88s-2.12-.91-2.13-2.74,1-2.85,2.2-2.85S504,196.53,504,198.26Zm-3.33.09c0,1.16.43,2,1.19,2s1.17-.86,1.17-2.07-.32-2-1.17-2S500.67,197.2,500.67,198.35Z" transform="translate(-4.32 -3.83)"/><path class="cls-2" d="M515.06,200.73a6.13,6.13,0,0,1-2.49.45,4.41,4.41,0,0,1-4.67-4.78,4.7,4.7,0,0,1,4.93-5,5,5,0,0,1,2.24.42l-.29,1a4.35,4.35,0,0,0-1.91-.39c-2.21,0-3.68,1.41-3.68,3.89,0,2.31,1.33,3.8,3.63,3.8a4.85,4.85,0,0,0,2-.4Z" transform="translate(-4.32 -3.83)"/><path class="cls-2" d="M515.69,202.58l.88-.83c1.16-1.05,1.76-1.71,1.76-2.42a1,1,0,0,0-1.06-1,2.18,2.18,0,0,0-1.18.43l-.29-.63a2.74,2.74,0,0,1,1.71-.59,1.64,1.64,0,0,1,1.86,1.59c0,1-.8,1.82-1.86,2.76l-.44.39v0h2.4v.77h-3.78Z" transform="translate(-4.32 -3.83)"/><path class="cls-2" d="M522.15,191.6v4h4.57v-4H528V201h-1.23v-4.43h-4.57V201h-1.21V191.6Z" transform="translate(-4.32 -3.83)"/><path class="cls-2" d="M531.87,203.1v-1.45h-2.65v-.56l2.48-3.48h1.11V201h.78v.68h-.78v1.45Zm0-3.78c0-.31,0-.61,0-.89h0a7,7,0,0,1-.47.83l-1.22,1.68v0h1.67Z" transform="translate(-4.32 -3.83)"/></svg>