<svg id="Layer_2" data-name="Layer 2" xmlns="http://www.w3.org/2000/svg" viewBox="0 0 325 308"><defs><style>.cls-1,.cls-4,.cls-5,.cls-6,.cls-7,.cls-8,.cls-9{fill:none;stroke-miterlimit:10;}.cls-1{stroke:#231f20;}.cls-2,.cls-3{fill:#231f20;}.cls-3{font-size:21px;font-family:ArialMT, Arial;}.cls-4,.cls-5,.cls-6{stroke:#ed1c24;}.cls-4,.cls-5,.cls-6,.cls-7,.cls-8,.cls-9{stroke-width:1.5px;}.cls-5{stroke-dasharray:2.78 2.78;}.cls-6{stroke-dasharray:3.18 3.18;}.cls-7,.cls-8,.cls-9{stroke:#2e3192;}.cls-8{stroke-dasharray:9.27 9.27;}.cls-9{stroke-dasharray:8.96 8.96;}</style></defs><rect class="cls-1" x="84.83" y="48.17" width="78.67" height="212.67"/><rect class="cls-1" x="84.83" y="73.5" width="78.67" height="162"/><line class="cls-1" x1="84.83" y1="235.5" x2="163.5" y2="73.5"/><line class="cls-1" x1="163.5" y1="235.5" x2="84.83" y2="73.5"/><line class="cls-1" x1="174.25" y1="60.83" x2="260.12" y2="60.83"/><polygon class="cls-2" points="179.3 67.5 176.47 60.83 179.3 54.17 163.5 60.83 179.3 67.5"/><polygon class="cls-2" points="272.83 60.83 254.93 68.15 259.17 60.83 254.93 53.52 272.83 60.83"/><polyline class="cls-1" points="218.17 60.83 218.17 22.17 124.17 22.17 124.17 48.17"/><line class="cls-1" x1="203.5" y1="285.5" x2="258.12" y2="285.5"/><polygon class="cls-2" points="270.83 285.5 252.92 292.82 257.17 285.5 252.92 278.18 270.83 285.5"/><polyline class="cls-1" points="124.17 260.83 124.17 285.5 203.5 285.5 203.5 249 176.21 249"/><polygon class="cls-2" points="163.5 249 181.41 241.68 177.16 249 181.41 256.32 163.5 249"/><line class="cls-1" x1="33.17" y1="161.5" x2="72.12" y2="161.5"/><polygon class="cls-2" points="84.83 161.5 66.92 168.82 71.17 161.5 66.92 154.18 84.83 161.5"/><text class="cls-3" transform="translate(78 31.5)">1</text><text class="cls-3" transform="translate(207 97.5)">2</text><polyline class="cls-4" points="231.5 72 231.5 73.5 230 73.5"/><line class="cls-5" x1="227.22" y1="73.5" x2="206.39" y2="73.5"/><polyline class="cls-4" points="205 73.5 203.5 73.5 203.5 72"/><line class="cls-6" x1="203.5" y1="68.82" x2="203.5" y2="38.59"/><polyline class="cls-4" points="203.5 37 203.5 35.5 205 35.5"/><line class="cls-5" x1="207.78" y1="35.5" x2="228.61" y2="35.5"/><polyline class="cls-4" points="230 35.5 231.5 35.5 231.5 37"/><line class="cls-6" x1="231.5" y1="40.18" x2="231.5" y2="70.41"/><text class="cls-3" transform="translate(176.67 89.17)">R</text><text class="cls-3" transform="translate(285.16 68.83)">D</text><text class="cls-3" transform="translate(282.84 291.17)">W</text><text class="cls-3" transform="translate(170.17 43.5)">V</text><text class="cls-3" transform="translate(12.83 167.83)">F</text><polyline class="cls-7" points="244.17 292.33 244.17 296.83 239.67 296.83"/><line class="cls-8" x1="230.39" y1="296.83" x2="68.14" y2="296.83"/><polyline class="cls-7" points="63.5 296.83 59 296.83 59 292.33"/><line class="cls-9" x1="59" y1="283.38" x2="59" y2="19.15"/><polyline class="cls-7" points="59 14.67 59 10.17 63.5 10.17"/><line class="cls-8" x1="72.77" y1="10.17" x2="235.03" y2="10.17"/><polyline class="cls-7" points="239.67 10.17 244.17 10.17 244.17 14.67"/><line class="cls-9" x1="244.17" y1="23.62" x2="244.17" y2="287.85"/><rect class="cls-1" x="0.5" y="0.5" width="324" height="307"/></svg>