<?xml version="1.0" encoding="UTF-8"?>
<svg id="Layer_1" xmlns="http://www.w3.org/2000/svg" version="1.1" viewBox="0 0 495.1 334.4">
  <!-- Generator: Adobe Illustrator 30.0.0, SVG Export Plug-In . SVG Version: 2.1.1 Build 123)  -->
  <defs>
    <style>
      .st0 {
        fill: #231f20;
      }

      .st1 {
        fill: #fff;
      }

      .st2 {
        fill: none;
      }

      .st3 {
        fill: #010101;
      }
    </style>
  </defs>
  <g>
    <rect class="st1" x="138" y="61.9" width="69" height="210"/>
    <path class="st3" d="M207.5,272.4h-70V61.4h70v211ZM138.5,271.4h68V62.4h-68s0,209,0,209Z"/>
  </g>
  <g>
    <rect class="st3" x="2.1" y="170" width="127.1" height="1"/>
    <polygon class="st3" points="127.3 173.4 138.1 170.5 127.3 167.6 127.3 173.4"/>
  </g>
  <path class="st3" d="M334.4,44.8h-41c-.4,0-.8-.3-.8-.8V3c0-.4.3-.8.8-.8h41c.4,0,.8.3.8.8v41c0,.4-.4.8-.8.8ZM293.6,43.8h40.5V3.3h-40.5v40.5Z"/>
  <g>
    <polygon class="st3" points="173.1 62.5 172.1 62.5 172.1 23 284.2 23 284.2 24 173.1 24 173.1 62.5"/>
    <polygon class="st3" points="282.3 20.6 293.1 23.5 282.3 26.4 282.3 20.6"/>
  </g>
  <g>
    <rect class="st3" x="216" y="86" width="270.3" height="1"/>
    <polygon class="st3" points="217.9 89.4 207.1 86.5 217.9 83.6 217.9 89.4"/>
    <polygon class="st3" points="484.3 89.4 495.1 86.5 484.3 83.6 484.3 89.4"/>
  </g>
  <g>
    <polygon class="st3" points="378.6 77.6 377.6 77.6 377.6 24 334.6 24 334.6 23 378.6 23 378.6 77.6"/>
    <polygon class="st3" points="381 75.7 378.1 86.5 375.2 75.7 381 75.7"/>
  </g>
  <g>
    <polygon class="st3" points="486.2 311 172.1 311 172.1 272.5 173.1 272.5 173.1 310 486.2 310 486.2 311"/>
    <polygon class="st3" points="484.3 307.6 495.1 310.5 484.3 313.4 484.3 307.6"/>
  </g>
  <g>
    <rect class="st2" x="0" y="177.1" width="146.4" height="40.6"/>
    <path class="st0" d="M9.9,183.9c0,1.1-.1,2.1-.4,2.9-.2.8-.6,1.5-1,2-.4.5-.9.9-1.5,1.2-.6.3-1.2.4-1.8.4s-1.3-.1-1.8-.4-1.1-.7-1.5-1.2c-.4-.5-.8-1.2-1-2-.2-.8-.4-1.8-.4-2.9s.1-2.1.4-2.9c.2-.8.6-1.5,1-2.1.4-.5.9-.9,1.5-1.2.6-.3,1.2-.4,1.8-.4s1.3.1,1.8.4c.6.3,1.1.7,1.5,1.2s.8,1.2,1,2.1c.2.8.4,1.8.4,2.9ZM8.2,183.9c0-1,0-1.8-.2-2.5-.2-.7-.4-1.2-.7-1.6-.3-.4-.6-.7-1-.9-.4-.2-.7-.3-1.1-.3s-.8,0-1.1.3c-.4.2-.7.5-1,.9s-.5.9-.7,1.6c-.2.7-.2,1.5-.2,2.5s0,1.8.2,2.5.4,1.2.7,1.6c.3.4.6.7,1,.9.4.2.7.3,1.1.3s.8,0,1.1-.3c.4-.2.7-.5,1-.9.3-.4.5-.9.7-1.6s.2-1.5.2-2.5Z"/>
    <path class="st0" d="M11.2,189.4c0-.2,0-.3,0-.4s.1-.3.2-.4c0-.1.2-.2.4-.2.1,0,.3,0,.4,0s.3,0,.4,0c.1,0,.3.1.4.2s.2.2.2.4c0,.1,0,.3,0,.4s0,.3,0,.4c0,.1-.1.3-.2.4s-.2.2-.4.2c-.1,0-.3,0-.4,0s-.3,0-.4,0c-.1,0-.3-.1-.4-.2,0-.1-.2-.2-.2-.4s0-.3,0-.4Z"/>
    <path class="st0" d="M23.1,178.2c0,.2,0,.4-.2.6s-.4.2-.7.2h-4l-.6,3.4c.7-.1,1.3-.2,1.9-.2s1.3,0,1.8.3.9.5,1.3.8c.3.3.6.8.8,1.2.2.5.3,1,.3,1.5s-.1,1.3-.4,1.9c-.2.6-.6,1-1,1.4s-.9.7-1.5.9c-.6.2-1.2.3-1.8.3s-.7,0-1.1-.1c-.3,0-.7-.2-1-.3-.3-.1-.6-.3-.8-.4-.3-.2-.5-.3-.7-.5l.5-.7c.1-.2.3-.2.4-.2s.2,0,.4.1.3.2.6.3c.2.1.5.2.8.3s.6.1,1,.1.9,0,1.2-.2c.4-.1.7-.3.9-.6.3-.3.5-.6.6-1,.1-.4.2-.8.2-1.2s0-.8-.2-1.1c-.1-.3-.3-.6-.5-.8-.2-.2-.5-.4-.9-.5-.4-.1-.8-.2-1.2-.2s-.7,0-1,0c-.3,0-.7.1-1.1.3l-1-.3,1-6h6.1v.7Z"/>
    <path class="st0" d="M29.7,190.3v-12.9h4.1c.8,0,1.5,0,2,.2.6.2,1,.4,1.4.7.4.3.6.6.8,1.1.2.4.3.9.3,1.4s0,.6-.1.9c0,.3-.2.6-.5.8s-.5.5-.8.7c-.3.2-.7.4-1.1.5.9.2,1.7.5,2.1,1,.5.5.7,1.1.7,1.9s-.1,1-.3,1.5c-.2.4-.5.8-.9,1.2-.4.3-.9.6-1.4.8-.6.2-1.2.3-1.9.3h-4.6ZM31.5,183.2h2.3c.5,0,.9,0,1.3-.2s.7-.3.9-.5c.2-.2.4-.4.5-.7.1-.3.2-.6.2-.9,0-.8-.2-1.3-.7-1.7-.5-.4-1.2-.5-2.1-.5h-2.4v4.4ZM31.5,184.5v4.5h2.8c.5,0,.9,0,1.3-.2.4-.1.7-.3.9-.5s.4-.5.5-.7.2-.6.2-.9c0-.7-.2-1.2-.7-1.6s-1.2-.6-2.1-.6h-2.8Z"/>
    <path class="st0" d="M44.7,181.1c.5,0,1.1,0,1.5.3.5.2.9.4,1.2.8.3.3.6.8.8,1.3.2.5.3,1.1.3,1.7s0,.4,0,.5c0,0-.2.1-.3.1h-6.1c0,.6,0,1.1.2,1.5s.3.8.6,1.1.6.5.9.6c.3.1.7.2,1.2.2s.7,0,1-.1c.3,0,.5-.2.8-.3.2-.1.4-.2.5-.3s.3-.1.4-.1.2,0,.3.2l.4.6c-.2.2-.4.4-.7.6-.3.2-.6.3-.9.4-.3.1-.6.2-1,.3-.3,0-.7,0-1,0-.6,0-1.2-.1-1.7-.3-.5-.2-1-.5-1.4-.9-.4-.4-.7-.9-.9-1.5-.2-.6-.3-1.3-.3-2.1s0-1.2.3-1.8.5-1,.8-1.4c.4-.4.8-.7,1.3-1,.5-.2,1.1-.3,1.8-.3ZM44.8,182.3c-.8,0-1.4.2-1.8.7-.4.4-.7,1.1-.8,1.9h5c0-.4,0-.7-.2-1-.1-.3-.3-.6-.4-.8-.2-.2-.4-.4-.7-.5-.3-.1-.6-.2-1-.2Z"/>
    <path class="st0" d="M50.6,190.3v-9.1h1c.2,0,.4.1.4.3v1c.5-.4,1-.8,1.5-1.1.5-.3,1.1-.4,1.7-.4s.9,0,1.3.2c.4.2.7.4,1,.7.3.3.4.7.6,1.1.1.4.2.9.2,1.4v5.8h-1.6v-5.8c0-.7-.2-1.2-.5-1.6s-.8-.6-1.4-.6-.9.1-1.3.3c-.4.2-.8.5-1.1.9v6.7h-1.6Z"/>
    <path class="st0" d="M66.9,181.9c0,.1,0,.2,0,.3,0,.1,0,.2-.2.3l-4.9,6.6h5v1.3h-6.9v-.7c0,0,0-.2,0-.3,0-.1,0-.2.2-.3l5-6.6h-4.9v-1.3h6.8v.7Z"/>
    <path class="st0" d="M72.5,181.1c.5,0,1.1,0,1.5.3.5.2.9.4,1.2.8.3.3.6.8.8,1.3.2.5.3,1.1.3,1.7s0,.4,0,.5c0,0-.2.1-.3.1h-6.1c0,.6,0,1.1.2,1.5s.3.8.6,1.1.6.5.9.6c.3.1.7.2,1.2.2s.7,0,1-.1c.3,0,.5-.2.8-.3.2-.1.4-.2.5-.3s.3-.1.4-.1.2,0,.3.2l.4.6c-.2.2-.4.4-.7.6-.3.2-.6.3-.9.4-.3.1-.6.2-1,.3-.3,0-.7,0-1,0-.6,0-1.2-.1-1.7-.3-.5-.2-1-.5-1.4-.9-.4-.4-.7-.9-.9-1.5-.2-.6-.3-1.3-.3-2.1s0-1.2.3-1.8.5-1,.8-1.4c.4-.4.8-.7,1.3-1,.5-.2,1.1-.3,1.8-.3ZM72.5,182.3c-.8,0-1.4.2-1.8.7-.4.4-.7,1.1-.8,1.9h5c0-.4,0-.7-.2-1-.1-.3-.3-.6-.4-.8-.2-.2-.4-.4-.7-.5-.3-.1-.6-.2-1-.2Z"/>
    <path class="st0" d="M81.9,181.1c.5,0,1.1,0,1.5.3.5.2.9.4,1.2.8.3.3.6.8.8,1.3.2.5.3,1.1.3,1.7s0,.4,0,.5c0,0-.2.1-.3.1h-6.1c0,.6,0,1.1.2,1.5s.3.8.6,1.1.6.5.9.6c.3.1.7.2,1.2.2s.7,0,1-.1c.3,0,.5-.2.8-.3.2-.1.4-.2.5-.3s.3-.1.4-.1.2,0,.3.2l.4.6c-.2.2-.4.4-.7.6-.3.2-.6.3-.9.4-.3.1-.6.2-1,.3-.3,0-.7,0-1,0-.6,0-1.2-.1-1.7-.3-.5-.2-1-.5-1.4-.9-.4-.4-.7-.9-.9-1.5-.2-.6-.3-1.3-.3-2.1s0-1.2.3-1.8.5-1,.8-1.4c.4-.4.8-.7,1.3-1,.5-.2,1.1-.3,1.8-.3ZM82,182.3c-.8,0-1.4.2-1.8.7-.4.4-.7,1.1-.8,1.9h5c0-.4,0-.7-.2-1-.1-.3-.3-.6-.4-.8-.2-.2-.4-.4-.7-.5-.3-.1-.6-.2-1-.2Z"/>
    <path class="st0" d="M87.7,190.3v-9.1h1c.2,0,.4.1.4.3v1c.5-.4,1-.8,1.5-1.1.5-.3,1.1-.4,1.7-.4s.9,0,1.3.2c.4.2.7.4,1,.7.3.3.4.7.6,1.1.1.4.2.9.2,1.4v5.8h-1.6v-5.8c0-.7-.2-1.2-.5-1.6s-.8-.6-1.4-.6-.9.1-1.3.3c-.4.2-.8.5-1.1.9v6.7h-1.6Z"/>
    <path class="st0" d="M102.5,184.7c0,1.3.2,2.5.5,3.7.3,1.2.8,2.4,1.4,3.5,0,0,0,.1,0,.2,0,0,0,0,0,.1,0,0,0,.2,0,.2,0,0,0,.1-.2.1l-.7.4c-.5-.7-.8-1.4-1.1-2.1-.3-.7-.6-1.4-.8-2-.2-.7-.3-1.4-.4-2.1,0-.7-.1-1.4-.1-2.1s0-1.4.1-2.1c0-.7.2-1.4.4-2.1.2-.7.4-1.4.8-2,.3-.7.7-1.4,1.1-2.1l.7.4c0,0,.1,0,.2.1,0,0,0,.1,0,.2s0,.2,0,.3c-.6,1.1-1.1,2.2-1.4,3.5-.3,1.2-.5,2.5-.5,3.7Z"/>
    <path class="st0" d="M106.9,190.3v-12.9h4.1c.8,0,1.5,0,2,.2.6.2,1,.4,1.4.7.4.3.6.6.8,1.1.2.4.3.9.3,1.4s0,.6-.1.9c0,.3-.2.6-.5.8s-.5.5-.8.7c-.3.2-.7.4-1.1.5.9.2,1.7.5,2.1,1,.5.5.7,1.1.7,1.9s-.1,1-.3,1.5c-.2.4-.5.8-.9,1.2-.4.3-.9.6-1.4.8-.6.2-1.2.3-1.9.3h-4.6ZM108.6,183.2h2.3c.5,0,.9,0,1.3-.2s.7-.3.9-.5c.2-.2.4-.4.5-.7.1-.3.2-.6.2-.9,0-.8-.2-1.3-.7-1.7-.5-.4-1.2-.5-2.1-.5h-2.4v4.4ZM108.6,184.5v4.5h2.8c.5,0,.9,0,1.3-.2.4-.1.7-.3.9-.5s.4-.5.5-.7.2-.6.2-.9c0-.7-.2-1.2-.7-1.6s-1.2-.6-2.1-.6h-2.8Z"/>
    <path class="st0" d="M124.6,181.9c0,.1,0,.2,0,.3,0,.1,0,.2-.2.3l-4.9,6.6h5v1.3h-6.9v-.7c0,0,0-.2,0-.3,0-.1,0-.2.2-.3l5-6.6h-4.9v-1.3h6.8v.7Z"/>
    <path class="st0" d="M128,184.7c0-1.3-.2-2.5-.5-3.7-.3-1.2-.8-2.4-1.4-3.5,0-.1,0-.2,0-.3s0-.2,0-.2c0,0,0-.1.2-.1l.7-.4c.4.7.8,1.4,1.1,2.1s.6,1.4.8,2c.2.7.3,1.4.4,2.1,0,.7.1,1.4.1,2.1s0,1.4-.1,2.1c0,.7-.2,1.4-.4,2.1-.2.7-.5,1.4-.8,2s-.7,1.4-1.1,2.1l-.7-.4c0,0-.1,0-.2-.1s0-.1,0-.2,0,0,0-.1,0-.1,0-.2c.6-1.1,1.1-2.3,1.4-3.5s.5-2.5.5-3.7Z"/>
    <path class="st0" d="M9.9,205.5c0,1.1-.1,2.1-.4,2.9-.2.8-.6,1.5-1,2-.4.5-.9.9-1.5,1.2-.6.3-1.2.4-1.8.4s-1.3-.1-1.8-.4c-.6-.3-1.1-.7-1.5-1.2-.4-.5-.8-1.2-1-2-.2-.8-.4-1.8-.4-2.9s.1-2.1.4-2.9c.2-.8.6-1.5,1-2.1.4-.5.9-.9,1.5-1.2s1.2-.4,1.8-.4,1.3.1,1.8.4c.6.3,1.1.7,1.5,1.2s.8,1.2,1,2.1c.2.8.4,1.8.4,2.9ZM8.2,205.5c0-1,0-1.8-.2-2.5-.2-.7-.4-1.2-.7-1.6-.3-.4-.6-.7-1-.9-.4-.2-.7-.3-1.1-.3s-.8,0-1.1.3c-.4.2-.7.5-1,.9s-.5.9-.7,1.6c-.2.7-.2,1.5-.2,2.5s0,1.8.2,2.5.4,1.2.7,1.6.6.7,1,.9c.4.2.7.3,1.1.3s.8,0,1.1-.3c.4-.2.7-.5,1-.9.3-.4.5-.9.7-1.6s.2-1.5.2-2.5Z"/>
    <path class="st0" d="M11.2,211c0-.2,0-.3,0-.4,0-.1.1-.3.2-.4,0-.1.2-.2.4-.2.1,0,.3,0,.4,0s.3,0,.4,0c.1,0,.3.1.4.2.1.1.2.2.2.4,0,.1,0,.3,0,.4s0,.3,0,.4c0,.1-.1.3-.2.4-.1.1-.2.2-.4.2-.1,0-.3,0-.4,0s-.3,0-.4,0c-.1,0-.3-.1-.4-.2,0-.1-.2-.2-.2-.4,0-.1,0-.3,0-.4Z"/>
    <path class="st0" d="M23.1,199.8c0,.2,0,.4-.2.6-.1.1-.4.2-.7.2h-4l-.6,3.4c.7-.1,1.3-.2,1.9-.2s1.3,0,1.8.3c.5.2.9.5,1.3.8.3.3.6.8.8,1.2.2.5.3,1,.3,1.5s-.1,1.3-.4,1.9c-.2.6-.6,1-1,1.4-.4.4-.9.7-1.5.9-.6.2-1.2.3-1.8.3s-.7,0-1.1-.1c-.3,0-.7-.2-1-.3-.3-.1-.6-.3-.8-.4-.3-.2-.5-.3-.7-.5l.5-.7c.1-.2.3-.2.4-.2s.2,0,.4.1c.2,0,.3.2.6.3.2.1.5.2.8.3.3,0,.6.1,1,.1s.9,0,1.2-.2c.4-.1.7-.3.9-.6.3-.3.5-.6.6-1,.1-.4.2-.8.2-1.3s0-.8-.2-1.1c-.1-.3-.3-.6-.5-.8-.2-.2-.5-.4-.9-.5-.4-.1-.8-.2-1.2-.2s-.7,0-1,0c-.3,0-.7.1-1.1.3l-1-.3,1-6h6.1v.7Z"/>
    <path class="st0" d="M38.5,199.1v1.5h-4.2v11.4h-1.7v-11.4h-4.2v-1.5h10.1Z"/>
    <path class="st0" d="M41.9,202.7c.7,0,1.3.1,1.8.3.5.2,1,.5,1.4.9s.7.9.9,1.5c.2.6.3,1.2.3,1.9s-.1,1.4-.3,1.9c-.2.6-.5,1.1-.9,1.5s-.8.7-1.4.9c-.5.2-1.1.3-1.8.3s-1.3-.1-1.8-.3c-.5-.2-1-.5-1.4-.9s-.7-.9-.9-1.5c-.2-.6-.3-1.2-.3-1.9s.1-1.4.3-1.9c.2-.6.5-1.1.9-1.5s.8-.7,1.4-.9c.5-.2,1.1-.3,1.8-.3ZM41.9,210.8c.9,0,1.6-.3,2-.9.4-.6.7-1.4.7-2.5s-.2-1.9-.7-2.5c-.4-.6-1.1-.9-2-.9s-.9,0-1.2.2c-.3.2-.6.4-.8.7-.2.3-.4.7-.5,1.1-.1.4-.2.9-.2,1.5s0,1,.2,1.4c.1.4.3.8.5,1.1s.5.5.8.7c.3.2.7.2,1.2.2Z"/>
    <path class="st0" d="M50,198.7v13.3h-1.6v-13.3h1.6Z"/>
    <path class="st0" d="M54.2,202.8v5.8c0,.7.2,1.2.5,1.6.3.4.8.6,1.4.6s.9-.1,1.3-.3c.4-.2.8-.5,1.1-.9v-6.7h1.6v9.1h-1c-.2,0-.4-.1-.4-.3v-1c-.5.4-1,.8-1.5,1.1-.5.3-1.1.4-1.7.4s-.9,0-1.3-.2c-.4-.2-.7-.4-1-.7-.3-.3-.5-.7-.6-1.1-.1-.4-.2-.9-.2-1.4v-5.8h1.6Z"/>
    <path class="st0" d="M66.4,202.7c.5,0,1.1,0,1.5.3s.9.4,1.2.8c.3.3.6.8.8,1.3s.3,1.1.3,1.7,0,.4,0,.5c0,0-.2.1-.3.1h-6.1c0,.6,0,1.1.2,1.5s.3.8.6,1.1.6.5.9.6c.3.1.7.2,1.2.2s.7,0,1-.1c.3,0,.5-.2.8-.3s.4-.2.5-.3c.1,0,.3-.1.4-.1s.2,0,.3.2l.4.6c-.2.2-.4.4-.7.6-.3.2-.6.3-.9.4-.3.1-.6.2-1,.3-.3,0-.7,0-1,0-.6,0-1.2-.1-1.7-.3-.5-.2-1-.5-1.4-.9s-.7-.9-.9-1.5c-.2-.6-.3-1.3-.3-2.1s0-1.2.3-1.8c.2-.6.5-1,.8-1.4.4-.4.8-.7,1.3-1,.5-.2,1.1-.3,1.8-.3ZM66.5,203.9c-.8,0-1.4.2-1.8.7-.4.4-.7,1.1-.8,1.9h5c0-.4,0-.7-.2-1s-.3-.6-.4-.8c-.2-.2-.4-.4-.7-.5-.3-.1-.6-.2-1-.2Z"/>
    <path class="st0" d="M75.9,202.7c.5,0,1.1,0,1.5.3s.9.4,1.2.8c.3.3.6.8.8,1.3s.3,1.1.3,1.7,0,.4,0,.5c0,0-.2.1-.3.1h-6.1c0,.6,0,1.1.2,1.5s.3.8.6,1.1.6.5.9.6c.3.1.7.2,1.2.2s.7,0,1-.1c.3,0,.5-.2.8-.3s.4-.2.5-.3c.1,0,.3-.1.4-.1s.2,0,.3.2l.4.6c-.2.2-.4.4-.7.6-.3.2-.6.3-.9.4-.3.1-.6.2-1,.3-.3,0-.7,0-1,0-.6,0-1.2-.1-1.7-.3-.5-.2-1-.5-1.4-.9s-.7-.9-.9-1.5c-.2-.6-.3-1.3-.3-2.1s0-1.2.3-1.8c.2-.6.5-1,.8-1.4.4-.4.8-.7,1.3-1,.5-.2,1.1-.3,1.8-.3ZM75.9,203.9c-.8,0-1.4.2-1.8.7-.4.4-.7,1.1-.8,1.9h5c0-.4,0-.7-.2-1s-.3-.6-.4-.8c-.2-.2-.4-.4-.7-.5-.3-.1-.6-.2-1-.2Z"/>
    <path class="st0" d="M81.7,211.9v-9.1h1c.2,0,.4.1.4.3v1c.5-.4,1-.8,1.5-1.1.5-.3,1.1-.4,1.7-.4s.9,0,1.3.2c.4.2.7.4,1,.7.3.3.4.7.6,1.1.1.4.2.9.2,1.4v5.8h-1.6v-5.8c0-.7-.2-1.2-.5-1.6s-.8-.6-1.4-.6-.9.1-1.3.3c-.4.2-.8.5-1.1.9v6.7h-1.6Z"/>
    <path class="st0" d="M103.4,206.3c0,1.3.2,2.5.5,3.7.3,1.2.8,2.4,1.4,3.5,0,0,0,.1,0,.2s0,0,0,.1c0,0,0,.2,0,.2,0,0,0,.1-.2.1l-.7.4c-.5-.7-.8-1.4-1.1-2.1-.3-.7-.6-1.4-.8-2-.2-.7-.3-1.4-.4-2.1,0-.7-.1-1.4-.1-2.1s0-1.4.1-2.1c0-.7.2-1.4.4-2.1.2-.7.4-1.4.8-2,.3-.7.7-1.4,1.1-2.1l.7.4c0,0,.1,0,.2.1,0,0,0,.1,0,.2s0,.2,0,.3c-.6,1.1-1.1,2.2-1.4,3.5-.3,1.2-.5,2.5-.5,3.7Z"/>
    <path class="st0" d="M116.6,199.1v1.5h-4.2v11.4h-1.7v-11.4h-4.2v-1.5h10.1Z"/>
    <path class="st0" d="M120,202.7c.7,0,1.3.1,1.8.3.5.2,1,.5,1.4.9s.7.9.9,1.5c.2.6.3,1.2.3,1.9s-.1,1.4-.3,1.9c-.2.6-.5,1.1-.9,1.5s-.8.7-1.4.9c-.5.2-1.1.3-1.8.3s-1.3-.1-1.8-.3c-.5-.2-1-.5-1.4-.9s-.7-.9-.9-1.5c-.2-.6-.3-1.2-.3-1.9s.1-1.4.3-1.9c.2-.6.5-1.1.9-1.5s.8-.7,1.4-.9c.5-.2,1.1-.3,1.8-.3ZM120,210.8c.9,0,1.6-.3,2-.9.4-.6.7-1.4.7-2.5s-.2-1.9-.7-2.5c-.4-.6-1.1-.9-2-.9s-.9,0-1.2.2c-.3.2-.6.4-.8.7-.2.3-.4.7-.5,1.1-.1.4-.2.9-.2,1.5s0,1,.2,1.4c.1.4.3.8.5,1.1s.5.5.8.7c.3.2.7.2,1.2.2Z"/>
    <path class="st0" d="M128.1,198.7v13.3h-1.6v-13.3h1.6Z"/>
    <path class="st0" d="M132.2,206.3c0-1.3-.2-2.5-.5-3.7-.3-1.2-.8-2.4-1.4-3.5,0-.1,0-.2,0-.3s0-.2,0-.2c0,0,0-.1.2-.1l.7-.4c.4.7.8,1.4,1.1,2.1.3.7.6,1.4.8,2,.2.7.3,1.4.4,2.1,0,.7.1,1.4.1,2.1s0,1.4-.1,2.1c0,.7-.2,1.4-.4,2.1-.2.7-.5,1.4-.8,2s-.7,1.4-1.1,2.1l-.7-.4c0,0-.1,0-.2-.1,0,0,0-.1,0-.2s0,0,0-.1c0,0,0-.1,0-.2.6-1.1,1.1-2.3,1.4-3.5s.5-2.5.5-3.7Z"/>
  </g>
  <g>
    <path class="st0" d="M10.1,147.8v1.4H3.9v4.5h5.3v1.4H3.9v5.5h-1.8v-12.9h7.9Z"/>
    <path class="st0" d="M15.6,152.5h7.7v1.2h-7.7v-1.2ZM15.6,155.5h7.7v1.2h-7.7v-1.2Z"/>
    <path class="st0" d="M30.7,159.5h2.8v-8.8c0-.3,0-.5,0-.8l-2.3,2c0,0-.1,0-.2.1,0,0-.1,0-.2,0,0,0-.2,0-.2,0,0,0-.1,0-.2-.1l-.5-.7,3.8-3.3h1.3v11.7h2.5v1.2h-6.9v-1.2Z"/>
    <path class="st0" d="M48.5,154.3c0,1.1-.1,2.1-.4,2.9-.2.8-.6,1.5-1,2s-.9.9-1.5,1.2c-.6.3-1.2.4-1.8.4s-1.3-.1-1.8-.4c-.6-.3-1.1-.7-1.5-1.2-.4-.5-.8-1.2-1-2-.2-.8-.4-1.8-.4-2.9s.1-2.1.4-2.9c.2-.8.6-1.5,1-2.1.4-.5.9-.9,1.5-1.2s1.2-.4,1.8-.4,1.3.1,1.8.4c.6.3,1.1.7,1.5,1.2s.8,1.2,1,2.1c.2.8.4,1.8.4,2.9ZM46.8,154.3c0-1,0-1.8-.2-2.5s-.4-1.2-.7-1.6c-.3-.4-.6-.7-1-.9-.4-.2-.7-.3-1.1-.3s-.8,0-1.1.3c-.4.2-.7.5-1,.9-.3.4-.5.9-.7,1.6s-.2,1.5-.2,2.5,0,1.8.2,2.5c.2.7.4,1.2.7,1.6s.6.7,1,.9c.4.2.7.3,1.1.3s.8,0,1.1-.3c.4-.2.7-.5,1-.9.3-.4.5-.9.7-1.6.2-.7.2-1.5.2-2.5Z"/>
    <path class="st0" d="M58.9,154.3c0,1.1-.1,2.1-.4,2.9-.2.8-.6,1.5-1,2s-.9.9-1.5,1.2c-.6.3-1.2.4-1.8.4s-1.3-.1-1.8-.4c-.6-.3-1.1-.7-1.5-1.2-.4-.5-.8-1.2-1-2-.2-.8-.4-1.8-.4-2.9s.1-2.1.4-2.9c.2-.8.6-1.5,1-2.1.4-.5.9-.9,1.5-1.2s1.2-.4,1.8-.4,1.3.1,1.8.4c.6.3,1.1.7,1.5,1.2s.8,1.2,1,2.1c.2.8.4,1.8.4,2.9ZM57.2,154.3c0-1,0-1.8-.2-2.5s-.4-1.2-.7-1.6c-.3-.4-.6-.7-1-.9-.4-.2-.7-.3-1.1-.3s-.8,0-1.1.3c-.4.2-.7.5-1,.9-.3.4-.5.9-.7,1.6s-.2,1.5-.2,2.5,0,1.8.2,2.5c.2.7.4,1.2.7,1.6s.6.7,1,.9c.4.2.7.3,1.1.3s.8,0,1.1-.3c.4-.2.7-.5,1-.9.3-.4.5-.9.7-1.6.2-.7.2-1.5.2-2.5Z"/>
    <path class="st0" d="M69.3,154.3c0,1.1-.1,2.1-.4,2.9-.2.8-.6,1.5-1,2s-.9.9-1.5,1.2c-.6.3-1.2.4-1.8.4s-1.3-.1-1.8-.4c-.6-.3-1.1-.7-1.5-1.2-.4-.5-.8-1.2-1-2-.2-.8-.4-1.8-.4-2.9s.1-2.1.4-2.9c.2-.8.6-1.5,1-2.1.4-.5.9-.9,1.5-1.2s1.2-.4,1.8-.4,1.3.1,1.8.4c.6.3,1.1.7,1.5,1.2s.8,1.2,1,2.1c.2.8.4,1.8.4,2.9ZM67.7,154.3c0-1,0-1.8-.2-2.5s-.4-1.2-.7-1.6c-.3-.4-.6-.7-1-.9-.4-.2-.7-.3-1.1-.3s-.8,0-1.1.3c-.4.2-.7.5-1,.9-.3.4-.5.9-.7,1.6s-.2,1.5-.2,2.5,0,1.8.2,2.5c.2.7.4,1.2.7,1.6s.6.7,1,.9c.4.2.7.3,1.1.3s.8,0,1.1-.3c.4-.2.7-.5,1-.9.3-.4.5-.9.7-1.6.2-.7.2-1.5.2-2.5Z"/>
    <path class="st0" d="M76.3,147.4v7.8h.4c.1,0,.2,0,.3,0s.2-.1.3-.2l2.9-3.1c0,0,.2-.2.3-.2s.2,0,.4,0h1.5l-3.4,3.6c0,.1-.2.2-.2.3s-.2.1-.3.2c.1,0,.2.2.3.2,0,0,.2.2.2.3l3.6,4.5h-1.4c-.1,0-.2,0-.3,0,0,0-.2-.1-.3-.2l-3-3.7c0-.1-.2-.2-.3-.2s-.2,0-.4,0h-.5v4.4h-1.6v-13.3h1.6Z"/>
    <path class="st0" d="M87.2,151.4c.4,0,.8,0,1.1.1.3,0,.7.2.9.4h2.5v.6c0,.2-.1.3-.4.4h-1c.2.5.3,1,.3,1.4s0,.8-.3,1.2c-.2.4-.4.7-.7.9-.3.3-.7.5-1.1.6-.4.1-.9.2-1.4.2s-.8,0-1.2-.2c-.2.1-.3.3-.4.4,0,.1-.1.3-.1.4,0,.2,0,.4.3.5.2.1.4.2.7.2.3,0,.6,0,1,0h1.1c.4,0,.8,0,1.1.1.4,0,.7.2,1,.3s.5.4.7.6c.2.3.3.6.3,1s0,.8-.3,1.1c-.2.4-.5.7-.8,1-.4.3-.8.5-1.3.7-.5.2-1.1.3-1.8.3s-1.2,0-1.8-.2c-.5-.1-.9-.3-1.2-.5s-.6-.5-.7-.8c-.2-.3-.2-.6-.2-.9,0-.5.1-.8.4-1.1.3-.3.7-.6,1.2-.8-.3-.1-.5-.3-.6-.5s-.2-.5-.2-.8,0-.3,0-.4c0-.1.1-.3.2-.4s.2-.3.4-.4c.1-.1.3-.2.5-.3-.5-.3-.8-.6-1.1-1-.3-.4-.4-.9-.4-1.5s0-.8.3-1.2c.2-.4.4-.7.7-.9.3-.3.7-.5,1.1-.6.4-.1.9-.2,1.4-.2ZM90,161.2c0-.2,0-.4-.2-.6s-.3-.2-.5-.3c-.2,0-.5-.1-.7-.2-.3,0-.6,0-.9,0h-1c-.3,0-.6,0-.9-.1-.3.2-.6.4-.8.6-.2.2-.3.5-.3.8s0,.4.2.6c.1.2.3.3.5.5.2.1.5.2.8.3.3,0,.7.1,1.2.1s.8,0,1.2-.1.6-.2.9-.3c.2-.1.4-.3.5-.5.1-.2.2-.4.2-.7ZM87.2,156.2c.3,0,.6,0,.9-.1.2,0,.5-.2.6-.4.2-.2.3-.4.4-.6,0-.2.1-.5.1-.7,0-.6-.2-1-.5-1.3-.3-.3-.8-.5-1.5-.5s-1.1.2-1.5.5c-.3.3-.5.8-.5,1.3s0,.5.1.7c0,.2.2.4.4.6.2.2.4.3.6.4.2,0,.5.1.8.1Z"/>
    <path class="st0" d="M93.4,160.9c0,.2-.2.4-.4.5-.2.1-.3.2-.5.2h-.7l5.4-13.5c0-.2.2-.3.3-.4.1-.1.3-.2.5-.2h.7l-5.4,13.4Z"/>
    <path class="st0" d="M100,160.7v-13.3h1.6v5.4c.4-.4.8-.7,1.3-1,.5-.2,1-.4,1.6-.4s.9,0,1.3.2c.4.2.7.4,1,.7.3.3.4.7.6,1.1.1.4.2.9.2,1.4v5.8h-1.6v-5.8c0-.7-.2-1.2-.5-1.6-.3-.4-.8-.6-1.4-.6s-.9.1-1.3.3c-.4.2-.8.5-1.1.9v6.7h-1.6Z"/>
  </g>
  <line class="st2" x1="31.7" y1="172.3" x2="31.7" y2="172.3"/>
  <g>
    <path class="st0" d="M268.7,74.7c0,1.1-.1,2.1-.4,2.9-.2.8-.6,1.5-1,2s-.9.9-1.5,1.2c-.6.3-1.2.4-1.8.4s-1.3-.1-1.8-.4c-.6-.3-1.1-.7-1.5-1.2s-.8-1.2-1-2c-.2-.8-.4-1.8-.4-2.9s.1-2.1.4-2.9c.2-.8.6-1.5,1-2.1s.9-.9,1.5-1.2c.6-.3,1.2-.4,1.8-.4s1.3.1,1.8.4c.6.3,1.1.7,1.5,1.2s.8,1.2,1,2.1c.2.8.4,1.8.4,2.9ZM267.1,74.7c0-1,0-1.8-.2-2.5s-.4-1.2-.7-1.6c-.3-.4-.6-.7-1-.9-.4-.2-.7-.3-1.1-.3s-.8,0-1.1.3c-.4.2-.7.5-1,.9-.3.4-.5.9-.7,1.6s-.2,1.5-.2,2.5,0,1.8.2,2.5c.2.7.4,1.2.7,1.6.3.4.6.7,1,.9.4.2.7.3,1.1.3s.8,0,1.1-.3c.4-.2.7-.5,1-.9.3-.4.5-.9.7-1.6.2-.7.2-1.5.2-2.5Z"/>
    <path class="st0" d="M270.1,80.1c0-.2,0-.3,0-.4,0-.1.1-.3.2-.4,0-.1.2-.2.4-.2.1,0,.3,0,.4,0s.3,0,.4,0c.1,0,.3.1.4.2.1.1.2.2.2.4,0,.1,0,.3,0,.4s0,.3,0,.4c0,.1-.1.3-.2.4-.1.1-.2.2-.4.2-.1,0-.3,0-.4,0s-.3,0-.4,0c-.1,0-.3-.1-.4-.2,0-.1-.2-.2-.2-.4,0-.1,0-.3,0-.4Z"/>
    <path class="st0" d="M283,74.7c0,1.1-.1,2.1-.4,2.9-.2.8-.6,1.5-1,2s-.9.9-1.5,1.2c-.6.3-1.2.4-1.8.4s-1.3-.1-1.8-.4c-.6-.3-1.1-.7-1.5-1.2s-.8-1.2-1-2c-.2-.8-.4-1.8-.4-2.9s.1-2.1.4-2.9c.2-.8.6-1.5,1-2.1s.9-.9,1.5-1.2c.6-.3,1.2-.4,1.8-.4s1.3.1,1.8.4c.6.3,1.1.7,1.5,1.2s.8,1.2,1,2.1c.2.8.4,1.8.4,2.9ZM281.3,74.7c0-1,0-1.8-.2-2.5s-.4-1.2-.7-1.6c-.3-.4-.6-.7-1-.9-.4-.2-.7-.3-1.1-.3s-.8,0-1.1.3c-.4.2-.7.5-1,.9-.3.4-.5.9-.7,1.6s-.2,1.5-.2,2.5,0,1.8.2,2.5c.2.7.4,1.2.7,1.6.3.4.6.7,1,.9.4.2.7.3,1.1.3s.8,0,1.1-.3c.4-.2.7-.5,1-.9.3-.4.5-.9.7-1.6.2-.7.2-1.5.2-2.5Z"/>
    <path class="st0" d="M292.3,68.9c0,.2,0,.4-.2.6-.1.1-.4.2-.7.2h-4.1l-.6,3.4c.7-.1,1.3-.2,1.9-.2s1.3,0,1.8.3c.5.2.9.5,1.3.8.3.3.6.8.8,1.2s.3,1,.3,1.5-.1,1.3-.4,1.9c-.2.6-.6,1-1,1.4-.4.4-.9.7-1.5.9-.6.2-1.2.3-1.8.3s-.7,0-1.1-.1c-.3,0-.7-.2-1-.3s-.6-.3-.8-.4c-.3-.2-.5-.3-.7-.5l.5-.7c.1-.2.3-.2.4-.2s.2,0,.4.1c.2,0,.3.2.6.3.2.1.5.2.8.3.3,0,.6.1,1,.1s.9,0,1.2-.2c.4-.1.7-.3.9-.6s.5-.6.6-1c.1-.4.2-.8.2-1.3s0-.8-.2-1.1c-.1-.3-.3-.6-.5-.8-.2-.2-.5-.4-.9-.5-.4-.1-.8-.2-1.2-.2s-.7,0-1,0c-.3,0-.7.1-1.1.3l-1-.3,1-6h6.1v.7Z"/>
    <path class="st0" d="M307.8,68.2v1.5h-4.2v11.4h-1.7v-11.4h-4.2v-1.5h10.1Z"/>
    <path class="st0" d="M311.2,71.8c.7,0,1.3.1,1.8.3.5.2,1,.5,1.4.9s.7.9.9,1.5c.2.6.3,1.2.3,1.9s-.1,1.4-.3,1.9c-.2.6-.5,1.1-.9,1.5-.4.4-.8.7-1.4.9-.5.2-1.1.3-1.8.3s-1.3-.1-1.8-.3c-.5-.2-1-.5-1.4-.9-.4-.4-.7-.9-.9-1.5-.2-.6-.3-1.2-.3-1.9s.1-1.4.3-1.9.5-1.1.9-1.5.8-.7,1.4-.9c.5-.2,1.1-.3,1.8-.3ZM311.2,80c.9,0,1.6-.3,2-.9.4-.6.7-1.4.7-2.5s-.2-1.9-.7-2.5c-.4-.6-1.1-.9-2-.9s-.9,0-1.2.2c-.3.2-.6.4-.8.7-.2.3-.4.7-.5,1.1-.1.4-.2.9-.2,1.5s0,1,.2,1.4c.1.4.3.8.5,1.1.2.3.5.5.8.7.3.2.7.2,1.2.2Z"/>
    <path class="st0" d="M319.3,67.8v13.3h-1.6v-13.3h1.6Z"/>
  </g>
  <g>
    <path class="st0" d="M172.5,143.1c-1,0-1.8-.2-2.6-.5-.8-.3-1.5-.7-2-1.3-.6-.6-1-1.2-1.3-2-.3-.8-.5-1.6-.5-2.6v-4.8h12.9v4.8c0,.9-.2,1.8-.5,2.6-.3.8-.7,1.4-1.3,2-.6.6-1.2,1-2,1.3-.8.3-1.7.5-2.6.5ZM172.5,141.3c.8,0,1.5-.1,2.1-.3s1.2-.5,1.6-.9c.4-.4.8-.9,1-1.4.2-.6.3-1.2.3-1.9v-3.1h-10.1v3.1c0,.7.1,1.3.3,1.9.2.6.6,1,1,1.4.4.4,1,.7,1.6.9s1.3.3,2.1.3Z"/>
    <path class="st0" d="M175.3,148.9c0,.5,0,1-.3,1.5-.2.5-.4.9-.8,1.2s-.8.6-1.3.8c-.5.2-1.1.3-1.7.3s-.4,0-.5,0-.1-.2-.1-.3v-6.1c-.6,0-1.1,0-1.5.2-.4.1-.8.3-1.1.6s-.5.6-.6.9c-.1.3-.2.7-.2,1.2s0,.7.1,1,.2.5.3.8c.1.2.2.4.3.5,0,.1.1.3.1.4s0,.2-.2.3l-.6.5c-.2-.2-.4-.4-.6-.7s-.3-.6-.4-.9c-.1-.3-.2-.6-.3-1,0-.3,0-.7,0-1,0-.6.1-1.2.3-1.7s.5-1,.9-1.4c.4-.4.9-.7,1.5-.9.6-.2,1.3-.3,2.1-.3s1.2,0,1.8.3c.6.2,1,.5,1.4.8.4.4.7.8,1,1.3.2.5.3,1.1.3,1.8ZM174.1,148.9c0-.8-.2-1.4-.7-1.8-.4-.4-1.1-.7-1.9-.8v5c.4,0,.7,0,1-.2.3-.1.6-.3.8-.5.2-.2.4-.4.5-.7s.2-.6.2-1Z"/>
    <path class="st0" d="M173.7,159.9c-.1,0-.2-.2-.2-.3s0-.2,0-.3c0-.1.1-.3.2-.4s.2-.4.2-.6c0-.2.1-.5.1-.8s0-.5-.1-.7c0-.2-.2-.4-.3-.6-.1-.2-.3-.3-.4-.4-.2,0-.3-.1-.5-.1s-.4,0-.6.2c-.2.1-.3.3-.4.5-.1.2-.2.5-.3.8,0,.3-.2.6-.3.9,0,.3-.2.6-.3.9s-.3.5-.5.8c-.2.2-.4.4-.7.5s-.6.2-.9.2-.8,0-1.2-.2c-.4-.2-.7-.4-.9-.7-.3-.3-.5-.7-.6-1.1-.2-.4-.2-.9-.2-1.5s.1-1.2.3-1.7c.2-.5.5-1,.8-1.3l.6.4c0,0,.1.1.2.2,0,0,0,.2,0,.3s0,.2-.1.3c0,.1-.2.3-.3.4-.1.2-.2.4-.3.6s-.1.5-.1.9,0,.6.1.8.2.4.3.6.3.3.5.3c.2,0,.4.1.6.1s.5,0,.6-.2c.2-.1.3-.3.4-.5.1-.2.2-.5.3-.8,0-.3.2-.6.3-.9,0-.3.2-.6.3-.9.1-.3.3-.5.5-.8.2-.2.4-.4.7-.5.3-.1.6-.2,1-.2s.7,0,1,.2c.3.1.6.4.8.6.2.3.4.6.6,1,.1.4.2.9.2,1.4s0,1.1-.3,1.6c-.2.5-.4.9-.8,1.2l-.6-.4Z"/>
    <path class="st0" d="M165.9,165.3c0-.7.2-1.3.6-1.7.4-.4,1-.6,1.7-.6h5.6v-1.1c0,0,0-.2,0-.2,0,0,.1,0,.3,0h.6l.2,1.5,2.8.4c0,0,.2,0,.2.1,0,0,0,.2,0,.3v.8h-3.1v2.6h-1.2v-2.6h-5.5c-.4,0-.7,0-.9.3s-.3.4-.3.7,0,.3,0,.4,0,.2.1.3c0,0,.1.2.1.2,0,0,0,.1,0,.2,0,0,0,.2-.2.2l-.8.5c-.3-.3-.5-.6-.6-1-.1-.4-.2-.8-.2-1.2Z"/>
    <path class="st0" d="M175.2,171h-9.1v-1.6h9.1v1.6ZM178,171.4c-.2,0-.3,0-.4,0-.1,0-.3-.1-.4-.3-.1-.1-.2-.2-.2-.4,0-.1,0-.3,0-.4s0-.3,0-.4c0-.1.1-.3.2-.4.1-.1.2-.2.4-.2.1,0,.3,0,.4,0s.3,0,.4,0c.1,0,.3.1.4.2s.2.2.2.4c0,.1,0,.3,0,.4s0,.3,0,.4c0,.1-.1.3-.2.4s-.2.2-.4.3c-.1,0-.3,0-.4,0Z"/>
    <path class="st0" d="M179.3,175.6h-13.3v-1.6h13.3v1.6Z"/>
    <path class="st0" d="M179.3,180.2h-13.3v-1.6h13.3v1.6Z"/>
    <path class="st0" d="M166.1,189.7v-.7c0-.2,0-.3,0-.4,0,0,.1-.2.3-.2l.8-.2c-.2-.2-.4-.5-.6-.7-.2-.2-.3-.5-.4-.7-.1-.3-.2-.5-.3-.8,0-.3,0-.6,0-.9s0-.7.1-1c0-.3.2-.6.4-.8.2-.2.5-.4.8-.5s.7-.2,1.1-.2.7,0,1,.3.6.5.9,1c.3.4.5,1,.6,1.7.2.7.2,1.6.2,2.6h.7c.7,0,1.3-.2,1.6-.5.4-.3.5-.8.5-1.3s0-.7-.1-1c0-.3-.2-.5-.3-.7-.1-.2-.2-.4-.3-.5,0-.1-.1-.3-.1-.4s0-.2,0-.3c0,0,.1-.1.2-.2l.5-.3c.5.5.8,1,1.1,1.6.2.6.4,1.2.4,1.9s0,1-.3,1.4c-.2.4-.4.7-.7,1-.3.3-.7.5-1.1.6-.4.1-.9.2-1.4.2h-5.8ZM167,185.6c0,.3,0,.5,0,.8s.1.5.2.7c.1.2.2.4.4.6.1.2.3.4.5.6h1.9c0-.7,0-1.4-.1-1.9,0-.5-.2-.9-.4-1.3-.2-.3-.3-.6-.5-.7-.2-.1-.4-.2-.7-.2s-.5,0-.6.1c-.2,0-.3.2-.4.3-.1.1-.2.3-.2.5,0,.2,0,.4,0,.6Z"/>
    <path class="st0" d="M165.9,194.9c0-.7.2-1.3.6-1.7.4-.4,1-.6,1.7-.6h5.6v-1.1c0,0,0-.2,0-.2,0,0,.1,0,.3,0h.6l.2,1.5,2.8.4c0,0,.2,0,.2.1,0,0,0,.2,0,.3v.8h-3.1v2.6h-1.2v-2.6h-5.5c-.4,0-.7,0-.9.3s-.3.4-.3.7,0,.3,0,.4,0,.2.1.3c0,0,.1.2.1.2,0,0,0,.1,0,.2,0,0,0,.2-.2.2l-.8.5c-.3-.3-.5-.6-.6-1-.1-.4-.2-.8-.2-1.2Z"/>
    <path class="st0" d="M175.2,200.7h-9.1v-1.6h9.1v1.6ZM178,201c-.2,0-.3,0-.4,0-.1,0-.3-.1-.4-.3-.1-.1-.2-.2-.2-.4,0-.1,0-.3,0-.4s0-.3,0-.4c0-.1.1-.3.2-.4.1-.1.2-.2.4-.2.1,0,.3,0,.4,0s.3,0,.4,0c.1,0,.3.1.4.2s.2.2.2.4c0,.1,0,.3,0,.4s0,.3,0,.4c0,.1-.1.3-.2.4s-.2.2-.4.3c-.1,0-.3,0-.4,0Z"/>
    <path class="st0" d="M175.3,207.1c0,.5,0,1-.3,1.5-.2.5-.4.9-.8,1.2s-.8.6-1.3.8c-.5.2-1.1.3-1.7.3s-.4,0-.5,0-.1-.2-.1-.3v-6.1c-.6,0-1.1,0-1.5.2-.4.1-.8.3-1.1.6s-.5.6-.6.9c-.1.3-.2.7-.2,1.2s0,.7.1,1,.2.5.3.8c.1.2.2.4.3.5,0,.1.1.3.1.4s0,.2-.2.3l-.6.5c-.2-.2-.4-.4-.6-.7s-.3-.6-.4-.9c-.1-.3-.2-.6-.3-1,0-.3,0-.7,0-1,0-.6.1-1.2.3-1.7s.5-1,.9-1.4c.4-.4.9-.7,1.5-.9.6-.2,1.3-.3,2.1-.3s1.2,0,1.8.3c.6.2,1,.5,1.4.8.4.4.7.8,1,1.3.2.5.3,1.1.3,1.8ZM174.1,207.1c0-.8-.2-1.4-.7-1.8-.4-.4-1.1-.7-1.9-.8v5c.4,0,.7,0,1-.2.3-.1.6-.3.8-.5.2-.2.4-.4.5-.7s.2-.6.2-1Z"/>
  </g>
  <path class="st0" d="M285,101.2v5.4h-1.7v-12.9h3.6c.8,0,1.5,0,2.1.2s1.1.4,1.5.7.7.7.9,1.1c.2.4.3.9.3,1.5s0,.9-.2,1.3c-.1.4-.4.8-.6,1.1s-.6.6-1,.8c-.4.2-.8.4-1.3.5.2.1.4.3.6.5l3.8,5.1h-1.5c-.3,0-.6-.1-.7-.4l-3.3-4.6c-.1-.1-.2-.2-.3-.3s-.3,0-.5,0h-1.3ZM285,99.9h1.8c.5,0,1,0,1.3-.2.4-.1.7-.3,1-.5.3-.2.5-.5.6-.8s.2-.7.2-1c0-.8-.3-1.3-.8-1.7s-1.3-.6-2.3-.6h-1.9v4.9Z"/>
  <path class="st0" d="M444.5,100.2c0,1-.2,1.8-.5,2.6-.3.8-.7,1.5-1.3,2-.6.6-1.2,1-2,1.3-.8.3-1.6.5-2.6.5h-4.8v-12.9h4.8c.9,0,1.8.2,2.6.5.8.3,1.4.7,2,1.3.6.6,1,1.2,1.3,2,.3.8.5,1.7.5,2.6ZM442.7,100.2c0-.8-.1-1.5-.3-2.1s-.5-1.2-.9-1.6c-.4-.4-.9-.8-1.4-1-.6-.2-1.2-.3-1.9-.3h-3.1v10.1h3.1c.7,0,1.3-.1,1.9-.3.6-.2,1-.6,1.4-1,.4-.4.7-1,.9-1.6s.3-1.3.3-2.1Z"/>
  <path class="st0" d="M433.3,330v-12.9h4.1c.8,0,1.5,0,2,.2s1,.4,1.4.7.6.6.8,1.1c.2.4.3.9.3,1.4s0,.6-.1.9c0,.3-.2.6-.4.8-.2.3-.5.5-.8.7-.3.2-.7.4-1.1.5.9.2,1.7.5,2.1,1,.5.5.7,1.1.7,1.9s-.1,1-.3,1.5-.5.8-.9,1.2c-.4.3-.9.6-1.4.8-.6.2-1.2.3-1.9.3h-4.6ZM435.1,322.9h2.3c.5,0,.9,0,1.3-.2.4-.1.7-.3.9-.5.2-.2.4-.4.5-.7.1-.3.2-.6.2-.9,0-.8-.2-1.3-.7-1.7-.5-.4-1.2-.5-2.1-.5h-2.4v4.4ZM435.1,324.1v4.5h2.8c.5,0,.9,0,1.3-.2.4-.1.7-.3.9-.5.2-.2.4-.5.5-.7.1-.3.2-.6.2-.9,0-.7-.2-1.2-.7-1.6-.5-.4-1.2-.6-2.1-.6h-2.8Z"/>
  <g>
    <path class="st0" d="M430.5,274.3c0,1.1-.1,2.1-.4,2.9-.2.8-.6,1.5-1,2s-.9.9-1.5,1.2c-.6.3-1.2.4-1.8.4s-1.3-.1-1.8-.4c-.6-.3-1.1-.7-1.5-1.2s-.8-1.2-1-2c-.2-.8-.4-1.8-.4-2.9s.1-2.1.4-2.9c.2-.8.6-1.5,1-2.1s.9-.9,1.5-1.2c.6-.3,1.2-.4,1.8-.4s1.3.1,1.8.4c.6.3,1.1.7,1.5,1.2s.8,1.2,1,2.1c.2.8.4,1.8.4,2.9ZM428.8,274.3c0-1,0-1.8-.2-2.5s-.4-1.2-.7-1.6c-.3-.4-.6-.7-1-.9-.4-.2-.7-.3-1.1-.3s-.8,0-1.1.3c-.4.2-.7.5-1,.9-.3.4-.5.9-.7,1.6s-.2,1.5-.2,2.5,0,1.8.2,2.5.4,1.2.7,1.6c.3.4.6.7,1,.9.4.2.7.3,1.1.3s.8,0,1.1-.3c.4-.2.7-.5,1-.9.3-.4.5-.9.7-1.6s.2-1.5.2-2.5Z"/>
    <path class="st0" d="M431.8,279.8c0-.2,0-.3,0-.4,0-.1.1-.3.2-.4,0-.1.2-.2.4-.2.1,0,.3,0,.4,0s.3,0,.4,0c.1,0,.3.1.4.2.1.1.2.2.2.4,0,.1,0,.3,0,.4s0,.3,0,.4c0,.1-.1.3-.2.4s-.2.2-.4.2c-.1,0-.3,0-.4,0s-.3,0-.4,0c-.1,0-.3-.1-.4-.2,0-.1-.2-.2-.2-.4,0-.1,0-.3,0-.4Z"/>
    <path class="st0" d="M444.7,274.3c0,1.1-.1,2.1-.4,2.9-.2.8-.6,1.5-1,2s-.9.9-1.5,1.2c-.6.3-1.2.4-1.8.4s-1.3-.1-1.8-.4c-.6-.3-1.1-.7-1.5-1.2s-.8-1.2-1-2c-.2-.8-.4-1.8-.4-2.9s.1-2.1.4-2.9c.2-.8.6-1.5,1-2.1s.9-.9,1.5-1.2c.6-.3,1.2-.4,1.8-.4s1.3.1,1.8.4c.6.3,1.1.7,1.5,1.2s.8,1.2,1,2.1c.2.8.4,1.8.4,2.9ZM443.1,274.3c0-1,0-1.8-.2-2.5s-.4-1.2-.7-1.6c-.3-.4-.6-.7-1-.9-.4-.2-.7-.3-1.1-.3s-.8,0-1.1.3c-.4.2-.7.5-1,.9-.3.4-.5.9-.7,1.6s-.2,1.5-.2,2.5,0,1.8.2,2.5.4,1.2.7,1.6c.3.4.6.7,1,.9.4.2.7.3,1.1.3s.8,0,1.1-.3c.4-.2.7-.5,1-.9.3-.4.5-.9.7-1.6s.2-1.5.2-2.5Z"/>
    <path class="st0" d="M453.4,276.1h2v.9c0,0,0,.2,0,.2,0,0-.1,0-.3,0h-1.6v3.4h-1.4v-3.4h-5.7c-.1,0-.2,0-.3-.1,0,0-.1-.2-.2-.3l-.2-.8,6.3-8.3h1.5v8.2ZM452,270.8c0-.2,0-.3,0-.5,0-.2,0-.4,0-.6l-4.7,6.4h4.6v-5.3Z"/>
    <path class="st0" d="M460.7,280.8v-12.9h4.1c.8,0,1.5,0,2,.2s1,.4,1.4.7.6.6.8,1.1c.2.4.3.9.3,1.4s0,.6-.1.9c0,.3-.2.6-.4.8-.2.3-.5.5-.8.7-.3.2-.7.4-1.1.5.9.2,1.7.5,2.1,1,.5.5.7,1.1.7,1.9s-.1,1-.3,1.5-.5.8-.9,1.2c-.4.3-.9.6-1.4.8-.6.2-1.2.3-1.9.3h-4.6ZM462.5,273.6h2.3c.5,0,.9,0,1.3-.2.4-.1.7-.3.9-.5.2-.2.4-.4.5-.7.1-.3.2-.6.2-.9,0-.8-.2-1.3-.7-1.7-.5-.4-1.2-.5-2.1-.5h-2.4v4.4ZM462.5,274.9v4.5h2.8c.5,0,.9,0,1.3-.2.4-.1.7-.3.9-.5.2-.2.4-.5.5-.7.1-.3.2-.6.2-.9,0-.7-.2-1.2-.7-1.6-.5-.4-1.2-.6-2.1-.6h-2.8Z"/>
    <path class="st0" d="M478.5,272.3c0,.1,0,.2,0,.3,0,.1,0,.2-.2.3l-4.9,6.6h5v1.3h-6.9v-.7c0,0,0-.2,0-.3s0-.2.2-.3l5-6.6h-4.9v-1.3h6.8v.7Z"/>
    <path class="st0" d="M430.5,295.9c0,1.1-.1,2.1-.4,2.9-.2.8-.6,1.5-1,2s-.9.9-1.5,1.2c-.6.3-1.2.4-1.8.4s-1.3-.1-1.8-.4c-.6-.3-1.1-.7-1.5-1.2s-.8-1.2-1-2c-.2-.8-.4-1.8-.4-2.9s.1-2.1.4-2.9c.2-.8.6-1.5,1-2.1s.9-.9,1.5-1.2c.6-.3,1.2-.4,1.8-.4s1.3.1,1.8.4c.6.3,1.1.7,1.5,1.2s.8,1.2,1,2.1c.2.8.4,1.8.4,2.9ZM428.8,295.9c0-1,0-1.8-.2-2.5s-.4-1.2-.7-1.6c-.3-.4-.6-.7-1-.9-.4-.2-.7-.3-1.1-.3s-.8,0-1.1.3c-.4.2-.7.5-1,.9-.3.4-.5.9-.7,1.6s-.2,1.5-.2,2.5,0,1.8.2,2.5.4,1.2.7,1.6c.3.4.6.7,1,.9.4.2.7.3,1.1.3s.8,0,1.1-.3c.4-.2.7-.5,1-.9.3-.4.5-.9.7-1.6s.2-1.5.2-2.5Z"/>
    <path class="st0" d="M431.8,301.4c0-.2,0-.3,0-.4,0-.1.1-.3.2-.4,0-.1.2-.2.4-.2.1,0,.3,0,.4,0s.3,0,.4,0c.1,0,.3.1.4.2.1.1.2.2.2.4,0,.1,0,.3,0,.4s0,.3,0,.4c0,.1-.1.3-.2.4s-.2.2-.4.2c-.1,0-.3,0-.4,0s-.3,0-.4,0c-.1,0-.3-.1-.4-.2,0-.1-.2-.2-.2-.4,0-.1,0-.3,0-.4Z"/>
    <path class="st0" d="M439.8,297.1c-.5,0-.9,0-1.4-.2-.4-.2-.8-.4-1.1-.7-.3-.3-.6-.7-.8-1.2-.2-.5-.3-1-.3-1.6s.1-1.1.3-1.6c.2-.5.5-.9.9-1.3.4-.4.8-.7,1.3-.9.5-.2,1.1-.3,1.7-.3s1.2.1,1.7.3c.5.2.9.5,1.3.9.4.4.6.8.8,1.3.2.5.3,1.1.3,1.7s0,.7-.1,1.1c0,.3-.2.7-.3,1s-.3.6-.5.9c-.2.3-.4.6-.6,1l-3.1,4.5c0,.1-.2.2-.3.3-.1,0-.3.1-.5.1h-1.5l3.9-5.1c.1-.2.3-.3.4-.5s.2-.3.3-.5c-.3.3-.7.5-1.1.6s-.9.2-1.3.2ZM443,293.3c0-.4,0-.8-.2-1.1s-.3-.6-.5-.8-.5-.4-.8-.5c-.3-.1-.7-.2-1-.2s-.8,0-1.1.2c-.3.1-.6.3-.8.5-.2.2-.4.5-.5.8-.1.3-.2.7-.2,1s0,.8.2,1.1c.1.3.3.6.5.8.2.2.5.4.8.5.3.1.7.2,1.1.2s.8,0,1.1-.2.6-.3.8-.6c.2-.2.4-.5.5-.8.1-.3.2-.6.2-1Z"/>
    <path class="st0" d="M451.1,294.5c.5,0,1,0,1.5.3.5.2.9.4,1.2.7.3.3.6.7.8,1.2.2.5.3,1,.3,1.6s-.1,1.1-.3,1.7c-.2.5-.5,1-.9,1.3s-.9.7-1.4.9c-.5.2-1.1.3-1.8.3s-1.2-.1-1.8-.3c-.5-.2-1-.5-1.3-.9-.4-.4-.7-.8-.9-1.4s-.3-1.2-.3-1.8.1-1.2.4-1.8c.3-.6.7-1.3,1.2-2.1l3.3-4.4c0-.1.2-.2.4-.3.1,0,.3-.1.5-.1h1.4l-4.5,5.7c.3-.2.6-.4,1-.5s.8-.2,1.2-.2ZM447.8,298.4c0,.4,0,.8.2,1.1s.3.6.5.9c.2.2.5.4.8.6s.7.2,1.1.2.8,0,1.2-.2c.3-.1.6-.3.9-.6s.4-.5.6-.9.2-.7.2-1.1,0-.8-.2-1.1c-.1-.3-.3-.6-.6-.9s-.5-.4-.9-.5-.7-.2-1.1-.2-.8,0-1.2.2c-.3.1-.6.3-.9.6s-.4.5-.6.9c-.1.3-.2.7-.2,1Z"/>
    <path class="st0" d="M469.5,289.5v1.5h-4.2v11.4h-1.7v-11.4h-4.2v-1.5h10.1Z"/>
    <path class="st0" d="M472.9,293.1c.7,0,1.3.1,1.8.3.5.2,1,.5,1.4.9.4.4.7.9.9,1.5.2.6.3,1.2.3,1.9s-.1,1.4-.3,1.9c-.2.6-.5,1.1-.9,1.5-.4.4-.8.7-1.4.9-.5.2-1.1.3-1.8.3s-1.3-.1-1.8-.3c-.5-.2-1-.5-1.4-.9-.4-.4-.7-.9-.9-1.5s-.3-1.2-.3-1.9.1-1.4.3-1.9c.2-.6.5-1.1.9-1.5.4-.4.8-.7,1.4-.9.5-.2,1.1-.3,1.8-.3ZM472.9,301.2c.9,0,1.6-.3,2-.9.4-.6.7-1.4.7-2.5s-.2-1.9-.7-2.5c-.4-.6-1.1-.9-2-.9s-.9,0-1.2.2c-.3.2-.6.4-.8.7-.2.3-.4.7-.5,1.1-.1.4-.2.9-.2,1.5s0,1,.2,1.4c.1.4.3.8.5,1.1.2.3.5.5.8.7.3.2.7.2,1.2.2Z"/>
    <path class="st0" d="M481,289.1v13.3h-1.6v-13.3h1.6Z"/>
  </g>
  <g>
    <path class="st0" d="M179.4,5.3h1.4c.2,0,.3,0,.4.1,0,0,.2.2.2.3l3.6,9.1c0,.2.2.4.2.7,0,.2.1.5.2.7,0-.3.1-.5.2-.7,0-.2.1-.5.2-.7l3.6-9.1c0-.1.1-.2.2-.3s.2-.1.4-.1h1.4l-5.3,12.9h-1.6l-5.3-12.9Z"/>
    <path class="st0" d="M196.4,10h7.7v1.2h-7.7v-1.2ZM196.4,13h7.7v1.2h-7.7v-1.2Z"/>
    <path class="st0" d="M214.2,18.3c-.6,0-1.2,0-1.8-.3-.5-.2-1-.4-1.4-.7-.4-.3-.7-.7-.9-1.2s-.3-1-.3-1.5c0-.8.2-1.5.6-2,.4-.5,1-.9,1.9-1.1-.7-.3-1.2-.6-1.5-1.1-.3-.5-.5-1.1-.5-1.8s0-.9.3-1.3c.2-.4.5-.8.8-1.1s.8-.5,1.2-.7c.5-.2,1-.3,1.6-.3s1.1,0,1.6.3c.5.2.9.4,1.2.7s.6.7.8,1.1c.2.4.3.9.3,1.3,0,.7-.2,1.3-.5,1.8s-.9.9-1.5,1.1c.8.2,1.4.6,1.9,1.1.4.5.6,1.2.6,2s-.1,1.1-.3,1.5-.5.8-.9,1.2c-.4.3-.8.6-1.4.7-.5.2-1.1.3-1.8.3ZM214.2,17.1c.4,0,.8,0,1.1-.2.3-.1.6-.3.8-.5.2-.2.4-.5.5-.8.1-.3.2-.6.2-1s0-.8-.2-1.1c-.1-.3-.3-.6-.6-.8-.2-.2-.5-.3-.9-.4-.3,0-.7-.1-1-.1s-.7,0-1,.1c-.3,0-.6.2-.9.4-.2.2-.4.5-.6.8-.1.3-.2.7-.2,1.1s0,.7.2,1c.1.3.3.6.5.8.2.2.5.4.8.5.3.1.7.2,1.1.2ZM214.2,10.9c.4,0,.8,0,1.1-.2.3-.1.5-.3.7-.5.2-.2.3-.5.4-.7,0-.3.1-.6.1-.9s0-.6-.1-.8c0-.3-.2-.5-.4-.7-.2-.2-.4-.4-.7-.5s-.6-.2-1-.2-.7,0-1,.2-.5.3-.7.5c-.2.2-.3.4-.4.7,0,.3-.1.5-.1.8s0,.6.1.9c0,.3.2.5.4.7.2.2.4.4.7.5s.7.2,1.1.2Z"/>
    <path class="st0" d="M229.3,11.8c0,1.1-.1,2.1-.4,2.9-.2.8-.6,1.5-1,2s-.9.9-1.5,1.2c-.6.3-1.2.4-1.8.4s-1.3-.1-1.8-.4c-.6-.3-1.1-.7-1.5-1.2s-.8-1.2-1-2c-.2-.8-.4-1.8-.4-2.9s.1-2.1.4-2.9c.2-.8.6-1.5,1-2.1s.9-.9,1.5-1.2c.6-.3,1.2-.4,1.8-.4s1.3.1,1.8.4c.6.3,1.1.7,1.5,1.2s.8,1.2,1,2.1c.2.8.4,1.8.4,2.9ZM227.6,11.8c0-1,0-1.8-.2-2.5s-.4-1.2-.7-1.6c-.3-.4-.6-.7-1-.9-.4-.2-.7-.3-1.1-.3s-.8,0-1.1.3c-.4.2-.7.5-1,.9-.3.4-.5.9-.7,1.6s-.2,1.5-.2,2.5,0,1.8.2,2.5c.2.7.4,1.2.7,1.6.3.4.6.7,1,.9.4.2.7.3,1.1.3s.8,0,1.1-.3c.4-.2.7-.5,1-.9.3-.4.5-.9.7-1.6.2-.7.2-1.5.2-2.5Z"/>
    <path class="st0" d="M239.7,11.8c0,1.1-.1,2.1-.4,2.9-.2.8-.6,1.5-1,2s-.9.9-1.5,1.2c-.6.3-1.2.4-1.8.4s-1.3-.1-1.8-.4c-.6-.3-1.1-.7-1.5-1.2s-.8-1.2-1-2c-.2-.8-.4-1.8-.4-2.9s.1-2.1.4-2.9c.2-.8.6-1.5,1-2.1s.9-.9,1.5-1.2c.6-.3,1.2-.4,1.8-.4s1.3.1,1.8.4c.6.3,1.1.7,1.5,1.2s.8,1.2,1,2.1c.2.8.4,1.8.4,2.9ZM238.1,11.8c0-1,0-1.8-.2-2.5s-.4-1.2-.7-1.6c-.3-.4-.6-.7-1-.9-.4-.2-.7-.3-1.1-.3s-.8,0-1.1.3c-.4.2-.7.5-1,.9-.3.4-.5.9-.7,1.6s-.2,1.5-.2,2.5,0,1.8.2,2.5c.2.7.4,1.2.7,1.6.3.4.6.7,1,.9.4.2.7.3,1.1.3s.8,0,1.1-.3c.4-.2.7-.5,1-.9.3-.4.5-.9.7-1.6.2-.7.2-1.5.2-2.5Z"/>
    <path class="st0" d="M246.7,4.9v7.8h.4c.1,0,.2,0,.3,0,0,0,.2-.1.3-.2l2.9-3.1c0,0,.2-.2.3-.2,0,0,.2,0,.4,0h1.5l-3.4,3.6c0,.1-.2.2-.2.3s-.2.1-.3.2c.1,0,.2.2.3.2,0,0,.2.2.2.3l3.6,4.5h-1.4c-.1,0-.2,0-.3,0,0,0-.2-.1-.3-.2l-3-3.7c0-.1-.2-.2-.3-.2s-.2,0-.4,0h-.5v4.4h-1.6V4.9h1.6Z"/>
    <path class="st0" d="M257.6,8.9c.4,0,.8,0,1.1.1.3,0,.7.2.9.4h2.5v.6c0,.2-.1.3-.4.4h-1c.2.5.3,1,.3,1.4s0,.8-.3,1.2c-.2.4-.4.7-.7.9-.3.3-.7.5-1.1.6-.4.1-.9.2-1.4.2s-.8,0-1.2-.2c-.2.1-.3.3-.4.4,0,.1-.1.3-.1.4,0,.2,0,.4.3.5.2.1.4.2.7.2.3,0,.6,0,1,0h1.1c.4,0,.8,0,1.1.1.4,0,.7.2,1,.3s.5.4.7.6c.2.3.3.6.3,1s0,.8-.3,1.1c-.2.4-.5.7-.8,1-.4.3-.8.5-1.3.7-.5.2-1.1.3-1.8.3s-1.2,0-1.8-.2c-.5-.1-.9-.3-1.2-.5-.3-.2-.6-.5-.7-.8-.2-.3-.2-.6-.2-.9,0-.5.1-.8.4-1.1.3-.3.7-.6,1.2-.8-.3-.1-.5-.3-.6-.5s-.2-.5-.2-.8,0-.3,0-.4c0-.1.1-.3.2-.4,0-.1.2-.3.4-.4.1-.1.3-.2.5-.3-.5-.3-.8-.6-1.1-1s-.4-.9-.4-1.5,0-.8.3-1.2c.2-.4.4-.7.7-.9.3-.3.7-.5,1.1-.6s.9-.2,1.4-.2ZM260.4,18.7c0-.2,0-.4-.2-.6s-.3-.2-.5-.3c-.2,0-.5-.1-.7-.2-.3,0-.6,0-.9,0h-1c-.3,0-.6,0-.9-.1-.3.2-.6.4-.8.6-.2.2-.3.5-.3.8s0,.4.2.6c.1.2.3.3.5.5.2.1.5.2.8.3.3,0,.7.1,1.2.1s.8,0,1.2-.1.6-.2.9-.3c.2-.1.4-.3.5-.5.1-.2.2-.4.2-.7ZM257.6,13.7c.3,0,.6,0,.9-.1.2,0,.5-.2.6-.4.2-.2.3-.4.4-.6,0-.2.1-.5.1-.7,0-.6-.2-1-.5-1.3s-.8-.5-1.5-.5-1.1.2-1.5.5-.5.8-.5,1.3,0,.5.1.7c0,.2.2.4.4.6.2.2.4.3.6.4.2,0,.5.1.8.1Z"/>
    <path class="st0" d="M263.8,18.4c0,.2-.2.4-.4.5-.2.1-.3.2-.5.2h-.7l5.4-13.5c0-.2.2-.3.3-.4s.3-.2.5-.2h.7l-5.4,13.4Z"/>
    <path class="st0" d="M270.4,18.2V4.9h1.6v5.4c.4-.4.8-.7,1.3-1,.5-.2,1-.4,1.6-.4s.9,0,1.3.2c.4.2.7.4,1,.7.3.3.4.7.6,1.1.1.4.2.9.2,1.4v5.8h-1.6v-5.8c0-.7-.2-1.2-.5-1.6-.3-.4-.8-.6-1.4-.6s-.9.1-1.3.3c-.4.2-.8.5-1.1.9v6.7h-1.6Z"/>
  </g>
  <path class="st0" d="M318.4,27c0,0,.2,0,.3.1l.7.7c-.5.6-1.2,1.1-1.9,1.4s-1.7.5-2.7.5-1.8-.2-2.5-.5c-.8-.3-1.4-.8-1.9-1.3s-.9-1.3-1.2-2.1c-.3-.8-.4-1.7-.4-2.7s.2-1.9.5-2.7c.3-.8.8-1.5,1.3-2.1.6-.6,1.3-1,2-1.4s1.7-.5,2.6-.5,1.8.1,2.5.4c.7.3,1.3.7,1.8,1.2l-.6.8c0,0,0,.1-.1.1,0,0-.1,0-.2,0s-.2,0-.2,0-.2-.1-.3-.2c-.1,0-.3-.2-.4-.3-.2,0-.4-.2-.6-.3-.2,0-.5-.2-.8-.2s-.6,0-1,0c-.7,0-1.3.1-1.9.4-.6.2-1.1.6-1.5,1-.4.4-.7,1-1,1.6-.2.6-.3,1.3-.3,2.1s.1,1.5.3,2.2c.2.6.5,1.2.9,1.6.4.4.9.8,1.4,1,.5.2,1.1.3,1.8.3s.7,0,1,0c.3,0,.6-.1.9-.2.3,0,.5-.2.7-.4.2-.1.5-.3.7-.5.1,0,.2-.1.3-.1Z"/>
</svg>