<?xml version="1.0" encoding="UTF-8"?>
<svg id="Layer_1" xmlns="http://www.w3.org/2000/svg" version="1.1" viewBox="0 0 442.1 331.1">
  <!-- Generator: Adobe Illustrator 30.0.0, SVG Export Plug-In . SVG Version: 2.1.1 Build 123)  -->
  <defs>
    <style>
      .st0 {
        fill: #231f20;
      }

      .st1 {
        fill: #fff;
      }

      .st2 {
        fill: none;
      }

      .st3 {
        fill: #010101;
      }
    </style>
  </defs>
  <g>
    <rect class="st1" x="138" y="59.7" width="69" height="210"/>
    <path class="st3" d="M207.5,270.2h-70V59.2h70v211ZM138.5,269.2h68V60.2h-68s0,209,0,209Z"/>
  </g>
  <g>
    <rect class="st3" x="2.1" y="167.8" width="127.1" height="1"/>
    <polygon class="st3" points="127.3 171.2 138.1 168.3 127.3 165.4 127.3 171.2"/>
  </g>
  <path class="st3" d="M334.4,42.6h-41c-.4,0-.8-.3-.8-.8V.8c0-.4.3-.8.8-.8h41c.4,0,.8.3.8.8v41c0,.4-.4.8-.8.8ZM293.6,41.6h40.5V1.1h-40.5v40.5Z"/>
  <g>
    <polygon class="st3" points="173.1 60.3 172.1 60.3 172.1 20.8 284.2 20.8 284.2 21.8 173.1 21.8 173.1 60.3"/>
    <polygon class="st3" points="282.3 18.4 293.1 21.3 282.3 24.2 282.3 18.4"/>
  </g>
  <g>
    <rect class="st3" x="216" y="83.8" width="217.3" height="1"/>
    <polygon class="st3" points="217.9 87.2 207.1 84.3 217.9 81.4 217.9 87.2"/>
    <polygon class="st3" points="431.3 87.2 442.1 84.3 431.3 81.4 431.3 87.2"/>
  </g>
  <g>
    <polygon class="st3" points="378.6 75.4 377.6 75.4 377.6 21.8 334.6 21.8 334.6 20.8 378.6 20.8 378.6 75.4"/>
    <polygon class="st3" points="381 73.5 378.1 84.3 375.2 73.5 381 73.5"/>
  </g>
  <g>
    <polygon class="st3" points="433.2 308.8 172.1 308.8 172.1 270.3 173.1 270.3 173.1 307.8 433.2 307.8 433.2 308.8"/>
    <polygon class="st3" points="431.3 305.4 442.1 308.3 431.3 311.2 431.3 305.4"/>
  </g>
  <g>
    <rect class="st2" x="0" y="174.9" width="146.4" height="40.6"/>
    <path class="st0" d="M9.9,181.7c0,1.1-.1,2.1-.4,2.9-.2.8-.6,1.5-1,2-.4.5-.9.9-1.5,1.2-.6.3-1.2.4-1.8.4s-1.3-.1-1.8-.4-1.1-.7-1.5-1.2c-.4-.5-.8-1.2-1-2-.2-.8-.4-1.8-.4-2.9s.1-2.1.4-2.9c.2-.8.6-1.5,1-2.1.4-.5.9-.9,1.5-1.2.6-.3,1.2-.4,1.8-.4s1.3.1,1.8.4c.6.3,1.1.7,1.5,1.2s.8,1.2,1,2.1c.2.8.4,1.8.4,2.9ZM8.2,181.7c0-1,0-1.8-.2-2.5-.2-.7-.4-1.2-.7-1.6-.3-.4-.6-.7-1-.9-.4-.2-.7-.3-1.1-.3s-.8,0-1.1.3c-.4.2-.7.5-1,.9s-.5.9-.7,1.6c-.2.7-.2,1.5-.2,2.5s0,1.8.2,2.5.4,1.2.7,1.6c.3.4.6.7,1,.9.4.2.7.3,1.1.3s.8,0,1.1-.3c.4-.2.7-.5,1-.9.3-.4.5-.9.7-1.6s.2-1.5.2-2.5Z"/>
    <path class="st0" d="M11.2,187.2c0-.2,0-.3,0-.4s.1-.3.2-.4c0-.1.2-.2.4-.2.1,0,.3,0,.4,0s.3,0,.4,0c.1,0,.3.1.4.2s.2.2.2.4c0,.1,0,.3,0,.4s0,.3,0,.4c0,.1-.1.3-.2.4s-.2.2-.4.2c-.1,0-.3,0-.4,0s-.3,0-.4,0c-.1,0-.3-.1-.4-.2,0-.1-.2-.2-.2-.4s0-.3,0-.4Z"/>
    <path class="st0" d="M23.1,176c0,.2,0,.4-.2.6s-.4.2-.7.2h-4l-.6,3.4c.7-.1,1.3-.2,1.9-.2s1.3,0,1.8.3.9.5,1.3.8c.3.3.6.8.8,1.2.2.5.3,1,.3,1.5s-.1,1.3-.4,1.9c-.2.6-.6,1-1,1.4s-.9.7-1.5.9c-.6.2-1.2.3-1.8.3s-.7,0-1.1-.1c-.3,0-.7-.2-1-.3-.3-.1-.6-.3-.8-.4-.3-.2-.5-.3-.7-.5l.5-.7c.1-.2.3-.2.4-.2s.2,0,.4.1.3.2.6.3c.2.1.5.2.8.3s.6.1,1,.1.9,0,1.2-.2c.4-.1.7-.3.9-.6.3-.3.5-.6.6-1,.1-.4.2-.8.2-1.2s0-.8-.2-1.1c-.1-.3-.3-.6-.5-.8-.2-.2-.5-.4-.9-.5-.4-.1-.8-.2-1.2-.2s-.7,0-1,0c-.3,0-.7.1-1.1.3l-1-.3,1-6h6.1v.7Z"/>
    <path class="st0" d="M29.7,188.1v-12.9h4.1c.8,0,1.5,0,2,.2.6.2,1,.4,1.4.7.4.3.6.6.8,1.1.2.4.3.9.3,1.4s0,.6-.1.9c0,.3-.2.6-.5.8s-.5.5-.8.7c-.3.2-.7.4-1.1.5.9.2,1.7.5,2.1,1,.5.5.7,1.1.7,1.9s-.1,1-.3,1.5c-.2.4-.5.8-.9,1.2-.4.3-.9.6-1.4.8-.6.2-1.2.3-1.9.3h-4.6ZM31.5,181h2.3c.5,0,.9,0,1.3-.2s.7-.3.9-.5c.2-.2.4-.4.5-.7.1-.3.2-.6.2-.9,0-.8-.2-1.3-.7-1.7-.5-.4-1.2-.5-2.1-.5h-2.4v4.4ZM31.5,182.3v4.5h2.8c.5,0,.9,0,1.3-.2.4-.1.7-.3.9-.5s.4-.5.5-.7.2-.6.2-.9c0-.7-.2-1.2-.7-1.6s-1.2-.6-2.1-.6h-2.8Z"/>
    <path class="st0" d="M44.7,178.9c.5,0,1.1,0,1.5.3.5.2.9.4,1.2.8.3.3.6.8.8,1.3.2.5.3,1.1.3,1.7s0,.4,0,.5c0,0-.2.1-.3.1h-6.1c0,.6,0,1.1.2,1.5s.3.8.6,1.1.6.5.9.6c.3.1.7.2,1.2.2s.7,0,1-.1c.3,0,.5-.2.8-.3.2-.1.4-.2.5-.3s.3-.1.4-.1.2,0,.3.2l.4.6c-.2.2-.4.4-.7.6-.3.2-.6.3-.9.4-.3.1-.6.2-1,.3-.3,0-.7,0-1,0-.6,0-1.2-.1-1.7-.3-.5-.2-1-.5-1.4-.9-.4-.4-.7-.9-.9-1.5-.2-.6-.3-1.3-.3-2.1s0-1.2.3-1.8.5-1,.8-1.4c.4-.4.8-.7,1.3-1,.5-.2,1.1-.3,1.8-.3ZM44.8,180.1c-.8,0-1.4.2-1.8.7-.4.4-.7,1.1-.8,1.9h5c0-.4,0-.7-.2-1-.1-.3-.3-.6-.4-.8-.2-.2-.4-.4-.7-.5-.3-.1-.6-.2-1-.2Z"/>
    <path class="st0" d="M50.6,188.1v-9.1h1c.2,0,.4.1.4.3v1c.5-.4,1-.8,1.5-1.1.5-.3,1.1-.4,1.7-.4s.9,0,1.3.2c.4.2.7.4,1,.7.3.3.4.7.6,1.1.1.4.2.9.2,1.4v5.8h-1.6v-5.8c0-.7-.2-1.2-.5-1.6s-.8-.6-1.4-.6-.9.1-1.3.3c-.4.2-.8.5-1.1.9v6.7h-1.6Z"/>
    <path class="st0" d="M66.9,179.7c0,.1,0,.2,0,.3,0,.1,0,.2-.2.3l-4.9,6.6h5v1.3h-6.9v-.7c0,0,0-.2,0-.3,0-.1,0-.2.2-.3l5-6.6h-4.9v-1.3h6.8v.7Z"/>
    <path class="st0" d="M72.5,178.9c.5,0,1.1,0,1.5.3.5.2.9.4,1.2.8.3.3.6.8.8,1.3.2.5.3,1.1.3,1.7s0,.4,0,.5c0,0-.2.1-.3.1h-6.1c0,.6,0,1.1.2,1.5s.3.8.6,1.1.6.5.9.6c.3.1.7.2,1.2.2s.7,0,1-.1c.3,0,.5-.2.8-.3.2-.1.4-.2.5-.3s.3-.1.4-.1.2,0,.3.2l.4.6c-.2.2-.4.4-.7.6-.3.2-.6.3-.9.4-.3.1-.6.2-1,.3-.3,0-.7,0-1,0-.6,0-1.2-.1-1.7-.3-.5-.2-1-.5-1.4-.9-.4-.4-.7-.9-.9-1.5-.2-.6-.3-1.3-.3-2.1s0-1.2.3-1.8.5-1,.8-1.4c.4-.4.8-.7,1.3-1,.5-.2,1.1-.3,1.8-.3ZM72.5,180.1c-.8,0-1.4.2-1.8.7-.4.4-.7,1.1-.8,1.9h5c0-.4,0-.7-.2-1-.1-.3-.3-.6-.4-.8-.2-.2-.4-.4-.7-.5-.3-.1-.6-.2-1-.2Z"/>
    <path class="st0" d="M81.9,178.9c.5,0,1.1,0,1.5.3.5.2.9.4,1.2.8.3.3.6.8.8,1.3.2.5.3,1.1.3,1.7s0,.4,0,.5c0,0-.2.1-.3.1h-6.1c0,.6,0,1.1.2,1.5s.3.8.6,1.1.6.5.9.6c.3.1.7.2,1.2.2s.7,0,1-.1c.3,0,.5-.2.8-.3.2-.1.4-.2.5-.3s.3-.1.4-.1.2,0,.3.2l.4.6c-.2.2-.4.4-.7.6-.3.2-.6.3-.9.4-.3.1-.6.2-1,.3-.3,0-.7,0-1,0-.6,0-1.2-.1-1.7-.3-.5-.2-1-.5-1.4-.9-.4-.4-.7-.9-.9-1.5-.2-.6-.3-1.3-.3-2.1s0-1.2.3-1.8.5-1,.8-1.4c.4-.4.8-.7,1.3-1,.5-.2,1.1-.3,1.8-.3ZM82,180.1c-.8,0-1.4.2-1.8.7-.4.4-.7,1.1-.8,1.9h5c0-.4,0-.7-.2-1-.1-.3-.3-.6-.4-.8-.2-.2-.4-.4-.7-.5-.3-.1-.6-.2-1-.2Z"/>
    <path class="st0" d="M87.7,188.1v-9.1h1c.2,0,.4.1.4.3v1c.5-.4,1-.8,1.5-1.1.5-.3,1.1-.4,1.7-.4s.9,0,1.3.2c.4.2.7.4,1,.7.3.3.4.7.6,1.1.1.4.2.9.2,1.4v5.8h-1.6v-5.8c0-.7-.2-1.2-.5-1.6s-.8-.6-1.4-.6-.9.1-1.3.3c-.4.2-.8.5-1.1.9v6.7h-1.6Z"/>
    <path class="st0" d="M102.5,182.5c0,1.3.2,2.5.5,3.7.3,1.2.8,2.4,1.4,3.5,0,0,0,.1,0,.2,0,0,0,0,0,.1,0,0,0,.2,0,.2,0,0,0,.1-.2.1l-.7.4c-.5-.7-.8-1.4-1.1-2.1-.3-.7-.6-1.4-.8-2-.2-.7-.3-1.4-.4-2.1,0-.7-.1-1.4-.1-2.1s0-1.4.1-2.1c0-.7.2-1.4.4-2.1.2-.7.4-1.4.8-2,.3-.7.7-1.4,1.1-2.1l.7.4c0,0,.1,0,.2.1,0,0,0,.1,0,.2s0,.2,0,.3c-.6,1.1-1.1,2.2-1.4,3.5-.3,1.2-.5,2.5-.5,3.7Z"/>
    <path class="st0" d="M106.9,188.1v-12.9h4.1c.8,0,1.5,0,2,.2.6.2,1,.4,1.4.7.4.3.6.6.8,1.1.2.4.3.9.3,1.4s0,.6-.1.9c0,.3-.2.6-.5.8s-.5.5-.8.7c-.3.2-.7.4-1.1.5.9.2,1.7.5,2.1,1,.5.5.7,1.1.7,1.9s-.1,1-.3,1.5c-.2.4-.5.8-.9,1.2-.4.3-.9.6-1.4.8-.6.2-1.2.3-1.9.3h-4.6ZM108.6,181h2.3c.5,0,.9,0,1.3-.2s.7-.3.9-.5c.2-.2.4-.4.5-.7.1-.3.2-.6.2-.9,0-.8-.2-1.3-.7-1.7-.5-.4-1.2-.5-2.1-.5h-2.4v4.4ZM108.6,182.3v4.5h2.8c.5,0,.9,0,1.3-.2.4-.1.7-.3.9-.5s.4-.5.5-.7.2-.6.2-.9c0-.7-.2-1.2-.7-1.6s-1.2-.6-2.1-.6h-2.8Z"/>
    <path class="st0" d="M124.6,179.7c0,.1,0,.2,0,.3,0,.1,0,.2-.2.3l-4.9,6.6h5v1.3h-6.9v-.7c0,0,0-.2,0-.3,0-.1,0-.2.2-.3l5-6.6h-4.9v-1.3h6.8v.7Z"/>
    <path class="st0" d="M128,182.5c0-1.3-.2-2.5-.5-3.7-.3-1.2-.8-2.4-1.4-3.5,0-.1,0-.2,0-.3s0-.2,0-.2c0,0,0-.1.2-.1l.7-.4c.4.7.8,1.4,1.1,2.1s.6,1.4.8,2c.2.7.3,1.4.4,2.1,0,.7.1,1.4.1,2.1s0,1.4-.1,2.1c0,.7-.2,1.4-.4,2.1-.2.7-.5,1.4-.8,2s-.7,1.4-1.1,2.1l-.7-.4c0,0-.1,0-.2-.1s0-.1,0-.2,0,0,0-.1,0-.1,0-.2c.6-1.1,1.1-2.3,1.4-3.5s.5-2.5.5-3.7Z"/>
    <path class="st0" d="M9.9,203.3c0,1.1-.1,2.1-.4,2.9-.2.8-.6,1.5-1,2-.4.5-.9.9-1.5,1.2-.6.3-1.2.4-1.8.4s-1.3-.1-1.8-.4c-.6-.3-1.1-.7-1.5-1.2-.4-.5-.8-1.2-1-2-.2-.8-.4-1.8-.4-2.9s.1-2.1.4-2.9c.2-.8.6-1.5,1-2.1.4-.5.9-.9,1.5-1.2s1.2-.4,1.8-.4,1.3.1,1.8.4c.6.3,1.1.7,1.5,1.2s.8,1.2,1,2.1c.2.8.4,1.8.4,2.9ZM8.2,203.3c0-1,0-1.8-.2-2.5-.2-.7-.4-1.2-.7-1.6-.3-.4-.6-.7-1-.9-.4-.2-.7-.3-1.1-.3s-.8,0-1.1.3c-.4.2-.7.5-1,.9s-.5.9-.7,1.6c-.2.7-.2,1.5-.2,2.5s0,1.8.2,2.5.4,1.2.7,1.6.6.7,1,.9c.4.2.7.3,1.1.3s.8,0,1.1-.3c.4-.2.7-.5,1-.9.3-.4.5-.9.7-1.6s.2-1.5.2-2.5Z"/>
    <path class="st0" d="M11.2,208.8c0-.2,0-.3,0-.4,0-.1.1-.3.2-.4,0-.1.2-.2.4-.2.1,0,.3,0,.4,0s.3,0,.4,0c.1,0,.3.1.4.2.1.1.2.2.2.4,0,.1,0,.3,0,.4s0,.3,0,.4c0,.1-.1.3-.2.4-.1.1-.2.2-.4.2-.1,0-.3,0-.4,0s-.3,0-.4,0c-.1,0-.3-.1-.4-.2,0-.1-.2-.2-.2-.4,0-.1,0-.3,0-.4Z"/>
    <path class="st0" d="M23.1,197.6c0,.2,0,.4-.2.6-.1.1-.4.2-.7.2h-4l-.6,3.4c.7-.1,1.3-.2,1.9-.2s1.3,0,1.8.3c.5.2.9.5,1.3.8.3.3.6.8.8,1.2.2.5.3,1,.3,1.5s-.1,1.3-.4,1.9c-.2.6-.6,1-1,1.4-.4.4-.9.7-1.5.9-.6.2-1.2.3-1.8.3s-.7,0-1.1-.1c-.3,0-.7-.2-1-.3-.3-.1-.6-.3-.8-.4-.3-.2-.5-.3-.7-.5l.5-.7c.1-.2.3-.2.4-.2s.2,0,.4.1c.2,0,.3.2.6.3.2.1.5.2.8.3.3,0,.6.1,1,.1s.9,0,1.2-.2c.4-.1.7-.3.9-.6.3-.3.5-.6.6-1,.1-.4.2-.8.2-1.3s0-.8-.2-1.1c-.1-.3-.3-.6-.5-.8-.2-.2-.5-.4-.9-.5-.4-.1-.8-.2-1.2-.2s-.7,0-1,0c-.3,0-.7.1-1.1.3l-1-.3,1-6h6.1v.7Z"/>
    <path class="st0" d="M38.5,196.9v1.5h-4.2v11.4h-1.7v-11.4h-4.2v-1.5h10.1Z"/>
    <path class="st0" d="M41.9,200.5c.7,0,1.3.1,1.8.3.5.2,1,.5,1.4.9s.7.9.9,1.5c.2.6.3,1.2.3,1.9s-.1,1.4-.3,1.9c-.2.6-.5,1.1-.9,1.5s-.8.7-1.4.9c-.5.2-1.1.3-1.8.3s-1.3-.1-1.8-.3c-.5-.2-1-.5-1.4-.9s-.7-.9-.9-1.5c-.2-.6-.3-1.2-.3-1.9s.1-1.4.3-1.9c.2-.6.5-1.1.9-1.5s.8-.7,1.4-.9c.5-.2,1.1-.3,1.8-.3ZM41.9,208.6c.9,0,1.6-.3,2-.9.4-.6.7-1.4.7-2.5s-.2-1.9-.7-2.5c-.4-.6-1.1-.9-2-.9s-.9,0-1.2.2c-.3.2-.6.4-.8.7-.2.3-.4.7-.5,1.1-.1.4-.2.9-.2,1.5s0,1,.2,1.4c.1.4.3.8.5,1.1s.5.5.8.7c.3.2.7.2,1.2.2Z"/>
    <path class="st0" d="M50,196.5v13.3h-1.6v-13.3h1.6Z"/>
    <path class="st0" d="M54.2,200.6v5.8c0,.7.2,1.2.5,1.6.3.4.8.6,1.4.6s.9-.1,1.3-.3c.4-.2.8-.5,1.1-.9v-6.7h1.6v9.1h-1c-.2,0-.4-.1-.4-.3v-1c-.5.4-1,.8-1.5,1.1-.5.3-1.1.4-1.7.4s-.9,0-1.3-.2c-.4-.2-.7-.4-1-.7-.3-.3-.5-.7-.6-1.1-.1-.4-.2-.9-.2-1.4v-5.8h1.6Z"/>
    <path class="st0" d="M66.4,200.5c.5,0,1.1,0,1.5.3s.9.4,1.2.8c.3.3.6.8.8,1.3s.3,1.1.3,1.7,0,.4,0,.5c0,0-.2.1-.3.1h-6.1c0,.6,0,1.1.2,1.5s.3.8.6,1.1.6.5.9.6c.3.1.7.2,1.2.2s.7,0,1-.1c.3,0,.5-.2.8-.3s.4-.2.5-.3c.1,0,.3-.1.4-.1s.2,0,.3.2l.4.6c-.2.2-.4.4-.7.6-.3.2-.6.3-.9.4-.3.1-.6.2-1,.3-.3,0-.7,0-1,0-.6,0-1.2-.1-1.7-.3-.5-.2-1-.5-1.4-.9s-.7-.9-.9-1.5c-.2-.6-.3-1.3-.3-2.1s0-1.2.3-1.8c.2-.6.5-1,.8-1.4.4-.4.8-.7,1.3-1,.5-.2,1.1-.3,1.8-.3ZM66.5,201.7c-.8,0-1.4.2-1.8.7-.4.4-.7,1.1-.8,1.9h5c0-.4,0-.7-.2-1s-.3-.6-.4-.8c-.2-.2-.4-.4-.7-.5-.3-.1-.6-.2-1-.2Z"/>
    <path class="st0" d="M75.9,200.5c.5,0,1.1,0,1.5.3s.9.4,1.2.8c.3.3.6.8.8,1.3s.3,1.1.3,1.7,0,.4,0,.5c0,0-.2.1-.3.1h-6.1c0,.6,0,1.1.2,1.5s.3.8.6,1.1.6.5.9.6c.3.1.7.2,1.2.2s.7,0,1-.1c.3,0,.5-.2.8-.3s.4-.2.5-.3c.1,0,.3-.1.4-.1s.2,0,.3.2l.4.6c-.2.2-.4.4-.7.6-.3.2-.6.3-.9.4-.3.1-.6.2-1,.3-.3,0-.7,0-1,0-.6,0-1.2-.1-1.7-.3-.5-.2-1-.5-1.4-.9s-.7-.9-.9-1.5c-.2-.6-.3-1.3-.3-2.1s0-1.2.3-1.8c.2-.6.5-1,.8-1.4.4-.4.8-.7,1.3-1,.5-.2,1.1-.3,1.8-.3ZM75.9,201.7c-.8,0-1.4.2-1.8.7-.4.4-.7,1.1-.8,1.9h5c0-.4,0-.7-.2-1s-.3-.6-.4-.8c-.2-.2-.4-.4-.7-.5-.3-.1-.6-.2-1-.2Z"/>
    <path class="st0" d="M81.7,209.7v-9.1h1c.2,0,.4.1.4.3v1c.5-.4,1-.8,1.5-1.1.5-.3,1.1-.4,1.7-.4s.9,0,1.3.2c.4.2.7.4,1,.7.3.3.4.7.6,1.1.1.4.2.9.2,1.4v5.8h-1.6v-5.8c0-.7-.2-1.2-.5-1.6s-.8-.6-1.4-.6-.9.1-1.3.3c-.4.2-.8.5-1.1.9v6.7h-1.6Z"/>
    <path class="st0" d="M103.4,204.1c0,1.3.2,2.5.5,3.7.3,1.2.8,2.4,1.4,3.5,0,0,0,.1,0,.2s0,0,0,.1c0,0,0,.2,0,.2,0,0,0,.1-.2.1l-.7.4c-.5-.7-.8-1.4-1.1-2.1-.3-.7-.6-1.4-.8-2-.2-.7-.3-1.4-.4-2.1,0-.7-.1-1.4-.1-2.1s0-1.4.1-2.1c0-.7.2-1.4.4-2.1.2-.7.4-1.4.8-2,.3-.7.7-1.4,1.1-2.1l.7.4c0,0,.1,0,.2.1,0,0,0,.1,0,.2s0,.2,0,.3c-.6,1.1-1.1,2.2-1.4,3.5-.3,1.2-.5,2.5-.5,3.7Z"/>
    <path class="st0" d="M116.6,196.9v1.5h-4.2v11.4h-1.7v-11.4h-4.2v-1.5h10.1Z"/>
    <path class="st0" d="M120,200.5c.7,0,1.3.1,1.8.3.5.2,1,.5,1.4.9s.7.9.9,1.5c.2.6.3,1.2.3,1.9s-.1,1.4-.3,1.9c-.2.6-.5,1.1-.9,1.5s-.8.7-1.4.9c-.5.2-1.1.3-1.8.3s-1.3-.1-1.8-.3c-.5-.2-1-.5-1.4-.9s-.7-.9-.9-1.5c-.2-.6-.3-1.2-.3-1.9s.1-1.4.3-1.9c.2-.6.5-1.1.9-1.5s.8-.7,1.4-.9c.5-.2,1.1-.3,1.8-.3ZM120,208.6c.9,0,1.6-.3,2-.9.4-.6.7-1.4.7-2.5s-.2-1.9-.7-2.5c-.4-.6-1.1-.9-2-.9s-.9,0-1.2.2c-.3.2-.6.4-.8.7-.2.3-.4.7-.5,1.1-.1.4-.2.9-.2,1.5s0,1,.2,1.4c.1.4.3.8.5,1.1s.5.5.8.7c.3.2.7.2,1.2.2Z"/>
    <path class="st0" d="M128.1,196.5v13.3h-1.6v-13.3h1.6Z"/>
    <path class="st0" d="M132.2,204.1c0-1.3-.2-2.5-.5-3.7-.3-1.2-.8-2.4-1.4-3.5,0-.1,0-.2,0-.3s0-.2,0-.2c0,0,0-.1.2-.1l.7-.4c.4.7.8,1.4,1.1,2.1.3.7.6,1.4.8,2,.2.7.3,1.4.4,2.1,0,.7.1,1.4.1,2.1s0,1.4-.1,2.1c0,.7-.2,1.4-.4,2.1-.2.7-.5,1.4-.8,2s-.7,1.4-1.1,2.1l-.7-.4c0,0-.1,0-.2-.1,0,0,0-.1,0-.2s0,0,0-.1c0,0,0-.1,0-.2.6-1.1,1.1-2.3,1.4-3.5s.5-2.5.5-3.7Z"/>
  </g>
  <g>
    <path class="st0" d="M10.1,145.6v1.4H3.9v4.5h5.3v1.4H3.9v5.5h-1.8v-12.9h7.9Z"/>
    <path class="st0" d="M15.6,150.3h7.7v1.2h-7.7v-1.2ZM15.6,153.3h7.7v1.2h-7.7v-1.2Z"/>
    <path class="st0" d="M30.7,157.3h2.8v-8.8c0-.3,0-.5,0-.8l-2.3,2c0,0-.1,0-.2.1,0,0-.1,0-.2,0,0,0-.2,0-.2,0,0,0-.1,0-.2-.1l-.5-.7,3.8-3.3h1.3v11.7h2.5v1.2h-6.9v-1.2Z"/>
    <path class="st0" d="M48.5,152.1c0,1.1-.1,2.1-.4,2.9-.2.8-.6,1.5-1,2s-.9.9-1.5,1.2c-.6.3-1.2.4-1.8.4s-1.3-.1-1.8-.4c-.6-.3-1.1-.7-1.5-1.2-.4-.5-.8-1.2-1-2-.2-.8-.4-1.8-.4-2.9s.1-2.1.4-2.9c.2-.8.6-1.5,1-2.1.4-.5.9-.9,1.5-1.2s1.2-.4,1.8-.4,1.3.1,1.8.4c.6.3,1.1.7,1.5,1.2s.8,1.2,1,2.1c.2.8.4,1.8.4,2.9ZM46.8,152.1c0-1,0-1.8-.2-2.5s-.4-1.2-.7-1.6c-.3-.4-.6-.7-1-.9-.4-.2-.7-.3-1.1-.3s-.8,0-1.1.3c-.4.2-.7.5-1,.9-.3.4-.5.9-.7,1.6s-.2,1.5-.2,2.5,0,1.8.2,2.5c.2.7.4,1.2.7,1.6s.6.7,1,.9c.4.2.7.3,1.1.3s.8,0,1.1-.3c.4-.2.7-.5,1-.9.3-.4.5-.9.7-1.6.2-.7.2-1.5.2-2.5Z"/>
    <path class="st0" d="M58.9,152.1c0,1.1-.1,2.1-.4,2.9-.2.8-.6,1.5-1,2s-.9.9-1.5,1.2c-.6.3-1.2.4-1.8.4s-1.3-.1-1.8-.4c-.6-.3-1.1-.7-1.5-1.2-.4-.5-.8-1.2-1-2-.2-.8-.4-1.8-.4-2.9s.1-2.1.4-2.9c.2-.8.6-1.5,1-2.1.4-.5.9-.9,1.5-1.2s1.2-.4,1.8-.4,1.3.1,1.8.4c.6.3,1.1.7,1.5,1.2s.8,1.2,1,2.1c.2.8.4,1.8.4,2.9ZM57.2,152.1c0-1,0-1.8-.2-2.5s-.4-1.2-.7-1.6c-.3-.4-.6-.7-1-.9-.4-.2-.7-.3-1.1-.3s-.8,0-1.1.3c-.4.2-.7.5-1,.9-.3.4-.5.9-.7,1.6s-.2,1.5-.2,2.5,0,1.8.2,2.5c.2.7.4,1.2.7,1.6s.6.7,1,.9c.4.2.7.3,1.1.3s.8,0,1.1-.3c.4-.2.7-.5,1-.9.3-.4.5-.9.7-1.6.2-.7.2-1.5.2-2.5Z"/>
    <path class="st0" d="M69.3,152.1c0,1.1-.1,2.1-.4,2.9-.2.8-.6,1.5-1,2s-.9.9-1.5,1.2c-.6.3-1.2.4-1.8.4s-1.3-.1-1.8-.4c-.6-.3-1.1-.7-1.5-1.2-.4-.5-.8-1.2-1-2-.2-.8-.4-1.8-.4-2.9s.1-2.1.4-2.9c.2-.8.6-1.5,1-2.1.4-.5.9-.9,1.5-1.2s1.2-.4,1.8-.4,1.3.1,1.8.4c.6.3,1.1.7,1.5,1.2s.8,1.2,1,2.1c.2.8.4,1.8.4,2.9ZM67.7,152.1c0-1,0-1.8-.2-2.5s-.4-1.2-.7-1.6c-.3-.4-.6-.7-1-.9-.4-.2-.7-.3-1.1-.3s-.8,0-1.1.3c-.4.2-.7.5-1,.9-.3.4-.5.9-.7,1.6s-.2,1.5-.2,2.5,0,1.8.2,2.5c.2.7.4,1.2.7,1.6s.6.7,1,.9c.4.2.7.3,1.1.3s.8,0,1.1-.3c.4-.2.7-.5,1-.9.3-.4.5-.9.7-1.6.2-.7.2-1.5.2-2.5Z"/>
    <path class="st0" d="M76.3,145.2v7.8h.4c.1,0,.2,0,.3,0s.2-.1.3-.2l2.9-3.1c0,0,.2-.2.3-.2s.2,0,.4,0h1.5l-3.4,3.6c0,.1-.2.2-.2.3s-.2.1-.3.2c.1,0,.2.2.3.2,0,0,.2.2.2.3l3.6,4.5h-1.4c-.1,0-.2,0-.3,0,0,0-.2-.1-.3-.2l-3-3.7c0-.1-.2-.2-.3-.2s-.2,0-.4,0h-.5v4.4h-1.6v-13.3h1.6Z"/>
    <path class="st0" d="M87.2,149.2c.4,0,.8,0,1.1.1.3,0,.7.2.9.4h2.5v.6c0,.2-.1.3-.4.4h-1c.2.5.3,1,.3,1.4s0,.8-.3,1.2c-.2.4-.4.7-.7.9-.3.3-.7.5-1.1.6-.4.1-.9.2-1.4.2s-.8,0-1.2-.2c-.2.1-.3.3-.4.4,0,.1-.1.3-.1.4,0,.2,0,.4.3.5.2.1.4.2.7.2.3,0,.6,0,1,0h1.1c.4,0,.8,0,1.1.1.4,0,.7.2,1,.3s.5.4.7.6c.2.3.3.6.3,1s0,.8-.3,1.1c-.2.4-.5.7-.8,1-.4.3-.8.5-1.3.7-.5.2-1.1.3-1.8.3s-1.2,0-1.8-.2c-.5-.1-.9-.3-1.2-.5s-.6-.5-.7-.8c-.2-.3-.2-.6-.2-.9,0-.5.1-.8.4-1.1.3-.3.7-.6,1.2-.8-.3-.1-.5-.3-.6-.5s-.2-.5-.2-.8,0-.3,0-.4c0-.1.1-.3.2-.4s.2-.3.4-.4c.1-.1.3-.2.5-.3-.5-.3-.8-.6-1.1-1-.3-.4-.4-.9-.4-1.5s0-.8.3-1.2c.2-.4.4-.7.7-.9.3-.3.7-.5,1.1-.6.4-.1.9-.2,1.4-.2ZM90,159c0-.2,0-.4-.2-.6s-.3-.2-.5-.3c-.2,0-.5-.1-.7-.2-.3,0-.6,0-.9,0h-1c-.3,0-.6,0-.9-.1-.3.2-.6.4-.8.6-.2.2-.3.5-.3.8s0,.4.2.6c.1.2.3.3.5.5.2.1.5.2.8.3.3,0,.7.1,1.2.1s.8,0,1.2-.1.6-.2.9-.3c.2-.1.4-.3.5-.5.1-.2.2-.4.2-.7ZM87.2,154c.3,0,.6,0,.9-.1.2,0,.5-.2.6-.4.2-.2.3-.4.4-.6,0-.2.1-.5.1-.7,0-.6-.2-1-.5-1.3-.3-.3-.8-.5-1.5-.5s-1.1.2-1.5.5c-.3.3-.5.8-.5,1.3s0,.5.1.7c0,.2.2.4.4.6.2.2.4.3.6.4.2,0,.5.1.8.1Z"/>
    <path class="st0" d="M93.4,158.7c0,.2-.2.4-.4.5-.2.1-.3.2-.5.2h-.7l5.4-13.5c0-.2.2-.3.3-.4.1-.1.3-.2.5-.2h.7l-5.4,13.4Z"/>
    <path class="st0" d="M100,158.5v-13.3h1.6v5.4c.4-.4.8-.7,1.3-1,.5-.2,1-.4,1.6-.4s.9,0,1.3.2c.4.2.7.4,1,.7.3.3.4.7.6,1.1.1.4.2.9.2,1.4v5.8h-1.6v-5.8c0-.7-.2-1.2-.5-1.6-.3-.4-.8-.6-1.4-.6s-.9.1-1.3.3c-.4.2-.8.5-1.1.9v6.7h-1.6Z"/>
  </g>
  <line class="st2" x1="31.7" y1="170.1" x2="31.7" y2="170.1"/>
  <g>
    <path class="st0" d="M268.7,72.5c0,1.1-.1,2.1-.4,2.9-.2.8-.6,1.5-1,2s-.9.9-1.5,1.2c-.6.3-1.2.4-1.8.4s-1.3-.1-1.8-.4c-.6-.3-1.1-.7-1.5-1.2s-.8-1.2-1-2c-.2-.8-.4-1.8-.4-2.9s.1-2.1.4-2.9c.2-.8.6-1.5,1-2.1s.9-.9,1.5-1.2c.6-.3,1.2-.4,1.8-.4s1.3.1,1.8.4c.6.3,1.1.7,1.5,1.2s.8,1.2,1,2.1c.2.8.4,1.8.4,2.9ZM267.1,72.5c0-1,0-1.8-.2-2.5s-.4-1.2-.7-1.6c-.3-.4-.6-.7-1-.9-.4-.2-.7-.3-1.1-.3s-.8,0-1.1.3c-.4.2-.7.5-1,.9-.3.4-.5.9-.7,1.6s-.2,1.5-.2,2.5,0,1.8.2,2.5c.2.7.4,1.2.7,1.6.3.4.6.7,1,.9.4.2.7.3,1.1.3s.8,0,1.1-.3c.4-.2.7-.5,1-.9.3-.4.5-.9.7-1.6.2-.7.2-1.5.2-2.5Z"/>
    <path class="st0" d="M270.1,77.9c0-.2,0-.3,0-.4,0-.1.1-.3.2-.4,0-.1.2-.2.4-.2.1,0,.3,0,.4,0s.3,0,.4,0c.1,0,.3.1.4.2.1.1.2.2.2.4,0,.1,0,.3,0,.4s0,.3,0,.4c0,.1-.1.3-.2.4-.1.1-.2.2-.4.2-.1,0-.3,0-.4,0s-.3,0-.4,0c-.1,0-.3-.1-.4-.2,0-.1-.2-.2-.2-.4,0-.1,0-.3,0-.4Z"/>
    <path class="st0" d="M283,72.5c0,1.1-.1,2.1-.4,2.9-.2.8-.6,1.5-1,2s-.9.9-1.5,1.2c-.6.3-1.2.4-1.8.4s-1.3-.1-1.8-.4c-.6-.3-1.1-.7-1.5-1.2s-.8-1.2-1-2c-.2-.8-.4-1.8-.4-2.9s.1-2.1.4-2.9c.2-.8.6-1.5,1-2.1s.9-.9,1.5-1.2c.6-.3,1.2-.4,1.8-.4s1.3.1,1.8.4c.6.3,1.1.7,1.5,1.2s.8,1.2,1,2.1c.2.8.4,1.8.4,2.9ZM281.3,72.5c0-1,0-1.8-.2-2.5s-.4-1.2-.7-1.6c-.3-.4-.6-.7-1-.9-.4-.2-.7-.3-1.1-.3s-.8,0-1.1.3c-.4.2-.7.5-1,.9-.3.4-.5.9-.7,1.6s-.2,1.5-.2,2.5,0,1.8.2,2.5c.2.7.4,1.2.7,1.6.3.4.6.7,1,.9.4.2.7.3,1.1.3s.8,0,1.1-.3c.4-.2.7-.5,1-.9.3-.4.5-.9.7-1.6.2-.7.2-1.5.2-2.5Z"/>
    <path class="st0" d="M292.3,66.7c0,.2,0,.4-.2.6-.1.1-.4.2-.7.2h-4.1l-.6,3.4c.7-.1,1.3-.2,1.9-.2s1.3,0,1.8.3c.5.2.9.5,1.3.8.3.3.6.8.8,1.2s.3,1,.3,1.5-.1,1.3-.4,1.9c-.2.6-.6,1-1,1.4-.4.4-.9.7-1.5.9-.6.2-1.2.3-1.8.3s-.7,0-1.1-.1c-.3,0-.7-.2-1-.3s-.6-.3-.8-.4c-.3-.2-.5-.3-.7-.5l.5-.7c.1-.2.3-.2.4-.2s.2,0,.4.1c.2,0,.3.2.6.3.2.1.5.2.8.3.3,0,.6.1,1,.1s.9,0,1.2-.2c.4-.1.7-.3.9-.6s.5-.6.6-1c.1-.4.2-.8.2-1.3s0-.8-.2-1.1c-.1-.3-.3-.6-.5-.8-.2-.2-.5-.4-.9-.5-.4-.1-.8-.2-1.2-.2s-.7,0-1,0c-.3,0-.7.1-1.1.3l-1-.3,1-6h6.1v.7Z"/>
    <path class="st0" d="M307.8,66v1.5h-4.2v11.4h-1.7v-11.4h-4.2v-1.5h10.1Z"/>
    <path class="st0" d="M311.2,69.6c.7,0,1.3.1,1.8.3.5.2,1,.5,1.4.9s.7.9.9,1.5c.2.6.3,1.2.3,1.9s-.1,1.4-.3,1.9c-.2.6-.5,1.1-.9,1.5-.4.4-.8.7-1.4.9-.5.2-1.1.3-1.8.3s-1.3-.1-1.8-.3c-.5-.2-1-.5-1.4-.9-.4-.4-.7-.9-.9-1.5-.2-.6-.3-1.2-.3-1.9s.1-1.4.3-1.9.5-1.1.9-1.5.8-.7,1.4-.9c.5-.2,1.1-.3,1.8-.3ZM311.2,77.8c.9,0,1.6-.3,2-.9.4-.6.7-1.4.7-2.5s-.2-1.9-.7-2.5c-.4-.6-1.1-.9-2-.9s-.9,0-1.2.2c-.3.2-.6.4-.8.7-.2.3-.4.7-.5,1.1-.1.4-.2.9-.2,1.5s0,1,.2,1.4c.1.4.3.8.5,1.1.2.3.5.5.8.7.3.2.7.2,1.2.2Z"/>
    <path class="st0" d="M319.3,65.6v13.3h-1.6v-13.3h1.6Z"/>
  </g>
  <g>
    <path class="st0" d="M172.5,140.9c-1,0-1.8-.2-2.6-.5-.8-.3-1.5-.7-2-1.3-.6-.6-1-1.2-1.3-2-.3-.8-.5-1.6-.5-2.6v-4.8h12.9v4.8c0,.9-.2,1.8-.5,2.6-.3.8-.7,1.4-1.3,2-.6.6-1.2,1-2,1.3-.8.3-1.7.5-2.6.5ZM172.5,139.1c.8,0,1.5-.1,2.1-.3s1.2-.5,1.6-.9c.4-.4.8-.9,1-1.4.2-.6.3-1.2.3-1.9v-3.1h-10.1v3.1c0,.7.1,1.3.3,1.9.2.6.6,1,1,1.4.4.4,1,.7,1.6.9s1.3.3,2.1.3Z"/>
    <path class="st0" d="M175.3,146.7c0,.5,0,1-.3,1.5-.2.5-.4.9-.8,1.2s-.8.6-1.3.8c-.5.2-1.1.3-1.7.3s-.4,0-.5,0-.1-.2-.1-.3v-6.1c-.6,0-1.1,0-1.5.2-.4.1-.8.3-1.1.6s-.5.6-.6.9c-.1.3-.2.7-.2,1.2s0,.7.1,1,.2.5.3.8c.1.2.2.4.3.5,0,.1.1.3.1.4s0,.2-.2.3l-.6.5c-.2-.2-.4-.4-.6-.7s-.3-.6-.4-.9c-.1-.3-.2-.6-.3-1,0-.3,0-.7,0-1,0-.6.1-1.2.3-1.7s.5-1,.9-1.4c.4-.4.9-.7,1.5-.9.6-.2,1.3-.3,2.1-.3s1.2,0,1.8.3c.6.2,1,.5,1.4.8.4.4.7.8,1,1.3.2.5.3,1.1.3,1.8ZM174.1,146.7c0-.8-.2-1.4-.7-1.8-.4-.4-1.1-.7-1.9-.8v5c.4,0,.7,0,1-.2.3-.1.6-.3.8-.5.2-.2.4-.4.5-.7s.2-.6.2-1Z"/>
    <path class="st0" d="M173.7,157.7c-.1,0-.2-.2-.2-.3s0-.2,0-.3c0-.1.1-.3.2-.4s.2-.4.2-.6c0-.2.1-.5.1-.8s0-.5-.1-.7c0-.2-.2-.4-.3-.6-.1-.2-.3-.3-.4-.4-.2,0-.3-.1-.5-.1s-.4,0-.6.2c-.2.1-.3.3-.4.5-.1.2-.2.5-.3.8,0,.3-.2.6-.3.9,0,.3-.2.6-.3.9s-.3.5-.5.8c-.2.2-.4.4-.7.5s-.6.2-.9.2-.8,0-1.2-.2c-.4-.2-.7-.4-.9-.7-.3-.3-.5-.7-.6-1.1-.2-.4-.2-.9-.2-1.5s.1-1.2.3-1.7c.2-.5.5-1,.8-1.3l.6.4c0,0,.1.1.2.2,0,0,0,.2,0,.3s0,.2-.1.3c0,.1-.2.3-.3.4-.1.2-.2.4-.3.6s-.1.5-.1.9,0,.6.1.8.2.4.3.6.3.3.5.3c.2,0,.4.1.6.1s.5,0,.6-.2c.2-.1.3-.3.4-.5.1-.2.2-.5.3-.8,0-.3.2-.6.3-.9,0-.3.2-.6.3-.9.1-.3.3-.5.5-.8.2-.2.4-.4.7-.5.3-.1.6-.2,1-.2s.7,0,1,.2c.3.1.6.4.8.6.2.3.4.6.6,1,.1.4.2.9.2,1.4s0,1.1-.3,1.6c-.2.5-.4.9-.8,1.2l-.6-.4Z"/>
    <path class="st0" d="M165.9,163.1c0-.7.2-1.3.6-1.7.4-.4,1-.6,1.7-.6h5.6v-1.1c0,0,0-.2,0-.2,0,0,.1,0,.3,0h.6l.2,1.5,2.8.4c0,0,.2,0,.2.1,0,0,0,.2,0,.3v.8h-3.1v2.6h-1.2v-2.6h-5.5c-.4,0-.7,0-.9.3s-.3.4-.3.7,0,.3,0,.4,0,.2.1.3c0,0,.1.2.1.2,0,0,0,.1,0,.2,0,0,0,.2-.2.2l-.8.5c-.3-.3-.5-.6-.6-1-.1-.4-.2-.8-.2-1.2Z"/>
    <path class="st0" d="M175.2,168.8h-9.1v-1.6h9.1v1.6ZM178,169.2c-.2,0-.3,0-.4,0-.1,0-.3-.1-.4-.3-.1-.1-.2-.2-.2-.4,0-.1,0-.3,0-.4s0-.3,0-.4c0-.1.1-.3.2-.4.1-.1.2-.2.4-.2.1,0,.3,0,.4,0s.3,0,.4,0c.1,0,.3.1.4.2s.2.2.2.4c0,.1,0,.3,0,.4s0,.3,0,.4c0,.1-.1.3-.2.4s-.2.2-.4.3c-.1,0-.3,0-.4,0Z"/>
    <path class="st0" d="M179.3,173.4h-13.3v-1.6h13.3v1.6Z"/>
    <path class="st0" d="M179.3,178h-13.3v-1.6h13.3v1.6Z"/>
    <path class="st0" d="M166.1,187.5v-.7c0-.2,0-.3,0-.4,0,0,.1-.2.3-.2l.8-.2c-.2-.2-.4-.5-.6-.7-.2-.2-.3-.5-.4-.7-.1-.3-.2-.5-.3-.8,0-.3,0-.6,0-.9s0-.7.1-1c0-.3.2-.6.4-.8.2-.2.5-.4.8-.5s.7-.2,1.1-.2.7,0,1,.3.6.5.9,1c.3.4.5,1,.6,1.7.2.7.2,1.6.2,2.6h.7c.7,0,1.3-.2,1.6-.5.4-.3.5-.8.5-1.3s0-.7-.1-1c0-.3-.2-.5-.3-.7-.1-.2-.2-.4-.3-.5,0-.1-.1-.3-.1-.4s0-.2,0-.3c0,0,.1-.1.2-.2l.5-.3c.5.5.8,1,1.1,1.6.2.6.4,1.2.4,1.9s0,1-.3,1.4c-.2.4-.4.7-.7,1-.3.3-.7.5-1.1.6-.4.1-.9.2-1.4.2h-5.8ZM167,183.4c0,.3,0,.5,0,.8s.1.5.2.7c.1.2.2.4.4.6.1.2.3.4.5.6h1.9c0-.7,0-1.4-.1-1.9,0-.5-.2-.9-.4-1.3-.2-.3-.3-.6-.5-.7-.2-.1-.4-.2-.7-.2s-.5,0-.6.1c-.2,0-.3.2-.4.3-.1.1-.2.3-.2.5,0,.2,0,.4,0,.6Z"/>
    <path class="st0" d="M165.9,192.7c0-.7.2-1.3.6-1.7.4-.4,1-.6,1.7-.6h5.6v-1.1c0,0,0-.2,0-.2,0,0,.1,0,.3,0h.6l.2,1.5,2.8.4c0,0,.2,0,.2.1,0,0,0,.2,0,.3v.8h-3.1v2.6h-1.2v-2.6h-5.5c-.4,0-.7,0-.9.3s-.3.4-.3.7,0,.3,0,.4,0,.2.1.3c0,0,.1.2.1.2,0,0,0,.1,0,.2,0,0,0,.2-.2.2l-.8.5c-.3-.3-.5-.6-.6-1-.1-.4-.2-.8-.2-1.2Z"/>
    <path class="st0" d="M175.2,198.5h-9.1v-1.6h9.1v1.6ZM178,198.8c-.2,0-.3,0-.4,0-.1,0-.3-.1-.4-.3-.1-.1-.2-.2-.2-.4,0-.1,0-.3,0-.4s0-.3,0-.4c0-.1.1-.3.2-.4.1-.1.2-.2.4-.2.1,0,.3,0,.4,0s.3,0,.4,0c.1,0,.3.1.4.2s.2.2.2.4c0,.1,0,.3,0,.4s0,.3,0,.4c0,.1-.1.3-.2.4s-.2.2-.4.3c-.1,0-.3,0-.4,0Z"/>
    <path class="st0" d="M175.3,204.9c0,.5,0,1-.3,1.5-.2.5-.4.9-.8,1.2s-.8.6-1.3.8c-.5.2-1.1.3-1.7.3s-.4,0-.5,0-.1-.2-.1-.3v-6.1c-.6,0-1.1,0-1.5.2-.4.1-.8.3-1.1.6s-.5.6-.6.9c-.1.3-.2.7-.2,1.2s0,.7.1,1,.2.5.3.8c.1.2.2.4.3.5,0,.1.1.3.1.4s0,.2-.2.3l-.6.5c-.2-.2-.4-.4-.6-.7s-.3-.6-.4-.9c-.1-.3-.2-.6-.3-1,0-.3,0-.7,0-1,0-.6.1-1.2.3-1.7s.5-1,.9-1.4c.4-.4.9-.7,1.5-.9.6-.2,1.3-.3,2.1-.3s1.2,0,1.8.3c.6.2,1,.5,1.4.8.4.4.7.8,1,1.3.2.5.3,1.1.3,1.8ZM174.1,204.9c0-.8-.2-1.4-.7-1.8-.4-.4-1.1-.7-1.9-.8v5c.4,0,.7,0,1-.2.3-.1.6-.3.8-.5.2-.2.4-.4.5-.7s.2-.6.2-1Z"/>
  </g>
  <path class="st0" d="M285,99v5.4h-1.7v-12.9h3.6c.8,0,1.5,0,2.1.2s1.1.4,1.5.7.7.7.9,1.1c.2.4.3.9.3,1.5s0,.9-.2,1.3c-.1.4-.4.8-.6,1.1s-.6.6-1,.8c-.4.2-.8.4-1.3.5.2.1.4.3.6.5l3.8,5.1h-1.5c-.3,0-.6-.1-.7-.4l-3.3-4.6c-.1-.1-.2-.2-.3-.3s-.3,0-.5,0h-1.3ZM285,97.7h1.8c.5,0,1,0,1.3-.2.4-.1.7-.3,1-.5.3-.2.5-.5.6-.8s.2-.7.2-1c0-.8-.3-1.3-.8-1.7s-1.3-.6-2.3-.6h-1.9v4.9Z"/>
  <path class="st0" d="M412.5,98c0,1-.2,1.8-.5,2.6-.3.8-.7,1.5-1.3,2-.6.6-1.2,1-2,1.3-.8.3-1.6.5-2.6.5h-4.8v-12.9h4.8c.9,0,1.8.2,2.6.5.8.3,1.4.7,2,1.3.6.6,1,1.2,1.3,2,.3.8.5,1.7.5,2.6ZM410.7,98c0-.8-.1-1.5-.3-2.1s-.5-1.2-.9-1.6c-.4-.4-.9-.8-1.4-1-.6-.2-1.2-.3-1.9-.3h-3.1v10.1h3.1c.7,0,1.3-.1,1.9-.3.6-.2,1-.6,1.4-1,.4-.4.7-1,.9-1.6s.3-1.3.3-2.1Z"/>
  <path class="st0" d="M401.3,327.8v-12.9h4.1c.8,0,1.5,0,2,.2s1,.4,1.4.7.6.6.8,1.1c.2.4.3.9.3,1.4s0,.6-.1.9c0,.3-.2.6-.4.8-.2.3-.5.5-.8.7-.3.2-.7.4-1.1.5.9.2,1.7.5,2.1,1,.5.5.7,1.1.7,1.9s-.1,1-.3,1.5-.5.8-.9,1.2c-.4.3-.9.6-1.4.8-.6.2-1.2.3-1.9.3h-4.6ZM403.1,320.7h2.3c.5,0,.9,0,1.3-.2.4-.1.7-.3.9-.5.2-.2.4-.4.5-.7.1-.3.2-.6.2-.9,0-.8-.2-1.3-.7-1.7-.5-.4-1.2-.5-2.1-.5h-2.4v4.4ZM403.1,321.9v4.5h2.8c.5,0,.9,0,1.3-.2.4-.1.7-.3.9-.5.2-.2.4-.5.5-.7.1-.3.2-.6.2-.9,0-.7-.2-1.2-.7-1.6-.5-.4-1.2-.6-2.1-.6h-2.8Z"/>
  <g>
    <path class="st0" d="M377.5,272.1c0,1.1-.1,2.1-.4,2.9-.2.8-.6,1.5-1,2s-.9.9-1.5,1.2c-.6.3-1.2.4-1.8.4s-1.3-.1-1.8-.4c-.6-.3-1.1-.7-1.5-1.2s-.8-1.2-1-2c-.2-.8-.4-1.8-.4-2.9s.1-2.1.4-2.9c.2-.8.6-1.5,1-2.1s.9-.9,1.5-1.2c.6-.3,1.2-.4,1.8-.4s1.3.1,1.8.4c.6.3,1.1.7,1.5,1.2s.8,1.2,1,2.1c.2.8.4,1.8.4,2.9ZM375.8,272.1c0-1,0-1.8-.2-2.5s-.4-1.2-.7-1.6c-.3-.4-.6-.7-1-.9-.4-.2-.7-.3-1.1-.3s-.8,0-1.1.3c-.4.2-.7.5-1,.9-.3.4-.5.9-.7,1.6s-.2,1.5-.2,2.5,0,1.8.2,2.5.4,1.2.7,1.6c.3.4.6.7,1,.9.4.2.7.3,1.1.3s.8,0,1.1-.3c.4-.2.7-.5,1-.9.3-.4.5-.9.7-1.6s.2-1.5.2-2.5Z"/>
    <path class="st0" d="M378.8,277.6c0-.2,0-.3,0-.4,0-.1.1-.3.2-.4,0-.1.2-.2.4-.2.1,0,.3,0,.4,0s.3,0,.4,0c.1,0,.3.1.4.2.1.1.2.2.2.4,0,.1,0,.3,0,.4s0,.3,0,.4c0,.1-.1.3-.2.4s-.2.2-.4.2c-.1,0-.3,0-.4,0s-.3,0-.4,0c-.1,0-.3-.1-.4-.2,0-.1-.2-.2-.2-.4,0-.1,0-.3,0-.4Z"/>
    <path class="st0" d="M391.7,272.1c0,1.1-.1,2.1-.4,2.9-.2.8-.6,1.5-1,2s-.9.9-1.5,1.2c-.6.3-1.2.4-1.8.4s-1.3-.1-1.8-.4c-.6-.3-1.1-.7-1.5-1.2s-.8-1.2-1-2c-.2-.8-.4-1.8-.4-2.9s.1-2.1.4-2.9c.2-.8.6-1.5,1-2.1s.9-.9,1.5-1.2c.6-.3,1.2-.4,1.8-.4s1.3.1,1.8.4c.6.3,1.1.7,1.5,1.2s.8,1.2,1,2.1c.2.8.4,1.8.4,2.9ZM390.1,272.1c0-1,0-1.8-.2-2.5s-.4-1.2-.7-1.6c-.3-.4-.6-.7-1-.9-.4-.2-.7-.3-1.1-.3s-.8,0-1.1.3c-.4.2-.7.5-1,.9-.3.4-.5.9-.7,1.6s-.2,1.5-.2,2.5,0,1.8.2,2.5.4,1.2.7,1.6c.3.4.6.7,1,.9.4.2.7.3,1.1.3s.8,0,1.1-.3c.4-.2.7-.5,1-.9.3-.4.5-.9.7-1.6s.2-1.5.2-2.5Z"/>
    <path class="st0" d="M400.4,273.9h2v.9c0,0,0,.2,0,.2,0,0-.1,0-.3,0h-1.6v3.4h-1.4v-3.4h-5.7c-.1,0-.2,0-.3-.1,0,0-.1-.2-.2-.3l-.2-.8,6.3-8.3h1.5v8.2ZM399,268.6c0-.2,0-.3,0-.5,0-.2,0-.4,0-.6l-4.7,6.4h4.6v-5.3Z"/>
    <path class="st0" d="M407.7,278.6v-12.9h4.1c.8,0,1.5,0,2,.2s1,.4,1.4.7.6.6.8,1.1c.2.4.3.9.3,1.4s0,.6-.1.9c0,.3-.2.6-.4.8-.2.3-.5.5-.8.7-.3.2-.7.4-1.1.5.9.2,1.7.5,2.1,1,.5.5.7,1.1.7,1.9s-.1,1-.3,1.5-.5.8-.9,1.2c-.4.3-.9.6-1.4.8-.6.2-1.2.3-1.9.3h-4.6ZM409.5,271.4h2.3c.5,0,.9,0,1.3-.2.4-.1.7-.3.9-.5.2-.2.4-.4.5-.7.1-.3.2-.6.2-.9,0-.8-.2-1.3-.7-1.7-.5-.4-1.2-.5-2.1-.5h-2.4v4.4ZM409.5,272.7v4.5h2.8c.5,0,.9,0,1.3-.2.4-.1.7-.3.9-.5.2-.2.4-.5.5-.7.1-.3.2-.6.2-.9,0-.7-.2-1.2-.7-1.6-.5-.4-1.2-.6-2.1-.6h-2.8Z"/>
    <path class="st0" d="M425.5,270.1c0,.1,0,.2,0,.3,0,.1,0,.2-.2.3l-4.9,6.6h5v1.3h-6.9v-.7c0,0,0-.2,0-.3s0-.2.2-.3l5-6.6h-4.9v-1.3h6.8v.7Z"/>
    <path class="st0" d="M377.5,293.7c0,1.1-.1,2.1-.4,2.9-.2.8-.6,1.5-1,2s-.9.9-1.5,1.2c-.6.3-1.2.4-1.8.4s-1.3-.1-1.8-.4c-.6-.3-1.1-.7-1.5-1.2s-.8-1.2-1-2c-.2-.8-.4-1.8-.4-2.9s.1-2.1.4-2.9c.2-.8.6-1.5,1-2.1s.9-.9,1.5-1.2c.6-.3,1.2-.4,1.8-.4s1.3.1,1.8.4c.6.3,1.1.7,1.5,1.2s.8,1.2,1,2.1c.2.8.4,1.8.4,2.9ZM375.8,293.7c0-1,0-1.8-.2-2.5s-.4-1.2-.7-1.6c-.3-.4-.6-.7-1-.9-.4-.2-.7-.3-1.1-.3s-.8,0-1.1.3c-.4.2-.7.5-1,.9-.3.4-.5.9-.7,1.6s-.2,1.5-.2,2.5,0,1.8.2,2.5.4,1.2.7,1.6c.3.4.6.7,1,.9.4.2.7.3,1.1.3s.8,0,1.1-.3c.4-.2.7-.5,1-.9.3-.4.5-.9.7-1.6s.2-1.5.2-2.5Z"/>
    <path class="st0" d="M378.8,299.2c0-.2,0-.3,0-.4,0-.1.1-.3.2-.4,0-.1.2-.2.4-.2.1,0,.3,0,.4,0s.3,0,.4,0c.1,0,.3.1.4.2.1.1.2.2.2.4,0,.1,0,.3,0,.4s0,.3,0,.4c0,.1-.1.3-.2.4s-.2.2-.4.2c-.1,0-.3,0-.4,0s-.3,0-.4,0c-.1,0-.3-.1-.4-.2,0-.1-.2-.2-.2-.4,0-.1,0-.3,0-.4Z"/>
    <path class="st0" d="M386.8,294.9c-.5,0-.9,0-1.4-.2-.4-.2-.8-.4-1.1-.7-.3-.3-.6-.7-.8-1.2-.2-.5-.3-1-.3-1.6s.1-1.1.3-1.6c.2-.5.5-.9.9-1.3.4-.4.8-.7,1.3-.9.5-.2,1.1-.3,1.7-.3s1.2.1,1.7.3c.5.2.9.5,1.3.9.4.4.6.8.8,1.3.2.5.3,1.1.3,1.7s0,.7-.1,1.1c0,.3-.2.7-.3,1s-.3.6-.5.9c-.2.3-.4.6-.6,1l-3.1,4.5c0,.1-.2.2-.3.3-.1,0-.3.1-.5.1h-1.5l3.9-5.1c.1-.2.3-.3.4-.5s.2-.3.3-.5c-.3.3-.7.5-1.1.6s-.9.2-1.3.2ZM390,291.1c0-.4,0-.8-.2-1.1s-.3-.6-.5-.8-.5-.4-.8-.5c-.3-.1-.7-.2-1-.2s-.8,0-1.1.2c-.3.1-.6.3-.8.5-.2.2-.4.5-.5.8-.1.3-.2.7-.2,1s0,.8.2,1.1c.1.3.3.6.5.8.2.2.5.4.8.5.3.1.7.2,1.1.2s.8,0,1.1-.2.6-.3.8-.6c.2-.2.4-.5.5-.8.1-.3.2-.6.2-1Z"/>
    <path class="st0" d="M398.1,292.3c.5,0,1,0,1.5.3.5.2.9.4,1.2.7.3.3.6.7.8,1.2.2.5.3,1,.3,1.6s-.1,1.1-.3,1.7c-.2.5-.5,1-.9,1.3s-.9.7-1.4.9c-.5.2-1.1.3-1.8.3s-1.2-.1-1.8-.3c-.5-.2-1-.5-1.3-.9-.4-.4-.7-.8-.9-1.4s-.3-1.2-.3-1.8.1-1.2.4-1.8c.3-.6.7-1.3,1.2-2.1l3.3-4.4c0-.1.2-.2.4-.3.1,0,.3-.1.5-.1h1.4l-4.5,5.7c.3-.2.6-.4,1-.5s.8-.2,1.2-.2ZM394.8,296.2c0,.4,0,.8.2,1.1s.3.6.5.9c.2.2.5.4.8.6s.7.2,1.1.2.8,0,1.2-.2c.3-.1.6-.3.9-.6s.4-.5.6-.9.2-.7.2-1.1,0-.8-.2-1.1c-.1-.3-.3-.6-.6-.9s-.5-.4-.9-.5-.7-.2-1.1-.2-.8,0-1.2.2c-.3.1-.6.3-.9.6s-.4.5-.6.9c-.1.3-.2.7-.2,1Z"/>
    <path class="st0" d="M416.5,287.3v1.5h-4.2v11.4h-1.7v-11.4h-4.2v-1.5h10.1Z"/>
    <path class="st0" d="M419.9,290.9c.7,0,1.3.1,1.8.3.5.2,1,.5,1.4.9.4.4.7.9.9,1.5.2.6.3,1.2.3,1.9s-.1,1.4-.3,1.9c-.2.6-.5,1.1-.9,1.5-.4.4-.8.7-1.4.9-.5.2-1.1.3-1.8.3s-1.3-.1-1.8-.3c-.5-.2-1-.5-1.4-.9-.4-.4-.7-.9-.9-1.5s-.3-1.2-.3-1.9.1-1.4.3-1.9c.2-.6.5-1.1.9-1.5.4-.4.8-.7,1.4-.9.5-.2,1.1-.3,1.8-.3ZM419.9,299c.9,0,1.6-.3,2-.9.4-.6.7-1.4.7-2.5s-.2-1.9-.7-2.5c-.4-.6-1.1-.9-2-.9s-.9,0-1.2.2c-.3.2-.6.4-.8.7-.2.3-.4.7-.5,1.1-.1.4-.2.9-.2,1.5s0,1,.2,1.4c.1.4.3.8.5,1.1.2.3.5.5.8.7.3.2.7.2,1.2.2Z"/>
    <path class="st0" d="M428,286.9v13.3h-1.6v-13.3h1.6Z"/>
  </g>
  <g>
    <path class="st0" d="M179.4,3.1h1.4c.2,0,.3,0,.4.1,0,0,.2.2.2.3l3.6,9.1c0,.2.2.4.2.7,0,.2.1.5.2.7,0-.3.1-.5.2-.7,0-.2.1-.5.2-.7l3.6-9.1c0-.1.1-.2.2-.3s.2-.1.4-.1h1.4l-5.3,12.9h-1.6l-5.3-12.9Z"/>
    <path class="st0" d="M196.4,7.8h7.7v1.2h-7.7v-1.2ZM196.4,10.8h7.7v1.2h-7.7v-1.2Z"/>
    <path class="st0" d="M214.2,16.1c-.6,0-1.2,0-1.8-.3-.5-.2-1-.4-1.4-.7-.4-.3-.7-.7-.9-1.2s-.3-1-.3-1.5c0-.8.2-1.5.6-2,.4-.5,1-.9,1.9-1.1-.7-.3-1.2-.6-1.5-1.1-.3-.5-.5-1.1-.5-1.8s0-.9.3-1.3c.2-.4.5-.8.8-1.1s.8-.5,1.2-.7c.5-.2,1-.3,1.6-.3s1.1,0,1.6.3c.5.2.9.4,1.2.7s.6.7.8,1.1c.2.4.3.9.3,1.3,0,.7-.2,1.3-.5,1.8s-.9.9-1.5,1.1c.8.2,1.4.6,1.9,1.1.4.5.6,1.2.6,2s-.1,1.1-.3,1.5-.5.8-.9,1.2c-.4.3-.8.6-1.4.7-.5.2-1.1.3-1.8.3ZM214.2,14.9c.4,0,.8,0,1.1-.2.3-.1.6-.3.8-.5.2-.2.4-.5.5-.8.1-.3.2-.6.2-1s0-.8-.2-1.1c-.1-.3-.3-.6-.6-.8-.2-.2-.5-.3-.9-.4-.3,0-.7-.1-1-.1s-.7,0-1,.1c-.3,0-.6.2-.9.4-.2.2-.4.5-.6.8-.1.3-.2.7-.2,1.1s0,.7.2,1c.1.3.3.6.5.8.2.2.5.4.8.5.3.1.7.2,1.1.2ZM214.2,8.7c.4,0,.8,0,1.1-.2.3-.1.5-.3.7-.5.2-.2.3-.5.4-.7,0-.3.1-.6.1-.9s0-.6-.1-.8c0-.3-.2-.5-.4-.7-.2-.2-.4-.4-.7-.5s-.6-.2-1-.2-.7,0-1,.2-.5.3-.7.5c-.2.2-.3.4-.4.7,0,.3-.1.5-.1.8s0,.6.1.9c0,.3.2.5.4.7.2.2.4.4.7.5s.7.2,1.1.2Z"/>
    <path class="st0" d="M229.3,9.6c0,1.1-.1,2.1-.4,2.9-.2.8-.6,1.5-1,2s-.9.9-1.5,1.2c-.6.3-1.2.4-1.8.4s-1.3-.1-1.8-.4c-.6-.3-1.1-.7-1.5-1.2s-.8-1.2-1-2c-.2-.8-.4-1.8-.4-2.9s.1-2.1.4-2.9c.2-.8.6-1.5,1-2.1s.9-.9,1.5-1.2c.6-.3,1.2-.4,1.8-.4s1.3.1,1.8.4c.6.3,1.1.7,1.5,1.2s.8,1.2,1,2.1c.2.8.4,1.8.4,2.9ZM227.6,9.6c0-1,0-1.8-.2-2.5s-.4-1.2-.7-1.6c-.3-.4-.6-.7-1-.9-.4-.2-.7-.3-1.1-.3s-.8,0-1.1.3c-.4.2-.7.5-1,.9-.3.4-.5.9-.7,1.6s-.2,1.5-.2,2.5,0,1.8.2,2.5c.2.7.4,1.2.7,1.6.3.4.6.7,1,.9.4.2.7.3,1.1.3s.8,0,1.1-.3c.4-.2.7-.5,1-.9.3-.4.5-.9.7-1.6.2-.7.2-1.5.2-2.5Z"/>
    <path class="st0" d="M239.7,9.6c0,1.1-.1,2.1-.4,2.9-.2.8-.6,1.5-1,2s-.9.9-1.5,1.2c-.6.3-1.2.4-1.8.4s-1.3-.1-1.8-.4c-.6-.3-1.1-.7-1.5-1.2s-.8-1.2-1-2c-.2-.8-.4-1.8-.4-2.9s.1-2.1.4-2.9c.2-.8.6-1.5,1-2.1s.9-.9,1.5-1.2c.6-.3,1.2-.4,1.8-.4s1.3.1,1.8.4c.6.3,1.1.7,1.5,1.2s.8,1.2,1,2.1c.2.8.4,1.8.4,2.9ZM238.1,9.6c0-1,0-1.8-.2-2.5s-.4-1.2-.7-1.6c-.3-.4-.6-.7-1-.9-.4-.2-.7-.3-1.1-.3s-.8,0-1.1.3c-.4.2-.7.5-1,.9-.3.4-.5.9-.7,1.6s-.2,1.5-.2,2.5,0,1.8.2,2.5c.2.7.4,1.2.7,1.6.3.4.6.7,1,.9.4.2.7.3,1.1.3s.8,0,1.1-.3c.4-.2.7-.5,1-.9.3-.4.5-.9.7-1.6.2-.7.2-1.5.2-2.5Z"/>
    <path class="st0" d="M246.7,2.7v7.8h.4c.1,0,.2,0,.3,0,0,0,.2-.1.3-.2l2.9-3.1c0,0,.2-.2.3-.2,0,0,.2,0,.4,0h1.5l-3.4,3.6c0,.1-.2.2-.2.3s-.2.1-.3.2c.1,0,.2.2.3.2,0,0,.2.2.2.3l3.6,4.5h-1.4c-.1,0-.2,0-.3,0,0,0-.2-.1-.3-.2l-3-3.7c0-.1-.2-.2-.3-.2s-.2,0-.4,0h-.5v4.4h-1.6V2.7h1.6Z"/>
    <path class="st0" d="M257.6,6.7c.4,0,.8,0,1.1.1.3,0,.7.2.9.4h2.5v.6c0,.2-.1.3-.4.4h-1c.2.5.3,1,.3,1.4s0,.8-.3,1.2c-.2.4-.4.7-.7.9-.3.3-.7.5-1.1.6-.4.1-.9.2-1.4.2s-.8,0-1.2-.2c-.2.1-.3.3-.4.4,0,.1-.1.3-.1.4,0,.2,0,.4.3.5.2.1.4.2.7.2.3,0,.6,0,1,0h1.1c.4,0,.8,0,1.1.1.4,0,.7.2,1,.3s.5.4.7.6c.2.3.3.6.3,1s0,.8-.3,1.1c-.2.4-.5.7-.8,1-.4.3-.8.5-1.3.7-.5.2-1.1.3-1.8.3s-1.2,0-1.8-.2c-.5-.1-.9-.3-1.2-.5-.3-.2-.6-.5-.7-.8-.2-.3-.2-.6-.2-.9,0-.5.1-.8.4-1.1.3-.3.7-.6,1.2-.8-.3-.1-.5-.3-.6-.5s-.2-.5-.2-.8,0-.3,0-.4c0-.1.1-.3.2-.4,0-.1.2-.3.4-.4.1-.1.3-.2.5-.3-.5-.3-.8-.6-1.1-1s-.4-.9-.4-1.5,0-.8.3-1.2c.2-.4.4-.7.7-.9.3-.3.7-.5,1.1-.6s.9-.2,1.4-.2ZM260.4,16.5c0-.2,0-.4-.2-.6s-.3-.2-.5-.3c-.2,0-.5-.1-.7-.2-.3,0-.6,0-.9,0h-1c-.3,0-.6,0-.9-.1-.3.2-.6.4-.8.6-.2.2-.3.5-.3.8s0,.4.2.6c.1.2.3.3.5.5.2.1.5.2.8.3.3,0,.7.1,1.2.1s.8,0,1.2-.1.6-.2.9-.3c.2-.1.4-.3.5-.5.1-.2.2-.4.2-.7ZM257.6,11.5c.3,0,.6,0,.9-.1.2,0,.5-.2.6-.4.2-.2.3-.4.4-.6,0-.2.1-.5.1-.7,0-.6-.2-1-.5-1.3s-.8-.5-1.5-.5-1.1.2-1.5.5-.5.8-.5,1.3,0,.5.1.7c0,.2.2.4.4.6.2.2.4.3.6.4.2,0,.5.1.8.1Z"/>
    <path class="st0" d="M263.8,16.2c0,.2-.2.4-.4.5-.2.1-.3.2-.5.2h-.7l5.4-13.5c0-.2.2-.3.3-.4s.3-.2.5-.2h.7l-5.4,13.4Z"/>
    <path class="st0" d="M270.4,16V2.7h1.6v5.4c.4-.4.8-.7,1.3-1,.5-.2,1-.4,1.6-.4s.9,0,1.3.2c.4.2.7.4,1,.7.3.3.4.7.6,1.1.1.4.2.9.2,1.4v5.8h-1.6v-5.8c0-.7-.2-1.2-.5-1.6-.3-.4-.8-.6-1.4-.6s-.9.1-1.3.3c-.4.2-.8.5-1.1.9v6.7h-1.6Z"/>
  </g>
  <path class="st0" d="M318.4,24.8c0,0,.2,0,.3.1l.7.7c-.5.6-1.2,1.1-1.9,1.4s-1.7.5-2.7.5-1.8-.2-2.5-.5c-.8-.3-1.4-.8-1.9-1.3s-.9-1.3-1.2-2.1c-.3-.8-.4-1.7-.4-2.7s.2-1.9.5-2.7c.3-.8.8-1.5,1.3-2.1.6-.6,1.3-1,2-1.4s1.7-.5,2.6-.5,1.8.1,2.5.4c.7.3,1.3.7,1.8,1.2l-.6.8c0,0,0,.1-.1.1,0,0-.1,0-.2,0s-.2,0-.2,0-.2-.1-.3-.2c-.1,0-.3-.2-.4-.3-.2,0-.4-.2-.6-.3-.2,0-.5-.2-.8-.2s-.6,0-1,0c-.7,0-1.3.1-1.9.4-.6.2-1.1.6-1.5,1-.4.4-.7,1-1,1.6-.2.6-.3,1.3-.3,2.1s.1,1.5.3,2.2c.2.6.5,1.2.9,1.6.4.4.9.8,1.4,1,.5.2,1.1.3,1.8.3s.7,0,1,0c.3,0,.6-.1.9-.2.3,0,.5-.2.7-.4.2-.1.5-.3.7-.5.1,0,.2-.1.3-.1Z"/>
</svg>