<?xml version="1.0" encoding="utf-8"?>
<!-- Generator: Adobe Illustrator 24.1.2, SVG Export Plug-In . SVG Version: 6.00 Build 0)  -->
<svg version="1.1" id="Layer_1" xmlns="http://www.w3.org/2000/svg" xmlns:xlink="http://www.w3.org/1999/xlink" x="0px" y="0px"
	 viewBox="0 0 591.3 154.7" style="enable-background:new 0 0 591.3 154.7;" xml:space="preserve">
<style type="text/css">
	.st0{fill:#FFFFFF;}
</style>
<g>
	<g>
		<g>
			<g>
				<rect x="101.2" y="48.6" class="st0" width="68" height="68"/>
			</g>
		</g>
	</g>
	<g>
		<g>
			<g>
				<path d="M169.7,117.1h-69v-69h69V117.1z M101.7,116.1h67v-67h-67V116.1z"/>
			</g>
		</g>
	</g>
</g>
<g>
	<g>
		<g>
			<g>
				<g>
					<rect x="7.1" y="82.1" width="85.4" height="1"/>
				</g>
			</g>
		</g>
	</g>
	<g>
		<g>
			<g>
				<g>
					<g>
						<polygon points="90.5,85.5 101.4,82.6 90.5,79.7 						"/>
					</g>
				</g>
			</g>
		</g>
	</g>
</g>
<g>
	<g>
		<g>
			<g>
				<rect x="232.7" y="48.6" class="st0" width="68" height="68"/>
			</g>
		</g>
	</g>
	<g>
		<g>
			<g>
				<path d="M301.2,117.1h-69v-69h69V117.1z M233.2,116.1h67v-67h-67V116.1z"/>
			</g>
		</g>
	</g>
</g>
<g>
	<g>
		<g>
			<g>
				<g>
					<rect x="169.4" y="82.1" width="54.5" height="1"/>
				</g>
			</g>
		</g>
	</g>
	<g>
		<g>
			<g>
				<g>
					<g>
						<polygon points="221.8,85.5 232.7,82.6 221.8,79.7 						"/>
					</g>
				</g>
			</g>
		</g>
	</g>
</g>
<g>
	<g>
		<g>
			<g>
				<rect x="363.3" y="48.6" class="st0" width="68" height="68"/>
			</g>
		</g>
	</g>
	<g>
		<g>
			<g>
				<path d="M431.8,117.1h-69v-69h69V117.1z M363.8,116.1h67v-67h-67V116.1z"/>
			</g>
		</g>
	</g>
</g>
<g>
	<g>
		<g>
			<g>
				<g>
					<rect x="300.7" y="82.1" width="54.5" height="1"/>
				</g>
			</g>
		</g>
	</g>
	<g>
		<g>
			<g>
				<g>
					<g>
						<polygon points="353.2,85.5 364,82.6 353.2,79.7 						"/>
					</g>
				</g>
			</g>
		</g>
	</g>
</g>
<g>
	<g>
		<g>
			<g>
				<g>
					<rect x="432" y="82.1" width="54.5" height="1"/>
				</g>
			</g>
		</g>
	</g>
	<g>
		<g>
			<g>
				<g>
					<g>
						<polygon points="484.5,85.5 495.3,82.6 484.5,79.7 						"/>
					</g>
				</g>
			</g>
		</g>
	</g>
</g>
<g>
	<g>
		<g>
			<g>
				<path d="M22.4,58h8.7v1.8h-6.6v5.4h6.1v1.7h-6.1v7.3h-2.1L22.4,58L22.4,58z"/>
			</g>
		</g>
	</g>
</g>
<g>
	<g>
		<g>
			<g>
				<path d="M11.3,96.7L11.3,96.7l-2.1,1.1l-0.3-1.2l2.6-1.4h1.4v11.7h-1.5V96.7z"/>
			</g>
		</g>
	</g>
	<g>
		<g>
			<g>
				<path d="M24.9,100.9c0,4-1.5,6.2-4.1,6.2c-2.3,0-3.8-2.1-3.9-6c0-3.9,1.7-6.1,4.1-6.1C23.5,95,24.9,97.2,24.9,100.9z
					 M18.5,101.1c0,3,0.9,4.8,2.4,4.8c1.6,0,2.4-1.9,2.4-4.9c0-2.9-0.7-4.8-2.4-4.8C19.5,96.2,18.5,97.9,18.5,101.1z"/>
			</g>
		</g>
	</g>
	<g>
		<g>
			<g>
				<path d="M34.1,100.9c0,4-1.5,6.2-4.1,6.2c-2.3,0-3.8-2.1-3.9-6c0-3.9,1.7-6.1,4.1-6.1C32.7,95,34.1,97.2,34.1,100.9z
					 M27.8,101.1c0,3,0.9,4.8,2.4,4.8c1.6,0,2.4-1.9,2.4-4.9c0-2.9-0.7-4.8-2.4-4.8C28.8,96.2,27.8,97.9,27.8,101.1z"/>
			</g>
		</g>
	</g>
	<g>
		<g>
			<g>
				<path d="M41.5,102.2L41.5,102.2c0.3-0.3,0.6-0.7,0.8-1l2.6-3h1.9l-3.4,3.6l3.8,5.1h-1.9l-3-4.2l-0.8,0.9v3.3h-1.6V94.1h1.6
					L41.5,102.2L41.5,102.2z"/>
			</g>
		</g>
	</g>
	<g>
		<g>
			<g>
				<path d="M48.6,100.5c0-0.9,0-1.6-0.1-2.4H50l0.1,1.4h0c0.5-0.8,1.3-1.6,2.7-1.6c1.2,0,2.1,0.7,2.5,1.8h0c0.3-0.5,0.6-0.9,1-1.1
					c0.5-0.4,1.1-0.6,1.9-0.6c1.2,0,2.9,0.8,2.9,3.8v5.1h-1.5V102c0-1.7-0.6-2.7-1.9-2.7c-0.9,0-1.6,0.7-1.9,1.4
					c-0.1,0.2-0.1,0.5-0.1,0.8v5.4h-1.6v-5.2c0-1.4-0.6-2.4-1.8-2.4c-1,0-1.7,0.8-2,1.6c-0.1,0.2-0.1,0.5-0.1,0.8v5.3h-1.5V100.5z"
					/>
			</g>
		</g>
	</g>
	<g>
		<g>
			<g>
				<path d="M71.5,102.5c0,3.2-2.2,4.6-4.3,4.6c-2.4,0-4.2-1.7-4.2-4.5c0-2.9,1.9-4.6,4.3-4.6C69.8,98,71.5,99.8,71.5,102.5z
					 M64.6,102.5c0,1.9,1.1,3.3,2.7,3.3c1.5,0,2.7-1.4,2.7-3.4c0-1.5-0.7-3.3-2.6-3.3C65.4,99.2,64.6,100.9,64.6,102.5z"/>
			</g>
		</g>
	</g>
	<g>
		<g>
			<g>
				<path d="M73.5,94.1h1.6v12.8h-1.6V94.1z"/>
			</g>
		</g>
	</g>
	<g>
		<g>
			<g>
				<path d="M76.4,107.6l5-13.1h1.2l-5,13.1H76.4z"/>
			</g>
		</g>
	</g>
	<g>
		<g>
			<g>
				<path d="M84,94.1h1.6v5.4h0c0.3-0.4,0.7-0.8,1.1-1.1c0.5-0.3,1-0.4,1.6-0.4c1.2,0,3,0.7,3,3.7v5.2h-1.6v-5c0-1.4-0.5-2.6-2-2.6
					c-1,0-1.8,0.7-2.1,1.6c-0.1,0.2-0.1,0.4-0.1,0.8v5.3H84V94.1z"/>
			</g>
		</g>
	</g>
</g>
<g>
	<g>
		<g>
			<g>
				<g>
					<rect x="134.9" y="26.2" width="1" height="22.8"/>
				</g>
			</g>
		</g>
	</g>
	<g>
		<g>
			<g>
				<g>
					<g>
						<polygon points="138.3,28.2 135.4,17.3 132.5,28.2 						"/>
					</g>
				</g>
			</g>
		</g>
	</g>
</g>
<g>
	<g>
		<g>
			<g>
				<g>
					<rect x="266.2" y="26.2" width="1" height="22.8"/>
				</g>
			</g>
		</g>
	</g>
	<g>
		<g>
			<g>
				<g>
					<g>
						<polygon points="269.6,28.2 266.7,17.3 263.8,28.2 						"/>
					</g>
				</g>
			</g>
		</g>
	</g>
</g>
<g>
	<g>
		<g>
			<g>
				<g>
					<rect x="396.8" y="26.2" width="1" height="22.8"/>
				</g>
			</g>
		</g>
	</g>
	<g>
		<g>
			<g>
				<g>
					<g>
						<polygon points="400.2,28.2 397.3,17.3 394.4,28.2 						"/>
					</g>
				</g>
			</g>
		</g>
	</g>
</g>
<g>
	<g>
		<g>
			<g>
				<path d="M194,92.4c0.9-0.2,2.4-0.3,3.8-0.3c2.1,0,3.4,0.4,4.4,1.2c0.8,0.6,1.3,1.6,1.3,2.9c0,1.6-1,2.9-2.7,3.6v0.1
					c1.5,0.4,3.3,1.7,3.3,4.1c0,1.4-0.6,2.4-1.4,3.2c-1.1,1-2.9,1.5-5.6,1.5c-1.4,0-2.5-0.1-3.2-0.2V92.4z M196.1,99h1.9
					c2.2,0,3.5-1.2,3.5-2.7c0-1.9-1.4-2.6-3.6-2.6c-1,0-1.5,0.1-1.9,0.1L196.1,99L196.1,99z M196.1,106.8c0.4,0.1,1,0.1,1.8,0.1
					c2.2,0,4.1-0.8,4.1-3.1c0-2.2-1.9-3.1-4.2-3.1h-1.7L196.1,106.8L196.1,106.8z"/>
			</g>
		</g>
	</g>
	<g>
		<g>
			<g>
				<path d="M208.5,108.4L208.5,108.4l-1.6,0.8l-0.2-0.9l2-1.1h1.1v9.1h-1.2V108.4z"/>
			</g>
		</g>
	</g>
</g>
<g>
	<g>
		<g>
			<g>
				<path d="M326.6,92.4c0.9-0.2,2.4-0.3,3.8-0.3c2.1,0,3.4,0.4,4.4,1.2c0.8,0.6,1.3,1.6,1.3,2.9c0,1.6-1,2.9-2.7,3.6v0.1
					c1.5,0.4,3.3,1.7,3.3,4.1c0,1.4-0.5,2.4-1.4,3.2c-1.1,1-3,1.5-5.6,1.5c-1.4,0-2.5-0.1-3.2-0.2L326.6,92.4L326.6,92.4z M328.7,99
					h1.9c2.2,0,3.5-1.2,3.5-2.7c0-1.9-1.4-2.6-3.5-2.6c-1,0-1.5,0.1-1.9,0.1V99z M328.7,106.8c0.4,0.1,1,0.1,1.8,0.1
					c2.2,0,4.1-0.8,4.1-3.1c0-2.2-1.9-3.1-4.2-3.1h-1.7L328.7,106.8L328.7,106.8z"/>
			</g>
		</g>
	</g>
	<g>
		<g>
			<g>
				<path d="M338.4,116.4v-0.8l1-0.9c2.3-2.2,3.4-3.4,3.4-4.8c0-0.9-0.5-1.8-1.8-1.8c-0.8,0-1.5,0.4-1.9,0.8l-0.4-0.9
					c0.6-0.5,1.5-0.9,2.6-0.9c2,0,2.8,1.3,2.8,2.6c0,1.7-1.2,3-3.1,4.9l-0.7,0.7v0h4.1v1L338.4,116.4L338.4,116.4z"/>
			</g>
		</g>
	</g>
</g>
<g>
	<g>
		<g>
			<g>
				<path d="M454.9,92.4c0.9-0.2,2.4-0.3,3.8-0.3c2.1,0,3.4,0.4,4.4,1.2c0.8,0.6,1.3,1.6,1.3,2.9c0,1.6-1,2.9-2.7,3.6v0.1
					c1.5,0.4,3.3,1.7,3.3,4.1c0,1.4-0.5,2.4-1.4,3.2c-1.1,1-3,1.5-5.6,1.5c-1.4,0-2.5-0.1-3.2-0.2L454.9,92.4L454.9,92.4z M457,99
					h1.9c2.2,0,3.5-1.2,3.5-2.7c0-1.9-1.4-2.6-3.5-2.6c-1,0-1.5,0.1-1.9,0.1V99z M457,106.8c0.4,0.1,1,0.1,1.8,0.1
					c2.2,0,4.1-0.8,4.1-3.1c0-2.2-1.9-3.1-4.2-3.1h-1.7L457,106.8L457,106.8z"/>
			</g>
		</g>
	</g>
	<g>
		<g>
			<g>
				<path d="M467,115c0.4,0.2,1.2,0.6,2,0.6c1.6,0,2.1-1,2.1-1.8c0-1.3-1.2-1.8-2.4-1.8H468V111h0.7c0.9,0,2-0.5,2-1.5
					c0-0.7-0.5-1.4-1.6-1.4c-0.7,0-1.4,0.3-1.8,0.6l-0.3-0.9c0.5-0.3,1.4-0.7,2.4-0.7c1.8,0,2.6,1.1,2.6,2.2c0,0.9-0.6,1.7-1.7,2.1
					v0c1.1,0.2,2,1.1,2,2.3c0,1.5-1.1,2.7-3.3,2.7c-1,0-1.9-0.3-2.4-0.6L467,115z"/>
			</g>
		</g>
	</g>
</g>
<g>
	<g>
		<g>
			<g>
				<path d="M146.6,3.9c1.3-0.2,2.8-0.3,4.4-0.3c3,0,5.1,0.7,6.6,2c1.4,1.3,2.3,3.2,2.3,5.8c0,2.6-0.8,4.8-2.3,6.3
					c-1.5,1.5-4,2.3-7.1,2.3c-1.5,0-2.7-0.1-3.8-0.2L146.6,3.9L146.6,3.9z M148.7,18.2c0.5,0.1,1.3,0.1,2.1,0.1
					c4.5,0,6.9-2.5,6.9-6.9c0-3.8-2.1-6.2-6.6-6.2c-1.1,0-1.9,0.1-2.4,0.2V18.2z"/>
			</g>
		</g>
	</g>
	<g>
		<g>
			<g>
				<path d="M164,19.9L164,19.9l-1.6,0.9l-0.2-0.9l2-1.1h1.1v9.1H164V19.9z"/>
			</g>
		</g>
	</g>
</g>
<g>
	<g>
		<g>
			<g>
				<path d="M277.6,3.9c1.3-0.2,2.8-0.3,4.4-0.3c3,0,5.1,0.7,6.5,2c1.4,1.3,2.3,3.2,2.3,5.8c0,2.6-0.8,4.8-2.3,6.3
					c-1.5,1.5-4,2.3-7.1,2.3c-1.5,0-2.7-0.1-3.8-0.2V3.9z M279.7,18.2c0.5,0.1,1.3,0.1,2.1,0.1c4.5,0,6.9-2.5,6.9-6.9
					c0-3.8-2.1-6.2-6.5-6.2c-1.1,0-1.9,0.1-2.5,0.2V18.2z"/>
			</g>
		</g>
	</g>
	<g>
		<g>
			<g>
				<path d="M292.4,27.8V27l1-0.9c2.3-2.2,3.4-3.4,3.4-4.8c0-0.9-0.5-1.8-1.8-1.8c-0.8,0-1.5,0.4-1.9,0.8l-0.4-0.9
					c0.6-0.5,1.5-0.9,2.6-0.9c2,0,2.8,1.3,2.8,2.6c0,1.7-1.2,3-3.1,4.9l-0.7,0.7v0h4.1v1L292.4,27.8L292.4,27.8z"/>
			</g>
		</g>
	</g>
</g>
<g>
	<g>
		<g>
			<g>
				<path d="M408.7,3.9c1.3-0.2,2.8-0.3,4.4-0.3c3,0,5.1,0.7,6.5,2c1.4,1.3,2.3,3.2,2.3,5.8c0,2.6-0.8,4.8-2.3,6.3
					c-1.5,1.5-4,2.3-7.1,2.3c-1.5,0-2.7-0.1-3.8-0.2V3.9z M410.8,18.2c0.5,0.1,1.3,0.1,2.1,0.1c4.5,0,6.9-2.5,6.9-6.9
					c0-3.8-2.1-6.2-6.5-6.2c-1.1,0-1.9,0.1-2.5,0.2V18.2z"/>
			</g>
		</g>
	</g>
	<g>
		<g>
			<g>
				<path d="M423.8,26.4c0.4,0.2,1.2,0.6,2,0.6c1.6,0,2.1-1,2.1-1.8c0-1.3-1.2-1.8-2.4-1.8h-0.7v-0.9h0.7c0.9,0,2-0.5,2-1.5
					c0-0.7-0.5-1.4-1.6-1.4c-0.7,0-1.4,0.3-1.8,0.6l-0.3-0.9c0.5-0.4,1.4-0.7,2.4-0.7c1.8,0,2.6,1.1,2.6,2.2c0,0.9-0.6,1.7-1.7,2.1
					v0c1.1,0.2,2,1.1,2,2.3c0,1.5-1.1,2.7-3.3,2.7c-1,0-1.9-0.3-2.4-0.6L423.8,26.4z"/>
			</g>
		</g>
	</g>
</g>
<g>
	<g>
		<g>
			<g>
				<path d="M217.2,16v-1.1h9.3V16H217.2z M217.2,19.5v-1.1h9.3v1.1H217.2z"/>
			</g>
		</g>
	</g>
</g>
<g>
	<g>
		<g>
			<g>
				<path d="M348.3,16v-1.1h9.3V16H348.3z M348.3,19.5v-1.1h9.3v1.1H348.3z"/>
			</g>
		</g>
	</g>
</g>
<g>
	<g>
		<g>
			<path d="M134.9,77.6L134.9,77.6l-2.1,1.1l-0.3-1.2l2.6-1.4h1.4v11.7h-1.5L134.9,77.6L134.9,77.6z"/>
		</g>
	</g>
</g>
<g>
	<g>
		<g>
			<path d="M262.9,87.9v-1l1.2-1.2c3-2.8,4.3-4.4,4.4-6.1c0-1.2-0.6-2.3-2.3-2.3c-1.1,0-1.9,0.5-2.5,1l-0.5-1.1
				c0.8-0.7,2-1.2,3.3-1.2c2.5,0,3.6,1.7,3.6,3.4c0,2.2-1.6,3.9-4,6.3l-0.9,0.9v0h5.3v1.3L262.9,87.9L262.9,87.9z"/>
		</g>
	</g>
</g>
<g>
	<g>
		<g>
			<path d="M393.8,86c0.5,0.3,1.5,0.7,2.6,0.7c2,0,2.7-1.3,2.6-2.3c0-1.6-1.5-2.3-3-2.3h-0.9V81h0.9c1.1,0,2.6-0.6,2.6-2
				c0-0.9-0.6-1.8-2-1.8c-0.9,0-1.8,0.4-2.3,0.8l-0.4-1.2c0.6-0.4,1.8-0.9,3.1-0.9c2.3,0,3.4,1.4,3.4,2.8c0,1.2-0.7,2.2-2.2,2.8v0
				c1.4,0.3,2.6,1.4,2.6,3c0,1.9-1.5,3.5-4.3,3.5c-1.3,0-2.5-0.4-3-0.8L393.8,86z"/>
		</g>
	</g>
</g>
<g>
	<g>
		<path d="M9.9,125c0.4,0.2,1.2,0.6,2,0.6c1.6,0,2.1-1,2.1-1.8c0-1.3-1.2-1.8-2.4-1.8h-0.7V121h0.7c0.9,0,2.1-0.5,2.1-1.6
			c0-0.7-0.5-1.4-1.6-1.4c-0.7,0-1.4,0.3-1.8,0.6l-0.3-0.9c0.5-0.3,1.4-0.7,2.4-0.7c1.8,0,2.6,1.1,2.6,2.2c0,0.9-0.6,1.8-1.7,2.2v0
			c1.1,0.2,2.1,1.1,2.1,2.4c0,1.5-1.1,2.8-3.4,2.8c-1,0-1.9-0.3-2.4-0.6L9.9,125z"/>
	</g>
	<g>
		<path d="M23,121.7c0,3.1-1.2,4.9-3.2,4.9c-1.8,0-3-1.7-3-4.7c0-3.1,1.3-4.8,3.2-4.8C21.9,117,23,118.8,23,121.7z M18,121.8
			c0,2.4,0.7,3.8,1.9,3.8c1.3,0,1.9-1.5,1.9-3.8c0-2.3-0.6-3.8-1.9-3.8C18.8,118,18,119.3,18,121.8z"/>
	</g>
	<g>
		<path d="M27.5,121.4c0-0.7,0-1.3-0.1-1.8h1.1l0.1,1.1h0c0.4-0.7,1-1.3,2.1-1.3c0.9,0,1.6,0.6,1.9,1.4h0c0.2-0.4,0.5-0.7,0.8-0.9
			c0.4-0.3,0.9-0.5,1.5-0.5c0.9,0,2.3,0.6,2.3,3v4h-1.2v-3.9c0-1.3-0.5-2.1-1.5-2.1c-0.7,0-1.3,0.5-1.5,1.1
			c-0.1,0.2-0.1,0.4-0.1,0.6v4.2h-1.2v-4.1c0-1.1-0.5-1.9-1.4-1.9c-0.8,0-1.4,0.6-1.5,1.3c-0.1,0.2-0.1,0.4-0.1,0.6v4.1h-1.2V121.4z
			"/>
	</g>
	<g>
		<path d="M45.5,122.9c0,2.5-1.8,3.6-3.4,3.6c-1.8,0-3.3-1.4-3.3-3.5c0-2.3,1.5-3.6,3.4-3.6C44.2,119.4,45.5,120.8,45.5,122.9z
			 M40.1,123c0,1.5,0.9,2.6,2.1,2.6c1.2,0,2.1-1.1,2.1-2.7c0-1.2-0.6-2.6-2-2.6S40.1,121.7,40.1,123z"/>
	</g>
	<g>
		<path d="M47.1,116.3h1.3v10.1h-1.3V116.3z"/>
	</g>
	<g>
		<path d="M54.2,119.8c0,1.9-1,2.9-2.2,2.9c-1.2,0-2.1-0.9-2.2-2.8c0-1.8,1-2.9,2.2-2.9C53.3,117,54.2,118,54.2,119.8z M50.8,119.9
			c0,1.2,0.4,2.1,1.2,2.1c0.8,0,1.2-0.9,1.2-2.1c0-1.1-0.3-2.1-1.2-2.1C51.2,117.8,50.8,118.7,50.8,119.9z M51.9,126.6l5.4-9.5h0.8
			l-5.4,9.5H51.9z M60.2,123.6c0,1.9-1,2.9-2.2,2.9c-1.2,0-2.1-0.9-2.2-2.8c0-1.8,1-2.9,2.2-2.9C59.3,120.8,60.2,121.8,60.2,123.6z
			 M56.8,123.7c0,1.2,0.4,2.1,1.2,2.1c0.8,0,1.2-0.9,1.2-2.1c0-1.1-0.3-2.1-1.2-2.1C57.2,121.6,56.8,122.5,56.8,123.7z"/>
	</g>
	<g>
		<path d="M65.9,116.9v4h4.6v-4h1.3v9.5h-1.3v-4.5h-4.6v4.5h-1.2v-9.5H65.9z"/>
	</g>
	<g>
		<path d="M75.5,123.4l-1,3h-1.3l3.2-9.5h1.5l3.3,9.5h-1.3l-1-3H75.5z M78.6,122.4l-0.9-2.8c-0.2-0.6-0.3-1.2-0.5-1.7h0
			c-0.1,0.6-0.3,1.2-0.5,1.7l-0.9,2.8C75.7,122.4,78.6,122.4,78.6,122.4z"/>
	</g>
	<g>
		<path d="M87.3,126.1c-0.3,0.2-1.1,0.4-2,0.4c-2.1,0-3.4-1.4-3.4-3.5c0-2.1,1.4-3.6,3.7-3.6c0.7,0,1.4,0.2,1.7,0.3l-0.3,1
			c-0.3-0.2-0.8-0.3-1.4-0.3c-1.6,0-2.4,1.2-2.4,2.6c0,1.6,1,2.6,2.4,2.6c0.7,0,1.2-0.2,1.5-0.3L87.3,126.1z"/>
	</g>
	<g>
		<path d="M15.6,134.2v0.8l-4,8.4h-1.3l4-8.1v0H9.7v-1L15.6,134.2L15.6,134.2z"/>
	</g>
	<g>
		<path d="M23,138.7c0,3.1-1.2,4.9-3.2,4.9c-1.8,0-3-1.7-3-4.7c0-3.1,1.3-4.8,3.2-4.8C21.9,134,23,135.8,23,138.7z M18,138.8
			c0,2.4,0.7,3.8,1.9,3.8c1.3,0,1.9-1.5,1.9-3.8c0-2.3-0.6-3.8-1.9-3.8C18.8,135,18,136.3,18,138.8z"/>
	</g>
	<g>
		<path d="M27.5,138.4c0-0.7,0-1.3-0.1-1.9h1.1l0.1,1.1h0c0.4-0.6,1-1.3,2.1-1.3c0.9,0,1.6,0.6,1.9,1.4h0c0.2-0.4,0.5-0.7,0.8-0.9
			c0.4-0.3,0.9-0.5,1.5-0.5c0.9,0,2.3,0.6,2.3,3v4h-1.2v-3.9c0-1.3-0.5-2.1-1.5-2.1c-0.7,0-1.3,0.5-1.5,1.1
			c-0.1,0.2-0.1,0.4-0.1,0.6v4.2h-1.2v-4.1c0-1.1-0.5-1.9-1.4-1.9c-0.8,0-1.4,0.6-1.5,1.3c-0.1,0.2-0.1,0.4-0.1,0.6v4.1h-1.2V138.4z
			"/>
	</g>
	<g>
		<path d="M45.5,139.9c0,2.5-1.8,3.6-3.4,3.6c-1.8,0-3.3-1.4-3.3-3.5c0-2.3,1.5-3.6,3.4-3.6C44.2,136.4,45.5,137.8,45.5,139.9z
			 M40.1,140c0,1.5,0.9,2.6,2.1,2.6c1.2,0,2.1-1.1,2.1-2.7c0-1.2-0.6-2.6-2-2.6S40.1,138.7,40.1,140z"/>
	</g>
	<g>
		<path d="M47.1,133.4h1.3v10.1h-1.3V133.4z"/>
	</g>
	<g>
		<path d="M54.2,136.8c0,1.9-1,2.9-2.2,2.9c-1.2,0-2.1-0.9-2.2-2.8c0-1.8,1-2.9,2.2-2.9C53.3,134,54.2,135,54.2,136.8z M50.8,136.9
			c0,1.2,0.4,2.1,1.2,2.1c0.8,0,1.2-0.9,1.2-2.1c0-1.1-0.3-2.1-1.2-2.1C51.2,134.8,50.8,135.7,50.8,136.9z M51.9,143.6l5.4-9.5h0.8
			l-5.4,9.5H51.9z M60.2,140.6c0,1.9-1,2.9-2.2,2.9c-1.2,0-2.1-0.9-2.2-2.8c0-1.9,1-2.9,2.2-2.9C59.3,137.9,60.2,138.8,60.2,140.6z
			 M56.8,140.7c0,1.2,0.4,2.1,1.2,2.1c0.8,0,1.2-0.9,1.2-2.1c0-1.1-0.3-2.1-1.2-2.1C57.2,138.6,56.8,139.5,56.8,140.7z"/>
	</g>
	<g>
		<path d="M65.7,143.4l-2.4-9.5h1.3l1.1,4.8c0.3,1.2,0.5,2.4,0.7,3.3h0c0.2-0.9,0.4-2.1,0.8-3.3l1.3-4.8h1.3l1.2,4.8
			c0.3,1.1,0.5,2.3,0.7,3.3h0c0.2-1.1,0.5-2.1,0.8-3.3l1.3-4.8H75l-2.7,9.5H71l-1.2-5c-0.3-1.2-0.5-2.1-0.6-3.1h0
			c-0.2,0.9-0.4,1.9-0.7,3.1l-1.4,5L65.7,143.4L65.7,143.4z"/>
	</g>
	<g>
		<path d="M79.4,143.4l-0.1-0.9h0c-0.4,0.5-1.1,1-2.1,1c-1.4,0-2.1-1-2.1-2c0-1.7,1.5-2.6,4.1-2.6v-0.1c0-0.6-0.2-1.6-1.6-1.6
			c-0.6,0-1.3,0.2-1.8,0.5l-0.3-0.8c0.6-0.4,1.4-0.6,2.3-0.6c2.1,0,2.6,1.4,2.6,2.8v2.6c0,0.6,0,1.2,0.1,1.6L79.4,143.4L79.4,143.4z
			 M79.3,139.9c-1.4,0-2.9,0.2-2.9,1.5c0,0.8,0.5,1.2,1.2,1.2c0.9,0,1.5-0.6,1.7-1.1c0-0.1,0.1-0.3,0.1-0.4L79.3,139.9L79.3,139.9z"
			/>
	</g>
	<g>
		<path d="M83.9,134.6v2h1.8v0.9h-1.8v3.7c0,0.9,0.2,1.3,0.9,1.3c0.3,0,0.6,0,0.7-0.1l0.1,0.9c-0.2,0.1-0.6,0.2-1.1,0.2
			c-0.6,0-1.1-0.2-1.3-0.5c-0.3-0.4-0.5-1-0.5-1.8v-3.7h-1.1v-0.9h1.1v-1.6L83.9,134.6z"/>
	</g>
	<g>
		<path d="M87.7,140.2c0,1.7,1.1,2.4,2.3,2.4c0.9,0,1.4-0.2,1.9-0.4l0.2,0.9c-0.4,0.2-1.2,0.4-2.3,0.4c-2.1,0-3.4-1.4-3.4-3.5
			s1.2-3.7,3.2-3.7c2.2,0,2.8,2,2.8,3.2c0,0.3,0,0.4,0,0.6L87.7,140.2L87.7,140.2z M91.4,139.3c0-0.8-0.3-2-1.7-2
			c-1.3,0-1.8,1.2-1.9,2H91.4z"/>
	</g>
	<g>
		<path d="M94.1,138.7c0-0.8,0-1.5-0.1-2.1h1.1l0,1.4h0.1c0.3-0.9,1.1-1.5,1.9-1.5c0.1,0,0.2,0,0.3,0v1.2c-0.1,0-0.3,0-0.4,0
			c-0.9,0-1.5,0.7-1.7,1.6c0,0.2-0.1,0.4-0.1,0.6v3.6h-1.2V138.7z"/>
	</g>
</g>
<g>
	<g>
		<path d="M453.1,14c0.4,0.2,1.2,0.6,2,0.6c1.6,0,2.1-1,2.1-1.8c0-1.3-1.2-1.8-2.4-1.8h-0.7V10h0.7c0.9,0,2-0.5,2-1.6
			c0-0.7-0.5-1.4-1.6-1.4c-0.7,0-1.4,0.3-1.8,0.6l-0.3-0.9c0.5-0.3,1.4-0.7,2.4-0.7c1.8,0,2.6,1.1,2.6,2.2c0,0.9-0.6,1.8-1.7,2.2v0
			c1.1,0.2,2,1.1,2,2.4c0,1.5-1.1,2.8-3.4,2.8c-1,0-1.9-0.3-2.4-0.6L453.1,14z"/>
	</g>
	<g>
		<path d="M463.5,10.4c0-0.7,0-1.3-0.1-1.9h1.1l0.1,1.1h0c0.4-0.6,1-1.3,2.1-1.3c0.9,0,1.6,0.6,1.9,1.4h0c0.2-0.4,0.5-0.7,0.8-0.9
			c0.4-0.3,0.9-0.5,1.5-0.5c0.9,0,2.3,0.6,2.3,3v4H472v-3.9c0-1.3-0.5-2.1-1.5-2.1c-0.7,0-1.3,0.5-1.5,1.1c-0.1,0.2-0.1,0.4-0.1,0.6
			v4.2h-1.2v-4.1c0-1.1-0.5-1.9-1.4-1.9c-0.8,0-1.3,0.6-1.5,1.3c-0.1,0.2-0.1,0.4-0.1,0.6v4.1h-1.2L463.5,10.4L463.5,10.4z"/>
	</g>
	<g>
		<path d="M481.5,12c0,2.5-1.8,3.6-3.4,3.6c-1.9,0-3.3-1.4-3.3-3.5c0-2.3,1.5-3.6,3.4-3.6C480.2,8.4,481.5,9.9,481.5,12z M476.1,12
			c0,1.5,0.9,2.6,2.1,2.6c1.2,0,2.1-1.1,2.1-2.7c0-1.2-0.6-2.6-2-2.6S476.1,10.7,476.1,12z"/>
	</g>
	<g>
		<path d="M483.1,5.4h1.3v10.1h-1.3V5.4z"/>
	</g>
	<g>
		<path d="M490.2,8.8c0,1.9-1,2.9-2.2,2.9c-1.1,0-2.1-0.9-2.1-2.8c0-1.8,1-2.9,2.2-2.9C489.3,6.1,490.2,7.1,490.2,8.8z M486.8,8.9
			c0,1.2,0.4,2.1,1.2,2.1c0.8,0,1.2-0.9,1.2-2.1c0-1.1-0.3-2.1-1.2-2.1C487.2,6.8,486.8,7.8,486.8,8.9z M487.9,15.6l5.4-9.5h0.8
			l-5.4,9.5H487.9z M496.1,12.6c0,1.9-1,2.9-2.2,2.9c-1.1,0-2.1-0.9-2.1-2.8c0-1.9,1-2.9,2.2-2.9C495.3,9.9,496.1,10.9,496.1,12.6z
			 M492.8,12.7c0,1.2,0.4,2.1,1.2,2.1c0.8,0,1.2-0.9,1.2-2.1c0-1.1-0.3-2.1-1.2-2.1C493.2,10.6,492.8,11.6,492.8,12.7z"/>
	</g>
	<g>
		<path d="M501.9,5.9v4h4.6v-4h1.3v9.5h-1.3V11h-4.6v4.5h-1.2V5.9H501.9z"/>
	</g>
	<g>
		<path d="M511.5,12.4l-1,3h-1.3l3.2-9.5h1.5l3.3,9.5h-1.3l-1-3H511.5z M514.6,11.5l-0.9-2.8c-0.2-0.6-0.3-1.2-0.5-1.7h0
			c-0.1,0.6-0.3,1.1-0.5,1.7l-0.9,2.8H514.6z"/>
	</g>
	<g>
		<path d="M523.3,15.2c-0.3,0.2-1,0.4-2,0.4c-2.1,0-3.4-1.4-3.4-3.5c0-2.1,1.4-3.6,3.7-3.6c0.7,0,1.4,0.2,1.7,0.4l-0.3,1
			c-0.3-0.2-0.8-0.3-1.4-0.3c-1.6,0-2.4,1.2-2.4,2.6c0,1.6,1,2.6,2.4,2.6c0.7,0,1.2-0.2,1.5-0.3L523.3,15.2z"/>
	</g>
	<g>
		<path d="M447.5,31.6c0.3,0,0.6,0,1,0c0.7-0.1,1.4-0.4,1.9-0.9c0.6-0.5,1-1.4,1.2-2.5h0c-0.5,0.6-1.3,1-2.2,1
			c-1.7,0-2.7-1.3-2.7-2.8c0-1.7,1.3-3.3,3.1-3.3s3,1.5,3,3.9c0,2-0.7,3.4-1.6,4.3c-0.7,0.7-1.7,1.1-2.7,1.2
			c-0.5,0.1-0.9,0.1-1.1,0.1L447.5,31.6L447.5,31.6z M448,26.3c0,1.1,0.7,2,1.8,2c0.8,0,1.5-0.4,1.8-1c0.1-0.1,0.1-0.3,0.1-0.5
			c0-1.6-0.6-2.8-1.9-2.8C448.7,24,448,25,448,26.3z"/>
	</g>
	<g>
		<path d="M460.1,23.2v0.8l-4,8.4h-1.3l4-8.1v0h-4.5v-1C454.2,23.2,460.1,23.2,460.1,23.2z"/>
	</g>
	<g>
		<path d="M464.8,27.4c0-0.7,0-1.3-0.1-1.9h1.1l0.1,1.1h0c0.4-0.6,1-1.3,2.1-1.3c0.9,0,1.6,0.6,1.9,1.4h0c0.2-0.4,0.5-0.7,0.8-0.9
			c0.4-0.3,0.9-0.5,1.5-0.5c0.9,0,2.3,0.6,2.3,3v4h-1.2v-3.9c0-1.3-0.5-2.1-1.5-2.1c-0.7,0-1.3,0.5-1.5,1.1
			c-0.1,0.2-0.1,0.4-0.1,0.6v4.2H469v-4.1c0-1.1-0.5-1.9-1.4-1.9c-0.8,0-1.3,0.6-1.5,1.3c-0.1,0.2-0.1,0.4-0.1,0.6v4.1h-1.2
			L464.8,27.4L464.8,27.4z"/>
	</g>
	<g>
		<path d="M482.8,29c0,2.5-1.8,3.6-3.4,3.6c-1.9,0-3.3-1.4-3.3-3.5c0-2.3,1.5-3.6,3.4-3.6C481.4,25.4,482.8,26.9,482.8,29z
			 M477.3,29c0,1.5,0.9,2.6,2.1,2.6c1.2,0,2.1-1.1,2.1-2.7c0-1.2-0.6-2.6-2-2.6S477.3,27.7,477.3,29z"/>
	</g>
	<g>
		<path d="M484.3,22.4h1.3v10h-1.3V22.4z"/>
	</g>
	<g>
		<path d="M491.4,25.8c0,1.9-1,2.9-2.2,2.9c-1.1,0-2.1-0.9-2.1-2.8c0-1.8,1-2.9,2.2-2.9C490.6,23.1,491.4,24.1,491.4,25.8z
			 M488.1,25.9c0,1.2,0.4,2.1,1.2,2.1c0.8,0,1.2-0.9,1.2-2.1c0-1.1-0.3-2-1.2-2C488.5,23.8,488.1,24.7,488.1,25.9z M489.1,32.6
			l5.4-9.5h0.8l-5.4,9.5H489.1z M497.4,29.6c0,1.9-1,2.9-2.2,2.9c-1.1,0-2.1-0.9-2.1-2.8c0-1.9,1-2.9,2.2-2.9
			C496.6,26.9,497.4,27.9,497.4,29.6z M494,29.7c0,1.2,0.4,2.1,1.2,2.1c0.8,0,1.2-0.9,1.2-2.1c0-1.1-0.3-2-1.2-2
			C494.5,27.6,494,28.6,494,29.7z"/>
	</g>
	<g>
		<path d="M503,32.4l-2.4-9.5h1.3l1.1,4.8c0.3,1.2,0.5,2.4,0.7,3.3h0c0.2-1,0.5-2.1,0.8-3.3l1.3-4.8h1.3l1.2,4.8
			c0.3,1.1,0.5,2.3,0.7,3.3h0c0.2-1,0.5-2.1,0.8-3.3l1.3-4.8h1.3l-2.7,9.5h-1.3l-1.2-5c-0.3-1.2-0.5-2.1-0.6-3.1h0
			c-0.2,1-0.4,1.9-0.7,3.1l-1.4,5L503,32.4L503,32.4z"/>
	</g>
	<g>
		<path d="M516.7,32.4l-0.1-0.9h0c-0.4,0.5-1.1,1-2.1,1c-1.4,0-2.1-1-2.1-2c0-1.7,1.5-2.6,4.1-2.5v-0.1c0-0.6-0.2-1.6-1.6-1.6
			c-0.6,0-1.3,0.2-1.8,0.5l-0.3-0.8c0.6-0.4,1.4-0.6,2.3-0.6c2.1,0,2.6,1.4,2.6,2.8v2.6c0,0.6,0,1.2,0.1,1.6L516.7,32.4L516.7,32.4z
			 M516.5,28.9c-1.4,0-2.9,0.2-2.9,1.5c0,0.8,0.5,1.2,1.2,1.2c0.9,0,1.5-0.6,1.7-1.1c0-0.1,0.1-0.3,0.1-0.4L516.5,28.9L516.5,28.9z"
			/>
	</g>
	<g>
		<path d="M521.2,23.6v2h1.8v1h-1.8v3.7c0,0.9,0.2,1.3,0.9,1.3c0.3,0,0.6,0,0.7-0.1l0.1,0.9c-0.2,0.1-0.6,0.2-1.1,0.2
			c-0.6,0-1-0.2-1.3-0.5c-0.3-0.4-0.5-1-0.5-1.8v-3.7h-1.1v-1h1.1V24L521.2,23.6z"/>
	</g>
	<g>
		<path d="M525,29.2c0,1.7,1.1,2.4,2.3,2.4c0.9,0,1.4-0.2,1.9-0.4l0.2,0.9c-0.4,0.2-1.2,0.4-2.3,0.4c-2.1,0-3.4-1.4-3.4-3.5
			s1.2-3.7,3.2-3.7c2.2,0,2.8,2,2.8,3.2c0,0.3,0,0.5,0,0.6L525,29.2L525,29.2z M528.6,28.3c0-0.8-0.3-2-1.7-2c-1.3,0-1.8,1.2-1.9,2
			H528.6z"/>
	</g>
	<g>
		<path d="M531.4,27.7c0-0.8,0-1.5-0.1-2.1h1.1l0,1.4h0.1c0.3-0.9,1.1-1.5,1.9-1.5c0.1,0,0.2,0,0.3,0v1.2c-0.1,0-0.3,0-0.4,0
			c-0.9,0-1.5,0.7-1.7,1.6c0,0.2-0.1,0.4-0.1,0.6v3.6h-1.2L531.4,27.7L531.4,27.7z"/>
	</g>
</g>
<g>
	<path d="M492.4,99.4c0.3,0,0.6,0,1,0c0.7-0.1,1.4-0.4,2-0.9c0.6-0.6,1.1-1.4,1.3-2.5h0c-0.5,0.6-1.3,1-2.2,1
		c-1.7,0-2.8-1.3-2.8-2.9c0-1.8,1.3-3.4,3.2-3.4c1.9,0,3.1,1.6,3.1,4c0,2.1-0.7,3.5-1.6,4.4c-0.7,0.7-1.7,1.1-2.7,1.3
		c-0.5,0.1-0.9,0.1-1.2,0.1V99.4z M492.8,94c0,1.2,0.7,2,1.8,2c0.9,0,1.5-0.4,1.9-1c0.1-0.1,0.1-0.3,0.1-0.5c0-1.6-0.6-2.9-1.9-2.9
		C493.6,91.7,492.8,92.6,492.8,94z"/>
	<path d="M504.7,91.9h-3.6l-0.4,2.4c0.2,0,0.4-0.1,0.8-0.1c0.7,0,1.5,0.2,2,0.5c0.7,0.4,1.4,1.2,1.4,2.4c0,1.8-1.5,3.2-3.5,3.2
		c-1,0-1.9-0.3-2.4-0.6l0.3-1c0.4,0.2,1.2,0.5,2,0.5c1.2,0,2.2-0.8,2.2-2.1c0-1.2-0.8-2.1-2.7-2.1c-0.5,0-1,0.1-1.3,0.1l0.6-4.5h4.5
		V91.9z"/>
	<path d="M510,95.2c0-0.7,0-1.3-0.1-1.9h1.1l0.1,1.1h0c0.4-0.7,1-1.3,2.2-1.3c1,0,1.7,0.6,2,1.4h0c0.2-0.4,0.5-0.7,0.8-0.9
		c0.4-0.3,0.9-0.5,1.6-0.5c0.9,0,2.3,0.6,2.3,3.1v4.1h-1.3v-4c0-1.4-0.5-2.2-1.5-2.2c-0.7,0-1.3,0.5-1.5,1.2
		c-0.1,0.2-0.1,0.4-0.1,0.6v4.3h-1.3v-4.2c0-1.1-0.5-1.9-1.5-1.9c-0.8,0-1.4,0.6-1.6,1.3c-0.1,0.2-0.1,0.4-0.1,0.6v4.2H510V95.2z"/>
	<path d="M528.5,96.7c0,2.6-1.8,3.7-3.5,3.7c-1.9,0-3.4-1.4-3.4-3.6c0-2.4,1.5-3.7,3.5-3.7C527.2,93.1,528.5,94.6,528.5,96.7z
		 M522.9,96.8c0,1.5,0.9,2.7,2.1,2.7c1.2,0,2.1-1.1,2.1-2.7c0-1.2-0.6-2.7-2.1-2.7C523.6,94.1,522.9,95.5,522.9,96.8z"/>
	<path d="M530.1,90h1.3v10.3h-1.3V90z"/>
	<path d="M537.4,93.5c0,2-1,3-2.3,3c-1.2,0-2.2-0.9-2.2-2.9c0-1.9,1-3,2.3-3C536.6,90.7,537.4,91.7,537.4,93.5z M534,93.6
		c0,1.2,0.4,2.1,1.2,2.1c0.8,0,1.2-0.9,1.2-2.2c0-1.1-0.3-2.1-1.2-2.1C534.4,91.5,534,92.4,534,93.6z M535.1,100.5l5.6-9.8h0.8
		l-5.6,9.8H535.1z M543.6,97.4c0,2-1,3-2.3,3c-1.2,0-2.2-0.9-2.2-2.8c0-1.9,1-3,2.3-3C542.7,94.6,543.6,95.6,543.6,97.4z
		 M540.1,97.5c0,1.2,0.5,2.1,1.2,2.1c0.8,0,1.2-0.9,1.2-2.2c0-1.1-0.3-2.1-1.2-2.1C540.6,95.4,540.1,96.3,540.1,97.5z"/>
	<path d="M549.5,90.5v4.1h4.7v-4.1h1.3v9.8h-1.3v-4.6h-4.7v4.6h-1.3v-9.8H549.5z"/>
	<path d="M559.3,97.2l-1,3.1H557l3.3-9.8h1.5l3.3,9.8h-1.4l-1-3.1H559.3z M562.5,96.2l-1-2.8c-0.2-0.6-0.4-1.2-0.5-1.8h0
		c-0.1,0.6-0.3,1.2-0.5,1.8l-1,2.8H562.5z"/>
	<path d="M571.4,100c-0.3,0.2-1.1,0.4-2,0.4c-2.1,0-3.5-1.4-3.5-3.6c0-2.2,1.5-3.7,3.8-3.7c0.8,0,1.4,0.2,1.8,0.4l-0.3,1
		c-0.3-0.2-0.8-0.3-1.5-0.3c-1.6,0-2.5,1.2-2.5,2.7c0,1.6,1,2.6,2.4,2.6c0.7,0,1.2-0.2,1.6-0.3L571.4,100z"/>
	<path d="M503.4,109.4h-3.6l-0.4,2.4c0.2,0,0.4-0.1,0.8-0.1c0.7,0,1.5,0.2,2,0.5c0.7,0.4,1.4,1.2,1.4,2.4c0,1.8-1.5,3.2-3.5,3.2
		c-1,0-1.9-0.3-2.4-0.6l0.3-1c0.4,0.2,1.2,0.5,2,0.5c1.2,0,2.2-0.8,2.2-2.1c0-1.2-0.8-2.1-2.7-2.1c-0.5,0-1,0.1-1.3,0.1l0.6-4.5h4.5
		V109.4z"/>
	<path d="M508.7,112.6c0-0.7,0-1.3-0.1-1.9h1.1l0.1,1.1h0c0.4-0.7,1-1.3,2.2-1.3c1,0,1.7,0.6,2,1.4h0c0.2-0.4,0.5-0.7,0.8-0.9
		c0.4-0.3,0.9-0.5,1.6-0.5c0.9,0,2.3,0.6,2.3,3.1v4.1h-1.3v-4c0-1.4-0.5-2.2-1.5-2.2c-0.7,0-1.3,0.5-1.5,1.2
		c-0.1,0.2-0.1,0.4-0.1,0.6v4.3h-1.3v-4.2c0-1.1-0.5-1.9-1.5-1.9c-0.8,0-1.4,0.6-1.6,1.3c-0.1,0.2-0.1,0.4-0.1,0.6v4.2h-1.3V112.6z"
		/>
	<path d="M527.2,114.2c0,2.6-1.8,3.7-3.5,3.7c-1.9,0-3.4-1.4-3.4-3.6c0-2.4,1.5-3.7,3.5-3.7C525.9,110.6,527.2,112,527.2,114.2z
		 M521.7,114.3c0,1.5,0.9,2.7,2.1,2.7c1.2,0,2.1-1.1,2.1-2.7c0-1.2-0.6-2.7-2.1-2.7C522.3,111.5,521.7,112.9,521.7,114.3z"/>
	<path d="M528.9,107.4h1.3v10.3h-1.3V107.4z"/>
	<path d="M536.1,111c0,2-1,3-2.3,3c-1.2,0-2.2-0.9-2.2-2.9c0-1.9,1-3,2.3-3C535.3,108.1,536.1,109.2,536.1,111z M532.7,111.1
		c0,1.2,0.4,2.1,1.2,2.1c0.8,0,1.2-0.9,1.2-2.2c0-1.1-0.3-2.1-1.2-2.1C533.1,108.9,532.7,109.9,532.7,111.1z M533.8,117.9l5.6-9.8
		h0.8l-5.6,9.8H533.8z M542.3,114.9c0,2-1,3-2.3,3c-1.2,0-2.2-0.9-2.2-2.8c0-1.9,1-3,2.3-3C541.4,112.1,542.3,113.1,542.3,114.9z
		 M538.8,115c0,1.2,0.5,2.1,1.2,2.1c0.8,0,1.2-0.9,1.2-2.2c0-1.1-0.3-2.1-1.2-2.1C539.3,112.8,538.8,113.8,538.8,115z"/>
	<path d="M548,117.8l-2.5-9.8h1.3l1.2,5c0.3,1.2,0.6,2.4,0.7,3.4h0c0.2-1,0.5-2.1,0.8-3.4l1.3-4.9h1.3l1.2,5
		c0.3,1.2,0.5,2.3,0.7,3.4h0c0.2-1.1,0.5-2.2,0.8-3.4l1.3-4.9h1.3l-2.8,9.8h-1.3l-1.2-5.1c-0.3-1.3-0.5-2.2-0.6-3.2h0
		c-0.2,1-0.4,1.9-0.8,3.2l-1.4,5.1H548z"/>
	<path d="M562.1,117.8l-0.1-0.9h0c-0.4,0.6-1.1,1-2.2,1c-1.4,0-2.2-1-2.2-2c0-1.7,1.5-2.6,4.2-2.6v-0.1c0-0.6-0.2-1.6-1.6-1.6
		c-0.7,0-1.3,0.2-1.8,0.5l-0.3-0.8c0.6-0.4,1.4-0.6,2.3-0.6c2.2,0,2.7,1.5,2.7,2.9v2.6c0,0.6,0,1.2,0.1,1.7H562.1z M561.9,114.2
		c-1.4,0-3,0.2-3,1.6c0,0.8,0.6,1.2,1.2,1.2c0.9,0,1.5-0.6,1.7-1.2c0-0.1,0.1-0.3,0.1-0.4V114.2z"/>
	<path d="M566.7,108.7v2h1.8v1h-1.8v3.8c0,0.9,0.2,1.4,1,1.4c0.3,0,0.6,0,0.7-0.1l0.1,1c-0.2,0.1-0.6,0.2-1.1,0.2
		c-0.6,0-1.1-0.2-1.4-0.5c-0.4-0.4-0.5-1-0.5-1.8v-3.8h-1.1v-1h1.1V109L566.7,108.7z"/>
	<path d="M570.6,114.5c0,1.7,1.1,2.4,2.4,2.4c0.9,0,1.5-0.2,1.9-0.4l0.2,0.9c-0.5,0.2-1.2,0.4-2.3,0.4c-2.2,0-3.5-1.4-3.5-3.5
		s1.3-3.8,3.3-3.8c2.3,0,2.9,2,2.9,3.3c0,0.3,0,0.5,0,0.6H570.6z M574.3,113.6c0-0.8-0.3-2.1-1.8-2.1c-1.3,0-1.9,1.2-2,2.1H574.3z"
		/>
	<path d="M577.1,112.9c0-0.8,0-1.5-0.1-2.2h1.1l0,1.4h0.1c0.3-0.9,1.1-1.5,1.9-1.5c0.1,0,0.2,0,0.4,0v1.2c-0.1,0-0.3,0-0.4,0
		c-0.9,0-1.5,0.7-1.7,1.6c0,0.2-0.1,0.4-0.1,0.6v3.8h-1.3V112.9z"/>
</g>
</svg>
