<?xml version="1.0" encoding="utf-8"?>
<!-- Generator: Adobe Illustrator 24.1.1, SVG Export Plug-In . SVG Version: 6.00 Build 0)  -->
<svg version="1.1" id="Layer_1" xmlns="http://www.w3.org/2000/svg" xmlns:xlink="http://www.w3.org/1999/xlink" x="0px" y="0px"
	 viewBox="0 0 554.04 232.49" style="enable-background:new 0 0 554.04 232.49;" xml:space="preserve">
<style type="text/css">
	.st0{fill:#FFFFFF;}
</style>
<g>
	<rect x="126.72" y="103.64" class="st0" width="155" height="73"/>
	<path d="M282.22,177.14h-156v-74h156V177.14z M127.22,176.14h154v-72h-154V176.14z"/>
</g>
<g>
	<path d="M160.41,146.3l-4.62-14.15h1.97l2.2,6.97c0.61,1.91,1.13,3.63,1.51,5.29h0.04c0.4-1.64,0.99-3.42,1.62-5.27l2.39-6.99h1.95
		l-5.06,14.15H160.41z"/>
	<path d="M169.3,141.56c0.04,2.5,1.64,3.53,3.49,3.53c1.32,0,2.12-0.23,2.81-0.52l0.31,1.32c-0.65,0.29-1.76,0.63-3.38,0.63
		c-3.13,0-5-2.06-5-5.12s1.81-5.48,4.77-5.48c3.32,0,4.2,2.92,4.2,4.79c0,0.38-0.04,0.67-0.06,0.86H169.3z M174.71,140.24
		c0.02-1.18-0.48-3-2.56-3c-1.87,0-2.69,1.72-2.83,3H174.71z"/>
	<path d="M178.79,139.31c0-1.2-0.02-2.22-0.08-3.17h1.62l0.06,1.99h0.08c0.46-1.36,1.57-2.22,2.81-2.22c0.21,0,0.36,0.02,0.52,0.06
		v1.74c-0.19-0.04-0.38-0.06-0.63-0.06c-1.3,0-2.23,0.99-2.48,2.37c-0.04,0.25-0.08,0.54-0.08,0.86v5.42h-1.83V139.31z"/>
	<path d="M194.22,131.4v12.28c0,0.9,0.02,1.93,0.08,2.63h-1.66l-0.08-1.76h-0.04c-0.57,1.13-1.81,1.99-3.46,1.99
		c-2.46,0-4.35-2.08-4.35-5.16c-0.02-3.38,2.08-5.46,4.56-5.46c1.55,0,2.6,0.73,3.07,1.55h0.04v-6.07H194.22z M192.37,140.28
		c0-0.23-0.02-0.55-0.08-0.78c-0.27-1.18-1.28-2.14-2.67-2.14c-1.91,0-3.04,1.68-3.04,3.93c0,2.06,1.01,3.76,3,3.76
		c1.24,0,2.37-0.82,2.71-2.21c0.06-0.25,0.08-0.5,0.08-0.8V140.28z"/>
	<path d="M202.91,146.3l-0.15-1.28h-0.06c-0.57,0.8-1.66,1.51-3.11,1.51c-2.06,0-3.11-1.45-3.11-2.92c0-2.46,2.18-3.8,6.11-3.78
		v-0.21c0-0.84-0.23-2.35-2.31-2.35c-0.94,0-1.93,0.29-2.65,0.76l-0.42-1.22c0.84-0.55,2.06-0.9,3.34-0.9
		c3.11,0,3.86,2.12,3.86,4.16v3.8c0,0.88,0.04,1.74,0.17,2.44H202.91z M202.64,141.12c-2.02-0.04-4.3,0.31-4.3,2.29
		c0,1.2,0.8,1.76,1.74,1.76c1.32,0,2.16-0.84,2.46-1.7c0.06-0.19,0.1-0.4,0.1-0.59V141.12z"/>
	<path d="M207.41,138.89c0-1.05-0.02-1.91-0.08-2.75h1.62l0.08,1.64h0.06c0.57-0.97,1.51-1.87,3.19-1.87c1.39,0,2.44,0.84,2.88,2.04
		h0.04c0.31-0.57,0.71-1.01,1.13-1.32c0.61-0.46,1.28-0.71,2.25-0.71c1.34,0,3.34,0.88,3.34,4.41v5.98h-1.81v-5.75
		c0-1.95-0.71-3.13-2.2-3.13c-1.05,0-1.87,0.78-2.18,1.68c-0.08,0.25-0.15,0.59-0.15,0.92v6.28h-1.81v-6.09
		c0-1.62-0.71-2.79-2.12-2.79c-1.15,0-1.99,0.92-2.29,1.85c-0.1,0.27-0.15,0.59-0.15,0.9v6.13h-1.81V138.89z"/>
	<path d="M224.92,139.46c0-1.3-0.04-2.35-0.08-3.32h1.66l0.08,1.74h0.04c0.76-1.24,1.95-1.97,3.61-1.97c2.46,0,4.3,2.08,4.3,5.16
		c0,3.65-2.23,5.46-4.62,5.46c-1.34,0-2.52-0.59-3.13-1.6h-0.04v5.52h-1.83V139.46z M226.75,142.17c0,0.27,0.04,0.53,0.08,0.76
		c0.34,1.28,1.45,2.16,2.77,2.16c1.95,0,3.09-1.6,3.09-3.93c0-2.04-1.07-3.78-3.02-3.78c-1.26,0-2.44,0.9-2.79,2.29
		c-0.06,0.23-0.13,0.5-0.13,0.76V142.17z"/>
	<path d="M237.9,141.56c0.04,2.5,1.64,3.53,3.49,3.53c1.32,0,2.12-0.23,2.81-0.52l0.31,1.32c-0.65,0.29-1.76,0.63-3.38,0.63
		c-3.13,0-5-2.06-5-5.12s1.81-5.48,4.77-5.48c3.32,0,4.2,2.92,4.2,4.79c0,0.38-0.04,0.67-0.06,0.86H237.9z M243.32,140.24
		c0.02-1.18-0.48-3-2.56-3c-1.87,0-2.69,1.72-2.83,3H243.32z"/>
	<path d="M247.39,139.31c0-1.2-0.02-2.22-0.08-3.17h1.62l0.06,1.99h0.08c0.46-1.36,1.57-2.22,2.81-2.22c0.21,0,0.36,0.02,0.52,0.06
		v1.74c-0.19-0.04-0.38-0.06-0.63-0.06c-1.3,0-2.23,0.99-2.48,2.37c-0.04,0.25-0.08,0.54-0.08,0.86v5.42h-1.83V139.31z"/>
</g>
<g>
	<rect x="364.72" y="103.41" class="st0" width="155" height="73"/>
	<path d="M520.22,176.91h-156v-74h156V176.91z M365.22,175.91h154v-72h-154V175.91z"/>
</g>
<g>
	<path d="M390.2,131.92h1.83v6.82h0.06c0.38-0.54,0.76-1.05,1.11-1.51l4.33-5.31h2.27l-5.12,6l5.52,8.15h-2.16l-4.66-6.95
		l-1.34,1.55v5.4h-1.83V131.92z"/>
	<path d="M401.73,139.08c0-1.2-0.02-2.22-0.08-3.17h1.62l0.06,1.99h0.08c0.46-1.36,1.58-2.22,2.81-2.22c0.21,0,0.36,0.02,0.53,0.06
		v1.74c-0.19-0.04-0.38-0.06-0.63-0.06c-1.3,0-2.22,0.99-2.48,2.37c-0.04,0.25-0.08,0.54-0.08,0.86v5.42h-1.83V139.08z"/>
	<path d="M410.73,133.05c0.02,0.63-0.44,1.13-1.18,1.13c-0.65,0-1.11-0.5-1.11-1.13c0-0.65,0.48-1.15,1.15-1.15
		C410.29,131.9,410.73,132.4,410.73,133.05z M408.68,146.07v-10.16h1.85v10.16H408.68z"/>
	<path d="M413.34,144.18c0.55,0.36,1.51,0.74,2.44,0.74c1.34,0,1.97-0.67,1.97-1.51c0-0.88-0.53-1.37-1.89-1.87
		c-1.83-0.65-2.69-1.66-2.69-2.88c0-1.64,1.32-2.98,3.51-2.98c1.03,0,1.93,0.29,2.5,0.63l-0.46,1.34c-0.4-0.25-1.13-0.59-2.08-0.59
		c-1.09,0-1.7,0.63-1.7,1.39c0,0.84,0.61,1.22,1.93,1.72c1.76,0.67,2.67,1.55,2.67,3.07c0,1.78-1.39,3.04-3.8,3.04
		c-1.11,0-2.14-0.27-2.86-0.69L413.34,144.18z"/>
	<path d="M424.13,132.99v2.92h2.65v1.41h-2.65v5.48c0,1.26,0.36,1.97,1.39,1.97c0.48,0,0.84-0.06,1.07-0.13l0.08,1.39
		c-0.36,0.15-0.92,0.25-1.64,0.25c-0.86,0-1.55-0.27-2-0.78c-0.52-0.55-0.71-1.45-0.71-2.65v-5.54h-1.57v-1.41h1.57v-2.44
		L424.13,132.99z"/>
	<path d="M434.48,146.07l-0.15-1.28h-0.06c-0.57,0.8-1.66,1.51-3.11,1.51c-2.06,0-3.11-1.45-3.11-2.92c0-2.46,2.18-3.8,6.11-3.78
		v-0.21c0-0.84-0.23-2.35-2.31-2.35c-0.95,0-1.93,0.29-2.65,0.76l-0.42-1.22c0.84-0.55,2.06-0.9,3.34-0.9
		c3.11,0,3.86,2.12,3.86,4.16v3.8c0,0.88,0.04,1.74,0.17,2.44H434.48z M434.21,140.89c-2.02-0.04-4.3,0.31-4.3,2.29
		c0,1.2,0.8,1.76,1.74,1.76c1.32,0,2.16-0.84,2.46-1.7c0.06-0.19,0.11-0.4,0.11-0.59V140.89z"/>
	<path d="M438.98,131.16h1.85v14.91h-1.85V131.16z"/>
	<path d="M443.93,131.16h1.85v14.91h-1.85V131.16z"/>
	<path d="M450.95,133.05c0.02,0.63-0.44,1.13-1.18,1.13c-0.65,0-1.11-0.5-1.11-1.13c0-0.65,0.48-1.15,1.15-1.15
		C450.51,131.9,450.95,132.4,450.95,133.05z M448.89,146.07v-10.16h1.85v10.16H448.89z"/>
	<path d="M453.55,144.18c0.55,0.36,1.51,0.74,2.44,0.74c1.34,0,1.97-0.67,1.97-1.51c0-0.88-0.52-1.37-1.89-1.87
		c-1.83-0.65-2.69-1.66-2.69-2.88c0-1.64,1.32-2.98,3.51-2.98c1.03,0,1.93,0.29,2.5,0.63l-0.46,1.34c-0.4-0.25-1.13-0.59-2.08-0.59
		c-1.09,0-1.7,0.63-1.7,1.39c0,0.84,0.61,1.22,1.93,1.72c1.76,0.67,2.67,1.55,2.67,3.07c0,1.78-1.38,3.04-3.8,3.04
		c-1.11,0-2.14-0.27-2.86-0.69L453.55,144.18z"/>
	<path d="M467.75,146.07l-0.15-1.28h-0.06c-0.57,0.8-1.66,1.51-3.11,1.51c-2.06,0-3.11-1.45-3.11-2.92c0-2.46,2.18-3.8,6.11-3.78
		v-0.21c0-0.84-0.23-2.35-2.31-2.35c-0.95,0-1.93,0.29-2.65,0.76l-0.42-1.22c0.84-0.55,2.06-0.9,3.34-0.9
		c3.11,0,3.86,2.12,3.86,4.16v3.8c0,0.88,0.04,1.74,0.17,2.44H467.75z M467.47,140.89c-2.02-0.04-4.3,0.31-4.3,2.29
		c0,1.2,0.8,1.76,1.74,1.76c1.32,0,2.16-0.84,2.46-1.7c0.06-0.19,0.11-0.4,0.11-0.59V140.89z"/>
	<path d="M474.38,132.99v2.92h2.65v1.41h-2.65v5.48c0,1.26,0.36,1.97,1.39,1.97c0.48,0,0.84-0.06,1.07-0.13l0.08,1.39
		c-0.36,0.15-0.92,0.25-1.64,0.25c-0.86,0-1.55-0.27-2-0.78c-0.52-0.55-0.71-1.45-0.71-2.65v-5.54H471v-1.41h1.57v-2.44
		L474.38,132.99z"/>
	<path d="M488.18,140.91c0,3.76-2.6,5.4-5.06,5.4c-2.75,0-4.87-2.02-4.87-5.23c0-3.4,2.23-5.4,5.04-5.4
		C486.21,135.68,488.18,137.8,488.18,140.91z M480.12,141.01c0,2.23,1.28,3.91,3.09,3.91c1.76,0,3.09-1.66,3.09-3.95
		c0-1.72-0.86-3.91-3.04-3.91S480.12,139.08,480.12,141.01z"/>
	<path d="M490.51,139.08c0-1.2-0.02-2.22-0.08-3.17h1.62l0.06,1.99h0.08c0.46-1.36,1.58-2.22,2.81-2.22c0.21,0,0.36,0.02,0.52,0.06
		v1.74c-0.19-0.04-0.38-0.06-0.63-0.06c-1.3,0-2.23,0.99-2.48,2.37c-0.04,0.25-0.08,0.54-0.08,0.86v5.42h-1.83V139.08z"/>
</g>
<g>
	<g>
		<rect x="281.83" y="139.85" width="69.86" height="1"/>
	</g>
	<g>
		<g>
			<polygon points="348.72,144.71 364.98,140.35 348.72,135.99 			"/>
		</g>
	</g>
</g>
<g>
	<g>
		<rect x="203.83" y="176.85" width="1" height="42.35"/>
	</g>
	<g>
		<g>
			<polygon points="199.97,216.23 204.33,232.49 208.68,216.23 			"/>
		</g>
	</g>
</g>
<g>
	<g>
		<rect x="441.98" y="176.85" width="1" height="42.35"/>
	</g>
	<g>
		<g>
			<polygon points="438.12,216.23 442.48,232.49 446.84,216.23 			"/>
		</g>
	</g>
</g>
<g>
	<g>
		<rect x="71.79" y="139.85" width="41.75" height="1"/>
	</g>
	<g>
		<g>
			<polygon points="110.57,135.99 126.83,140.35 110.57,144.71 			"/>
		</g>
	</g>
</g>
<g>
	<path d="M72.29,150.6h-20.5v-20.5h20.5V150.6z M52.79,149.6h18.5v-18.5h-18.5V149.6z"/>
</g>
<g>
	<g>
		<rect x="0" y="139.85" width="39" height="1"/>
	</g>
	<g>
		<g>
			<polygon points="36.02,135.99 52.29,140.35 36.02,144.71 			"/>
		</g>
	</g>
</g>
<g>
	<g>
		<polygon points="204.83,103.85 203.83,103.85 203.83,67.93 283.39,67.93 283.39,68.93 204.83,68.93 		"/>
	</g>
	<g>
		<g>
			<polygon points="280.42,64.07 296.68,68.43 280.42,72.78 			"/>
		</g>
	</g>
</g>
<g>
	<g>
		<polygon points="554.54,140.85 519.98,140.85 519.98,139.85 553.54,139.85 553.54,29.1 62.54,29.1 62.54,117.31 61.54,117.31 
			61.54,28.1 554.54,28.1 		"/>
	</g>
	<g>
		<g>
			<polygon points="57.68,114.34 62.04,130.6 66.39,114.34 			"/>
		</g>
	</g>
</g>
<g>
	<path d="M15.38,110.44H23v1.53h-5.79v4.7h5.35v1.51h-5.35v6.4h-1.83V110.44z"/>
</g>
<g>
	<path d="M85.02,110.44h7.62v1.53h-5.79v4.7h5.35v1.51h-5.35v6.4h-1.83V110.44z"/>
	<path d="M95.65,123.34v8.25h-1.06v-8.25H95.65z"/>
	<path d="M97.51,131.59v-8.25h1.16l2.64,4.17c0.61,0.97,1.09,1.84,1.48,2.68l0.02-0.01c-0.1-1.1-0.12-2.1-0.12-3.39v-3.45h1v8.25
		h-1.08L100,127.4c-0.58-0.92-1.13-1.86-1.54-2.75l-0.04,0.01c0.06,1.04,0.09,2.03,0.09,3.4v3.52H97.51z"/>
</g>
<g>
	<path d="M219.64,207.47h1.83v6.82h0.06c0.38-0.55,0.76-1.05,1.11-1.51l4.33-5.31h2.27l-5.12,6l5.52,8.15h-2.16l-4.66-6.95
		l-1.34,1.55v5.4h-1.83V207.47z"/>
	<path d="M232.31,221.66h-0.02l-1.38,0.75l-0.21-0.82l1.74-0.93h0.92v7.95h-1.04V221.66z"/>
</g>
<g>
	<path d="M459.76,207.47h1.83v6.82h0.06c0.38-0.55,0.76-1.05,1.11-1.51l4.33-5.31h2.27l-5.12,6l5.52,8.15h-2.16l-4.66-6.95
		l-1.34,1.55v5.4h-1.83V207.47z"/>
	<path d="M470.1,228.61v-0.66l0.84-0.82c2.03-1.93,2.95-2.96,2.96-4.16c0-0.81-0.39-1.55-1.58-1.55c-0.72,0-1.32,0.37-1.69,0.67
		l-0.34-0.76c0.55-0.47,1.33-0.81,2.25-0.81c1.71,0,2.44,1.17,2.44,2.31c0,1.47-1.06,2.66-2.74,4.27l-0.64,0.59v0.02h3.57v0.89
		H470.1z"/>
</g>
<g>
	<path d="M320.71,112h-4.3v-1.55h10.48V112h-4.33v12.6h-1.85V112z"/>
</g>
<g>
	<path d="M260.37,90.42l-3.59-14.15h1.93l1.68,7.16c0.42,1.76,0.8,3.53,1.05,4.89h0.04c0.23-1.41,0.67-3.09,1.15-4.91l1.89-7.14
		h1.91l1.72,7.18c0.4,1.68,0.78,3.36,0.99,4.85h0.04c0.29-1.55,0.69-3.13,1.13-4.89l1.87-7.14h1.87l-4.01,14.15h-1.91l-1.78-7.37
		c-0.44-1.81-0.73-3.19-0.92-4.62h-0.04c-0.25,1.41-0.57,2.79-1.09,4.62l-2.02,7.37H260.37z"/>
</g>
<g>
	<g>
		<rect x="333.6" y="28.1" width="10.32" height="1"/>
	</g>
	<g>
		<g>
			<polygon points="336.57,24.24 320.31,28.6 336.57,32.95 			"/>
		</g>
	</g>
</g>
<g>
	<path d="M366.57,4.46c0.92-0.19,2.25-0.29,3.51-0.29c1.95,0,3.21,0.36,4.09,1.15c0.71,0.63,1.11,1.6,1.11,2.69
		c0,1.87-1.18,3.11-2.67,3.61v0.06c1.09,0.38,1.74,1.39,2.08,2.86c0.46,1.97,0.8,3.34,1.09,3.88h-1.89
		c-0.23-0.4-0.55-1.62-0.95-3.38c-0.42-1.95-1.18-2.69-2.83-2.75h-1.72v6.13h-1.83V4.46z M368.4,10.9h1.87
		c1.95,0,3.19-1.07,3.19-2.69c0-1.83-1.32-2.62-3.25-2.65c-0.88,0-1.51,0.08-1.81,0.17V10.9z"/>
</g>
</svg>
