<?xml version="1.0" encoding="utf-8"?>
<!-- Generator: Adobe Illustrator 24.1.2, SVG Export Plug-In . SVG Version: 6.00 Build 0)  -->
<svg version="1.1" id="Layer_1" xmlns="http://www.w3.org/2000/svg" xmlns:xlink="http://www.w3.org/1999/xlink" x="0px" y="0px"
	 viewBox="0 0 490 353" style="enable-background:new 0 0 490 353;" xml:space="preserve">
<style type="text/css">
	.st0{fill:#FFFFFF;}
</style>
<g>
	<rect x="121.9" y="75.4" class="st0" width="69" height="210"/>
	<path d="M191.4,285.9h-70v-211h70V285.9z M122.4,284.9h68v-209h-68V284.9z"/>
</g>
<g>
	<g>
		<rect x="9" y="183.5" width="104.1" height="1"/>
	</g>
	<g>
		<g>
			<polygon points="111.2,186.9 122,184 111.2,181.1 			"/>
		</g>
	</g>
</g>
<g>
	<path d="M10.4,156.9h6.5v1.3h-5v4h4.6v1.3h-4.6v5.5h-1.6V156.9z"/>
	<path d="M22.3,162.9v-1.1h9.3v1.1H22.3z M22.3,166.5v-1.1h9.3v1.1H22.3z"/>
	<path d="M40.4,158.8L40.4,158.8l-2.1,1.1l-0.3-1.2l2.6-1.4h1.4V169h-1.5V158.8z"/>
	<path d="M53.9,163c0,4-1.5,6.2-4.1,6.2c-2.3,0-3.8-2.1-3.9-6c0-3.9,1.7-6.1,4.1-6.1C52.5,157.1,53.9,159.3,53.9,163z M47.6,163.2
		c0,3,0.9,4.8,2.4,4.8c1.6,0,2.4-1.9,2.4-4.9c0-2.9-0.7-4.8-2.4-4.8C48.6,158.3,47.6,160,47.6,163.2z"/>
	<path d="M63.2,163c0,4-1.5,6.2-4.1,6.2c-2.3,0-3.8-2.1-3.9-6c0-3.9,1.7-6.1,4.1-6.1C61.8,157.1,63.2,159.3,63.2,163z M56.8,163.2
		c0,3,0.9,4.8,2.4,4.8c1.6,0,2.4-1.9,2.4-4.9c0-2.9-0.7-4.8-2.4-4.8C57.8,158.3,56.8,160,56.8,163.2z"/>
	<path d="M72.4,163c0,4-1.5,6.2-4.1,6.2c-2.3,0-3.8-2.1-3.9-6c0-3.9,1.7-6.1,4.1-6.1C71,157.1,72.4,159.3,72.4,163z M66.1,163.2
		c0,3,0.9,4.8,2.4,4.8c1.6,0,2.4-1.9,2.4-4.9c0-2.9-0.7-4.8-2.4-4.8C67.1,158.3,66.1,160,66.1,163.2z"/>
	<path d="M79.8,164.3L79.8,164.3c0.3-0.3,0.6-0.7,0.8-1l2.6-3H85l-3.4,3.6l3.8,5.1h-1.9l-3-4.2l-0.8,0.9v3.3h-1.6v-12.8h1.6V164.3z"
		/>
	<path d="M94.1,160.3c0,0.6-0.1,1.3-0.1,2.4v5.1c0,2-0.4,3.2-1.2,4c-0.8,0.8-2.1,1-3.2,1c-1,0-2.2-0.3-2.9-0.7l0.4-1.2
		c0.6,0.4,1.5,0.7,2.6,0.7c1.6,0,2.8-0.8,2.8-3v-1h0c-0.5,0.8-1.4,1.5-2.8,1.5c-2.2,0-3.7-1.8-3.7-4.2c0-3,1.9-4.6,3.9-4.6
		c1.5,0,2.3,0.8,2.7,1.5h0l0.1-1.3H94.1z M92.5,163.7c0-0.3,0-0.5-0.1-0.7c-0.3-0.9-1.1-1.7-2.2-1.7c-1.5,0-2.6,1.3-2.6,3.3
		c0,1.7,0.9,3.1,2.6,3.1c1,0,1.9-0.6,2.2-1.6c0.1-0.3,0.1-0.6,0.1-0.8V163.7z"/>
	<path d="M95.4,169.7l5-13.1h1.2l-5,13.1H95.4z"/>
	<path d="M102.9,156.2h1.6v5.4h0c0.3-0.5,0.6-0.8,1.1-1.1c0.5-0.3,1-0.5,1.6-0.5c1.2,0,3,0.7,3,3.7v5.2h-1.6v-5c0-1.4-0.5-2.6-2-2.6
		c-1,0-1.8,0.7-2.1,1.6c-0.1,0.2-0.1,0.5-0.1,0.8v5.3h-1.6V156.2z"/>
</g>
<g>
	<path d="M16.8,199.9h-4.5l-0.5,3c0.3,0,0.5-0.1,1-0.1c0.9,0,1.8,0.2,2.5,0.6c0.9,0.5,1.7,1.5,1.7,3c0,2.3-1.8,4-4.4,4
		c-1.3,0-2.4-0.4-2.9-0.7l0.4-1.2c0.5,0.3,1.4,0.6,2.5,0.6c1.5,0,2.8-1,2.8-2.5c0-1.5-1-2.6-3.4-2.6c-0.7,0-1.2,0.1-1.6,0.1l0.8-5.6
		h5.6V199.9z"/>
	<path d="M26.8,204.3c0,4-1.5,6.2-4.1,6.2c-2.3,0-3.8-2.1-3.9-6c0-3.9,1.7-6.1,4.1-6.1C25.4,198.4,26.8,200.6,26.8,204.3z
		 M20.5,204.5c0,3,0.9,4.8,2.4,4.8c1.6,0,2.4-1.9,2.4-4.9c0-2.9-0.7-4.8-2.4-4.8C21.5,199.6,20.5,201.3,20.5,204.5z"/>
	<path d="M33.6,201.9c0,2.5-1.3,3.7-2.8,3.7c-1.5,0-2.7-1.2-2.7-3.5c0-2.3,1.3-3.7,2.8-3.7C32.5,198.4,33.6,199.6,33.6,201.9z
		 M29.3,202c0,1.5,0.5,2.6,1.5,2.6c1,0,1.5-1.1,1.5-2.7c0-1.4-0.4-2.6-1.5-2.6C29.8,199.3,29.3,200.5,29.3,202z M30.6,210.5
		l6.9-12.1h1l-6.9,12.1H30.6z M41.2,206.7c0,2.5-1.3,3.7-2.8,3.7c-1.5,0-2.7-1.2-2.7-3.5c0-2.4,1.3-3.7,2.8-3.7
		C40.1,203.2,41.2,204.5,41.2,206.7z M36.9,206.8c0,1.5,0.6,2.6,1.5,2.6c1,0,1.5-1.1,1.5-2.7c0-1.4-0.4-2.6-1.5-2.6
		C37.4,204.2,36.9,205.3,36.9,206.8z"/>
	<path d="M46.8,210.3c0-0.6,0.1-1.5,0.1-2.3v-10.5h1.6v5.5h0c0.6-1,1.6-1.6,3-1.6c2.2,0,3.7,1.8,3.7,4.4c0,3.1-2,4.7-3.9,4.7
		c-1.3,0-2.3-0.5-2.9-1.6h-0.1l-0.1,1.4H46.8z M48.4,206.8c0,0.2,0,0.4,0.1,0.6c0.3,1.1,1.2,1.9,2.4,1.9c1.7,0,2.6-1.4,2.6-3.3
		c0-1.7-0.9-3.2-2.6-3.2c-1.1,0-2.1,0.7-2.4,1.9c0,0.2-0.1,0.4-0.1,0.6V206.8z"/>
	<path d="M58,206.2c0,2.1,1.4,3,3,3c1.1,0,1.8-0.2,2.4-0.5l0.3,1.1c-0.6,0.3-1.5,0.5-2.9,0.5c-2.7,0-4.3-1.8-4.3-4.4
		s1.5-4.7,4.1-4.7c2.8,0,3.6,2.5,3.6,4.1c0,0.3,0,0.6-0.1,0.7H58z M62.6,205.1c0-1-0.4-2.6-2.2-2.6c-1.6,0-2.3,1.5-2.4,2.6H62.6z"/>
	<path d="M66.1,203.9c0-0.9,0-1.6-0.1-2.4h1.4l0.1,1.4h0c0.4-0.8,1.4-1.6,2.9-1.6c1.2,0,3.1,0.7,3.1,3.7v5.2h-1.6v-5
		c0-1.4-0.5-2.6-2-2.6c-1,0-1.9,0.7-2.1,1.6c-0.1,0.2-0.1,0.5-0.1,0.7v5.2h-1.6V203.9z"/>
	<path d="M75.1,209.4l3.9-5.1c0.4-0.5,0.7-0.9,1.1-1.4v0h-4.7v-1.3h6.6l0,1l-3.9,5.1c-0.4,0.5-0.7,0.9-1.1,1.4v0h5.1v1.3h-7.1V209.4
		z"/>
	<path d="M84.6,206.2c0,2.1,1.4,3,3,3c1.1,0,1.8-0.2,2.4-0.5l0.3,1.1c-0.6,0.3-1.5,0.5-2.9,0.5c-2.7,0-4.3-1.8-4.3-4.4
		s1.5-4.7,4.1-4.7c2.8,0,3.6,2.5,3.6,4.1c0,0.3,0,0.6-0.1,0.7H84.6z M89.2,205.1c0-1-0.4-2.6-2.2-2.6c-1.6,0-2.3,1.5-2.4,2.6H89.2z"
		/>
	<path d="M93.6,206.2c0,2.1,1.4,3,3,3c1.1,0,1.8-0.2,2.4-0.5l0.3,1.1c-0.6,0.3-1.5,0.5-2.9,0.5c-2.7,0-4.3-1.8-4.3-4.4
		s1.5-4.7,4.1-4.7c2.8,0,3.6,2.5,3.6,4.1c0,0.3,0,0.6-0.1,0.7H93.6z M98.2,205.1c0-1-0.4-2.6-2.2-2.6c-1.6,0-2.3,1.5-2.4,2.6H98.2z"
		/>
	<path d="M101.7,203.9c0-0.9,0-1.6-0.1-2.4h1.4l0.1,1.4h0c0.4-0.8,1.4-1.6,2.9-1.6c1.2,0,3.1,0.7,3.1,3.7v5.2h-1.6v-5
		c0-1.4-0.5-2.6-2-2.6c-1,0-1.9,0.7-2.1,1.6c-0.1,0.2-0.1,0.5-0.1,0.7v5.2h-1.6V203.9z"/>
	<path d="M16.8,221.5h-4.5l-0.5,3c0.3,0,0.5-0.1,1-0.1c0.9,0,1.8,0.2,2.5,0.6c0.9,0.5,1.7,1.5,1.7,3c0,2.3-1.8,4-4.4,4
		c-1.3,0-2.4-0.4-2.9-0.7l0.4-1.2c0.5,0.3,1.4,0.6,2.5,0.6c1.5,0,2.8-1,2.8-2.5c0-1.5-1-2.6-3.4-2.6c-0.7,0-1.2,0.1-1.6,0.1l0.8-5.6
		h5.6V221.5z"/>
	<path d="M26.8,225.9c0,4-1.5,6.2-4.1,6.2c-2.3,0-3.8-2.1-3.9-6c0-3.9,1.7-6.1,4.1-6.1C25.4,220,26.8,222.2,26.8,225.9z M20.5,226.1
		c0,3,0.9,4.8,2.4,4.8c1.6,0,2.4-1.9,2.4-4.9c0-2.9-0.7-4.8-2.4-4.8C21.5,221.2,20.5,222.9,20.5,226.1z"/>
	<path d="M33.6,223.5c0,2.5-1.3,3.7-2.8,3.7c-1.5,0-2.7-1.2-2.7-3.5c0-2.3,1.3-3.7,2.8-3.7C32.5,220,33.6,221.2,33.6,223.5z
		 M29.3,223.6c0,1.5,0.5,2.6,1.5,2.6c1,0,1.5-1.1,1.5-2.7c0-1.4-0.4-2.6-1.5-2.6C29.8,220.9,29.3,222.1,29.3,223.6z M30.6,232.1
		l6.9-12.1h1l-6.9,12.1H30.6z M41.2,228.3c0,2.5-1.3,3.7-2.8,3.7c-1.5,0-2.7-1.2-2.7-3.5c0-2.4,1.3-3.7,2.8-3.7
		C40.1,224.8,41.2,226.1,41.2,228.3z M36.9,228.4c0,1.5,0.6,2.6,1.5,2.6c1,0,1.5-1.1,1.5-2.7c0-1.4-0.4-2.6-1.5-2.6
		C37.4,225.8,36.9,226.9,36.9,228.4z"/>
	<path d="M48.8,220.7v2.5H51v1.2h-2.3v4.7c0,1.1,0.3,1.7,1.2,1.7c0.4,0,0.7-0.1,0.9-0.1l0.1,1.2c-0.3,0.1-0.8,0.2-1.4,0.2
		c-0.7,0-1.3-0.2-1.7-0.7c-0.5-0.5-0.6-1.2-0.6-2.3v-4.8h-1.4v-1.2h1.4v-2.1L48.8,220.7z"/>
	<path d="M60.6,227.5c0,3.2-2.2,4.6-4.3,4.6c-2.4,0-4.2-1.7-4.2-4.5c0-2.9,1.9-4.6,4.3-4.6C58.9,223,60.6,224.8,60.6,227.5z
		 M53.7,227.5c0,1.9,1.1,3.3,2.6,3.3c1.5,0,2.6-1.4,2.6-3.4c0-1.5-0.7-3.3-2.6-3.3C54.5,224.2,53.7,225.9,53.7,227.5z"/>
	<path d="M62.6,219.1h1.6v12.8h-1.6V219.1z"/>
	<path d="M74.1,229.5c0,0.9,0,1.7,0.1,2.4h-1.4l-0.1-1.4h0c-0.4,0.7-1.3,1.6-2.9,1.6c-1.4,0-3-0.8-3-3.8v-5.1h1.6v4.8
		c0,1.7,0.5,2.8,1.9,2.8c1.1,0,1.8-0.7,2.1-1.4c0.1-0.2,0.1-0.5,0.1-0.8v-5.3h1.6V229.5z"/>
	<path d="M77.6,227.8c0,2.1,1.4,3,3,3c1.1,0,1.8-0.2,2.4-0.5l0.3,1.1c-0.6,0.3-1.5,0.5-2.9,0.5c-2.7,0-4.3-1.8-4.3-4.4
		s1.5-4.7,4.1-4.7c2.8,0,3.6,2.5,3.6,4.1c0,0.3,0,0.6-0.1,0.7H77.6z M82.3,226.7c0-1-0.4-2.6-2.2-2.6c-1.6,0-2.3,1.5-2.4,2.6H82.3z"
		/>
	<path d="M86.7,227.8c0,2.1,1.4,3,3,3c1.1,0,1.8-0.2,2.4-0.5l0.3,1.1c-0.6,0.3-1.5,0.5-2.9,0.5c-2.7,0-4.3-1.8-4.3-4.4
		s1.5-4.7,4.1-4.7c2.8,0,3.6,2.5,3.6,4.1c0,0.3,0,0.6-0.1,0.7H86.7z M91.3,226.7c0-1-0.4-2.6-2.2-2.6c-1.6,0-2.3,1.5-2.4,2.6H91.3z"
		/>
	<path d="M94.8,225.5c0-0.9,0-1.6-0.1-2.4h1.4l0.1,1.4h0c0.4-0.8,1.4-1.6,2.9-1.6c1.2,0,3.1,0.7,3.1,3.7v5.2h-1.6v-5
		c0-1.4-0.5-2.6-2-2.6c-1,0-1.9,0.7-2.1,1.6c-0.1,0.2-0.1,0.5-0.1,0.7v5.2h-1.6V225.5z"/>
</g>
<g>
	<path d="M318.3,58.3h-41c-0.4,0-0.8-0.3-0.8-0.8v-41c0-0.4,0.3-0.8,0.8-0.8h41c0.4,0,0.8,0.3,0.8,0.8v41
		C319,57.9,318.7,58.3,318.3,58.3z M277.5,57.3H318V16.8h-40.5V57.3z"/>
</g>
<g>
	<g>
		<polygon points="157,76 156,76 156,36.5 268.1,36.5 268.1,37.5 157,37.5 		"/>
	</g>
	<g>
		<g>
			<polygon points="266.2,34.1 277,37 266.2,39.9 			"/>
		</g>
	</g>
</g>
<g>
	<g>
		<rect x="199.9" y="99.5" width="270.3" height="1"/>
	</g>
	<g>
		<g>
			<polygon points="201.8,102.9 191,100 201.8,97.1 			"/>
		</g>
	</g>
	<g>
		<g>
			<polygon points="468.2,102.9 479,100 468.2,97.1 			"/>
		</g>
	</g>
</g>
<g>
	<g>
		<polygon points="362.5,91.1 361.5,91.1 361.5,37.5 318.5,37.5 318.5,36.5 362.5,36.5 		"/>
	</g>
	<g>
		<g>
			<polygon points="364.9,89.2 362,100 359.1,89.2 			"/>
		</g>
	</g>
</g>
<g>
	<g>
		<polygon points="470.1,324.5 156,324.5 156,286 157,286 157,323.5 470.1,323.5 		"/>
	</g>
	<g>
		<g>
			<polygon points="468.2,321.1 479,324 468.2,326.9 			"/>
		</g>
	</g>
</g>
<g>
	<path d="M301.9,43.6c-0.6,0.3-1.7,0.6-3.2,0.6c-3.4,0-6-2.2-6-6.1c0-3.8,2.6-6.4,6.3-6.4c1.5,0,2.5,0.3,2.9,0.5l-0.4,1.3
		c-0.6-0.3-1.4-0.5-2.4-0.5c-2.8,0-4.7,1.8-4.7,5c0,3,1.7,4.9,4.7,4.9c1,0,1.9-0.2,2.6-0.5L301.9,43.6z"/>
</g>
<g>
	<path d="M163.1,144.4c0.1,1,0.3,2.1,0.3,3.3c0,2.3-0.5,3.9-1.5,4.9c-1,1.1-2.4,1.7-4.4,1.7c-2,0-3.6-0.6-4.7-1.7
		c-1.1-1.1-1.7-3-1.7-5.4c0-1.1,0.1-2.1,0.1-2.8H163.1z M152.4,146c-0.1,0.4-0.1,1-0.1,1.6c0,3.3,1.9,5.2,5.1,5.2
		c2.9,0,4.7-1.6,4.7-4.9c0-0.8-0.1-1.4-0.2-1.8H152.4z"/>
	<path d="M155.2,157.3c-2.1,0-3,1.4-3,3c0,1.1,0.2,1.8,0.5,2.4l-1.1,0.3c-0.3-0.6-0.5-1.5-0.5-2.9c0-2.7,1.8-4.3,4.4-4.3
		c2.6,0,4.7,1.5,4.7,4.1c0,2.8-2.5,3.6-4.1,3.6c-0.3,0-0.6,0-0.7-0.1V157.3z M156.3,161.9c1,0,2.6-0.4,2.6-2.2
		c0-1.6-1.5-2.3-2.6-2.4V161.9z"/>
	<path d="M152.8,165.2c-0.3,0.5-0.6,1.3-0.6,2.1c0,1.2,0.6,1.7,1.3,1.7c0.8,0,1.2-0.5,1.6-1.6c0.6-1.6,1.4-2.3,2.5-2.3
		c1.4,0,2.6,1.1,2.6,3c0,0.9-0.3,1.7-0.5,2.1l-1.2-0.4c0.2-0.3,0.5-1,0.5-1.8c0-0.9-0.5-1.5-1.2-1.5c-0.7,0-1,0.5-1.5,1.7
		c-0.6,1.5-1.3,2.3-2.6,2.3c-1.5,0-2.6-1.2-2.6-3.3c0-1,0.2-1.8,0.6-2.4L152.8,165.2z"/>
	<path d="M162.4,174.5h-2.5v2.3h-1.2v-2.3h-4.7c-1.1,0-1.7,0.3-1.7,1.2c0,0.4,0.1,0.7,0.1,0.9l-1.2,0.1c-0.1-0.3-0.2-0.8-0.2-1.4
		c0-0.7,0.2-1.3,0.7-1.7c0.5-0.5,1.2-0.6,2.3-0.6h4.8v-1.4h1.2v1.4h2.1L162.4,174.5z"/>
	<path d="M151.1,178.5h8.7v1.6h-8.7V178.5z M162.3,180.3c-0.5,0-1-0.4-1-1c0-0.6,0.4-1,1-1c0.6,0,1,0.4,1,1
		C163.3,179.9,162.9,180.3,162.3,180.3z"/>
	<path d="M163.9,182.7v1.6h-12.8v-1.6H163.9z"/>
	<path d="M163.9,187v1.6h-12.8V187H163.9z"/>
	<path d="M151.1,196l1.1-0.1v-0.1c-0.7-0.5-1.3-1.4-1.3-2.7c0-1.8,1.2-2.7,2.5-2.7c2.1,0,3.3,1.9,3.2,5.2h0.2c0.7,0,2-0.2,2-2
		c0-0.8-0.3-1.7-0.6-2.3l1-0.4c0.5,0.7,0.8,1.8,0.8,2.9c0,2.7-1.8,3.3-3.6,3.3h-3.3c-0.8,0-1.5,0-2.1,0.1V196z M155.6,195.8
		c0-1.7-0.3-3.7-2-3.7c-1,0-1.5,0.7-1.5,1.5c0,1.1,0.7,1.9,1.5,2.1c0.2,0.1,0.3,0.1,0.5,0.1H155.6z"/>
	<path d="M162.4,201.7h-2.5v2.3h-1.2v-2.3h-4.7c-1.1,0-1.7,0.3-1.7,1.2c0,0.4,0.1,0.7,0.1,0.9l-1.2,0.1c-0.1-0.3-0.2-0.8-0.2-1.4
		c0-0.7,0.2-1.3,0.7-1.7c0.5-0.5,1.2-0.6,2.3-0.6h4.8v-1.4h1.2v1.4h2.1L162.4,201.7z"/>
	<path d="M151.1,205.8h8.7v1.6h-8.7V205.8z M162.3,207.5c-0.5,0-1-0.4-1-1c0-0.6,0.4-1,1-1c0.6,0,1,0.4,1,1
		C163.3,207.2,162.9,207.5,162.3,207.5z"/>
	<path d="M155.2,210.9c-2.1,0-3,1.4-3,3c0,1.1,0.2,1.8,0.5,2.4l-1.1,0.3c-0.3-0.6-0.5-1.5-0.5-2.9c0-2.7,1.8-4.3,4.4-4.3
		c2.6,0,4.7,1.5,4.7,4.1c0,2.8-2.5,3.6-4.1,3.6c-0.3,0-0.6,0-0.7-0.1V210.9z M156.3,215.5c1,0,2.6-0.4,2.6-2.2
		c0-1.6-1.5-2.3-2.6-2.4V215.5z"/>
</g>
<g>
	<path d="M165.2,26.3l-4-12.1h1.7l1.9,6c0.5,1.6,1,3.1,1.3,4.5h0c0.3-1.4,0.8-2.9,1.4-4.5l2.1-6h1.7l-4.3,12.1H165.2z"/>
	<path d="M175.7,20.2v-1.1h9.3v1.1H175.7z M175.7,23.7v-1.1h9.3v1.1H175.7z"/>
	<path d="M190.2,23.3c0-1.5,0.9-2.5,2.3-3.1l0-0.1c-1.3-0.6-1.9-1.6-1.9-2.6c0-1.9,1.6-3.1,3.6-3.1c2.3,0,3.4,1.4,3.4,2.9
		c0,1-0.5,2.1-1.9,2.7v0.1c1.5,0.6,2.4,1.6,2.4,3c0,2-1.7,3.4-4,3.4C191.7,26.5,190.2,25,190.2,23.3z M196.5,23.2
		c0-1.4-1-2.1-2.6-2.6c-1.4,0.4-2.1,1.3-2.1,2.4c-0.1,1.2,0.8,2.2,2.3,2.2C195.6,25.3,196.5,24.4,196.5,23.2z M192.2,17.4
		c0,1.2,0.9,1.8,2.2,2.2c1-0.3,1.8-1.1,1.8-2.1c0-0.9-0.6-1.9-2-1.9C192.9,15.5,192.2,16.4,192.2,17.4z"/>
	<path d="M207.4,20.3c0,4-1.5,6.2-4.1,6.2c-2.3,0-3.8-2.1-3.9-6c0-3.9,1.7-6.1,4.1-6.1C206,14.4,207.4,16.6,207.4,20.3z M201,20.5
		c0,3,0.9,4.8,2.4,4.8c1.6,0,2.4-1.9,2.4-4.9c0-2.9-0.7-4.8-2.4-4.8C202,15.6,201,17.3,201,20.5z"/>
	<path d="M216.6,20.3c0,4-1.5,6.2-4.1,6.2c-2.3,0-3.8-2.1-3.9-6c0-3.9,1.7-6.1,4.1-6.1C215.2,14.4,216.6,16.6,216.6,20.3z
		 M210.3,20.5c0,3,0.9,4.8,2.4,4.8c1.6,0,2.4-1.9,2.4-4.9c0-2.9-0.7-4.8-2.4-4.8C211.3,15.6,210.3,17.3,210.3,20.5z"/>
	<path d="M223.9,21.6L223.9,21.6c0.3-0.3,0.6-0.7,0.8-1l2.6-3h1.9l-3.4,3.6l3.8,5.1h-1.9l-3-4.2l-0.8,0.9v3.3h-1.6V13.5h1.6V21.6z"
		/>
	<path d="M238.3,17.6c0,0.6-0.1,1.3-0.1,2.4V25c0,2-0.4,3.2-1.2,4c-0.8,0.8-2.1,1-3.2,1c-1,0-2.2-0.3-2.9-0.7l0.4-1.2
		c0.6,0.4,1.5,0.7,2.6,0.7c1.6,0,2.8-0.8,2.8-3v-1h0c-0.5,0.8-1.4,1.5-2.8,1.5c-2.2,0-3.7-1.8-3.7-4.2c0-3,1.9-4.6,3.9-4.6
		c1.5,0,2.3,0.8,2.7,1.5h0l0.1-1.3H238.3z M236.7,21c0-0.3,0-0.5-0.1-0.7c-0.3-0.9-1.1-1.7-2.2-1.7c-1.5,0-2.6,1.3-2.6,3.3
		c0,1.7,0.9,3.1,2.6,3.1c1,0,1.9-0.6,2.2-1.6c0.1-0.3,0.1-0.6,0.1-0.8V21z"/>
	<path d="M239.6,27l5-13.1h1.2l-5,13.1H239.6z"/>
	<path d="M247.1,13.5h1.6v5.4h0c0.3-0.5,0.6-0.8,1.1-1.1c0.5-0.3,1-0.5,1.6-0.5c1.2,0,3,0.7,3,3.7v5.2h-1.6v-5c0-1.4-0.5-2.6-2-2.6
		c-1,0-1.8,0.7-2.1,1.6c-0.1,0.2-0.1,0.5-0.1,0.8v5.3h-1.6V13.5z"/>
</g>
<g>
</g>
<g>
	<path d="M265.4,112c0.8-0.2,1.9-0.3,3-0.3c1.7,0,2.8,0.3,3.5,1c0.6,0.5,1,1.4,1,2.3c0,1.6-1,2.7-2.3,3.1v0.1
		c0.9,0.3,1.5,1.2,1.8,2.4c0.4,1.7,0.7,2.9,0.9,3.3h-1.6c-0.2-0.3-0.5-1.4-0.8-2.9c-0.4-1.7-1-2.3-2.4-2.4h-1.5v5.3h-1.6V112z
		 M266.9,117.6h1.6c1.7,0,2.7-0.9,2.7-2.3c0-1.6-1.1-2.3-2.8-2.3c-0.8,0-1.3,0.1-1.5,0.1V117.6z"/>
</g>
<g>
	<path d="M399.4,112c1-0.1,2.1-0.3,3.3-0.3c2.3,0,3.9,0.5,4.9,1.5c1.1,1,1.7,2.4,1.7,4.4c0,2-0.6,3.6-1.7,4.7
		c-1.1,1.1-3,1.7-5.4,1.7c-1.1,0-2.1-0.1-2.8-0.1V112z M400.9,122.8c0.4,0.1,1,0.1,1.6,0.1c3.3,0,5.2-1.9,5.2-5.1
		c0-2.9-1.6-4.7-4.9-4.7c-0.8,0-1.4,0.1-1.8,0.2V122.8z"/>
</g>
<g>
	<path d="M265.4,336c0.7-0.1,1.8-0.3,2.9-0.3c1.6,0,2.6,0.3,3.3,0.9c0.6,0.5,1,1.2,1,2.1c0,1.2-0.8,2.2-2.1,2.7v0
		c1.2,0.3,2.5,1.2,2.5,3c0,1-0.4,1.8-1,2.4c-0.8,0.8-2.2,1.1-4.2,1.1c-1.1,0-1.9-0.1-2.4-0.1V336z M266.9,341h1.4
		c1.7,0,2.6-0.9,2.6-2c0-1.4-1.1-2-2.7-2c-0.7,0-1.1,0.1-1.4,0.1V341z M266.9,346.8c0.3,0.1,0.8,0.1,1.3,0.1c1.6,0,3.1-0.6,3.1-2.4
		c0-1.7-1.4-2.3-3.1-2.3h-1.3V346.8z"/>
</g>
<g>
	<path d="M392.8,290v-3.2h-5.4v-1l5.2-7.5h1.7v7.3h1.6v1.2h-1.6v3.2H392.8z M392.8,285.6v-3.9c0-0.6,0-1.2,0.1-1.8h-0.1
		c-0.4,0.7-0.6,1.2-1,1.7l-2.9,4v0H392.8z"/>
	<path d="M402.4,281.6c0,2.5-1.3,3.7-2.8,3.7c-1.5,0-2.7-1.2-2.7-3.5c0-2.3,1.3-3.7,2.8-3.7C401.3,278.1,402.4,279.4,402.4,281.6z
		 M398.1,281.7c0,1.5,0.5,2.6,1.5,2.6c1,0,1.5-1.1,1.5-2.7c0-1.4-0.4-2.6-1.5-2.6C398.6,279,398.1,280.2,398.1,281.7z M399.5,290.2
		l6.9-12.1h1l-6.9,12.1H399.5z M410,286.4c0,2.5-1.3,3.7-2.8,3.7c-1.5,0-2.7-1.2-2.7-3.5c0-2.4,1.3-3.7,2.8-3.7
		C409,282.9,410,284.2,410,286.4z M405.7,286.5c0,1.5,0.6,2.6,1.5,2.6c1,0,1.5-1.1,1.5-2.7c0-1.4-0.4-2.6-1.5-2.6
		C406.3,283.9,405.7,285.1,405.7,286.5z"/>
	<path d="M415.6,290c0-0.6,0.1-1.5,0.1-2.3v-10.5h1.6v5.5h0c0.6-1,1.6-1.6,3-1.6c2.2,0,3.7,1.8,3.7,4.4c0,3.1-2,4.7-3.9,4.7
		c-1.3,0-2.3-0.5-2.9-1.6h-0.1L417,290H415.6z M417.3,286.5c0,0.2,0,0.4,0.1,0.6c0.3,1.1,1.2,1.9,2.4,1.9c1.7,0,2.6-1.4,2.6-3.3
		c0-1.7-0.9-3.2-2.6-3.2c-1.1,0-2.1,0.7-2.4,1.9c0,0.2-0.1,0.4-0.1,0.6V286.5z"/>
	<path d="M426.8,285.9c0,2.1,1.4,3,3,3c1.1,0,1.8-0.2,2.4-0.5l0.3,1.1c-0.6,0.3-1.5,0.5-2.9,0.5c-2.7,0-4.3-1.8-4.3-4.4
		c0-2.6,1.5-4.7,4.1-4.7c2.8,0,3.6,2.5,3.6,4.1c0,0.3,0,0.6-0.1,0.7H426.8z M431.5,284.8c0-1-0.4-2.6-2.2-2.6
		c-1.6,0-2.3,1.5-2.4,2.6H431.5z"/>
	<path d="M435,283.6c0-0.9,0-1.6-0.1-2.4h1.4l0.1,1.4h0c0.4-0.8,1.4-1.6,2.9-1.6c1.2,0,3.1,0.7,3.1,3.7v5.2h-1.6v-5
		c0-1.4-0.5-2.6-2-2.6c-1,0-1.9,0.7-2.1,1.6c-0.1,0.2-0.1,0.5-0.1,0.7v5.2H435V283.6z"/>
	<path d="M444,289.1l3.9-5.1c0.4-0.5,0.7-0.9,1.1-1.4v0h-4.7v-1.3h6.6l0,1l-3.9,5.1c-0.4,0.5-0.7,0.9-1.1,1.4v0h5.1v1.3H444V289.1z"
		/>
	<path d="M453.4,285.9c0,2.1,1.4,3,3,3c1.1,0,1.8-0.2,2.4-0.5l0.3,1.1c-0.6,0.3-1.5,0.5-2.9,0.5c-2.7,0-4.3-1.8-4.3-4.4
		c0-2.6,1.5-4.7,4.1-4.7c2.8,0,3.6,2.5,3.6,4.1c0,0.3,0,0.6-0.1,0.7H453.4z M458.1,284.8c0-1-0.4-2.6-2.2-2.6
		c-1.6,0-2.3,1.5-2.4,2.6H458.1z"/>
	<path d="M462.4,285.9c0,2.1,1.4,3,3,3c1.1,0,1.8-0.2,2.4-0.5l0.3,1.1c-0.6,0.3-1.5,0.5-2.9,0.5c-2.7,0-4.3-1.8-4.3-4.4
		c0-2.6,1.5-4.7,4.1-4.7c2.8,0,3.6,2.5,3.6,4.1c0,0.3,0,0.6-0.1,0.7H462.4z M467.1,284.8c0-1-0.4-2.6-2.2-2.6
		c-1.6,0-2.3,1.5-2.4,2.6H467.1z"/>
	<path d="M470.6,283.6c0-0.9,0-1.6-0.1-2.4h1.4l0.1,1.4h0c0.4-0.8,1.4-1.6,2.9-1.6c1.2,0,3.1,0.7,3.1,3.7v5.2h-1.6v-5
		c0-1.4-0.5-2.6-2-2.6c-1,0-1.9,0.7-2.1,1.6c-0.1,0.2-0.1,0.5-0.1,0.7v5.2h-1.6V283.6z"/>
	<path d="M377.4,310.5c0.3,0,0.7,0,1.3-0.1c0.9-0.1,1.8-0.5,2.4-1.1c0.8-0.7,1.3-1.7,1.5-3.1h-0.1c-0.6,0.8-1.6,1.3-2.8,1.3
		c-2.1,0-3.5-1.6-3.5-3.6c0-2.2,1.6-4.2,4-4.2s3.9,1.9,3.9,4.9c0,2.6-0.9,4.4-2,5.5c-0.9,0.9-2.1,1.4-3.4,1.6
		c-0.6,0.1-1.1,0.1-1.5,0.1V310.5z M377.9,303.7c0,1.5,0.9,2.5,2.3,2.5c1.1,0,1.9-0.5,2.3-1.2c0.1-0.1,0.1-0.3,0.1-0.6
		c0-2-0.7-3.5-2.4-3.5C378.9,300.9,377.9,302.1,377.9,303.7z"/>
	<path d="M392.4,301c-0.3,0-0.7,0-1.2,0.1c-2.5,0.4-3.8,2.2-4.1,4.2h0.1c0.6-0.7,1.5-1.4,2.8-1.4c2.1,0,3.5,1.5,3.5,3.8
		c0,2.1-1.5,4.1-3.9,4.1c-2.5,0-4.1-1.9-4.1-5c0-2.3,0.8-4.1,2-5.3c1-1,2.3-1.5,3.7-1.7c0.5-0.1,0.9-0.1,1.2-0.1V301z M391.9,307.8
		c0-1.7-1-2.7-2.4-2.7c-1,0-1.8,0.6-2.3,1.4c-0.1,0.2-0.2,0.4-0.2,0.7c0,1.9,0.9,3.3,2.6,3.3C391,310.6,391.9,309.4,391.9,307.8z"/>
	<path d="M400.2,303.2c0,2.5-1.3,3.7-2.8,3.7c-1.5,0-2.7-1.2-2.7-3.5c0-2.3,1.3-3.7,2.8-3.7C399.1,299.7,400.2,301,400.2,303.2z
		 M395.9,303.3c0,1.5,0.5,2.6,1.5,2.6c1,0,1.5-1.1,1.5-2.7c0-1.4-0.4-2.6-1.5-2.6C396.4,300.6,395.9,301.8,395.9,303.3z
		 M397.3,311.8l6.9-12.1h1l-6.9,12.1H397.3z M407.8,308c0,2.5-1.3,3.7-2.8,3.7c-1.5,0-2.7-1.2-2.7-3.5c0-2.4,1.3-3.7,2.8-3.7
		C406.7,304.5,407.8,305.8,407.8,308z M403.5,308.1c0,1.5,0.6,2.6,1.5,2.6c1,0,1.5-1.1,1.5-2.7c0-1.4-0.4-2.6-1.5-2.6
		C404.1,305.5,403.5,306.7,403.5,308.1z"/>
	<path d="M419.2,300.4v2.5h2.3v1.2h-2.3v4.7c0,1.1,0.3,1.7,1.2,1.7c0.4,0,0.7-0.1,0.9-0.1l0.1,1.2c-0.3,0.1-0.8,0.2-1.4,0.2
		c-0.7,0-1.3-0.2-1.7-0.7c-0.5-0.5-0.6-1.2-0.6-2.3v-4.8h-1.4v-1.2h1.4v-2.1L419.2,300.4z"/>
	<path d="M431,307.2c0,3.2-2.2,4.6-4.3,4.6c-2.4,0-4.2-1.7-4.2-4.5c0-2.9,1.9-4.6,4.3-4.6C429.4,302.7,431,304.5,431,307.2z
		 M424.1,307.3c0,1.9,1.1,3.3,2.6,3.3c1.5,0,2.6-1.4,2.6-3.4c0-1.5-0.7-3.3-2.6-3.3C424.9,303.9,424.1,305.6,424.1,307.3z"/>
	<path d="M433,298.8h1.6v12.8H433V298.8z"/>
	<path d="M444.6,309.2c0,0.9,0,1.7,0.1,2.4h-1.4l-0.1-1.4h0c-0.4,0.7-1.3,1.6-2.9,1.6c-1.4,0-3-0.8-3-3.8v-5.1h1.6v4.8
		c0,1.7,0.5,2.8,1.9,2.8c1.1,0,1.8-0.7,2.1-1.4c0.1-0.2,0.1-0.5,0.1-0.8v-5.3h1.6V309.2z"/>
	<path d="M448.1,307.5c0,2.1,1.4,3,3,3c1.1,0,1.8-0.2,2.4-0.5l0.3,1.1c-0.6,0.3-1.5,0.5-2.9,0.5c-2.7,0-4.3-1.8-4.3-4.4
		s1.5-4.7,4.1-4.7c2.8,0,3.6,2.5,3.6,4.1c0,0.3,0,0.6-0.1,0.7H448.1z M452.7,306.4c0-1-0.4-2.6-2.2-2.6c-1.6,0-2.3,1.5-2.4,2.6
		H452.7z"/>
	<path d="M457.1,307.5c0,2.1,1.4,3,3,3c1.1,0,1.8-0.2,2.4-0.5l0.3,1.1c-0.6,0.3-1.5,0.5-2.9,0.5c-2.7,0-4.3-1.8-4.3-4.4
		s1.5-4.7,4.1-4.7c2.8,0,3.6,2.5,3.6,4.1c0,0.3,0,0.6-0.1,0.7H457.1z M461.8,306.4c0-1-0.4-2.6-2.2-2.6c-1.6,0-2.3,1.5-2.4,2.6
		H461.8z"/>
	<path d="M465.2,305.2c0-0.9,0-1.6-0.1-2.4h1.4l0.1,1.4h0c0.4-0.8,1.4-1.6,2.9-1.6c1.2,0,3.1,0.7,3.1,3.7v5.2h-1.6v-5
		c0-1.4-0.5-2.6-2-2.6c-1,0-1.9,0.7-2.1,1.6c-0.1,0.2-0.1,0.5-0.1,0.7v5.2h-1.6V305.2z"/>
</g>
<g>
	<path d="M377.4,62.4c0.3,0,0.7,0,1.3-0.1c0.9-0.1,1.8-0.5,2.4-1.1c0.8-0.7,1.3-1.7,1.5-3.1h-0.1c-0.6,0.8-1.6,1.3-2.8,1.3
		c-2.1,0-3.5-1.6-3.5-3.6c0-2.2,1.6-4.2,4-4.2s3.9,1.9,3.9,4.9c0,2.6-0.9,4.4-2,5.5c-0.9,0.9-2.1,1.4-3.4,1.6
		c-0.6,0.1-1.1,0.1-1.5,0.1V62.4z M377.9,55.6c0,1.5,0.9,2.5,2.3,2.5c1.1,0,1.9-0.5,2.3-1.2c0.1-0.1,0.1-0.3,0.1-0.6
		c0-2-0.7-3.5-2.4-3.5C378.9,52.8,377.9,54,377.9,55.6z"/>
	<path d="M392.7,53.1h-4.5l-0.5,3c0.3,0,0.5-0.1,1-0.1c0.9,0,1.8,0.2,2.5,0.6c0.9,0.5,1.7,1.5,1.7,3c0,2.3-1.8,4-4.4,4
		c-1.3,0-2.4-0.4-2.9-0.7l0.4-1.2c0.5,0.3,1.4,0.6,2.5,0.6c1.5,0,2.8-1,2.8-2.5c0-1.5-1-2.6-3.4-2.6c-0.7,0-1.2,0.1-1.6,0.1l0.8-5.6
		h5.6V53.1z"/>
	<path d="M400.2,55.1c0,2.5-1.3,3.7-2.8,3.7c-1.5,0-2.7-1.2-2.7-3.5c0-2.3,1.3-3.7,2.8-3.7C399.1,51.6,400.2,52.8,400.2,55.1z
		 M395.9,55.2c0,1.5,0.5,2.6,1.5,2.6c1,0,1.5-1.1,1.5-2.7c0-1.4-0.4-2.6-1.5-2.6C396.4,52.5,395.9,53.7,395.9,55.2z M397.3,63.7
		l6.9-12.1h1l-6.9,12.1H397.3z M407.8,59.9c0,2.5-1.3,3.7-2.8,3.7c-1.5,0-2.7-1.2-2.7-3.5c0-2.4,1.3-3.7,2.8-3.7
		C406.7,56.4,407.8,57.7,407.8,59.9z M403.5,60c0,1.5,0.6,2.6,1.5,2.6c1,0,1.5-1.1,1.5-2.7c0-1.4-0.4-2.6-1.5-2.6
		C404.1,57.4,403.5,58.6,403.5,60z"/>
	<path d="M413.4,63.5c0-0.6,0.1-1.5,0.1-2.3V50.7h1.6v5.5h0c0.6-1,1.6-1.6,3-1.6c2.2,0,3.7,1.8,3.7,4.4c0,3.1-2,4.7-3.9,4.7
		c-1.3,0-2.3-0.5-2.9-1.6h-0.1l-0.1,1.4H413.4z M415.1,60c0,0.2,0,0.4,0.1,0.6c0.3,1.1,1.2,1.9,2.4,1.9c1.7,0,2.6-1.4,2.6-3.3
		c0-1.7-0.9-3.2-2.6-3.2c-1.1,0-2.1,0.7-2.4,1.9c0,0.2-0.1,0.4-0.1,0.6V60z"/>
	<path d="M424.6,59.4c0,2.1,1.4,3,3,3c1.1,0,1.8-0.2,2.4-0.5l0.3,1.1c-0.6,0.3-1.5,0.5-2.9,0.5c-2.7,0-4.3-1.8-4.3-4.4
		c0-2.6,1.5-4.7,4.1-4.7c2.8,0,3.6,2.5,3.6,4.1c0,0.3,0,0.6-0.1,0.7H424.6z M429.3,58.3c0-1-0.4-2.6-2.2-2.6c-1.6,0-2.3,1.5-2.4,2.6
		H429.3z"/>
	<path d="M432.8,57.1c0-0.9,0-1.6-0.1-2.4h1.4l0.1,1.4h0c0.4-0.8,1.4-1.6,2.9-1.6c1.2,0,3.1,0.7,3.1,3.7v5.2h-1.6v-5
		c0-1.4-0.5-2.6-2-2.6c-1,0-1.9,0.7-2.1,1.6c-0.1,0.2-0.1,0.5-0.1,0.7v5.2h-1.6V57.1z"/>
	<path d="M441.8,62.6l3.9-5.1c0.4-0.5,0.7-0.9,1.1-1.4v0h-4.7v-1.3h6.6l0,1l-3.9,5.1c-0.4,0.5-0.7,0.9-1.1,1.4v0h5.1v1.3h-7.1V62.6z
		"/>
	<path d="M451.2,59.4c0,2.1,1.4,3,3,3c1.1,0,1.8-0.2,2.4-0.5l0.3,1.1c-0.6,0.3-1.5,0.5-2.9,0.5c-2.7,0-4.3-1.8-4.3-4.4
		c0-2.6,1.5-4.7,4.1-4.7c2.8,0,3.6,2.5,3.6,4.1c0,0.3,0,0.6-0.1,0.7H451.2z M455.8,58.3c0-1-0.4-2.6-2.2-2.6c-1.6,0-2.3,1.5-2.4,2.6
		H455.8z"/>
	<path d="M460.2,59.4c0,2.1,1.4,3,3,3c1.1,0,1.8-0.2,2.4-0.5l0.3,1.1c-0.6,0.3-1.5,0.5-2.9,0.5c-2.7,0-4.3-1.8-4.3-4.4
		c0-2.6,1.5-4.7,4.1-4.7c2.8,0,3.6,2.5,3.6,4.1c0,0.3,0,0.6-0.1,0.7H460.2z M464.9,58.3c0-1-0.4-2.6-2.2-2.6c-1.6,0-2.3,1.5-2.4,2.6
		H464.9z"/>
	<path d="M468.4,57.1c0-0.9,0-1.6-0.1-2.4h1.4l0.1,1.4h0c0.4-0.8,1.4-1.6,2.9-1.6c1.2,0,3.1,0.7,3.1,3.7v5.2h-1.6v-5
		c0-1.4-0.5-2.6-2-2.6c-1,0-1.9,0.7-2.1,1.6c-0.1,0.2-0.1,0.5-0.1,0.7v5.2h-1.6V57.1z"/>
	<path d="M391.1,74.7h-4.5l-0.5,3c0.3,0,0.5-0.1,1-0.1c0.9,0,1.8,0.2,2.5,0.6c0.9,0.5,1.7,1.5,1.7,3c0,2.3-1.8,4-4.4,4
		c-1.3,0-2.4-0.4-2.9-0.7l0.4-1.2c0.5,0.3,1.4,0.6,2.5,0.6c1.5,0,2.8-1,2.8-2.5c0-1.5-1-2.6-3.4-2.6c-0.7,0-1.2,0.1-1.6,0.1l0.8-5.6
		h5.6V74.7z"/>
	<path d="M398.6,76.7c0,2.5-1.3,3.7-2.8,3.7c-1.5,0-2.7-1.2-2.7-3.5c0-2.3,1.3-3.7,2.8-3.7C397.5,73.2,398.6,74.4,398.6,76.7z
		 M394.3,76.8c0,1.5,0.5,2.6,1.5,2.6c1,0,1.5-1.1,1.5-2.7c0-1.4-0.4-2.6-1.5-2.6C394.8,74.1,394.3,75.3,394.3,76.8z M395.7,85.3
		l6.9-12.1h1l-6.9,12.1H395.7z M406.2,81.5c0,2.5-1.3,3.7-2.8,3.7c-1.5,0-2.7-1.2-2.7-3.5c0-2.4,1.3-3.7,2.8-3.7
		C405.1,78,406.2,79.3,406.2,81.5z M401.9,81.6c0,1.5,0.6,2.6,1.5,2.6c1,0,1.5-1.1,1.5-2.7c0-1.4-0.4-2.6-1.5-2.6
		C402.5,79,401.9,80.2,401.9,81.6z"/>
	<path d="M413.8,73.9v2.5h2.3v1.2h-2.3v4.7c0,1.1,0.3,1.7,1.2,1.7c0.4,0,0.7-0.1,0.9-0.1L416,85c-0.3,0.1-0.8,0.2-1.4,0.2
		c-0.7,0-1.3-0.2-1.7-0.7c-0.5-0.5-0.6-1.2-0.6-2.3v-4.8h-1.3v-1.2h1.3v-2.1L413.8,73.9z"/>
	<path d="M425.6,80.7c0,3.2-2.2,4.6-4.3,4.6c-2.4,0-4.2-1.7-4.2-4.5c0-2.9,1.9-4.6,4.3-4.6C423.9,76.2,425.6,78,425.6,80.7z
		 M418.7,80.7c0,1.9,1.1,3.3,2.6,3.3c1.5,0,2.6-1.4,2.6-3.4c0-1.5-0.7-3.3-2.6-3.3S418.7,79.1,418.7,80.7z"/>
	<path d="M427.6,72.3h1.6v12.8h-1.6V72.3z"/>
	<path d="M439.2,82.7c0,0.9,0,1.7,0.1,2.4h-1.4l-0.1-1.4h0c-0.4,0.7-1.3,1.6-2.9,1.6c-1.4,0-3-0.8-3-3.8v-5.1h1.6v4.8
		c0,1.7,0.5,2.8,1.9,2.8c1.1,0,1.8-0.7,2.1-1.4c0.1-0.2,0.1-0.5,0.1-0.8v-5.3h1.6V82.7z"/>
	<path d="M442.7,81c0,2.1,1.4,3,3,3c1.1,0,1.8-0.2,2.4-0.5l0.3,1.1c-0.6,0.3-1.5,0.5-2.9,0.5c-2.7,0-4.3-1.8-4.3-4.4
		s1.5-4.7,4.1-4.7c2.8,0,3.6,2.5,3.6,4.1c0,0.3,0,0.6-0.1,0.7H442.7z M447.3,79.9c0-1-0.4-2.6-2.2-2.6c-1.6,0-2.3,1.5-2.4,2.6H447.3
		z"/>
	<path d="M451.7,81c0,2.1,1.4,3,3,3c1.1,0,1.8-0.2,2.4-0.5l0.3,1.1c-0.6,0.3-1.5,0.5-2.9,0.5c-2.7,0-4.3-1.8-4.3-4.4
		s1.5-4.7,4.1-4.7c2.8,0,3.6,2.5,3.6,4.1c0,0.3,0,0.6-0.1,0.7H451.7z M456.3,79.9c0-1-0.4-2.6-2.2-2.6c-1.6,0-2.3,1.5-2.4,2.6H456.3
		z"/>
	<path d="M459.8,78.7c0-0.9,0-1.6-0.1-2.4h1.4l0.1,1.4h0c0.4-0.8,1.4-1.6,2.9-1.6c1.2,0,3.1,0.7,3.1,3.7v5.2h-1.6v-5
		c0-1.4-0.5-2.6-2-2.6c-1,0-1.9,0.7-2.1,1.6c-0.1,0.2-0.1,0.5-0.1,0.7v5.2h-1.6V78.7z"/>
</g>
</svg>
