<?xml version="1.0" encoding="utf-8"?>
<!-- Generator: Adobe Illustrator 24.1.2, SVG Export Plug-In . SVG Version: 6.00 Build 0)  -->
<svg version="1.1" id="Layer_1" xmlns="http://www.w3.org/2000/svg" xmlns:xlink="http://www.w3.org/1999/xlink" x="0px" y="0px"
	 viewBox="0 0 700.6 291.3" style="enable-background:new 0 0 700.6 291.3;" xml:space="preserve">
<style type="text/css">
	.st0{fill:#FFFFFF;}
</style>
<g>
	<rect x="227.9" y="129.4" class="st0" width="155" height="73"/>
	<path d="M383.4,202.9h-156v-74h156V202.9z M228.4,201.9h154v-72h-154V201.9z"/>
</g>
<g>
	<path d="M261.6,172.1l-4.6-14.2h2l2.2,7c0.6,1.9,1.1,3.6,1.5,5.3h0c0.4-1.6,1-3.4,1.6-5.3l2.4-7h2l-5.1,14.2H261.6z"/>
	<path d="M270.5,167.3c0,2.5,1.6,3.5,3.5,3.5c1.3,0,2.1-0.2,2.8-0.5l0.3,1.3c-0.7,0.3-1.8,0.6-3.4,0.6c-3.1,0-5-2.1-5-5.1
		s1.8-5.5,4.8-5.5c3.3,0,4.2,2.9,4.2,4.8c0,0.4,0,0.7-0.1,0.9H270.5z M275.9,166c0-1.2-0.5-3-2.6-3c-1.9,0-2.7,1.7-2.8,3H275.9z"/>
	<path d="M280,165.1c0-1.2,0-2.2-0.1-3.2h1.6l0.1,2h0.1c0.5-1.4,1.6-2.2,2.8-2.2c0.2,0,0.4,0,0.5,0.1v1.7c-0.2,0-0.4-0.1-0.6-0.1
		c-1.3,0-2.2,1-2.5,2.4c0,0.3-0.1,0.5-0.1,0.9v5.4H280V165.1z"/>
	<path d="M295.4,157.2v12.3c0,0.9,0,1.9,0.1,2.6h-1.7l-0.1-1.8h0c-0.6,1.1-1.8,2-3.5,2c-2.5,0-4.3-2.1-4.3-5.2
		c0-3.4,2.1-5.5,4.6-5.5c1.6,0,2.6,0.7,3.1,1.6h0v-6.1H295.4z M293.6,166.1c0-0.2,0-0.5-0.1-0.8c-0.3-1.2-1.3-2.1-2.7-2.1
		c-1.9,0-3,1.7-3,3.9c0,2.1,1,3.8,3,3.8c1.2,0,2.4-0.8,2.7-2.2c0.1-0.3,0.1-0.5,0.1-0.8V166.1z"/>
	<path d="M304.1,172.1l-0.1-1.3h-0.1c-0.6,0.8-1.7,1.5-3.1,1.5c-2.1,0-3.1-1.4-3.1-2.9c0-2.5,2.2-3.8,6.1-3.8v-0.2
		c0-0.8-0.2-2.4-2.3-2.4c-0.9,0-1.9,0.3-2.6,0.8l-0.4-1.2c0.8-0.5,2.1-0.9,3.3-0.9c3.1,0,3.9,2.1,3.9,4.2v3.8c0,0.9,0,1.7,0.2,2.4
		H304.1z M303.9,166.9c-2,0-4.3,0.3-4.3,2.3c0,1.2,0.8,1.8,1.7,1.8c1.3,0,2.2-0.8,2.5-1.7c0.1-0.2,0.1-0.4,0.1-0.6V166.9z"/>
	<path d="M308.6,164.7c0-1,0-1.9-0.1-2.8h1.6l0.1,1.6h0.1c0.6-1,1.5-1.9,3.2-1.9c1.4,0,2.4,0.8,2.9,2h0c0.3-0.6,0.7-1,1.1-1.3
		c0.6-0.5,1.3-0.7,2.2-0.7c1.3,0,3.3,0.9,3.3,4.4v6h-1.8v-5.8c0-2-0.7-3.1-2.2-3.1c-1,0-1.9,0.8-2.2,1.7c-0.1,0.3-0.1,0.6-0.1,0.9
		v6.3H315V166c0-1.6-0.7-2.8-2.1-2.8c-1.2,0-2,0.9-2.3,1.8c-0.1,0.3-0.1,0.6-0.1,0.9v6.1h-1.8V164.7z"/>
	<path d="M326.1,165.2c0-1.3,0-2.4-0.1-3.3h1.7l0.1,1.7h0c0.8-1.2,2-2,3.6-2c2.5,0,4.3,2.1,4.3,5.2c0,3.7-2.2,5.5-4.6,5.5
		c-1.3,0-2.5-0.6-3.1-1.6h0v5.5h-1.8V165.2z M328,168c0,0.3,0,0.5,0.1,0.8c0.3,1.3,1.4,2.2,2.8,2.2c2,0,3.1-1.6,3.1-3.9
		c0-2-1.1-3.8-3-3.8c-1.3,0-2.4,0.9-2.8,2.3c-0.1,0.2-0.1,0.5-0.1,0.8V168z"/>
	<path d="M339.1,167.3c0,2.5,1.6,3.5,3.5,3.5c1.3,0,2.1-0.2,2.8-0.5l0.3,1.3c-0.7,0.3-1.8,0.6-3.4,0.6c-3.1,0-5-2.1-5-5.1
		s1.8-5.5,4.8-5.5c3.3,0,4.2,2.9,4.2,4.8c0,0.4,0,0.7-0.1,0.9H339.1z M344.5,166c0-1.2-0.5-3-2.6-3c-1.9,0-2.7,1.7-2.8,3H344.5z"/>
	<path d="M348.6,165.1c0-1.2,0-2.2-0.1-3.2h1.6l0.1,2h0.1c0.5-1.4,1.6-2.2,2.8-2.2c0.2,0,0.4,0,0.5,0.1v1.7c-0.2,0-0.4-0.1-0.6-0.1
		c-1.3,0-2.2,1-2.5,2.4c0,0.3-0.1,0.5-0.1,0.9v5.4h-1.8V165.1z"/>
</g>
<g>
	<rect x="503.9" y="129.2" class="st0" width="155" height="73"/>
	<path d="M659.4,202.7h-156v-74h156V202.7z M504.4,201.7h154v-72h-154V201.7z"/>
</g>
<g>
	<path d="M529.4,157.7h1.8v6.8h0.1c0.4-0.5,0.8-1,1.1-1.5l4.3-5.3h2.3l-5.1,6l5.5,8.1h-2.2l-4.7-6.9l-1.3,1.6v5.4h-1.8V157.7z"/>
	<path d="M540.9,164.9c0-1.2,0-2.2-0.1-3.2h1.6l0.1,2h0.1c0.5-1.4,1.6-2.2,2.8-2.2c0.2,0,0.4,0,0.5,0.1v1.7c-0.2,0-0.4-0.1-0.6-0.1
		c-1.3,0-2.2,1-2.5,2.4c0,0.3-0.1,0.5-0.1,0.9v5.4h-1.8V164.9z"/>
	<path d="M549.9,158.8c0,0.6-0.4,1.1-1.2,1.1c-0.7,0-1.1-0.5-1.1-1.1c0-0.7,0.5-1.2,1.2-1.2C549.5,157.7,549.9,158.2,549.9,158.8z
		 M547.9,171.9v-10.2h1.8v10.2H547.9z"/>
	<path d="M552.6,170c0.5,0.4,1.5,0.7,2.4,0.7c1.3,0,2-0.7,2-1.5c0-0.9-0.5-1.4-1.9-1.9c-1.8-0.7-2.7-1.7-2.7-2.9c0-1.6,1.3-3,3.5-3
		c1,0,1.9,0.3,2.5,0.6l-0.5,1.3c-0.4-0.3-1.1-0.6-2.1-0.6c-1.1,0-1.7,0.6-1.7,1.4c0,0.8,0.6,1.2,1.9,1.7c1.8,0.7,2.7,1.6,2.7,3.1
		c0,1.8-1.4,3-3.8,3c-1.1,0-2.1-0.3-2.9-0.7L552.6,170z"/>
	<path d="M563.3,158.8v2.9h2.6v1.4h-2.6v5.5c0,1.3,0.4,2,1.4,2c0.5,0,0.8-0.1,1.1-0.1l0.1,1.4c-0.4,0.1-0.9,0.3-1.6,0.3
		c-0.9,0-1.6-0.3-2-0.8c-0.5-0.5-0.7-1.4-0.7-2.6v-5.5H560v-1.4h1.6v-2.4L563.3,158.8z"/>
	<path d="M573.7,171.9l-0.1-1.3h-0.1c-0.6,0.8-1.7,1.5-3.1,1.5c-2.1,0-3.1-1.4-3.1-2.9c0-2.5,2.2-3.8,6.1-3.8v-0.2
		c0-0.8-0.2-2.4-2.3-2.4c-0.9,0-1.9,0.3-2.6,0.8l-0.4-1.2c0.8-0.5,2.1-0.9,3.3-0.9c3.1,0,3.9,2.1,3.9,4.2v3.8c0,0.9,0,1.7,0.2,2.4
		H573.7z M573.4,166.7c-2,0-4.3,0.3-4.3,2.3c0,1.2,0.8,1.8,1.7,1.8c1.3,0,2.2-0.8,2.5-1.7c0.1-0.2,0.1-0.4,0.1-0.6V166.7z"/>
	<path d="M578.2,157h1.8v14.9h-1.8V157z"/>
	<path d="M583.2,157h1.8v14.9h-1.8V157z"/>
	<path d="M590.2,158.8c0,0.6-0.4,1.1-1.2,1.1c-0.7,0-1.1-0.5-1.1-1.1c0-0.7,0.5-1.2,1.2-1.2C589.7,157.7,590.2,158.2,590.2,158.8z
		 M588.1,171.9v-10.2h1.8v10.2H588.1z"/>
	<path d="M592.8,170c0.5,0.4,1.5,0.7,2.4,0.7c1.3,0,2-0.7,2-1.5c0-0.9-0.5-1.4-1.9-1.9c-1.8-0.7-2.7-1.7-2.7-2.9c0-1.6,1.3-3,3.5-3
		c1,0,1.9,0.3,2.5,0.6l-0.5,1.3c-0.4-0.3-1.1-0.6-2.1-0.6c-1.1,0-1.7,0.6-1.7,1.4c0,0.8,0.6,1.2,1.9,1.7c1.8,0.7,2.7,1.6,2.7,3.1
		c0,1.8-1.4,3-3.8,3c-1.1,0-2.1-0.3-2.9-0.7L592.8,170z"/>
	<path d="M607,171.9l-0.1-1.3h-0.1c-0.6,0.8-1.7,1.5-3.1,1.5c-2.1,0-3.1-1.4-3.1-2.9c0-2.5,2.2-3.8,6.1-3.8v-0.2
		c0-0.8-0.2-2.4-2.3-2.4c-0.9,0-1.9,0.3-2.6,0.8l-0.4-1.2c0.8-0.5,2.1-0.9,3.3-0.9c3.1,0,3.9,2.1,3.9,4.2v3.8c0,0.9,0,1.7,0.2,2.4
		H607z M606.7,166.7c-2,0-4.3,0.3-4.3,2.3c0,1.2,0.8,1.8,1.7,1.8c1.3,0,2.2-0.8,2.5-1.7c0.1-0.2,0.1-0.4,0.1-0.6V166.7z"/>
	<path d="M613.6,158.8v2.9h2.6v1.4h-2.6v5.5c0,1.3,0.4,2,1.4,2c0.5,0,0.8-0.1,1.1-0.1l0.1,1.4c-0.4,0.1-0.9,0.3-1.6,0.3
		c-0.9,0-1.6-0.3-2-0.8c-0.5-0.5-0.7-1.4-0.7-2.6v-5.5h-1.6v-1.4h1.6v-2.4L613.6,158.8z"/>
	<path d="M627.4,166.7c0,3.8-2.6,5.4-5.1,5.4c-2.8,0-4.9-2-4.9-5.2c0-3.4,2.2-5.4,5-5.4C625.4,161.5,627.4,163.6,627.4,166.7z
		 M619.3,166.8c0,2.2,1.3,3.9,3.1,3.9c1.8,0,3.1-1.7,3.1-3.9c0-1.7-0.9-3.9-3-3.9S619.3,164.9,619.3,166.8z"/>
	<path d="M629.7,164.9c0-1.2,0-2.2-0.1-3.2h1.6l0.1,2h0.1c0.5-1.4,1.6-2.2,2.8-2.2c0.2,0,0.4,0,0.5,0.1v1.7c-0.2,0-0.4-0.1-0.6-0.1
		c-1.3,0-2.2,1-2.5,2.4c0,0.3-0.1,0.5-0.1,0.9v5.4h-1.8V164.9z"/>
</g>
<g>
	<g>
		<rect x="383" y="165.6" width="107.9" height="1"/>
	</g>
	<g>
		<g>
			<polygon points="487.9,170.5 504.2,166.1 487.9,161.8 			"/>
		</g>
	</g>
</g>
<g>
	<g>
		<rect x="305" y="202.6" width="1" height="42.4"/>
	</g>
	<g>
		<g>
			<polygon points="301.2,242 305.5,258.3 309.9,242 			"/>
		</g>
	</g>
</g>
<g>
	<g>
		<rect x="581.2" y="202.6" width="1" height="42.4"/>
	</g>
	<g>
		<g>
			<polygon points="577.3,242 581.7,258.3 586.1,242 			"/>
		</g>
	</g>
</g>
<g>
	<g>
		<rect x="173" y="165.6" width="41.8" height="1"/>
	</g>
	<g>
		<g>
			<polygon points="211.8,161.8 228,166.1 211.8,170.5 			"/>
		</g>
	</g>
</g>
<g>
	<path d="M173.5,176.4H153v-20.5h20.5V176.4z M154,175.4h18.5v-18.5H154V175.4z"/>
</g>
<g>
	<g>
		<rect x="27.2" y="165.6" width="113" height="1"/>
	</g>
	<g>
		<g>
			<polygon points="137.2,161.8 153.5,166.1 137.2,170.5 			"/>
		</g>
	</g>
</g>
<g>
	<g>
		<polygon points="306,129.6 305,129.6 305,93.7 384.6,93.7 384.6,94.7 306,94.7 		"/>
	</g>
	<g>
		<g>
			<polygon points="381.6,89.9 397.9,94.2 381.6,98.6 			"/>
		</g>
	</g>
</g>
<g>
	<g>
		<polygon points="693.8,166.6 659.2,166.6 659.2,165.6 692.8,165.6 692.8,54.9 163.7,54.9 163.7,143.1 162.7,143.1 162.7,53.9 
			693.8,53.9 		"/>
	</g>
	<g>
		<g>
			<polygon points="158.9,140.1 163.2,156.4 167.6,140.1 			"/>
		</g>
	</g>
</g>
<g>
	<path d="M186.2,136.2h7.6v1.5h-5.8v4.7h5.4v1.5h-5.4v6.4h-1.8V136.2z"/>
	<path d="M196.9,149.1v8.2h-1.1v-8.2H196.9z"/>
	<path d="M198.7,157.4v-8.2h1.2l2.6,4.2c0.6,1,1.1,1.8,1.5,2.7l0,0c-0.1-1.1-0.1-2.1-0.1-3.4v-3.5h1v8.2h-1.1l-2.6-4.2
		c-0.6-0.9-1.1-1.9-1.5-2.8l0,0c0.1,1,0.1,2,0.1,3.4v3.5H198.7z"/>
</g>
<g>
	<path d="M320.9,233.3h1.8v6.8h0.1c0.4-0.5,0.8-1,1.1-1.5l4.3-5.3h2.3l-5.1,6l5.5,8.1h-2.2l-4.7-6.9l-1.3,1.6v5.4h-1.8V233.3z"/>
	<path d="M333.5,247.4L333.5,247.4l-1.4,0.7l-0.2-0.8l1.7-0.9h0.9v8h-1V247.4z"/>
</g>
<g>
	<path d="M599,233.3h1.8v6.8h0.1c0.4-0.5,0.8-1,1.1-1.5l4.3-5.3h2.3l-5.1,6l5.5,8.1h-2.2l-4.7-6.9l-1.3,1.6v5.4H599V233.3z"/>
	<path d="M609.3,254.4v-0.7l0.8-0.8c2-1.9,2.9-3,3-4.2c0-0.8-0.4-1.6-1.6-1.6c-0.7,0-1.3,0.4-1.7,0.7l-0.3-0.8
		c0.6-0.5,1.3-0.8,2.3-0.8c1.7,0,2.4,1.2,2.4,2.3c0,1.5-1.1,2.7-2.7,4.3l-0.6,0.6v0h3.6v0.9H609.3z"/>
</g>
<g>
	<path d="M421.9,137.8h-4.3v-1.6h10.5v1.6h-4.3v12.6h-1.8V137.8z"/>
</g>
<g>
	<path d="M361.6,116.2l-3.6-14.2h1.9l1.7,7.2c0.4,1.8,0.8,3.5,1,4.9h0c0.2-1.4,0.7-3.1,1.2-4.9l1.9-7.1h1.9l1.7,7.2
		c0.4,1.7,0.8,3.4,1,4.9h0c0.3-1.6,0.7-3.1,1.1-4.9l1.9-7.1h1.9l-4,14.2h-1.9l-1.8-7.4c-0.4-1.8-0.7-3.2-0.9-4.6h0
		c-0.3,1.4-0.6,2.8-1.1,4.6l-2,7.4H361.6z"/>
</g>
<g>
	<g>
		<rect x="434.8" y="53.9" width="10.3" height="1"/>
	</g>
	<g>
		<g>
			<polygon points="437.8,50 421.5,54.4 437.8,58.7 			"/>
		</g>
	</g>
</g>
<g>
	<path d="M467.8,28.2c0.9-0.2,2.2-0.3,3.5-0.3c2,0,3.2,0.4,4.1,1.2c0.7,0.6,1.1,1.6,1.1,2.7c0,1.9-1.2,3.1-2.7,3.6v0.1
		c1.1,0.4,1.7,1.4,2.1,2.9c0.5,2,0.8,3.3,1.1,3.9h-1.9c-0.2-0.4-0.5-1.6-0.9-3.4c-0.4-2-1.2-2.7-2.8-2.8h-1.7v6.1h-1.8V28.2z
		 M469.6,34.7h1.9c2,0,3.2-1.1,3.2-2.7c0-1.8-1.3-2.6-3.3-2.6c-0.9,0-1.5,0.1-1.8,0.2V34.7z"/>
</g>
<g>
	<path d="M20,136.2h7.6v1.5h-5.8v4.7h5.4v1.5h-5.4v6.4H20V136.2z"/>
	<path d="M33.9,143.3V142h10.8v1.3H33.9z M33.9,147.4v-1.3h10.8v1.3H33.9z"/>
	<path d="M55,138.5L55,138.5l-2.4,1.3l-0.4-1.4l3-1.6h1.6v13.6H55V138.5z"/>
	<path d="M61.6,146.9c0-1.7,1-2.9,2.7-3.7l0-0.1c-1.5-0.7-2.2-1.9-2.2-3.1c0-2.2,1.8-3.6,4.2-3.6c2.6,0,4,1.7,4,3.4
		c0,1.2-0.6,2.4-2.2,3.2v0.1c1.7,0.7,2.8,1.9,2.8,3.5c0,2.4-2,4-4.6,4C63.3,150.6,61.6,148.9,61.6,146.9z M68.9,146.8
		c0-1.7-1.2-2.5-3-3c-1.6,0.5-2.5,1.5-2.5,2.8c-0.1,1.4,1,2.6,2.7,2.6C67.9,149.3,68.9,148.2,68.9,146.8z M63.8,140
		c0,1.4,1,2.1,2.6,2.5c1.2-0.4,2.1-1.2,2.1-2.5c0-1.1-0.7-2.2-2.3-2.2C64.7,137.8,63.8,138.8,63.8,140z"/>
	<path d="M78.2,150.4v-3.7h-6.3v-1.2l6.1-8.7h2v8.5h1.9v1.4H80v3.7H78.2z M78.2,145.2v-4.6c0-0.7,0-1.4,0.1-2.1h-0.1
		c-0.4,0.8-0.8,1.4-1.1,2l-3.3,4.6v0H78.2z"/>
	<path d="M92.4,143.4c0,4.6-1.7,7.2-4.7,7.2c-2.7,0-4.5-2.5-4.5-7c0-4.6,2-7.1,4.7-7.1C90.7,136.5,92.4,139.1,92.4,143.4z
		 M84.9,143.6c0,3.5,1.1,5.6,2.8,5.6c1.9,0,2.8-2.2,2.8-5.7c0-3.4-0.9-5.6-2.8-5.6C86.1,137.9,84.9,139.9,84.9,143.6z"/>
	<path d="M103.1,143.4c0,4.6-1.7,7.2-4.7,7.2c-2.7,0-4.5-2.5-4.5-7c0-4.6,2-7.1,4.7-7.1C101.5,136.5,103.1,139.1,103.1,143.4z
		 M95.7,143.6c0,3.5,1.1,5.6,2.8,5.6c1.9,0,2.8-2.2,2.8-5.7c0-3.4-0.9-5.6-2.8-5.6C96.9,137.9,95.7,139.9,95.7,143.6z"/>
	<path d="M111.7,144.9L111.7,144.9c0.3-0.4,0.7-0.8,0.9-1.2l3-3.5h2.2l-3.9,4.2l4.5,6h-2.2l-3.5-4.9l-0.9,1v3.8h-1.8v-14.9h1.8
		V144.9z"/>
	<path d="M128.5,140.2c0,0.7-0.1,1.6-0.1,2.8v5.9c0,2.3-0.5,3.8-1.4,4.6c-1,0.9-2.4,1.2-3.7,1.2c-1.2,0-2.6-0.3-3.4-0.8l0.5-1.4
		c0.7,0.4,1.7,0.8,3,0.8c1.9,0,3.3-1,3.3-3.5v-1.1h0c-0.6,0.9-1.7,1.7-3.2,1.7c-2.5,0-4.3-2.1-4.3-5c0-3.4,2.2-5.4,4.6-5.4
		c1.8,0,2.7,0.9,3.2,1.8h0l0.1-1.5H128.5z M126.6,144.2c0-0.3,0-0.6-0.1-0.8c-0.3-1.1-1.2-2-2.6-2c-1.8,0-3,1.5-3,3.8
		c0,2,1,3.7,3,3.7c1.1,0,2.2-0.7,2.6-1.9c0.1-0.3,0.1-0.7,0.1-1V144.2z"/>
	<path d="M129.9,151.2l5.9-15.2h1.4l-5.9,15.2H129.9z"/>
	<path d="M138.7,135.5h1.8v6.3h0c0.3-0.5,0.8-1,1.3-1.3c0.5-0.3,1.2-0.5,1.9-0.5c1.4,0,3.5,0.8,3.5,4.3v6h-1.8v-5.8
		c0-1.6-0.6-3-2.4-3c-1.2,0-2.1,0.8-2.5,1.8c-0.1,0.3-0.1,0.5-0.1,0.9v6.1h-1.8V135.5z"/>
</g>
<g>
	<path d="M20.8,182.9l1.4,2.2c0.4,0.6,0.7,1.1,1,1.7h0.1c0.3-0.6,0.7-1.1,1-1.7l1.4-2.2h2l-3.5,4.9l3.6,5.2h-2.1l-1.5-2.3
		c-0.4-0.6-0.7-1.2-1.1-1.8h0c-0.3,0.6-0.7,1.2-1.1,1.8l-1.5,2.3h-2l3.6-5.2l-3.4-5H20.8z"/>
	<path d="M29,191.8h4.4v0.9h-3.4v2.7h3.1v0.9h-3.1v3.7H29V191.8z"/>
	<path d="M33.1,201.5c0.3-0.7,0.6-2,0.7-2.9l1.2-0.1c-0.3,1-0.8,2.4-1.2,3L33.1,201.5z"/>
	<path d="M36.3,200v-8.2h1.2l2.6,4.2c0.6,1,1.1,1.8,1.5,2.7l0,0c-0.1-1.1-0.1-2.1-0.1-3.4v-3.5h1v8.2h-1.1l-2.6-4.2
		c-0.6-0.9-1.1-1.9-1.5-2.8l0,0c0.1,1,0.1,2,0.1,3.4v3.5H36.3z"/>
	<path d="M47.6,200l-0.1-0.7h0c-0.3,0.5-1,0.9-1.8,0.9c-1.2,0-1.8-0.8-1.8-1.7c0-1.4,1.3-2.2,3.6-2.2v-0.1c0-0.5-0.1-1.4-1.3-1.4
		c-0.6,0-1.1,0.2-1.5,0.4l-0.2-0.7c0.5-0.3,1.2-0.5,1.9-0.5c1.8,0,2.3,1.2,2.3,2.4v2.2c0,0.5,0,1,0.1,1.4H47.6z M47.5,197
		c-1.2,0-2.5,0.2-2.5,1.3c0,0.7,0.5,1,1,1c0.8,0,1.3-0.5,1.4-1c0-0.1,0.1-0.2,0.1-0.3V197z"/>
	<path d="M56.1,199.7c-0.4,0.2-1.2,0.4-2.2,0.4c-2.3,0-4.1-1.5-4.1-4.2c0-2.6,1.8-4.3,4.3-4.3c1,0,1.7,0.2,2,0.4l-0.3,0.9
		c-0.4-0.2-1-0.3-1.7-0.3c-1.9,0-3.2,1.2-3.2,3.4c0,2,1.2,3.3,3.2,3.3c0.6,0,1.3-0.1,1.7-0.3L56.1,199.7z"/>
	<path d="M57.4,191.3h1.1v8.7h-1.1V191.3z"/>
	<path d="M64.7,185.9v-1.3h10.8v1.3H64.7z M64.7,190.1v-1.3h10.8v1.3H64.7z"/>
	<path d="M90.8,186.1c0,4.6-1.7,7.2-4.7,7.2c-2.7,0-4.5-2.5-4.5-7c0-4.6,2-7.1,4.7-7.1C89.2,179.1,90.8,181.7,90.8,186.1z
		 M83.4,186.3c0,3.5,1.1,5.6,2.8,5.6c1.9,0,2.8-2.2,2.8-5.7c0-3.4-0.9-5.6-2.8-5.6C84.6,180.6,83.4,182.5,83.4,186.3z"/>
	<path d="M92.6,191.9c0-0.8,0.5-1.3,1.3-1.3s1.2,0.5,1.2,1.3c0,0.8-0.5,1.3-1.3,1.3C93.1,193.3,92.6,192.7,92.6,191.9z"/>
	<path d="M100.9,181.1L100.9,181.1l-2.4,1.3l-0.4-1.4l3-1.6h1.6V193h-1.8V181.1z"/>
	<path d="M116.7,186.1c0,4.6-1.7,7.2-4.7,7.2c-2.7,0-4.5-2.5-4.5-7c0-4.6,2-7.1,4.7-7.1C115,179.1,116.7,181.7,116.7,186.1z
		 M109.3,186.3c0,3.5,1.1,5.6,2.8,5.6c1.9,0,2.8-2.2,2.8-5.7c0-3.4-0.9-5.6-2.8-5.6C110.5,180.6,109.3,182.5,109.3,186.3z"/>
	<path d="M20.8,208.1l1.4,2.2c0.4,0.6,0.7,1.1,1,1.7h0.1c0.3-0.6,0.7-1.1,1-1.7l1.4-2.2h2l-3.5,4.9l3.6,5.2h-2.1l-1.5-2.3
		c-0.4-0.6-0.7-1.2-1.1-1.8h0c-0.3,0.6-0.7,1.2-1.1,1.8l-1.5,2.3h-2l3.6-5.2l-3.4-5H20.8z"/>
	<path d="M29,217h4.4v0.9h-3.4v2.7h3.1v0.9h-3.1v3.7H29V217z"/>
	<path d="M33.1,226.7c0.3-0.7,0.6-2,0.7-2.9l1.2-0.1c-0.3,1-0.8,2.4-1.2,3L33.1,226.7z"/>
	<path d="M36.3,217h1.1v4h0c0.2-0.3,0.4-0.6,0.6-0.9l2.5-3.1h1.3l-3,3.5l3.2,4.7h-1.3l-2.7-4.1l-0.8,0.9v3.1h-1.1V217z"/>
	<path d="M48.5,224.9c-0.4,0.2-1.2,0.4-2.2,0.4c-2.3,0-4.1-1.5-4.1-4.2c0-2.6,1.8-4.3,4.3-4.3c1,0,1.7,0.2,2,0.4l-0.3,0.9
		c-0.4-0.2-1-0.3-1.7-0.3c-1.9,0-3.2,1.2-3.2,3.4c0,2,1.2,3.3,3.2,3.3c0.6,0,1.3-0.1,1.7-0.3L48.5,224.9z"/>
	<path d="M49.8,216.5h1.1v8.7h-1.1V216.5z"/>
	<path d="M64.1,211.1v-1.3H75v1.3H64.1z M64.1,215.3V214H75v1.3H64.1z"/>
	<path d="M90.3,211.3c0,4.6-1.7,7.2-4.7,7.2c-2.7,0-4.5-2.5-4.5-7c0-4.6,2-7.1,4.7-7.1C88.6,204.3,90.3,206.9,90.3,211.3z
		 M82.9,211.5c0,3.5,1.1,5.6,2.8,5.6c1.9,0,2.8-2.2,2.8-5.7c0-3.4-0.9-5.6-2.8-5.6C84,205.8,82.9,207.7,82.9,211.5z"/>
	<path d="M92.1,217.1c0-0.8,0.5-1.3,1.3-1.3s1.2,0.5,1.2,1.3c0,0.8-0.5,1.3-1.3,1.3C92.6,218.5,92.1,217.9,92.1,217.1z"/>
	<path d="M105.4,211.3c0,4.6-1.7,7.2-4.7,7.2c-2.7,0-4.5-2.5-4.5-7c0-4.6,2-7.1,4.7-7.1C103.8,204.3,105.4,206.9,105.4,211.3z
		 M98,211.5c0,3.5,1.1,5.6,2.8,5.6c1.9,0,2.8-2.2,2.8-5.7c0-3.4-0.9-5.6-2.8-5.6C99.2,205.8,98,207.7,98,211.5z"/>
	<path d="M107.5,216.1c0.5,0.3,1.7,0.9,3,0.9c2.4,0,3.1-1.5,3.1-2.6c0-1.9-1.7-2.7-3.5-2.7h-1v-1.4h1c1.3,0,3-0.7,3-2.3
		c0-1.1-0.7-2.1-2.4-2.1c-1.1,0-2.1,0.5-2.7,0.9l-0.5-1.3c0.7-0.5,2.1-1,3.6-1c2.7,0,3.9,1.6,3.9,3.3c0,1.4-0.8,2.6-2.5,3.2v0
		c1.7,0.3,3,1.6,3,3.5c0,2.2-1.7,4.1-5,4.1c-1.5,0-2.9-0.5-3.5-0.9L107.5,216.1z"/>
	<path d="M20.8,233.3l1.4,2.2c0.4,0.6,0.7,1.1,1,1.7h0.1c0.3-0.6,0.7-1.1,1-1.7l1.4-2.2h2l-3.5,4.9l3.6,5.2h-2.1l-1.5-2.3
		c-0.4-0.6-0.7-1.2-1.1-1.8h0c-0.3,0.6-0.7,1.2-1.1,1.8l-1.5,2.3h-2l3.6-5.2l-3.4-5H20.8z"/>
	<path d="M29,242.2h4.4v0.9h-3.4v2.7h3.1v0.9h-3.1v3.7H29V242.2z"/>
	<path d="M33.1,251.9c0.3-0.7,0.6-2,0.7-2.9l1.2-0.1c-0.3,1-0.8,2.4-1.2,3L33.1,251.9z"/>
	<path d="M37.4,242.2v3.5h4v-3.5h1.1v8.2h-1.1v-3.9h-4v3.9h-1.1v-8.2H37.4z"/>
	<path d="M43.5,251.8l0.8-0.7c1-0.9,1.5-1.5,1.5-2.1c0-0.5-0.3-0.9-0.9-0.9c-0.4,0-0.8,0.2-1,0.4l-0.3-0.6c0.3-0.3,0.9-0.5,1.5-0.5
		c1.2,0,1.6,0.7,1.6,1.4c0,0.9-0.7,1.6-1.6,2.4l-0.4,0.3v0h2.1v0.7h-3.3V251.8z"/>
	<path d="M55.2,246.2c0,2.8-1.7,4.3-3.8,4.3c-2.2,0-3.7-1.7-3.7-4.2c0-2.6,1.6-4.3,3.8-4.3C53.7,242,55.2,243.8,55.2,246.2z
		 M48.8,246.3c0,1.8,1,3.3,2.6,3.3c1.7,0,2.6-1.6,2.6-3.4c0-1.6-0.9-3.4-2.6-3.4C49.7,242.9,48.8,244.5,48.8,246.3z"/>
	<path d="M60.9,236.3v-1.3h10.8v1.3H60.9z M60.9,240.5v-1.3h10.8v1.3H60.9z"/>
	<path d="M87.1,236.5c0,4.6-1.7,7.2-4.7,7.2c-2.7,0-4.5-2.5-4.5-7c0-4.6,2-7.1,4.7-7.1C85.4,229.5,87.1,232.1,87.1,236.5z
		 M79.7,236.7c0,3.5,1.1,5.6,2.8,5.6c1.9,0,2.8-2.2,2.8-5.7c0-3.4-0.9-5.6-2.8-5.6C80.8,231,79.7,232.9,79.7,236.7z"/>
	<path d="M88.9,242.3c0-0.8,0.5-1.3,1.3-1.3s1.2,0.5,1.2,1.3c0,0.8-0.5,1.3-1.3,1.3C89.4,243.7,88.9,243.1,88.9,242.3z"/>
	<path d="M93,240c0-1.7,1-2.9,2.7-3.7l0-0.1c-1.5-0.7-2.2-1.9-2.2-3.1c0-2.2,1.8-3.6,4.2-3.6c2.6,0,4,1.7,4,3.4
		c0,1.2-0.6,2.4-2.2,3.2v0.1c1.7,0.7,2.8,1.9,2.8,3.5c0,2.4-2,4-4.6,4C94.7,243.7,93,242,93,240z M100.3,239.9c0-1.7-1.2-2.5-3-3
		c-1.6,0.5-2.5,1.5-2.5,2.8c-0.1,1.4,1,2.6,2.7,2.6C99.2,242.3,100.3,241.3,100.3,239.9z M95.2,233c0,1.4,1,2.1,2.6,2.5
		c1.2-0.4,2.1-1.2,2.1-2.5c0-1.1-0.7-2.2-2.3-2.2C96.1,230.9,95.2,231.9,95.2,233z"/>
	<path d="M112.8,229.8v1.2l-5.9,12.4h-1.9l5.9-12.1v0h-6.7v-1.5H112.8z"/>
</g>
<g>
	<path d="M407.7,87.9L407.7,87.9l-2.4,1.3l-0.4-1.4l3-1.6h1.6v13.6h-1.8V87.9z"/>
	<path d="M423.5,92.9c0,4.6-1.7,7.2-4.7,7.2c-2.7,0-4.5-2.5-4.5-7c0-4.6,2-7.1,4.7-7.1C421.9,86,423.5,88.5,423.5,92.9z M416.1,93.1
		c0,3.5,1.1,5.6,2.8,5.6c1.9,0,2.8-2.2,2.8-5.7c0-3.4-0.9-5.6-2.8-5.6C417.3,87.4,416.1,89.4,416.1,93.1z"/>
	<path d="M434.3,92.9c0,4.6-1.7,7.2-4.7,7.2c-2.7,0-4.5-2.5-4.5-7c0-4.6,2-7.1,4.7-7.1C432.7,86,434.3,88.5,434.3,92.9z M426.9,93.1
		c0,3.5,1.1,5.6,2.8,5.6c1.9,0,2.8-2.2,2.8-5.7c0-3.4-0.9-5.6-2.8-5.6C428.1,87.4,426.9,89.4,426.9,93.1z"/>
	<path d="M442.2,90c0,2.9-1.5,4.3-3.3,4.3c-1.7,0-3.2-1.4-3.2-4.1c0-2.7,1.5-4.3,3.3-4.3C440.9,86,442.2,87.4,442.2,90z M437.2,90.2
		c0,1.7,0.6,3.1,1.8,3.1c1.2,0,1.8-1.3,1.8-3.1c0-1.7-0.5-3-1.8-3C437.8,87.1,437.2,88.4,437.2,90.2z M438.8,100.1l8-14.1h1.2
		l-8,14.1H438.8z M451,95.7c0,2.9-1.5,4.3-3.3,4.3c-1.7,0-3.2-1.4-3.2-4.1c0-2.8,1.5-4.3,3.3-4.3C449.8,91.6,451,93.1,451,95.7z
		 M446,95.8c0,1.7,0.7,3.1,1.8,3.1c1.2,0,1.8-1.3,1.8-3.1c0-1.7-0.5-3-1.8-3C446.7,92.7,446,94.1,446,95.8z"/>
	<path d="M459.6,85.7v5.9h6.8v-5.9h1.8v14.2h-1.8v-6.6h-6.8v6.6h-1.8V85.7H459.6z"/>
	<path d="M470.1,102.1l1.3-1.2c1.7-1.6,2.6-2.6,2.6-3.6c0-0.8-0.5-1.5-1.6-1.5c-0.7,0-1.4,0.4-1.8,0.7l-0.4-0.9
		c0.6-0.5,1.5-0.9,2.6-0.9c2,0,2.8,1.2,2.8,2.4c0,1.6-1.2,2.7-2.8,4.1l-0.7,0.6v0h3.6v1.2h-5.7V102.1z"/>
	<path d="M490.1,92.6c0,4.9-3,7.5-6.6,7.5c-3.7,0-6.4-2.9-6.4-7.2c0-4.5,2.8-7.4,6.6-7.4C487.6,85.4,490.1,88.4,490.1,92.6z
		 M479.1,92.8c0,3,1.6,5.7,4.5,5.7c2.9,0,4.5-2.7,4.5-5.9c0-2.8-1.5-5.8-4.5-5.8C480.6,86.9,479.1,89.7,479.1,92.8z"/>
</g>
<g>
	<path d="M390.4,182.9l1.4,2.2c0.4,0.6,0.7,1.1,1,1.7h0.1c0.3-0.6,0.7-1.1,1-1.7l1.4-2.2h2l-3.5,4.9l3.6,5.2h-2.1l-1.5-2.3
		c-0.4-0.6-0.7-1.2-1.1-1.8h0c-0.3,0.6-0.7,1.2-1.1,1.8l-1.5,2.3h-2l3.6-5.2l-3.4-5H390.4z"/>
	<path d="M400.2,192.7h-2.5v-0.9h6.1v0.9h-2.5v7.3h-1.1V192.7z"/>
	<path d="M403.3,201.5c0.3-0.7,0.6-2,0.7-2.9l1.2-0.1c-0.3,1-0.8,2.4-1.2,3L403.3,201.5z"/>
	<path d="M406.5,200v-8.2h1.2l2.6,4.2c0.6,1,1.1,1.8,1.5,2.7l0,0c-0.1-1.1-0.1-2.1-0.1-3.4v-3.5h1v8.2h-1.1l-2.6-4.2
		c-0.6-0.9-1.1-1.9-1.5-2.8l0,0c0.1,1,0.1,2,0.1,3.4v3.5H406.5z"/>
	<path d="M417.8,200l-0.1-0.7h0c-0.3,0.5-1,0.9-1.8,0.9c-1.2,0-1.8-0.8-1.8-1.7c0-1.4,1.3-2.2,3.6-2.2v-0.1c0-0.5-0.1-1.4-1.3-1.4
		c-0.6,0-1.1,0.2-1.5,0.4l-0.2-0.7c0.5-0.3,1.2-0.5,1.9-0.5c1.8,0,2.3,1.2,2.3,2.4v2.2c0,0.5,0,1,0.1,1.4H417.8z M417.7,197
		c-1.2,0-2.5,0.2-2.5,1.3c0,0.7,0.5,1,1,1c0.8,0,1.3-0.5,1.4-1c0-0.1,0.1-0.2,0.1-0.3V197z"/>
	<path d="M426.3,199.7c-0.4,0.2-1.2,0.4-2.2,0.4c-2.3,0-4.1-1.5-4.1-4.2c0-2.6,1.8-4.3,4.3-4.3c1,0,1.7,0.2,2,0.4l-0.3,0.9
		c-0.4-0.2-1-0.3-1.7-0.3c-1.9,0-3.2,1.2-3.2,3.4c0,2,1.2,3.3,3.2,3.3c0.6,0,1.3-0.1,1.7-0.3L426.3,199.7z"/>
	<path d="M427.6,191.3h1.1v8.7h-1.1V191.3z"/>
	<path d="M434.8,185.9v-1.3h10.8v1.3H434.8z M434.8,190.1v-1.3h10.8v1.3H434.8z"/>
	<path d="M461,186.1c0,4.6-1.7,7.2-4.7,7.2c-2.7,0-4.5-2.5-4.5-7c0-4.6,2-7.1,4.7-7.1C459.4,179.1,461,181.7,461,186.1z
		 M453.6,186.3c0,3.5,1.1,5.6,2.8,5.6c1.9,0,2.8-2.2,2.8-5.7c0-3.4-0.9-5.6-2.8-5.6C454.8,180.6,453.6,182.5,453.6,186.3z"/>
	<path d="M462.8,191.9c0-0.8,0.5-1.3,1.3-1.3c0.7,0,1.2,0.5,1.2,1.3c0,0.8-0.5,1.3-1.3,1.3C463.3,193.3,462.8,192.7,462.8,191.9z"/>
	<path d="M471,181.1L471,181.1l-2.4,1.3l-0.4-1.4l3-1.6h1.6V193H471V181.1z"/>
	<path d="M485.6,180.7c-0.4,0-0.9,0-1.4,0.1c-2.9,0.5-4.4,2.6-4.7,4.9h0.1c0.7-0.9,1.8-1.6,3.3-1.6c2.4,0,4.1,1.7,4.1,4.4
		c0,2.5-1.7,4.8-4.5,4.8c-2.9,0-4.8-2.3-4.8-5.8c0-2.7,1-4.8,2.3-6.2c1.1-1.1,2.6-1.8,4.4-2c0.5-0.1,1-0.1,1.3-0.1V180.7z
		 M485.1,188.5c0-2-1.1-3.1-2.8-3.1c-1.1,0-2.1,0.7-2.6,1.7c-0.1,0.2-0.2,0.5-0.2,0.8c0,2.2,1.1,3.9,3,3.9
		C484,191.8,485.1,190.5,485.1,188.5z"/>
	<path d="M488.4,189.6c0-1.7,1-2.9,2.7-3.7l0-0.1c-1.5-0.7-2.2-1.9-2.2-3.1c0-2.2,1.8-3.6,4.2-3.6c2.6,0,4,1.7,4,3.4
		c0,1.2-0.6,2.4-2.2,3.2v0.1c1.7,0.7,2.8,1.9,2.8,3.5c0,2.4-2,4-4.6,4C490.1,193.3,488.4,191.6,488.4,189.6z M495.8,189.5
		c0-1.7-1.2-2.5-3-3c-1.6,0.5-2.5,1.5-2.5,2.8c-0.1,1.4,1,2.6,2.7,2.6C494.7,191.9,495.8,190.9,495.8,189.5z M490.7,182.6
		c0,1.4,1,2.1,2.6,2.5c1.2-0.4,2.1-1.2,2.1-2.5c0-1.1-0.7-2.2-2.3-2.2C491.5,180.5,490.7,181.5,490.7,182.6z"/>
	<path d="M390.4,208.1l1.4,2.2c0.4,0.6,0.7,1.1,1,1.7h0.1c0.3-0.6,0.7-1.1,1-1.7l1.4-2.2h2l-3.5,4.9l3.6,5.2h-2.1l-1.5-2.3
		c-0.4-0.6-0.7-1.2-1.1-1.8h0c-0.3,0.6-0.7,1.2-1.1,1.8l-1.5,2.3h-2l3.6-5.2l-3.4-5H390.4z"/>
	<path d="M400.2,217.9h-2.5V217h6.1v0.9h-2.5v7.3h-1.1V217.9z"/>
	<path d="M403.3,226.7c0.3-0.7,0.6-2,0.7-2.9l1.2-0.1c-0.3,1-0.8,2.4-1.2,3L403.3,226.7z"/>
	<path d="M406.5,217h1.1v4h0c0.2-0.3,0.4-0.6,0.6-0.9l2.5-3.1h1.3l-3,3.5l3.2,4.7h-1.3l-2.7-4.1l-0.8,0.9v3.1h-1.1V217z"/>
	<path d="M418.7,224.9c-0.4,0.2-1.2,0.4-2.2,0.4c-2.3,0-4.1-1.5-4.1-4.2c0-2.6,1.8-4.3,4.3-4.3c1,0,1.7,0.2,2,0.4l-0.3,0.9
		c-0.4-0.2-1-0.3-1.7-0.3c-1.9,0-3.2,1.2-3.2,3.4c0,2,1.2,3.3,3.2,3.3c0.6,0,1.3-0.1,1.7-0.3L418.7,224.9z"/>
	<path d="M420,216.5h1.1v8.7H420V216.5z"/>
	<path d="M433.7,211.1v-1.3h10.8v1.3H433.7z M433.7,215.3V214h10.8v1.3H433.7z"/>
	<path d="M459.9,211.3c0,4.6-1.7,7.2-4.7,7.2c-2.7,0-4.5-2.5-4.5-7c0-4.6,2-7.1,4.7-7.1C458.2,204.3,459.9,206.9,459.9,211.3z
		 M452.5,211.5c0,3.5,1.1,5.6,2.8,5.6c1.9,0,2.8-2.2,2.8-5.7c0-3.4-0.9-5.6-2.8-5.6C453.6,205.8,452.5,207.7,452.5,211.5z"/>
	<path d="M461.7,217.1c0-0.8,0.5-1.3,1.3-1.3c0.7,0,1.2,0.5,1.2,1.3c0,0.8-0.5,1.3-1.3,1.3C462.2,218.5,461.7,217.9,461.7,217.1z"/>
	<path d="M465.9,218.2v-1.1l1.4-1.4c3.5-3.3,5.1-5.1,5.1-7.1c0-1.4-0.7-2.7-2.7-2.7c-1.2,0-2.3,0.6-2.9,1.2l-0.6-1.3
		c0.9-0.8,2.3-1.4,3.9-1.4c2.9,0,4.2,2,4.2,4c0,2.5-1.8,4.6-4.7,7.3l-1.1,1v0h6.1v1.5H465.9z"/>
	<path d="M480.7,206.3L480.7,206.3l-2.4,1.3l-0.4-1.4l3-1.6h1.6v13.6h-1.8V206.3z"/>
	<path d="M495.3,205.9c-0.4,0-0.9,0-1.4,0.1c-2.9,0.5-4.4,2.6-4.7,4.9h0.1c0.7-0.9,1.8-1.6,3.3-1.6c2.4,0,4.1,1.7,4.1,4.4
		c0,2.5-1.7,4.8-4.5,4.8c-2.9,0-4.8-2.3-4.8-5.8c0-2.7,1-4.8,2.3-6.2c1.1-1.1,2.6-1.8,4.4-2c0.5-0.1,1-0.1,1.3-0.1V205.9z
		 M494.7,213.7c0-2-1.1-3.1-2.8-3.1c-1.1,0-2.1,0.7-2.6,1.7c-0.1,0.2-0.2,0.5-0.2,0.8c0,2.2,1.1,3.9,3,3.9
		C493.7,217,494.7,215.7,494.7,213.7z"/>
	<path d="M390.4,233.3l1.4,2.2c0.4,0.6,0.7,1.1,1,1.7h0.1c0.3-0.6,0.7-1.1,1-1.7l1.4-2.2h2l-3.5,4.9l3.6,5.2h-2.1l-1.5-2.3
		c-0.4-0.6-0.7-1.2-1.1-1.8h0c-0.3,0.6-0.7,1.2-1.1,1.8l-1.5,2.3h-2l3.6-5.2l-3.4-5H390.4z"/>
	<path d="M400.2,243.1h-2.5v-0.9h6.1v0.9h-2.5v7.3h-1.1V243.1z"/>
	<path d="M403.3,251.9c0.3-0.7,0.6-2,0.7-2.9l1.2-0.1c-0.3,1-0.8,2.4-1.2,3L403.3,251.9z"/>
	<path d="M407.6,242.2v3.5h4v-3.5h1.1v8.2h-1.1v-3.9h-4v3.9h-1.1v-8.2H407.6z"/>
	<path d="M413.7,251.8l0.8-0.7c1-0.9,1.5-1.5,1.5-2.1c0-0.5-0.3-0.9-0.9-0.9c-0.4,0-0.8,0.2-1,0.4l-0.3-0.6c0.3-0.3,0.9-0.5,1.5-0.5
		c1.2,0,1.6,0.7,1.6,1.4c0,0.9-0.7,1.6-1.6,2.4l-0.4,0.3v0h2.1v0.7h-3.3V251.8z"/>
	<path d="M425.4,246.2c0,2.8-1.7,4.3-3.8,4.3c-2.2,0-3.7-1.7-3.7-4.2c0-2.6,1.6-4.3,3.8-4.3C423.9,242,425.4,243.8,425.4,246.2z
		 M419,246.3c0,1.8,1,3.3,2.6,3.3c1.7,0,2.6-1.6,2.6-3.4c0-1.6-0.9-3.4-2.6-3.4C419.9,242.9,419,244.5,419,246.3z"/>
	<path d="M431.1,236.3v-1.3H442v1.3H431.1z M431.1,240.5v-1.3H442v1.3H431.1z"/>
	<path d="M457.3,236.5c0,4.6-1.7,7.2-4.7,7.2c-2.7,0-4.5-2.5-4.5-7c0-4.6,2-7.1,4.7-7.1C455.6,229.5,457.3,232.1,457.3,236.5z
		 M449.9,236.7c0,3.5,1.1,5.6,2.8,5.6c1.9,0,2.8-2.2,2.8-5.7c0-3.4-0.9-5.6-2.8-5.6C451,231,449.9,232.9,449.9,236.7z"/>
	<path d="M459.1,242.3c0-0.8,0.5-1.3,1.3-1.3c0.7,0,1.2,0.5,1.2,1.3c0,0.8-0.5,1.3-1.3,1.3C459.6,243.7,459.1,243.1,459.1,242.3z"/>
	<path d="M471.1,231.1c-0.4,0-0.9,0-1.4,0.1c-2.9,0.5-4.4,2.6-4.7,4.9h0.1c0.7-0.9,1.8-1.6,3.3-1.6c2.4,0,4.1,1.7,4.1,4.4
		c0,2.5-1.7,4.8-4.5,4.8c-2.9,0-4.8-2.3-4.8-5.8c0-2.7,1-4.8,2.3-6.2c1.1-1.1,2.6-1.8,4.4-2c0.5-0.1,1-0.1,1.3-0.1V231.1z
		 M470.6,238.9c0-2-1.1-3.1-2.8-3.1c-1.1,0-2.1,0.7-2.6,1.7c-0.1,0.2-0.2,0.5-0.2,0.8c0,2.2,1.1,3.9,3,3.9
		C469.5,242.2,470.6,240.9,470.6,238.9z"/>
	<path d="M478.1,231.5L478.1,231.5l-2.4,1.3l-0.4-1.4l3-1.6h1.6v13.6h-1.8V231.5z"/>
	<path d="M492.7,231.1c-0.4,0-0.9,0-1.4,0.1c-2.9,0.5-4.4,2.6-4.7,4.9h0.1c0.7-0.9,1.8-1.6,3.3-1.6c2.4,0,4.1,1.7,4.1,4.4
		c0,2.5-1.7,4.8-4.5,4.8c-2.9,0-4.8-2.3-4.8-5.8c0-2.7,1-4.8,2.3-6.2c1.1-1.1,2.6-1.8,4.4-2c0.5-0.1,1-0.1,1.3-0.1V231.1z
		 M492.1,238.9c0-2-1.1-3.1-2.8-3.1c-1.1,0-2.1,0.7-2.6,1.7c-0.1,0.2-0.2,0.5-0.2,0.8c0,2.2,1.1,3.9,3,3.9
		C491.1,242.2,492.1,240.9,492.1,238.9z"/>
</g>
<g>
	<path d="M261.9,267.9L261.9,267.9l-2.4,1.3l-0.4-1.4l3-1.6h1.6v13.6h-1.8V267.9z"/>
	<path d="M277.7,272.8c0,4.6-1.7,7.2-4.7,7.2c-2.7,0-4.5-2.5-4.5-7c0-4.6,2-7.1,4.7-7.1C276.1,265.9,277.7,268.5,277.7,272.8z
		 M270.3,273c0,3.5,1.1,5.6,2.8,5.6c1.9,0,2.8-2.2,2.8-5.7c0-3.4-0.9-5.6-2.8-5.6C271.5,267.3,270.3,269.3,270.3,273z"/>
	<path d="M288.5,272.8c0,4.6-1.7,7.2-4.7,7.2c-2.7,0-4.5-2.5-4.5-7c0-4.6,2-7.1,4.7-7.1C286.8,265.9,288.5,268.5,288.5,272.8z
		 M281.1,273c0,3.5,1.1,5.6,2.8,5.6c1.9,0,2.8-2.2,2.8-5.7c0-3.4-0.9-5.6-2.8-5.6C282.2,267.3,281.1,269.3,281.1,273z"/>
	<path d="M296.3,270c0,2.9-1.5,4.3-3.3,4.3c-1.7,0-3.2-1.4-3.2-4.1c0-2.7,1.5-4.3,3.3-4.3C295.1,265.9,296.3,267.4,296.3,270z
		 M291.3,270.1c0,1.7,0.6,3.1,1.8,3.1c1.2,0,1.8-1.3,1.8-3.1c0-1.7-0.5-3-1.8-3C291.9,267,291.3,268.4,291.3,270.1z M292.9,280
		l8-14.1h1.2l-8,14.1H292.9z M305.2,275.6c0,2.9-1.5,4.3-3.3,4.3c-1.7,0-3.2-1.4-3.2-4.1c0-2.8,1.5-4.3,3.3-4.3
		C304,271.6,305.2,273,305.2,275.6z M300.2,275.8c0,1.7,0.7,3.1,1.8,3.1c1.2,0,1.8-1.3,1.8-3.1c0-1.7-0.5-3-1.8-3
		C300.8,272.7,300.2,274,300.2,275.8z"/>
	<path d="M311.9,279.8v-14.2h2l4.5,7.2c1,1.7,1.9,3.1,2.5,4.6l0,0c-0.2-1.9-0.2-3.6-0.2-5.8v-5.9h1.7v14.2h-1.8l-4.5-7.2
		c-1-1.6-1.9-3.2-2.6-4.7l-0.1,0c0.1,1.8,0.1,3.5,0.1,5.8v6H311.9z"/>
	<path d="M331.3,279.8l-0.1-1.3h-0.1c-0.6,0.8-1.7,1.5-3.1,1.5c-2.1,0-3.1-1.4-3.1-2.9c0-2.5,2.2-3.8,6.1-3.8v-0.2
		c0-0.8-0.2-2.4-2.3-2.4c-0.9,0-1.9,0.3-2.6,0.8l-0.4-1.2c0.8-0.5,2.1-0.9,3.3-0.9c3.1,0,3.9,2.1,3.9,4.2v3.8c0,0.9,0,1.7,0.2,2.4
		H331.3z M331,274.6c-2,0-4.3,0.3-4.3,2.3c0,1.2,0.8,1.8,1.7,1.8c1.3,0,2.2-0.8,2.5-1.7c0.1-0.2,0.1-0.4,0.1-0.6V274.6z"/>
	<path d="M345.7,279.3c-0.7,0.3-2,0.7-3.7,0.7c-4,0-7-2.5-7-7.2c0-4.4,3-7.4,7.4-7.4c1.8,0,2.9,0.4,3.4,0.6l-0.4,1.5
		c-0.7-0.3-1.7-0.6-2.9-0.6c-3.3,0-5.5,2.1-5.5,5.8c0,3.5,2,5.7,5.4,5.7c1.1,0,2.2-0.2,3-0.6L345.7,279.3z"/>
	<path d="M348,264.9h1.8v14.9H348V264.9z"/>
</g>
<g>
	<path d="M538.9,267.9L538.9,267.9l-2.4,1.3l-0.4-1.4l3-1.6h1.6v13.6h-1.8V267.9z"/>
	<path d="M554.7,272.8c0,4.6-1.7,7.2-4.7,7.2c-2.7,0-4.5-2.5-4.5-7c0-4.6,2-7.1,4.7-7.1C553.1,265.9,554.7,268.5,554.7,272.8z
		 M547.3,273c0,3.5,1.1,5.6,2.8,5.6c1.9,0,2.8-2.2,2.8-5.7c0-3.4-0.9-5.6-2.8-5.6C548.5,267.3,547.3,269.3,547.3,273z"/>
	<path d="M565.5,272.8c0,4.6-1.7,7.2-4.7,7.2c-2.7,0-4.5-2.5-4.5-7c0-4.6,2-7.1,4.7-7.1C563.8,265.9,565.5,268.5,565.5,272.8z
		 M558.1,273c0,3.5,1.1,5.6,2.8,5.6c1.9,0,2.8-2.2,2.8-5.7c0-3.4-0.9-5.6-2.8-5.6C559.2,267.3,558.1,269.3,558.1,273z"/>
	<path d="M573.3,270c0,2.9-1.5,4.3-3.3,4.3c-1.7,0-3.2-1.4-3.2-4.1c0-2.7,1.5-4.3,3.3-4.3C572.1,265.9,573.3,267.4,573.3,270z
		 M568.3,270.1c0,1.7,0.6,3.1,1.8,3.1c1.2,0,1.8-1.3,1.8-3.1c0-1.7-0.5-3-1.8-3C568.9,267,568.3,268.4,568.3,270.1z M569.9,280
		l8-14.1h1.2l-8,14.1H569.9z M582.2,275.6c0,2.9-1.5,4.3-3.3,4.3c-1.7,0-3.2-1.4-3.2-4.1c0-2.8,1.5-4.3,3.3-4.3
		C581,271.6,582.2,273,582.2,275.6z M577.2,275.8c0,1.7,0.7,3.1,1.8,3.1c1.2,0,1.8-1.3,1.8-3.1c0-1.7-0.5-3-1.8-3
		C577.8,272.7,577.2,274,577.2,275.8z"/>
	<path d="M588.9,265.6h1.8v6.8h0.1c0.4-0.5,0.8-1,1.1-1.5l4.3-5.3h2.3l-5.1,6l5.5,8.1h-2.2l-4.7-6.9l-1.3,1.6v5.4h-1.8V265.6z"/>
	<path d="M609.8,279.3c-0.7,0.3-2,0.7-3.7,0.7c-4,0-7-2.5-7-7.2c0-4.4,3-7.4,7.4-7.4c1.8,0,2.9,0.4,3.4,0.6l-0.4,1.5
		c-0.7-0.3-1.7-0.6-2.9-0.6c-3.3,0-5.5,2.1-5.5,5.8c0,3.5,2,5.7,5.4,5.7c1.1,0,2.2-0.2,3-0.6L609.8,279.3z"/>
	<path d="M612.1,264.9h1.8v14.9h-1.8V264.9z"/>
</g>
<g>
	<path d="M530.2,32l1.4,2.2c0.4,0.6,0.7,1.1,1,1.7h0.1c0.3-0.6,0.7-1.1,1-1.7l1.4-2.2h2l-3.5,4.9l3.6,5.2h-2.1l-1.5-2.3
		c-0.4-0.6-0.7-1.2-1.1-1.8h0c-0.3,0.6-0.7,1.2-1.1,1.8l-1.5,2.3h-2l3.6-5.2l-3.4-5H530.2z"/>
	<path d="M538.5,41.1c0.5-0.1,1.3-0.2,2-0.2c1.1,0,1.9,0.2,2.4,0.7c0.4,0.4,0.6,0.9,0.6,1.6c0,1.1-0.7,1.8-1.6,2.1v0
		c0.6,0.2,1,0.8,1.2,1.7c0.3,1.2,0.5,1.9,0.6,2.3h-1.1c-0.1-0.2-0.3-0.9-0.6-2c-0.2-1.1-0.7-1.6-1.7-1.6h-1v3.6h-1.1V41.1z
		 M539.5,44.8h1.1c1.1,0,1.9-0.6,1.9-1.6c0-1.1-0.8-1.5-1.9-1.5c-0.5,0-0.9,0-1.1,0.1V44.8z"/>
	<path d="M544.3,50.7c0.3-0.7,0.6-2,0.7-2.9l1.2-0.1c-0.3,1-0.8,2.4-1.2,3L544.3,50.7z"/>
	<path d="M547.6,49.2V41h1.2l2.6,4.2c0.6,1,1.1,1.8,1.5,2.7l0,0c-0.1-1.1-0.1-2.1-0.1-3.4V41h1v8.2h-1.1l-2.6-4.2
		c-0.6-0.9-1.1-1.9-1.5-2.8l0,0c0.1,1,0.1,2,0.1,3.4v3.5H547.6z"/>
	<path d="M558.9,49.2l-0.1-0.7h0c-0.3,0.5-1,0.9-1.8,0.9c-1.2,0-1.8-0.8-1.8-1.7c0-1.4,1.3-2.2,3.6-2.2v-0.1c0-0.5-0.1-1.4-1.3-1.4
		c-0.6,0-1.1,0.2-1.5,0.4l-0.2-0.7c0.5-0.3,1.2-0.5,1.9-0.5c1.8,0,2.3,1.2,2.3,2.4v2.2c0,0.5,0,1,0.1,1.4H558.9z M558.7,46.2
		c-1.2,0-2.5,0.2-2.5,1.3c0,0.7,0.5,1,1,1c0.8,0,1.3-0.5,1.4-1c0-0.1,0.1-0.2,0.1-0.3V46.2z"/>
	<path d="M567.3,48.9c-0.4,0.2-1.2,0.4-2.2,0.4c-2.3,0-4.1-1.5-4.1-4.2c0-2.6,1.8-4.3,4.3-4.3c1,0,1.7,0.2,2,0.4l-0.3,0.9
		c-0.4-0.2-1-0.3-1.7-0.3c-1.9,0-3.2,1.2-3.2,3.4c0,2,1.2,3.3,3.2,3.3c0.6,0,1.3-0.1,1.7-0.3L567.3,48.9z"/>
	<path d="M568.6,40.5h1.1v8.7h-1.1V40.5z"/>
	<path d="M575.9,35.1v-1.3h10.8v1.3H575.9z M575.9,39.2V38h10.8v1.3H575.9z"/>
	<path d="M602,35.2c0,4.6-1.7,7.2-4.7,7.2c-2.7,0-4.5-2.5-4.5-7c0-4.6,2-7.1,4.7-7.1C600.4,28.3,602,30.9,602,35.2z M594.6,35.4
		c0,3.5,1.1,5.6,2.8,5.6c1.9,0,2.8-2.2,2.8-5.7c0-3.4-0.9-5.6-2.8-5.6C595.8,29.8,594.6,31.7,594.6,35.4z"/>
	<path d="M603.9,41.1c0-0.8,0.5-1.3,1.3-1.3c0.7,0,1.2,0.5,1.2,1.3c0,0.8-0.5,1.3-1.3,1.3C604.4,42.4,603.9,41.9,603.9,41.1z"/>
	<path d="M612.1,30.3L612.1,30.3l-2.4,1.3l-0.4-1.4l3-1.6h1.6v13.6h-1.8V30.3z"/>
	<path d="M618.7,38.7c0-1.7,1-2.9,2.7-3.7l0-0.1c-1.5-0.7-2.2-1.9-2.2-3.1c0-2.2,1.8-3.6,4.2-3.6c2.6,0,4,1.7,4,3.4
		c0,1.2-0.6,2.4-2.2,3.2v0.1c1.7,0.7,2.8,1.9,2.8,3.5c0,2.4-2,4-4.6,4C620.4,42.4,618.7,40.7,618.7,38.7z M626,38.7
		c0-1.7-1.2-2.5-3-3c-1.6,0.5-2.5,1.5-2.5,2.8c-0.1,1.4,1,2.6,2.7,2.6C625,41.1,626,40.1,626,38.7z M621,31.8c0,1.4,1,2.1,2.6,2.5
		c1.2-0.4,2.1-1.2,2.1-2.5c0-1.1-0.7-2.2-2.3-2.2C621.8,29.7,621,30.7,621,31.8z"/>
	<path d="M630.7,40.9c0.4,0,0.9,0,1.5-0.1c1.1-0.1,2.1-0.6,2.9-1.3c0.9-0.8,1.6-2,1.8-3.6h-0.1c-0.8,0.9-1.8,1.5-3.2,1.5
		c-2.5,0-4-1.8-4-4.2c0-2.6,1.9-4.9,4.7-4.9c2.8,0,4.5,2.3,4.5,5.8c0,3-1,5.1-2.4,6.4c-1,1-2.5,1.7-4,1.8c-0.7,0.1-1.3,0.1-1.7,0.1
		V40.9z M631.4,33.1c0,1.7,1,2.9,2.6,2.9c1.2,0,2.2-0.6,2.7-1.4c0.1-0.2,0.2-0.4,0.2-0.7c0-2.3-0.9-4.1-2.8-4.1
		C632.5,29.7,631.4,31.1,631.4,33.1z"/>
</g>
</svg>
