<?xml version="1.0" encoding="utf-8"?>
<!-- Generator: Adobe Illustrator 24.1.1, SVG Export Plug-In . SVG Version: 6.00 Build 0)  -->
<svg version="1.1" id="Layer_1" xmlns="http://www.w3.org/2000/svg" xmlns:xlink="http://www.w3.org/1999/xlink" x="0px" y="0px"
	 viewBox="0 0 300.26 198.38" style="enable-background:new 0 0 300.26 198.38;" xml:space="preserve">
<style type="text/css">
	.st0{fill:#FFFFFF;}
	.st1{fill:#ED1C24;}
	.st2{fill:#348DCC;}
</style>
<g>
	<rect x="80.74" y="46.53" class="st0" width="141" height="141"/>
	<path d="M222.24,188.03h-142v-142h142V188.03z M81.24,187.03h140v-140h-140V187.03z"/>
</g>
<g>
	<rect x="150.74" y="5.53" width="1" height="142"/>
</g>
<g>
	<path d="M137.84,153.12c-7.8,0-13.91-2.92-13.91-6.65s6.11-6.65,13.91-6.65s13.91,2.92,13.91,6.65S145.64,153.12,137.84,153.12z
		 M137.84,140.82c-7,0-12.91,2.59-12.91,5.65s5.91,5.65,12.91,5.65s12.91-2.59,12.91-5.65S144.83,140.82,137.84,140.82z"/>
</g>
<g>
	<path d="M164.65,153.12c-7.8,0-13.91-2.92-13.91-6.65s6.11-6.65,13.91-6.65s13.91,2.92,13.91,6.65S172.45,153.12,164.65,153.12z
		 M164.65,140.82c-7,0-12.91,2.59-12.91,5.65s5.91,5.65,12.91,5.65s12.91-2.59,12.91-5.65S171.65,140.82,164.65,140.82z"/>
</g>
<g>
	<g>
		<rect x="6.64" y="75.03" class="st1" width="60.82" height="3"/>
	</g>
	<g>
		<g>
			<polygon class="st1" points="64.48,72.17 80.74,76.53 64.48,80.89 			"/>
		</g>
	</g>
</g>
<g>
	<g>
		<rect x="221.74" y="156.54" class="st1" width="60.82" height="3"/>
	</g>
	<g>
		<g>
			<polygon class="st1" points="279.59,153.68 295.85,158.04 279.59,162.4 			"/>
		</g>
	</g>
</g>
<g>
	<path class="st2" d="M31.33,44.42H44.4v2.63h-9.94v8.06h9.18v2.59h-9.18v10.98h-3.13V44.42z"/>
</g>
<g>
	<path class="st2" d="M253.55,128.65c1.51-0.25,3.49-0.47,6.01-0.47c3.1,0,5.36,0.72,6.8,2.02c1.33,1.15,2.12,2.92,2.12,5.08
		c0,2.2-0.65,3.92-1.87,5.18c-1.66,1.76-4.36,2.66-7.42,2.66c-0.94,0-1.8-0.04-2.52-0.22v9.72h-3.13V128.65z M256.68,140.35
		c0.68,0.18,1.55,0.25,2.59,0.25c3.78,0,6.08-1.84,6.08-5.18c0-3.2-2.27-4.75-5.72-4.75c-1.37,0-2.41,0.11-2.95,0.25V140.35z"/>
</g>
</svg>
