<?xml version="1.0" encoding="utf-8"?>
<!-- Generator: Adobe Illustrator 24.1.1, SVG Export Plug-In . SVG Version: 6.00 Build 0)  -->
<svg version="1.1" id="Layer_1" xmlns="http://www.w3.org/2000/svg" xmlns:xlink="http://www.w3.org/1999/xlink" x="0px" y="0px"
	 viewBox="0 0 332.94 132.77" style="enable-background:new 0 0 332.94 132.77;" xml:space="preserve">
<style type="text/css">
	.st0{fill:#ED2024;}
	.st1{fill:#FFFFFF;}
	.st2{fill:#1870B9;}
</style>
<g>
	<g>
		<path class="st0" d="M229.43,125.9h-118.1c-0.7,0-1.27-0.57-1.27-1.27v-21.99h2.54v20.72h116.83V125.9z"/>
	</g>
	<g>
		<g>
			<polygon class="st0" points="228.32,120.83 234.89,124.63 228.32,128.43 			"/>
		</g>
	</g>
</g>
<g>
	<g>
		<rect x="177.35" y="71.11" class="st0" width="52.07" height="2.54"/>
	</g>
	<g>
		<g>
			<polygon class="st0" points="228.32,76.18 234.89,72.38 228.32,68.58 			"/>
		</g>
	</g>
</g>
<g>
	<rect x="45.18" y="42.13" class="st1" width="132.3" height="60.51"/>
	<path d="M177.98,103.14H44.68V41.63h133.3V103.14z M45.68,102.14h131.3V42.63H45.68V102.14z"/>
</g>
<g>
	<g>
		<rect x="45.18" y="77.66" width="2" height="1"/>
	</g>
	<g>
		<path d="M171.59,78.66h-3.89v-1h3.89V78.66z M163.82,78.66h-3.89v-1h3.89V78.66z M156.04,78.66h-3.89v-1h3.89V78.66z
			 M148.26,78.66h-3.89v-1h3.89V78.66z M140.49,78.66h-3.89v-1h3.89V78.66z M132.71,78.66h-3.89v-1h3.89V78.66z M124.94,78.66h-3.89
			v-1h3.89V78.66z M117.16,78.66h-3.89v-1h3.89V78.66z M109.39,78.66h-3.89v-1h3.89V78.66z M101.61,78.66h-3.89v-1h3.89V78.66z
			 M93.83,78.66h-3.89v-1h3.89V78.66z M86.06,78.66h-3.89v-1h3.89V78.66z M78.28,78.66h-3.89v-1h3.89V78.66z M70.51,78.66h-3.89v-1
			h3.89V78.66z M62.73,78.66h-3.89v-1h3.89V78.66z M54.95,78.66h-3.89v-1h3.89V78.66z"/>
	</g>
	<g>
		<rect x="175.48" y="77.66" width="2" height="1"/>
	</g>
</g>
<g>
	<g>
		<path class="st0" d="M112.6,36.66h-2.54V20.71H45.18v-2.54h66.15c0.7,0,1.27,0.57,1.27,1.27V36.66z"/>
	</g>
	<g>
		<g>
			<polygon class="st0" points="115.13,35.55 111.33,42.13 107.53,35.55 			"/>
		</g>
	</g>
</g>
<g>
	<path class="st2" d="M61.63,14.63V2.48h8.09v1.43h-6.51v3.76h5.63v1.43h-5.63v5.52H61.63z"/>
</g>
<g>
	<path class="st2" d="M200.14,63.7l1.5-0.13c0.07,0.61,0.24,1.11,0.5,1.5c0.26,0.39,0.66,0.7,1.21,0.94s1.16,0.36,1.84,0.36
		c0.61,0,1.14-0.09,1.6-0.27c0.46-0.18,0.81-0.43,1.04-0.75c0.23-0.32,0.34-0.66,0.34-1.04c0-0.38-0.11-0.71-0.33-1
		c-0.22-0.28-0.58-0.52-1.08-0.72c-0.32-0.13-1.03-0.32-2.14-0.59c-1.1-0.27-1.87-0.52-2.32-0.76c-0.57-0.3-1-0.68-1.28-1.13
		c-0.28-0.45-0.42-0.95-0.42-1.51c0-0.61,0.17-1.19,0.52-1.72c0.34-0.53,0.85-0.94,1.51-1.21c0.66-0.28,1.39-0.41,2.2-0.41
		c0.89,0,1.67,0.15,2.35,0.44s1.2,0.72,1.57,1.28c0.37,0.56,0.56,1.2,0.59,1.91l-1.52,0.12c-0.08-0.77-0.36-1.35-0.83-1.74
		c-0.47-0.39-1.17-0.59-2.09-0.59c-0.96,0-1.66,0.18-2.1,0.53c-0.44,0.36-0.66,0.79-0.66,1.29c0,0.44,0.16,0.8,0.47,1.08
		c0.31,0.28,1.1,0.57,2.39,0.87c1.29,0.3,2.18,0.55,2.66,0.77c0.7,0.33,1.21,0.74,1.55,1.24c0.33,0.5,0.5,1.08,0.5,1.73
		c0,0.65-0.18,1.26-0.55,1.83c-0.37,0.57-0.89,1.02-1.58,1.33c-0.68,0.32-1.46,0.48-2.31,0.48c-1.09,0-2-0.16-2.73-0.48
		c-0.73-0.32-1.31-0.8-1.73-1.45C200.38,65.24,200.16,64.51,200.14,63.7z"/>
</g>
<g>
	<path class="st2" d="M203.17,119.63v-12.15h1.59v10.71h5.91v1.43H203.17z"/>
</g>
<g>
	<path d="M6.31,24.26v-7.64h-1.3v-1.16h1.3v-0.94c0-0.59,0.05-1.03,0.16-1.32c0.14-0.39,0.39-0.7,0.75-0.94s0.86-0.36,1.5-0.36
		c0.41,0,0.87,0.05,1.37,0.15l-0.22,1.3C9.56,13.29,9.27,13.27,9,13.27c-0.45,0-0.76,0.1-0.95,0.29s-0.28,0.56-0.28,1.09v0.81h1.69
		v1.16H7.77v7.64H6.31z"/>
	<path d="M16.56,21.42l1.52,0.19c-0.24,0.9-0.68,1.6-1.33,2.1c-0.65,0.5-1.48,0.75-2.49,0.75c-1.27,0-2.28-0.4-3.02-1.19
		s-1.12-1.9-1.12-3.34c0-1.48,0.38-2.63,1.13-3.45c0.75-0.82,1.73-1.23,2.93-1.23c1.16,0,2.11,0.4,2.85,1.2
		c0.74,0.8,1.1,1.93,1.1,3.38c0,0.09,0,0.22-0.01,0.4h-6.48c0.05,0.97,0.32,1.71,0.81,2.22c0.49,0.51,1.09,0.77,1.82,0.77
		c0.54,0,1-0.14,1.38-0.43C16.03,22.51,16.34,22.05,16.56,21.42z M11.72,19.01h4.85c-0.07-0.74-0.25-1.3-0.56-1.67
		c-0.47-0.57-1.08-0.86-1.83-0.86c-0.68,0-1.25,0.23-1.71,0.69C12.03,17.63,11.77,18.24,11.72,19.01z"/>
	<path d="M25.88,21.42l1.52,0.19c-0.24,0.9-0.68,1.6-1.33,2.1c-0.65,0.5-1.48,0.75-2.49,0.75c-1.27,0-2.28-0.4-3.02-1.19
		s-1.12-1.9-1.12-3.34c0-1.48,0.38-2.63,1.13-3.45c0.75-0.82,1.73-1.23,2.93-1.23c1.16,0,2.11,0.4,2.85,1.2
		c0.74,0.8,1.1,1.93,1.1,3.38c0,0.09,0,0.22-0.01,0.4h-6.48c0.05,0.97,0.32,1.71,0.81,2.22c0.49,0.51,1.09,0.77,1.82,0.77
		c0.54,0,1-0.14,1.38-0.43C25.36,22.51,25.66,22.05,25.88,21.42z M21.05,19.01h4.85c-0.07-0.74-0.25-1.3-0.56-1.67
		c-0.47-0.57-1.08-0.86-1.83-0.86c-0.68,0-1.25,0.23-1.71,0.69C21.35,17.63,21.09,18.24,21.05,19.01z"/>
	<path d="M34.89,24.26v-1.11c-0.55,0.87-1.36,1.31-2.43,1.31c-0.69,0-1.33-0.19-1.91-0.58s-1.03-0.93-1.35-1.62
		c-0.32-0.69-0.48-1.49-0.48-2.39c0-0.88,0.14-1.68,0.43-2.39c0.29-0.72,0.72-1.26,1.3-1.65s1.22-0.57,1.94-0.57
		c0.52,0,0.99,0.11,1.4,0.34c0.41,0.22,0.74,0.52,1,0.87v-4.36h1.46v12.15H34.89z M30.24,19.86c0,1.13,0.23,1.97,0.7,2.53
		c0.47,0.56,1.02,0.84,1.66,0.84c0.64,0,1.19-0.27,1.64-0.8c0.45-0.53,0.67-1.35,0.67-2.44c0-1.2-0.23-2.09-0.69-2.65
		c-0.46-0.56-1.02-0.85-1.69-0.85c-0.65,0-1.2,0.27-1.64,0.81C30.46,17.84,30.24,18.7,30.24,19.86z"/>
</g>
<g>
	<path d="M242.64,78.16V66.01h1.47v6.93l3.49-3.58h1.91l-3.32,3.27l3.66,5.54h-1.82l-2.87-4.5l-1.04,1.01v3.49H242.64z"/>
	<path d="M250.47,73.76c0-1.63,0.45-2.84,1.34-3.62c0.75-0.65,1.66-0.98,2.73-0.98c1.2,0,2.17,0.4,2.93,1.19
		c0.76,0.79,1.14,1.89,1.14,3.29c0,1.13-0.17,2.02-0.5,2.67c-0.33,0.65-0.82,1.15-1.46,1.51c-0.64,0.36-1.34,0.54-2.1,0.54
		c-1.22,0-2.2-0.39-2.95-1.19C250.84,76.39,250.47,75.25,250.47,73.76z M251.98,73.76c0,1.13,0.24,1.97,0.73,2.53
		s1.1,0.84,1.83,0.84c0.73,0,1.34-0.28,1.82-0.85c0.49-0.56,0.73-1.42,0.73-2.58c0-1.09-0.24-1.91-0.73-2.47
		c-0.49-0.56-1.1-0.84-1.82-0.84c-0.74,0-1.35,0.28-1.83,0.84S251.98,72.64,251.98,73.76z"/>
	<path d="M266.29,75.33l1.52,0.19c-0.24,0.9-0.68,1.6-1.33,2.1s-1.48,0.75-2.49,0.75c-1.27,0-2.28-0.4-3.02-1.19
		c-0.74-0.79-1.12-1.9-1.12-3.34c0-1.48,0.38-2.63,1.13-3.45c0.75-0.82,1.73-1.23,2.93-1.23c1.16,0,2.11,0.4,2.85,1.2
		s1.1,1.93,1.1,3.38c0,0.09,0,0.22-0.01,0.4h-6.48c0.05,0.97,0.32,1.71,0.81,2.22c0.49,0.51,1.09,0.77,1.82,0.77
		c0.54,0,1-0.14,1.38-0.43S266.06,75.96,266.29,75.33z M261.45,72.92h4.85c-0.07-0.74-0.25-1.3-0.56-1.67
		c-0.47-0.57-1.08-0.86-1.82-0.86c-0.68,0-1.25,0.23-1.71,0.69C261.75,71.54,261.5,72.15,261.45,72.92z"/>
	<path d="M269.67,78.16V66.01h1.47v6.93l3.49-3.58h1.91l-3.32,3.27l3.66,5.54h-1.82l-2.87-4.5l-1.04,1.01v3.49H269.67z"/>
	<path d="M277.45,75.54l1.46-0.23c0.08,0.59,0.31,1.04,0.68,1.36c0.37,0.31,0.9,0.47,1.57,0.47c0.68,0,1.18-0.14,1.51-0.42
		c0.33-0.28,0.49-0.61,0.49-0.98c0-0.34-0.14-0.6-0.43-0.8c-0.2-0.13-0.7-0.3-1.51-0.51c-1.08-0.28-1.83-0.52-2.25-0.72
		c-0.42-0.2-0.73-0.48-0.95-0.84c-0.21-0.36-0.32-0.75-0.32-1.18c0-0.39,0.09-0.76,0.27-1.09c0.18-0.33,0.42-0.61,0.72-0.83
		c0.23-0.17,0.54-0.32,0.94-0.44s0.82-0.18,1.27-0.18c0.68,0,1.28,0.1,1.8,0.3s0.9,0.47,1.14,0.81c0.25,0.34,0.42,0.79,0.51,1.36
		l-1.44,0.2c-0.07-0.45-0.25-0.81-0.57-1.06c-0.31-0.25-0.76-0.38-1.33-0.38c-0.68,0-1.16,0.11-1.45,0.34
		c-0.29,0.23-0.43,0.49-0.43,0.8c0,0.19,0.06,0.37,0.18,0.52c0.12,0.16,0.31,0.29,0.56,0.4c0.15,0.06,0.58,0.18,1.3,0.38
		c1.04,0.28,1.77,0.51,2.18,0.69c0.41,0.18,0.73,0.44,0.97,0.78c0.23,0.34,0.35,0.77,0.35,1.28c0,0.5-0.14,0.97-0.43,1.4
		c-0.29,0.44-0.7,0.78-1.24,1.02c-0.54,0.24-1.15,0.36-1.83,0.36c-1.13,0-1.99-0.24-2.58-0.71
		C277.99,77.17,277.61,76.47,277.45,75.54z"/>
	<path d="M289.63,76.83l0.21,1.32c-0.41,0.09-0.79,0.13-1.11,0.13c-0.54,0-0.95-0.09-1.24-0.26c-0.29-0.17-0.5-0.4-0.62-0.68
		c-0.12-0.28-0.18-0.87-0.18-1.76v-5.06h-1.08v-1.16h1.08v-2.18l1.46-0.9v3.07h1.48v1.16h-1.48v5.15c0,0.43,0.03,0.7,0.08,0.82
		s0.14,0.22,0.25,0.29s0.29,0.11,0.5,0.11C289.15,76.89,289.37,76.87,289.63,76.83z"/>
	<path d="M291.06,78.16v-8.8h1.33v1.33c0.34-0.62,0.65-1.04,0.94-1.23c0.29-0.2,0.6-0.3,0.94-0.3c0.5,0,1,0.16,1.51,0.48l-0.51,1.38
		c-0.36-0.22-0.72-0.32-1.08-0.32c-0.32,0-0.61,0.1-0.87,0.29c-0.26,0.2-0.44,0.47-0.55,0.82c-0.16,0.53-0.25,1.11-0.25,1.74v4.61
		H291.06z"/>
	<path d="M296.11,73.76c0-1.63,0.45-2.84,1.34-3.62c0.75-0.65,1.66-0.98,2.73-0.98c1.2,0,2.17,0.4,2.93,1.19
		c0.76,0.79,1.14,1.89,1.14,3.29c0,1.13-0.17,2.02-0.5,2.67c-0.33,0.65-0.82,1.15-1.46,1.51c-0.64,0.36-1.34,0.54-2.1,0.54
		c-1.22,0-2.2-0.39-2.95-1.19C296.48,76.39,296.11,75.25,296.11,73.76z M297.62,73.76c0,1.13,0.24,1.97,0.73,2.53
		s1.1,0.84,1.83,0.84c0.73,0,1.34-0.28,1.83-0.85c0.49-0.56,0.73-1.42,0.73-2.58c0-1.09-0.25-1.91-0.73-2.47
		c-0.49-0.56-1.1-0.84-1.82-0.84c-0.74,0-1.35,0.28-1.83,0.84S297.62,72.64,297.62,73.76z"/>
	<path d="M305.43,73.76c0-1.63,0.45-2.84,1.34-3.62c0.75-0.65,1.66-0.98,2.73-0.98c1.2,0,2.17,0.4,2.93,1.19
		c0.76,0.79,1.14,1.89,1.14,3.29c0,1.13-0.17,2.02-0.5,2.67c-0.33,0.65-0.82,1.15-1.46,1.51c-0.64,0.36-1.34,0.54-2.1,0.54
		c-1.22,0-2.2-0.39-2.95-1.19C305.8,76.39,305.43,75.25,305.43,73.76z M306.94,73.76c0,1.13,0.24,1.97,0.73,2.53s1.1,0.84,1.83,0.84
		c0.73,0,1.34-0.28,1.83-0.85c0.49-0.56,0.73-1.42,0.73-2.58c0-1.09-0.25-1.91-0.73-2.47c-0.49-0.56-1.1-0.84-1.82-0.84
		c-0.74,0-1.35,0.28-1.83,0.84S306.94,72.64,306.94,73.76z"/>
	<path d="M315.3,78.16v-8.8h1.32v1.23c0.27-0.43,0.64-0.78,1.09-1.04c0.45-0.26,0.97-0.39,1.55-0.39c0.64,0,1.17,0.14,1.58,0.41
		c0.41,0.27,0.7,0.65,0.87,1.14c0.69-1.03,1.58-1.54,2.68-1.54c0.86,0,1.53,0.24,1.99,0.73c0.46,0.48,0.7,1.23,0.7,2.23v6.04h-1.46
		v-5.54c0-0.6-0.05-1.03-0.14-1.29c-0.09-0.26-0.27-0.47-0.52-0.63s-0.54-0.24-0.88-0.24c-0.61,0-1.12,0.21-1.52,0.62
		c-0.4,0.41-0.61,1.07-0.61,1.98v5.11h-1.47v-5.72c0-0.66-0.12-1.16-0.36-1.49s-0.63-0.5-1.18-0.5c-0.42,0-0.8,0.11-1.15,0.33
		c-0.35,0.22-0.61,0.54-0.76,0.97s-0.24,1.04-0.24,1.84v4.57H315.3z"/>
</g>
<g>
	<path d="M242.99,128.36v-7.64h-1.3v-1.16h1.3v-0.94c0-0.59,0.05-1.03,0.16-1.32c0.14-0.39,0.39-0.7,0.75-0.94s0.86-0.36,1.5-0.36
		c0.41,0,0.87,0.05,1.37,0.15l-0.22,1.3c-0.31-0.06-0.59-0.08-0.87-0.08c-0.45,0-0.76,0.1-0.95,0.29s-0.28,0.55-0.28,1.08v0.81h1.69
		v1.16h-1.69v7.64H242.99z"/>
	<path d="M247.3,117.92v-1.71h1.47v1.71H247.3z M247.3,128.36v-8.8h1.47v8.8H247.3z"/>
	<path d="M250.98,128.36v-12.15h1.47v12.15H250.98z"/>
	<path d="M257.96,127.02l0.21,1.32c-0.41,0.09-0.79,0.13-1.11,0.13c-0.54,0-0.95-0.09-1.24-0.26c-0.29-0.17-0.5-0.4-0.62-0.67
		s-0.18-0.87-0.18-1.76v-5.06h-1.08v-1.16h1.08v-2.18l1.46-0.89v3.07h1.48v1.16h-1.48v5.15c0,0.42,0.03,0.7,0.08,0.82
		c0.05,0.12,0.14,0.22,0.25,0.29c0.12,0.07,0.29,0.11,0.5,0.11C257.47,127.08,257.69,127.06,257.96,127.02z"/>
	<path d="M259.38,128.36v-8.8h1.33v1.33c0.34-0.62,0.65-1.04,0.94-1.23c0.29-0.2,0.6-0.3,0.94-0.3c0.5,0,1,0.16,1.51,0.48
		l-0.51,1.38c-0.36-0.22-0.72-0.32-1.08-0.32c-0.32,0-0.61,0.1-0.87,0.29c-0.26,0.2-0.44,0.47-0.55,0.82
		c-0.16,0.53-0.25,1.11-0.25,1.74v4.61H259.38z"/>
	<path d="M270.65,127.27c-0.55,0.47-1.07,0.8-1.58,0.99c-0.5,0.19-1.05,0.29-1.62,0.29c-0.96,0-1.69-0.24-2.2-0.71
		c-0.51-0.47-0.77-1.08-0.77-1.81c0-0.43,0.1-0.83,0.29-1.18c0.19-0.36,0.45-0.64,0.76-0.86c0.31-0.21,0.67-0.38,1.06-0.49
		c0.29-0.08,0.73-0.15,1.31-0.22c1.19-0.14,2.06-0.31,2.63-0.51c0-0.2,0.01-0.33,0.01-0.39c0-0.61-0.14-1.04-0.42-1.29
		c-0.38-0.34-0.94-0.5-1.68-0.5c-0.69,0-1.2,0.12-1.53,0.37c-0.33,0.25-0.57,0.68-0.73,1.31l-1.44-0.2
		c0.13-0.62,0.35-1.13,0.65-1.51c0.3-0.38,0.73-0.68,1.3-0.89c0.57-0.21,1.22-0.31,1.97-0.31c0.74,0,1.34,0.09,1.81,0.27
		s0.8,0.4,1.02,0.67c0.22,0.27,0.37,0.61,0.46,1.01c0.05,0.25,0.07,0.71,0.07,1.38v1.99c0,1.39,0.03,2.26,0.09,2.63
		c0.06,0.37,0.19,0.72,0.37,1.06h-1.54C270.79,128.05,270.69,127.68,270.65,127.27z M270.53,123.94c-0.54,0.22-1.34,0.41-2.41,0.56
		c-0.61,0.09-1.03,0.19-1.28,0.3c-0.25,0.11-0.45,0.27-0.58,0.49c-0.14,0.21-0.21,0.45-0.21,0.71c0,0.4,0.15,0.73,0.45,1
		c0.3,0.26,0.73,0.4,1.3,0.4c0.57,0,1.07-0.13,1.51-0.38c0.44-0.25,0.77-0.6,0.97-1.03c0.16-0.34,0.24-0.83,0.24-1.49V123.94z"/>
	<path d="M279.97,127.27c-0.55,0.47-1.07,0.8-1.58,0.99c-0.5,0.19-1.05,0.29-1.62,0.29c-0.96,0-1.69-0.24-2.2-0.71
		c-0.51-0.47-0.77-1.08-0.77-1.81c0-0.43,0.1-0.83,0.29-1.18c0.19-0.36,0.45-0.64,0.76-0.86c0.31-0.21,0.67-0.38,1.06-0.49
		c0.29-0.08,0.73-0.15,1.31-0.22c1.19-0.14,2.06-0.31,2.63-0.51c0-0.2,0.01-0.33,0.01-0.39c0-0.61-0.14-1.04-0.42-1.29
		c-0.38-0.34-0.94-0.5-1.68-0.5c-0.69,0-1.2,0.12-1.53,0.37c-0.33,0.25-0.57,0.68-0.73,1.31l-1.44-0.2
		c0.13-0.62,0.35-1.13,0.65-1.51c0.3-0.38,0.73-0.68,1.3-0.89c0.57-0.21,1.22-0.31,1.97-0.31c0.74,0,1.34,0.09,1.81,0.27
		s0.8,0.4,1.02,0.67c0.22,0.27,0.37,0.61,0.46,1.01c0.05,0.25,0.07,0.71,0.07,1.38v1.99c0,1.39,0.03,2.26,0.09,2.63
		c0.06,0.37,0.19,0.72,0.37,1.06h-1.54C280.11,128.05,280.01,127.68,279.97,127.27z M279.85,123.94c-0.54,0.22-1.34,0.41-2.41,0.56
		c-0.61,0.09-1.03,0.19-1.28,0.3c-0.25,0.11-0.45,0.27-0.58,0.49c-0.14,0.21-0.21,0.45-0.21,0.71c0,0.4,0.15,0.73,0.45,1
		c0.3,0.26,0.73,0.4,1.3,0.4c0.57,0,1.07-0.13,1.51-0.38c0.44-0.25,0.77-0.6,0.97-1.03c0.16-0.34,0.24-0.83,0.24-1.49V123.94z"/>
	<path d="M286.84,127.02l0.21,1.32c-0.41,0.09-0.79,0.13-1.11,0.13c-0.54,0-0.95-0.09-1.24-0.26c-0.29-0.17-0.5-0.4-0.62-0.67
		s-0.18-0.87-0.18-1.76v-5.06h-1.08v-1.16h1.08v-2.18l1.46-0.89v3.07h1.48v1.16h-1.48v5.15c0,0.42,0.03,0.7,0.08,0.82
		c0.05,0.12,0.14,0.22,0.25,0.29c0.12,0.07,0.29,0.11,0.5,0.11C286.35,127.08,286.57,127.06,286.84,127.02z"/>
</g>
</svg>
