<?xml version="1.0" encoding="utf-8"?>
<!-- Generator: Adobe Illustrator 24.1.1, SVG Export Plug-In . SVG Version: 6.00 Build 0)  -->
<svg version="1.1" id="Layer_1" xmlns="http://www.w3.org/2000/svg" xmlns:xlink="http://www.w3.org/1999/xlink" x="0px" y="0px"
	 viewBox="0 0 300.77 188.43" style="enable-background:new 0 0 300.77 188.43;" xml:space="preserve">
<style type="text/css">
	.st0{fill:#FFFFFF;}
</style>
<g>
	<path class="st0" d="M115.32,160.34L115.32,160.34c-9.64,0-17.45-7.81-17.45-17.45V50.81c0-9.64,7.81-17.45,17.45-17.45h0
		c9.64,0,17.45,7.81,17.45,17.45v92.09C132.77,152.53,124.95,160.34,115.32,160.34z"/>
	<path d="M115.32,160.84c-9.9,0-17.95-8.05-17.95-17.95V50.81c0-9.9,8.05-17.95,17.95-17.95s17.95,8.05,17.95,17.95v92.08
		C133.27,152.79,125.22,160.84,115.32,160.84z M115.32,33.86c-9.34,0-16.95,7.6-16.95,16.95v92.08c0,9.34,7.6,16.95,16.95,16.95
		s16.95-7.6,16.95-16.95V50.81C132.27,41.46,124.66,33.86,115.32,33.86z"/>
</g>
<g>
	<g>
		<rect x="2.68" y="96.35" width="86.33" height="1"/>
	</g>
	<g>
		<g>
			<polygon points="87.03,99.76 97.87,96.85 87.03,93.95 			"/>
		</g>
	</g>
</g>
<g>
	<g>
		<polygon points="115.82,33.36 114.82,33.36 114.82,16.27 216.87,16.27 216.87,17.27 115.82,17.27 		"/>
	</g>
	<g>
		<g>
			<polygon points="214.88,13.86 225.72,16.77 214.88,19.67 			"/>
		</g>
	</g>
</g>
<g>
	<g>
		<rect x="132.77" y="96.35" width="74.82" height="1"/>
	</g>
	<g>
		<g>
			<polygon points="205.61,99.76 216.45,96.85 205.61,93.95 			"/>
		</g>
	</g>
</g>
<g>
	<g>
		<polygon points="207.59,175.14 114.82,175.14 114.82,160.34 115.82,160.34 115.82,174.14 207.59,174.14 		"/>
	</g>
	<g>
		<g>
			<polygon points="205.61,171.73 216.45,174.64 205.61,177.54 			"/>
		</g>
	</g>
</g>
<g>
	<path d="M3.47,111.13c0.3,0.19,1,0.49,1.73,0.49c1.36,0,1.77-0.86,1.76-1.51c-0.01-1.09-1-1.56-2.02-1.56H4.36v-0.79h0.59
		c0.77,0,1.74-0.4,1.74-1.32c0-0.62-0.4-1.18-1.37-1.18c-0.62,0-1.22,0.28-1.56,0.52l-0.28-0.77c0.41-0.3,1.2-0.6,2.04-0.6
		c1.54,0,2.23,0.91,2.23,1.86c0,0.8-0.48,1.49-1.44,1.83v0.02c0.96,0.19,1.74,0.91,1.74,2c0,1.25-0.97,2.34-2.84,2.34
		c-0.88,0-1.64-0.28-2.03-0.53L3.47,111.13z"/>
	<path d="M14.56,108.36c0,2.65-0.98,4.11-2.71,4.11c-1.52,0-2.55-1.43-2.58-4.01c0-2.61,1.13-4.05,2.71-4.05
		C13.62,104.41,14.56,105.88,14.56,108.36z M10.32,108.48c0,2.03,0.62,3.18,1.58,3.18c1.08,0,1.6-1.26,1.6-3.25
		c0-1.92-0.49-3.18-1.58-3.18C11,105.23,10.32,106.36,10.32,108.48z"/>
	<path d="M19.05,106.74c0,1.64-0.86,2.46-1.87,2.46c-0.97,0-1.81-0.78-1.82-2.35c0-1.56,0.85-2.43,1.88-2.43
		C18.33,104.41,19.05,105.25,19.05,106.74z M16.19,106.81c-0.02,1,0.35,1.75,1.01,1.75c0.7,0,1.01-0.74,1.01-1.77
		c0-0.95-0.28-1.74-1.01-1.74C16.54,105.05,16.19,105.83,16.19,106.81z M17.1,112.47l4.58-8.06h0.67l-4.58,8.06H17.1z M24.12,109.97
		c0,1.64-0.86,2.46-1.86,2.46c-0.97,0-1.81-0.78-1.82-2.34c0-1.57,0.85-2.45,1.88-2.45C23.41,107.64,24.12,108.48,24.12,109.97z
		 M21.26,110.04c-0.01,1,0.37,1.75,1.02,1.75c0.7,0,1.01-0.74,1.01-1.77c0-0.95-0.28-1.74-1.01-1.74
		C21.62,108.27,21.26,109.05,21.26,110.04z"/>
	<path d="M29.26,109.8l-0.84,2.54h-1.08l2.75-8.08h1.26l2.76,8.08h-1.12l-0.86-2.54H29.26z M31.91,108.98l-0.79-2.33
		c-0.18-0.53-0.3-1.01-0.42-1.48h-0.02c-0.12,0.48-0.25,0.97-0.41,1.46l-0.79,2.34H31.91z"/>
	<path d="M5.51,119.93H5.49l-1.36,0.73l-0.2-0.8l1.7-0.91h0.9v7.8H5.51V119.93z"/>
	<path d="M14.56,122.76c0,2.65-0.98,4.11-2.71,4.11c-1.52,0-2.55-1.43-2.58-4.01c0-2.61,1.13-4.05,2.71-4.05
		C13.62,118.81,14.56,120.28,14.56,122.76z M10.32,122.88c0,2.03,0.62,3.18,1.58,3.18c1.08,0,1.6-1.26,1.6-3.25
		c0-1.92-0.49-3.18-1.58-3.18C11,119.63,10.32,120.76,10.32,122.88z"/>
	<path d="M19.05,121.14c0,1.64-0.86,2.46-1.87,2.46c-0.97,0-1.81-0.78-1.82-2.35c0-1.56,0.85-2.43,1.88-2.43
		C18.33,118.81,19.05,119.65,19.05,121.14z M16.19,121.21c-0.02,1,0.35,1.75,1.01,1.75c0.7,0,1.01-0.74,1.01-1.77
		c0-0.95-0.28-1.74-1.01-1.74C16.54,119.45,16.19,120.23,16.19,121.21z M17.1,126.87l4.58-8.06h0.67l-4.58,8.06H17.1z M24.12,124.37
		c0,1.64-0.86,2.46-1.86,2.46c-0.97,0-1.81-0.78-1.82-2.34c0-1.57,0.85-2.45,1.88-2.45C23.41,122.04,24.12,122.88,24.12,124.37z
		 M21.26,124.44c-0.01,1,0.37,1.75,1.02,1.75c0.7,0,1.01-0.74,1.01-1.77c0-0.95-0.28-1.74-1.01-1.74
		C21.62,122.67,21.26,123.45,21.26,124.44z"/>
	<path d="M27.95,118.76c0.46-0.1,1.18-0.17,1.91-0.17c1.04,0,1.72,0.18,2.22,0.59c0.42,0.31,0.67,0.79,0.67,1.43
		c0,0.78-0.52,1.46-1.37,1.77v0.02c0.77,0.19,1.67,0.83,1.67,2.03c0,0.7-0.28,1.22-0.68,1.62c-0.56,0.52-1.48,0.76-2.79,0.76
		c-0.72,0-1.27-0.05-1.62-0.1V118.76z M29,122.07h0.95c1.1,0,1.75-0.58,1.75-1.35c0-0.95-0.72-1.32-1.77-1.32
		c-0.48,0-0.76,0.04-0.92,0.07V122.07z M29,125.95c0.2,0.04,0.5,0.05,0.88,0.05c1.08,0,2.07-0.4,2.07-1.57
		c0-1.1-0.95-1.56-2.09-1.56H29V125.95z"/>
	<path d="M7.67,134.09c-0.22-0.01-0.49,0-0.79,0.05c-1.66,0.28-2.53,1.49-2.71,2.77H4.2c0.37-0.49,1.02-0.9,1.88-0.9
		c1.38,0,2.35,1,2.35,2.52c0,1.43-0.97,2.75-2.59,2.75c-1.67,0-2.76-1.3-2.76-3.32c0-1.54,0.55-2.75,1.32-3.51
		c0.65-0.64,1.51-1.03,2.49-1.15c0.31-0.05,0.58-0.06,0.77-0.06V134.09z M7.37,138.59c0-1.12-0.64-1.79-1.61-1.79
		c-0.64,0-1.22,0.4-1.51,0.96c-0.07,0.12-0.12,0.28-0.12,0.47c0.02,1.28,0.61,2.23,1.72,2.23C6.76,140.46,7.37,139.7,7.37,138.59z"
		/>
	<path d="M14.56,137.16c0,2.65-0.98,4.11-2.71,4.11c-1.52,0-2.55-1.43-2.58-4.01c0-2.61,1.13-4.05,2.71-4.05
		C13.62,133.21,14.56,134.68,14.56,137.16z M10.32,137.28c0,2.03,0.62,3.18,1.58,3.18c1.08,0,1.6-1.26,1.6-3.25
		c0-1.92-0.49-3.18-1.58-3.18C11,134.03,10.32,135.16,10.32,137.28z"/>
	<path d="M19.05,135.54c0,1.64-0.86,2.46-1.87,2.46c-0.97,0-1.81-0.78-1.82-2.35c0-1.56,0.85-2.43,1.88-2.43
		C18.33,133.21,19.05,134.05,19.05,135.54z M16.19,135.61c-0.02,1,0.35,1.75,1.01,1.75c0.7,0,1.01-0.74,1.01-1.77
		c0-0.95-0.28-1.74-1.01-1.74C16.54,133.85,16.19,134.63,16.19,135.61z M17.1,141.27l4.58-8.06h0.67l-4.58,8.06H17.1z M24.12,138.77
		c0,1.64-0.86,2.46-1.86,2.46c-0.97,0-1.81-0.78-1.82-2.34c0-1.57,0.85-2.45,1.88-2.45C23.41,136.44,24.12,137.28,24.12,138.77z
		 M21.26,138.84c-0.01,1,0.37,1.75,1.02,1.75c0.7,0,1.01-0.74,1.01-1.77c0-0.95-0.28-1.74-1.01-1.74
		C21.62,137.07,21.26,137.85,21.26,138.84z"/>
	<path d="M29,133.06v3.38h3.91v-3.38h1.06v8.08H32.9v-3.79H29v3.79h-1.04v-8.08H29z"/>
	<path d="M35.01,142.46l0.76-0.71c1-0.9,1.51-1.46,1.51-2.08c0-0.46-0.29-0.84-0.91-0.84c-0.42,0-0.78,0.22-1.01,0.37l-0.25-0.54
		c0.32-0.28,0.86-0.5,1.46-0.5c1.13,0,1.6,0.71,1.6,1.36c0,0.9-0.68,1.56-1.6,2.36l-0.37,0.34v0.02h2.05v0.66h-3.24V142.46z"/>
	<path d="M46.42,137.01c0,2.78-1.69,4.26-3.75,4.26c-2.13,0-3.63-1.65-3.63-4.1c0-2.57,1.6-4.25,3.75-4.25
		C44.99,132.92,46.42,134.62,46.42,137.01z M40.14,137.15c0,1.73,0.94,3.27,2.58,3.27c1.66,0,2.59-1.52,2.59-3.36
		c0-1.61-0.84-3.29-2.58-3.29C41.01,133.78,40.14,135.37,40.14,137.15z"/>
	<path d="M52.57,132.82c-0.88,1.18-1.51,2.73-1.51,4.91c0,2.13,0.66,3.67,1.51,4.87h-0.83c-0.76-1-1.57-2.53-1.57-4.87
		c0.01-2.36,0.82-3.9,1.57-4.91H52.57z"/>
	<path d="M54.11,135.34l0.77,2.95c0.17,0.65,0.32,1.25,0.43,1.85h0.04c0.13-0.59,0.32-1.21,0.52-1.83l0.95-2.96h0.89l0.9,2.9
		c0.22,0.7,0.38,1.31,0.52,1.9h0.04c0.1-0.59,0.25-1.2,0.44-1.88l0.83-2.91h1.04l-1.87,5.8h-0.96l-0.89-2.77
		c-0.2-0.65-0.37-1.22-0.52-1.91h-0.02c-0.14,0.7-0.32,1.29-0.53,1.92l-0.94,2.76h-0.96l-1.75-5.8H54.11z"/>
	<path d="M61.89,142.59c0.85-1.19,1.51-2.75,1.51-4.91c0-2.15-0.65-3.68-1.51-4.87h0.82c0.77,0.98,1.57,2.52,1.57,4.88
		c0,2.35-0.8,3.87-1.57,4.89H61.89z"/>
</g>
<g>
	<path d="M3.59,82.3h4.35v0.88H4.64v2.69h3.06v0.86H4.64v3.66H3.59V82.3z"/>
	<path d="M11.55,86.34v-0.72h6.19v0.72H11.55z M11.55,88.69v-0.72h6.19v0.72H11.55z"/>
	<path d="M23.59,83.57h-0.02l-1.36,0.73l-0.2-0.8l1.7-0.91h0.9v7.8h-1.02V83.57z"/>
	<path d="M32.64,86.4c0,2.65-0.98,4.11-2.71,4.11c-1.52,0-2.55-1.43-2.58-4.01c0-2.61,1.13-4.05,2.71-4.05
		C31.71,82.46,32.64,83.92,32.64,86.4z M28.41,86.52c0,2.03,0.62,3.18,1.58,3.18c1.08,0,1.6-1.26,1.6-3.25
		c0-1.92-0.49-3.18-1.58-3.18C29.08,83.27,28.41,84.4,28.41,86.52z"/>
	<path d="M38.8,86.4c0,2.65-0.98,4.11-2.71,4.11c-1.52,0-2.55-1.43-2.58-4.01c0-2.61,1.13-4.05,2.71-4.05
		C37.86,82.46,38.8,83.92,38.8,86.4z M34.56,86.52c0,2.03,0.62,3.18,1.58,3.18c1.08,0,1.6-1.26,1.6-3.25c0-1.92-0.49-3.18-1.58-3.18
		C35.23,83.27,34.56,84.4,34.56,86.52z"/>
	<path d="M44.95,86.4c0,2.65-0.98,4.11-2.71,4.11c-1.52,0-2.55-1.43-2.58-4.01c0-2.61,1.13-4.05,2.71-4.05
		C44.02,82.46,44.95,83.92,44.95,86.4z M40.72,86.52c0,2.03,0.62,3.18,1.58,3.18c1.08,0,1.6-1.26,1.6-3.25
		c0-1.92-0.49-3.18-1.58-3.18C41.39,83.27,40.72,84.4,40.72,86.52z"/>
	<path d="M51.11,86.4c0,2.65-0.98,4.11-2.71,4.11c-1.52,0-2.55-1.43-2.58-4.01c0-2.61,1.13-4.05,2.71-4.05
		C50.17,82.46,51.11,83.92,51.11,86.4z M46.87,86.52c0,2.03,0.62,3.18,1.58,3.18c1.08,0,1.6-1.26,1.6-3.25
		c0-1.92-0.49-3.18-1.58-3.18C47.55,83.27,46.87,84.4,46.87,86.52z"/>
	<path d="M56.01,87.24h0.02c0.14-0.2,0.35-0.46,0.52-0.66l1.7-2h1.27l-2.24,2.39l2.55,3.42h-1.28l-2-2.78l-0.54,0.6v2.18h-1.04
		v-8.52h1.04V87.24z"/>
	<path d="M65.59,84.58c-0.02,0.42-0.05,0.89-0.05,1.6v3.37c0,1.33-0.26,2.15-0.83,2.65c-0.56,0.53-1.38,0.7-2.11,0.7
		c-0.7,0-1.46-0.17-1.93-0.48l0.26-0.8c0.38,0.24,0.98,0.46,1.7,0.46c1.08,0,1.87-0.56,1.87-2.03v-0.65h-0.02
		c-0.32,0.54-0.95,0.97-1.85,0.97c-1.44,0-2.47-1.22-2.47-2.83c0-1.97,1.28-3.08,2.61-3.08c1.01,0,1.56,0.53,1.81,1.01h0.02
		l0.05-0.88H65.59z M64.5,86.87c0-0.18-0.01-0.34-0.06-0.48c-0.19-0.61-0.71-1.12-1.48-1.12c-1.01,0-1.73,0.85-1.73,2.19
		c0,1.14,0.58,2.09,1.72,2.09c0.65,0,1.24-0.41,1.46-1.08c0.06-0.18,0.08-0.38,0.08-0.56V86.87z"/>
	<path d="M66.41,90.86l3.35-8.7h0.82l-3.36,8.7H66.41z"/>
	<path d="M71.41,81.87h1.06v3.62h0.02c0.17-0.3,0.43-0.56,0.76-0.74c0.31-0.18,0.68-0.3,1.08-0.3c0.78,0,2.03,0.48,2.03,2.48v3.45
		H75.3v-3.33c0-0.94-0.35-1.73-1.34-1.73c-0.68,0-1.22,0.48-1.42,1.06c-0.06,0.14-0.07,0.3-0.07,0.5v3.5h-1.06V81.87z"/>
</g>
<g>
	<path d="M137.08,82.15h1.04v7.21h3.45v0.88h-4.5V82.15z"/>
	<path d="M144.86,86.19v-0.72h6.19v0.72H144.86z M144.86,88.54v-0.72h6.19v0.72H144.86z"/>
	<path d="M159.27,83.33h-2.97l-0.3,2c0.18-0.02,0.35-0.05,0.64-0.05c0.6,0,1.2,0.13,1.68,0.42c0.61,0.35,1.12,1.02,1.12,2
		c0,1.52-1.21,2.66-2.9,2.66c-0.85,0-1.57-0.24-1.94-0.48l0.26-0.8c0.32,0.19,0.96,0.43,1.67,0.43c1,0,1.85-0.65,1.85-1.69
		c-0.01-1.01-0.68-1.73-2.24-1.73c-0.44,0-0.79,0.05-1.08,0.08l0.5-3.74h3.73V83.33z"/>
	<path d="M165.95,86.25c0,2.65-0.98,4.11-2.71,4.11c-1.52,0-2.55-1.43-2.58-4.01c0-2.61,1.13-4.05,2.71-4.05
		C165.02,82.31,165.95,83.77,165.95,86.25z M161.72,86.37c0,2.03,0.62,3.18,1.58,3.18c1.08,0,1.6-1.26,1.6-3.25
		c0-1.92-0.49-3.18-1.58-3.18C162.39,83.12,161.72,84.25,161.72,86.37z"/>
	<path d="M172.11,86.25c0,2.65-0.98,4.11-2.71,4.11c-1.52,0-2.55-1.43-2.58-4.01c0-2.61,1.13-4.05,2.71-4.05
		C171.17,82.31,172.11,83.77,172.11,86.25z M167.87,86.37c0,2.03,0.62,3.18,1.58,3.18c1.08,0,1.6-1.26,1.6-3.25
		c0-1.92-0.49-3.18-1.58-3.18C168.54,83.12,167.87,84.25,167.87,86.37z"/>
	<path d="M178.26,86.25c0,2.65-0.98,4.11-2.71,4.11c-1.52,0-2.55-1.43-2.58-4.01c0-2.61,1.13-4.05,2.71-4.05
		C177.33,82.31,178.26,83.77,178.26,86.25z M174.03,86.37c0,2.03,0.62,3.18,1.58,3.18c1.08,0,1.59-1.26,1.59-3.25
		c0-1.92-0.49-3.18-1.58-3.18C174.7,83.12,174.03,84.25,174.03,86.37z"/>
	<path d="M183.16,87.09h0.02c0.14-0.2,0.35-0.46,0.52-0.66l1.7-2h1.27l-2.24,2.39l2.55,3.42h-1.28l-2-2.78l-0.54,0.6v2.18h-1.04
		v-8.52h1.04V87.09z"/>
	<path d="M192.75,84.43c-0.02,0.42-0.05,0.89-0.05,1.6v3.37c0,1.33-0.26,2.15-0.83,2.65c-0.56,0.53-1.38,0.7-2.11,0.7
		c-0.7,0-1.46-0.17-1.93-0.48l0.26-0.8c0.38,0.24,0.98,0.46,1.7,0.46c1.08,0,1.87-0.56,1.87-2.03v-0.65h-0.02
		c-0.32,0.54-0.95,0.97-1.85,0.97c-1.44,0-2.47-1.22-2.47-2.83c0-1.97,1.28-3.08,2.61-3.08c1.01,0,1.56,0.53,1.81,1.01h0.02
		l0.05-0.88H192.75z M191.65,86.72c0-0.18-0.01-0.34-0.06-0.48c-0.19-0.61-0.71-1.12-1.48-1.12c-1.01,0-1.73,0.85-1.73,2.19
		c0,1.14,0.58,2.09,1.71,2.09c0.65,0,1.24-0.41,1.46-1.08c0.06-0.18,0.08-0.38,0.08-0.56V86.72z"/>
	<path d="M193.56,90.71l3.35-8.7h0.82l-3.36,8.7H193.56z"/>
	<path d="M198.57,81.72h1.05v3.62h0.02c0.17-0.3,0.43-0.56,0.76-0.74c0.31-0.18,0.68-0.3,1.08-0.3c0.78,0,2.03,0.48,2.03,2.48v3.45
		h-1.05V86.9c0-0.94-0.35-1.73-1.34-1.73c-0.68,0-1.22,0.48-1.42,1.06c-0.06,0.14-0.07,0.3-0.07,0.5v3.5h-1.05V81.72z"/>
</g>
<g>
	<path d="M223.67,82.56l-0.84,2.54h-1.08l2.75-8.08h1.26l2.76,8.08h-1.12l-0.86-2.54H223.67z M226.32,81.75l-0.79-2.33
		c-0.18-0.53-0.3-1.01-0.42-1.48h-0.02c-0.12,0.48-0.25,0.97-0.41,1.46l-0.79,2.34H226.32z"/>
	<path d="M222.36,91.53c0.46-0.1,1.18-0.17,1.91-0.17c1.04,0,1.71,0.18,2.22,0.59c0.42,0.31,0.67,0.79,0.67,1.43
		c0,0.78-0.52,1.46-1.37,1.77v0.02c0.77,0.19,1.67,0.83,1.67,2.03c0,0.7-0.28,1.22-0.68,1.62c-0.56,0.52-1.48,0.76-2.79,0.76
		c-0.72,0-1.27-0.05-1.62-0.1V91.53z M223.4,94.84h0.95c1.1,0,1.75-0.58,1.75-1.35c0-0.95-0.72-1.32-1.77-1.32
		c-0.48,0-0.76,0.04-0.92,0.07V94.84z M223.4,98.71c0.2,0.04,0.5,0.05,0.88,0.05c1.08,0,2.08-0.4,2.08-1.57
		c0-1.1-0.95-1.56-2.09-1.56h-0.86V98.71z"/>
	<path d="M223.4,105.82v3.38h3.91v-3.38h1.05v8.08h-1.05v-3.79h-3.91v3.79h-1.04v-8.08H223.4z"/>
	<path d="M229.41,115.23l0.76-0.71c1-0.9,1.51-1.46,1.51-2.08c0-0.46-0.29-0.84-0.91-0.84c-0.42,0-0.78,0.22-1.01,0.37l-0.25-0.54
		c0.32-0.28,0.86-0.5,1.46-0.5c1.13,0,1.59,0.71,1.59,1.36c0,0.9-0.68,1.56-1.59,2.36l-0.37,0.34v0.02h2.05v0.66h-3.24V115.23z"/>
	<path d="M240.82,109.78c0,2.78-1.69,4.26-3.75,4.26c-2.13,0-3.63-1.65-3.63-4.1c0-2.57,1.6-4.25,3.75-4.25
		C239.4,105.69,240.82,107.38,240.82,109.78z M234.55,109.91c0,1.73,0.94,3.27,2.58,3.27c1.66,0,2.59-1.52,2.59-3.36
		c0-1.61-0.84-3.29-2.58-3.29C235.41,106.54,234.55,108.14,234.55,109.91z"/>
	<path d="M246.98,105.58c-0.88,1.18-1.51,2.73-1.51,4.91c0,2.13,0.66,3.67,1.51,4.87h-0.83c-0.76-1-1.57-2.53-1.57-4.87
		c0.01-2.36,0.82-3.9,1.57-4.91H246.98z"/>
	<path d="M248.52,108.1l0.77,2.95c0.17,0.65,0.32,1.25,0.43,1.85h0.04c0.13-0.59,0.32-1.21,0.52-1.83l0.95-2.96h0.89l0.9,2.9
		c0.22,0.7,0.38,1.31,0.52,1.9h0.04c0.1-0.59,0.25-1.2,0.44-1.88l0.83-2.91h1.04l-1.87,5.8h-0.96l-0.89-2.77
		c-0.2-0.65-0.37-1.22-0.52-1.91h-0.02c-0.14,0.7-0.32,1.29-0.53,1.92l-0.94,2.76h-0.96l-1.75-5.8H248.52z"/>
	<path d="M256.29,115.36c0.85-1.19,1.51-2.75,1.51-4.91c0-2.15-0.65-3.68-1.51-4.87h0.82c0.77,0.98,1.57,2.52,1.57,4.88
		c0,2.35-0.8,3.87-1.57,4.89H256.29z"/>
</g>
<g>
	<path d="M148.91,159.5c0.5-0.08,1.16-0.16,2-0.16c1.03,0,1.79,0.24,2.27,0.67c0.44,0.38,0.71,0.97,0.71,1.69
		c0,0.73-0.22,1.31-0.62,1.73c-0.55,0.59-1.45,0.89-2.47,0.89c-0.31,0-0.6-0.01-0.84-0.07v3.24h-1.04V159.5z M149.96,163.4
		c0.23,0.06,0.52,0.08,0.86,0.08c1.26,0,2.03-0.61,2.03-1.73c0-1.07-0.76-1.58-1.91-1.58c-0.46,0-0.8,0.04-0.98,0.08V163.4z"/>
</g>
<g>
	<path d="M222.6,170.83c0.23,0.02,0.49,0,0.85-0.04c0.61-0.08,1.19-0.34,1.63-0.76c0.52-0.47,0.89-1.15,1.03-2.07h-0.04
		c-0.43,0.53-1.06,0.84-1.83,0.84c-1.4,0-2.3-1.06-2.3-2.39c0-1.48,1.07-2.77,2.66-2.77s2.58,1.3,2.58,3.29
		c0,1.72-0.58,2.91-1.34,3.66c-0.6,0.59-1.43,0.95-2.27,1.04c-0.38,0.06-0.72,0.07-0.97,0.06V170.83z M222.98,166.35
		c0,0.97,0.59,1.65,1.5,1.65c0.71,0,1.26-0.35,1.54-0.82c0.06-0.1,0.1-0.22,0.1-0.38c0-1.33-0.49-2.35-1.59-2.35
		C223.62,164.45,222.98,165.24,222.98,166.35z"/>
	<path d="M233.32,167.59c0,2.65-0.98,4.11-2.71,4.11c-1.52,0-2.55-1.43-2.58-4.01c0-2.61,1.13-4.05,2.71-4.05
		C232.39,163.65,233.32,165.11,233.32,167.59z M229.09,167.71c0,2.03,0.62,3.18,1.58,3.18c1.08,0,1.59-1.26,1.59-3.25
		c0-1.92-0.49-3.18-1.58-3.18C229.76,164.46,229.09,165.59,229.09,167.71z"/>
	<path d="M237.81,165.97c0,1.64-0.86,2.46-1.87,2.46c-0.97,0-1.81-0.78-1.82-2.35c0-1.56,0.85-2.43,1.88-2.43
		C237.09,163.65,237.81,164.49,237.81,165.97z M234.96,166.05c-0.02,1,0.35,1.75,1.01,1.75c0.7,0,1.01-0.74,1.01-1.77
		c0-0.95-0.28-1.74-1.01-1.74C235.31,164.28,234.96,165.06,234.96,166.05z M235.87,171.71l4.58-8.06h0.67l-4.58,8.06H235.87z
		 M242.89,169.2c0,1.64-0.86,2.46-1.86,2.46c-0.97,0-1.81-0.78-1.82-2.34c0-1.57,0.85-2.45,1.88-2.45
		C242.18,166.87,242.89,167.71,242.89,169.2z M240.03,169.27c-0.01,1,0.37,1.75,1.02,1.75c0.7,0,1.01-0.74,1.01-1.77
		c0-0.95-0.28-1.74-1.01-1.74C240.39,167.51,240.03,168.29,240.03,169.27z"/>
	<path d="M248.03,169.03l-0.84,2.54h-1.08l2.75-8.08h1.26l2.76,8.08h-1.12l-0.86-2.54H248.03z M250.68,168.22l-0.79-2.33
		c-0.18-0.53-0.3-1.01-0.42-1.48h-0.02c-0.12,0.48-0.25,0.97-0.41,1.46l-0.79,2.34H250.68z"/>
	<path d="M224.28,179.16h-0.02l-1.36,0.73l-0.2-0.8l1.7-0.91h0.9v7.8h-1.02V179.16z"/>
	<path d="M233.32,181.99c0,2.65-0.98,4.11-2.71,4.11c-1.52,0-2.55-1.43-2.58-4.01c0-2.61,1.13-4.05,2.71-4.05
		C232.39,178.05,233.32,179.51,233.32,181.99z M229.09,182.11c0,2.03,0.62,3.18,1.58,3.18c1.08,0,1.59-1.26,1.59-3.25
		c0-1.92-0.49-3.18-1.58-3.18C229.76,178.86,229.09,179.99,229.09,182.11z"/>
	<path d="M237.81,180.37c0,1.64-0.86,2.46-1.87,2.46c-0.97,0-1.81-0.78-1.82-2.35c0-1.56,0.85-2.43,1.88-2.43
		C237.09,178.05,237.81,178.89,237.81,180.37z M234.96,180.45c-0.02,1,0.35,1.75,1.01,1.75c0.7,0,1.01-0.74,1.01-1.77
		c0-0.95-0.28-1.74-1.01-1.74C235.31,178.68,234.96,179.46,234.96,180.45z M235.87,186.11l4.58-8.06h0.67l-4.58,8.06H235.87z
		 M242.89,183.6c0,1.64-0.86,2.46-1.86,2.46c-0.97,0-1.81-0.78-1.82-2.34c0-1.57,0.85-2.45,1.88-2.45
		C242.18,181.27,242.89,182.11,242.89,183.6z M240.03,183.67c-0.01,1,0.37,1.75,1.02,1.75c0.7,0,1.01-0.74,1.01-1.77
		c0-0.95-0.28-1.74-1.01-1.74C240.39,181.91,240.03,182.69,240.03,183.67z"/>
	<path d="M247.76,177.89v3.38h3.91v-3.38h1.05v8.08h-1.05v-3.79h-3.91v3.79h-1.04v-8.08H247.76z"/>
	<path d="M253.77,187.29l0.76-0.71c1-0.9,1.51-1.46,1.51-2.08c0-0.46-0.29-0.84-0.91-0.84c-0.42,0-0.78,0.22-1.01,0.37l-0.25-0.54
		c0.32-0.28,0.86-0.5,1.46-0.5c1.13,0,1.59,0.71,1.59,1.35c0,0.9-0.68,1.56-1.59,2.36l-0.37,0.34v0.02h2.05v0.66h-3.24V187.29z"/>
	<path d="M265.18,181.85c0,2.78-1.69,4.26-3.75,4.26c-2.13,0-3.63-1.65-3.63-4.1c0-2.57,1.6-4.25,3.75-4.25
		C263.75,177.76,265.18,179.45,265.18,181.85z M258.91,181.98c0,1.73,0.94,3.27,2.58,3.27c1.66,0,2.59-1.52,2.59-3.36
		c0-1.61-0.84-3.29-2.58-3.29C259.77,178.61,258.91,180.21,258.91,181.98z"/>
	<path d="M271.34,177.65c-0.88,1.18-1.51,2.73-1.51,4.91c0,2.13,0.66,3.67,1.51,4.87h-0.83c-0.76-1-1.57-2.53-1.57-4.87
		c0.01-2.36,0.82-3.9,1.57-4.91H271.34z"/>
	<path d="M272.88,180.17l0.77,2.95c0.17,0.65,0.32,1.25,0.43,1.85h0.04c0.13-0.59,0.32-1.21,0.52-1.83l0.95-2.96h0.89l0.9,2.9
		c0.22,0.7,0.38,1.31,0.52,1.9h0.04c0.1-0.59,0.25-1.2,0.44-1.88l0.83-2.91h1.04l-1.87,5.8h-0.96l-0.89-2.77
		c-0.2-0.65-0.37-1.22-0.52-1.91h-0.02c-0.14,0.7-0.32,1.29-0.53,1.92l-0.94,2.76h-0.96l-1.75-5.8H272.88z"/>
	<path d="M280.65,187.43c0.85-1.19,1.51-2.75,1.51-4.91c0-2.15-0.65-3.68-1.51-4.87h0.82c0.77,0.98,1.57,2.52,1.57,4.88
		c0,2.35-0.8,3.87-1.57,4.89H280.65z"/>
</g>
<g>
	<path d="M155.06,12.41c-0.47,0.17-1.39,0.44-2.48,0.44c-1.22,0-2.23-0.31-3.02-1.07c-0.7-0.67-1.13-1.75-1.13-3.01
		c0.01-2.41,1.67-4.17,4.38-4.17c0.94,0,1.67,0.2,2.01,0.37l-0.25,0.85c-0.43-0.19-0.97-0.35-1.79-0.35c-1.97,0-3.25,1.22-3.25,3.25
		c0,2.05,1.24,3.26,3.12,3.26c0.68,0,1.15-0.1,1.39-0.22V9.36h-1.64V8.52h2.66V12.41z"/>
</g>
<g>
	<path d="M231.23,13.51h-0.02l-1.36,0.73l-0.2-0.8l1.7-0.91h0.9v7.8h-1.02V13.51z"/>
	<path d="M240.28,16.34c0,2.65-0.98,4.11-2.71,4.11c-1.52,0-2.55-1.43-2.58-4.01c0-2.61,1.13-4.05,2.71-4.05
		C239.34,12.39,240.28,13.86,240.28,16.34z M236.05,16.46c0,2.03,0.62,3.18,1.58,3.18c1.08,0,1.59-1.26,1.59-3.25
		c0-1.92-0.49-3.18-1.58-3.18C236.72,13.21,236.05,14.34,236.05,16.46z"/>
	<path d="M246.44,16.34c0,2.65-0.98,4.11-2.71,4.11c-1.52,0-2.55-1.43-2.58-4.01c0-2.61,1.13-4.05,2.71-4.05
		C245.5,12.39,246.44,13.86,246.44,16.34z M242.2,16.46c0,2.03,0.62,3.18,1.58,3.18c1.08,0,1.59-1.26,1.59-3.25
		c0-1.92-0.49-3.18-1.58-3.18C242.87,13.21,242.2,14.34,242.2,16.46z"/>
	<path d="M250.92,14.72c0,1.64-0.86,2.46-1.87,2.46c-0.97,0-1.81-0.78-1.82-2.35c0-1.56,0.85-2.43,1.88-2.43
		C250.21,12.39,250.92,13.23,250.92,14.72z M248.07,14.79c-0.02,1,0.35,1.75,1.01,1.75c0.7,0,1.01-0.74,1.01-1.77
		c0-0.95-0.28-1.74-1.01-1.74C248.42,13.03,248.07,13.81,248.07,14.79z M248.98,20.45l4.58-8.06h0.67l-4.58,8.06H248.98z M256,17.95
		c0,1.64-0.86,2.46-1.86,2.46c-0.97,0-1.81-0.78-1.82-2.34c0-1.57,0.85-2.45,1.88-2.45C255.29,15.62,256,16.46,256,17.95z
		 M253.14,18.02c-0.01,1,0.37,1.75,1.02,1.75c0.7,0,1.01-0.74,1.01-1.77c0-0.95-0.28-1.74-1.01-1.74
		C253.5,16.26,253.14,17.04,253.14,18.02z"/>
	<path d="M260.87,12.24v3.38h3.91v-3.38h1.05v8.08h-1.05v-3.79h-3.91v3.79h-1.04v-8.08H260.87z"/>
	<path d="M266.89,21.64l0.76-0.71c1-0.9,1.51-1.46,1.51-2.08c0-0.46-0.29-0.84-0.91-0.84c-0.42,0-0.78,0.22-1.01,0.37l-0.25-0.54
		c0.32-0.28,0.86-0.5,1.46-0.5c1.13,0,1.59,0.71,1.59,1.36c0,0.9-0.68,1.56-1.59,2.36l-0.37,0.34v0.02h2.05v0.66h-3.24V21.64z"/>
	<path d="M278.29,16.2c0,2.78-1.69,4.26-3.75,4.26c-2.13,0-3.63-1.65-3.63-4.1c0-2.57,1.6-4.25,3.75-4.25
		C276.87,12.11,278.29,13.8,278.29,16.2z M272.02,16.33c0,1.73,0.94,3.27,2.58,3.27c1.66,0,2.59-1.52,2.59-3.36
		c0-1.61-0.84-3.29-2.58-3.29C272.89,12.96,272.02,14.55,272.02,16.33z"/>
	<path d="M284.45,12c-0.88,1.18-1.51,2.73-1.51,4.91c0,2.13,0.66,3.67,1.51,4.87h-0.83c-0.76-1-1.57-2.53-1.57-4.87
		c0.01-2.36,0.82-3.9,1.57-4.91H284.45z"/>
	<path d="M285.99,14.52l0.77,2.95c0.17,0.65,0.32,1.25,0.43,1.85h0.04c0.13-0.59,0.32-1.21,0.52-1.83l0.95-2.96h0.89l0.9,2.9
		c0.22,0.7,0.38,1.31,0.52,1.9h0.04c0.1-0.59,0.25-1.2,0.44-1.88l0.83-2.91h1.04l-1.87,5.8h-0.96l-0.89-2.77
		c-0.2-0.65-0.37-1.22-0.52-1.91h-0.02c-0.14,0.7-0.32,1.29-0.53,1.92l-0.94,2.76h-0.96l-1.75-5.8H285.99z"/>
	<path d="M293.77,21.77c0.85-1.19,1.51-2.75,1.51-4.91c0-2.15-0.65-3.68-1.51-4.87h0.82c0.77,0.98,1.57,2.52,1.57,4.88
		c0,2.35-0.8,3.87-1.57,4.89H293.77z"/>
</g>
</svg>
