<?xml version="1.0" encoding="UTF-8" standalone="no"?>
<!-- Created with Inkscape (http://www.inkscape.org/) -->

<svg
   version="1.1"
   id="svg1"
   width="623.04297"
   height="360.13873"
   viewBox="0 0 623.04296 360.13873"
   sodipodi:docname="Proces technologie 1 reader.pdf"
   xmlns:inkscape="http://www.inkscape.org/namespaces/inkscape"
   xmlns:sodipodi="http://sodipodi.sourceforge.net/DTD/sodipodi-0.dtd"
   xmlns="http://www.w3.org/2000/svg"
   xmlns:svg="http://www.w3.org/2000/svg">
  <defs
     id="defs1" />
  <sodipodi:namedview
     id="namedview1"
     pagecolor="#ffffff"
     bordercolor="#000000"
     borderopacity="0.25"
     inkscape:showpageshadow="2"
     inkscape:pageopacity="0.0"
     inkscape:pagecheckerboard="0"
     inkscape:deskcolor="#d1d1d1">
    <inkscape:page
       x="0"
       y="0"
       inkscape:label="2"
       id="page1"
       width="623.04297"
       height="360.13873"
       margin="0"
       bleed="0" />
  </sodipodi:namedview>
  <g
     id="g1"
     inkscape:groupmode="layer"
     inkscape:label="2"
     transform="translate(-124.92188,-143.55658)">
    <path
       id="path3"
       d="M 2.9065313,-3.7720156 H 6.4573125 L 6.6096563,-4.4985781 H 3.058875 l 0.6445313,-3.0351563 h 1.546875 c 0.140625,0 0.28125,0.011719 0.4335937,0.011719 h 2.0625 l 0.1523438,-0.75 h -5.0625 L 1.0784063,0.00142187 h 1.03125 z m 0,0"
       style="fill:#000000;fill-opacity:1;fill-rule:nonzero;stroke:none"
       aria-label="F"
       transform="matrix(1.3333333,0,0,1.3333333,123.484,294.47467)" />
    <path
       id="path4"
       d="M 101.57326,78.5515 C 93.8925,82.98598 88.57892,84.47829 79.7154,84.78778 70.85187,84.47829 65.53828,82.98598 57.85754,78.5515 v -157.103 c 7.68074,-4.43448 12.99433,-5.92679 21.85786,-6.23628 8.86352,0.30949 14.1771,1.8018 21.85786,6.23628 z"
       style="fill:#a2cffe;fill-opacity:1;fill-rule:nonzero;stroke:#000000;stroke-width:1.19553;stroke-linecap:butt;stroke-linejoin:miter;stroke-miterlimit:10;stroke-dasharray:none;stroke-opacity:1"
       transform="matrix(1.3333333,0,0,-1.3333333,128.984,288.94)" />
    <path
       id="path5"
       d="m 42.14262,-93.32266 c 0,7.82785 -6.34555,14.1734 -14.17338,14.1734 -7.82785,0 -14.1734,-6.34555 -14.1734,-14.1734 0,-7.82785 6.34555,-14.17339 14.1734,-14.17339 7.82783,0 14.17338,6.34554 14.17338,14.17339 z"
       style="fill:none;stroke:#000000;stroke-width:1.19553;stroke-linecap:butt;stroke-linejoin:miter;stroke-miterlimit:10;stroke-dasharray:none;stroke-opacity:1"
       transform="matrix(1.3333333,0,0,-1.3333333,128.984,288.94)" />
    <path
       id="path6"
       d="M 4.2202109,-0.00108594 V -0.57530469 H 2.9780234 V -6.7510859 H 2.7788047 c -0.5859375,0.609375 -1.4179688,0.6328125 -1.88671876,0.65625 v 0.5742187 c 0.32812496,-0.011719 0.80859376,-0.023437 1.30078126,-0.234375 v 5.17968751 H 0.95067969 v 0.57421875 z M 9.5288047,-1.7940547 c 0,-0.9023437 -0.6914063,-1.5234375 -1.3710938,-1.734375 0.7617188,-0.4101562 1.1132813,-1.0898437 1.1132813,-1.7109375 0,-0.8554687 -0.8320313,-1.5117187 -1.8164063,-1.5117187 -0.7734375,0 -1.5,0.3984375 -1.9101562,1.0898437 l 0.3515625,0.5390625 c 0.2929687,-0.6914062 0.9375,-1.0546875 1.546875,-1.0546875 0.515625,0 1.0078125,0.2929688 1.0078125,0.9375 0,0.609375 -0.4101563,1.1953125 -1.0195313,1.3359375 -0.058594,0.011719 -0.082031,0.011719 -0.7851562,0.070312 v 0.609375 h 0.703125 c 1.078125,0 1.3007812,0.9257813 1.3007812,1.4179688 0,0.7734375 -0.4570312,1.41796871 -1.2304687,1.41796871 -0.6796875,0 -1.4765625,-0.3515625 -1.9101563,-1.03125001 l -0.1054687,0.59765626 c 0.7265625,0.9375 1.640625,1.04296875 2.0390625,1.04296875 1.21875,0 2.0859375,-0.97265625 2.0859375,-2.01562451 z m 4.9804683,-1.453125 c 0,-0.7851562 -0.03516,-1.7109375 -0.457031,-2.5195312 -0.398437,-0.75 -1.089844,-0.984375 -1.59375,-0.984375 -0.597656,0 -1.289062,0.2695312 -1.699219,1.1484375 -0.328125,0.7265625 -0.375,1.5585937 -0.375,2.3554687 0,0.7851563 0.03516,1.5117188 0.339844,2.2382813 0.398438,0.96093746 1.148438,1.23046871 1.722656,1.23046871 0.726563,0 1.347657,-0.41015625 1.664063,-1.1015625 0.304687,-0.64453121 0.398437,-1.30078121 0.398437,-2.36718751 z m -0.773437,-0.1171875 c 0,0.65625 0,1.2773438 -0.175781,1.9101563 -0.257813,0.90234371 -0.785157,1.06640621 -1.101563,1.06640621 -0.527344,0 -0.9375,-0.375 -1.136719,-1.10156251 -0.152343,-0.5625 -0.164062,-1.1015625 -0.164062,-1.875 0,-0.6328125 0,-1.2304687 0.164062,-1.78125 0.07031,-0.1875 0.316407,-0.9960937 1.125,-0.9960937 0.773438,0 1.03125,0.75 1.101563,0.9257812 0.1875,0.5625 0.1875,1.2304688 0.1875,1.8515625 z m 7.772461,-2.1796875 c 0,-0.75 -0.621094,-1.3710937 -1.371094,-1.3710937 -0.773437,0 -1.382812,0.6210937 -1.382812,1.3710937 0,0.7734375 0.609375,1.3945313 1.382812,1.3945313 0.75,0 1.371094,-0.6210938 1.371094,-1.3945313 z m -0.398438,0 c 0,0.5507813 -0.433593,0.9960938 -0.972656,0.9960938 -0.550781,0 -0.984375,-0.4453125 -0.984375,-0.9960938 0,-0.5390625 0.433594,-0.9726562 0.984375,-0.9726562 0.539063,0 0.972656,0.4335937 0.972656,0.9726562 z m 6.735352,5.09765626 -0.05859,-0.69140626 c -0.292969,0.19921876 -0.574219,0.38671876 -0.914062,0.49218751 -0.328125,0.10546875 -0.667969,0.1171875 -1.007813,0.1171875 -0.644531,0 -1.242187,-0.3515625 -1.640625,-0.85546871 -0.46875,-0.5859375 -0.679687,-1.3242188 -0.679687,-2.0742188 0,-0.75 0.210937,-1.4882812 0.679687,-2.0859375 0.398438,-0.5039062 0.996094,-0.8554687 1.640625,-0.8554687 0.292969,0 0.609375,0.035156 0.890625,0.1171875 0.304688,0.09375 0.585938,0.2460937 0.84375,0.421875 l 0.140625,-0.8203125 c -0.304687,-0.1171875 -0.609375,-0.2109375 -0.925781,-0.2695313 -0.316406,-0.058594 -0.632813,-0.082031 -0.949219,-0.082031 -0.878906,0 -1.6875,0.3984375 -2.273437,1.0429687 -0.621094,0.703125 -0.9375,1.6054688 -0.9375,2.53125 0,0.9257813 0.316406,1.828125 0.9375,2.51953126 0.585937,0.64453125 1.394531,1.04296875 2.273437,1.04296875 0.351563,0 0.691406,0 1.03125,-0.10546875 0.339844,-0.09375 0.644531,-0.26953125 0.949219,-0.4453125 z m 0,0"
       style="fill:#000000;fill-opacity:1;fill-rule:nonzero;stroke:none"
       aria-label="130°C"
       transform="matrix(1.3333333,0,0,1.3333333,216.36133,205.45067)" />
    <path
       id="path7"
       d="m 4.6866875,-1.7004844 v -0.609375 H 3.7023125 V -6.5403281 H 2.7999688 l -2.5195313,4.2304687 v 0.609375 h 2.6367188 v 1.69921878 H 3.7023125 V -1.7004844 Z M 2.97575,-2.3098594 H 1.053875 C 1.5695,-3.1653281 2.9640313,-5.5325156 2.97575,-6.0950156 Z m 6.5537109,-0.9375 c 0,-0.7851562 -0.035156,-1.7109375 -0.4570312,-2.5195312 -0.3984375,-0.75 -1.0898438,-0.984375 -1.59375,-0.984375 -0.5976563,0 -1.2890625,0.2695312 -1.6992188,1.1484375 -0.328125,0.7265625 -0.375,1.5585937 -0.375,2.3554687 0,0.7851563 0.035156,1.5117188 0.3398438,2.2382813 0.3984375,0.96093748 1.1484375,1.23046873 1.7226562,1.23046873 0.7265625,0 1.3476563,-0.41015625 1.6640625,-1.1015625 C 9.4357109,-1.5247031 9.5294609,-2.1809531 9.5294609,-3.2473594 Z M 8.7560234,-3.3645469 c 0,0.65625 0,1.2773438 -0.1757812,1.9101563 -0.2578125,0.90234373 -0.7851563,1.06640623 -1.1015625,1.06640623 -0.5273438,0 -0.9375,-0.375 -1.1367188,-1.10156253 -0.1523437,-0.5625 -0.1640625,-1.1015625 -0.1640625,-1.875 0,-0.6328125 0,-1.2304687 0.1640625,-1.78125 0.070312,-0.1875 0.3164063,-0.9960937 1.125,-0.9960937 0.7734375,0 1.03125,0.75 1.1015625,0.9257812 0.1875,0.5625 0.1875,1.2304688 0.1875,1.8515625 z m 9.3046876,1.1367188 c 0,-1.1953125 -0.632813,-2.3085938 -1.582031,-2.3085938 -0.597657,0 -1.171875,0.2109375 -1.640625,0.5976563 v -0.4804688 h -0.738282 v 6.3515625 h 0.773438 v -2.39062497 c 0.304687,0.29296875 0.75,0.5625 1.347656,0.5625 0.960938,0 1.839844,-0.97265625 1.839844,-2.33203123 z m -0.773438,0 c 0,1.03125 -0.714843,1.72265623 -1.453125,1.72265623 -0.398437,0 -0.65625,-0.19921875 -0.855468,-0.45703125 C 14.873211,-1.1145469 14.873211,-1.1379844 14.873211,-1.3137656 v -2.0039063 c 0.234375,-0.3515625 0.632812,-0.5742187 1.054687,-0.5742187 0.761719,0 1.359375,0.75 1.359375,1.6640625 z m 4.728516,0.9492187 c 0,-0.5507812 -0.363281,-0.8789062 -0.386719,-0.9140625 -0.386718,-0.3515625 -0.65625,-0.4101562 -1.160156,-0.5039062 -0.539062,-0.1054688 -1.007812,-0.1992188 -1.007812,-0.6914063 0,-0.6210937 0.726562,-0.6210937 0.855468,-0.6210937 0.316407,0 0.84375,0.046875 1.40625,0.3867187 l 0.128907,-0.65625 c -0.527344,-0.234375 -0.925782,-0.3164062 -1.441407,-0.3164062 -0.246093,0 -1.652343,0 -1.652343,1.3007812 0,0.4921875 0.292968,0.8085938 0.539062,0.9960938 0.304688,0.2226562 0.527344,0.2695312 1.078125,0.375 0.351563,0.070312 0.9375,0.1875 0.9375,0.7148437 0,0.69140628 -0.785156,0.69140628 -0.9375,0.69140628 -0.808594,0 -1.371094,-0.375 -1.546875,-0.49218748 l -0.117187,0.67968748 c 0.316406,0.1640625 0.867187,0.43359375 1.675781,0.43359375 0.175781,0 0.726562,0 1.148437,-0.31640625 0.316407,-0.234375 0.480469,-0.6328125 0.480469,-1.06640628 z m 1.790039,1.27734378 V -4.4192344 h -0.75 v 4.41796878 z m 0.07031,-5.63671878 v -0.890625 h -0.878907 v 0.890625 z m 4.831054,5.63671878 V -2.8840781 c 0,-1.0078125 -0.726562,-1.7109375 -1.652343,-1.7109375 -0.644532,0 -1.089844,0.1640625 -1.558594,0.4335937 l 0.05859,0.65625 c 0.515625,-0.375 1.019531,-0.5039062 1.5,-0.5039062 0.46875,0 0.867187,0.3984375 0.867187,1.1367187 v 0.4335938 c -1.488281,0.011719 -2.753906,0.4335937 -2.753906,1.3125 0,0.42187498 0.269531,1.23046873 1.136719,1.23046873 0.140625,0 1.078125,-0.01171875 1.652343,-0.46875 v 0.36328125 z M 27.922039,-1.3137656 c 0,0.1875 0,0.43359373 -0.339844,0.62109373 -0.28125,0.1875 -0.65625,0.1875 -0.773437,0.1875 -0.480469,0 -0.925781,-0.22265625 -0.925781,-0.64453123 0,-0.6914063 1.617187,-0.7617188 2.039062,-0.7851563 z m 0,0"
       style="fill:#000000;fill-opacity:1;fill-rule:nonzero;stroke:none"
       aria-label="40psia"
       transform="matrix(1.3333333,0,0,1.3333333,215.65733,254.572)" />
    <path
       id="path8"
       d="M 4.2202109,0.00104688 V -0.57317187 H 2.9780234 V -6.7489531 H 2.7788047 c -0.5859375,0.609375 -1.4179688,0.6328125 -1.88671876,0.65625 v 0.5742187 c 0.32812496,-0.011719 0.80859376,-0.023437 1.30078126,-0.234375 v 5.17968753 H 0.95067969 V 0.00104688 Z M 9.6694297,-1.6981719 v -0.609375 H 8.6850547 V -6.5380156 H 7.7827109 l -2.5195312,4.2304687 v 0.609375 H 7.8998984 V 0.00104688 H 8.6850547 V -1.6981719 Z m -1.7109375,-0.609375 h -1.921875 c 0.515625,-0.8554687 1.9101562,-3.2226562 1.921875,-3.7851562 z m 6.6914058,0.609375 v -0.609375 H 13.665523 V -6.5380156 H 12.76318 l -2.519532,4.2304687 v 0.609375 h 2.636719 v 1.69921878 h 0.785156 V -1.6981719 Z m -1.710937,-0.609375 h -1.921875 c 0.515625,-0.8554687 1.910156,-3.2226562 1.921875,-3.7851562 z m 8.569336,-3.234375 c 0,-0.75 -0.621094,-1.3710937 -1.371094,-1.3710937 -0.773437,0 -1.382812,0.6210937 -1.382812,1.3710937 0,0.7734375 0.609375,1.3945313 1.382812,1.3945313 0.75,0 1.371094,-0.6210938 1.371094,-1.3945313 z m -0.398438,0 c 0,0.5507813 -0.433593,0.9960938 -0.972656,0.9960938 -0.550781,0 -0.984375,-0.4453125 -0.984375,-0.9960938 0,-0.5390625 0.433594,-0.9726562 0.984375,-0.9726562 0.539063,0 0.972656,0.4335937 0.972656,0.9726562 z m 6.735352,5.09765628 -0.05859,-0.69140628 c -0.292969,0.19921878 -0.574219,0.38671878 -0.914062,0.49218753 -0.328125,0.10546875 -0.667969,0.1171875 -1.007813,0.1171875 -0.644531,0 -1.242187,-0.3515625 -1.640625,-0.85546873 -0.46875,-0.5859375 -0.679687,-1.3242188 -0.679687,-2.0742188 0,-0.75 0.210937,-1.4882812 0.679687,-2.0859375 0.398438,-0.5039062 0.996094,-0.8554687 1.640625,-0.8554687 0.292969,0 0.609375,0.035156 0.890625,0.1171875 0.304688,0.09375 0.585938,0.2460937 0.84375,0.421875 l 0.140625,-0.8203125 c -0.304687,-0.1171875 -0.609375,-0.2109375 -0.925781,-0.2695313 -0.316406,-0.058594 -0.632813,-0.082031 -0.949219,-0.082031 -0.878906,0 -1.6875,0.3984375 -2.273437,1.0429687 -0.621094,0.703125 -0.9375,1.6054688 -0.9375,2.53125 0,0.9257813 0.316406,1.828125 0.9375,2.51953128 0.585937,0.64453125 1.394531,1.04296875 2.273437,1.04296875 0.351563,0 0.691406,0 1.03125,-0.10546875 0.339844,-0.09375 0.644531,-0.26953125 0.949219,-0.4453125 z m 0,0"
       style="fill:#000000;fill-opacity:1;fill-rule:nonzero;stroke:none"
       aria-label="144°C"
       transform="matrix(1.3333333,0,0,1.3333333,216.36133,381.66267)" />
    <path
       id="path9"
       d="m 244.91667,78.5515 c -7.68075,4.43448 -12.99434,5.92679 -21.85787,6.23628 -8.86352,-0.30949 -14.1771,-1.8018 -21.85786,-6.23628 v -157.103 c 7.68076,-4.43448 12.99434,-5.92679 21.85786,-6.23628 8.86353,0.30949 14.17712,1.8018 21.85787,6.23628 z"
       style="fill:#d0e7ff;fill-opacity:1;fill-rule:nonzero;stroke:#000000;stroke-width:1.19553;stroke-linecap:butt;stroke-linejoin:miter;stroke-miterlimit:10;stroke-dasharray:none;stroke-opacity:1"
       transform="matrix(1.3333333,0,0,-1.3333333,128.984,288.94)" />
    <path
       id="path10"
       d="m 185.48604,-93.32266 c 0,7.82785 -6.34555,14.1734 -14.1734,14.1734 -7.82785,0 -14.1734,-6.34555 -14.1734,-14.1734 0,-7.82785 6.34555,-14.17339 14.1734,-14.17339 7.82785,0 14.1734,6.34554 14.1734,14.17339 z"
       style="fill:none;stroke:#000000;stroke-width:1.19553;stroke-linecap:butt;stroke-linejoin:miter;stroke-miterlimit:10;stroke-dasharray:none;stroke-opacity:1"
       transform="matrix(1.3333333,0,0,-1.3333333,128.984,288.94)" />
    <path
       id="path11"
       d="M 2.8592734,-8.2963594 1.0897422,5.15625e-4 h 3.0703125 c 2.34375,0 4.5820312,-2.449218725 4.5820312,-5.109375025 0,-1.78125 -1.078125,-3.1875 -2.8242187,-3.1875 z m 0.8554688,0.6679688 h 1.78125 c 1.2890625,0 2.2382812,0.890625 2.2382812,2.53125 0,2.296875 -1.6171875,4.42968748 -3.703125,4.42968748 H 2.2381797 Z m 0,0"
       style="fill:#000000;fill-opacity:1;fill-rule:nonzero;stroke:none"
       aria-label="D"
       transform="matrix(1.3333333,0,0,1.3333333,341.89467,501.304)" />
    <path
       id="path12"
       d="M 2.5545078,-5.3901406 H 2.3787266 c -0.515625,0.46875 -1.171875,0.5039062 -1.64062504,0.5273437 v 0.4921875 c 0.30468754,0 0.70312504,-0.023437 1.10156254,-0.1757812 v 4.04296873 H 0.78497656 V 4.84375e-4 H 3.6209141 V -0.50342187 H 2.5545078 Z m 0,0"
       style="fill:#000000;fill-opacity:1;fill-rule:nonzero;stroke:none"
       aria-label="1"
       transform="matrix(1.3333333,0,0,1.3333333,353.12133,503.69467)" />
    <path
       id="path13"
       d="M 4.2200313,-0.00108594 V -0.57530469 H 2.9778438 V -6.7510859 H 2.778625 c -0.5859375,0.609375 -1.4179687,0.6328125 -1.88671875,0.65625 v 0.5742187 C 1.2200313,-5.5323359 1.7005,-5.5440547 2.1926875,-5.7549922 v 5.17968751 H 0.9505 v 0.57421875 z M 9.528625,-3.2471797 c 0,-0.7851562 -0.035156,-1.7109375 -0.4570312,-2.5195312 -0.3984375,-0.75 -1.0898438,-0.984375 -1.59375,-0.984375 -0.5976563,0 -1.2890625,0.2695312 -1.6992188,1.1484375 -0.328125,0.7265625 -0.375,1.5585937 -0.375,2.3554687 0,0.7851563 0.035156,1.5117188 0.3398438,2.2382813 0.3984375,0.96093746 1.1484375,1.23046871 1.7226562,1.23046871 0.7265625,0 1.3476563,-0.41015625 1.6640625,-1.1015625 C 9.434875,-1.5245234 9.528625,-2.1807734 9.528625,-3.2471797 Z M 8.7551875,-3.3643672 c 0,0.65625 0,1.2773438 -0.1757812,1.9101563 -0.2578125,0.90234371 -0.7851563,1.06640621 -1.1015625,1.06640621 -0.5273438,0 -0.9375,-0.375 -1.1367188,-1.10156251 -0.1523437,-0.5625 -0.1640625,-1.1015625 -0.1640625,-1.875 0,-0.6328125 0,-1.2304687 0.1640625,-1.78125 0.070312,-0.1875 0.3164063,-0.9960937 1.125,-0.9960937 0.7734375,0 1.03125,0.75 1.1015625,0.9257812 0.1875,0.5625 0.1875,1.2304688 0.1875,1.8515625 z m 5.7539065,0.1171875 c 0,-0.7851562 -0.03516,-1.7109375 -0.457031,-2.5195312 -0.398438,-0.75 -1.089844,-0.984375 -1.59375,-0.984375 -0.597657,0 -1.289063,0.2695312 -1.699219,1.1484375 -0.328125,0.7265625 -0.375,1.5585937 -0.375,2.3554687 0,0.7851563 0.03516,1.5117188 0.339844,2.2382813 0.398437,0.96093746 1.148437,1.23046871 1.722656,1.23046871 0.726562,0 1.347656,-0.41015625 1.664062,-1.1015625 0.304688,-0.64453121 0.398438,-1.30078121 0.398438,-2.36718751 z m -0.773438,-0.1171875 c 0,0.65625 0,1.2773438 -0.175781,1.9101563 -0.257812,0.90234371 -0.785156,1.06640621 -1.101562,1.06640621 -0.527344,0 -0.9375,-0.375 -1.136719,-1.10156251 -0.152344,-0.5625 -0.164063,-1.1015625 -0.164063,-1.875 0,-0.6328125 0,-1.2304687 0.164063,-1.78125 0.07031,-0.1875 0.316406,-0.9960937 1.125,-0.9960937 0.773437,0 1.03125,0.75 1.101562,0.9257812 0.1875,0.5625 0.1875,1.2304688 0.1875,1.8515625 z m 7.772461,-2.1796875 c 0,-0.75 -0.621094,-1.3710937 -1.371094,-1.3710937 -0.773437,0 -1.382812,0.6210937 -1.382812,1.3710937 0,0.7734375 0.609375,1.3945313 1.382812,1.3945313 0.75,0 1.371094,-0.6210938 1.371094,-1.3945313 z m -0.398437,0 c 0,0.5507813 -0.433594,0.9960938 -0.972657,0.9960938 -0.550781,0 -0.984375,-0.4453125 -0.984375,-0.9960938 0,-0.5390625 0.433594,-0.9726562 0.984375,-0.9726562 0.539063,0 0.972657,0.4335937 0.972657,0.9726562 z m 6.735351,5.09765626 -0.05859,-0.69140626 c -0.292969,0.19921876 -0.574219,0.38671876 -0.914063,0.49218751 -0.328125,0.10546875 -0.667969,0.1171875 -1.007812,0.1171875 -0.644532,0 -1.242188,-0.3515625 -1.640625,-0.85546871 -0.46875,-0.5859375 -0.679688,-1.3242188 -0.679688,-2.0742188 0,-0.75 0.210938,-1.4882812 0.679688,-2.0859375 0.398437,-0.5039062 0.996093,-0.8554687 1.640625,-0.8554687 0.292968,0 0.609375,0.035156 0.890625,0.1171875 0.304687,0.09375 0.585937,0.2460937 0.84375,0.421875 l 0.140625,-0.8203125 c -0.304688,-0.1171875 -0.609375,-0.2109375 -0.925782,-0.2695313 -0.316406,-0.058594 -0.632812,-0.082031 -0.949218,-0.082031 -0.878907,0 -1.6875,0.3984375 -2.273438,1.0429687 -0.621094,0.703125 -0.9375,1.6054688 -0.9375,2.53125 0,0.9257813 0.316406,1.828125 0.9375,2.51953126 0.585938,0.64453125 1.394531,1.04296875 2.273438,1.04296875 0.351562,0 0.691406,0 1.03125,-0.10546875 0.339843,-0.09375 0.644531,-0.26953125 0.949218,-0.4453125 z m 0,0"
       style="fill:#000000;fill-opacity:1;fill-rule:nonzero;stroke:none"
       aria-label="100°C"
       transform="matrix(1.3333333,0,0,1.3333333,407.48267,205.45067)" />
    <path
       id="path14"
       d="M 4.2178906,9.296875e-4 V -0.57328906 H 2.9757031 V -6.7490703 H 2.7764844 c -0.5859375,0.609375 -1.4179688,0.6328125 -1.88671877,0.65625 v 0.5742187 c 0.32812497,-0.011719 0.80859377,-0.023437 1.30078127,-0.234375 v 5.17968754 H 0.94835938 V 9.296875e-4 Z m 8.1591794,0 V -2.8818828 c 0,-1.0078125 -0.726562,-1.7109375 -1.652343,-1.7109375 -0.644532,0 -1.0898442,0.1640625 -1.5585942,0.4335937 l 0.058594,0.65625 c 0.515625,-0.375 1.0195312,-0.5039062 1.5000002,-0.5039062 0.46875,0 0.867187,0.3984375 0.867187,1.1367187 v 0.4335938 c -1.488281,0.011719 -2.753906,0.4335937 -2.753906,1.3125 0,0.42187499 0.2695313,1.23046874 1.1367188,1.23046874 0.1406252,0 1.0781252,-0.01171875 1.6523432,-0.46875 V 9.296875e-4 Z M 11.591914,-1.3115703 c 0,0.1875 0,0.43359374 -0.339844,0.62109374 -0.28125,0.1875 -0.65625,0.1875 -0.773437,0.1875 -0.4804689,0 -0.9257814,-0.22265625 -0.9257814,-0.64453124 0,-0.6914063 1.6171874,-0.7617188 2.0390624,-0.7851563 z m 4.804688,1.04296874 -0.152344,-0.5859375 c -0.257813,0.2109375 -0.585938,0.328125 -0.902344,0.328125 -0.363281,0 -0.503906,-0.3046875 -0.503906,-0.83203124 v -2.484375 h 1.40625 v -0.5742188 h -1.40625 v -1.265625 h -0.691406 v 1.265625 h -0.867188 v 0.5742188 h 0.84375 v 2.6601562 c 0,0.59765629 0.128906,1.28906254 0.820313,1.28906254 0.703125,0 1.207031,-0.24609375 1.453125,-0.375 z M 23.788203,9.296875e-4 V -2.9639141 c 0,-0.6679687 -0.164062,-1.5703125 -1.359375,-1.5703125 -0.597656,0 -1.125,0.28125 -1.488281,0.8203125 -0.257813,-0.7617187 -0.960938,-0.8203125 -1.277344,-0.8203125 -0.714844,0 -1.183594,0.4101563 -1.453125,0.7734375 V -4.4873516 H 17.495234 V 9.296875e-4 h 0.773438 V -2.4365703 c 0,-0.6796875 0.269531,-1.4882813 1.007812,-1.4882813 0.925782,0 0.972657,0.6445313 0.972657,1.03125 V 9.296875e-4 h 0.785156 V -2.4365703 c 0,-0.6796875 0.269531,-1.4882813 0.996094,-1.4882813 0.9375,0 0.984375,0.6445313 0.984375,1.03125 V 9.296875e-4 Z m 0,0"
       style="fill:#000000;fill-opacity:1;fill-rule:nonzero;stroke:none"
       aria-label="1atm"
       transform="matrix(1.3333333,0,0,1.3333333,409.99333,257.00267)" />
    <path
       id="path15"
       d="M 4.2200313,-2.8125e-4 V -0.5745 H 2.9778438 V -6.7502812 H 2.778625 c -0.5859375,0.609375 -1.4179687,0.6328125 -1.88671875,0.65625 v 0.5742187 C 1.2200313,-5.5315312 1.7005,-5.54325 2.1926875,-5.7541875 V -0.5745 H 0.9505 v 0.57421875 z m 4.9804687,0 V -0.5745 H 7.9583125 V -6.7502812 H 7.7590938 c -0.5859375,0.609375 -1.4179688,0.6328125 -1.8867188,0.65625 v 0.5742187 C 6.2005,-5.5315312 6.6809688,-5.54325 7.1731563,-5.7541875 V -0.5745 H 5.9309688 V -2.8125e-4 Z M 14.509094,-1.79325 c 0,-0.9023437 -0.691406,-1.5234375 -1.371094,-1.734375 0.761719,-0.4101562 1.113281,-1.0898437 1.113281,-1.7109375 0,-0.8554687 -0.832031,-1.5117187 -1.816406,-1.5117187 -0.773437,0 -1.5,0.3984375 -1.910156,1.0898437 l 0.351562,0.5390625 c 0.292969,-0.6914062 0.9375,-1.0546875 1.546875,-1.0546875 0.515625,0 1.007813,0.2929688 1.007813,0.9375 0,0.609375 -0.410156,1.1953125 -1.019531,1.3359375 -0.05859,0.011719 -0.08203,0.011719 -0.785157,0.070312 v 0.609375 h 0.703125 c 1.078125,0 1.300782,0.9257813 1.300782,1.4179688 0,0.7734375 -0.457032,1.4179687 -1.230469,1.4179687 -0.679688,0 -1.476563,-0.3515625 -1.910156,-1.03125 l -0.105469,0.59765625 c 0.726562,0.9375 1.640625,1.04296875 2.039062,1.04296875 1.21875,0 2.085938,-0.97265625 2.085938,-2.0156245 z m 6.999023,-3.75 c 0,-0.75 -0.621094,-1.3710937 -1.371094,-1.3710937 -0.773437,0 -1.382812,0.6210937 -1.382812,1.3710937 0,0.7734375 0.609375,1.3945313 1.382812,1.3945313 0.75,0 1.371094,-0.6210938 1.371094,-1.3945313 z m -0.398437,0 c 0,0.5507813 -0.433594,0.9960938 -0.972657,0.9960938 -0.550781,0 -0.984375,-0.4453125 -0.984375,-0.9960938 0,-0.5390625 0.433594,-0.9726562 0.984375,-0.9726562 0.539063,0 0.972657,0.4335937 0.972657,0.9726562 z M 27.845031,-0.44559375 27.786438,-1.137 c -0.292969,0.19921875 -0.574219,0.38671875 -0.914063,0.4921875 -0.328125,0.10546875 -0.667969,0.1171875 -1.007812,0.1171875 -0.644532,0 -1.242188,-0.3515625 -1.640625,-0.8554687 -0.46875,-0.5859375 -0.679688,-1.3242188 -0.679688,-2.0742188 0,-0.75 0.210938,-1.4882812 0.679688,-2.0859375 0.398437,-0.5039062 0.996093,-0.8554687 1.640625,-0.8554687 0.292968,0 0.609375,0.035156 0.890625,0.1171875 0.304687,0.09375 0.585937,0.2460937 0.84375,0.421875 l 0.140625,-0.8203125 C 27.434875,-6.7971562 27.130188,-6.8909062 26.813781,-6.9495 c -0.316406,-0.058594 -0.632812,-0.082031 -0.949218,-0.082031 -0.878907,0 -1.6875,0.3984375 -2.273438,1.0429687 -0.621094,0.703125 -0.9375,1.6054688 -0.9375,2.53125 0,0.9257813 0.316406,1.828125 0.9375,2.51953125 0.585938,0.64453125 1.394531,1.04296875 2.273438,1.04296875 0.351562,0 0.691406,0 1.03125,-0.10546875 0.339843,-0.09375 0.644531,-0.26953125 0.949218,-0.4453127 z m 0,0"
       style="fill:#000000;fill-opacity:1;fill-rule:nonzero;stroke:none"
       aria-label="113°C"
       transform="matrix(1.3333333,0,0,1.3333333,407.48267,381.516)" />
    <path
       id="path16"
       d="m 388.26007,78.5515 c -7.68075,4.43448 -12.99434,5.92679 -21.85787,6.23628 -8.86352,-0.30949 -14.1771,-1.8018 -21.85784,-6.23628 v -157.103 c 7.68074,-4.43448 12.99432,-5.92679 21.85784,-6.23628 8.86353,0.30949 14.17712,1.8018 21.85787,6.23628 z"
       style="fill:#ecf5ff;fill-opacity:1;fill-rule:nonzero;stroke:#000000;stroke-width:1.19553;stroke-linecap:butt;stroke-linejoin:miter;stroke-miterlimit:10;stroke-dasharray:none;stroke-opacity:1"
       transform="matrix(1.3333333,0,0,-1.3333333,128.984,288.94)" />
    <path
       id="path17"
       d="m 328.82944,-93.32266 c 0,7.82785 -6.34555,14.1734 -14.17339,14.1734 -7.82785,0 -14.1734,-6.34555 -14.1734,-14.1734 0,-7.82785 6.34555,-14.17339 14.1734,-14.17339 7.82784,0 14.17339,6.34554 14.17339,14.17339 z"
       style="fill:none;stroke:#000000;stroke-width:1.19553;stroke-linecap:butt;stroke-linejoin:miter;stroke-miterlimit:10;stroke-dasharray:none;stroke-opacity:1"
       transform="matrix(1.3333333,0,0,-1.3333333,128.984,288.94)" />
    <path
       id="path18"
       d="M 2.8830547,-8.2958672 1.1135234,0.00100781 h 3.0820313 c 1.875,0 3.4335937,-1.32421871 3.4335937,-2.57812501 0,-0.8554687 -0.7382812,-1.5703125 -1.8632812,-1.7578125 1.1601562,-0.28125 2.3671875,-1.078125 2.3671875,-2.1796875 0,-1.0195312 -1.0429688,-1.78125 -2.4960938,-1.78125 z m 0.1875,3.6210938 0.6328125,-2.953125 h 1.4648437 c 1.1601563,0 2.0273438,0.515625 2.0273438,1.2421875 0,0.8320312 -1.1835938,1.7109375 -2.6367188,1.7109375 z m -0.84375,4.00781246 0.6914062,-3.29296876 h 1.6054688 c 1.3242187,0 2.1445312,0.65625 2.1445312,1.4648438 0,0.9609375 -1.2539062,1.82812496 -2.6601562,1.82812496 z m 0,0"
       style="fill:#000000;fill-opacity:1;fill-rule:nonzero;stroke:none"
       aria-label="B"
       transform="matrix(1.3333333,0,0,1.3333333,681.09733,478.776)" />
    <path
       id="path19"
       d="M 0.79764844,-4.0888672 C 1.1257734,-4.7216797 1.6999922,-4.8974609 2.0749922,-4.8974609 c 0.4804687,0 0.8320312,0.2695312 0.8320312,0.7265625 0,0.421875 -0.2929687,0.9375 -0.9023437,1.0429687 -0.035156,0 -0.070312,0 -0.5976563,0.046875 v 0.5273438 h 0.6210938 c 0.7617187,0 1.0429687,0.5976562 1.0429687,1.1015625 0,0.62109371 -0.3867187,1.08984371 -1.0078125,1.08984371 -0.5625,0 -1.20703121,-0.26953125 -1.60546871,-0.77343751 l -0.10546875,0.51562501 c 0.45703125,0.515625 1.10156246,0.78515625 1.72265626,0.78515625 1.0546875,0 1.7929687,-0.7734375 1.7929687,-1.61718746 0,-0.65625 -0.515625,-1.171875 -1.1484375,-1.359375 0.609375,-0.3164063 0.9140625,-0.84375 0.9140625,-1.359375 0,-0.6796875 -0.6914062,-1.21875 -1.546875,-1.21875 -0.703125,0 -1.27734371,0.3632812 -1.61718746,0.84375 z m 0,0"
       style="fill:#000000;fill-opacity:1;fill-rule:nonzero;stroke:none"
       aria-label="3"
       transform="matrix(1.3333333,0,0,1.3333333,691.456,481.16667)" />
    <path
       id="path20"
       d="M 2.8580938,-8.2963594 1.0885625,5.15625e-4 H 4.158875 c 2.34375,0 4.5820313,-2.449218725 4.5820313,-5.109375025 0,-1.78125 -1.078125,-3.1875 -2.8242188,-3.1875 z m 0.8554687,0.6679688 h 1.78125 c 1.2890625,0 2.2382813,0.890625 2.2382813,2.53125 0,2.296875 -1.6171875,4.42968748 -3.703125,4.42968748 H 2.237 Z m 0,0"
       style="fill:#000000;fill-opacity:1;fill-rule:nonzero;stroke:none"
       aria-label="D"
       transform="matrix(1.3333333,0,0,1.3333333,533.01733,501.304)" />
    <path
       id="path21"
       d="m 2.2496406,-0.60889062 c -0.09375,0 -0.1875,0 -0.28125,0 H 1.0543281 L 2.2965156,-1.6987344 c 0.140625,-0.1289062 0.5273438,-0.421875 0.6796875,-0.5507812 0.3515625,-0.3164063 0.8203125,-0.7265625 0.8203125,-1.4179688 0,-0.9023437 -0.6679687,-1.7226562 -1.8046875,-1.7226562 -0.84375,0 -1.37109373,0.4453125 -1.64062498,1.265625 l 0.375,0.46875 c 0.1875,-0.6679688 0.45703128,-1.1835938 1.14843748,-1.1835938 0.6796875,0 1.1835938,0.46875 1.1835938,1.1835938 0,0.65625 -0.3867188,1.03125 -0.8671875,1.4882812 -0.1640625,0.1640625 -0.5859375,0.515625 -0.7617188,0.6796875 -0.2226562,0.2109375 -0.77343748,0.73828128 -1.00781248,0.93750003 V 4.84375e-4 H 3.7965156 V -0.60889062 Z m 0,0"
       style="fill:#000000;fill-opacity:1;fill-rule:nonzero;stroke:none"
       aria-label="2"
       transform="matrix(1.3333333,0,0,1.3333333,544.24267,503.69467)" />
    <path
       id="path22"
       d="m 4.5472109,-5.8838984 v -0.65625 H 0.42221094 v 0.7148437 H 2.3089297 c 0.1171875,0 0.2460937,-0.011719 0.3632812,-0.011719 h 1.2070313 c -1.4765625,1.6171875 -2.3671875,3.609375 -2.3671875,5.94140621 h 0.84375 c 0,-2.98828121 1.4179687,-5.12109371 2.1914062,-5.98828091 z m 4.9804688,4.0898437 c 0,-0.9023437 -0.6914063,-1.5234375 -1.3710938,-1.734375 0.7617188,-0.4101562 1.1132813,-1.0898437 1.1132813,-1.7109375 0,-0.8554687 -0.8320313,-1.5117187 -1.8164063,-1.5117187 -0.7734375,0 -1.5,0.3984375 -1.9101562,1.0898437 l 0.3515625,0.5390625 c 0.2929687,-0.6914062 0.9375,-1.0546875 1.546875,-1.0546875 0.515625,0 1.0078125,0.2929688 1.0078125,0.9375 0,0.609375 -0.4101563,1.1953125 -1.0195313,1.3359375 -0.058594,0.011719 -0.082031,0.011719 -0.7851562,0.070312 v 0.609375 h 0.703125 c 1.078125,0 1.3007812,0.9257813 1.3007812,1.4179688 0,0.7734375 -0.4570312,1.41796871 -1.2304687,1.41796871 -0.6796875,0 -1.4765625,-0.3515625 -1.9101563,-1.03125001 l -0.1054687,0.59765626 c 0.7265625,0.9375 1.640625,1.04296875 2.0390625,1.04296875 1.21875,0 2.0859375,-0.97265625 2.0859375,-2.01562451 z m 6.9990233,-3.75 c 0,-0.75 -0.621094,-1.3710937 -1.371094,-1.3710937 -0.773437,0 -1.382812,0.6210937 -1.382812,1.3710937 0,0.7734375 0.609375,1.3945313 1.382812,1.3945313 0.75,0 1.371094,-0.6210938 1.371094,-1.3945313 z m -0.398437,0 c 0,0.5507813 -0.433594,0.9960938 -0.972657,0.9960938 -0.550781,0 -0.984375,-0.4453125 -0.984375,-0.9960938 0,-0.5390625 0.433594,-0.9726562 0.984375,-0.9726562 0.539063,0 0.972657,0.4335937 0.972657,0.9726562 z m 6.735351,5.09765626 -0.05859,-0.69140626 c -0.292968,0.19921876 -0.574218,0.38671876 -0.914062,0.49218751 -0.328125,0.10546875 -0.667969,0.1171875 -1.007813,0.1171875 -0.644531,0 -1.242187,-0.3515625 -1.640625,-0.85546871 -0.46875,-0.5859375 -0.679687,-1.3242188 -0.679687,-2.0742188 0,-0.75 0.210937,-1.4882812 0.679687,-2.0859375 0.398438,-0.5039062 0.996094,-0.8554687 1.640625,-0.8554687 0.292969,0 0.609375,0.035156 0.890625,0.1171875 0.304688,0.09375 0.585938,0.2460937 0.84375,0.421875 l 0.140625,-0.8203125 c -0.304687,-0.1171875 -0.609375,-0.2109375 -0.925781,-0.2695313 -0.316406,-0.058594 -0.632812,-0.082031 -0.949219,-0.082031 -0.878906,0 -1.6875,0.3984375 -2.273437,1.0429687 -0.621094,0.703125 -0.9375,1.6054688 -0.9375,2.53125 0,0.9257813 0.316406,1.828125 0.9375,2.51953126 0.585937,0.64453125 1.394531,1.04296875 2.273437,1.04296875 0.351563,0 0.691407,0 1.03125,-0.10546875 0.339844,-0.09375 0.644532,-0.26953125 0.949219,-0.4453125 z m 0,0"
       style="fill:#000000;fill-opacity:1;fill-rule:nonzero;stroke:none"
       aria-label="73°C"
       transform="matrix(1.3333333,0,0,1.3333333,601.92533,205.45067)" />
    <path
       id="path23"
       d="M 4.4772891,-7.5e-4 V -0.703875 H 2.6608828 c -0.1171875,0 -0.234375,0 -0.3632812,0 h -1.078125 c 0.3164062,-0.26953125 1.078125,-1.0195312 1.3828125,-1.3125 0.1875,-0.1757812 0.6914062,-0.5976562 0.890625,-0.7734375 0.4453125,-0.4453125 0.984375,-0.9726562 0.984375,-1.828125 0,-1.1367187 -0.8085938,-2.1328125 -2.1210938,-2.1328125 -1.1367187,0 -1.69921874,0.7734375 -1.93359374,1.6289063 0.1171875,0.1757812 0.1640625,0.234375 0.1875,0.2578125 0.0234375,0.023437 0.1171875,0.1523437 0.22265625,0.2929687 0.19921879,-0.7734375 0.46874999,-1.546875 1.38281249,-1.546875 0.9375,0 1.4414063,0.75 1.4414063,1.5234375 0,0.84375 -0.5625,1.4179688 -1.1601563,2.015625 L 1.7351016,-1.87575 0.50463281,-0.6335625 V -7.5e-4 Z m 4.9804687,-2.0273437 c 0,-1.2421875 -0.8554687,-2.2265625 -1.8867187,-2.2265625 -0.3984375,0 -0.7734375,0.1523437 -1.0664063,0.4101562 v -2.0507812 h 2.625 V -6.5398125 H 5.7897891 v 3.6796875 h 0.65625 c 0.1640625,-0.3984375 0.5390625,-0.7851562 1.1132812,-0.7851562 0.46875,0 1.0078125,0.4101562 1.0078125,1.6054687 0,1.65234375 -1.21875,1.65234375 -1.3007812,1.65234375 -0.6679688,0 -1.2773438,-0.38671875 -1.5703125,-0.92578125 l -0.328125,0.55078125 c 0.4101562,0.57421875 1.1015625,0.984375 1.9101562,0.984375 1.1835938,0 2.1796875,-0.984375 2.1796875,-2.24999995 z m 5.0507812,-1.21875 c 0,-0.7851563 -0.03516,-1.7109375 -0.457031,-2.5195313 -0.398438,-0.75 -1.089844,-0.984375 -1.59375,-0.984375 -0.597656,0 -1.289063,0.2695313 -1.699219,1.1484375 -0.328125,0.7265625 -0.375,1.5585938 -0.375,2.3554688 0,0.7851562 0.03516,1.5117187 0.339844,2.2382812 0.398437,0.9609375 1.148437,1.23046875 1.722656,1.23046875 0.726563,0 1.347656,-0.41015625 1.664063,-1.1015625 0.304687,-0.64453125 0.398437,-1.30078125 0.398437,-2.36718745 z m -0.773437,-0.1171875 c 0,0.65625 0,1.2773437 -0.175782,1.9101562 -0.257812,0.90234375 -0.785156,1.06640625 -1.101562,1.06640625 -0.527344,0 -0.9375,-0.375 -1.136719,-1.10156245 -0.152344,-0.5625 -0.164062,-1.1015625 -0.164062,-1.875 0,-0.6328125 0,-1.2304688 0.164062,-1.78125 0.07031,-0.1875 0.316406,-0.9960938 1.125,-0.9960938 0.773438,0 1.03125,0.75 1.101563,0.9257813 0.1875,0.5625 0.1875,1.2304687 0.1875,1.8515625 z M 25.363031,-7.5e-4 v -2.9648437 c 0,-0.6679688 -0.164062,-1.5703125 -1.359375,-1.5703125 -0.597656,0 -1.125,0.28125 -1.488281,0.8203125 -0.257812,-0.7617188 -0.960937,-0.8203125 -1.277344,-0.8203125 -0.714843,0 -1.183593,0.4101562 -1.453125,0.7734375 V -4.4890312 H 19.070063 V -7.5e-4 H 19.8435 v -2.4375 c 0,-0.6796875 0.269531,-1.4882812 1.007813,-1.4882812 0.925781,0 0.972656,0.6445312 0.972656,1.03125 V -7.5e-4 h 0.785156 v -2.4375 c 0,-0.6796875 0.269531,-1.4882812 0.996094,-1.4882812 0.9375,0 0.984375,0.6445312 0.984375,1.03125 V -7.5e-4 Z m 7.910157,0 v -2.9648437 c 0,-0.6679688 -0.164063,-1.5703125 -1.359375,-1.5703125 -0.597657,0 -1.125,0.28125 -1.488282,0.8203125 -0.257812,-0.7617188 -0.960937,-0.8203125 -1.277343,-0.8203125 -0.714844,0 -1.183594,0.4101562 -1.453125,0.7734375 V -4.4890312 H 26.980219 V -7.5e-4 h 0.773437 v -2.4375 c 0,-0.6796875 0.269532,-1.4882812 1.007813,-1.4882812 0.925781,0 0.972656,0.6445312 0.972656,1.03125 V -7.5e-4 h 0.785156 v -2.4375 c 0,-0.6796875 0.269532,-1.4882812 0.996094,-1.4882812 0.9375,0 0.984375,0.6445312 0.984375,1.03125 V -7.5e-4 Z m 0,0"
       style="fill:#000000;fill-opacity:1;fill-rule:nonzero;stroke:none"
       aria-label="250mm"
       transform="matrix(1.3333333,0,0,1.3333333,594.792,246.376)" />
    <path
       id="path24"
       d="M 6.1066094,0.00119531 V -6.9128672 h -0.890625 v 3.0234375 H 1.8292656 V -6.9128672 H 0.93864063 V 0.00119531 H 1.8292656 V -3.2917734 H 5.2159844 V 0.00119531 Z M 11.881023,-3.9011484 11.775555,-4.5339609 c -0.703125,0 -1.277344,0.1875 -1.570313,0.3164062 -0.2109373,-0.1640625 -0.5507811,-0.3164062 -0.9492186,-0.3164062 -0.8554687,0 -1.5820312,0.7148437 -1.5820312,1.6289062 0,0.3632813 0.1289062,0.7265625 0.328125,0.984375 -0.2929688,0.4101563 -0.2929688,0.796875 -0.2929688,0.84375 0,0.25781251 0.09375,0.55078126 0.2578125,0.76171876 -0.515625,0.3046875 -0.6328125,0.76171875 -0.6328125,1.01953125 0,0.74999999 0.984375,1.34765629 2.203125,1.34765629 1.2187496,0 2.2031246,-0.5859375 2.2031246,-1.34765629 0,-1.39453125 -1.664062,-1.39453125 -2.0507808,-1.39453125 H 8.8107109 c -0.1289062,0 -0.5742187,0 -0.5742187,-0.52734376 0,-0.1054687 0.046875,-0.2695312 0.1171875,-0.3515625 0.1992187,0.140625 0.5273437,0.28125 0.9023437,0.28125 0.8906246,0 1.5937496,-0.7382812 1.5937496,-1.6171875 0,-0.4804687 -0.222656,-0.84375 -0.328125,-0.9960937 l 0.03516,0.011719 c 0.222656,0 0.503906,-0.046875 0.738281,-0.046875 0.175781,0 0.585937,0.035156 0.585937,0.035156 z m -1.734375,0.9960937 c 0,0.7734375 -0.4687496,1.0546875 -0.8906246,1.0546875 -0.375,0 -0.890625,-0.234375 -0.890625,-1.0546875 0,-0.8320312 0.515625,-1.0546875 0.890625,-1.0546875 0.421875,0 0.8906246,0.2695313 0.8906246,1.0546875 z m 0.902344,3.62109376 c 0,0.44531254 -0.691406,0.77343754 -1.4999998,0.77343754 -0.8085938,0 -1.5234375,-0.3164063 -1.5234375,-0.78515629 0,-0.0234375 0,-0.66796875 0.7851562,-0.66796875 h 0.890625 c 0.2226563,0 1.3476561,0 1.3476561,0.6796875 z m 0,0"
       style="fill:#000000;fill-opacity:1;fill-rule:nonzero;stroke:none"
       aria-label="Hg"
       transform="matrix(1.3333333,0,0,1.3333333,609.49067,257.932)" />
    <path
       id="path25"
       d="m 4.5472109,-1.79325 c 0,-0.9023437 -0.6914062,-1.5117187 -1.359375,-1.7460937 0.890625,-0.28125 1.2304688,-0.9492188 1.2304688,-1.4765625 0,-0.9257813 -0.8554688,-1.734375 -1.921875,-1.734375 -1.125,0 -1.93359376,0.8203125 -1.93359376,1.734375 0,0.5273437 0.33984375,1.1953125 1.21874996,1.4765625 -0.7148437,0.2460937 -1.35937496,0.8789062 -1.35937496,1.7460937 0,1.08984375 0.91406246,2.015625 2.06249996,2.015625 1.1835938,0 2.0625,-0.9609375 2.0625,-2.015625 z M 3.7151797,-5.0159062 c 0,0.7265625 -0.5039063,1.1835937 -1.21875,1.1835937 -0.7734375,0 -1.2421875,-0.4921875 -1.2421875,-1.1835937 0,-0.6796875 0.4921875,-1.1601563 1.2304687,-1.1601563 0.7851563,0 1.2304688,0.515625 1.2304688,1.1601563 z m 0.035156,3.2109375 c 0,0.9726562 -0.6210937,1.4179687 -1.2539062,1.4179687 -0.6914063,0 -1.265625,-0.48046875 -1.265625,-1.4179687 0,-1.0429688 0.7148437,-1.4179688 1.2539062,-1.4179688 0.5742188,0 1.265625,0.3984375 1.265625,1.4179688 z M 9.4573672,-2.027625 c 0,-1.2421875 -0.8554688,-2.2265625 -1.8867188,-2.2265625 -0.3984375,0 -0.7734375,0.1523438 -1.0664062,0.4101563 v -2.0507813 h 2.625 V -6.5393437 H 5.7893984 v 3.6796875 h 0.65625 c 0.1640625,-0.3984375 0.5390625,-0.7851563 1.1132813,-0.7851563 0.46875,0 1.0078125,0.4101563 1.0078125,1.6054688 0,1.6523437 -1.21875,1.6523437 -1.3007813,1.6523437 -0.6679687,0 -1.2773437,-0.38671875 -1.5703125,-0.9257812 L 5.3675234,-0.762 c 0.4101563,0.57421875 1.1015625,0.984375 1.9101563,0.984375 1.1835937,0 2.1796875,-0.984375 2.1796875,-2.25 z M 16.526703,-5.54325 c 0,-0.75 -0.621094,-1.3710937 -1.371094,-1.3710937 -0.773437,0 -1.382812,0.6210937 -1.382812,1.3710937 0,0.7734375 0.609375,1.3945313 1.382812,1.3945313 0.75,0 1.371094,-0.6210938 1.371094,-1.3945313 z m -0.398437,0 c 0,0.5507813 -0.433594,0.9960938 -0.972657,0.9960938 -0.550781,0 -0.984375,-0.4453125 -0.984375,-0.9960938 0,-0.5390625 0.433594,-0.9726562 0.984375,-0.9726562 0.539063,0 0.972657,0.4335937 0.972657,0.9726562 z M 22.863617,-0.44559375 22.805023,-1.137 c -0.292968,0.19921875 -0.574218,0.38671875 -0.914062,0.4921875 -0.328125,0.10546875 -0.667969,0.1171875 -1.007813,0.1171875 -0.644531,0 -1.242187,-0.3515625 -1.640625,-0.8554687 -0.46875,-0.5859375 -0.679687,-1.3242188 -0.679687,-2.0742188 0,-0.75 0.210937,-1.4882812 0.679687,-2.0859375 0.398438,-0.5039062 0.996094,-0.8554687 1.640625,-0.8554687 0.292969,0 0.609375,0.035156 0.890625,0.1171875 0.304688,0.09375 0.585938,0.2460937 0.84375,0.421875 l 0.140625,-0.8203125 C 22.453461,-6.7971562 22.148773,-6.8909062 21.832367,-6.9495 c -0.316406,-0.058594 -0.632812,-0.082031 -0.949219,-0.082031 -0.878906,0 -1.6875,0.3984375 -2.273437,1.0429687 -0.621094,0.703125 -0.9375,1.6054688 -0.9375,2.53125 0,0.9257813 0.316406,1.828125 0.9375,2.51953125 0.585937,0.64453125 1.394531,1.04296875 2.273437,1.04296875 0.351563,0 0.691407,0 1.03125,-0.10546875 0.339844,-0.09375 0.644532,-0.26953125 0.949219,-0.4453127 z m 0,0"
       style="fill:#000000;fill-opacity:1;fill-rule:nonzero;stroke:none"
       aria-label="85°C"
       transform="matrix(1.3333333,0,0,1.3333333,601.92533,381.516)" />
    <path
       id="path26"
       d="m 428.77843,84.79791 c 0,5.8709 -4.75917,10.63005 -10.63005,10.63005 -5.87088,0 -10.63005,-4.75915 -10.63005,-10.63005 0,-5.87088 4.75917,-10.63003 10.63005,-10.63003 5.87088,0 10.63005,4.75915 10.63005,10.63003 z"
       style="fill:none;stroke:#000000;stroke-width:1.19553;stroke-linecap:butt;stroke-linejoin:miter;stroke-miterlimit:10;stroke-dasharray:none;stroke-opacity:1"
       transform="matrix(1.3333333,0,0,-1.3333333,128.984,288.94)" />
    <path
       id="path27"
       d="M 2.8588984,-8.2959141 1.0893672,9.609375e-4 h 3.0703125 c 2.34375,0 4.5820312,-2.4492187375 4.5820312,-5.1093750375 0,-1.78125 -1.078125,-3.1875 -2.8242187,-3.1875 z m 0.8554688,0.6679688 h 1.78125 c 1.2890625,0 2.2382812,0.890625 2.2382812,2.53125 0,2.296875 -1.6171875,4.42968749 -3.703125,4.42968749 H 2.2378047 Z m 0,0"
       style="fill:#000000;fill-opacity:1;fill-rule:nonzero;stroke:none"
       aria-label="D"
       transform="matrix(1.3333333,0,0,1.3333333,731.58267,215.112)" />
    <path
       id="path28"
       d="M 0.79632031,-4.0899141 C 1.1244453,-4.7227266 1.6986641,-4.8985078 2.0736641,-4.8985078 c 0.4804687,0 0.8320312,0.2695312 0.8320312,0.7265625 0,0.421875 -0.2929687,0.9375 -0.9023437,1.0429687 -0.035156,0 -0.070312,0 -0.5976563,0.046875 v 0.5273438 h 0.6210938 c 0.7617187,0 1.0429687,0.5976562 1.0429687,1.1015625 0,0.62109374 -0.3867187,1.08984374 -1.0078125,1.08984374 -0.5625,0 -1.20703124,-0.26953125 -1.60546874,-0.77343754 l -0.10546875,0.51562504 c 0.45703125,0.515625 1.10156249,0.78515625 1.72265629,0.78515625 1.0546875,0 1.7929687,-0.7734375 1.7929687,-1.61718749 0,-0.65625 -0.515625,-1.171875 -1.1484375,-1.359375 0.609375,-0.3164063 0.9140625,-0.84375 0.9140625,-1.359375 0,-0.6796875 -0.6914062,-1.21875 -1.546875,-1.21875 -0.703125,0 -1.27734374,0.3632812 -1.61718749,0.84375 z m 0,0"
       style="fill:#000000;fill-opacity:1;fill-rule:nonzero;stroke:none"
       aria-label="3"
       transform="matrix(1.3333333,0,0,1.3333333,742.80933,217.504)" />
    <path
       id="path29"
       d="M 8.0437,0 H 50.0866"
       style="fill:none;stroke:#000000;stroke-width:1.19553;stroke-linecap:butt;stroke-linejoin:miter;stroke-miterlimit:10;stroke-dasharray:none;stroke-opacity:1"
       transform="matrix(1.3333333,0,0,-1.3333333,128.984,288.94)" />
    <path
       id="path30"
       d="M 5.30629,0 C 4.65466,0.16344 1.79025,1.08963 0,2.09753 V -2.09753 C 1.79025,-1.08963 4.65466,-0.16344 5.30629,0 Z"
       style="fill:#000000;fill-opacity:1;fill-rule:nonzero;stroke:#000000;stroke-width:1.19553;stroke-linecap:butt;stroke-linejoin:miter;stroke-miterlimit:10;stroke-dasharray:none;stroke-opacity:1"
       transform="matrix(1.3333333,0,0,-1.3333333,195.76613,288.94)" />
    <path
       id="path31"
       d="m 79.7154,-84.78778 v -41.45145 H 27.96924 v 18.14542"
       style="fill:none;stroke:#000000;stroke-width:1.19553;stroke-linecap:butt;stroke-linejoin:miter;stroke-miterlimit:10;stroke-dasharray:none;stroke-opacity:1"
       transform="matrix(1.3333333,0,0,-1.3333333,128.984,288.94)" />
    <path
       id="path32"
       d="m 27.96924,-108.09381 v 7.08668 l -2.83467,1.77167 5.66933,3.54335 -5.66933,3.54334 5.66933,3.54333 -2.83466,1.77167 v 0 8.28227"
       style="fill:none;stroke:#000000;stroke-width:1.19553;stroke-linecap:butt;stroke-linejoin:round;stroke-miterlimit:10;stroke-dasharray:none;stroke-opacity:1"
       transform="matrix(1.3333333,0,0,-1.3333333,128.984,288.94)" />
    <path
       id="path33"
       d="m 27.96924,-78.5515 v 19.92554 H 50.0866"
       style="fill:none;stroke:#000000;stroke-width:1.19553;stroke-linecap:butt;stroke-linejoin:miter;stroke-miterlimit:10;stroke-dasharray:none;stroke-opacity:1"
       transform="matrix(1.3333333,0,0,-1.3333333,128.984,288.94)" />
    <path
       id="path34"
       d="M 5.30629,0 C 4.65466,0.16344 1.79025,1.08963 0,2.09753 V -2.09753 C 1.79025,-1.08963 4.65466,-0.16344 5.30629,0 Z"
       style="fill:#000000;fill-opacity:1;fill-rule:nonzero;stroke:#000000;stroke-width:1.19553;stroke-linecap:butt;stroke-linejoin:miter;stroke-miterlimit:10;stroke-dasharray:none;stroke-opacity:1"
       transform="matrix(1.3333333,0,0,-1.3333333,195.76613,367.10795)" />
    <path
       id="path35"
       d="m 79.7154,-84.78778 v -41.45145 -12.81804 h 49.62005 V 0 h 14.94415 m 7.83664,0 H 193.43"
       style="fill:none;stroke:#000000;stroke-width:1.19553;stroke-linecap:butt;stroke-linejoin:miter;stroke-miterlimit:10;stroke-dasharray:none;stroke-opacity:1"
       transform="matrix(1.3333333,0,0,-1.3333333,128.984,288.94)" />
    <path
       id="path36"
       d="M 5.30629,0 C 4.65466,0.16344 1.79025,1.08963 0,2.09753 V -2.09753 C 1.79025,-1.08963 4.65466,-0.16344 5.30629,0 Z"
       style="fill:#000000;fill-opacity:1;fill-rule:nonzero;stroke:#000000;stroke-width:1.19553;stroke-linecap:butt;stroke-linejoin:miter;stroke-miterlimit:10;stroke-dasharray:none;stroke-opacity:1"
       transform="matrix(1.3333333,0,0,-1.3333333,386.89067,288.94)" />
    <path
       id="path37"
       d="M 2.8835313,-8.2974062 1.114,-5.3125e-4 h 3.0820313 c 1.875,0 3.4335937,-1.32421875 3.4335937,-2.57812495 0,-0.8554688 -0.7382812,-1.5703125 -1.8632812,-1.7578125 1.1601562,-0.28125 2.3671875,-1.078125 2.3671875,-2.1796875 0,-1.0195313 -1.0429688,-1.78125 -2.4960938,-1.78125 z m 0.1875,3.6210937 0.6328125,-2.953125 h 1.4648437 c 1.1601563,0 2.0273438,0.515625 2.0273438,1.2421875 0,0.8320313 -1.1835938,1.7109375 -2.6367188,1.7109375 z M 2.2272813,-0.6685 2.9186875,-3.9614687 h 1.6054688 c 1.3242187,0 2.1445312,0.65625 2.1445312,1.4648437 0,0.9609375 -1.2539062,1.828125 -2.6601562,1.828125 z m 0,0"
       style="fill:#000000;fill-opacity:1;fill-rule:nonzero;stroke:none"
       aria-label="B"
       transform="matrix(1.3333333,0,0,1.3333333,260.01467,490.64133)" />
    <path
       id="path38"
       d="M 2.5549375,-5.3911875 H 2.3791562 c -0.515625,0.46875 -1.171875,0.5039062 -1.64062495,0.5273437 v 0.4921875 c 0.30468745,0 0.70312495,-0.023437 1.10156245,-0.1757812 v 4.04296875 H 0.78540625 V -5.625e-4 H 3.6213437 V -0.50446875 H 2.5549375 Z m 0,0"
       style="fill:#000000;fill-opacity:1;fill-rule:nonzero;stroke:none"
       aria-label="1"
       transform="matrix(1.3333333,0,0,1.3333333,270.37467,493.032)" />
    <path
       id="path39"
       d="m 79.7154,84.78778 v 23.65202 h 68.48252 V 3.91832 -59.51671 h 18.06328 v 0 -19.92554"
       style="fill:none;stroke:#000000;stroke-width:1.19553;stroke-linecap:butt;stroke-linejoin:miter;stroke-miterlimit:10;stroke-dasharray:none;stroke-opacity:1"
       transform="matrix(1.3333333,0,0,-1.3333333,128.984,288.94)" />
    <path
       id="path40"
       d="m 166.2612,-79.44225 v -5.66935 l 2.83467,-1.77167 -5.66934,-3.54333 5.66934,-3.54334 -5.66934,-3.54334 2.83467,-1.77166 v 0 -7.91812"
       style="fill:none;stroke:#000000;stroke-width:1.19553;stroke-linecap:butt;stroke-linejoin:round;stroke-miterlimit:10;stroke-dasharray:none;stroke-opacity:1"
       transform="matrix(1.3333333,0,0,-1.3333333,128.984,288.94)" />
    <path
       id="path41"
       d="m 166.2612,-107.20306 v -32.08013"
       style="fill:none;stroke:#000000;stroke-width:1.19553;stroke-linecap:butt;stroke-linejoin:miter;stroke-miterlimit:10;stroke-dasharray:none;stroke-opacity:1"
       transform="matrix(1.3333333,0,0,-1.3333333,128.984,288.94)" />
    <path
       id="path42"
       d="M 5.30629,0 C 4.65466,0.16344 1.79025,1.08963 0,2.09753 V -2.09753 C 1.79025,-1.08963 4.65466,-0.16344 5.30629,0 Z"
       style="fill:#000000;fill-opacity:1;fill-rule:nonzero;stroke:#000000;stroke-width:1.19553;stroke-linecap:butt;stroke-linejoin:miter;stroke-miterlimit:10;stroke-dasharray:none;stroke-opacity:1"
       transform="matrix(0,1.3333333,1.3333333,0,350.6656,474.65092)" />
    <path
       id="path43"
       d="m 223.0588,-84.78778 v -41.45145 h -46.69473 v 19.03617"
       style="fill:none;stroke:#000000;stroke-width:1.19553;stroke-linecap:butt;stroke-linejoin:miter;stroke-miterlimit:10;stroke-dasharray:none;stroke-opacity:1"
       transform="matrix(1.3333333,0,0,-1.3333333,128.984,288.94)" />
    <path
       id="path44"
       d="m 176.36407,-107.20306 v 5.66934 l -2.83467,1.77167 5.66935,3.54335 -5.66935,3.54333 5.66935,3.54334 -2.83468,1.77166 v 0 7.91812"
       style="fill:none;stroke:#000000;stroke-width:1.19553;stroke-linecap:butt;stroke-linejoin:round;stroke-miterlimit:10;stroke-dasharray:none;stroke-opacity:1"
       transform="matrix(1.3333333,0,0,-1.3333333,128.984,288.94)" />
    <path
       id="path45"
       d="m 176.36407,-79.44225 v 20.81629 H 193.43"
       style="fill:none;stroke:#000000;stroke-width:1.19553;stroke-linecap:butt;stroke-linejoin:miter;stroke-miterlimit:10;stroke-dasharray:none;stroke-opacity:1"
       transform="matrix(1.3333333,0,0,-1.3333333,128.984,288.94)" />
    <path
       id="path46"
       d="M 5.30629,0 C 4.65466,0.16344 1.79025,1.08963 0,2.09753 V -2.09753 C 1.79025,-1.08963 4.65466,-0.16344 5.30629,0 Z"
       style="fill:#000000;fill-opacity:1;fill-rule:nonzero;stroke:#000000;stroke-width:1.19553;stroke-linecap:butt;stroke-linejoin:miter;stroke-miterlimit:10;stroke-dasharray:none;stroke-opacity:1"
       transform="matrix(1.3333333,0,0,-1.3333333,386.89067,367.10795)" />
    <path
       id="path47"
       d="m 223.0588,-84.78778 v -41.45145 -12.81804 h 49.62005 V 0 H 287.623 m 7.83666,0 h 41.31374"
       style="fill:none;stroke:#000000;stroke-width:1.19553;stroke-linecap:butt;stroke-linejoin:miter;stroke-miterlimit:10;stroke-dasharray:none;stroke-opacity:1"
       transform="matrix(1.3333333,0,0,-1.3333333,128.984,288.94)" />
    <path
       id="path48"
       d="M 5.30629,0 C 4.65466,0.16344 1.79025,1.08963 0,2.09753 V -2.09753 C 1.79025,-1.08963 4.65466,-0.16344 5.30629,0 Z"
       style="fill:#000000;fill-opacity:1;fill-rule:nonzero;stroke:#000000;stroke-width:1.19553;stroke-linecap:butt;stroke-linejoin:miter;stroke-miterlimit:10;stroke-dasharray:none;stroke-opacity:1"
       transform="matrix(1.3333333,0,0,-1.3333333,578.0152,288.94)" />
    <path
       id="path49"
       d="M 2.8823516,-8.2974062 1.1128203,-5.3125e-4 h 3.0820313 c 1.875,0 3.4335937,-1.32421875 3.4335937,-2.57812495 0,-0.8554688 -0.7382812,-1.5703125 -1.8632812,-1.7578125 1.1601562,-0.28125 2.3671875,-1.078125 2.3671875,-2.1796875 0,-1.0195313 -1.0429688,-1.78125 -2.4960938,-1.78125 z m 0.1875,3.6210937 0.6328125,-2.953125 h 1.4648437 c 1.1601563,0 2.0273438,0.515625 2.0273438,1.2421875 0,0.8320313 -1.1835938,1.7109375 -2.6367188,1.7109375 z M 2.2261016,-0.6685 2.9175078,-3.9614687 h 1.6054688 c 1.3242187,0 2.1445312,0.65625 2.1445312,1.4648437 0,0.9609375 -1.2539062,1.828125 -2.6601562,1.828125 z m 0,0"
       style="fill:#000000;fill-opacity:1;fill-rule:nonzero;stroke:none"
       aria-label="B"
       transform="matrix(1.3333333,0,0,1.3333333,451.13733,490.64133)" />
    <path
       id="path50"
       d="m 2.2500703,-0.6099375 c -0.09375,0 -0.1875,0 -0.28125,0 H 1.0547578 l 1.2421875,-1.0898438 c 0.140625,-0.1289062 0.5273438,-0.421875 0.6796875,-0.5507812 0.3515625,-0.3164063 0.8203125,-0.7265625 0.8203125,-1.4179688 0,-0.9023437 -0.6679687,-1.7226562 -1.8046875,-1.7226562 -0.84375,0 -1.37109374,0.4453125 -1.64062499,1.265625 l 0.375,0.46875 c 0.1875,-0.6679688 0.45703129,-1.1835938 1.14843749,-1.1835938 0.6796875,0 1.1835938,0.46875 1.1835938,1.1835938 0,0.65625 -0.3867188,1.03125 -0.8671875,1.4882812 -0.1640625,0.1640625 -0.5859375,0.515625 -0.7617188,0.6796875 -0.2226562,0.2109375 -0.77343749,0.7382813 -1.00781249,0.93750005 V -5.625e-4 H 3.7969453 v -0.609375 z m 0,0"
       style="fill:#000000;fill-opacity:1;fill-rule:nonzero;stroke:none"
       aria-label="2"
       transform="matrix(1.3333333,0,0,1.3333333,461.496,493.032)" />
    <path
       id="path51"
       d="m 223.0588,84.78778 v 23.65202 h 68.48254 V 3.91832 -59.51671 h 18.06327 v -19.92554"
       style="fill:none;stroke:#000000;stroke-width:1.19553;stroke-linecap:butt;stroke-linejoin:miter;stroke-miterlimit:10;stroke-dasharray:none;stroke-opacity:1"
       transform="matrix(1.3333333,0,0,-1.3333333,128.984,288.94)" />
    <path
       id="path52"
       d="m 309.60461,-79.44225 v -5.66935 l 2.83466,-1.77167 -5.66933,-3.54333 5.66933,-3.54334 -5.66933,-3.54334 2.83467,-1.77166 v 0 -7.91812"
       style="fill:none;stroke:#000000;stroke-width:1.19553;stroke-linecap:butt;stroke-linejoin:round;stroke-miterlimit:10;stroke-dasharray:none;stroke-opacity:1"
       transform="matrix(1.3333333,0,0,-1.3333333,128.984,288.94)" />
    <path
       id="path53"
       d="m 309.60461,-107.20306 v -32.08013"
       style="fill:none;stroke:#000000;stroke-width:1.19553;stroke-linecap:butt;stroke-linejoin:miter;stroke-miterlimit:10;stroke-dasharray:none;stroke-opacity:1"
       transform="matrix(1.3333333,0,0,-1.3333333,128.984,288.94)" />
    <path
       id="path54"
       d="M 5.30629,0 C 4.65466,0.16344 1.79025,1.08963 0,2.09753 V -2.09753 C 1.79025,-1.08963 4.65466,-0.16344 5.30629,0 Z"
       style="fill:#000000;fill-opacity:1;fill-rule:nonzero;stroke:#000000;stroke-width:1.19553;stroke-linecap:butt;stroke-linejoin:miter;stroke-miterlimit:10;stroke-dasharray:none;stroke-opacity:1"
       transform="matrix(0,1.3333333,1.3333333,0,541.79015,474.65092)" />
    <path
       id="path55"
       d="m 366.4022,-84.78778 v -41.45145 h -46.69473 v 19.03617"
       style="fill:none;stroke:#000000;stroke-width:1.19553;stroke-linecap:butt;stroke-linejoin:miter;stroke-miterlimit:10;stroke-dasharray:none;stroke-opacity:1"
       transform="matrix(1.3333333,0,0,-1.3333333,128.984,288.94)" />
    <path
       id="path56"
       d="m 319.70747,-107.20306 v 5.66934 l -2.83465,1.77167 5.66932,3.54335 -5.66932,3.54333 5.66932,3.54334 -2.83467,1.77166 v 0 7.91812"
       style="fill:none;stroke:#000000;stroke-width:1.19553;stroke-linecap:butt;stroke-linejoin:round;stroke-miterlimit:10;stroke-dasharray:none;stroke-opacity:1"
       transform="matrix(1.3333333,0,0,-1.3333333,128.984,288.94)" />
    <path
       id="path57"
       d="m 319.70747,-79.44225 v 20.81629 h 17.06593"
       style="fill:none;stroke:#000000;stroke-width:1.19553;stroke-linecap:butt;stroke-linejoin:miter;stroke-miterlimit:10;stroke-dasharray:none;stroke-opacity:1"
       transform="matrix(1.3333333,0,0,-1.3333333,128.984,288.94)" />
    <path
       id="path58"
       d="M 5.30629,0 C 4.65466,0.16344 1.79025,1.08963 0,2.09753 V -2.09753 C 1.79025,-1.08963 4.65466,-0.16344 5.30629,0 Z"
       style="fill:#000000;fill-opacity:1;fill-rule:nonzero;stroke:#000000;stroke-width:1.19553;stroke-linecap:butt;stroke-linejoin:miter;stroke-miterlimit:10;stroke-dasharray:none;stroke-opacity:1"
       transform="matrix(1.3333333,0,0,-1.3333333,578.0152,367.10795)" />
    <path
       id="path59"
       d="m 366.4022,-126.23923 v -12.88475 h 35.99847"
       style="fill:none;stroke:#000000;stroke-width:1.19553;stroke-linecap:butt;stroke-linejoin:miter;stroke-miterlimit:10;stroke-dasharray:none;stroke-opacity:1"
       transform="matrix(1.3333333,0,0,-1.3333333,128.984,288.94)" />
    <path
       id="path60"
       d="M 5.30629,0 C 4.65466,0.16344 1.79025,1.08963 0,2.09753 V -2.09753 C 1.79025,-1.08963 4.65466,-0.16344 5.30629,0 Z"
       style="fill:#000000;fill-opacity:1;fill-rule:nonzero;stroke:#000000;stroke-width:1.19553;stroke-linecap:butt;stroke-linejoin:miter;stroke-miterlimit:10;stroke-dasharray:none;stroke-opacity:1"
       transform="matrix(1.3333333,0,0,-1.3333333,665.51823,474.43864)" />
    <path
       id="path61"
       d="m 366.4022,84.78778 v 23.65202 0 h 51.74618 V 96.02573"
       style="fill:none;stroke:#000000;stroke-width:1.19553;stroke-linecap:butt;stroke-linejoin:miter;stroke-miterlimit:10;stroke-dasharray:none;stroke-opacity:1"
       transform="matrix(1.3333333,0,0,-1.3333333,128.984,288.94)" />
    <path
       id="path62"
       d="M 418.14838,73.57011 V 58.62596 h -29.88831"
       style="fill:none;stroke:#000000;stroke-width:1.19553;stroke-linecap:butt;stroke-linejoin:miter;stroke-miterlimit:10;stroke-dasharray:none;stroke-opacity:1"
       transform="matrix(1.3333333,0,0,-1.3333333,128.984,288.94)" />
    <path
       id="path63"
       d="m 388.26007,58.62596 h 52.00566"
       style="fill:none;stroke:#000000;stroke-width:1.19553;stroke-linecap:butt;stroke-linejoin:miter;stroke-miterlimit:10;stroke-dasharray:none;stroke-opacity:1"
       transform="matrix(1.3333333,0,0,-1.3333333,128.984,288.94)" />
    <path
       id="path64"
       d="M 5.30629,0 C 4.65466,0.16344 1.79025,1.08963 0,2.09753 V -2.09753 C 1.79025,-1.08963 4.65466,-0.16344 5.30629,0 Z"
       style="fill:#000000;fill-opacity:1;fill-rule:nonzero;stroke:#000000;stroke-width:1.19553;stroke-linecap:butt;stroke-linejoin:miter;stroke-miterlimit:10;stroke-dasharray:none;stroke-opacity:1"
       transform="matrix(1.3333333,0,0,-1.3333333,716.00497,210.77205)" />
    <path
       id="path65"
       d="m 403.85782,70.50735 12.02652,12.02654 -0.75165,3.25716 6.51434,-1.5033 -0.75164,3.25719 v 0 l 9.22451,9.22451"
       style="fill:none;stroke:#000000;stroke-width:1.19553;stroke-linecap:butt;stroke-linejoin:round;stroke-miterlimit:10;stroke-dasharray:none;stroke-opacity:1"
       transform="matrix(1.3333333,0,0,-1.3333333,128.984,288.94)" />
    <path
       id="path66"
       d="M 5.30629,0 C 4.65466,0.16344 1.79025,1.08963 0,2.09753 V -2.09753 C 1.79025,-1.08963 4.65466,-0.16344 5.30629,0 Z"
       style="fill:#000000;fill-opacity:1;fill-rule:nonzero;stroke:#000000;stroke-width:1.19553;stroke-linecap:butt;stroke-linejoin:miter;stroke-miterlimit:10;stroke-dasharray:none;stroke-opacity:1"
       transform="matrix(0.9428,-0.9428,-0.9428,-0.9428,702.4772,159.91407)" />
  </g>
</svg>
