<?xml version="1.0" encoding="utf-8"?>
<!-- Generator: Adobe Illustrator 24.1.1, SVG Export Plug-In . SVG Version: 6.00 Build 0)  -->
<svg version="1.1" id="Layer_1" xmlns="http://www.w3.org/2000/svg" xmlns:xlink="http://www.w3.org/1999/xlink" x="0px" y="0px"
	 viewBox="0 0 280.17 145.79" style="enable-background:new 0 0 280.17 145.79;" xml:space="preserve">
<style type="text/css">
	.st0{fill:#FFFFFF;}
</style>
<g>
	<rect x="118.44" y="45.66" class="st0" width="41.45" height="41.45"/>
	<path d="M160.39,87.62h-42.45V45.16h42.45V87.62z M118.94,86.62h40.45V46.16h-40.45V86.62z"/>
</g>
<g>
	<rect x="230.6" y="45.66" class="st0" width="41.45" height="41.45"/>
	<path d="M272.55,87.62H230.1V45.16h42.45V87.62z M231.1,86.62h40.45V46.16H231.1V86.62z"/>
</g>
<g>
	<g>
		<rect x="3.64" y="65.75" width="106.01" height="1"/>
	</g>
	<g>
		<g>
			<polygon points="107.67,63.34 118.51,66.25 107.67,69.15 			"/>
		</g>
	</g>
</g>
<g>
	<g>
		<rect x="159.96" y="65.75" width="61.56" height="1"/>
	</g>
	<g>
		<g>
			<polygon points="219.54,63.34 230.38,66.25 219.54,69.15 			"/>
		</g>
	</g>
</g>
<g>
	<g>
		<rect x="250.61" y="86.98" width="1" height="44.08"/>
	</g>
	<g>
		<g>
			<polygon points="248.2,129.07 251.11,139.91 254.01,129.07 			"/>
		</g>
	</g>
</g>
<g>
	<g>
		<rect x="138.74" y="86.98" width="1" height="44.08"/>
	</g>
	<g>
		<g>
			<polygon points="136.33,129.07 139.24,139.91 142.14,129.07 			"/>
		</g>
	</g>
</g>
<g>
	<g>
		<polygon points="76.56,57.39 75.56,57.39 75.56,19.05 251.61,19.05 251.61,45.52 250.61,45.52 250.61,20.05 76.56,20.05 		"/>
	</g>
	<g>
		<g>
			<polygon points="78.96,55.41 76.06,66.25 73.15,55.41 			"/>
		</g>
	</g>
</g>
<g>
	<path d="M145.34,72.9c-0.77,0.38-2.3,0.77-4.27,0.77c-4.56,0-7.99-2.88-7.99-8.19c0-5.06,3.43-8.5,8.45-8.5
		c2.02,0,3.29,0.43,3.84,0.72l-0.5,1.7c-0.79-0.38-1.92-0.67-3.26-0.67c-3.79,0-6.31,2.42-6.31,6.67c0,3.96,2.28,6.5,6.22,6.5
		c1.27,0,2.57-0.26,3.41-0.67L145.34,72.9z"/>
</g>
<g>
	<path d="M247.31,57.25h8.71V59h-6.63v5.38h6.12v1.73h-6.12v7.32h-2.09V57.25z"/>
</g>
<g>
	<path d="M8.01,48.63h6.54v1.31H9.57v4.03h4.59v1.3H9.57v5.49H8.01V48.63z"/>
	<path d="M18.43,56.72V56h6.19v0.72H18.43z M18.43,59.08v-0.72h6.19v0.72H18.43z"/>
	<path d="M28.8,60.02c0.23,0.02,0.49,0,0.85-0.04c0.61-0.08,1.19-0.34,1.63-0.76c0.52-0.47,0.89-1.15,1.03-2.07h-0.04
		C31.84,57.68,31.22,58,30.44,58c-1.4,0-2.3-1.06-2.3-2.39c0-1.48,1.07-2.77,2.66-2.77s2.58,1.3,2.58,3.29
		c0,1.72-0.58,2.91-1.34,3.66c-0.6,0.59-1.43,0.95-2.27,1.04c-0.38,0.06-0.72,0.07-0.97,0.06V60.02z M29.18,55.54
		c0,0.97,0.59,1.65,1.5,1.65c0.71,0,1.26-0.35,1.54-0.82c0.06-0.1,0.1-0.22,0.1-0.38c0-1.33-0.49-2.35-1.6-2.35
		C29.82,53.64,29.18,54.43,29.18,55.54z"/>
	<path d="M34.24,58.79c0-0.98,0.59-1.68,1.55-2.09l-0.01-0.04c-0.86-0.41-1.24-1.08-1.24-1.75c0-1.23,1.04-2.07,2.41-2.07
		c1.51,0,2.27,0.95,2.27,1.92c0,0.66-0.32,1.37-1.28,1.82v0.04c0.97,0.38,1.57,1.07,1.57,2.02c0,1.35-1.16,2.27-2.65,2.27
		C35.23,60.9,34.24,59.93,34.24,58.79z M38.44,58.74c0-0.95-0.66-1.4-1.72-1.7c-0.91,0.26-1.4,0.86-1.4,1.61
		c-0.04,0.79,0.56,1.49,1.56,1.49C37.83,60.13,38.44,59.54,38.44,58.74z M35.54,54.84c0,0.78,0.59,1.2,1.49,1.44
		c0.67-0.23,1.19-0.71,1.19-1.42c0-0.62-0.37-1.27-1.32-1.27C36.02,53.59,35.54,54.17,35.54,54.84z"/>
	<path d="M44.42,57.62h0.02c0.14-0.2,0.35-0.46,0.52-0.66l1.7-2h1.27l-2.24,2.39l2.55,3.42h-1.28l-2-2.78l-0.54,0.6v2.18h-1.04
		v-8.52h1.04V57.62z"/>
	<path d="M54,54.96c-0.02,0.42-0.05,0.89-0.05,1.6v3.37c0,1.33-0.26,2.15-0.83,2.65c-0.56,0.53-1.38,0.7-2.11,0.7
		c-0.7,0-1.46-0.17-1.93-0.48l0.26-0.8c0.38,0.24,0.98,0.46,1.7,0.46c1.08,0,1.87-0.56,1.87-2.03v-0.65H52.9
		c-0.32,0.54-0.95,0.97-1.85,0.97c-1.44,0-2.47-1.22-2.47-2.83c0-1.97,1.28-3.08,2.61-3.08c1.01,0,1.56,0.53,1.81,1.01h0.02
		l0.05-0.88H54z M52.91,57.25c0-0.18-0.01-0.34-0.06-0.48c-0.19-0.61-0.71-1.12-1.48-1.12c-1.01,0-1.73,0.85-1.73,2.19
		c0,1.14,0.58,2.09,1.72,2.09c0.65,0,1.24-0.41,1.46-1.08c0.06-0.18,0.08-0.38,0.08-0.56V57.25z"/>
	<path d="M54.82,61.25l3.35-8.7h0.82l-3.36,8.7H54.82z"/>
	<path d="M59.83,52.25h1.06v3.62h0.02c0.17-0.3,0.43-0.56,0.76-0.74c0.31-0.18,0.68-0.3,1.08-0.3c0.78,0,2.03,0.48,2.03,2.48v3.45
		h-1.06v-3.33c0-0.94-0.35-1.73-1.34-1.73c-0.68,0-1.22,0.48-1.42,1.06c-0.06,0.14-0.07,0.3-0.07,0.5v3.5h-1.06V52.25z"/>
	<path d="M66.49,56.77c0-0.68-0.01-1.27-0.05-1.81h0.92l0.04,1.14h0.05c0.26-0.78,0.9-1.27,1.61-1.27c0.12,0,0.2,0.01,0.3,0.04v1
		c-0.11-0.02-0.22-0.04-0.36-0.04c-0.74,0-1.27,0.56-1.42,1.36c-0.02,0.14-0.05,0.31-0.05,0.49v3.09h-1.04V56.77z"/>
</g>
<g>
	<path d="M8.01,73.34l0.83,1.25c0.22,0.32,0.4,0.62,0.59,0.95h0.04c0.19-0.35,0.38-0.65,0.58-0.96l0.82-1.24h1.14l-1.98,2.81l2.04,3
		h-1.2L10,77.84c-0.23-0.34-0.42-0.66-0.62-1.01H9.35c-0.19,0.35-0.4,0.66-0.61,1.01L7.9,79.15H6.73l2.06-2.96l-1.97-2.84H8.01z"/>
	<path d="M12.73,75.43h2.54v0.51h-1.93v1.57h1.78v0.5h-1.78v2.13h-0.61V75.43z"/>
	<path d="M15.03,81c0.15-0.41,0.34-1.16,0.42-1.67l0.68-0.07c-0.16,0.59-0.47,1.37-0.66,1.7L15.03,81z"/>
	<path d="M17.94,80.14l-1.54-4.71h0.66l0.73,2.32c0.2,0.64,0.38,1.21,0.5,1.76h0.01c0.13-0.54,0.33-1.14,0.54-1.75l0.8-2.33h0.65
		l-1.68,4.71H17.94z"/>
	<path d="M23.72,75.11v-0.72h6.19v0.72H23.72z M23.72,77.46v-0.72h6.19v0.72H23.72z"/>
	<path d="M38.66,75.17c0,2.65-0.98,4.11-2.71,4.11c-1.52,0-2.55-1.43-2.58-4.01c0-2.61,1.13-4.05,2.71-4.05
		C37.72,71.22,38.66,72.68,38.66,75.17z M34.42,75.29c0,2.03,0.62,3.18,1.58,3.18c1.08,0,1.6-1.26,1.6-3.25
		c0-1.92-0.49-3.18-1.58-3.18C35.1,72.04,34.42,73.16,34.42,75.29z"/>
	<path d="M39.72,78.53c0-0.44,0.3-0.76,0.72-0.76s0.71,0.31,0.71,0.76c0,0.43-0.28,0.76-0.72,0.76C40,79.28,39.72,78.96,39.72,78.53
		z"/>
	<path d="M42.12,79.15V78.5l0.83-0.8c1.99-1.9,2.89-2.9,2.9-4.08c0-0.79-0.38-1.52-1.55-1.52c-0.71,0-1.3,0.36-1.66,0.66l-0.34-0.74
		c0.54-0.46,1.31-0.79,2.21-0.79c1.68,0,2.39,1.15,2.39,2.27c0,1.44-1.04,2.6-2.69,4.19l-0.62,0.58v0.02h3.5v0.88H42.12z"/>
	<path d="M53.45,75.17c0,2.65-0.98,4.11-2.71,4.11c-1.52,0-2.55-1.43-2.58-4.01c0-2.61,1.13-4.05,2.71-4.05
		C52.52,71.22,53.45,72.68,53.45,75.17z M49.22,75.29c0,2.03,0.62,3.18,1.58,3.18c1.08,0,1.6-1.26,1.6-3.25
		c0-1.92-0.49-3.18-1.58-3.18C49.89,72.04,49.22,73.16,49.22,75.29z"/>
	<path d="M8.01,87.74l0.83,1.25c0.22,0.32,0.4,0.62,0.59,0.95h0.04c0.19-0.35,0.38-0.65,0.58-0.96l0.82-1.24h1.14l-1.98,2.81l2.04,3
		h-1.2L10,92.24c-0.23-0.34-0.42-0.66-0.62-1.01H9.35c-0.19,0.35-0.4,0.66-0.61,1.01L7.9,93.55H6.73l2.06-2.96l-1.97-2.84H8.01z"/>
	<path d="M12.73,89.83h2.54v0.51h-1.93v1.57h1.78v0.5h-1.78v2.13h-0.61V89.83z"/>
	<path d="M15.03,95.4c0.15-0.41,0.34-1.16,0.42-1.67l0.68-0.07c-0.16,0.59-0.47,1.37-0.66,1.7L15.03,95.4z"/>
	<path d="M17.67,94.54l-1.19-4.71h0.64l0.56,2.38c0.14,0.59,0.27,1.17,0.35,1.63h0.01c0.08-0.47,0.22-1.03,0.38-1.64l0.63-2.38h0.64
		l0.57,2.39c0.13,0.56,0.26,1.12,0.33,1.61h0.01c0.1-0.52,0.23-1.04,0.38-1.63l0.62-2.38h0.62l-1.33,4.71h-0.64l-0.59-2.45
		c-0.15-0.6-0.24-1.06-0.31-1.54h-0.01c-0.08,0.47-0.19,0.93-0.36,1.54l-0.67,2.45H17.67z"/>
	<path d="M24.25,89.51v-0.72h6.19v0.72H24.25z M24.25,91.86v-0.72h6.19v0.72H24.25z"/>
	<path d="M39.19,89.57c0,2.65-0.98,4.11-2.71,4.11c-1.52,0-2.55-1.43-2.58-4.01c0-2.61,1.13-4.05,2.71-4.05
		C38.25,85.62,39.19,87.08,39.19,89.57z M34.96,89.69c0,2.03,0.62,3.18,1.58,3.18c1.08,0,1.6-1.26,1.6-3.25
		c0-1.92-0.49-3.18-1.58-3.18C35.63,86.44,34.96,87.56,34.96,89.69z"/>
	<path d="M40.25,92.93c0-0.44,0.3-0.76,0.72-0.76s0.71,0.31,0.71,0.76c0,0.43-0.28,0.76-0.72,0.76
		C40.54,93.68,40.25,93.36,40.25,92.93z"/>
	<path d="M42.55,91.57c0-0.98,0.59-1.68,1.55-2.09l-0.01-0.04c-0.86-0.41-1.24-1.08-1.24-1.75c0-1.23,1.04-2.07,2.41-2.07
		c1.51,0,2.27,0.95,2.27,1.92c0,0.66-0.32,1.37-1.28,1.82v0.04c0.97,0.38,1.57,1.07,1.57,2.02c0,1.35-1.16,2.27-2.65,2.27
		C43.54,93.68,42.55,92.71,42.55,91.57z M46.75,91.52c0-0.95-0.66-1.4-1.72-1.7c-0.91,0.26-1.4,0.86-1.4,1.61
		c-0.04,0.79,0.56,1.49,1.56,1.49C46.14,92.91,46.75,92.33,46.75,91.52z M43.85,87.62c0,0.78,0.59,1.2,1.49,1.44
		c0.67-0.23,1.19-0.71,1.19-1.42c0-0.62-0.37-1.27-1.32-1.27C44.33,86.38,43.85,86.95,43.85,87.62z"/>
	<path d="M53.98,89.57c0,2.65-0.98,4.11-2.71,4.11c-1.52,0-2.55-1.43-2.58-4.01c0-2.61,1.13-4.05,2.71-4.05
		C53.05,85.62,53.98,87.08,53.98,89.57z M49.75,89.69c0,2.03,0.62,3.18,1.58,3.18c1.08,0,1.6-1.26,1.6-3.25
		c0-1.92-0.49-3.18-1.58-3.18C50.42,86.44,49.75,87.56,49.75,89.69z"/>
</g>
<g>
	<path d="M164.95,3.86c0.79-0.16,1.93-0.25,3.01-0.25c1.67,0,2.75,0.31,3.51,0.99c0.61,0.54,0.95,1.37,0.95,2.3
		c0,1.6-1.01,2.67-2.29,3.1v0.05c0.94,0.32,1.49,1.19,1.78,2.45c0.4,1.69,0.68,2.86,0.94,3.33h-1.62c-0.2-0.34-0.47-1.39-0.81-2.9
		c-0.36-1.67-1.01-2.3-2.43-2.36h-1.48v5.26h-1.57V3.86z M166.52,9.38h1.6c1.67,0,2.74-0.92,2.74-2.3c0-1.57-1.13-2.25-2.79-2.27
		c-0.76,0-1.3,0.07-1.55,0.14V9.38z"/>
</g>
<g>
	<path d="M171.71,49.96h-3.69v-1.33h8.98v1.33h-3.71v10.8h-1.58V49.96z"/>
</g>
<g>
	<path d="M169.41,73.34l0.83,1.25c0.22,0.32,0.4,0.62,0.59,0.95h0.04c0.19-0.35,0.38-0.65,0.58-0.96l0.82-1.24h1.14l-1.98,2.81
		l2.04,3h-1.2l-0.85-1.31c-0.23-0.34-0.42-0.66-0.62-1.01h-0.02c-0.19,0.35-0.4,0.66-0.61,1.01l-0.84,1.31h-1.16l2.06-2.96
		l-1.97-2.84H169.41z"/>
	<path d="M175.02,75.95h-1.43v-0.52h3.49v0.52h-1.44v4.19h-0.61V75.95z"/>
	<path d="M176.77,81c0.15-0.41,0.34-1.16,0.42-1.67l0.68-0.07c-0.16,0.59-0.47,1.37-0.66,1.7L176.77,81z"/>
	<path d="M179.67,80.14l-1.54-4.71h0.66l0.73,2.32c0.2,0.64,0.38,1.21,0.5,1.76h0.01c0.13-0.54,0.33-1.14,0.54-1.75l0.8-2.33h0.65
		l-1.68,4.71H179.67z"/>
	<path d="M185.45,75.11v-0.72h6.19v0.72H185.45z M185.45,77.46v-0.72h6.19v0.72H185.45z"/>
	<path d="M200.39,75.17c0,2.65-0.98,4.11-2.71,4.11c-1.52,0-2.55-1.43-2.58-4.01c0-2.61,1.13-4.05,2.71-4.05
		C199.45,71.22,200.39,72.68,200.39,75.17z M196.15,75.29c0,2.03,0.62,3.18,1.58,3.18c1.08,0,1.6-1.26,1.6-3.25
		c0-1.92-0.49-3.18-1.58-3.18C196.83,72.04,196.15,73.16,196.15,75.29z"/>
	<path d="M201.45,78.53c0-0.44,0.3-0.76,0.72-0.76s0.71,0.31,0.71,0.76c0,0.43-0.28,0.76-0.72,0.76
		C201.73,79.28,201.45,78.96,201.45,78.53z"/>
	<path d="M208.3,72.1c-0.22-0.01-0.49,0-0.79,0.05c-1.66,0.28-2.53,1.49-2.71,2.77h0.04c0.37-0.49,1.02-0.9,1.88-0.9
		c1.38,0,2.35,1,2.35,2.52c0,1.43-0.97,2.75-2.59,2.75c-1.67,0-2.76-1.3-2.76-3.32c0-1.54,0.55-2.75,1.32-3.51
		c0.65-0.64,1.51-1.03,2.49-1.15c0.31-0.05,0.58-0.06,0.77-0.06V72.1z M208,76.59c0-1.12-0.64-1.79-1.61-1.79
		c-0.64,0-1.22,0.4-1.51,0.96c-0.07,0.12-0.12,0.28-0.12,0.47c0.02,1.28,0.61,2.23,1.72,2.23C207.38,78.47,208,77.71,208,76.59z"/>
	<path d="M215.18,75.17c0,2.65-0.98,4.11-2.71,4.11c-1.52,0-2.55-1.43-2.58-4.01c0-2.61,1.13-4.05,2.71-4.05
		C214.25,71.22,215.18,72.68,215.18,75.17z M210.95,75.29c0,2.03,0.62,3.18,1.58,3.18c1.08,0,1.6-1.26,1.6-3.25
		c0-1.92-0.49-3.18-1.58-3.18C211.62,72.04,210.95,73.16,210.95,75.29z"/>
</g>
<g>
	<path d="M146.39,112.97h1.57v10.82h5.19v1.31h-6.75V112.97z"/>
</g>
<g>
	<path d="M97.3,100.8h-0.02l-1.36,0.73l-0.2-0.8l1.7-0.91h0.9v7.8H97.3V100.8z"/>
	<path d="M106.34,103.63c0,2.65-0.98,4.11-2.71,4.11c-1.52,0-2.55-1.43-2.58-4.01c0-2.61,1.13-4.05,2.71-4.05
		C105.41,99.68,106.34,101.15,106.34,103.63z M102.11,103.75c0,2.03,0.62,3.18,1.58,3.18c1.08,0,1.6-1.26,1.6-3.25
		c0-1.92-0.49-3.18-1.58-3.18C102.78,100.5,102.11,101.63,102.11,103.75z"/>
	<path d="M112.5,103.63c0,2.65-0.98,4.11-2.71,4.11c-1.52,0-2.55-1.43-2.58-4.01c0-2.61,1.13-4.05,2.71-4.05
		C111.56,99.68,112.5,101.15,112.5,103.63z M108.27,103.75c0,2.03,0.62,3.18,1.58,3.18c1.08,0,1.6-1.26,1.6-3.25
		c0-1.92-0.49-3.18-1.58-3.18C108.94,100.5,108.27,101.63,108.27,103.75z"/>
	<path d="M116.99,102.01c0,1.64-0.86,2.46-1.87,2.46c-0.97,0-1.81-0.78-1.82-2.35c0-1.56,0.85-2.43,1.88-2.43
		C116.27,99.68,116.99,100.52,116.99,102.01z M114.13,102.08c-0.02,1,0.35,1.75,1.01,1.75c0.7,0,1.01-0.74,1.01-1.77
		c0-0.95-0.28-1.74-1.01-1.74C114.48,100.32,114.13,101.1,114.13,102.08z M115.05,107.74l4.58-8.06h0.67l-4.58,8.06H115.05z
		 M122.06,105.24c0,1.64-0.86,2.46-1.86,2.46c-0.97,0-1.81-0.78-1.82-2.34c0-1.57,0.85-2.45,1.88-2.45
		C121.35,102.91,122.06,103.75,122.06,105.24z M119.21,105.31c-0.01,1,0.37,1.75,1.02,1.75c0.7,0,1.01-0.74,1.01-1.77
		c0-0.95-0.28-1.74-1.01-1.74C119.57,103.55,119.21,104.33,119.21,105.31z"/>
	<path d="M126.78,107.61l-2.05-8.08h1.1l0.96,4.09c0.24,1.01,0.46,2.01,0.6,2.79h0.02c0.13-0.8,0.38-1.76,0.66-2.81l1.08-4.08h1.09
		l0.98,4.1c0.23,0.96,0.44,1.92,0.56,2.77h0.02c0.17-0.89,0.4-1.79,0.65-2.79l1.07-4.08h1.07l-2.29,8.08h-1.09l-1.02-4.21
		c-0.25-1.03-0.42-1.82-0.53-2.64h-0.02c-0.14,0.8-0.32,1.6-0.62,2.64l-1.15,4.21H126.78z"/>
</g>
<g>
	<path d="M201.58,99.81l0.83,1.25c0.22,0.32,0.4,0.62,0.59,0.95h0.04c0.19-0.35,0.38-0.65,0.58-0.96l0.82-1.24h1.14l-1.98,2.81
		l2.04,3h-1.2l-0.85-1.31c-0.23-0.34-0.42-0.66-0.62-1.01h-0.02c-0.19,0.35-0.4,0.66-0.61,1.01l-0.84,1.31h-1.16l2.06-2.96
		l-1.97-2.84H201.58z"/>
	<path d="M206.3,101.95c0.29-0.05,0.68-0.09,1.17-0.09c0.6,0,1.04,0.14,1.32,0.39c0.26,0.22,0.41,0.57,0.41,0.99
		c0,0.43-0.13,0.76-0.36,1.01c-0.32,0.34-0.85,0.52-1.44,0.52c-0.18,0-0.35-0.01-0.49-0.04v1.89h-0.61V101.95z M206.91,104.22
		c0.13,0.04,0.3,0.05,0.5,0.05c0.73,0,1.18-0.36,1.18-1.01c0-0.62-0.44-0.92-1.11-0.92c-0.27,0-0.47,0.02-0.57,0.05V104.22z"/>
	<path d="M208.62,107.47c0.15-0.41,0.34-1.16,0.42-1.67l0.68-0.07c-0.16,0.59-0.47,1.37-0.66,1.7L208.62,107.47z"/>
	<path d="M211.52,106.61l-1.54-4.71h0.66l0.73,2.32c0.2,0.64,0.38,1.21,0.5,1.76h0.01c0.13-0.54,0.33-1.14,0.54-1.75l0.8-2.33h0.65
		l-1.68,4.71H211.52z"/>
	<path d="M217.31,101.57v-0.72h6.19v0.72H217.31z M217.31,103.92v-0.72h6.19v0.72H217.31z"/>
	<path d="M232.24,101.63c0,2.65-0.98,4.11-2.71,4.11c-1.52,0-2.55-1.43-2.58-4.01c0-2.61,1.13-4.05,2.71-4.05
		C231.31,97.68,232.24,99.15,232.24,101.63z M228.01,101.75c0,2.03,0.62,3.18,1.58,3.18c1.08,0,1.6-1.26,1.6-3.25
		c0-1.92-0.49-3.18-1.58-3.18C228.68,98.5,228.01,99.63,228.01,101.75z"/>
	<path d="M233.3,104.99c0-0.44,0.3-0.76,0.72-0.76s0.71,0.31,0.71,0.76c0,0.43-0.28,0.76-0.72,0.76
		C233.59,105.74,233.3,105.42,233.3,104.99z"/>
	<path d="M236.31,104.87c0.23,0.02,0.49,0,0.85-0.04c0.61-0.08,1.19-0.34,1.63-0.76c0.52-0.47,0.89-1.15,1.03-2.07h-0.04
		c-0.43,0.53-1.06,0.84-1.83,0.84c-1.4,0-2.3-1.06-2.3-2.39c0-1.48,1.07-2.77,2.66-2.77s2.58,1.3,2.58,3.29
		c0,1.72-0.58,2.91-1.34,3.66c-0.6,0.59-1.43,0.95-2.27,1.04c-0.38,0.06-0.72,0.07-0.97,0.06V104.87z M236.7,100.38
		c0,0.97,0.59,1.65,1.5,1.65c0.71,0,1.26-0.35,1.54-0.82c0.06-0.1,0.1-0.22,0.1-0.38c0-1.33-0.49-2.35-1.6-2.35
		C237.33,98.49,236.7,99.28,236.7,100.38z"/>
	<path d="M246.31,98.56c-0.22-0.01-0.49,0-0.79,0.05c-1.66,0.28-2.53,1.49-2.71,2.77h0.04c0.37-0.49,1.02-0.9,1.88-0.9
		c1.38,0,2.35,1,2.35,2.52c0,1.43-0.97,2.75-2.59,2.75c-1.67,0-2.76-1.3-2.76-3.32c0-1.54,0.55-2.75,1.32-3.51
		c0.65-0.64,1.51-1.03,2.49-1.15c0.31-0.05,0.58-0.06,0.77-0.06V98.56z M246.01,103.06c0-1.12-0.64-1.79-1.61-1.79
		c-0.64,0-1.22,0.4-1.51,0.96c-0.07,0.12-0.12,0.28-0.12,0.47c0.02,1.28,0.61,2.23,1.72,2.23
		C245.4,104.93,246.01,104.17,246.01,103.06z"/>
	<path d="M201.58,114.21l0.83,1.25c0.22,0.32,0.4,0.62,0.59,0.95h0.04c0.19-0.35,0.38-0.65,0.58-0.96l0.82-1.24h1.14l-1.98,2.81
		l2.04,3h-1.2l-0.85-1.31c-0.23-0.34-0.42-0.66-0.62-1.01h-0.02c-0.19,0.35-0.4,0.66-0.61,1.01l-0.84,1.31h-1.16l2.06-2.96
		l-1.97-2.84H201.58z"/>
	<path d="M206.3,116.35c0.29-0.05,0.68-0.09,1.17-0.09c0.6,0,1.04,0.14,1.32,0.39c0.26,0.22,0.41,0.57,0.41,0.99
		c0,0.43-0.13,0.76-0.36,1.01c-0.32,0.34-0.85,0.52-1.44,0.52c-0.18,0-0.35-0.01-0.49-0.04v1.89h-0.61V116.35z M206.91,118.62
		c0.13,0.04,0.3,0.05,0.5,0.05c0.73,0,1.18-0.36,1.18-1.01c0-0.62-0.44-0.92-1.11-0.92c-0.27,0-0.47,0.02-0.57,0.05V118.62z"/>
	<path d="M208.62,121.87c0.15-0.41,0.34-1.16,0.42-1.67l0.68-0.07c-0.16,0.59-0.47,1.37-0.66,1.7L208.62,121.87z"/>
	<path d="M211.26,121.01l-1.19-4.71h0.64l0.56,2.38c0.14,0.59,0.27,1.17,0.35,1.63h0.01c0.08-0.47,0.22-1.03,0.38-1.64l0.63-2.38
		h0.64l0.57,2.39c0.13,0.56,0.26,1.12,0.33,1.61h0.01c0.1-0.52,0.23-1.04,0.38-1.63l0.62-2.38h0.62l-1.33,4.71h-0.64l-0.59-2.45
		c-0.15-0.6-0.24-1.06-0.31-1.54h-0.01c-0.08,0.47-0.19,0.93-0.36,1.54l-0.67,2.45H211.26z"/>
	<path d="M217.84,115.97v-0.72h6.19v0.72H217.84z M217.84,118.32v-0.72h6.19v0.72H217.84z"/>
	<path d="M232.77,116.03c0,2.65-0.98,4.11-2.71,4.11c-1.52,0-2.55-1.43-2.58-4.01c0-2.61,1.13-4.05,2.71-4.05
		C231.84,112.08,232.77,113.55,232.77,116.03z M228.54,116.15c0,2.03,0.62,3.18,1.58,3.18c1.08,0,1.6-1.26,1.6-3.25
		c0-1.92-0.49-3.18-1.58-3.18C229.21,112.9,228.54,114.03,228.54,116.15z"/>
	<path d="M233.83,119.39c0-0.44,0.3-0.76,0.72-0.76s0.71,0.31,0.71,0.76c0,0.43-0.28,0.76-0.72,0.76
		C234.12,120.14,233.83,119.82,233.83,119.39z"/>
	<path d="M241.41,116.03c0,2.65-0.98,4.11-2.71,4.11c-1.52,0-2.55-1.43-2.58-4.01c0-2.61,1.13-4.05,2.71-4.05
		C240.48,112.08,241.41,113.55,241.41,116.03z M237.18,116.15c0,2.03,0.62,3.18,1.58,3.18c1.08,0,1.6-1.26,1.6-3.25
		c0-1.92-0.49-3.18-1.58-3.18C237.85,112.9,237.18,114.03,237.18,116.15z"/>
	<path d="M245.65,120.01v-2.12h-3.62v-0.7l3.48-4.98h1.14v4.85h1.09v0.83h-1.09v2.12H245.65z M245.65,117.06v-2.6
		c0-0.41,0.01-0.82,0.04-1.22h-0.04c-0.24,0.46-0.43,0.79-0.65,1.15l-1.91,2.65v0.02H245.65z"/>
</g>
<g>
	<path d="M258,113.11c0.76-0.13,1.75-0.23,3.01-0.23c1.55,0,2.68,0.36,3.4,1.01c0.67,0.58,1.06,1.46,1.06,2.54
		c0,1.1-0.32,1.96-0.94,2.59c-0.83,0.88-2.18,1.33-3.71,1.33c-0.47,0-0.9-0.02-1.26-0.11v4.86H258V113.11z M259.57,118.97
		c0.34,0.09,0.77,0.13,1.3,0.13c1.89,0,3.04-0.92,3.04-2.59c0-1.6-1.13-2.38-2.86-2.38c-0.68,0-1.21,0.05-1.48,0.13V118.97z"/>
</g>
</svg>
