<svg id="Layer_1" data-name="Layer 1" xmlns="http://www.w3.org/2000/svg" viewBox="0 0 434.52 391.89"><defs><style>.cls-1{fill:#fff;}.cls-2{fill:#231f20;}</style></defs><rect class="cls-1" x="56.16" y="104.1" width="89.77" height="172.73"/><path class="cls-2" d="M156.12,283.3H65.34V109.57h90.78Zm-89.78-1h88.78V110.57H66.34Z" transform="translate(-9.68 -5.97)"/><path class="cls-2" d="M82.22,200.17l3.85-10H87.5l4.1,10H90.09l-1.17-3H84.73l-1.1,3Zm2.89-4.12h3.4l-1.05-2.77c-.32-.85-.55-1.54-.71-2.08a13.29,13.29,0,0,1-.54,1.91Z" transform="translate(-9.68 -5.97)"/><path class="cls-2" d="M93.64,200.17H92.49v-10h1.23v3.57a2.45,2.45,0,0,1,2-1A3,3,0,0,1,97,193a2.68,2.68,0,0,1,1,.76,3.75,3.75,0,0,1,.6,1.18,4.73,4.73,0,0,1,.22,1.48,4.17,4.17,0,0,1-.92,2.88,2.9,2.9,0,0,1-2.22,1,2.31,2.31,0,0,1-2-1.07Zm0-3.69a3.75,3.75,0,0,0,.36,1.89,1.77,1.77,0,0,0,1.57.95,1.75,1.75,0,0,0,1.39-.7,3.14,3.14,0,0,0,.59-2.09,3.27,3.27,0,0,0-.56-2.1,1.72,1.72,0,0,0-1.37-.67,1.76,1.76,0,0,0-1.39.7A3.06,3.06,0,0,0,93.62,196.48Z" transform="translate(-9.68 -5.97)"/><path class="cls-2" d="M99.79,198l1.22-.19a1.71,1.71,0,0,0,.57,1.12,2,2,0,0,0,1.31.39,1.92,1.92,0,0,0,1.26-.34,1,1,0,0,0,.41-.82.75.75,0,0,0-.36-.65,5.38,5.38,0,0,0-1.26-.42,11.55,11.55,0,0,1-1.88-.59,1.85,1.85,0,0,1-.79-.69,1.91,1.91,0,0,1,0-1.87,1.93,1.93,0,0,1,.61-.69,2.58,2.58,0,0,1,.78-.36,3.62,3.62,0,0,1,1.06-.15,4.28,4.28,0,0,1,1.5.25,2.07,2.07,0,0,1,1,.67,2.68,2.68,0,0,1,.42,1.12l-1.2.17a1.35,1.35,0,0,0-.48-.88,1.73,1.73,0,0,0-1.11-.31,2,2,0,0,0-1.21.28.8.8,0,0,0-.36.65.66.66,0,0,0,.15.43,1.07,1.07,0,0,0,.47.33c.12.05.49.15,1.09.32a14.15,14.15,0,0,1,1.82.57,1.84,1.84,0,0,1,.81.64,1.81,1.81,0,0,1,.29,1.06,2.1,2.1,0,0,1-.35,1.15,2.24,2.24,0,0,1-1,.84,3.73,3.73,0,0,1-1.53.3,3.39,3.39,0,0,1-2.16-.59A2.76,2.76,0,0,1,99.79,198Z" transform="translate(-9.68 -5.97)"/><path class="cls-2" d="M106.83,196.54a3.74,3.74,0,0,1,1.12-3,3.37,3.37,0,0,1,2.28-.81,3.24,3.24,0,0,1,2.45,1,3.73,3.73,0,0,1,.95,2.71,4.81,4.81,0,0,1-.42,2.2,3,3,0,0,1-1.22,1.25,3.65,3.65,0,0,1-1.76.44,3.24,3.24,0,0,1-2.46-1A3.88,3.88,0,0,1,106.83,196.54Zm1.26,0a3.14,3.14,0,0,0,.61,2.09,2,2,0,0,0,1.53.69,1.94,1.94,0,0,0,1.53-.7,3.17,3.17,0,0,0,.61-2.12,3,3,0,0,0-.62-2,1.91,1.91,0,0,0-1.52-.7,2,2,0,0,0-1.53.69A3.12,3.12,0,0,0,108.09,196.54Z" transform="translate(-9.68 -5.97)"/><path class="cls-2" d="M115.06,200.17v-7.26h1.11V194a2.88,2.88,0,0,1,.78-1,1.4,1.4,0,0,1,.79-.25,2.42,2.42,0,0,1,1.26.4l-.42,1.14a1.72,1.72,0,0,0-.9-.26,1.21,1.21,0,0,0-.73.24,1.29,1.29,0,0,0-.45.67,4.73,4.73,0,0,0-.21,1.44v3.8Z" transform="translate(-9.68 -5.97)"/><path class="cls-2" d="M120.87,200.17h-1.14v-10H121v3.57a2.44,2.44,0,0,1,2-1,3,3,0,0,1,1.27.27,2.65,2.65,0,0,1,1,.76,3.76,3.76,0,0,1,.61,1.18,5,5,0,0,1,.21,1.48,4.12,4.12,0,0,1-.92,2.88,2.87,2.87,0,0,1-2.21,1,2.33,2.33,0,0,1-2-1.07Zm0-3.69a3.88,3.88,0,0,0,.35,1.89,1.76,1.76,0,0,0,3,.25,4.07,4.07,0,0,0,0-4.19,1.7,1.7,0,0,0-1.36-.67,1.78,1.78,0,0,0-1.4.7A3.06,3.06,0,0,0,120.86,196.48Z" transform="translate(-9.68 -5.97)"/><path class="cls-2" d="M132.49,197.83l1.27.16a3.12,3.12,0,0,1-1.11,1.73,3.8,3.8,0,0,1-4.61-.37,3.83,3.83,0,0,1-.93-2.75,4,4,0,0,1,.94-2.84,3.19,3.19,0,0,1,2.45-1,3.07,3.07,0,0,1,2.38,1,3.9,3.9,0,0,1,.92,2.78v.33h-5.42a2.77,2.77,0,0,0,.68,1.83,2,2,0,0,0,1.52.64,1.86,1.86,0,0,0,1.15-.36A2.32,2.32,0,0,0,132.49,197.83Zm-4-2h4.05a2.36,2.36,0,0,0-.46-1.37,1.86,1.86,0,0,0-1.52-.71,2,2,0,0,0-1.43.56A2.28,2.28,0,0,0,128.45,195.84Z" transform="translate(-9.68 -5.97)"/><path class="cls-2" d="M135.29,200.17v-7.26h1.11V194a2.88,2.88,0,0,1,.78-1,1.42,1.42,0,0,1,.79-.25,2.45,2.45,0,0,1,1.27.4l-.43,1.14a1.72,1.72,0,0,0-.9-.26,1.16,1.16,0,0,0-.72.24,1.25,1.25,0,0,0-.46.67,4.73,4.73,0,0,0-.21,1.44v3.8Z" transform="translate(-9.68 -5.97)"/><rect class="cls-2" x="83.44" y="13.92" width="1" height="81.32"/><polygon class="cls-2" points="86.85 93.26 83.94 104.1 81.04 93.26 86.85 93.26"/><rect class="cls-2" x="117.66" y="22.78" width="1" height="81.32"/><polygon class="cls-2" points="115.25 24.76 118.16 13.92 121.06 24.76 115.25 24.76"/><path class="cls-2" d="M73.65,80.52l1.25-.1a2.84,2.84,0,0,0,.41,1.23,2.34,2.34,0,0,0,1,.78,3.81,3.81,0,0,0,1.54.3,3.69,3.69,0,0,0,1.34-.23,1.88,1.88,0,0,0,.87-.62,1.5,1.5,0,0,0,.28-.86,1.32,1.32,0,0,0-.27-.82,2.14,2.14,0,0,0-.91-.59,15.9,15.9,0,0,0-1.78-.49,8.88,8.88,0,0,1-1.94-.63,2.81,2.81,0,0,1-1.07-.93A2.33,2.33,0,0,1,74,76.31a2.59,2.59,0,0,1,.43-1.41,2.72,2.72,0,0,1,1.26-1,4.94,4.94,0,0,1,1.84-.34,5.05,5.05,0,0,1,2,.36A2.8,2.8,0,0,1,80.83,75a3,3,0,0,1,.5,1.58l-1.27.09a2,2,0,0,0-.7-1.43,2.67,2.67,0,0,0-1.75-.49,2.83,2.83,0,0,0-1.75.44,1.33,1.33,0,0,0-.55,1.07,1.13,1.13,0,0,0,.39.88,5.25,5.25,0,0,0,2,.72,13,13,0,0,1,2.22.64,3.09,3.09,0,0,1,1.29,1,2.47,2.47,0,0,1,.42,1.42,2.76,2.76,0,0,1-.46,1.51,3,3,0,0,1-1.32,1.1,4.59,4.59,0,0,1-1.93.4,5.89,5.89,0,0,1-2.28-.4,3.25,3.25,0,0,1-1.44-1.19A3.41,3.41,0,0,1,73.65,80.52Z" transform="translate(-9.68 -5.97)"/><path class="cls-2" d="M138.68,83.74l3.85-10H144l4.11,10h-1.52l-1.16-3h-4.19l-1.1,3Zm2.89-4.11H145l-1.05-2.78c-.32-.84-.56-1.53-.71-2.07a13.29,13.29,0,0,1-.54,1.91Z" transform="translate(-9.68 -5.97)"/><path class="cls-2" d="M48.61,34.21v-10h1.33v4.12h5.21V24.19h1.32v10H55.15V29.49H49.94v4.72Z" transform="translate(-9.68 -5.97)"/><path class="cls-2" d="M61.71,38.19v.69H57.85a1.2,1.2,0,0,1,.08-.5,2.8,2.8,0,0,1,.47-.78,7.65,7.65,0,0,1,.94-.88,8.72,8.72,0,0,0,1.29-1.24,1.5,1.5,0,0,0,.33-.86,1,1,0,0,0-.3-.72,1.1,1.1,0,0,0-.8-.3,1.17,1.17,0,0,0-.83.31,1.21,1.21,0,0,0-.31.86L58,34.7a1.82,1.82,0,0,1,.57-1.26A1.94,1.94,0,0,1,59.88,33a1.82,1.82,0,0,1,1.33.47,1.51,1.51,0,0,1,.49,1.15,1.89,1.89,0,0,1-.14.69,2.78,2.78,0,0,1-.48.71,10.31,10.31,0,0,1-1.11,1,10.27,10.27,0,0,0-.82.74,2.12,2.12,0,0,0-.31.39Z" transform="translate(-9.68 -5.97)"/><path class="cls-2" d="M62.82,29.33a5.4,5.4,0,0,1,1.34-3.9A4.51,4.51,0,0,1,67.61,24a4.86,4.86,0,0,1,2.51.67,4.35,4.35,0,0,1,1.7,1.85,6.11,6.11,0,0,1,.58,2.69,5.89,5.89,0,0,1-.62,2.72A4.22,4.22,0,0,1,70,33.77a5,5,0,0,1-2.43.61,4.68,4.68,0,0,1-2.53-.68,4.37,4.37,0,0,1-1.69-1.87A5.65,5.65,0,0,1,62.82,29.33Zm1.36,0a4,4,0,0,0,1,2.86,3.41,3.41,0,0,0,4.91,0,4.28,4.28,0,0,0,1-3,5.24,5.24,0,0,0-.41-2.14,3.16,3.16,0,0,0-1.21-1.41,3.24,3.24,0,0,0-1.79-.5,3.38,3.38,0,0,0-2.42,1A4.31,4.31,0,0,0,64.18,29.35Z" transform="translate(-9.68 -5.97)"/><path class="cls-2" d="M76.3,37.16a12.33,12.33,0,0,1-1.72-3,9.5,9.5,0,0,1-.18-6.68A13.14,13.14,0,0,1,76.3,24h.88c-.55.95-.91,1.63-1.09,2a11.12,11.12,0,0,0-.66,2,11.78,11.78,0,0,0-.29,2.57,12.37,12.37,0,0,0,2,6.57Z" transform="translate(-9.68 -5.97)"/><path class="cls-2" d="M78.59,34.21v-10h1.23v10Z" transform="translate(-9.68 -5.97)"/><path class="cls-2" d="M82.53,37.16h-.88a12.37,12.37,0,0,0,2-6.57A11.53,11.53,0,0,0,83.4,28a11.09,11.09,0,0,0-.65-2c-.18-.41-.55-1.09-1.1-2.05h.88a12.86,12.86,0,0,1,1.9,3.45,9.36,9.36,0,0,1-.18,6.68A12.66,12.66,0,0,1,82.53,37.16Z" transform="translate(-9.68 -5.97)"/><path class="cls-2" d="M139.72,30.62v-10h1.33v8.84H146v1.19Z" transform="translate(-9.68 -5.97)"/><path class="cls-2" d="M152.16,30.62V29.55a2.65,2.65,0,0,1-2.3,1.23,2.84,2.84,0,0,1-1.2-.25,2,2,0,0,1-.83-.62,2.36,2.36,0,0,1-.38-.91,6.34,6.34,0,0,1-.07-1.15V23.36h1.23v4a7.36,7.36,0,0,0,.07,1.3,1.3,1.3,0,0,0,.5.76,1.49,1.49,0,0,0,.93.28,2.13,2.13,0,0,0,1-.28,1.56,1.56,0,0,0,.68-.78,3.73,3.73,0,0,0,.2-1.41V23.36h1.23v7.26Z" transform="translate(-9.68 -5.97)"/><path class="cls-2" d="M159.93,28l1.21.15a3.09,3.09,0,0,1-1,2,3,3,0,0,1-2,.71,3.16,3.16,0,0,1-2.4-1,4,4,0,0,1-.9-2.8,5,5,0,0,1,.39-2.05,2.74,2.74,0,0,1,1.18-1.33,3.57,3.57,0,0,1,1.74-.44,3,3,0,0,1,1.93.6,2.73,2.73,0,0,1,1,1.7l-1.19.18a2.07,2.07,0,0,0-.61-1.1,1.6,1.6,0,0,0-1.05-.37,1.93,1.93,0,0,0-1.51.67,3.15,3.15,0,0,0-.58,2.11,3.28,3.28,0,0,0,.56,2.12,1.81,1.81,0,0,0,1.46.67,1.69,1.69,0,0,0,1.21-.45A2.17,2.17,0,0,0,159.93,28Z" transform="translate(-9.68 -5.97)"/><path class="cls-2" d="M162.19,30.62v-10h1.23v3.6a2.75,2.75,0,0,1,2.18-1,3,3,0,0,1,1.4.32,1.86,1.86,0,0,1,.85.88,4,4,0,0,1,.26,1.62v4.61h-1.23V26a1.93,1.93,0,0,0-.4-1.34,1.51,1.51,0,0,0-1.14-.42,2.06,2.06,0,0,0-1,.28,1.55,1.55,0,0,0-.69.77,3.48,3.48,0,0,0-.21,1.34v4Z" transform="translate(-9.68 -5.97)"/><path class="cls-2" d="M172.67,29.51l.17,1.09a4.68,4.68,0,0,1-.93.11,2.15,2.15,0,0,1-1-.21,1.22,1.22,0,0,1-.52-.56,4.39,4.39,0,0,1-.15-1.45V24.31h-.9v-.95h.9v-1.8l1.23-.74v2.54h1.24v.95h-1.24v4.25a2.26,2.26,0,0,0,.06.67.61.61,0,0,0,.21.24.83.83,0,0,0,.43.09A3.14,3.14,0,0,0,172.67,29.51Z" transform="translate(-9.68 -5.97)"/><path class="cls-2" d="M181.31,25.67a9.31,9.31,0,0,1,.36-2.86,3.61,3.61,0,0,1,1.09-1.67,2.77,2.77,0,0,1,1.81-.59,3,3,0,0,1,1.42.33,2.69,2.69,0,0,1,1,.93,5.22,5.22,0,0,1,.63,1.49,10,10,0,0,1,.22,2.37,9.24,9.24,0,0,1-.36,2.85,3.52,3.52,0,0,1-1.08,1.67,2.78,2.78,0,0,1-1.83.6,2.75,2.75,0,0,1-2.27-1A6.63,6.63,0,0,1,181.31,25.67Zm1.26,0a6.25,6.25,0,0,0,.58,3.29A1.65,1.65,0,0,0,186,29a6.31,6.31,0,0,0,.58-3.28,6.36,6.36,0,0,0-.58-3.29,1.73,1.73,0,0,0-1.44-.81,1.56,1.56,0,0,0-1.35.72A6.28,6.28,0,0,0,182.57,25.67Z" transform="translate(-9.68 -5.97)"/><path class="cls-2" d="M189.78,30.62V29.21h1.4v1.41Z" transform="translate(-9.68 -5.97)"/><path class="cls-2" d="M193.17,28.3l1.18-.11a2.08,2.08,0,0,0,.57,1.21,1.6,1.6,0,0,0,1.09.37,1.79,1.79,0,0,0,1-.26,2.13,2.13,0,0,0,.71-.69,4.08,4.08,0,0,0,.45-1.17,5.9,5.9,0,0,0,.19-1.51c0-.05,0-.13,0-.24a2.8,2.8,0,0,1-1,1,2.67,2.67,0,0,1-1.38.37,2.82,2.82,0,0,1-2.11-.9,3.34,3.34,0,0,1-.86-2.38,3.39,3.39,0,0,1,.9-2.46,3,3,0,0,1,2.25-.93,3.24,3.24,0,0,1,1.79.53,3.28,3.28,0,0,1,1.23,1.5,7.4,7.4,0,0,1,.42,2.82,9.08,9.08,0,0,1-.42,3.06,3.53,3.53,0,0,1-1.24,1.73,3.19,3.19,0,0,1-1.93.6,2.65,2.65,0,0,1-2.81-2.49Zm5-4.43a2.4,2.4,0,0,0-.56-1.68,1.79,1.79,0,0,0-1.36-.62,1.88,1.88,0,0,0-1.43.67,2.52,2.52,0,0,0-.6,1.74,2.15,2.15,0,0,0,.57,1.55,1.91,1.91,0,0,0,1.43.6,1.8,1.8,0,0,0,1.4-.6A2.34,2.34,0,0,0,198.2,23.87Z" transform="translate(-9.68 -5.97)"/><path class="cls-2" d="M201,28.3l1.18-.11a2.09,2.09,0,0,0,.58,1.21,1.57,1.57,0,0,0,1.09.37,1.81,1.81,0,0,0,1-.26,2,2,0,0,0,.7-.69,4.07,4.07,0,0,0,.46-1.17,6.37,6.37,0,0,0,.18-1.51V25.9a2.88,2.88,0,0,1-1,1,2.71,2.71,0,0,1-1.39.37,2.78,2.78,0,0,1-2.1-.9,3.3,3.3,0,0,1-.86-2.38,3.39,3.39,0,0,1,.9-2.46,3,3,0,0,1,2.25-.93,3.24,3.24,0,0,1,1.79.53,3.28,3.28,0,0,1,1.23,1.5,7.4,7.4,0,0,1,.42,2.82,9.08,9.08,0,0,1-.42,3.06,3.59,3.59,0,0,1-1.24,1.73,3.19,3.19,0,0,1-1.93.6A2.67,2.67,0,0,1,201,28.3Zm5-4.43a2.45,2.45,0,0,0-.56-1.68,1.79,1.79,0,0,0-1.36-.62,1.87,1.87,0,0,0-1.43.67A2.48,2.48,0,0,0,202,24a2.11,2.11,0,0,0,.58,1.55,1.91,1.91,0,0,0,1.43.6,1.82,1.82,0,0,0,1.4-.6A2.34,2.34,0,0,0,206,23.87Z" transform="translate(-9.68 -5.97)"/><path class="cls-2" d="M208.55,28l1.3-.11a2.29,2.29,0,0,0,.66,1.42,1.79,1.79,0,0,0,1.26.47,2,2,0,0,0,1.51-.67,2.49,2.49,0,0,0,.61-1.77,2.25,2.25,0,0,0-.59-1.66,2,2,0,0,0-1.55-.61,2.15,2.15,0,0,0-1.07.27,2,2,0,0,0-.75.7l-1.16-.15,1-5.15h5v1.18h-4l-.54,2.69a3.25,3.25,0,0,1,1.89-.63,3,3,0,0,1,2.22.91,3.2,3.2,0,0,1,.9,2.34,3.7,3.7,0,0,1-.79,2.35,3.2,3.2,0,0,1-2.64,1.22,3.25,3.25,0,0,1-2.23-.77A3,3,0,0,1,208.55,28Z" transform="translate(-9.68 -5.97)"/><path class="cls-2" d="M141.53,47.41l-2.66-10h1.36L141.75,44c.17.69.31,1.37.43,2,.25-1.07.4-1.68.45-1.85l1.91-6.77h1.59l1.44,5.08a26.85,26.85,0,0,1,.78,3.54c.13-.63.29-1.36.5-2.18l1.57-6.44h1.33l-2.74,10h-1.28l-2.11-7.63c-.18-.64-.29-1-.32-1.18-.1.46-.2.86-.29,1.18l-2.13,7.63Z" transform="translate(-9.68 -5.97)"/><path class="cls-2" d="M157.05,46.52a4.46,4.46,0,0,1-1.31.82,3.85,3.85,0,0,1-1.36.24,2.64,2.64,0,0,1-1.84-.59,1.91,1.91,0,0,1-.64-1.49,2,2,0,0,1,.24-1,1.91,1.91,0,0,1,.64-.71,2.83,2.83,0,0,1,.88-.4,7.8,7.8,0,0,1,1.09-.19,11.73,11.73,0,0,0,2.2-.42c0-.17,0-.28,0-.32a1.35,1.35,0,0,0-.35-1.06,2.05,2.05,0,0,0-1.4-.42,2.23,2.23,0,0,0-1.29.3,1.93,1.93,0,0,0-.61,1.08l-1.2-.16a3,3,0,0,1,.54-1.25,2.31,2.31,0,0,1,1.09-.73,4.82,4.82,0,0,1,1.64-.26,4.23,4.23,0,0,1,1.51.22,2,2,0,0,1,.86.55,1.92,1.92,0,0,1,.38.84,7.09,7.09,0,0,1,.06,1.13v1.64a17.7,17.7,0,0,0,.08,2.17,2.66,2.66,0,0,0,.31.87H157.3A2.58,2.58,0,0,1,157.05,46.52Zm-.1-2.75a9.35,9.35,0,0,1-2,.47,4.54,4.54,0,0,0-1.07.24,1,1,0,0,0-.66,1,1.05,1.05,0,0,0,.37.82,1.6,1.6,0,0,0,1.09.33,2.52,2.52,0,0,0,1.27-.32,1.85,1.85,0,0,0,.81-.85,3,3,0,0,0,.2-1.23Z" transform="translate(-9.68 -5.97)"/><path class="cls-2" d="M162.79,46.31,163,47.4a4.67,4.67,0,0,1-.92.11,2.1,2.1,0,0,1-1-.21,1.17,1.17,0,0,1-.52-.56,4.39,4.39,0,0,1-.15-1.45V41.11h-.91v-1h.91v-1.8l1.22-.74v2.54h1.24v1h-1.24v4.25a2.26,2.26,0,0,0,.06.67.56.56,0,0,0,.22.24.79.79,0,0,0,.42.09A3.14,3.14,0,0,0,162.79,46.31Z" transform="translate(-9.68 -5.97)"/><path class="cls-2" d="M169,45.08l1.27.15A3.08,3.08,0,0,1,169.12,47a3.77,3.77,0,0,1-4.61-.36,3.85,3.85,0,0,1-.93-2.75,4,4,0,0,1,.94-2.85A3.22,3.22,0,0,1,167,40a3.12,3.12,0,0,1,2.38,1,4,4,0,0,1,.92,2.79v.33h-5.42a2.77,2.77,0,0,0,.68,1.83,2,2,0,0,0,1.52.64,1.86,1.86,0,0,0,1.15-.36A2.32,2.32,0,0,0,169,45.08Zm-4-2H169a2.5,2.5,0,0,0-.46-1.38A1.9,1.9,0,0,0,167,41a1.94,1.94,0,0,0-1.42.57A2.22,2.22,0,0,0,164.92,43.09Z" transform="translate(-9.68 -5.97)"/><path class="cls-2" d="M171.76,47.41V40.16h1.11v1.1a2.88,2.88,0,0,1,.78-1,1.35,1.35,0,0,1,.79-.25,2.36,2.36,0,0,1,1.27.4l-.43,1.14a1.74,1.74,0,0,0-.9-.27,1.11,1.11,0,0,0-.72.25,1.25,1.25,0,0,0-.46.67,4.66,4.66,0,0,0-.21,1.43v3.8Z" transform="translate(-9.68 -5.97)"/><path class="cls-2" d="M180,42.47a9.31,9.31,0,0,1,.36-2.86,3.61,3.61,0,0,1,1.09-1.67,2.77,2.77,0,0,1,1.81-.59,3,3,0,0,1,1.42.33,2.69,2.69,0,0,1,1,.93,5,5,0,0,1,.63,1.49,10,10,0,0,1,.22,2.37,9.24,9.24,0,0,1-.36,2.85A3.52,3.52,0,0,1,185.08,47a2.78,2.78,0,0,1-1.83.6,2.75,2.75,0,0,1-2.27-1A6.65,6.65,0,0,1,180,42.47Zm1.26,0a6.25,6.25,0,0,0,.58,3.29,1.65,1.65,0,0,0,2.85,0,6.31,6.31,0,0,0,.58-3.28,6.36,6.36,0,0,0-.58-3.29,1.73,1.73,0,0,0-1.44-.81,1.57,1.57,0,0,0-1.35.72A6.28,6.28,0,0,0,181.25,42.47Z" transform="translate(-9.68 -5.97)"/><path class="cls-2" d="M188.46,47.41V46h1.4v1.4Z" transform="translate(-9.68 -5.97)"/><path class="cls-2" d="M191.66,42.47a9,9,0,0,1,.37-2.86,3.52,3.52,0,0,1,1.08-1.67,2.82,2.82,0,0,1,1.82-.59,2.88,2.88,0,0,1,1.41.33,2.65,2.65,0,0,1,1,.93A5.22,5.22,0,0,1,198,40.1a10,10,0,0,1,.23,2.37,9.24,9.24,0,0,1-.36,2.85A3.61,3.61,0,0,1,196.75,47a3,3,0,0,1-4.1-.44A6.65,6.65,0,0,1,191.66,42.47Zm1.27,0a6.38,6.38,0,0,0,.57,3.29,1.66,1.66,0,0,0,2.86,0,6.34,6.34,0,0,0,.57-3.28,6.38,6.38,0,0,0-.57-3.29,1.73,1.73,0,0,0-1.44-.81,1.58,1.58,0,0,0-1.36.72A6.4,6.4,0,0,0,192.93,42.47Z" transform="translate(-9.68 -5.97)"/><path class="cls-2" d="M199.45,42.47a9.31,9.31,0,0,1,.36-2.86,3.61,3.61,0,0,1,1.09-1.67,2.8,2.8,0,0,1,1.82-.59,2.91,2.91,0,0,1,1.41.33,2.72,2.72,0,0,1,1,.93,5.22,5.22,0,0,1,.62,1.49,10,10,0,0,1,.22,2.37,9.24,9.24,0,0,1-.36,2.85A3.52,3.52,0,0,1,204.54,47a3,3,0,0,1-4.1-.44A6.65,6.65,0,0,1,199.45,42.47Zm1.26,0a6.36,6.36,0,0,0,.58,3.29,1.71,1.71,0,0,0,1.43.81,1.68,1.68,0,0,0,1.42-.82,6.21,6.21,0,0,0,.58-3.28,6.25,6.25,0,0,0-.58-3.29,1.7,1.7,0,0,0-1.44-.81,1.58,1.58,0,0,0-1.35.72A6.28,6.28,0,0,0,200.71,42.47Z" transform="translate(-9.68 -5.97)"/><path class="cls-2" d="M207.23,44.79l1.3-.11a2.29,2.29,0,0,0,.66,1.42,1.79,1.79,0,0,0,1.26.47A2,2,0,0,0,212,45.9a2.49,2.49,0,0,0,.61-1.77,2.25,2.25,0,0,0-.59-1.66,2,2,0,0,0-1.55-.61,2.15,2.15,0,0,0-1.07.27,2,2,0,0,0-.75.7l-1.16-.15,1-5.15h5v1.18h-4l-.54,2.69a3.25,3.25,0,0,1,1.89-.63,3,3,0,0,1,2.22.91,3.18,3.18,0,0,1,.9,2.34,3.7,3.7,0,0,1-.79,2.35,3.2,3.2,0,0,1-2.64,1.22,3.25,3.25,0,0,1-2.23-.77A3.06,3.06,0,0,1,207.23,44.79Z" transform="translate(-9.68 -5.97)"/><rect class="cls-2" x="83.44" y="285.69" width="1" height="81.32"/><polygon class="cls-2" points="81.04 287.67 83.94 276.83 86.85 287.67 81.04 287.67"/><path class="cls-2" d="M30.58,319.36v-1.18h4.25v3.72a7.45,7.45,0,0,1-2,1.17,6,6,0,0,1-2.13.39,5.67,5.67,0,0,1-2.68-.63A4.15,4.15,0,0,1,26.17,321a5.76,5.76,0,0,1-.61-2.67,6.14,6.14,0,0,1,.61-2.73,4.1,4.1,0,0,1,1.76-1.89,5.54,5.54,0,0,1,2.65-.61,5.3,5.3,0,0,1,2,.35,3.26,3.26,0,0,1,1.38,1,4.54,4.54,0,0,1,.76,1.64l-1.2.33a3.73,3.73,0,0,0-.56-1.2,2.22,2.22,0,0,0-1-.7,3.4,3.4,0,0,0-1.38-.27,4.15,4.15,0,0,0-1.57.28,2.9,2.9,0,0,0-1.07.73,3.46,3.46,0,0,0-.63,1,5.15,5.15,0,0,0-.38,2,4.86,4.86,0,0,0,.46,2.24,3,3,0,0,0,1.34,1.34,4.18,4.18,0,0,0,1.87.44,5,5,0,0,0,2.93-1v-1.87Z" transform="translate(-9.68 -5.97)"/><path class="cls-2" d="M47,317.4H40.37v-1.15H47Zm0,3H40.37v-1.15H47Z" transform="translate(-9.68 -5.97)"/><path class="cls-2" d="M30,340.09H28.8v-7.84a7.11,7.11,0,0,1-1.17.85,8.35,8.35,0,0,1-1.29.63v-1.19a7.17,7.17,0,0,0,1.8-1.17,4.71,4.71,0,0,0,1.1-1.34H30Z" transform="translate(-9.68 -5.97)"/><path class="cls-2" d="M37.13,340.09v-2.4H32.78v-1.13l4.57-6.49h1v6.49h1.35v1.13H38.36v2.4Zm0-3.53V332L34,336.56Z" transform="translate(-9.68 -5.97)"/><path class="cls-2" d="M41,335.15a9.27,9.27,0,0,1,.36-2.86,3.61,3.61,0,0,1,1.09-1.67,2.74,2.74,0,0,1,1.81-.59,3.06,3.06,0,0,1,1.42.32,2.65,2.65,0,0,1,1,.94,4.85,4.85,0,0,1,.63,1.49,10,10,0,0,1,.22,2.37,9.33,9.33,0,0,1-.36,2.85,3.52,3.52,0,0,1-1.08,1.67,2.81,2.81,0,0,1-1.83.59,2.72,2.72,0,0,1-2.27-1A6.59,6.59,0,0,1,41,335.15Zm1.26,0a6.21,6.21,0,0,0,.58,3.28,1.65,1.65,0,0,0,2.85,0,9.59,9.59,0,0,0,0-6.57,1.72,1.72,0,0,0-1.44-.81,1.59,1.59,0,0,0-1.35.71A6.32,6.32,0,0,0,42.23,335.15Z" transform="translate(-9.68 -5.97)"/><path class="cls-2" d="M48.75,335.15a9.23,9.23,0,0,1,.37-2.86,3.54,3.54,0,0,1,1.09-1.67A2.72,2.72,0,0,1,52,330a3.06,3.06,0,0,1,1.42.32,2.72,2.72,0,0,1,1,.94,4.84,4.84,0,0,1,.62,1.49,9.89,9.89,0,0,1,.23,2.37,9.33,9.33,0,0,1-.36,2.85,3.61,3.61,0,0,1-1.09,1.67,2.8,2.8,0,0,1-1.82.59,2.74,2.74,0,0,1-2.28-1A6.59,6.59,0,0,1,48.75,335.15Zm1.27,0a6.21,6.21,0,0,0,.58,3.28,1.65,1.65,0,0,0,2.85,0,9.75,9.75,0,0,0,0-6.57,1.73,1.73,0,0,0-1.44-.81,1.6,1.6,0,0,0-1.36.71A6.44,6.44,0,0,0,50,335.15Z" transform="translate(-9.68 -5.97)"/><path class="cls-2" d="M60.78,340.09v-10H62v5.71l2.91-2.95h1.59l-2.77,2.69,3.05,4.57H65.28l-2.4-3.71-.87.83v2.88Z" transform="translate(-9.68 -5.97)"/><path class="cls-2" d="M67.55,340.69l1.19.18a1.14,1.14,0,0,0,.42.81,2.09,2.09,0,0,0,1.25.34,2.26,2.26,0,0,0,1.32-.34,1.7,1.7,0,0,0,.63-1,8.56,8.56,0,0,0,.09-1.58,2.55,2.55,0,0,1-2,.95A2.75,2.75,0,0,1,68.12,339a4.13,4.13,0,0,1-.82-2.59,4.7,4.7,0,0,1,.38-1.92,2.94,2.94,0,0,1,1.09-1.35,2.9,2.9,0,0,1,1.67-.48,2.57,2.57,0,0,1,2.12,1v-.88H73.7v6.28a5.92,5.92,0,0,1-.35,2.4,2.56,2.56,0,0,1-1.09,1.12,3.82,3.82,0,0,1-1.84.41,3.46,3.46,0,0,1-2.1-.59A2,2,0,0,1,67.55,340.69Zm1-4.36a3.16,3.16,0,0,0,.57,2.09,1.82,1.82,0,0,0,1.42.65,1.85,1.85,0,0,0,1.43-.65,3.08,3.08,0,0,0,.57-2.05,3,3,0,0,0-.59-2,1.84,1.84,0,0,0-1.43-.67,1.78,1.78,0,0,0-1.39.66A3,3,0,0,0,68.56,336.33Z" transform="translate(-9.68 -5.97)"/><path class="cls-2" d="M74.63,340.26l2.91-10.36h1l-2.89,10.36Z" transform="translate(-9.68 -5.97)"/><path class="cls-2" d="M79.45,340.09v-10h1.23v3.59a2.75,2.75,0,0,1,2.17-1,2.92,2.92,0,0,1,1.4.31,1.9,1.9,0,0,1,.85.88,4.1,4.1,0,0,1,.26,1.63v4.6H84.13v-4.6a1.87,1.87,0,0,0-.4-1.34,1.49,1.49,0,0,0-1.13-.42,2,2,0,0,0-1,.28,1.65,1.65,0,0,0-.69.77,3.67,3.67,0,0,0-.2,1.34v4Z" transform="translate(-9.68 -5.97)"/><path class="cls-2" d="M10.73,364.08v-10h1.32v8.84H17v1.18Z" transform="translate(-9.68 -5.97)"/><path class="cls-2" d="M23.17,364.08V363a2.66,2.66,0,0,1-2.31,1.23,2.82,2.82,0,0,1-1.19-.25,1.89,1.89,0,0,1-.83-.62,2.22,2.22,0,0,1-.38-.91,6.12,6.12,0,0,1-.08-1.15v-4.5h1.23v4a7.06,7.06,0,0,0,.08,1.3,1.29,1.29,0,0,0,.49.76,1.49,1.49,0,0,0,.93.28,2,2,0,0,0,1-.29,1.57,1.57,0,0,0,.69-.77,4,4,0,0,0,.2-1.42v-3.89h1.23v7.26Z" transform="translate(-9.68 -5.97)"/><path class="cls-2" d="M30.93,361.43l1.21.15a3.13,3.13,0,0,1-1,2,3,3,0,0,1-2,.71,3.11,3.11,0,0,1-2.39-1,3.91,3.91,0,0,1-.91-2.79,5.08,5.08,0,0,1,.39-2.06,2.74,2.74,0,0,1,1.19-1.32,3.53,3.53,0,0,1,1.73-.44,3,3,0,0,1,1.93.6,2.69,2.69,0,0,1,1,1.7l-1.2.18a2,2,0,0,0-.6-1.1,1.6,1.6,0,0,0-1.05-.37,1.88,1.88,0,0,0-1.51.67,3.15,3.15,0,0,0-.58,2.11,3.22,3.22,0,0,0,.56,2.12,1.8,1.8,0,0,0,1.46.67,1.71,1.71,0,0,0,1.21-.45A2.16,2.16,0,0,0,30.93,361.43Z" transform="translate(-9.68 -5.97)"/><path class="cls-2" d="M33.2,364.08v-10h1.23v3.6a2.73,2.73,0,0,1,2.17-1A2.92,2.92,0,0,1,38,357a1.81,1.81,0,0,1,.85.88,4,4,0,0,1,.26,1.62v4.6H37.88v-4.6a1.88,1.88,0,0,0-.4-1.34,1.49,1.49,0,0,0-1.13-.42,2,2,0,0,0-1,.28,1.65,1.65,0,0,0-.69.77,3.71,3.71,0,0,0-.2,1.34v4Z" transform="translate(-9.68 -5.97)"/><path class="cls-2" d="M43.67,363l.18,1.09a4.85,4.85,0,0,1-.93.11,2.1,2.1,0,0,1-1-.21,1.17,1.17,0,0,1-.52-.56,4.39,4.39,0,0,1-.15-1.45v-4.18h-.9v-1h.9V355l1.22-.74v2.53h1.24v1H42.43V362a1.87,1.87,0,0,0,.07.67.49.49,0,0,0,.21.24.82.82,0,0,0,.42.09A3,3,0,0,0,43.67,363Z" transform="translate(-9.68 -5.97)"/><path class="cls-2" d="M60.09,359.14a9,9,0,0,1,.37-2.86,3.52,3.52,0,0,1,1.08-1.67,2.8,2.8,0,0,1,1.82-.59,2.91,2.91,0,0,1,1.41.33,2.72,2.72,0,0,1,1,.93,5.22,5.22,0,0,1,.62,1.49,10,10,0,0,1,.22,2.37,9.24,9.24,0,0,1-.36,2.85,3.52,3.52,0,0,1-1.08,1.67,3,3,0,0,1-4.1-.44A6.65,6.65,0,0,1,60.09,359.14Zm1.26,0a6.36,6.36,0,0,0,.58,3.29,1.71,1.71,0,0,0,1.43.81,1.68,1.68,0,0,0,1.42-.82,9.59,9.59,0,0,0,0-6.57,1.7,1.7,0,0,0-1.44-.81,1.58,1.58,0,0,0-1.35.72A6.38,6.38,0,0,0,61.35,359.14Z" transform="translate(-9.68 -5.97)"/><path class="cls-2" d="M68.57,364.08v-1.4H70v1.4Z" transform="translate(-9.68 -5.97)"/><path class="cls-2" d="M72,361.77l1.18-.11a2,2,0,0,0,.58,1.21,1.56,1.56,0,0,0,1.08.37,1.84,1.84,0,0,0,1-.26,2.1,2.1,0,0,0,.7-.69,4.38,4.38,0,0,0,.46-1.17,6.37,6.37,0,0,0,.18-1.51c0-.05,0-.13,0-.24a2.77,2.77,0,0,1-1,.95,2.81,2.81,0,0,1-1.39.37,2.76,2.76,0,0,1-2.1-.91,3.26,3.26,0,0,1-.86-2.37,3.42,3.42,0,0,1,.89-2.46,3,3,0,0,1,2.26-.93,3.2,3.2,0,0,1,1.78.53,3.28,3.28,0,0,1,1.23,1.5,7.37,7.37,0,0,1,.43,2.82,9.08,9.08,0,0,1-.42,3.06,3.59,3.59,0,0,1-1.24,1.73,3.21,3.21,0,0,1-1.93.6A2.67,2.67,0,0,1,72,361.77Zm5-4.43a2.41,2.41,0,0,0-.57-1.68,1.76,1.76,0,0,0-1.35-.62,1.85,1.85,0,0,0-1.43.67,2.48,2.48,0,0,0-.61,1.74,2.13,2.13,0,0,0,.58,1.55,1.89,1.89,0,0,0,1.42.6,1.84,1.84,0,0,0,1.41-.6A2.39,2.39,0,0,0,77,357.34Z" transform="translate(-9.68 -5.97)"/><path class="cls-2" d="M79.55,361.46l1.29-.11a2.35,2.35,0,0,0,.67,1.42,1.79,1.79,0,0,0,1.26.47,2,2,0,0,0,1.5-.67,2.47,2.47,0,0,0,.62-1.77,2.27,2.27,0,0,0-.59-1.66,2.06,2.06,0,0,0-1.55-.61,2.13,2.13,0,0,0-1.07.27,2,2,0,0,0-.75.7l-1.16-.15,1-5.15h5v1.18h-4l-.54,2.69a3.25,3.25,0,0,1,1.89-.63,3,3,0,0,1,2.21.91,3.15,3.15,0,0,1,.91,2.34,3.65,3.65,0,0,1-.8,2.35,3.18,3.18,0,0,1-2.63,1.22,3.25,3.25,0,0,1-2.23-.77A3,3,0,0,1,79.55,361.46Z" transform="translate(-9.68 -5.97)"/><path class="cls-2" d="M9.68,380.88l3.85-10H15l4.1,10H17.55l-1.17-3H12.19l-1.1,3Zm2.89-4.11H16L14.92,374c-.31-.84-.55-1.53-.71-2.07a11.13,11.13,0,0,1-.54,1.91Z" transform="translate(-9.68 -5.97)"/><path class="cls-2" d="M24.7,378.23l1.21.15a3.09,3.09,0,0,1-1,2,3,3,0,0,1-2,.71,3.13,3.13,0,0,1-2.4-1,4,4,0,0,1-.9-2.79,5.08,5.08,0,0,1,.39-2.06,2.72,2.72,0,0,1,1.18-1.32,3.57,3.57,0,0,1,1.74-.44,3,3,0,0,1,1.93.6,2.73,2.73,0,0,1,1,1.7l-1.19.18a2,2,0,0,0-.61-1.1,1.6,1.6,0,0,0-1-.37,1.9,1.9,0,0,0-1.51.67,3.15,3.15,0,0,0-.58,2.11,3.28,3.28,0,0,0,.56,2.12,1.81,1.81,0,0,0,1.46.67,1.69,1.69,0,0,0,1.21-.45A2.17,2.17,0,0,0,24.7,378.23Z" transform="translate(-9.68 -5.97)"/><path class="cls-2" d="M31.93,378.55l1.27.15a3.08,3.08,0,0,1-1.11,1.73,3.36,3.36,0,0,1-2.08.62,3.32,3.32,0,0,1-2.52-1,3.81,3.81,0,0,1-.94-2.75,4,4,0,0,1,.95-2.85,3.18,3.18,0,0,1,2.44-1,3.1,3.1,0,0,1,2.38,1,3.91,3.91,0,0,1,.92,2.79v.33H27.82a2.77,2.77,0,0,0,.68,1.83A2,2,0,0,0,30,380a1.86,1.86,0,0,0,1.15-.36A2.3,2.3,0,0,0,31.93,378.55Zm-4-2H32a2.5,2.5,0,0,0-.47-1.38,1.89,1.89,0,0,0-1.52-.71,2,2,0,0,0-1.43.57A2.26,2.26,0,0,0,27.89,376.56Z" transform="translate(-9.68 -5.97)"/><path class="cls-2" d="M37.44,379.78l.17,1.09a4.68,4.68,0,0,1-.93.11,2.15,2.15,0,0,1-1-.21,1.22,1.22,0,0,1-.52-.56,4.39,4.39,0,0,1-.15-1.45v-4.18h-.9v-1H35v-1.79l1.23-.74v2.53h1.24v1H36.2v4.25a2.26,2.26,0,0,0,.06.67.61.61,0,0,0,.21.24.83.83,0,0,0,.43.09A3.14,3.14,0,0,0,37.44,379.78Z" transform="translate(-9.68 -5.97)"/><path class="cls-2" d="M38.18,377.25a3.71,3.71,0,0,1,1.12-3,3.39,3.39,0,0,1,2.28-.81,3.27,3.27,0,0,1,2.45,1,3.72,3.72,0,0,1,.95,2.71,4.83,4.83,0,0,1-.42,2.21,3,3,0,0,1-1.22,1.24,3.55,3.55,0,0,1-1.76.45,3.28,3.28,0,0,1-2.46-1A3.89,3.89,0,0,1,38.18,377.25Zm1.26,0a3.12,3.12,0,0,0,.61,2.09,2,2,0,0,0,3.06,0,3.2,3.2,0,0,0,.61-2.13,3.07,3.07,0,0,0-.61-2,2,2,0,0,0-3.06,0A3.09,3.09,0,0,0,39.44,377.25Z" transform="translate(-9.68 -5.97)"/><path class="cls-2" d="M46.42,380.88v-7.26h1.11v1a2.62,2.62,0,0,1,2.31-1.2,3,3,0,0,1,1.21.24,1.83,1.83,0,0,1,.82.61,2.59,2.59,0,0,1,.39.91,8.09,8.09,0,0,1,.06,1.2v4.46H51.09v-4.41a3.27,3.27,0,0,0-.14-1.13,1.26,1.26,0,0,0-.51-.59,1.6,1.6,0,0,0-.86-.22,2,2,0,0,0-1.35.5,2.45,2.45,0,0,0-.58,1.89v4Z" transform="translate(-9.68 -5.97)"/><path class="cls-2" d="M57.76,375.94a9.31,9.31,0,0,1,.36-2.86,3.61,3.61,0,0,1,1.09-1.67,2.8,2.8,0,0,1,1.82-.59,2.91,2.91,0,0,1,1.41.33,2.72,2.72,0,0,1,1,.93,5.22,5.22,0,0,1,.62,1.49,10,10,0,0,1,.22,2.37,9.24,9.24,0,0,1-.36,2.85,3.52,3.52,0,0,1-1.08,1.67,3,3,0,0,1-4.1-.44A6.65,6.65,0,0,1,57.76,375.94Zm1.26,0a6.36,6.36,0,0,0,.58,3.29A1.71,1.71,0,0,0,61,380a1.68,1.68,0,0,0,1.42-.82,9.59,9.59,0,0,0,0-6.57,1.7,1.7,0,0,0-1.44-.81,1.58,1.58,0,0,0-1.35.72A6.28,6.28,0,0,0,59,375.94Z" transform="translate(-9.68 -5.97)"/><path class="cls-2" d="M66.23,380.88v-1.4h1.41v1.4Z" transform="translate(-9.68 -5.97)"/><path class="cls-2" d="M69.43,375.94a9.28,9.28,0,0,1,.37-2.86,3.54,3.54,0,0,1,1.09-1.67,2.77,2.77,0,0,1,1.81-.59,3,3,0,0,1,1.42.33,2.69,2.69,0,0,1,1,.93,5,5,0,0,1,.62,1.49,10,10,0,0,1,.23,2.37,9.24,9.24,0,0,1-.36,2.85,3.54,3.54,0,0,1-1.09,1.67,3,3,0,0,1-4.09-.44A6.57,6.57,0,0,1,69.43,375.94Zm1.27,0a6.25,6.25,0,0,0,.58,3.29,1.65,1.65,0,0,0,2.85,0,9.75,9.75,0,0,0,0-6.57,1.73,1.73,0,0,0-1.44-.81,1.58,1.58,0,0,0-1.36.72A6.4,6.4,0,0,0,70.7,375.94Z" transform="translate(-9.68 -5.97)"/><path class="cls-2" d="M77.23,378.24l1.23-.17a2.71,2.71,0,0,0,.72,1.51,1.76,1.76,0,0,0,1.24.46,2,2,0,0,0,1.47-.6,2.06,2.06,0,0,0,.59-1.49,1.9,1.9,0,0,0-.55-1.4,2,2,0,0,0-1.41-.55,3.67,3.67,0,0,0-.87.14l.14-1.08H80a2.48,2.48,0,0,0,1.41-.41A1.39,1.39,0,0,0,82,373.4a1.47,1.47,0,0,0-.46-1.12,1.59,1.59,0,0,0-1.18-.45,1.65,1.65,0,0,0-1.19.45,2.31,2.31,0,0,0-.62,1.36l-1.23-.22a3.14,3.14,0,0,1,1-1.92,3,3,0,0,1,2-.68,3.36,3.36,0,0,1,1.52.35,2.58,2.58,0,0,1,1.05,1,2.44,2.44,0,0,1,.37,1.3,2.15,2.15,0,0,1-.35,1.18,2.44,2.44,0,0,1-1,.85,2.31,2.31,0,0,1,1.38.85,2.57,2.57,0,0,1,.49,1.61,3,3,0,0,1-1,2.23,3.35,3.35,0,0,1-2.42.91,3.16,3.16,0,0,1-2.19-.78A3.06,3.06,0,0,1,77.23,378.24Z" transform="translate(-9.68 -5.97)"/><path class="cls-2" d="M12.53,397.68l-2.66-10h1.36l1.53,6.57c.16.69.3,1.37.42,2l.45-1.85,1.91-6.77h1.6l1.43,5.07a27.34,27.34,0,0,1,.78,3.55c.13-.63.3-1.36.5-2.18l1.58-6.44h1.33l-2.75,10H18.73l-2.11-7.63c-.18-.64-.28-1-.31-1.18-.11.46-.21.86-.3,1.18l-2.12,7.63Z" transform="translate(-9.68 -5.97)"/><path class="cls-2" d="M28.06,396.79a4.63,4.63,0,0,1-1.32.82,3.78,3.78,0,0,1-1.36.24,2.66,2.66,0,0,1-1.84-.59,1.94,1.94,0,0,1-.64-1.49,2,2,0,0,1,.24-1,2.1,2.1,0,0,1,.64-.71,2.88,2.88,0,0,1,.89-.4,7.53,7.53,0,0,1,1.09-.19,11.76,11.76,0,0,0,2.19-.42c0-.17,0-.28,0-.32a1.35,1.35,0,0,0-.35-1.06,2,2,0,0,0-1.4-.42,2.18,2.18,0,0,0-1.28.3,1.84,1.84,0,0,0-.61,1.08l-1.21-.16a2.94,2.94,0,0,1,.54-1.25,2.36,2.36,0,0,1,1.09-.73,4.84,4.84,0,0,1,1.65-.26,4.27,4.27,0,0,1,1.51.22,1.9,1.9,0,0,1,.85.55,1.93,1.93,0,0,1,.39.84A7,7,0,0,1,29.2,393v1.64a15.77,15.77,0,0,0,.08,2.17,2.45,2.45,0,0,0,.31.87H28.3A2.38,2.38,0,0,1,28.06,396.79ZM28,394a9.05,9.05,0,0,1-2,.47,4.67,4.67,0,0,0-1.07.24,1.06,1.06,0,0,0-.48.4,1,1,0,0,0-.18.59,1.06,1.06,0,0,0,.38.82,1.65,1.65,0,0,0,1.09.32,2.5,2.5,0,0,0,1.26-.31,1.92,1.92,0,0,0,.82-.85,3,3,0,0,0,.19-1.23Z" transform="translate(-9.68 -5.97)"/><path class="cls-2" d="M33.79,396.58l.18,1.09a4.85,4.85,0,0,1-.93.11,2.13,2.13,0,0,1-1-.21,1.17,1.17,0,0,1-.52-.56,4.39,4.39,0,0,1-.15-1.45v-4.18h-.9v-1h.9v-1.79l1.22-.74v2.53h1.24v1H32.55v4.25a2.14,2.14,0,0,0,.07.67.49.49,0,0,0,.21.24.82.82,0,0,0,.42.09A3,3,0,0,0,33.79,396.58Z" transform="translate(-9.68 -5.97)"/><path class="cls-2" d="M40,395.35l1.28.15a3.1,3.1,0,0,1-1.12,1.73,3.76,3.76,0,0,1-4.6-.36,3.85,3.85,0,0,1-.94-2.75,4,4,0,0,1,1-2.85,3.2,3.2,0,0,1,2.45-1,3.08,3.08,0,0,1,2.37,1,3.92,3.92,0,0,1,.93,2.79c0,.07,0,.18,0,.33H35.86a2.77,2.77,0,0,0,.67,1.83,2,2,0,0,0,1.52.64,1.88,1.88,0,0,0,1.16-.36A2.36,2.36,0,0,0,40,395.35Zm-4-2H40a2.5,2.5,0,0,0-.47-1.38,1.89,1.89,0,0,0-1.52-.71,2,2,0,0,0-1.43.57A2.31,2.31,0,0,0,35.92,393.36Z" transform="translate(-9.68 -5.97)"/><path class="cls-2" d="M42.77,397.68v-7.26h1.1v1.1a3,3,0,0,1,.79-1,1.33,1.33,0,0,1,.79-.25,2.36,2.36,0,0,1,1.26.4l-.42,1.14a1.74,1.74,0,0,0-.9-.27,1.21,1.21,0,0,0-.73.24,1.38,1.38,0,0,0-.46.68,5,5,0,0,0-.2,1.43v3.8Z" transform="translate(-9.68 -5.97)"/><path class="cls-2" d="M58.77,392.74a9,9,0,0,1,.37-2.86,3.52,3.52,0,0,1,1.08-1.67,2.8,2.8,0,0,1,1.82-.59,2.88,2.88,0,0,1,1.41.33,2.72,2.72,0,0,1,1,.93,5.22,5.22,0,0,1,.62,1.49,10,10,0,0,1,.23,2.37,9.21,9.21,0,0,1-.37,2.85,3.52,3.52,0,0,1-1.08,1.67,3.07,3.07,0,0,1-4.1-.44A6.65,6.65,0,0,1,58.77,392.74Zm1.26,0a6.36,6.36,0,0,0,.58,3.29,1.71,1.71,0,0,0,1.43.81,1.68,1.68,0,0,0,1.42-.82,9.59,9.59,0,0,0,0-6.57,1.7,1.7,0,0,0-1.44-.81,1.58,1.58,0,0,0-1.35.72A6.38,6.38,0,0,0,60,392.74Z" transform="translate(-9.68 -5.97)"/><path class="cls-2" d="M67.25,397.68v-1.4h1.4v1.4Z" transform="translate(-9.68 -5.97)"/><path class="cls-2" d="M70.45,392.74a9.31,9.31,0,0,1,.36-2.86,3.61,3.61,0,0,1,1.09-1.67,2.77,2.77,0,0,1,1.81-.59,3,3,0,0,1,1.42.33,2.69,2.69,0,0,1,1,.93,5,5,0,0,1,.63,1.49,10,10,0,0,1,.22,2.37,9.24,9.24,0,0,1-.36,2.85,3.52,3.52,0,0,1-1.08,1.67,2.77,2.77,0,0,1-1.83.59,2.74,2.74,0,0,1-2.27-1A6.65,6.65,0,0,1,70.45,392.74Zm1.26,0a6.25,6.25,0,0,0,.58,3.29,1.65,1.65,0,0,0,2.85,0,9.59,9.59,0,0,0,0-6.57,1.73,1.73,0,0,0-1.44-.81,1.56,1.56,0,0,0-1.35.72A6.28,6.28,0,0,0,71.71,392.74Z" transform="translate(-9.68 -5.97)"/><path class="cls-2" d="M84.7,396.5v1.18H78.07a2.24,2.24,0,0,1,.15-.85A4.49,4.49,0,0,1,79,395.5,12.25,12.25,0,0,1,80.64,394a13.91,13.91,0,0,0,2.21-2.12,2.58,2.58,0,0,0,.57-1.48,1.65,1.65,0,0,0-.52-1.24,1.92,1.92,0,0,0-1.37-.5,2,2,0,0,0-1.42.53,2.08,2.08,0,0,0-.54,1.48l-1.26-.13a3.13,3.13,0,0,1,1-2.16,3.38,3.38,0,0,1,2.28-.74,3.18,3.18,0,0,1,2.28.8,2.64,2.64,0,0,1,.85,2,3.1,3.1,0,0,1-.25,1.19,4.92,4.92,0,0,1-.82,1.22,19,19,0,0,1-1.89,1.76c-.74.62-1.22,1-1.43,1.26a4.88,4.88,0,0,0-.52.67Z" transform="translate(-9.68 -5.97)"/><rect class="cls-1" x="231.52" y="104.1" width="72.84" height="233.08"/><path class="cls-2" d="M314.54,343.65H240.7V109.57h73.84Zm-72.84-1h71.84V110.57H241.7Z" transform="translate(-9.68 -5.97)"/><path class="cls-2" d="M273.58,186.5l1.25-.11a2.71,2.71,0,0,0,.42,1.23,2.25,2.25,0,0,0,1,.78,3.81,3.81,0,0,0,1.54.3,3.69,3.69,0,0,0,1.34-.23,1.81,1.81,0,0,0,.87-.62,1.4,1.4,0,0,0,.28-.85,1.33,1.33,0,0,0-.27-.83,2.14,2.14,0,0,0-.91-.59,17.71,17.71,0,0,0-1.78-.49,9.24,9.24,0,0,1-1.93-.62,2.69,2.69,0,0,1-1.07-.94,2.22,2.22,0,0,1-.36-1.24,2.6,2.6,0,0,1,.43-1.42,2.64,2.64,0,0,1,1.26-1,4.75,4.75,0,0,1,1.84-.35,5.05,5.05,0,0,1,2,.36,2.88,2.88,0,0,1,1.31,1.06,3.13,3.13,0,0,1,.49,1.58l-1.27.09a2,2,0,0,0-.7-1.43,2.64,2.64,0,0,0-1.74-.49,2.84,2.84,0,0,0-1.76.44,1.36,1.36,0,0,0-.55,1.07,1.15,1.15,0,0,0,.39.89,5.3,5.3,0,0,0,2,.71,13,13,0,0,1,2.22.64,3.09,3.09,0,0,1,1.29,1,2.48,2.48,0,0,1,.42,1.43,2.67,2.67,0,0,1-.46,1.5,2.94,2.94,0,0,1-1.32,1.1,4.44,4.44,0,0,1-1.93.4,5.89,5.89,0,0,1-2.28-.4,3.18,3.18,0,0,1-1.44-1.19A3.38,3.38,0,0,1,273.58,186.5Z" transform="translate(-9.68 -5.97)"/><path class="cls-2" d="M277,203.72v-8.84h-3.3v-1.19h7.95v1.19H278.3v8.84Z" transform="translate(-9.68 -5.97)"/><path class="cls-2" d="M273.67,217.72v-10h4.44a6,6,0,0,1,2,.27,2.24,2.24,0,0,1,1.11,1,2.82,2.82,0,0,1,.42,1.51,2.53,2.53,0,0,1-.69,1.8,3.58,3.58,0,0,1-2.14.93,3.08,3.08,0,0,1,.8.5,6.49,6.49,0,0,1,1.1,1.33l1.75,2.73h-1.67l-1.33-2.09c-.38-.6-.7-1.06-.95-1.38a3,3,0,0,0-.68-.67,1.89,1.89,0,0,0-.6-.27,4.4,4.4,0,0,0-.74,0H275v4.45Zm1.32-5.6h2.85a4.12,4.12,0,0,0,1.42-.19,1.5,1.5,0,0,0,.78-.6,1.63,1.63,0,0,0,.27-.9,1.49,1.49,0,0,0-.52-1.17,2.42,2.42,0,0,0-1.63-.46H275Z" transform="translate(-9.68 -5.97)"/><path class="cls-2" d="M277,231.72v-10h1.33v10Z" transform="translate(-9.68 -5.97)"/><path class="cls-2" d="M274,245.72v-10h3.78a9.49,9.49,0,0,1,1.53.1,3,3,0,0,1,1.23.47,2.44,2.44,0,0,1,.81,1,3.28,3.28,0,0,1-.51,3.53,3.9,3.9,0,0,1-2.94.88h-2.57v4.08Zm1.33-5.26H278a2.72,2.72,0,0,0,1.82-.48,1.71,1.71,0,0,0,.54-1.35,1.8,1.8,0,0,0-.31-1.07,1.5,1.5,0,0,0-.84-.59,5.62,5.62,0,0,0-1.24-.09h-2.56Z" transform="translate(-9.68 -5.97)"/><path class="cls-2" d="M274,259.72v-10h3.78a9.49,9.49,0,0,1,1.53.1,3,3,0,0,1,1.23.47,2.44,2.44,0,0,1,.81,1,3.28,3.28,0,0,1-.51,3.53,3.9,3.9,0,0,1-2.94.88h-2.57v4.08Zm1.33-5.26H278a2.72,2.72,0,0,0,1.82-.48,1.71,1.71,0,0,0,.54-1.35,1.8,1.8,0,0,0-.31-1.07,1.5,1.5,0,0,0-.84-.59,5.62,5.62,0,0,0-1.24-.09h-2.56Z" transform="translate(-9.68 -5.97)"/><path class="cls-2" d="M274.06,273.72v-10h7.25v1.19h-5.92V268h5.54v1.17h-5.54v3.41h6.15v1.19Z" transform="translate(-9.68 -5.97)"/><path class="cls-2" d="M273.67,287.72v-10h4.44a6,6,0,0,1,2,.27,2.24,2.24,0,0,1,1.11,1,2.82,2.82,0,0,1,.42,1.51,2.53,2.53,0,0,1-.69,1.8,3.58,3.58,0,0,1-2.14.93,3.08,3.08,0,0,1,.8.5,6.49,6.49,0,0,1,1.1,1.33l1.75,2.73h-1.67l-1.33-2.09c-.38-.6-.7-1.06-.95-1.38a3,3,0,0,0-.68-.67,1.89,1.89,0,0,0-.6-.27,4.4,4.4,0,0,0-.74,0H275v4.45Zm1.32-5.6h2.85a4.37,4.37,0,0,0,1.42-.19,1.5,1.5,0,0,0,.78-.6,1.63,1.63,0,0,0,.27-.9,1.49,1.49,0,0,0-.52-1.17,2.37,2.37,0,0,0-1.63-.46H275Z" transform="translate(-9.68 -5.97)"/><polygon class="cls-2" points="185.37 337.68 117.66 337.68 117.66 276.83 118.66 276.83 118.66 336.68 184.37 336.68 184.37 119.92 222.66 119.92 222.66 120.92 185.37 120.92 185.37 337.68"/><polygon class="cls-2" points="220.68 117.51 231.52 120.42 220.68 123.32 220.68 117.51"/><path class="cls-2" d="M155.4,359.46v-10h6.77v1.18h-5.44v3.11h4.7v1.18h-4.7v4.55Z" transform="translate(-9.68 -5.97)"/><path class="cls-2" d="M174.09,353.57h-6.61v-1.15h6.61Zm0,3h-6.61v-1.15h6.61Z" transform="translate(-9.68 -5.97)"/><path class="cls-2" d="M145.75,375.08v1.18h-6.63a2.23,2.23,0,0,1,.14-.85,4.66,4.66,0,0,1,.81-1.34,13.75,13.75,0,0,1,1.61-1.51,13.43,13.43,0,0,0,2.21-2.13,2.49,2.49,0,0,0,.58-1.48,1.66,1.66,0,0,0-.53-1.23,1.88,1.88,0,0,0-1.36-.5,1.93,1.93,0,0,0-1.42.53,2,2,0,0,0-.54,1.48l-1.27-.13a3.16,3.16,0,0,1,1-2.16,3.36,3.36,0,0,1,2.28-.74,3.18,3.18,0,0,1,2.28.8,2.61,2.61,0,0,1,.84,2,3,3,0,0,1-.24,1.18,4.78,4.78,0,0,1-.82,1.23,19.43,19.43,0,0,1-1.9,1.76c-.74.62-1.21,1-1.42,1.26a4.34,4.34,0,0,0-.52.67Z" transform="translate(-9.68 -5.97)"/><path class="cls-2" d="M153.53,375.08v1.18h-6.62a2.23,2.23,0,0,1,.14-.85,4.66,4.66,0,0,1,.81-1.34,13,13,0,0,1,1.61-1.51,13.43,13.43,0,0,0,2.21-2.13,2.54,2.54,0,0,0,.57-1.48,1.65,1.65,0,0,0-.52-1.23,1.9,1.9,0,0,0-1.36-.5,2,2,0,0,0-1.43.53,2.08,2.08,0,0,0-.54,1.48l-1.26-.13a3.11,3.11,0,0,1,1-2.16,3.33,3.33,0,0,1,2.27-.74,3.19,3.19,0,0,1,2.29.8,2.61,2.61,0,0,1,.84,2,2.88,2.88,0,0,1-.25,1.18,4.31,4.31,0,0,1-.82,1.23,20.28,20.28,0,0,1-1.89,1.76c-.74.62-1.21,1-1.42,1.26a3.8,3.8,0,0,0-.52.67Z" transform="translate(-9.68 -5.97)"/><path class="cls-2" d="M159.49,376.26h-1.24v-7.84a6.12,6.12,0,0,1-1.16.85,8,8,0,0,1-1.3.63v-1.18a7.75,7.75,0,0,0,1.81-1.18,4.65,4.65,0,0,0,1.09-1.34h.8Z" transform="translate(-9.68 -5.97)"/><path class="cls-2" d="M163.33,376.26v-1.4h1.4v1.4Z" transform="translate(-9.68 -5.97)"/><path class="cls-2" d="M166.53,371.32a9.27,9.27,0,0,1,.36-2.86,3.61,3.61,0,0,1,1.09-1.67,2.74,2.74,0,0,1,1.81-.59,3.06,3.06,0,0,1,1.42.32,2.72,2.72,0,0,1,1,.94,5,5,0,0,1,.63,1.49,10,10,0,0,1,.22,2.37,9.29,9.29,0,0,1-.36,2.85,3.52,3.52,0,0,1-1.08,1.67,2.77,2.77,0,0,1-1.83.59,2.72,2.72,0,0,1-2.27-1A6.59,6.59,0,0,1,166.53,371.32Zm1.26,0a6.21,6.21,0,0,0,.58,3.28,1.65,1.65,0,0,0,2.85,0,9.59,9.59,0,0,0,0-6.57,1.73,1.73,0,0,0-1.44-.81,1.57,1.57,0,0,0-1.35.72A6.26,6.26,0,0,0,167.79,371.32Z" transform="translate(-9.68 -5.97)"/><path class="cls-2" d="M174.31,373.64l1.29-.11a2.35,2.35,0,0,0,.67,1.42,1.84,1.84,0,0,0,1.26.47,2,2,0,0,0,1.51-.67,2.53,2.53,0,0,0,.61-1.78,2.31,2.31,0,0,0-.59-1.66,2.08,2.08,0,0,0-1.55-.61,2.15,2.15,0,0,0-1.07.27,2.05,2.05,0,0,0-.75.71l-1.16-.16,1-5.14h5v1.17h-4l-.54,2.7a3.25,3.25,0,0,1,1.89-.63,3,3,0,0,1,2.21.91,3.13,3.13,0,0,1,.91,2.33,3.66,3.66,0,0,1-.8,2.36,3.17,3.17,0,0,1-2.63,1.21,3.24,3.24,0,0,1-2.23-.76A3,3,0,0,1,174.31,373.64Z" transform="translate(-9.68 -5.97)"/><path class="cls-2" d="M186.34,376.26v-10h1.23V372l2.91-3h1.59l-2.77,2.7,3,4.56h-1.51l-2.4-3.71-.87.83v2.88Z" transform="translate(-9.68 -5.97)"/><path class="cls-2" d="M193.1,376.86l1.2.18a1.14,1.14,0,0,0,.42.81,2,2,0,0,0,1.25.34,2.18,2.18,0,0,0,1.32-.34,1.7,1.7,0,0,0,.63-1,8.56,8.56,0,0,0,.09-1.58,2.55,2.55,0,0,1-2,.95,2.75,2.75,0,0,1-2.32-1.08,4.13,4.13,0,0,1-.82-2.59,4.87,4.87,0,0,1,.37-1.92,3.06,3.06,0,0,1,1.09-1.35,3,3,0,0,1,1.68-.48,2.57,2.57,0,0,1,2.12,1V369h1.14v6.28a5.92,5.92,0,0,1-.35,2.4,2.56,2.56,0,0,1-1.09,1.12,3.85,3.85,0,0,1-1.84.41,3.46,3.46,0,0,1-2.1-.59A2,2,0,0,1,193.1,376.86Zm1-4.36a3.16,3.16,0,0,0,.57,2.09,1.82,1.82,0,0,0,1.42.65,1.79,1.79,0,0,0,1.42-.65,3.81,3.81,0,0,0,0-4.06,1.84,1.84,0,0,0-1.43-.67,1.77,1.77,0,0,0-1.39.66A2.94,2.94,0,0,0,194.12,372.5Z" transform="translate(-9.68 -5.97)"/><path class="cls-2" d="M200.19,376.43l2.91-10.36h1l-2.9,10.36Z" transform="translate(-9.68 -5.97)"/><path class="cls-2" d="M205,376.26v-10h1.23v3.6a2.73,2.73,0,0,1,2.17-1,2.81,2.81,0,0,1,1.4.32,1.84,1.84,0,0,1,.85.87,4.1,4.1,0,0,1,.26,1.63v4.6h-1.23v-4.6a1.88,1.88,0,0,0-.4-1.34,1.49,1.49,0,0,0-1.13-.42,2,2,0,0,0-1,.28,1.65,1.65,0,0,0-.69.77,3.47,3.47,0,0,0-.2,1.34v4Z" transform="translate(-9.68 -5.97)"/><rect class="cls-2" x="117.66" y="321.92" width="1" height="5.08"/><polygon class="cls-2" points="121.06 325.02 118.16 335.86 115.25 325.02 121.06 325.02"/><path class="cls-2" d="M297.27,80.16H258V50.05h39.3Zm-38.3-1h37.3V51.05H259Z" transform="translate(-9.68 -5.97)"/><rect class="cls-2" x="267.44" y="73.69" width="1" height="30.41"/><polygon class="cls-2" points="268.44 44.59 267.44 44.59 267.44 16 337.37 16 337.37 17 268.44 17 268.44 44.59"/><polygon class="cls-2" points="335.39 13.6 346.23 16.5 335.39 19.41 335.39 13.6"/><path class="cls-2" d="M311.55,65.93l1.33.34a4.47,4.47,0,0,1-1.5,2.49,4.17,4.17,0,0,1-2.65.86,4.78,4.78,0,0,1-2.64-.66,4.09,4.09,0,0,1-1.54-1.91,6.73,6.73,0,0,1-.53-2.69,6,6,0,0,1,.59-2.73,4.06,4.06,0,0,1,1.71-1.77,5,5,0,0,1,2.43-.61,4.13,4.13,0,0,1,2.53.77,3.94,3.94,0,0,1,1.42,2.15l-1.3.31a3.07,3.07,0,0,0-1-1.59,2.74,2.74,0,0,0-1.67-.5,3.24,3.24,0,0,0-1.93.55,2.93,2.93,0,0,0-1.09,1.49,6,6,0,0,0-.32,1.92,6.11,6.11,0,0,0,.38,2.24A2.73,2.73,0,0,0,306.91,68a3.24,3.24,0,0,0,1.71.47,2.82,2.82,0,0,0,1.88-.64A3.24,3.24,0,0,0,311.55,65.93Z" transform="translate(-9.68 -5.97)"/><path class="cls-2" d="M313.89,65.82a3.74,3.74,0,0,1,1.13-3A3.35,3.35,0,0,1,317.3,62a3.28,3.28,0,0,1,2.45,1,3.76,3.76,0,0,1,.95,2.71,4.69,4.69,0,0,1-.43,2.21,2.94,2.94,0,0,1-1.22,1.25,3.61,3.61,0,0,1-1.75.44,3.25,3.25,0,0,1-2.47-1A3.92,3.92,0,0,1,313.89,65.82Zm1.27,0a3.09,3.09,0,0,0,.61,2.09,1.94,1.94,0,0,0,1.53.69,1.91,1.91,0,0,0,1.52-.7,3.12,3.12,0,0,0,.61-2.12,3,3,0,0,0-.61-2,2,2,0,0,0-3.05,0A3.07,3.07,0,0,0,315.16,65.82Z" transform="translate(-9.68 -5.97)"/><path class="cls-2" d="M322.14,69.45V62.19h1.11v1a2.6,2.6,0,0,1,2.31-1.2,3,3,0,0,1,1.2.24,1.93,1.93,0,0,1,.83.62,2.34,2.34,0,0,1,.38.91A6.42,6.42,0,0,1,328,65v4.47h-1.23V65a3.13,3.13,0,0,0-.15-1.12,1.14,1.14,0,0,0-.51-.6,1.58,1.58,0,0,0-.85-.22,2,2,0,0,0-1.36.5,2.45,2.45,0,0,0-.57,1.89v4Z" transform="translate(-9.68 -5.97)"/><path class="cls-2" d="M334.63,69.45v-.92a2.25,2.25,0,0,1-2,1.08,2.81,2.81,0,0,1-1.59-.48,3.14,3.14,0,0,1-1.13-1.33,4.61,4.61,0,0,1-.4-2,5.2,5.2,0,0,1,.36-2A2.84,2.84,0,0,1,332.55,62a2.47,2.47,0,0,1,1.17.28,2.32,2.32,0,0,1,.83.72V59.43h1.23v10Zm-3.89-3.63a3.18,3.18,0,0,0,.59,2.09,1.78,1.78,0,0,0,1.39.69,1.74,1.74,0,0,0,1.37-.66,3,3,0,0,0,.56-2,3.42,3.42,0,0,0-.57-2.19,1.74,1.74,0,0,0-1.41-.7,1.71,1.71,0,0,0-1.38.67A3.35,3.35,0,0,0,330.74,65.82Z" transform="translate(-9.68 -5.97)"/><path class="cls-2" d="M342.68,67.11l1.27.16A3.12,3.12,0,0,1,342.84,69a3.8,3.8,0,0,1-4.61-.37,3.83,3.83,0,0,1-.93-2.75,4,4,0,0,1,.94-2.85,3.22,3.22,0,0,1,2.45-1,3.12,3.12,0,0,1,2.38,1A3.91,3.91,0,0,1,344,65.8v.33h-5.42a2.77,2.77,0,0,0,.68,1.83,2,2,0,0,0,1.52.64,1.86,1.86,0,0,0,1.15-.36A2.32,2.32,0,0,0,342.68,67.11Zm-4-2h4.05a2.44,2.44,0,0,0-.46-1.37A1.88,1.88,0,0,0,340.7,63a1.94,1.94,0,0,0-1.42.57A2.24,2.24,0,0,0,338.64,65.12Z" transform="translate(-9.68 -5.97)"/><path class="cls-2" d="M345.5,69.45V62.19h1.1v1a2.62,2.62,0,0,1,2.31-1.2,3,3,0,0,1,1.21.24,1.84,1.84,0,0,1,.82.62,2.35,2.35,0,0,1,.39.91A7.47,7.47,0,0,1,351.4,65v4.47h-1.23V65a3.13,3.13,0,0,0-.15-1.12,1.14,1.14,0,0,0-.51-.6,1.6,1.6,0,0,0-.86-.22,2,2,0,0,0-1.35.5,2.45,2.45,0,0,0-.57,1.89v4Z" transform="translate(-9.68 -5.97)"/><path class="cls-2" d="M352.79,67.28l1.22-.19a1.71,1.71,0,0,0,.57,1.12,2,2,0,0,0,1.31.39,2,2,0,0,0,1.26-.35,1,1,0,0,0,.41-.81.76.76,0,0,0-.37-.65,5.24,5.24,0,0,0-1.25-.42,11.22,11.22,0,0,1-1.88-.59A1.79,1.79,0,0,1,353,64.11a1.81,1.81,0,0,1,.22-.89,2,2,0,0,1,.6-.69,2.54,2.54,0,0,1,.79-.36,3.62,3.62,0,0,1,1.06-.15,4.07,4.07,0,0,1,1.5.25,2,2,0,0,1,.95.67,2.55,2.55,0,0,1,.43,1.12l-1.21.16a1.3,1.3,0,0,0-.47-.87,1.73,1.73,0,0,0-1.11-.32,2,2,0,0,0-1.21.28.83.83,0,0,0-.36.66.63.63,0,0,0,.15.43,1.09,1.09,0,0,0,.47.33c.12,0,.48.15,1.08.31a16.52,16.52,0,0,1,1.83.58,1.71,1.71,0,0,1,1.1,1.69,2.06,2.06,0,0,1-.36,1.16,2.27,2.27,0,0,1-1,.84,3.81,3.81,0,0,1-1.54.3,3.4,3.4,0,0,1-2.15-.59A2.71,2.71,0,0,1,352.79,67.28Z" transform="translate(-9.68 -5.97)"/><path class="cls-2" d="M359.82,65.82a3.74,3.74,0,0,1,1.13-3,3.35,3.35,0,0,1,2.28-.81,3.28,3.28,0,0,1,2.45,1,3.76,3.76,0,0,1,.95,2.71,4.83,4.83,0,0,1-.42,2.21A3,3,0,0,1,365,69.17a3.61,3.61,0,0,1-1.75.44,3.25,3.25,0,0,1-2.47-1A3.92,3.92,0,0,1,359.82,65.82Zm1.27,0a3.09,3.09,0,0,0,.61,2.09,1.94,1.94,0,0,0,1.53.69,1.91,1.91,0,0,0,1.52-.7,3.12,3.12,0,0,0,.61-2.12,3,3,0,0,0-.61-2,2,2,0,0,0-3.05,0A3.07,3.07,0,0,0,361.09,65.82Z" transform="translate(-9.68 -5.97)"/><path class="cls-2" d="M368.06,69.45V62.19h1.1v1.1a3,3,0,0,1,.78-1,1.37,1.37,0,0,1,.79-.25,2.45,2.45,0,0,1,1.27.4l-.42,1.14a1.8,1.8,0,0,0-.91-.27,1.17,1.17,0,0,0-.72.25,1.25,1.25,0,0,0-.46.67,4.73,4.73,0,0,0-.2,1.44v3.8Z" transform="translate(-9.68 -5.97)"/><path class="cls-2" d="M290.41,101.11l-3.88-10H288l2.6,7.29c.21.58.39,1.13.53,1.64a16.54,16.54,0,0,1,.54-1.64l2.7-7.29h1.36l-3.93,10Z" transform="translate(-9.68 -5.97)"/><path class="cls-2" d="M317.85,16V6h3.45a8.77,8.77,0,0,1,1.78.14,3.28,3.28,0,0,1,1.47.72,4.1,4.1,0,0,1,1.19,1.71,6.79,6.79,0,0,1,.39,2.38,7.3,7.3,0,0,1-.26,2,5,5,0,0,1-.69,1.46,3.74,3.74,0,0,1-.91.91,3.65,3.65,0,0,1-1.2.5,7,7,0,0,1-1.61.17Zm1.32-1.18h2.14a5,5,0,0,0,1.56-.19,2.21,2.21,0,0,0,.9-.52,3.06,3.06,0,0,0,.73-1.27,6,6,0,0,0,.27-1.93,4.69,4.69,0,0,0-.52-2.41A2.54,2.54,0,0,0,323,7.36a5.11,5.11,0,0,0-1.72-.21h-2.11Z" transform="translate(-9.68 -5.97)"/><path class="cls-2" d="M369.09,30.61l3.85-10h1.43l4.1,10H377l-1.17-3H371.6l-1.1,3ZM372,26.5h3.4l-1.05-2.78c-.31-.84-.55-1.53-.71-2.07a11.13,11.13,0,0,1-.54,1.91Z" transform="translate(-9.68 -5.97)"/><path class="cls-2" d="M384.11,28l1.21.15a3.09,3.09,0,0,1-1,2,3,3,0,0,1-2,.71,3.13,3.13,0,0,1-2.4-1A4,4,0,0,1,379,27a5.08,5.08,0,0,1,.39-2.06,2.77,2.77,0,0,1,1.18-1.32,3.57,3.57,0,0,1,1.74-.44,3,3,0,0,1,1.93.6,2.73,2.73,0,0,1,1,1.7l-1.19.18a2,2,0,0,0-.61-1.1,1.6,1.6,0,0,0-1-.37,1.9,1.9,0,0,0-1.51.67,3.15,3.15,0,0,0-.58,2.11,3.28,3.28,0,0,0,.56,2.12,1.8,1.8,0,0,0,1.46.67,1.69,1.69,0,0,0,1.21-.45A2.17,2.17,0,0,0,384.11,28Z" transform="translate(-9.68 -5.97)"/><path class="cls-2" d="M391.34,28.28l1.27.15a3.08,3.08,0,0,1-1.11,1.73,3.36,3.36,0,0,1-2.08.62,3.32,3.32,0,0,1-2.52-1,3.81,3.81,0,0,1-.94-2.75,4,4,0,0,1,1-2.85,3.18,3.18,0,0,1,2.44-1,3.1,3.1,0,0,1,2.38,1,3.91,3.91,0,0,1,.92,2.79v.33h-5.42a2.77,2.77,0,0,0,.68,1.83,2,2,0,0,0,1.52.64,1.86,1.86,0,0,0,1.15-.36A2.37,2.37,0,0,0,391.34,28.28Zm-4-2h4.06a2.5,2.5,0,0,0-.47-1.38,1.89,1.89,0,0,0-1.52-.71,2,2,0,0,0-1.43.57A2.26,2.26,0,0,0,387.3,26.29Z" transform="translate(-9.68 -5.97)"/><path class="cls-2" d="M396.85,29.51,397,30.6a4.68,4.68,0,0,1-.93.11,2.15,2.15,0,0,1-1-.21,1.22,1.22,0,0,1-.52-.56,4.39,4.39,0,0,1-.15-1.45V24.31h-.9v-1h.9V21.56l1.23-.74v2.53h1.24v1h-1.24v4.25a2.26,2.26,0,0,0,.06.67.61.61,0,0,0,.21.24.83.83,0,0,0,.43.09A3.14,3.14,0,0,0,396.85,29.51Z" transform="translate(-9.68 -5.97)"/><path class="cls-2" d="M397.59,27a3.71,3.71,0,0,1,1.12-3,3.39,3.39,0,0,1,2.28-.81,3.27,3.27,0,0,1,2.45,1,3.76,3.76,0,0,1,.95,2.71,4.83,4.83,0,0,1-.42,2.21,3,3,0,0,1-1.22,1.24,3.55,3.55,0,0,1-1.76.45,3.28,3.28,0,0,1-2.46-1A3.89,3.89,0,0,1,397.59,27Zm1.27,0a3.12,3.12,0,0,0,.6,2.09,2,2,0,0,0,3.06,0,3.2,3.2,0,0,0,.61-2.13,3.07,3.07,0,0,0-.61-2,2,2,0,0,0-3.06,0A3.11,3.11,0,0,0,398.86,27Z" transform="translate(-9.68 -5.97)"/><path class="cls-2" d="M405.83,30.61V23.35h1.11v1a2.61,2.61,0,0,1,2.31-1.2,3,3,0,0,1,1.21.24,1.77,1.77,0,0,1,.82.62,2.46,2.46,0,0,1,.39.9,8.09,8.09,0,0,1,.06,1.2v4.46H410.5V26.2a3.27,3.27,0,0,0-.14-1.13,1.26,1.26,0,0,0-.51-.59,1.6,1.6,0,0,0-.86-.22,2,2,0,0,0-1.35.5,2.45,2.45,0,0,0-.57,1.89v4Z" transform="translate(-9.68 -5.97)"/><path class="cls-2" d="M417.17,25.67a9.31,9.31,0,0,1,.36-2.86,3.61,3.61,0,0,1,1.09-1.67,2.8,2.8,0,0,1,1.82-.59,2.94,2.94,0,0,1,1.41.33,2.72,2.72,0,0,1,1,.93,5.22,5.22,0,0,1,.62,1.49,10,10,0,0,1,.22,2.37,9.24,9.24,0,0,1-.36,2.85,3.52,3.52,0,0,1-1.08,1.67,3,3,0,0,1-4.1-.44A6.65,6.65,0,0,1,417.17,25.67Zm1.26,0A6.36,6.36,0,0,0,419,29a1.71,1.71,0,0,0,1.43.81,1.68,1.68,0,0,0,1.42-.82,6.21,6.21,0,0,0,.58-3.28,6.25,6.25,0,0,0-.58-3.29,1.7,1.7,0,0,0-1.44-.81,1.58,1.58,0,0,0-1.35.72A6.38,6.38,0,0,0,418.43,25.67Z" transform="translate(-9.68 -5.97)"/><path class="cls-2" d="M425.65,30.61v-1.4h1.4v1.4Z" transform="translate(-9.68 -5.97)"/><path class="cls-2" d="M429,28.3l1.18-.11a2,2,0,0,0,.58,1.21,1.56,1.56,0,0,0,1.08.37,1.84,1.84,0,0,0,1-.26,2.1,2.1,0,0,0,.7-.69,4.38,4.38,0,0,0,.46-1.17,6.37,6.37,0,0,0,.18-1.51c0-.05,0-.13,0-.24a2.72,2.72,0,0,1-1,1,2.64,2.64,0,0,1-1.38.37,2.76,2.76,0,0,1-2.1-.91,3.27,3.27,0,0,1-.87-2.37,3.39,3.39,0,0,1,.9-2.46,3,3,0,0,1,2.26-.93,3.2,3.2,0,0,1,1.78.53,3.28,3.28,0,0,1,1.23,1.5,7.4,7.4,0,0,1,.42,2.82,9.37,9.37,0,0,1-.41,3.06,3.59,3.59,0,0,1-1.24,1.73,3.21,3.21,0,0,1-1.93.6A2.65,2.65,0,0,1,429,28.3Zm5-4.43a2.41,2.41,0,0,0-.57-1.68,1.77,1.77,0,0,0-1.35-.62,1.85,1.85,0,0,0-1.43.67,2.48,2.48,0,0,0-.61,1.74,2.11,2.11,0,0,0,.58,1.55,1.89,1.89,0,0,0,1.42.6,1.84,1.84,0,0,0,1.41-.6A2.39,2.39,0,0,0,434.07,23.87Z" transform="translate(-9.68 -5.97)"/><path class="cls-2" d="M436.82,28.3l1.18-.11a2.08,2.08,0,0,0,.57,1.21,1.58,1.58,0,0,0,1.09.37,1.79,1.79,0,0,0,1-.26,2,2,0,0,0,.7-.69,3.8,3.8,0,0,0,.46-1.17,5.9,5.9,0,0,0,.19-1.51c0-.05,0-.13,0-.24a2.8,2.8,0,0,1-1,1,2.67,2.67,0,0,1-1.38.37,2.79,2.79,0,0,1-2.11-.91,3.3,3.3,0,0,1-.86-2.37,3.39,3.39,0,0,1,.9-2.46,3,3,0,0,1,2.25-.93,3.24,3.24,0,0,1,1.79.53,3.28,3.28,0,0,1,1.23,1.5,7.4,7.4,0,0,1,.42,2.82,9.08,9.08,0,0,1-.42,3.06,3.59,3.59,0,0,1-1.24,1.73,3.19,3.19,0,0,1-1.93.6,2.8,2.8,0,0,1-1.92-.66A2.72,2.72,0,0,1,436.82,28.3Zm5-4.43a2.45,2.45,0,0,0-.56-1.68,1.79,1.79,0,0,0-1.36-.62,1.88,1.88,0,0,0-1.43.67,2.52,2.52,0,0,0-.6,1.74,2.15,2.15,0,0,0,.57,1.55,1.91,1.91,0,0,0,1.43.6,1.8,1.8,0,0,0,1.4-.6A2.34,2.34,0,0,0,441.85,23.87Z" transform="translate(-9.68 -5.97)"/><path class="cls-2" d="M371.94,47.41l-2.66-10h1.36L372.17,44c.16.69.3,1.37.42,2l.45-1.85L375,37.39h1.6L378,42.47a26.85,26.85,0,0,1,.78,3.54c.13-.63.3-1.36.5-2.18l1.58-6.44h1.33l-2.75,10h-1.28L376,39.78c-.18-.64-.28-1-.31-1.18-.11.46-.21.86-.3,1.18l-2.12,7.63Z" transform="translate(-9.68 -5.97)"/><path class="cls-2" d="M387.47,46.52a4.63,4.63,0,0,1-1.32.82,3.78,3.78,0,0,1-1.36.24A2.66,2.66,0,0,1,383,47a1.94,1.94,0,0,1-.64-1.49,2,2,0,0,1,.24-1,2.1,2.1,0,0,1,.64-.71,2.88,2.88,0,0,1,.89-.4,7.53,7.53,0,0,1,1.09-.19,11.76,11.76,0,0,0,2.19-.42c0-.17,0-.28,0-.32a1.35,1.35,0,0,0-.35-1.06,2,2,0,0,0-1.4-.42,2.18,2.18,0,0,0-1.28.3,1.84,1.84,0,0,0-.61,1.08l-1.21-.16a3,3,0,0,1,.54-1.25,2.36,2.36,0,0,1,1.09-.73A4.84,4.84,0,0,1,385.8,40a4.27,4.27,0,0,1,1.51.22,2,2,0,0,1,.85.55,1.93,1.93,0,0,1,.39.84,7.09,7.09,0,0,1,.06,1.13v1.64a15.77,15.77,0,0,0,.08,2.17,2.45,2.45,0,0,0,.31.87h-1.29A2.38,2.38,0,0,1,387.47,46.52Zm-.11-2.75a9.05,9.05,0,0,1-2,.47,4.67,4.67,0,0,0-1.07.24,1.06,1.06,0,0,0-.48.4,1,1,0,0,0-.18.59,1.06,1.06,0,0,0,.38.82,1.59,1.59,0,0,0,1.09.32,2.5,2.5,0,0,0,1.26-.31,1.92,1.92,0,0,0,.82-.85,3,3,0,0,0,.19-1.23Z" transform="translate(-9.68 -5.97)"/><path class="cls-2" d="M393.2,46.31l.18,1.09a4.85,4.85,0,0,1-.93.11,2.13,2.13,0,0,1-1-.21,1.17,1.17,0,0,1-.52-.56,4.39,4.39,0,0,1-.15-1.45V41.11h-.9v-1h.9V38.36l1.22-.74v2.53h1.24v1H392v4.25A2.14,2.14,0,0,0,392,46a.49.49,0,0,0,.21.24.82.82,0,0,0,.42.09A3,3,0,0,0,393.2,46.31Z" transform="translate(-9.68 -5.97)"/><path class="cls-2" d="M399.37,45.08l1.28.15A3.15,3.15,0,0,1,399.53,47a3.76,3.76,0,0,1-4.6-.36,3.85,3.85,0,0,1-.94-2.75,4,4,0,0,1,.95-2.85,3.2,3.2,0,0,1,2.45-1,3.08,3.08,0,0,1,2.37,1,3.92,3.92,0,0,1,.93,2.79c0,.07,0,.18,0,.33h-5.41a2.77,2.77,0,0,0,.67,1.83,2,2,0,0,0,1.52.64,1.88,1.88,0,0,0,1.16-.36A2.36,2.36,0,0,0,399.37,45.08Zm-4-2h4.06a2.5,2.5,0,0,0-.47-1.38A1.89,1.89,0,0,0,397.4,41a2,2,0,0,0-1.43.57A2.31,2.31,0,0,0,395.33,43.09Z" transform="translate(-9.68 -5.97)"/><path class="cls-2" d="M402.18,47.41V40.15h1.1v1.11a3,3,0,0,1,.79-1,1.33,1.33,0,0,1,.79-.25,2.36,2.36,0,0,1,1.26.4l-.42,1.14a1.74,1.74,0,0,0-.9-.27,1.18,1.18,0,0,0-.73.24,1.38,1.38,0,0,0-.46.68,5,5,0,0,0-.2,1.43v3.8Z" transform="translate(-9.68 -5.97)"/><path class="cls-2" d="M418.18,42.47a9,9,0,0,1,.37-2.86,3.52,3.52,0,0,1,1.08-1.67,2.8,2.8,0,0,1,1.82-.59,2.91,2.91,0,0,1,1.41.33,2.72,2.72,0,0,1,1,.93,5.22,5.22,0,0,1,.62,1.49,10,10,0,0,1,.23,2.37,9.21,9.21,0,0,1-.37,2.85A3.52,3.52,0,0,1,423.27,47a3,3,0,0,1-4.1-.44A6.65,6.65,0,0,1,418.18,42.47Zm1.26,0a6.36,6.36,0,0,0,.58,3.29,1.71,1.71,0,0,0,1.43.81,1.68,1.68,0,0,0,1.42-.82,6.21,6.21,0,0,0,.58-3.28,6.25,6.25,0,0,0-.58-3.29,1.7,1.7,0,0,0-1.44-.81,1.58,1.58,0,0,0-1.35.72A6.38,6.38,0,0,0,419.44,42.47Z" transform="translate(-9.68 -5.97)"/><path class="cls-2" d="M426.66,47.41V46h1.4v1.4Z" transform="translate(-9.68 -5.97)"/><path class="cls-2" d="M429.86,42.47a9.31,9.31,0,0,1,.36-2.86,3.61,3.61,0,0,1,1.09-1.67,2.77,2.77,0,0,1,1.81-.59,3,3,0,0,1,1.42.33,2.69,2.69,0,0,1,1,.93,5,5,0,0,1,.63,1.49,10,10,0,0,1,.22,2.37,9.24,9.24,0,0,1-.36,2.85A3.47,3.47,0,0,1,434.94,47a3,3,0,0,1-4.09-.44A6.65,6.65,0,0,1,429.86,42.47Zm1.26,0a6.25,6.25,0,0,0,.58,3.29,1.65,1.65,0,0,0,2.85,0,6.31,6.31,0,0,0,.58-3.28,6.36,6.36,0,0,0-.58-3.29,1.73,1.73,0,0,0-1.44-.81,1.56,1.56,0,0,0-1.35.72A6.28,6.28,0,0,0,431.12,42.47Z" transform="translate(-9.68 -5.97)"/><path class="cls-2" d="M442.28,47.41h-1.23V39.57a6.11,6.11,0,0,1-1.17.85,8.5,8.5,0,0,1-1.29.64V39.87a7.89,7.89,0,0,0,1.8-1.18,4.52,4.52,0,0,0,1.09-1.34h.8Z" transform="translate(-9.68 -5.97)"/><polygon class="cls-2" points="337.37 365.77 267.44 365.77 267.44 337.18 268.44 337.18 268.44 364.77 337.37 364.77 337.37 365.77"/><polygon class="cls-2" points="335.39 362.36 346.23 365.27 335.39 368.17 335.39 362.36"/><path class="cls-2" d="M315.07,389.27v-10h3.76a4.69,4.69,0,0,1,1.84.31,2.41,2.41,0,0,1,1.09.93,2.53,2.53,0,0,1,.39,1.33,2.3,2.3,0,0,1-.35,1.21,2.42,2.42,0,0,1-1.05.91,2.67,2.67,0,0,1,1.4.91,2.49,2.49,0,0,1,.49,1.52,2.9,2.9,0,0,1-.3,1.31,2.5,2.5,0,0,1-.74.93,3,3,0,0,1-1.1.5,6.62,6.62,0,0,1-1.61.17Zm1.32-5.81h2.17a4.61,4.61,0,0,0,1.26-.12,1.3,1.3,0,0,0,1-1.37,1.59,1.59,0,0,0-.24-.88,1.12,1.12,0,0,0-.68-.52,5.38,5.38,0,0,0-1.52-.14h-2Zm0,4.62h2.5a6.22,6.22,0,0,0,.9,0,2.25,2.25,0,0,0,.77-.28,1.44,1.44,0,0,0,.5-.56,1.74,1.74,0,0,0,.2-.84,1.66,1.66,0,0,0-.29-1,1.46,1.46,0,0,0-.79-.58,4.68,4.68,0,0,0-1.47-.17h-2.32Z" transform="translate(-9.68 -5.97)"/><path class="cls-2" d="M369.09,357.19l3.85-10h1.43l4.1,10H377l-1.17-3H371.6l-1.1,3Zm2.89-4.11h3.4l-1.05-2.78c-.31-.84-.55-1.53-.71-2.08a11.24,11.24,0,0,1-.54,1.92Z" transform="translate(-9.68 -5.97)"/><path class="cls-2" d="M384.11,354.53l1.21.16a3.15,3.15,0,0,1-1,2,3,3,0,0,1-2,.71,3.14,3.14,0,0,1-2.4-1,4,4,0,0,1-.9-2.79,5.08,5.08,0,0,1,.39-2.06,2.68,2.68,0,0,1,1.18-1.32,3.46,3.46,0,0,1,1.74-.44,3,3,0,0,1,1.93.6,2.73,2.73,0,0,1,1,1.69l-1.19.19a2,2,0,0,0-.61-1.1,1.55,1.55,0,0,0-1-.37,1.9,1.9,0,0,0-1.51.67,3.19,3.19,0,0,0-.58,2.11,3.28,3.28,0,0,0,.56,2.12,1.83,1.83,0,0,0,1.46.66,1.69,1.69,0,0,0,1.21-.44A2.2,2.2,0,0,0,384.11,354.53Z" transform="translate(-9.68 -5.97)"/><path class="cls-2" d="M391.34,354.85l1.27.16a3.12,3.12,0,0,1-1.11,1.73,3.34,3.34,0,0,1-2.08.62,3.29,3.29,0,0,1-2.52-1,3.79,3.79,0,0,1-.94-2.75,4,4,0,0,1,1-2.84,3.18,3.18,0,0,1,2.44-1,3.1,3.1,0,0,1,2.38,1,3.91,3.91,0,0,1,.92,2.79v.33h-5.42a2.87,2.87,0,0,0,.68,1.83,2,2,0,0,0,1.52.63,1.83,1.83,0,0,0,1.15-.35A2.34,2.34,0,0,0,391.34,354.85Zm-4-2h4.06a2.46,2.46,0,0,0-.47-1.37,1.89,1.89,0,0,0-1.52-.71,2,2,0,0,0-1.43.57A2.26,2.26,0,0,0,387.3,352.86Z" transform="translate(-9.68 -5.97)"/><path class="cls-2" d="M396.85,356.09l.17,1.09a4.68,4.68,0,0,1-.93.11,2.15,2.15,0,0,1-1-.21,1.33,1.33,0,0,1-.52-.56,4.74,4.74,0,0,1-.15-1.45v-4.18h-.9v-1h.9v-1.8l1.23-.73v2.53h1.24v1h-1.24v4.24a2.3,2.3,0,0,0,.06.68.56.56,0,0,0,.22.24.77.77,0,0,0,.42.09A4.66,4.66,0,0,0,396.85,356.09Z" transform="translate(-9.68 -5.97)"/><path class="cls-2" d="M397.59,353.56a3.75,3.75,0,0,1,1.12-3,3.43,3.43,0,0,1,2.28-.8,3.27,3.27,0,0,1,2.45,1,3.7,3.7,0,0,1,.95,2.71,4.78,4.78,0,0,1-.42,2.2,3,3,0,0,1-1.22,1.25,3.55,3.55,0,0,1-1.76.45,3.28,3.28,0,0,1-2.46-1A3.89,3.89,0,0,1,397.59,353.56Zm1.27,0a3.12,3.12,0,0,0,.6,2.09,2,2,0,0,0,3.06,0,3.17,3.17,0,0,0,.61-2.13,3,3,0,0,0-.61-2,2,2,0,0,0-3.06,0A3.09,3.09,0,0,0,398.86,353.56Z" transform="translate(-9.68 -5.97)"/><path class="cls-2" d="M405.83,357.19v-7.26h1.11v1a2.64,2.64,0,0,1,2.31-1.19,3.18,3.18,0,0,1,1.21.23,1.92,1.92,0,0,1,.82.62,2.42,2.42,0,0,1,.39.91,8.09,8.09,0,0,1,.06,1.2v4.46H410.5v-4.41a3.23,3.23,0,0,0-.14-1.13,1.17,1.17,0,0,0-.51-.59,1.6,1.6,0,0,0-.86-.23,2,2,0,0,0-1.35.5,2.49,2.49,0,0,0-.57,1.9v4Z" transform="translate(-9.68 -5.97)"/><path class="cls-2" d="M417.17,352.25a9.27,9.27,0,0,1,.36-2.86,3.61,3.61,0,0,1,1.09-1.67,2.8,2.8,0,0,1,1.82-.59,3,3,0,0,1,1.41.32,2.75,2.75,0,0,1,1,.94,5.22,5.22,0,0,1,.62,1.49,10,10,0,0,1,.22,2.37,9.29,9.29,0,0,1-.36,2.85,3.52,3.52,0,0,1-1.08,1.67,3.05,3.05,0,0,1-4.1-.45A6.59,6.59,0,0,1,417.17,352.25Zm1.26,0a6.31,6.31,0,0,0,.58,3.28,1.65,1.65,0,0,0,2.85,0,9.59,9.59,0,0,0,0-6.57,1.7,1.7,0,0,0-1.44-.81,1.58,1.58,0,0,0-1.35.72A6.36,6.36,0,0,0,418.43,352.25Z" transform="translate(-9.68 -5.97)"/><path class="cls-2" d="M425.65,357.19v-1.4h1.4v1.4Z" transform="translate(-9.68 -5.97)"/><path class="cls-2" d="M428.84,352.25a9.23,9.23,0,0,1,.37-2.86,3.54,3.54,0,0,1,1.09-1.67,2.77,2.77,0,0,1,1.81-.59,3.06,3.06,0,0,1,1.42.32,2.72,2.72,0,0,1,1,.94,5,5,0,0,1,.62,1.49,10,10,0,0,1,.23,2.37,9.29,9.29,0,0,1-.36,2.85,3.54,3.54,0,0,1-1.09,1.67,3,3,0,0,1-4.09-.45A6.59,6.59,0,0,1,428.84,352.25Zm1.27,0a6.21,6.21,0,0,0,.58,3.28,1.65,1.65,0,0,0,2.85,0,9.75,9.75,0,0,0,0-6.57,1.73,1.73,0,0,0-1.44-.81,1.58,1.58,0,0,0-1.36.72A6.38,6.38,0,0,0,430.11,352.25Z" transform="translate(-9.68 -5.97)"/><path class="cls-2" d="M440.57,357.19v-2.4h-4.34v-1.13l4.57-6.49h1v6.49h1.35v1.13h-1.35v2.4Zm0-3.53v-4.51l-3.13,4.51Z" transform="translate(-9.68 -5.97)"/><path class="cls-2" d="M371.94,374l-2.66-10h1.36l1.53,6.57c.16.69.3,1.37.42,2l.45-1.85L375,364h1.6L378,369a24.1,24.1,0,0,1,.78,3.55c.13-.63.3-1.36.5-2.18l1.58-6.44h1.33l-2.75,10h-1.28L376,366.36c-.18-.64-.28-1-.31-1.18-.11.46-.21.85-.3,1.18L373.3,374Z" transform="translate(-9.68 -5.97)"/><path class="cls-2" d="M387.47,373.1a4.86,4.86,0,0,1-1.32.82,3.78,3.78,0,0,1-1.36.24,2.66,2.66,0,0,1-1.84-.59,2,2,0,0,1-.64-1.49,2,2,0,0,1,.88-1.68,2.9,2.9,0,0,1,.89-.41,9.72,9.72,0,0,1,1.09-.18,10.69,10.69,0,0,0,2.19-.43c0-.16,0-.27,0-.32A1.38,1.38,0,0,0,387,368a2.09,2.09,0,0,0-1.4-.41,2.18,2.18,0,0,0-1.28.3,1.81,1.81,0,0,0-.61,1.08l-1.21-.17a3,3,0,0,1,.54-1.24,2.43,2.43,0,0,1,1.09-.74,4.89,4.89,0,0,1,1.65-.25,4.27,4.27,0,0,1,1.51.22,1.9,1.9,0,0,1,.85.55,1.94,1.94,0,0,1,.39.83,7.16,7.16,0,0,1,.06,1.14V371a15.86,15.86,0,0,0,.08,2.17,2.6,2.6,0,0,0,.31.87h-1.29A2.58,2.58,0,0,1,387.47,373.1Zm-.11-2.75a8.61,8.61,0,0,1-2,.46,5.14,5.14,0,0,0-1.07.25,1.09,1.09,0,0,0-.66,1,1,1,0,0,0,.38.82,1.6,1.6,0,0,0,1.09.33,2.5,2.5,0,0,0,1.26-.31,2,2,0,0,0,.82-.85,3,3,0,0,0,.19-1.23Z" transform="translate(-9.68 -5.97)"/><path class="cls-2" d="M393.2,372.89l.18,1.09a4.85,4.85,0,0,1-.93.11,2.13,2.13,0,0,1-1-.21,1.21,1.21,0,0,1-.52-.56,4.43,4.43,0,0,1-.15-1.45v-4.18h-.9v-1h.9v-1.8l1.22-.73v2.53h1.24v1H392v4.24a2.22,2.22,0,0,0,.07.68.49.49,0,0,0,.21.24.82.82,0,0,0,.42.09A4.31,4.31,0,0,0,393.2,372.89Z" transform="translate(-9.68 -5.97)"/><path class="cls-2" d="M399.37,371.65l1.28.16a3.13,3.13,0,0,1-1.12,1.73,3.34,3.34,0,0,1-2.08.62,3.29,3.29,0,0,1-2.52-1,3.84,3.84,0,0,1-.94-2.75,4,4,0,0,1,.95-2.84,3.17,3.17,0,0,1,2.45-1,3.08,3.08,0,0,1,2.37,1,3.92,3.92,0,0,1,.93,2.79c0,.07,0,.18,0,.33h-5.41a2.81,2.81,0,0,0,.67,1.83,2,2,0,0,0,1.52.63,1.94,1.94,0,0,0,1.16-.35A2.33,2.33,0,0,0,399.37,371.65Zm-4-2h4.06a2.46,2.46,0,0,0-.47-1.37,1.89,1.89,0,0,0-1.52-.71,2,2,0,0,0-1.43.57A2.28,2.28,0,0,0,395.33,369.66Z" transform="translate(-9.68 -5.97)"/><path class="cls-2" d="M402.18,374v-7.26h1.1v1.1a3.22,3.22,0,0,1,.79-1,1.39,1.39,0,0,1,.79-.24,2.43,2.43,0,0,1,1.26.39l-.42,1.15a1.74,1.74,0,0,0-.9-.27,1.21,1.21,0,0,0-.73.24,1.34,1.34,0,0,0-.46.68,4.94,4.94,0,0,0-.2,1.43V374Z" transform="translate(-9.68 -5.97)"/><path class="cls-2" d="M418.18,369.05a8.94,8.94,0,0,1,.37-2.86,3.52,3.52,0,0,1,1.08-1.67,2.75,2.75,0,0,1,1.82-.59,3,3,0,0,1,1.41.32,2.75,2.75,0,0,1,1,.94,5.22,5.22,0,0,1,.62,1.49,10,10,0,0,1,.23,2.37,9,9,0,0,1-.37,2.85,3.52,3.52,0,0,1-1.08,1.67,3.05,3.05,0,0,1-4.1-.45A6.59,6.59,0,0,1,418.18,369.05Zm1.26,0a6.31,6.31,0,0,0,.58,3.28,1.65,1.65,0,0,0,2.85,0,9.59,9.59,0,0,0,0-6.57,1.7,1.7,0,0,0-1.44-.81,1.58,1.58,0,0,0-1.35.72A6.36,6.36,0,0,0,419.44,369.05Z" transform="translate(-9.68 -5.97)"/><path class="cls-2" d="M426.66,374v-1.4h1.4V374Z" transform="translate(-9.68 -5.97)"/><path class="cls-2" d="M430,371.67l1.18-.11a2.06,2.06,0,0,0,.58,1.21,1.56,1.56,0,0,0,1.08.38,1.93,1.93,0,0,0,1-.26,2.1,2.1,0,0,0,.7-.69A4.33,4.33,0,0,0,435,371a6.28,6.28,0,0,0,.18-1.5v-.25a2.91,2.91,0,0,1-1,1,2.89,2.89,0,0,1-3.49-.54,3.27,3.27,0,0,1-.86-2.38,3.38,3.38,0,0,1,.9-2.45,3,3,0,0,1,2.25-.93,3.16,3.16,0,0,1,1.79.53A3.28,3.28,0,0,1,436,366a7.37,7.37,0,0,1,.42,2.82,9,9,0,0,1-.42,3.05,3.62,3.62,0,0,1-1.24,1.74,3.25,3.25,0,0,1-1.93.59,2.65,2.65,0,0,1-2.82-2.49Zm5-4.42a2.42,2.42,0,0,0-.56-1.68,1.76,1.76,0,0,0-1.36-.62,1.87,1.87,0,0,0-1.43.67,2.44,2.44,0,0,0-.61,1.73,2.14,2.14,0,0,0,.58,1.56,1.89,1.89,0,0,0,1.42.6,1.84,1.84,0,0,0,1.41-.6A2.34,2.34,0,0,0,435.08,367.25Z" transform="translate(-9.68 -5.97)"/><path class="cls-2" d="M444,366.42l-1.23.1a2.34,2.34,0,0,0-.46-1,1.63,1.63,0,0,0-1.23-.53,1.67,1.67,0,0,0-1,.33,2.72,2.72,0,0,0-.92,1.24,6.51,6.51,0,0,0-.35,2.31,2.88,2.88,0,0,1,1.09-1,2.92,2.92,0,0,1,1.34-.33,2.77,2.77,0,0,1,2.1.91,3.22,3.22,0,0,1,.86,2.34,3.84,3.84,0,0,1-.4,1.75,2.94,2.94,0,0,1-2.73,1.67,3.13,3.13,0,0,1-2.51-1.13,5.69,5.69,0,0,1-1-3.73,6.7,6.7,0,0,1,1.07-4.22,3.09,3.09,0,0,1,2.52-1.15,2.69,2.69,0,0,1,2.85,2.49Zm-5,4.32a2.86,2.86,0,0,0,.27,1.22,2,2,0,0,0,.76.89,1.89,1.89,0,0,0,1,.3,1.74,1.74,0,0,0,1.34-.63,2.5,2.5,0,0,0,.56-1.71,2.29,2.29,0,0,0-.56-1.63,1.81,1.81,0,0,0-1.39-.6,1.9,1.9,0,0,0-1.42.6A2.16,2.16,0,0,0,439,370.74Z" transform="translate(-9.68 -5.97)"/></svg>