<?xml version="1.0" encoding="UTF-8"?>
<svg id="Layer_1" data-name="Layer 1" xmlns="http://www.w3.org/2000/svg" viewBox="0 0 313.91 239.25">
  <defs>
    <style>
      .cls-1 {
        fill: #fff;
      }

      .cls-1, .cls-2 {
        stroke: #231f20;
        stroke-miterlimit: 10;
      }

      .cls-3 {
        fill: #231f20;
      }

      .cls-4 {
        isolation: isolate;
      }

      .cls-2 {
        fill: none;
      }
    </style>
  </defs>
  <rect class="cls-1" x="90.91" y="25.25" width="64.77" height="167.05"/>
  <line class="cls-2" y1="97.69" x2="82.05" y2="97.69"/>
  <polygon class="cls-3" points="80.07 100.6 90.91 97.69 80.07 94.79 80.07 100.6"/>
  <line class="cls-2" y1="119.85" x2="82.05" y2="119.85"/>
  <polygon class="cls-3" points="80.07 122.76 90.91 119.85 80.07 116.95 80.07 122.76"/>
  <g class="cls-4">
    <path class="cls-3" d="M15.97,79.17v1.11h-4.82v3.51h4.12v1.11h-4.12v4.31h-1.37v-10.03h6.18Z"/>
  </g>
  <g class="cls-4">
    <path class="cls-3" d="M18.29,93.32h1.25v-3.97c0-.12,0-.24.01-.36l-1.04.89s-.05.04-.08.05c-.03,0-.05.01-.08.01-.04,0-.08,0-.11-.03-.03-.02-.06-.04-.07-.06l-.23-.31,1.73-1.5h.59v5.28h1.15v.55h-3.12v-.55Z"/>
  </g>
  <g class="cls-4">
    <path class="cls-3" d="M15.97,124.1v1.11h-4.82v3.51h4.12v1.11h-4.12v4.31h-1.37v-10.03h6.18Z"/>
  </g>
  <g class="cls-4">
    <path class="cls-3" d="M19.56,132.91c.25,0,.48.04.69.11s.4.18.55.32c.16.14.28.31.37.51s.13.43.13.68c0,.22-.03.42-.1.6s-.15.36-.26.53c-.11.17-.24.33-.38.49-.15.16-.3.32-.46.49l-1.53,1.57c.11-.03.22-.05.33-.07s.22-.03.32-.03h1.95c.08,0,.14.02.19.07.05.05.07.11.07.18v.44h-3.88v-.25c0-.05.01-.11.03-.16.02-.05.05-.11.1-.15l1.86-1.87c.15-.16.29-.31.42-.45.13-.15.24-.29.33-.44.09-.15.16-.29.21-.44.05-.15.07-.31.07-.48s-.03-.32-.08-.45c-.05-.13-.13-.24-.22-.32-.09-.08-.21-.15-.33-.19-.13-.04-.26-.06-.41-.06s-.28.02-.41.07c-.12.04-.23.1-.33.18-.1.08-.18.17-.24.27s-.11.22-.14.35c-.02.08-.05.14-.1.17-.04.04-.1.05-.17.05-.01,0-.03,0-.04,0-.01,0-.03,0-.05,0l-.38-.07c.04-.26.11-.5.22-.7s.25-.38.41-.51.36-.24.57-.31c.22-.07.45-.11.7-.11Z"/>
  </g>
  <g class="cls-4">
    <g class="cls-4">
      <path class="cls-3" d="M2.76,153.9l-2.39-3.46h1.2c.1,0,.18.02.22.05.05.03.09.08.13.14l1.74,2.66c.04-.13.1-.26.18-.39l1.53-2.24c.05-.07.09-.12.14-.16.05-.04.11-.06.18-.06h1.15l-2.39,3.39,2.49,3.7h-1.2c-.1,0-.18-.03-.24-.08-.06-.05-.11-.11-.14-.18l-1.79-2.78c-.03.14-.08.26-.15.36l-1.65,2.42c-.05.07-.1.12-.15.18s-.13.08-.22.08H.28l2.49-3.63Z"/>
    </g>
  </g>
  <g class="cls-4">
    <g class="cls-4">
      <path class="cls-3" d="M11.37,154.37v.64h-2.79v2.03h2.39v.64h-2.39v2.5h-.79v-5.82h3.58Z"/>
    </g>
    <g class="cls-4">
      <path class="cls-3" d="M14.49,157.29c.25,0,.48.04.69.11.21.07.4.18.55.32.16.14.28.31.37.51.09.2.13.43.13.68,0,.22-.03.42-.1.6-.06.18-.15.36-.26.53-.11.17-.24.33-.38.49-.15.16-.3.32-.46.49l-1.53,1.57c.11-.03.22-.05.33-.07s.22-.03.32-.03h1.95c.08,0,.14.02.19.07.05.04.07.11.07.18v.44h-3.88v-.25c0-.05.01-.1.03-.16.02-.05.05-.1.1-.15l1.86-1.87c.15-.16.29-.31.42-.45s.24-.29.33-.44c.09-.15.16-.29.21-.44.05-.15.07-.31.07-.48s-.03-.32-.08-.45-.13-.24-.22-.32c-.09-.08-.21-.15-.33-.19-.13-.04-.26-.06-.41-.06s-.28.02-.41.06-.23.1-.33.18-.18.17-.24.27-.11.22-.14.35c-.02.08-.05.14-.1.17-.04.04-.1.05-.17.05-.01,0-.03,0-.04,0-.01,0-.03,0-.05,0l-.38-.07c.04-.26.11-.5.22-.7.11-.21.25-.38.41-.51.17-.14.36-.24.57-.31.22-.07.45-.11.7-.11Z"/>
    </g>
    <g class="cls-4">
      <path class="cls-3" d="M16.96,159.69c0-.06.01-.12.03-.18s.06-.1.1-.15.09-.08.15-.1c.06-.03.12-.04.19-.04.08,0,.15.01.22.04.06.03.12.07.16.12s.07.11.1.18c.02.07.03.14.03.22,0,.12-.02.25-.05.38s-.09.26-.15.39-.15.25-.24.38c-.1.12-.21.23-.33.34l-.12-.12s-.05-.07-.05-.11c0-.04.02-.07.06-.11.03-.03.06-.07.1-.12.04-.05.08-.11.13-.17.04-.07.08-.14.12-.21.04-.08.06-.16.08-.25h-.05c-.07,0-.13-.01-.19-.04-.06-.03-.11-.06-.15-.1s-.07-.1-.1-.16c-.02-.06-.03-.13-.03-.2Z"/>
      <path class="cls-3" d="M19,160.19v-5.82h1.86c.36,0,.67.04.92.11.26.07.47.17.64.3s.29.29.37.48c.08.19.12.4.12.63,0,.14-.02.28-.07.41-.04.13-.11.26-.2.37-.09.11-.2.22-.34.3-.14.09-.3.16-.48.22.42.08.75.24.96.46.22.22.32.51.32.88,0,.25-.05.47-.14.67s-.22.38-.4.52c-.17.15-.39.26-.64.34-.25.08-.54.12-.87.12h-2.06ZM19.79,156.98h1.04c.22,0,.41-.02.58-.07.16-.05.3-.12.4-.2.11-.09.19-.19.24-.31s.08-.26.08-.4c0-.34-.1-.59-.31-.75s-.52-.24-.96-.24h-1.07v1.98ZM19.79,157.54v2.03h1.26c.23,0,.42-.03.58-.08.16-.05.29-.12.4-.22.1-.09.18-.21.23-.33.05-.13.07-.27.07-.42,0-.3-.11-.54-.32-.71-.21-.17-.53-.26-.96-.26h-1.25Z"/>
      <path class="cls-3" d="M28.31,154.37v.29c0,.09-.03.18-.09.26l-3.29,4.62h3.32v.64h-4.35v-.31c0-.08.03-.16.08-.23l3.3-4.64h-3.22v-.64h4.25Z"/>
    </g>
  </g>
  <g class="cls-4">
    <g class="cls-4">
      <path class="cls-3" d="M39.84,151.17h6.01v.95h-6.01v-.95ZM39.84,153.51h6.01v.94h-6.01v-.94Z"/>
      <path class="cls-3" d="M51.62,156.58h2.16v-6.84c0-.21,0-.41.02-.62l-1.79,1.53s-.09.06-.14.08c-.05.02-.09.02-.13.02-.07,0-.13-.01-.19-.04-.06-.03-.1-.07-.13-.11l-.39-.54,2.98-2.58h1.02v9.1h1.97v.95h-5.38v-.95Z"/>
      <path class="cls-3" d="M58.35,156.76c0-.12.02-.24.07-.34.04-.11.1-.2.18-.28.08-.08.17-.14.28-.19s.22-.07.34-.07.24.02.34.07c.11.05.2.11.28.19.08.08.14.17.19.28s.07.22.07.34-.02.24-.07.35c-.04.11-.11.2-.19.28-.08.08-.17.14-.28.19-.11.04-.22.07-.34.07s-.24-.02-.34-.07c-.11-.04-.2-.11-.28-.19-.08-.08-.14-.17-.18-.28-.04-.1-.07-.22-.07-.35Z"/>
      <path class="cls-3" d="M68.4,152.52c0,.88-.09,1.64-.28,2.28s-.45,1.17-.77,1.59-.71.73-1.16.94-.92.31-1.43.31-.99-.1-1.43-.31-.83-.52-1.15-.94c-.33-.42-.58-.95-.77-1.59-.19-.64-.28-1.4-.28-2.28s.09-1.64.28-2.28c.19-.64.44-1.18.77-1.6.33-.42.71-.74,1.15-.94s.92-.31,1.43-.31.99.1,1.43.31.83.52,1.16.94c.33.42.58.96.77,1.6.19.64.28,1.4.28,2.28ZM67.11,152.52c0-.77-.06-1.41-.19-1.93s-.3-.94-.52-1.26c-.22-.32-.47-.54-.75-.68s-.58-.21-.89-.21-.6.07-.89.21-.53.37-.75.68c-.21.32-.39.74-.51,1.26s-.19,1.16-.19,1.93.06,1.41.19,1.92c.13.52.3.94.51,1.25.21.32.46.54.75.68s.58.21.89.21.6-.07.89-.21.54-.37.75-.68c.22-.32.39-.74.52-1.25.13-.52.19-1.16.19-1.92Z"/>
      <path class="cls-3" d="M76.52,152.52c0,.88-.09,1.64-.28,2.28s-.45,1.17-.77,1.59-.71.73-1.16.94-.92.31-1.43.31-.99-.1-1.43-.31-.83-.52-1.15-.94c-.33-.42-.58-.95-.77-1.59-.19-.64-.28-1.4-.28-2.28s.09-1.64.28-2.28c.19-.64.44-1.18.77-1.6.33-.42.71-.74,1.15-.94s.92-.31,1.43-.31.99.1,1.43.31.83.52,1.16.94c.33.42.58.96.77,1.6.19.64.28,1.4.28,2.28ZM75.23,152.52c0-.77-.06-1.41-.19-1.93s-.3-.94-.52-1.26c-.22-.32-.47-.54-.75-.68s-.58-.21-.89-.21-.6.07-.89.21-.53.37-.75.68c-.21.32-.39.74-.51,1.26s-.19,1.16-.19,1.93.06,1.41.19,1.92c.13.52.3.94.51,1.25.21.32.46.54.75.68s.58.21.89.21.6-.07.89-.21.54-.37.75-.68c.22-.32.39-.74.52-1.25.13-.52.19-1.16.19-1.92Z"/>
    </g>
  </g>
  <polyline class="cls-2" points="123.29 25.25 123.29 2.9 246.56 2.9"/>
  <polygon class="cls-3" points="244.58 5.81 255.42 2.9 244.58 0 244.58 5.81"/>
  <polyline class="cls-2" points="123.29 191.88 123.29 214.23 246.56 214.23"/>
  <polygon class="cls-3" points="244.58 217.14 255.42 214.23 244.58 211.32 244.58 217.14"/>
  <g class="cls-4">
    <path class="cls-3" d="M173.71,203.06v-10.03h3.2c.62,0,1.15.06,1.59.18.45.12.81.29,1.1.52s.5.5.64.82.21.69.21,1.1c0,.25-.04.49-.12.71s-.19.44-.35.64c-.16.2-.35.37-.59.52-.24.15-.51.28-.83.38.73.14,1.29.41,1.66.79.37.38.56.89.56,1.51,0,.42-.08.81-.23,1.16-.16.35-.38.65-.69.9-.3.25-.67.45-1.11.58s-.93.21-1.49.21h-3.55ZM175.07,197.52h1.79c.38,0,.71-.04.99-.13s.51-.2.7-.35.32-.33.41-.54c.09-.21.13-.44.13-.7,0-.59-.18-1.02-.53-1.29s-.91-.41-1.65-.41h-1.84v3.42ZM175.07,198.49v3.49h2.17c.39,0,.72-.04,1-.13.28-.09.51-.21.69-.38.18-.16.31-.35.4-.57s.13-.47.13-.73c0-.52-.18-.93-.55-1.23-.37-.3-.92-.45-1.66-.45h-2.16Z"/>
    <path class="cls-3" d="M185.3,196.7h6.01v.95h-6.01v-.95ZM185.3,199.04h6.01v.94h-6.01v-.94Z"/>
    <path class="cls-3" d="M199.41,192.92c.42,0,.82.06,1.18.18s.67.29.93.52c.26.22.46.5.61.81s.22.67.22,1.06c0,.32-.04.6-.12.85-.08.25-.2.47-.35.66-.15.19-.33.35-.55.48-.21.13-.46.24-.72.31.65.17,1.14.46,1.47.87.33.41.49.92.49,1.53,0,.46-.09.88-.26,1.25-.17.37-.41.68-.72.94s-.66.46-1.06.59-.84.21-1.3.21c-.53,0-.99-.07-1.36-.2-.38-.13-.7-.32-.96-.55-.26-.23-.48-.51-.64-.83-.17-.32-.31-.67-.43-1.04l.53-.22c.1-.04.2-.06.29-.06.09,0,.18.02.25.06s.13.1.17.19c0,.02.02.04.03.06,0,.02.02.04.03.07.07.14.14.29.24.46.09.17.22.33.38.48.16.15.36.28.59.38.24.1.53.15.88.15s.66-.06.92-.17c.26-.12.48-.26.66-.45.18-.18.31-.38.4-.61.09-.22.13-.45.13-.67,0-.27-.04-.52-.11-.74-.07-.22-.2-.42-.39-.58-.19-.16-.45-.29-.78-.38-.33-.09-.76-.14-1.28-.14v-.91c.42,0,.79-.04,1.09-.13.3-.09.55-.21.74-.36.19-.15.33-.34.42-.55.09-.21.13-.45.13-.71,0-.29-.05-.54-.14-.76s-.22-.39-.37-.53c-.16-.14-.35-.25-.56-.31-.22-.07-.45-.11-.7-.11s-.49.04-.7.11c-.21.07-.4.18-.57.31-.17.13-.3.29-.42.48-.11.18-.2.38-.25.6-.04.13-.09.23-.17.29-.08.06-.17.09-.29.09-.02,0-.05,0-.07,0-.03,0-.06,0-.09-.01l-.65-.11c.07-.46.19-.86.38-1.21s.42-.65.71-.89.62-.42.99-.54c.37-.12.77-.19,1.2-.19Z"/>
    <path class="cls-3" d="M210.04,193.57c0,.18-.06.32-.17.44-.11.12-.3.17-.57.17h-3.15l-.46,2.63c.52-.11,1.01-.17,1.45-.17.52,0,.98.08,1.38.23.4.15.73.37,1,.64s.47.59.61.96c.14.37.21.77.21,1.2,0,.53-.09,1.01-.28,1.44-.19.43-.44.8-.77,1.1s-.71.54-1.14.7-.91.25-1.42.25c-.29,0-.58-.03-.85-.09s-.52-.14-.76-.23-.45-.21-.65-.34c-.2-.13-.38-.26-.53-.4l.38-.53c.08-.12.2-.18.34-.18.09,0,.19.04.31.11.12.07.26.15.43.24.17.09.37.17.59.24s.5.11.81.11c.35,0,.67-.06.95-.17.28-.11.52-.27.72-.48s.35-.46.46-.75c.11-.29.16-.61.16-.97,0-.31-.05-.59-.14-.85s-.23-.47-.41-.64c-.18-.18-.41-.31-.69-.41-.28-.1-.6-.15-.97-.15-.25,0-.51.02-.78.06s-.55.11-.84.2l-.78-.23.81-4.69h4.75v.55Z"/>
    <path class="cls-3" d="M219.01,198.05c0,.88-.09,1.64-.28,2.28-.19.64-.45,1.17-.77,1.59-.33.42-.71.73-1.16.94-.45.21-.92.31-1.43.31s-.99-.1-1.43-.31c-.44-.21-.83-.52-1.15-.94-.33-.42-.58-.95-.77-1.59s-.28-1.4-.28-2.28.09-1.64.28-2.28c.19-.64.44-1.18.77-1.6.33-.42.71-.74,1.15-.94.44-.21.92-.31,1.43-.31s.99.1,1.43.31c.45.21.83.52,1.16.94.33.42.58.96.77,1.6.19.64.28,1.4.28,2.28ZM217.72,198.05c0-.77-.06-1.41-.19-1.93-.13-.52-.3-.94-.52-1.26-.22-.32-.47-.54-.75-.68-.29-.14-.58-.21-.89-.21s-.6.07-.89.21c-.28.14-.53.37-.75.68s-.39.74-.51,1.26c-.13.52-.19,1.16-.19,1.93s.06,1.41.19,1.92c.13.52.3.94.51,1.25s.46.54.75.68c.29.14.58.21.89.21s.6-.07.89-.21c.28-.14.54-.37.75-.68.22-.32.39-.74.52-1.25.13-.52.19-1.16.19-1.92Z"/>
    <path class="cls-3" d="M224.45,192.75v6.07h.32c.09,0,.17-.01.23-.04s.13-.08.2-.16l2.24-2.4c.07-.08.14-.14.21-.18.07-.05.16-.07.28-.07h1.13l-2.61,2.78c-.07.08-.13.15-.19.21-.06.06-.13.11-.21.16.08.06.16.12.23.19.07.07.13.15.19.25l2.77,3.5h-1.12c-.1,0-.19-.02-.26-.06-.07-.04-.14-.1-.21-.19l-2.33-2.91c-.07-.1-.14-.16-.21-.19-.07-.03-.17-.04-.32-.04h-.35v3.39h-1.25v-10.31h1.25Z"/>
    <path class="cls-3" d="M232.88,195.85c.31,0,.6.03.86.1s.51.17.73.3h1.93v.46c0,.15-.1.25-.29.29l-.81.11c.16.3.24.64.24,1.02,0,.34-.07.66-.2.94-.13.28-.32.52-.55.72-.24.2-.52.35-.84.46s-.68.16-1.07.16c-.33,0-.64-.04-.94-.12-.15.1-.26.2-.34.31-.08.11-.12.22-.12.33,0,.17.07.3.2.39.13.09.31.15.54.19.22.04.48.06.76.06h.87c.3,0,.59.03.87.08.28.05.54.14.76.26s.4.28.54.49c.13.21.2.48.2.81,0,.31-.08.61-.23.89-.15.29-.37.54-.65.77-.29.22-.63.4-1.04.54-.41.13-.88.2-1.39.2s-.97-.05-1.36-.15c-.39-.1-.71-.24-.97-.41s-.45-.37-.58-.6c-.13-.23-.19-.46-.19-.71,0-.35.11-.65.33-.89s.53-.44.91-.58c-.2-.09-.36-.22-.48-.37-.12-.16-.18-.36-.18-.62,0-.1.02-.21.06-.32s.09-.22.17-.33c.08-.11.17-.21.28-.31.11-.1.24-.18.39-.26-.35-.2-.62-.46-.82-.78-.2-.33-.3-.7-.3-1.14,0-.35.07-.66.2-.94s.32-.52.56-.72c.24-.2.52-.35.85-.46s.69-.16,1.08-.16ZM235.09,203.42c0-.18-.05-.33-.15-.43-.1-.11-.23-.19-.4-.25s-.36-.1-.58-.13-.45-.04-.69-.04h-.74c-.25,0-.49-.03-.72-.09-.27.13-.48.28-.65.46-.17.18-.25.4-.25.65,0,.16.04.31.12.44.08.14.21.26.38.36.17.1.38.18.63.24.25.06.55.09.9.09s.64-.03.9-.09c.27-.06.49-.15.68-.26s.33-.25.42-.41c.1-.16.15-.33.15-.52ZM232.88,199.59c.25,0,.47-.04.67-.11.19-.07.36-.17.49-.29s.23-.28.29-.45.1-.37.1-.58c0-.43-.13-.78-.4-1.04s-.65-.39-1.15-.39-.88.13-1.14.39-.4.6-.4,1.04c0,.21.03.4.1.58s.17.33.3.45c.13.13.29.22.48.29.19.07.41.11.66.11Z"/>
    <path class="cls-3" d="M237.75,203.21c-.07.16-.16.28-.29.36-.13.08-.26.12-.4.12h-.52l4.21-10.48c.06-.15.15-.26.26-.34.11-.08.25-.12.4-.12h.53l-4.18,10.46Z"/>
    <path class="cls-3" d="M242.87,203.06v-10.31h1.25v4.17c.3-.32.64-.58,1.01-.77.37-.19.79-.29,1.27-.29.39,0,.73.06,1.03.19.3.13.54.31.74.55.2.24.35.52.45.85.1.33.15.7.15,1.1v4.51h-1.25v-4.51c0-.54-.12-.95-.37-1.25-.25-.3-.62-.44-1.12-.44-.37,0-.71.09-1.03.27-.32.18-.62.42-.89.72v5.22h-1.25Z"/>
  </g>
  <g class="cls-4">
    <path class="cls-3" d="M174.5,235.75h2.16v-6.84c0-.21,0-.41.02-.62l-1.79,1.53s-.09.06-.14.08c-.05.02-.09.02-.13.02-.07,0-.13-.01-.19-.04-.06-.03-.1-.07-.13-.11l-.39-.54,2.98-2.58h1.01v9.1h1.97v.95h-5.38v-.95Z"/>
    <path class="cls-3" d="M188.31,231.69c0,.88-.09,1.64-.28,2.28-.19.64-.45,1.17-.77,1.59-.33.42-.71.73-1.16.94-.45.21-.92.31-1.43.31s-.99-.1-1.43-.31c-.44-.21-.83-.52-1.15-.94-.33-.42-.58-.95-.77-1.59-.19-.64-.28-1.4-.28-2.28s.09-1.64.28-2.28c.19-.64.44-1.18.77-1.6.33-.42.71-.74,1.15-.94.44-.21.92-.31,1.43-.31s.99.1,1.43.31c.45.21.83.52,1.16.94.33.42.58.96.77,1.6.19.64.28,1.4.28,2.28ZM187.01,231.69c0-.77-.06-1.41-.19-1.93-.13-.52-.3-.94-.52-1.26s-.47-.54-.75-.68c-.28-.14-.58-.21-.89-.21s-.6.07-.89.21c-.29.14-.54.37-.75.68-.21.32-.39.74-.51,1.26-.13.52-.19,1.16-.19,1.93s.06,1.41.19,1.92c.13.52.3.94.51,1.25.21.32.46.54.75.68.28.14.58.21.89.21s.6-.07.89-.21c.29-.14.54-.37.75-.68s.39-.74.52-1.25c.13-.52.19-1.16.19-1.92Z"/>
    <path class="cls-3" d="M196.43,231.69c0,.88-.09,1.64-.28,2.28-.19.64-.45,1.17-.77,1.59-.33.42-.71.73-1.16.94-.45.21-.92.31-1.43.31s-.99-.1-1.43-.31c-.44-.21-.83-.52-1.15-.94-.33-.42-.58-.95-.77-1.59-.19-.64-.28-1.4-.28-2.28s.09-1.64.28-2.28c.19-.64.44-1.18.77-1.6.33-.42.71-.74,1.15-.94.44-.21.92-.31,1.43-.31s.99.1,1.43.31c.45.21.83.52,1.16.94.33.42.58.96.77,1.6.19.64.28,1.4.28,2.28ZM195.13,231.69c0-.77-.06-1.41-.19-1.93-.13-.52-.3-.94-.52-1.26s-.47-.54-.75-.68c-.28-.14-.58-.21-.89-.21s-.6.07-.89.21c-.29.14-.54.37-.75.68-.21.32-.39.74-.51,1.26-.13.52-.19,1.16-.19,1.93s.06,1.41.19,1.92c.13.52.3.94.51,1.25.21.32.46.54.75.68.28.14.58.21.89.21s.6-.07.89-.21c.29-.14.54-.37.75-.68s.39-.74.52-1.25c.13-.52.19-1.16.19-1.92Z"/>
    <path class="cls-3" d="M201.8,229.09c0,.39-.06.74-.18,1.05-.12.31-.28.57-.49.78-.2.21-.44.37-.71.49s-.55.17-.85.17c-.32,0-.61-.06-.88-.17s-.5-.27-.7-.49c-.2-.21-.36-.47-.47-.78-.11-.31-.17-.66-.17-1.05s.06-.76.17-1.07c.11-.31.27-.58.47-.79.2-.21.43-.38.7-.49s.56-.17.88-.17.61.06.88.17c.27.11.51.28.71.49s.35.48.47.79.17.67.17,1.07ZM205.31,226.92c.06-.08.12-.14.19-.19.07-.04.16-.07.27-.07h.9l-7.33,9.83c-.05.06-.1.11-.17.15-.07.04-.14.06-.23.06h-.92l7.29-9.78ZM200.83,229.09c0-.31-.03-.57-.1-.78-.07-.21-.16-.39-.27-.53s-.25-.24-.4-.3c-.15-.06-.31-.09-.49-.09s-.33.03-.49.09c-.15.06-.28.16-.4.3-.11.14-.2.31-.26.53-.06.21-.09.48-.09.78s.03.56.09.77c.06.21.15.39.26.52.11.13.24.23.4.29.15.06.31.09.49.09s.33-.03.49-.09c.15-.06.28-.15.4-.29s.2-.31.27-.52c.07-.21.1-.47.1-.77ZM207.34,234.33c0,.39-.06.74-.18,1.05-.12.31-.28.57-.49.78-.2.21-.44.37-.71.49-.27.11-.55.17-.84.17-.32,0-.61-.06-.88-.17s-.5-.27-.7-.49c-.2-.21-.36-.47-.47-.78-.11-.31-.17-.66-.17-1.05s.06-.76.17-1.07c.11-.32.27-.58.47-.79.2-.21.43-.38.7-.49.27-.11.56-.17.88-.17s.6.06.88.17c.27.11.51.28.71.49.2.21.36.48.47.79.11.31.17.67.17,1.07ZM206.38,234.33c0-.31-.03-.57-.1-.79-.07-.22-.16-.39-.27-.53-.12-.14-.25-.23-.4-.29s-.31-.09-.49-.09-.33.03-.49.09c-.15.06-.28.16-.4.29-.11.13-.2.31-.26.53-.06.22-.09.48-.09.79s.03.56.09.77c.06.21.15.38.26.51.11.13.24.23.4.29.15.06.31.09.49.09s.33-.03.49-.09c.15-.06.28-.15.4-.29.11-.13.2-.3.27-.51.06-.21.1-.47.1-.77Z"/>
    <path class="cls-3" d="M219.91,236.7h-1.37v-4.56h-5.4v4.56h-1.37v-10.03h1.37v4.47h5.4v-4.47h1.37v10.03Z"/>
    <path class="cls-3" d="M230.61,236.7h-1.05c-.12,0-.22-.03-.29-.09-.07-.06-.13-.14-.17-.23l-.94-2.42h-4.5l-.94,2.42c-.03.08-.09.16-.17.22s-.18.1-.29.1h-1.05l4.01-10.03h1.38l4.01,10.03ZM224.04,232.98h3.75l-1.58-4.08c-.1-.25-.2-.57-.3-.95-.05.19-.1.37-.15.53-.05.16-.1.3-.14.42l-1.58,4.07Z"/>
    <path class="cls-3" d="M236.52,230.87c-.04.05-.08.09-.11.12s-.09.04-.16.04-.15-.03-.23-.09c-.08-.06-.19-.12-.31-.19-.13-.07-.28-.13-.46-.19s-.4-.09-.66-.09c-.34,0-.65.06-.92.19-.27.12-.49.3-.67.54s-.32.52-.41.85-.14.7-.14,1.11.05.81.15,1.14.24.61.41.84c.18.23.39.4.65.52.25.12.54.18.86.18s.55-.04.75-.11.36-.15.49-.24c.13-.09.24-.17.32-.24.08-.07.17-.11.25-.11.11,0,.19.04.24.12l.35.46c-.31.38-.69.65-1.16.83-.46.17-.95.26-1.46.26-.44,0-.86-.08-1.24-.25-.38-.16-.71-.4-.99-.71-.28-.31-.5-.69-.66-1.14s-.24-.97-.24-1.55c0-.53.07-1.02.22-1.46.15-.45.36-.83.64-1.16.28-.32.63-.58,1.05-.76.42-.18.89-.27,1.43-.27.49,0,.93.08,1.32.24.38.16.72.39,1.02.68l-.33.45Z"/>
  </g>
  <g class="cls-4">
    <path class="cls-3" d="M213.8,17.71c0,.75-.12,1.43-.36,2.05s-.57,1.14-1.01,1.58c-.43.44-.95.78-1.56,1.02-.61.24-1.28.36-2.02.36h-3.75v-10.03h3.75c.74,0,1.41.12,2.02.36.61.24,1.13.58,1.56,1.02.43.44.77.97,1.01,1.58.24.62.36,1.3.36,2.05ZM212.41,17.71c0-.62-.08-1.17-.25-1.65s-.41-.9-.71-1.23c-.31-.34-.68-.59-1.12-.77s-.93-.27-1.46-.27h-2.39v7.83h2.39c.54,0,1.02-.09,1.46-.27.44-.18.81-.43,1.12-.77.31-.33.55-.74.71-1.23s.25-1.04.25-1.65Z"/>
  </g>
  <g class="cls-4">
    <path class="cls-3" d="M234.31,20.4l-2.39-3.46h1.2c.1,0,.18.02.22.05s.09.08.12.14l1.74,2.66c.04-.13.1-.26.18-.39l1.53-2.24c.05-.07.09-.12.14-.16.05-.04.11-.06.18-.06h1.15l-2.39,3.39,2.49,3.7h-1.2c-.1,0-.18-.03-.24-.08-.06-.05-.11-.11-.14-.18l-1.79-2.78c-.03.14-.08.26-.15.36l-1.65,2.42c-.05.07-.1.12-.15.18-.05.05-.13.08-.22.08h-1.11l2.49-3.63Z"/>
  </g>
  <g class="cls-4">
    <path class="cls-3" d="M244.38,25.79c0,.44-.07.83-.21,1.19-.14.36-.33.66-.58.92s-.55.45-.91.59c-.35.14-.74.21-1.17.21h-2.18v-5.82h2.18c.43,0,.82.07,1.17.21.35.14.65.34.91.59s.45.56.58.92c.14.36.21.75.21,1.19ZM243.57,25.79c0-.36-.05-.68-.15-.96-.1-.28-.24-.52-.41-.71-.18-.19-.4-.34-.65-.45-.25-.1-.54-.15-.85-.15h-1.38v4.54h1.38c.31,0,.59-.05.85-.15.25-.1.47-.25.65-.44.18-.19.32-.43.41-.71.1-.28.15-.6.15-.96Z"/>
    <path class="cls-3" d="M244.9,28.2c0-.06.01-.12.04-.18.02-.06.05-.1.1-.15.04-.04.09-.08.15-.1.06-.02.12-.04.19-.04.08,0,.15.01.22.04.06.03.12.07.16.12.04.05.07.11.09.18.02.07.03.14.03.23,0,.12-.02.25-.05.38s-.08.26-.15.39c-.06.13-.14.25-.24.38-.1.12-.21.23-.33.34l-.12-.12s-.05-.07-.05-.11c0-.04.02-.07.06-.11.03-.03.06-.07.1-.12.04-.05.08-.11.13-.17.04-.06.08-.14.12-.21.04-.08.06-.16.08-.25h-.05c-.07,0-.13-.01-.19-.04-.06-.02-.11-.06-.15-.1-.04-.04-.08-.1-.1-.16-.02-.06-.04-.13-.04-.2Z"/>
    <path class="cls-3" d="M251.66,28.7h-.79v-2.65h-3.13v2.65h-.79v-5.82h.79v2.59h3.13v-2.59h.79v5.82Z"/>
    <path class="cls-3" d="M257.87,28.7h-.61c-.07,0-.13-.02-.17-.05-.04-.04-.08-.08-.1-.13l-.54-1.4h-2.61l-.54,1.4s-.05.09-.1.13c-.05.04-.1.06-.17.06h-.61l2.33-5.82h.8l2.33,5.82ZM254.06,26.54h2.17l-.91-2.37c-.06-.15-.12-.33-.17-.55-.03.11-.06.21-.09.31-.03.09-.06.18-.08.25l-.91,2.36Z"/>
    <path class="cls-3" d="M262.53,27.5s.08.02.12.05l.31.34c-.24.28-.53.49-.87.65-.34.15-.75.23-1.23.23-.42,0-.8-.07-1.14-.22-.34-.14-.63-.35-.87-.61-.24-.26-.43-.57-.56-.94s-.2-.77-.2-1.21.07-.84.21-1.21c.14-.37.34-.68.6-.94.26-.26.56-.47.92-.61.36-.15.75-.22,1.19-.22s.8.07,1.11.2c.31.13.59.31.83.54l-.26.36s-.04.05-.06.07-.06.03-.11.03c-.04,0-.07-.01-.11-.04-.04-.03-.09-.06-.14-.1s-.12-.08-.19-.12c-.07-.04-.16-.08-.26-.12-.1-.04-.22-.07-.35-.1-.13-.03-.29-.04-.46-.04-.31,0-.6.05-.86.16-.26.11-.48.26-.67.46-.19.2-.33.44-.44.72-.11.28-.16.6-.16.95s.05.69.16.97c.1.28.25.52.43.72s.39.35.64.45c.25.1.51.15.8.15.17,0,.33,0,.47-.03.14-.02.27-.05.38-.1.12-.04.23-.1.33-.16s.2-.15.31-.24c.05-.04.09-.06.13-.06Z"/>
  </g>
  <g class="cls-4">
    <g class="cls-4">
      <path class="cls-3" d="M268.69,17.67h6.01v.95h-6.01v-.95ZM268.69,20.01h6.01v.94h-6.01v-.94Z"/>
      <path class="cls-3" d="M286.16,19.02c0,.88-.09,1.64-.28,2.28-.19.64-.45,1.17-.77,1.59-.33.42-.71.73-1.16.94-.45.21-.92.31-1.43.31s-.99-.1-1.43-.31c-.44-.21-.83-.52-1.15-.94-.33-.42-.58-.95-.77-1.59s-.28-1.4-.28-2.28.09-1.64.28-2.28c.19-.64.44-1.18.77-1.6.33-.42.71-.74,1.15-.94.44-.21.92-.31,1.43-.31s.99.1,1.43.31c.45.21.83.52,1.16.94.33.42.58.96.77,1.6.19.64.28,1.4.28,2.28ZM284.87,19.02c0-.77-.06-1.41-.19-1.93-.13-.52-.3-.94-.52-1.26-.22-.32-.47-.54-.75-.68-.29-.14-.58-.21-.89-.21s-.6.07-.89.21c-.28.14-.53.37-.75.68s-.39.74-.51,1.26c-.13.52-.19,1.16-.19,1.93s.06,1.41.19,1.92c.13.52.3.94.51,1.25s.46.54.75.68c.29.14.58.21.89.21s.6-.07.89-.21c.28-.14.54-.37.75-.68.22-.32.39-.74.52-1.25.13-.52.19-1.16.19-1.92Z"/>
      <path class="cls-3" d="M287.2,23.26c0-.12.02-.24.07-.34.04-.11.1-.2.18-.28.08-.08.17-.14.28-.19s.22-.07.34-.07.24.02.34.07c.11.05.2.11.28.19.08.08.14.17.19.28.04.11.07.22.07.34s-.02.24-.07.35c-.04.11-.11.2-.19.28-.08.08-.17.14-.28.19-.11.04-.22.07-.34.07s-.24-.02-.34-.07c-.11-.04-.2-.11-.28-.19-.08-.08-.14-.17-.18-.28-.04-.1-.07-.22-.07-.35Z"/>
      <path class="cls-3" d="M291.56,23.08h2.16v-6.84c0-.21,0-.41.02-.62l-1.79,1.53s-.09.06-.14.08c-.05.02-.09.02-.13.02-.07,0-.13-.01-.19-.04s-.1-.07-.13-.11l-.39-.54,2.98-2.58h1.02v9.1h1.97v.95h-5.38v-.95Z"/>
      <path class="cls-3" d="M305.37,19.02c0,.88-.09,1.64-.28,2.28-.19.64-.45,1.17-.77,1.59-.33.42-.71.73-1.16.94-.45.21-.92.31-1.43.31s-.99-.1-1.43-.31c-.44-.21-.83-.52-1.15-.94-.33-.42-.58-.95-.77-1.59-.19-.64-.28-1.4-.28-2.28s.09-1.64.28-2.28c.19-.64.44-1.18.77-1.6.33-.42.71-.74,1.15-.94.44-.21.92-.31,1.43-.31s.99.1,1.43.31c.45.21.83.52,1.16.94.33.42.58.96.77,1.6.19.64.28,1.4.28,2.28ZM304.07,19.02c0-.77-.06-1.41-.19-1.93-.13-.52-.3-.94-.52-1.26s-.47-.54-.75-.68c-.28-.14-.58-.21-.89-.21s-.6.07-.89.21c-.29.14-.54.37-.75.68-.21.32-.39.74-.51,1.26-.13.52-.19,1.16-.19,1.93s.06,1.41.19,1.92c.13.52.3.94.51,1.25.21.32.46.54.75.68.28.14.58.21.89.21s.6-.07.89-.21c.29-.14.54-.37.75-.68s.39-.74.52-1.25c.13-.52.19-1.16.19-1.92Z"/>
      <path class="cls-3" d="M309.63,19.91c-.38,0-.74-.06-1.07-.19-.34-.13-.64-.31-.89-.56s-.46-.55-.61-.9c-.15-.36-.23-.77-.23-1.23s.08-.85.25-1.23c.16-.38.39-.72.69-1,.29-.29.64-.51,1.05-.67.41-.16.85-.24,1.34-.24s.92.08,1.31.24c.39.16.73.38,1.01.67.28.29.5.63.65,1.02.15.4.23.83.23,1.32,0,.29-.03.56-.08.82-.05.26-.13.51-.23.76-.1.25-.23.49-.37.74-.14.24-.3.5-.49.76l-2.44,3.53c-.06.09-.15.16-.26.21-.11.05-.24.08-.38.08h-1.15l3.05-4c.1-.13.2-.26.29-.38s.17-.24.25-.36c-.26.21-.55.36-.87.47s-.66.16-1.02.16ZM312.14,16.98c0-.31-.05-.6-.15-.85-.1-.25-.24-.47-.42-.65s-.39-.31-.63-.41-.51-.14-.81-.14-.59.05-.84.15c-.25.1-.47.24-.65.42-.18.18-.32.39-.42.64-.1.25-.15.52-.15.81,0,.32.05.6.14.85s.22.46.39.63c.17.17.38.3.62.39s.52.13.82.13c.34,0,.63-.05.89-.16.26-.11.48-.26.66-.44.18-.18.31-.39.41-.63.09-.24.14-.49.14-.74Z"/>
    </g>
    <g class="cls-4">
      <path class="cls-3" d="M234.31,37.2l-2.39-3.46h1.2c.1,0,.18.02.22.05s.09.08.12.14l1.74,2.66c.04-.13.1-.26.18-.39l1.53-2.24c.05-.07.09-.12.14-.16.05-.04.11-.06.18-.06h1.15l-2.39,3.39,2.49,3.7h-1.2c-.1,0-.18-.03-.24-.08-.06-.05-.11-.11-.14-.18l-1.79-2.78c-.03.14-.08.26-.15.36l-1.65,2.42c-.05.07-.1.12-.15.18-.05.05-.13.08-.22.08h-1.11l2.49-3.63Z"/>
    </g>
  </g>
  <g class="cls-4">
    <path class="cls-3" d="M244.38,42.59c0,.44-.07.83-.21,1.19-.14.36-.33.66-.58.92s-.55.45-.91.59c-.35.14-.74.21-1.17.21h-2.18v-5.82h2.18c.43,0,.82.07,1.17.21.35.14.65.34.91.59s.45.56.58.92c.14.36.21.75.21,1.19ZM243.57,42.59c0-.36-.05-.68-.15-.96-.1-.28-.24-.52-.41-.71-.18-.19-.4-.34-.65-.45-.25-.1-.54-.15-.85-.15h-1.38v4.54h1.38c.31,0,.59-.05.85-.15.25-.1.47-.25.65-.44.18-.19.32-.43.41-.71.1-.28.15-.6.15-.96Z"/>
    <path class="cls-3" d="M244.9,45c0-.06.01-.12.04-.18.02-.06.05-.1.1-.15.04-.04.09-.08.15-.1.06-.02.12-.04.19-.04.08,0,.15.01.22.04.06.03.12.07.16.12.04.05.07.11.09.18.02.07.03.14.03.23,0,.12-.02.25-.05.38s-.08.26-.15.39c-.06.13-.14.25-.24.38-.1.12-.21.23-.33.34l-.12-.12s-.05-.07-.05-.11c0-.04.02-.07.06-.11.03-.03.06-.07.1-.12.04-.05.08-.11.13-.17.04-.06.08-.14.12-.21.04-.08.06-.16.08-.25h-.05c-.07,0-.13-.01-.19-.04-.06-.02-.11-.06-.15-.1-.04-.04-.08-.1-.1-.16-.02-.06-.04-.13-.04-.2Z"/>
    <path class="cls-3" d="M246.95,45.5v-5.82h1.86c.36,0,.67.04.92.11.26.07.47.17.64.3.17.13.29.29.37.48.08.19.12.4.12.64,0,.14-.02.28-.07.41-.04.13-.11.26-.2.37s-.2.22-.34.3-.3.16-.48.22c.42.08.75.24.96.46.22.22.33.51.33.88,0,.25-.05.47-.14.67-.09.2-.22.38-.4.52-.17.15-.39.26-.64.34-.25.08-.54.12-.87.12h-2.06ZM247.73,42.29h1.04c.22,0,.42-.02.58-.07.16-.05.3-.12.4-.2.11-.09.19-.19.24-.31s.08-.26.08-.4c0-.34-.1-.59-.31-.75s-.52-.24-.96-.24h-1.07v1.99ZM247.73,42.85v2.03h1.26c.23,0,.42-.03.58-.08.16-.05.29-.12.4-.22.1-.09.18-.2.23-.33s.07-.27.07-.42c0-.3-.11-.54-.32-.71-.21-.17-.53-.26-.96-.26h-1.25Z"/>
    <path class="cls-3" d="M256.25,39.68v.29c0,.09-.03.18-.08.26l-3.29,4.62h3.32v.64h-4.35v-.31c0-.08.03-.16.08-.23l3.3-4.64h-3.22v-.64h4.25Z"/>
  </g>
  <g class="cls-4">
    <g class="cls-4">
      <path class="cls-3" d="M268.68,34.47h6.01v.95h-6.01v-.95ZM268.68,36.81h6.01v.94h-6.01v-.94Z"/>
      <path class="cls-3" d="M286.15,35.82c0,.88-.09,1.64-.28,2.28-.19.64-.45,1.17-.77,1.59-.33.42-.71.73-1.16.94s-.92.31-1.43.31-.99-.1-1.43-.31c-.44-.21-.83-.52-1.15-.94s-.58-.95-.77-1.59c-.19-.64-.28-1.4-.28-2.28s.09-1.64.28-2.28c.19-.64.44-1.18.77-1.6.33-.42.71-.74,1.15-.94.44-.21.92-.31,1.43-.31s.98.1,1.43.31.83.52,1.16.94c.33.42.58.96.77,1.6.19.64.28,1.4.28,2.28ZM284.86,35.82c0-.77-.06-1.41-.19-1.93-.13-.52-.3-.94-.52-1.26s-.47-.54-.75-.68c-.29-.14-.58-.21-.89-.21s-.61.07-.89.21-.53.37-.75.68-.39.74-.51,1.26-.19,1.16-.19,1.93.06,1.41.19,1.92c.13.52.3.94.51,1.25s.46.54.75.68.58.21.89.21.6-.07.89-.21c.28-.14.54-.37.75-.68s.39-.74.52-1.25c.13-.52.19-1.16.19-1.92Z"/>
      <path class="cls-3" d="M287.19,40.06c0-.12.02-.24.07-.34.04-.11.11-.2.18-.28.08-.08.17-.14.28-.19s.22-.07.34-.07.24.02.34.07.2.11.28.19c.08.08.14.17.19.28s.07.22.07.34-.02.24-.07.35c-.04.11-.11.2-.19.28-.08.08-.17.14-.28.19-.11.04-.22.07-.34.07s-.24-.02-.34-.07c-.11-.04-.2-.11-.28-.19-.08-.08-.14-.17-.18-.28-.04-.1-.07-.22-.07-.35Z"/>
      <path class="cls-3" d="M294.09,34.68c.4,0,.78.07,1.14.2s.67.33.95.58c.27.25.48.57.64.94s.24.79.24,1.27-.08.89-.25,1.29-.4.74-.7,1.04-.66.53-1.09.69c-.42.17-.89.25-1.4.25s-.96-.08-1.37-.24c-.41-.16-.76-.39-1.05-.69-.29-.3-.51-.66-.67-1.08-.16-.42-.24-.89-.24-1.42,0-.44.1-.91.29-1.4.2-.5.51-1.03.93-1.6l2.54-3.42c.07-.08.16-.15.27-.21.12-.06.25-.09.4-.09h1.11l-3.48,4.4c.24-.16.5-.29.79-.38.29-.09.6-.14.94-.14ZM291.5,37.74c0,.32.05.62.14.88s.23.49.41.69.4.34.66.45c.26.1.55.16.89.16s.64-.05.91-.16c.27-.11.5-.26.7-.45s.34-.42.45-.68c.11-.26.16-.55.16-.85,0-.33-.05-.62-.15-.88s-.25-.49-.43-.67c-.19-.18-.41-.33-.67-.42-.26-.1-.55-.15-.86-.15-.34,0-.64.06-.91.17s-.5.27-.69.46-.33.42-.43.67c-.1.25-.15.52-.15.79Z"/>
      <path class="cls-3" d="M305.25,30.8v.56c0,.16-.02.29-.05.39s-.07.19-.11.26l-4.15,8.38c-.06.12-.14.23-.25.31-.11.09-.25.13-.43.13h-.89l4.21-8.27c.06-.12.12-.22.19-.32.06-.1.13-.19.21-.28h-5.24c-.08,0-.15-.03-.21-.09-.06-.06-.09-.13-.09-.21v-.85h6.82Z"/>
      <path class="cls-3" d="M312.1,37.21h1.52v.71c0,.08-.02.14-.07.19-.04.05-.11.08-.21.08h-1.25v2.64h-1.1v-2.64h-4.45c-.09,0-.17-.03-.24-.08-.07-.05-.11-.12-.13-.2l-.13-.64,4.88-6.48h1.16v6.41ZM311,33.07c0-.12,0-.25,0-.39,0-.14.02-.28.04-.43l-3.65,4.96h3.59v-4.14Z"/>
    </g>
    <g class="cls-4">
      <path class="cls-3" d="M234.31,54l-2.39-3.46h1.2c.1,0,.18.02.22.05s.09.08.12.14l1.74,2.66c.04-.13.1-.26.18-.39l1.53-2.24c.05-.07.09-.12.14-.16.05-.04.11-.06.18-.06h1.15l-2.39,3.39,2.49,3.7h-1.2c-.1,0-.18-.03-.24-.08-.06-.05-.11-.11-.14-.18l-1.79-2.78c-.03.14-.08.26-.15.36l-1.65,2.42c-.05.07-.1.12-.15.18-.05.05-.13.08-.22.08h-1.11l2.49-3.63Z"/>
    </g>
  </g>
  <g class="cls-4">
    <path class="cls-3" d="M244.38,59.39c0,.44-.07.83-.21,1.19-.14.36-.33.66-.58.92s-.55.45-.91.59c-.35.14-.74.21-1.17.21h-2.18v-5.82h2.18c.43,0,.82.07,1.17.21.35.14.65.34.91.59s.45.56.58.92c.14.36.21.75.21,1.19ZM243.57,59.39c0-.36-.05-.68-.15-.96-.1-.28-.24-.52-.41-.71-.18-.19-.4-.34-.65-.45-.25-.1-.54-.15-.85-.15h-1.38v4.54h1.38c.31,0,.59-.05.85-.15.25-.1.47-.25.65-.44.18-.19.32-.43.41-.71.1-.28.15-.6.15-.96Z"/>
    <path class="cls-3" d="M244.9,61.8c0-.06.01-.12.04-.18.02-.06.05-.1.1-.15.04-.04.09-.08.15-.1.06-.02.12-.04.19-.04.08,0,.15.01.22.04.06.03.12.07.16.12.04.05.07.11.09.18.02.07.03.14.03.23,0,.12-.02.25-.05.38s-.08.26-.15.39c-.06.13-.14.25-.24.38-.1.12-.21.23-.33.34l-.12-.12s-.05-.07-.05-.11c0-.04.02-.07.06-.11.03-.03.06-.07.1-.12.04-.05.08-.11.13-.17.04-.06.08-.14.12-.21.04-.08.06-.16.08-.25h-.05c-.07,0-.13-.01-.19-.04-.06-.02-.11-.06-.15-.1-.04-.04-.08-.1-.1-.16-.02-.06-.04-.13-.04-.2Z"/>
    <path class="cls-3" d="M245.8,56.48h.65c.07,0,.13.02.17.05.05.04.08.08.09.13l1.2,4.04c.02.07.04.15.06.24s.04.17.05.26c.02-.09.04-.18.06-.27.02-.09.04-.16.07-.23l1.37-4.04s.05-.09.1-.13c.05-.04.1-.06.17-.06h.23c.07,0,.13.02.17.05s.08.08.1.13l1.36,4.04c.05.14.09.3.13.48.02-.09.03-.17.04-.26.01-.08.03-.16.05-.23l1.21-4.04s.04-.09.09-.13c.05-.04.1-.06.17-.06h.61l-1.81,5.82h-.71l-1.47-4.44c-.03-.08-.06-.18-.08-.29-.01.05-.03.11-.04.16-.01.05-.02.1-.04.14l-1.48,4.44h-.71l-1.81-5.82Z"/>
  </g>
  <g class="cls-4">
    <g class="cls-4">
      <path class="cls-3" d="M268.68,51.27h6.01v.95h-6.01v-.95ZM268.68,53.61h6.01v.94h-6.01v-.94Z"/>
      <path class="cls-3" d="M286.15,52.62c0,.88-.09,1.64-.28,2.28-.19.64-.45,1.17-.77,1.59-.33.42-.71.73-1.16.94s-.92.31-1.43.31-.99-.1-1.43-.31c-.44-.21-.83-.52-1.15-.94s-.58-.95-.77-1.59c-.19-.64-.28-1.4-.28-2.28s.09-1.64.28-2.28c.19-.64.44-1.18.77-1.6.33-.42.71-.74,1.15-.94.44-.21.92-.31,1.43-.31s.98.1,1.43.31.83.52,1.16.94c.33.42.58.96.77,1.6.19.64.28,1.4.28,2.28ZM284.86,52.62c0-.77-.06-1.41-.19-1.93-.13-.52-.3-.94-.52-1.26s-.47-.54-.75-.68c-.29-.14-.58-.21-.89-.21s-.61.07-.89.21-.53.37-.75.68-.39.74-.51,1.26-.19,1.16-.19,1.93.06,1.41.19,1.92c.13.52.3.94.51,1.25s.46.54.75.68.58.21.89.21.6-.07.89-.21c.28-.14.54-.37.75-.68s.39-.74.52-1.25c.13-.52.19-1.16.19-1.92Z"/>
      <path class="cls-3" d="M287.19,56.86c0-.12.02-.24.07-.34.04-.11.11-.2.18-.28.08-.08.17-.14.28-.19s.22-.07.34-.07.24.02.34.07.2.11.28.19c.08.08.14.17.19.28s.07.22.07.34-.02.24-.07.35c-.04.11-.11.2-.19.28-.08.08-.17.14-.28.19-.11.04-.22.07-.34.07s-.24-.02-.34-.07c-.11-.04-.2-.11-.28-.19-.08-.08-.14-.17-.18-.28-.04-.1-.07-.22-.07-.35Z"/>
      <path class="cls-3" d="M293.75,47.49c.43,0,.82.06,1.19.19s.69.31.96.55c.27.24.48.53.63.88.15.35.23.74.23,1.18,0,.37-.05.72-.17,1.04-.11.32-.26.62-.45.91-.19.29-.41.57-.66.85-.25.27-.52.55-.79.84l-2.64,2.7c.19-.05.38-.09.57-.12s.38-.04.55-.04h3.36c.14,0,.24.04.32.12.08.08.12.18.12.31v.76h-6.69v-.43c0-.09.02-.18.05-.27.04-.09.09-.18.17-.26l3.21-3.23c.27-.27.51-.53.73-.78.22-.25.41-.5.56-.75s.28-.51.36-.77.13-.54.13-.83-.05-.55-.14-.77c-.09-.22-.22-.4-.39-.55-.16-.14-.35-.25-.57-.33-.22-.07-.46-.11-.71-.11s-.49.04-.7.11-.4.18-.57.31-.31.29-.42.47c-.12.18-.2.38-.24.6-.04.14-.09.23-.17.29-.07.06-.17.09-.29.09-.02,0-.05,0-.07,0s-.05,0-.09-.01l-.65-.11c.06-.46.19-.86.38-1.21s.42-.65.71-.89.62-.42.99-.54c.37-.12.77-.19,1.2-.19Z"/>
      <path class="cls-3" d="M299.67,56.68h2.16v-6.84c0-.21,0-.41.02-.62l-1.79,1.53s-.09.06-.14.08c-.05.02-.09.02-.13.02-.07,0-.13-.01-.19-.04-.06-.03-.1-.07-.13-.11l-.39-.54,2.98-2.58h1.01v9.1h1.97v.95h-5.38v-.95Z"/>
      <path class="cls-3" d="M313.37,47.6v.56c0,.16-.02.29-.05.39s-.07.19-.11.26l-4.15,8.38c-.06.12-.14.23-.25.31-.11.09-.25.13-.43.13h-.89l4.21-8.27c.06-.12.12-.22.19-.32.06-.1.13-.19.21-.28h-5.24c-.08,0-.15-.03-.21-.09-.06-.06-.09-.13-.09-.21v-.85h6.82Z"/>
    </g>
  </g>
  <g class="cls-4">
    <path class="cls-3" d="M2.68,39.28l-2.39-3.46h1.2c.1,0,.18.02.22.05.05.03.09.08.13.14l1.74,2.66c.04-.13.1-.26.18-.39l1.53-2.24c.05-.07.09-.12.14-.16.05-.04.1-.06.18-.06h1.15l-2.39,3.39,2.49,3.7h-1.2c-.1,0-.18-.03-.24-.08-.06-.05-.11-.11-.14-.18l-1.79-2.78c-.03.14-.08.26-.15.36l-1.65,2.42c-.05.07-.1.12-.15.18s-.13.08-.22.08H.2l2.49-3.63Z"/>
  </g>
  <g class="cls-4">
    <g class="cls-4">
      <path class="cls-3" d="M11.29,39.76v.64h-2.79v2.03h2.39v.64h-2.39v2.5h-.79v-5.82h3.58Z"/>
    </g>
    <g class="cls-4">
      <path class="cls-3" d="M13.14,48.02h1.25v-3.97c0-.12,0-.24.01-.36l-1.04.89s-.05.04-.08.05c-.03,0-.05.01-.08.01-.04,0-.08,0-.11-.03-.03-.02-.06-.04-.07-.06l-.23-.31,1.73-1.5h.59v5.28h1.15v.55h-3.12v-.55Z"/>
    </g>
    <g class="cls-4">
      <path class="cls-3" d="M16.88,45.08c0-.06.01-.12.03-.18.02-.06.06-.1.1-.15s.09-.08.15-.1c.06-.02.12-.04.19-.04.08,0,.15.01.22.04.06.03.12.07.16.12s.07.11.1.18c.02.07.03.14.03.23,0,.12-.02.25-.05.38s-.09.26-.15.39-.15.25-.24.38c-.1.12-.21.23-.33.34l-.12-.12s-.05-.07-.05-.11c0-.04.02-.07.06-.11.03-.03.06-.07.1-.12.04-.05.08-.11.13-.17.04-.06.08-.14.12-.21.04-.08.06-.16.08-.25h-.05c-.07,0-.13-.01-.19-.04-.06-.02-.11-.06-.15-.1-.04-.04-.07-.1-.1-.16s-.03-.13-.03-.2Z"/>
      <path class="cls-3" d="M23.64,45.58h-.79v-2.65h-3.13v2.65h-.79v-5.82h.79v2.59h3.13v-2.59h.79v5.82Z"/>
      <path class="cls-3" d="M29.85,45.58h-.61c-.07,0-.13-.02-.17-.05-.04-.04-.08-.08-.1-.13l-.54-1.4h-2.61l-.54,1.4s-.05.09-.1.13c-.05.04-.1.06-.17.06h-.61l2.33-5.82h.8l2.33,5.82ZM26.04,43.42h2.17l-.91-2.37c-.06-.15-.12-.33-.17-.55-.03.11-.06.21-.09.31-.03.09-.06.18-.08.25l-.91,2.36Z"/>
      <path class="cls-3" d="M33.27,42.2s-.04.05-.06.07c-.02.02-.05.02-.09.02s-.08-.02-.13-.05-.11-.07-.18-.11c-.07-.04-.16-.08-.27-.11-.1-.03-.23-.05-.38-.05-.2,0-.38.04-.53.11s-.28.18-.39.31c-.1.14-.18.3-.24.49-.05.19-.08.41-.08.65s.03.47.09.66c.06.19.14.36.24.49s.23.23.38.3.31.1.5.1.32-.02.43-.06c.11-.04.21-.09.28-.14.08-.05.14-.1.19-.14s.1-.06.15-.06c.06,0,.11.02.14.07l.2.26c-.18.22-.4.38-.67.48-.27.1-.55.15-.85.15-.26,0-.5-.05-.72-.14-.22-.09-.41-.23-.57-.41-.16-.18-.29-.4-.38-.66s-.14-.56-.14-.9c0-.31.04-.59.13-.85.09-.26.21-.48.37-.67.16-.19.37-.33.61-.44.24-.11.52-.16.83-.16.29,0,.54.05.76.14.22.09.42.23.59.4l-.19.26Z"/>
    </g>
  </g>
  <g class="cls-4">
    <g class="cls-4">
      <path class="cls-3" d="M40.28,36.55h6.01v.95h-6.01v-.95ZM40.28,38.89h6.01v.94h-6.01v-.94Z"/>
      <path class="cls-3" d="M57.75,37.9c0,.88-.09,1.64-.28,2.28s-.45,1.17-.77,1.59-.71.73-1.16.94-.92.31-1.43.31-.99-.1-1.43-.31-.83-.52-1.15-.94c-.33-.42-.58-.95-.77-1.59-.19-.64-.28-1.4-.28-2.28s.09-1.64.28-2.28c.19-.64.44-1.18.77-1.6.33-.42.71-.74,1.15-.94s.92-.31,1.43-.31.99.1,1.43.31.83.52,1.16.94c.33.42.58.96.77,1.6.19.64.28,1.4.28,2.28ZM56.46,37.9c0-.77-.06-1.41-.19-1.93s-.3-.94-.52-1.26c-.22-.32-.47-.54-.75-.68s-.58-.21-.89-.21-.6.07-.89.21-.53.37-.75.68c-.21.32-.39.74-.51,1.26s-.19,1.16-.19,1.93.06,1.41.19,1.92c.13.52.3.94.51,1.25.21.32.46.54.75.68s.58.21.89.21.6-.07.89-.21.54-.37.75-.68c.22-.32.39-.74.52-1.25.13-.52.19-1.16.19-1.92Z"/>
      <path class="cls-3" d="M58.79,42.14c0-.12.02-.24.07-.34.04-.11.1-.2.18-.28.08-.08.17-.14.28-.19s.22-.07.34-.07.24.02.34.07c.11.05.2.11.28.19.08.08.14.17.19.28s.07.22.07.34-.02.24-.07.35c-.04.11-.11.2-.19.28-.08.08-.17.14-.28.19-.11.04-.22.07-.34.07s-.24-.02-.34-.07c-.11-.04-.2-.11-.28-.19-.08-.08-.14-.17-.18-.28-.04-.1-.07-.22-.07-.35Z"/>
      <path class="cls-3" d="M65.19,43.02c-.5,0-.96-.07-1.37-.2-.42-.13-.77-.32-1.07-.57-.3-.25-.53-.55-.69-.9-.16-.35-.25-.75-.25-1.19,0-.64.17-1.17.5-1.59.34-.42.82-.71,1.44-.89-.53-.2-.93-.49-1.19-.88-.27-.39-.4-.86-.4-1.4,0-.37.07-.71.22-1.04.15-.32.35-.6.62-.84s.58-.42.96-.56c.37-.13.79-.2,1.24-.2s.87.07,1.24.2c.37.14.69.32.96.56s.47.52.62.84c.14.32.22.67.22,1.04,0,.54-.14,1.01-.41,1.4-.27.39-.67.68-1.19.88.63.18,1.11.47,1.44.89.34.42.5.95.5,1.59,0,.44-.08.83-.25,1.19s-.4.65-.69.9c-.3.25-.65.44-1.07.57-.42.13-.87.2-1.37.2ZM65.19,42.03c.33,0,.62-.05.88-.14.26-.09.48-.22.66-.38.18-.17.32-.36.41-.59.1-.23.14-.49.14-.77,0-.35-.06-.64-.17-.89-.11-.25-.27-.44-.46-.6-.19-.15-.42-.27-.67-.34-.25-.07-.52-.11-.79-.11s-.54.04-.79.11c-.25.07-.48.19-.67.34-.19.15-.35.35-.46.6s-.17.54-.17.89c0,.28.05.54.14.77.1.23.23.43.41.59.18.17.4.29.66.38.26.09.55.14.88.14ZM65.19,37.21c.33,0,.61-.05.84-.15s.42-.23.56-.4c.14-.17.25-.36.31-.57.07-.21.1-.44.1-.67s-.04-.45-.12-.66c-.08-.21-.19-.39-.34-.54-.15-.15-.34-.28-.57-.36-.23-.09-.49-.13-.79-.13s-.56.04-.79.13c-.23.09-.42.21-.57.36-.15.15-.27.33-.34.54-.08.21-.12.42-.12.66s.03.45.1.67c.07.21.17.41.31.57.14.17.33.3.56.4s.51.15.84.15Z"/>
      <path class="cls-3" d="M76.96,37.9c0,.88-.09,1.64-.28,2.28s-.45,1.17-.77,1.59-.71.73-1.16.94-.92.31-1.43.31-.99-.1-1.43-.31-.83-.52-1.15-.94c-.33-.42-.58-.95-.77-1.59-.19-.64-.28-1.4-.28-2.28s.09-1.64.28-2.28c.19-.64.44-1.18.77-1.6.33-.42.71-.74,1.15-.94s.92-.31,1.43-.31.99.1,1.43.31.83.52,1.16.94c.33.42.58.96.77,1.6.19.64.28,1.4.28,2.28ZM75.67,37.9c0-.77-.06-1.41-.19-1.93s-.3-.94-.52-1.26c-.22-.32-.47-.54-.75-.68s-.58-.21-.89-.21-.6.07-.89.21-.53.37-.75.68c-.21.32-.39.74-.51,1.26s-.19,1.16-.19,1.93.06,1.41.19,1.92c.13.52.3.94.51,1.25.21.32.46.54.75.68s.58.21.89.21.6-.07.89-.21.54-.37.75-.68c.22-.32.39-.74.52-1.25.13-.52.19-1.16.19-1.92Z"/>
    </g>
    <g class="cls-4">
      <path class="cls-3" d="M2.68,56.08l-2.39-3.46h1.2c.1,0,.18.02.22.05.05.03.09.08.13.14l1.74,2.66c.04-.13.1-.26.18-.39l1.53-2.24c.05-.07.09-.12.14-.16.05-.04.1-.06.18-.06h1.15l-2.39,3.39,2.49,3.7h-1.2c-.1,0-.18-.03-.24-.08-.06-.05-.11-.11-.14-.18l-1.79-2.78c-.03.14-.08.26-.15.36l-1.65,2.42c-.05.07-.1.12-.15.18s-.13.08-.22.08H.2l2.49-3.63Z"/>
    </g>
  </g>
  <g class="cls-4">
    <g class="cls-4">
      <path class="cls-3" d="M11.29,56.56v.64h-2.79v2.03h2.39v.64h-2.39v2.5h-.79v-5.82h3.58Z"/>
    </g>
    <g class="cls-4">
      <path class="cls-3" d="M13.14,64.81h1.25v-3.97c0-.12,0-.24.01-.36l-1.04.89s-.05.04-.08.05c-.03,0-.05.01-.08.01-.04,0-.08,0-.11-.03-.03-.02-.06-.04-.07-.06l-.23-.31,1.73-1.5h.59v5.28h1.15v.55h-3.12v-.55Z"/>
    </g>
    <g class="cls-4">
      <path class="cls-3" d="M16.88,61.88c0-.06.01-.12.03-.18.02-.06.06-.1.1-.15s.09-.08.15-.1c.06-.02.12-.04.19-.04.08,0,.15.01.22.04.06.03.12.07.16.12s.07.11.1.18c.02.07.03.14.03.23,0,.12-.02.25-.05.38s-.09.26-.15.39-.15.25-.24.38c-.1.12-.21.23-.33.34l-.12-.12s-.05-.07-.05-.11c0-.04.02-.07.06-.11.03-.03.06-.07.1-.12.04-.05.08-.11.13-.17.04-.06.08-.14.12-.21.04-.08.06-.16.08-.25h-.05c-.07,0-.13-.01-.19-.04-.06-.02-.11-.06-.15-.1-.04-.04-.07-.1-.1-.16s-.03-.13-.03-.2Z"/>
      <path class="cls-3" d="M17.78,56.56h.65c.07,0,.13.02.17.05.05.04.08.08.09.13l1.2,4.04c.02.07.04.15.06.24s.03.17.05.26c.02-.09.04-.18.06-.27s.04-.16.06-.23l1.37-4.04s.05-.09.1-.13c.05-.04.1-.06.17-.06h.23c.07,0,.13.02.17.05.04.04.08.08.1.13l1.36,4.04c.05.14.09.3.13.48.02-.09.03-.17.04-.26.01-.08.03-.16.05-.23l1.21-4.04s.04-.09.09-.13c.05-.04.1-.06.17-.06h.61l-1.81,5.82h-.71l-1.47-4.44c-.03-.08-.06-.18-.08-.29-.01.05-.03.11-.04.16-.01.05-.02.1-.04.14l-1.48,4.44h-.71l-1.81-5.82Z"/>
    </g>
  </g>
  <g class="cls-4">
    <g class="cls-4">
      <path class="cls-3" d="M39.35,53.35h6.01v.95h-6.01v-.95ZM39.35,55.69h6.01v.94h-6.01v-.94Z"/>
      <path class="cls-3" d="M56.82,54.7c0,.88-.09,1.64-.28,2.28-.19.64-.45,1.17-.77,1.59-.33.42-.71.73-1.16.94-.45.21-.92.31-1.43.31s-.99-.1-1.43-.31c-.44-.21-.83-.52-1.15-.94-.33-.42-.58-.95-.77-1.59-.19-.64-.28-1.4-.28-2.28s.09-1.64.28-2.28c.19-.64.44-1.18.77-1.6.33-.42.71-.74,1.15-.94.44-.21.92-.31,1.43-.31s.99.1,1.43.31c.45.21.83.52,1.16.94.33.42.58.96.77,1.6.19.64.28,1.4.28,2.28ZM55.53,54.7c0-.77-.06-1.41-.19-1.93-.13-.52-.3-.94-.52-1.26s-.47-.54-.75-.68c-.28-.14-.58-.21-.89-.21s-.6.07-.89.21c-.29.14-.54.37-.75.68-.21.32-.39.74-.51,1.26-.13.52-.19,1.16-.19,1.93s.06,1.41.19,1.92c.13.52.3.94.51,1.25.21.32.46.54.75.68.28.14.58.21.89.21s.6-.07.89-.21c.29-.14.54-.37.75-.68s.39-.74.52-1.25c.13-.52.19-1.16.19-1.92Z"/>
      <path class="cls-3" d="M57.86,58.94c0-.12.02-.24.07-.34.04-.11.1-.2.18-.28.08-.08.17-.14.28-.19s.22-.07.34-.07.24.02.34.07c.11.05.2.11.28.19.08.08.14.17.19.28.04.11.07.22.07.34s-.02.24-.07.35c-.04.11-.11.2-.19.28-.08.08-.17.14-.28.19-.11.04-.22.07-.34.07s-.24-.02-.34-.07c-.11-.04-.2-.11-.28-.19-.08-.08-.14-.17-.18-.28-.04-.1-.07-.22-.07-.35Z"/>
      <path class="cls-3" d="M64.42,49.57c.42,0,.82.06,1.19.19.37.13.69.31.96.55.27.24.48.53.63.88.15.35.23.74.23,1.18,0,.37-.06.72-.17,1.04-.11.32-.26.62-.46.91s-.41.57-.66.85c-.25.27-.51.55-.79.84l-2.64,2.7c.19-.05.38-.09.57-.12s.38-.04.55-.04h3.36c.14,0,.24.04.32.12.08.08.12.18.12.31v.76h-6.69v-.43c0-.09.02-.18.05-.27.04-.09.09-.18.17-.26l3.21-3.23c.27-.27.51-.53.73-.78.22-.25.41-.5.56-.75s.28-.51.36-.77.13-.54.13-.83-.05-.55-.14-.77-.22-.4-.38-.55c-.16-.14-.35-.25-.57-.33-.22-.07-.46-.11-.71-.11s-.49.04-.7.11-.4.18-.57.31-.31.29-.42.47c-.11.18-.2.38-.24.6-.04.14-.09.23-.17.29-.08.06-.17.09-.29.09-.02,0-.05,0-.07,0-.03,0-.05,0-.09-.01l-.65-.11c.07-.46.19-.86.38-1.21s.42-.65.71-.89.62-.42.99-.54c.37-.12.77-.19,1.2-.19Z"/>
      <path class="cls-3" d="M76.03,54.7c0,.88-.09,1.64-.28,2.28-.19.64-.45,1.17-.77,1.59-.33.42-.71.73-1.16.94-.45.21-.92.31-1.43.31s-.99-.1-1.43-.31c-.44-.21-.83-.52-1.15-.94-.33-.42-.58-.95-.77-1.59s-.28-1.4-.28-2.28.09-1.64.28-2.28c.19-.64.44-1.18.77-1.6.33-.42.71-.74,1.15-.94.44-.21.92-.31,1.43-.31s.99.1,1.43.31c.45.21.83.52,1.16.94.33.42.58.96.77,1.6.19.64.28,1.4.28,2.28ZM74.74,54.7c0-.77-.06-1.41-.19-1.93-.13-.52-.3-.94-.52-1.26-.22-.32-.47-.54-.75-.68-.29-.14-.58-.21-.89-.21s-.6.07-.89.21c-.28.14-.53.37-.75.68s-.39.74-.51,1.26c-.13.52-.19,1.16-.19,1.93s.06,1.41.19,1.92c.13.52.3.94.51,1.25s.46.54.75.68c.29.14.58.21.89.21s.6-.07.89-.21c.28-.14.54-.37.75-.68.22-.32.39-.74.52-1.25.13-.52.19-1.16.19-1.92Z"/>
    </g>
  </g>
</svg>