<?xml version="1.0" encoding="UTF-8"?>
<svg id="Layer_1" data-name="Layer 1" xmlns="http://www.w3.org/2000/svg" viewBox="0 0 255.83 115.23">
  <defs>
    <style>
      .cls-1 {
        fill: #fff;
      }

      .cls-1, .cls-2 {
        stroke: #231f20;
        stroke-miterlimit: 10;
      }

      .cls-3 {
        fill: #231f20;
      }

      .cls-4 {
        isolation: isolate;
      }

      .cls-2 {
        fill: none;
      }
    </style>
  </defs>
  <rect class="cls-1" x="94.45" y="10.3" width="73.04" height="44.3"/>
  <line class="cls-2" y1="32.45" x2="85.59" y2="32.45"/>
  <polygon class="cls-3" points="83.61 35.35 94.45 32.45 83.61 29.54 83.61 35.35"/>
  <line class="cls-2" x1="130.97" y1="115.23" x2="130.97" y2="63.46"/>
  <polygon class="cls-3" points="133.87 65.44 130.97 54.6 128.06 65.44 133.87 65.44"/>
  <line class="cls-2" x1="167.11" y1="32.45" x2="246.97" y2="32.45"/>
  <polygon class="cls-3" points="244.99 35.35 255.83 32.45 244.99 29.54 244.99 35.35"/>
  <g class="cls-4">
    <path class="cls-3" d="M6.34,15.85v.95H2.21v3.01h3.53v.95h-3.53v3.7h-1.17v-8.6h5.3Z"/>
    <path class="cls-3" d="M10.01,19h5.15v.81h-5.15v-.81ZM10.01,21h5.15v.81h-5.15v-.81Z"/>
    <path class="cls-3" d="M20.11,23.63h1.85v-5.86c0-.18,0-.35.02-.53l-1.54,1.31s-.08.06-.12.07c-.04.01-.08.02-.11.02-.06,0-.11-.01-.16-.04-.05-.03-.08-.06-.11-.09l-.34-.46,2.56-2.21h.87v7.8h1.69v.82h-4.61v-.82Z"/>
    <path class="cls-3" d="M31.94,20.15c0,.75-.08,1.4-.24,1.95s-.38,1-.66,1.37c-.28.36-.61.63-.99.8-.38.18-.79.26-1.23.26s-.85-.09-1.23-.26-.71-.44-.99-.8c-.28-.36-.5-.82-.66-1.37-.16-.55-.24-1.2-.24-1.95s.08-1.4.24-1.96c.16-.55.38-1.01.66-1.37.28-.36.61-.63.99-.81.38-.18.79-.26,1.23-.26s.84.09,1.23.26c.38.18.71.44.99.81.28.36.5.82.66,1.37s.24,1.2.24,1.96ZM30.83,20.15c0-.66-.06-1.21-.17-1.65-.11-.45-.26-.8-.44-1.08-.19-.27-.4-.47-.65-.58-.24-.12-.5-.18-.76-.18s-.52.06-.76.18c-.24.12-.46.31-.64.58-.18.27-.33.63-.44,1.08-.11.45-.17,1-.17,1.65s.06,1.21.17,1.65c.11.44.26.8.44,1.07.18.27.4.47.64.58.24.12.5.18.76.18s.52-.06.76-.18c.24-.12.46-.31.65-.58.19-.27.33-.63.44-1.07.11-.44.17-.99.17-1.65Z"/>
    <path class="cls-3" d="M38.9,20.15c0,.75-.08,1.4-.24,1.95s-.38,1-.66,1.37c-.28.36-.61.63-.99.8-.38.18-.79.26-1.23.26s-.85-.09-1.23-.26-.71-.44-.99-.8c-.28-.36-.5-.82-.66-1.37-.16-.55-.24-1.2-.24-1.95s.08-1.4.24-1.96c.16-.55.38-1.01.66-1.37.28-.36.61-.63.99-.81.38-.18.79-.26,1.23-.26s.84.09,1.23.26c.38.18.71.44.99.81.28.36.5.82.66,1.37s.24,1.2.24,1.96ZM37.79,20.15c0-.66-.06-1.21-.17-1.65-.11-.45-.26-.8-.44-1.08-.19-.27-.4-.47-.65-.58-.24-.12-.5-.18-.76-.18s-.52.06-.76.18c-.24.12-.46.31-.64.58-.18.27-.33.63-.44,1.08-.11.45-.17,1-.17,1.65s.06,1.21.17,1.65c.11.44.26.8.44,1.07.18.27.4.47.64.58.24.12.5.18.76.18s.52-.06.76-.18c.24-.12.46-.31.65-.58.19-.27.33-.63.44-1.07.11-.44.17-.99.17-1.65Z"/>
    <path class="cls-3" d="M45.86,20.15c0,.75-.08,1.4-.24,1.95s-.38,1-.66,1.37c-.28.36-.61.63-.99.8-.38.18-.79.26-1.23.26s-.85-.09-1.23-.26-.71-.44-.99-.8c-.28-.36-.5-.82-.66-1.37-.16-.55-.24-1.2-.24-1.95s.08-1.4.24-1.96c.16-.55.38-1.01.66-1.37.28-.36.61-.63.99-.81.38-.18.79-.26,1.23-.26s.84.09,1.23.26c.38.18.71.44.99.81.28.36.5.82.66,1.37s.24,1.2.24,1.96ZM44.75,20.15c0-.66-.06-1.21-.17-1.65-.11-.45-.26-.8-.44-1.08-.19-.27-.4-.47-.65-.58-.24-.12-.5-.18-.76-.18s-.52.06-.76.18c-.24.12-.46.31-.64.58-.18.27-.33.63-.44,1.08-.11.45-.17,1-.17,1.65s.06,1.21.17,1.65c.11.44.26.8.44,1.07.18.27.4.47.64.58.24.12.5.18.76.18s.52-.06.76-.18c.24-.12.46-.31.65-.58.19-.27.33-.63.44-1.07.11-.44.17-.99.17-1.65Z"/>
    <path class="cls-3" d="M52.82,20.15c0,.75-.08,1.4-.24,1.95s-.38,1-.66,1.37c-.28.36-.61.63-.99.8-.38.18-.79.26-1.23.26s-.85-.09-1.23-.26-.71-.44-.99-.8c-.28-.36-.5-.82-.66-1.37-.16-.55-.24-1.2-.24-1.95s.08-1.4.24-1.96c.16-.55.38-1.01.66-1.37.28-.36.61-.63.99-.81.38-.18.79-.26,1.23-.26s.84.09,1.23.26c.38.18.71.44.99.81.28.36.5.82.66,1.37s.24,1.2.24,1.96ZM51.71,20.15c0-.66-.06-1.21-.17-1.65-.11-.45-.26-.8-.44-1.08-.19-.27-.4-.47-.65-.58-.24-.12-.5-.18-.76-.18s-.52.06-.76.18c-.24.12-.46.31-.64.58-.18.27-.33.63-.44,1.08-.11.45-.17,1-.17,1.65s.06,1.21.17,1.65c.11.44.26.8.44,1.07.18.27.4.47.64.58.24.12.5.18.76.18s.52-.06.76-.18c.24-.12.46-.31.65-.58.19-.27.33-.63.44-1.07.11-.44.17-.99.17-1.65Z"/>
    <path class="cls-3" d="M57.48,15.61v5.2h.28c.08,0,.15-.01.2-.03s.11-.07.17-.13l1.92-2.06c.06-.06.12-.12.18-.16s.14-.06.24-.06h.97l-2.24,2.38c-.06.07-.11.13-.17.18-.05.05-.12.1-.18.14.07.05.14.1.2.17.06.06.11.13.17.21l2.38,3h-.96c-.09,0-.16-.02-.23-.05s-.12-.09-.18-.16l-2-2.49c-.06-.08-.12-.14-.18-.17-.06-.03-.15-.04-.27-.04h-.3v2.9h-1.07v-8.84h1.07Z"/>
    <path class="cls-3" d="M64.71,18.27c.26,0,.51.03.74.09.23.06.44.14.63.25h1.65v.4c0,.13-.08.22-.25.25l-.69.1c.14.26.2.55.2.87,0,.3-.06.56-.17.81-.11.24-.27.45-.47.62-.2.17-.44.3-.72.4-.28.09-.58.14-.92.14-.28,0-.55-.03-.8-.1-.13.08-.23.17-.29.27-.07.1-.1.19-.1.28,0,.15.06.26.17.34.12.08.27.13.46.17.19.03.41.05.65.05h.75c.25,0,.5.02.75.07.24.04.46.12.65.22s.35.24.46.42c.12.18.17.41.17.69,0,.26-.06.52-.19.77s-.32.47-.56.66-.54.35-.89.46-.75.17-1.19.17-.83-.04-1.17-.13-.61-.21-.83-.35c-.22-.15-.38-.32-.5-.51-.11-.19-.17-.4-.17-.61,0-.3.1-.56.29-.77s.45-.38.78-.5c-.17-.08-.31-.19-.41-.32s-.15-.31-.15-.54c0-.09.02-.18.05-.27.03-.09.08-.19.15-.28s.15-.18.24-.26c.1-.08.21-.16.34-.22-.3-.17-.54-.39-.71-.67s-.25-.6-.25-.97c0-.3.06-.57.17-.81.11-.24.27-.45.48-.62.2-.17.45-.3.73-.39.28-.09.59-.14.93-.14ZM66.6,24.76c0-.16-.04-.28-.13-.37s-.2-.17-.34-.22-.31-.09-.5-.11-.39-.04-.59-.04h-.64c-.22,0-.42-.03-.62-.08-.23.11-.41.24-.55.4-.14.16-.21.34-.21.56,0,.14.04.26.1.38.07.12.18.22.32.31.14.09.32.15.54.2.22.05.48.08.77.08s.55-.03.77-.08c.23-.05.42-.13.58-.23.16-.1.28-.21.36-.35s.13-.28.13-.45ZM64.71,21.48c.22,0,.41-.03.57-.09.17-.06.3-.14.42-.25.11-.11.2-.24.25-.39.06-.15.08-.31.08-.5,0-.37-.11-.67-.34-.89-.23-.22-.56-.33-.99-.33s-.75.11-.98.33-.34.52-.34.89c0,.18.03.35.09.5.06.15.14.28.25.39.11.11.25.19.41.25.16.06.35.09.56.09Z"/>
    <path class="cls-3" d="M68.88,24.58c-.06.14-.14.24-.25.31-.11.07-.22.1-.34.1h-.45l3.61-8.98c.05-.13.13-.23.22-.29.1-.07.21-.1.34-.1h.45l-3.58,8.96Z"/>
    <path class="cls-3" d="M73.27,24.45v-8.84h1.07v3.58c.26-.28.55-.5.86-.66s.68-.25,1.09-.25c.33,0,.62.05.88.17.25.11.47.27.64.47s.3.45.39.73c.09.28.13.6.13.94v3.87h-1.07v-3.87c0-.46-.1-.82-.32-1.07-.21-.25-.53-.38-.96-.38-.32,0-.61.08-.88.23-.27.15-.53.36-.76.62v4.48h-1.07Z"/>
  </g>
  <g class="cls-4">
    <path class="cls-3" d="M2.3,42.22l-2.05-2.96h1.03c.09,0,.15.01.19.04.04.03.08.07.11.12l1.49,2.28c.04-.11.09-.22.16-.34l1.31-1.92c.04-.06.08-.1.12-.14.04-.03.09-.05.15-.05h.98l-2.05,2.9,2.13,3.17h-1.03c-.09,0-.16-.02-.21-.07-.05-.05-.09-.1-.12-.15l-1.53-2.38c-.03.12-.07.22-.13.31l-1.42,2.07c-.04.06-.08.11-.13.15s-.11.07-.19.07H.17l2.13-3.11Z"/>
  </g>
  <g class="cls-4">
    <g class="cls-4">
      <path class="cls-3" d="M9.68,44.34v.55h-2.39v1.74h2.05v.55h-2.05v2.14h-.68v-4.99h3.07Z"/>
    </g>
    <g class="cls-4">
      <path class="cls-3" d="M9.81,48.9c0-.05,0-.1.03-.15.02-.05.05-.09.08-.12.04-.04.08-.06.13-.09.05-.02.11-.03.17-.03.07,0,.13.01.19.04.05.03.1.06.14.11.04.04.06.1.08.16.02.06.03.12.03.19,0,.1-.02.21-.05.33-.03.11-.07.22-.13.33-.06.11-.12.22-.21.32-.08.1-.18.2-.28.29l-.1-.1s-.05-.06-.05-.1c0-.03.02-.06.05-.09.02-.03.05-.06.09-.1.04-.04.07-.09.11-.15s.07-.12.1-.18.05-.14.07-.22h-.04c-.06,0-.12-.01-.16-.03-.05-.02-.09-.05-.13-.09-.04-.04-.06-.08-.08-.14-.02-.05-.03-.11-.03-.17Z"/>
      <path class="cls-3" d="M15.66,49.33h-.52c-.06,0-.11-.02-.15-.05-.04-.03-.06-.07-.08-.11l-.47-1.2h-2.24l-.47,1.2s-.04.08-.08.11c-.04.03-.09.05-.15.05h-.52l1.99-4.99h.69l1.99,4.99ZM12.4,47.48h1.86l-.78-2.03c-.05-.12-.1-.28-.15-.47-.03.1-.05.18-.08.26s-.05.15-.07.21l-.78,2.03Z"/>
    </g>
  </g>
  <g class="cls-4">
    <g class="cls-4">
      <path class="cls-3" d="M19.33,39.88h5.15v.81h-5.15v-.81ZM19.33,41.89h5.15v.81h-5.15v-.81Z"/>
      <path class="cls-3" d="M34.3,41.04c0,.75-.08,1.4-.24,1.95s-.38,1-.66,1.37c-.28.36-.61.63-.99.8-.38.18-.79.26-1.23.26s-.85-.09-1.23-.26-.71-.44-.99-.8c-.28-.36-.5-.82-.66-1.37-.16-.55-.24-1.2-.24-1.95s.08-1.4.24-1.96c.16-.55.38-1.01.66-1.37.28-.36.61-.63.99-.81.38-.18.79-.26,1.23-.26s.84.09,1.23.26c.38.18.71.44.99.81.28.36.5.82.66,1.37s.24,1.2.24,1.96ZM33.19,41.04c0-.66-.06-1.21-.17-1.65-.11-.45-.26-.8-.44-1.08-.19-.27-.4-.47-.65-.58-.24-.12-.5-.18-.76-.18s-.52.06-.76.18c-.24.12-.46.31-.64.58-.18.27-.33.63-.44,1.08-.11.45-.17,1-.17,1.65s.06,1.21.17,1.65c.11.44.26.8.44,1.07.18.27.4.47.64.58.24.12.5.18.76.18s.52-.06.76-.18c.24-.12.46-.31.65-.58.19-.27.33-.63.44-1.07.11-.44.17-.99.17-1.65Z"/>
      <path class="cls-3" d="M35.19,44.68c0-.1.02-.2.06-.29s.09-.17.16-.24c.07-.07.14-.12.24-.16.09-.04.19-.06.29-.06s.2.02.29.06c.09.04.17.09.24.16.07.07.12.15.16.24s.06.19.06.29-.02.21-.06.3-.09.17-.16.24c-.07.07-.15.12-.24.16-.09.04-.19.06-.29.06s-.2-.02-.29-.06c-.09-.04-.17-.09-.24-.16-.07-.07-.12-.15-.16-.24s-.06-.19-.06-.3Z"/>
      <path class="cls-3" d="M40.5,41.81c-.32,0-.63-.05-.92-.16-.29-.11-.54-.27-.77-.48-.22-.21-.4-.47-.52-.77-.13-.31-.19-.66-.19-1.05,0-.38.07-.73.21-1.06.14-.33.34-.61.59-.86s.55-.44.9-.58c.35-.14.73-.21,1.15-.21s.79.07,1.12.2c.34.14.62.33.86.57.24.24.43.54.56.88s.19.72.19,1.13c0,.25-.02.48-.07.71s-.11.44-.2.65c-.09.21-.19.42-.32.63s-.26.43-.42.65l-2.09,3.02c-.05.08-.13.14-.22.18-.1.05-.21.07-.33.07h-.98l2.62-3.43c.09-.12.17-.23.25-.33.08-.1.15-.21.22-.31-.22.18-.47.31-.74.4s-.57.14-.88.14ZM42.65,39.3c0-.27-.04-.51-.13-.73-.09-.22-.21-.4-.36-.55-.15-.15-.33-.27-.54-.35s-.44-.12-.69-.12-.51.04-.72.13c-.22.09-.4.21-.56.36-.15.15-.27.33-.36.55s-.13.44-.13.7c0,.27.04.52.12.73.08.21.19.39.34.54.15.15.32.26.53.34s.44.11.71.11c.29,0,.54-.05.77-.14.22-.09.41-.22.56-.38.15-.16.27-.34.35-.54s.12-.42.12-.64Z"/>
      <path class="cls-3" d="M47.64,45.43c-.43,0-.82-.06-1.18-.17s-.66-.28-.92-.49c-.26-.21-.45-.47-.59-.77-.14-.3-.21-.64-.21-1.02,0-.55.14-1.01.43-1.37.29-.36.7-.61,1.24-.77-.45-.17-.79-.42-1.02-.75-.23-.33-.35-.73-.35-1.2,0-.32.06-.61.19-.89.12-.28.3-.52.53-.72s.5-.36.82-.48c.32-.12.67-.17,1.06-.17s.74.06,1.06.17c.32.12.59.28.82.48s.4.44.53.72c.12.28.19.57.19.89,0,.46-.12.86-.35,1.2s-.57.58-1.02.75c.54.15.95.41,1.24.77.29.36.43.81.43,1.37,0,.38-.07.71-.21,1.02-.14.3-.34.56-.59.77-.25.21-.56.38-.92.49s-.75.17-1.18.17ZM47.64,44.58c.28,0,.53-.04.75-.12s.41-.19.56-.33c.15-.14.27-.31.35-.51s.12-.42.12-.66c0-.3-.05-.55-.15-.76-.1-.21-.23-.38-.4-.51-.17-.13-.36-.23-.57-.29-.22-.06-.44-.09-.68-.09s-.46.03-.68.09c-.22.06-.41.16-.57.29-.17.13-.3.3-.4.51-.1.21-.15.46-.15.76,0,.24.04.46.12.66.08.2.2.37.35.51.15.14.34.25.56.33.22.08.47.12.75.12ZM47.64,40.46c.28,0,.52-.04.72-.13.2-.09.36-.2.48-.34.12-.14.21-.3.27-.49.06-.18.08-.37.08-.57s-.03-.39-.1-.56c-.07-.18-.16-.33-.29-.46-.13-.13-.29-.24-.49-.31s-.42-.11-.67-.11-.48.04-.68.11c-.19.08-.36.18-.49.31-.13.13-.23.29-.29.46-.07.18-.1.36-.1.56s.03.39.08.57c.06.18.15.35.27.49.12.14.29.26.48.34.2.09.44.13.72.13Z"/>
    </g>
    <g class="cls-4">
      <path class="cls-3" d="M2.3,56.62l-2.05-2.96h1.03c.09,0,.15.01.19.04.04.03.08.07.11.12l1.49,2.28c.04-.11.09-.22.16-.34l1.31-1.92c.04-.06.08-.1.12-.14.04-.03.09-.05.15-.05h.98l-2.05,2.9,2.13,3.17h-1.03c-.09,0-.16-.02-.21-.07-.05-.05-.09-.1-.12-.15l-1.53-2.38c-.03.12-.07.22-.13.31l-1.42,2.07c-.04.06-.08.11-.13.15s-.11.07-.19.07H.17l2.13-3.11Z"/>
    </g>
  </g>
  <g class="cls-4">
    <g class="cls-4">
      <path class="cls-3" d="M9.68,58.74v.55h-2.39v1.74h2.05v.55h-2.05v2.14h-.68v-4.99h3.07Z"/>
    </g>
    <g class="cls-4">
      <path class="cls-3" d="M9.81,63.3c0-.05,0-.1.03-.15.02-.05.05-.09.08-.12.04-.04.08-.06.13-.09.05-.02.11-.03.17-.03.07,0,.13.01.19.04.05.03.1.06.14.11.04.04.06.1.08.16.02.06.03.12.03.19,0,.1-.02.21-.05.33-.03.11-.07.22-.13.33-.06.11-.12.22-.21.32-.08.1-.18.2-.28.29l-.1-.1s-.05-.06-.05-.1c0-.03.02-.06.05-.09.02-.03.05-.06.09-.1.04-.04.07-.09.11-.15s.07-.12.1-.18.05-.14.07-.22h-.04c-.06,0-.12-.01-.16-.03-.05-.02-.09-.05-.13-.09-.04-.04-.06-.08-.08-.14-.02-.05-.03-.11-.03-.17Z"/>
      <path class="cls-3" d="M14.12,59.52s-.04.06-.07.08c-.02.02-.05.03-.09.03-.04,0-.09-.02-.14-.06s-.12-.08-.2-.13c-.08-.05-.18-.09-.29-.13-.11-.04-.25-.06-.41-.06-.15,0-.28.02-.4.06-.12.04-.21.1-.29.17-.08.07-.14.15-.18.25-.04.09-.06.2-.06.3,0,.14.03.25.1.35s.16.17.27.23c.11.06.24.12.38.17.14.05.29.1.44.15.15.05.3.11.44.17.14.06.27.14.38.24.11.1.2.22.27.36s.1.32.1.52c0,.22-.04.42-.11.61s-.18.36-.33.5c-.14.14-.32.25-.53.33-.21.08-.44.12-.71.12-.32,0-.62-.06-.88-.18s-.49-.28-.68-.48l.19-.32s.04-.05.07-.06c.03-.02.06-.03.09-.03.05,0,.1.03.17.08.06.05.14.11.23.17.09.06.21.12.34.17s.3.08.49.08c.16,0,.3-.02.43-.07.12-.04.23-.11.32-.19s.15-.18.2-.29.07-.24.07-.37c0-.15-.03-.27-.1-.37s-.16-.18-.27-.24-.24-.12-.38-.17c-.14-.04-.29-.09-.44-.14-.15-.05-.3-.1-.44-.17-.14-.06-.27-.14-.38-.24s-.2-.22-.27-.37c-.07-.15-.1-.33-.1-.56,0-.18.03-.35.1-.51.07-.16.17-.31.3-.44.13-.13.29-.23.48-.31s.41-.11.66-.11c.28,0,.53.04.76.13.23.09.43.22.6.38l-.16.32Z"/>
    </g>
  </g>
  <g class="cls-4">
    <path class="cls-3" d="M20.9,54.29h5.15v.81h-5.15v-.81ZM20.9,56.29h5.15v.81h-5.15v-.81Z"/>
    <path class="cls-3" d="M35.88,55.44c0,.75-.08,1.4-.24,1.95s-.38,1-.66,1.37c-.28.36-.61.63-.99.8-.38.18-.79.26-1.23.26s-.85-.09-1.23-.26-.71-.44-.99-.8c-.28-.36-.5-.82-.66-1.37-.16-.55-.24-1.2-.24-1.95s.08-1.4.24-1.96c.16-.55.38-1.01.66-1.37.28-.36.61-.63.99-.81.38-.18.79-.26,1.23-.26s.84.09,1.23.26c.38.18.71.44.99.81.28.36.5.82.66,1.37s.24,1.2.24,1.96ZM34.77,55.44c0-.66-.06-1.21-.17-1.65-.11-.45-.26-.8-.44-1.08-.19-.27-.4-.47-.65-.58-.24-.12-.5-.18-.76-.18s-.52.06-.76.18c-.24.12-.46.31-.64.58-.18.27-.33.63-.44,1.08-.11.45-.17,1-.17,1.65s.06,1.21.17,1.65c.11.44.26.8.44,1.07.18.27.4.47.64.58.24.12.5.18.76.18s.52-.06.76-.18c.24-.12.46-.31.65-.58.19-.27.33-.63.44-1.07.11-.44.17-.99.17-1.65Z"/>
    <path class="cls-3" d="M36.76,59.08c0-.1.02-.2.06-.29s.09-.17.16-.24c.07-.07.14-.12.24-.16.09-.04.19-.06.29-.06s.2.02.29.06c.09.04.17.09.24.16.07.07.12.15.16.24s.06.19.06.29-.02.21-.06.3-.09.17-.16.24c-.07.07-.15.12-.24.16-.09.04-.19.06-.29.06s-.2-.02-.29-.06c-.09-.04-.17-.09-.24-.16-.07-.07-.12-.15-.16-.24s-.06-.19-.06-.3Z"/>
    <path class="cls-3" d="M45.38,55.44c0,.75-.08,1.4-.24,1.95s-.38,1-.66,1.37c-.28.36-.61.63-.99.8-.38.18-.79.26-1.23.26s-.85-.09-1.23-.26-.71-.44-.99-.8c-.28-.36-.5-.82-.66-1.37-.16-.55-.24-1.2-.24-1.95s.08-1.4.24-1.96c.16-.55.38-1.01.66-1.37.28-.36.61-.63.99-.81.38-.18.79-.26,1.23-.26s.84.09,1.23.26c.38.18.71.44.99.81.28.36.5.82.66,1.37s.24,1.2.24,1.96ZM44.27,55.44c0-.66-.06-1.21-.17-1.65-.11-.45-.26-.8-.44-1.08-.19-.27-.4-.47-.65-.58-.24-.12-.5-.18-.76-.18s-.52.06-.76.18c-.24.12-.46.31-.64.58-.18.27-.33.63-.44,1.08-.11.45-.17,1-.17,1.65s.06,1.21.17,1.65c.11.44.26.8.44,1.07.18.27.4.47.64.58.24.12.5.18.76.18s.52-.06.76-.18c.24-.12.46-.31.65-.58.19-.27.33-.63.44-1.07.11-.44.17-.99.17-1.65Z"/>
    <path class="cls-3" d="M49.35,51.04c.36,0,.7.05,1.02.16.32.11.59.27.82.47s.41.46.54.75c.13.3.2.63.2,1.01,0,.32-.05.62-.14.89-.1.27-.23.53-.39.78s-.35.49-.57.73c-.21.23-.44.47-.68.72l-2.26,2.32c.16-.04.32-.08.49-.1.16-.03.32-.04.47-.04h2.88c.12,0,.21.03.28.1.07.07.1.16.1.26v.65h-5.74v-.37c0-.08.02-.15.04-.23.03-.08.08-.15.15-.22l2.75-2.77c.23-.23.44-.46.62-.67s.35-.43.48-.65c.13-.22.24-.43.31-.66.07-.22.11-.46.11-.71s-.04-.47-.12-.66c-.08-.19-.19-.35-.33-.47s-.3-.22-.49-.28c-.19-.06-.39-.09-.61-.09s-.42.03-.6.1c-.18.06-.35.15-.49.27s-.26.25-.36.41c-.1.16-.17.33-.21.52-.03.12-.08.2-.14.25-.06.05-.15.08-.25.08-.02,0-.04,0-.06,0s-.05,0-.08,0l-.56-.1c.06-.39.16-.74.32-1.04.16-.3.36-.56.61-.76s.53-.36.85-.46c.32-.11.66-.16,1.03-.16Z"/>
  </g>
  <g class="cls-4">
    <g class="cls-4">
      <path class="cls-3" d="M138.25,82.75h1.85v-5.86c0-.18,0-.35.02-.53l-1.54,1.31s-.08.06-.12.07c-.04.01-.08.02-.11.02-.06,0-.11-.01-.16-.04-.05-.03-.08-.06-.11-.09l-.34-.46,2.56-2.21h.87v7.8h1.69v.82h-4.61v-.82Z"/>
      <path class="cls-3" d="M150.09,79.27c0,.75-.08,1.4-.24,1.95s-.38,1-.66,1.37c-.28.36-.61.63-.99.8-.38.18-.79.26-1.23.26s-.85-.09-1.23-.26-.71-.44-.99-.8c-.28-.36-.5-.82-.66-1.37s-.24-1.2-.24-1.95.08-1.4.24-1.96.38-1.01.66-1.37.61-.63.99-.81c.38-.18.79-.26,1.23-.26s.84.09,1.23.26c.38.18.71.44.99.81.28.36.5.82.66,1.37s.24,1.2.24,1.96ZM148.98,79.27c0-.66-.06-1.21-.17-1.65-.11-.45-.26-.8-.44-1.08-.19-.27-.4-.47-.65-.58-.24-.12-.5-.18-.76-.18s-.52.06-.76.18c-.24.12-.46.31-.64.58-.18.27-.33.63-.44,1.08-.11.45-.17,1-.17,1.65s.05,1.21.17,1.65c.11.44.26.8.44,1.07.18.27.4.47.64.58.24.12.5.18.76.18s.52-.06.76-.18c.24-.12.46-.31.65-.58.19-.27.33-.63.44-1.07.11-.44.17-.99.17-1.65Z"/>
      <path class="cls-3" d="M157.05,79.27c0,.75-.08,1.4-.24,1.95s-.38,1-.66,1.37c-.28.36-.61.63-.99.8-.38.18-.79.26-1.23.26s-.85-.09-1.23-.26-.71-.44-.99-.8c-.28-.36-.5-.82-.66-1.37s-.24-1.2-.24-1.95.08-1.4.24-1.96.38-1.01.66-1.37.61-.63.99-.81c.38-.18.79-.26,1.23-.26s.84.09,1.23.26c.38.18.71.44.99.81.28.36.5.82.66,1.37s.24,1.2.24,1.96ZM155.94,79.27c0-.66-.06-1.21-.17-1.65-.11-.45-.26-.8-.44-1.08-.19-.27-.4-.47-.65-.58-.24-.12-.5-.18-.76-.18s-.52.06-.76.18c-.24.12-.46.31-.64.58-.18.27-.33.63-.44,1.08-.11.45-.17,1-.17,1.65s.05,1.21.17,1.65c.11.44.26.8.44,1.07.18.27.4.47.64.58.24.12.5.18.76.18s.52-.06.76-.18c.24-.12.46-.31.65-.58.19-.27.33-.63.44-1.07.11-.44.17-.99.17-1.65Z"/>
      <path class="cls-3" d="M161.65,77.05c0,.34-.05.64-.16.9-.1.27-.24.49-.42.67-.17.18-.38.32-.61.42-.23.1-.47.14-.73.14-.27,0-.52-.05-.75-.14-.23-.1-.43-.23-.6-.42-.17-.18-.31-.41-.4-.67-.1-.27-.14-.57-.14-.9s.05-.65.14-.92c.1-.27.23-.49.4-.68.17-.18.37-.32.6-.42.23-.1.48-.14.75-.14s.52.05.75.14c.23.1.44.24.61.42.17.18.3.41.4.68.1.27.15.57.15.92ZM164.66,75.19c.05-.07.11-.12.17-.16s.13-.06.23-.06h.77l-6.28,8.42c-.04.05-.09.09-.14.13s-.12.05-.2.05h-.79l6.25-8.38ZM160.82,77.05c0-.26-.03-.49-.08-.67-.06-.18-.13-.33-.23-.45-.1-.12-.21-.2-.34-.25-.13-.05-.27-.08-.42-.08s-.29.03-.42.08c-.13.05-.24.14-.34.25-.1.12-.17.27-.22.45-.05.18-.08.41-.08.67s.03.48.08.66c.05.18.13.33.22.44s.21.2.34.25.27.08.42.08.29-.03.42-.08.24-.13.34-.25c.1-.11.18-.26.23-.44.06-.18.08-.4.08-.66ZM166.4,81.54c0,.34-.05.64-.16.9-.1.26-.24.49-.42.67-.17.18-.38.32-.61.42-.23.1-.47.14-.72.14-.27,0-.52-.05-.75-.14-.23-.1-.43-.24-.6-.42s-.31-.41-.4-.67c-.1-.26-.14-.56-.14-.9s.05-.65.14-.92c.1-.27.23-.5.4-.68s.37-.32.6-.42c.23-.1.48-.14.75-.14s.52.05.75.14c.23.1.43.24.61.42s.31.41.4.68c.1.27.14.58.14.92ZM165.58,81.54c0-.26-.03-.49-.08-.67-.06-.19-.13-.34-.23-.45-.1-.12-.21-.2-.34-.25-.13-.05-.27-.08-.42-.08s-.29.03-.42.08c-.13.05-.24.14-.34.25-.1.12-.17.27-.22.45-.05.19-.08.41-.08.67s.03.48.08.66.13.33.22.44c.1.11.21.2.34.25.13.05.27.07.42.07s.29-.02.42-.07c.13-.05.24-.13.34-.25.1-.11.17-.26.23-.44.06-.18.08-.4.08-.66Z"/>
      <path class="cls-3" d="M174.61,76.32c-.04.06-.07.1-.11.13s-.09.04-.16.04c-.07,0-.15-.03-.24-.1-.09-.07-.2-.14-.34-.23-.14-.08-.3-.16-.5-.22-.19-.07-.43-.1-.71-.1-.26,0-.49.03-.69.1s-.37.17-.5.29-.24.26-.3.42c-.07.16-.1.34-.1.53,0,.24.06.44.18.6.12.16.27.29.47.41.19.11.41.21.66.29s.5.17.76.25.51.19.76.3.47.25.66.42.35.37.47.62.18.54.18.9c0,.38-.06.73-.19,1.06s-.32.62-.56.86c-.25.24-.55.44-.91.58-.36.14-.77.21-1.22.21-.56,0-1.06-.1-1.52-.3s-.85-.47-1.17-.82l.34-.55s.07-.08.12-.11c.05-.03.1-.04.15-.04.08,0,.18.04.29.14.11.09.24.19.41.3.16.11.36.21.59.3.23.09.51.13.84.13.28,0,.52-.04.74-.11.22-.08.4-.18.55-.32.15-.14.26-.3.34-.5.08-.19.12-.41.12-.64,0-.26-.06-.47-.18-.64s-.27-.3-.46-.42c-.19-.11-.41-.21-.66-.29s-.5-.16-.76-.24c-.26-.08-.51-.18-.76-.28-.25-.11-.46-.25-.66-.42-.19-.17-.35-.39-.46-.65s-.18-.58-.18-.96c0-.3.06-.6.18-.88s.29-.54.51-.76.5-.4.83-.53.71-.2,1.14-.2c.48,0,.92.08,1.31.23.4.15.74.37,1.04.66l-.28.55Z"/>
    </g>
    <g class="cls-4">
      <path class="cls-3" d="M138.74,111.39h3.72v.98h-4.88v-8.6h1.16v7.62Z"/>
    </g>
  </g>
  <g class="cls-4">
    <path class="cls-3" d="M183.98,7.18l-2.05-2.96h1.03c.09,0,.15.01.19.04.04.03.08.07.11.12l1.49,2.28c.04-.11.09-.22.16-.34l1.31-1.92c.04-.06.08-.1.12-.14.04-.03.09-.05.15-.05h.98l-2.05,2.9,2.13,3.17h-1.03c-.09,0-.16-.02-.21-.07-.05-.05-.09-.1-.12-.15l-1.53-2.38c-.03.12-.07.22-.13.31l-1.42,2.07c-.04.06-.08.11-.13.15s-.11.07-.19.07h-.95l2.13-3.11Z"/>
  </g>
  <g class="cls-4">
    <g class="cls-4">
      <path class="cls-3" d="M189.03,12.42v1.87h-.67v-4.99h1.47c.32,0,.59.04.82.11.23.07.43.18.58.31.15.13.27.3.34.49.08.19.11.4.11.64s-.04.44-.12.64c-.08.19-.2.36-.36.5s-.35.25-.58.33c-.23.08-.5.12-.8.12h-.8ZM189.03,11.89h.8c.19,0,.36-.03.51-.08.15-.05.27-.12.37-.21.1-.09.17-.2.23-.33.05-.13.08-.27.08-.42,0-.32-.1-.57-.29-.74-.2-.18-.49-.27-.89-.27h-.8v2.05Z"/>
    </g>
    <g class="cls-4">
      <path class="cls-3" d="M191.75,13.86c0-.05,0-.1.03-.15.02-.05.05-.09.08-.12.04-.04.08-.06.13-.09.05-.02.11-.03.17-.03.07,0,.13.01.19.04.05.03.1.06.14.11.04.04.06.1.08.16.02.06.03.12.03.19,0,.1-.01.21-.04.33-.03.11-.07.22-.13.33-.06.11-.12.22-.21.32s-.18.2-.28.29l-.11-.1s-.04-.06-.04-.1c0-.03.02-.06.05-.09.02-.03.05-.06.09-.1.04-.04.07-.09.11-.15s.07-.12.1-.18.05-.14.07-.22h-.04c-.06,0-.12-.01-.16-.03s-.09-.05-.13-.09c-.04-.04-.06-.08-.08-.14s-.03-.11-.03-.17Z"/>
      <path class="cls-3" d="M197.41,10.08s-.04.06-.07.08c-.02.02-.05.03-.09.03-.04,0-.08-.02-.14-.06s-.12-.08-.2-.13c-.08-.05-.18-.09-.29-.13-.11-.04-.25-.06-.41-.06-.15,0-.28.02-.4.06-.12.04-.21.1-.29.17-.08.07-.14.15-.18.25-.04.09-.06.2-.06.3,0,.14.04.25.1.35s.16.17.27.23c.11.06.24.12.38.17.14.05.29.1.44.15.15.05.3.11.44.17.14.06.27.14.38.24.11.1.2.22.27.36s.1.32.1.52c0,.22-.04.42-.11.61s-.18.36-.32.5c-.14.14-.32.25-.53.33-.21.08-.44.12-.71.12-.32,0-.62-.06-.88-.18s-.49-.28-.68-.48l.2-.32s.04-.05.07-.06c.03-.02.06-.03.09-.03.05,0,.1.03.17.08.06.05.14.11.24.17.09.06.21.12.34.17s.3.08.49.08c.16,0,.3-.02.43-.07s.23-.11.32-.19.15-.18.2-.29.07-.24.07-.37c0-.15-.03-.27-.1-.37s-.16-.18-.27-.24-.24-.12-.38-.17c-.14-.04-.29-.09-.44-.14-.15-.05-.3-.1-.44-.17-.14-.06-.27-.14-.38-.24s-.2-.22-.27-.37c-.07-.15-.1-.33-.1-.56,0-.18.03-.35.1-.51.07-.16.17-.31.3-.44.13-.13.29-.23.48-.31s.41-.11.66-.11c.28,0,.53.04.76.13.23.09.43.22.6.38l-.16.32Z"/>
    </g>
  </g>
  <g class="cls-4">
    <g class="cls-4">
      <path class="cls-3" d="M203.22,4.84h5.15v.81h-5.15v-.81ZM203.22,6.85h5.15v.81h-5.15v-.81Z"/>
      <path class="cls-3" d="M218.19,6c0,.75-.08,1.4-.24,1.95s-.38,1-.66,1.37c-.28.36-.61.63-.99.8-.38.18-.79.26-1.23.26s-.85-.09-1.23-.26-.71-.44-.99-.8c-.28-.36-.5-.82-.66-1.37s-.24-1.2-.24-1.95.08-1.4.24-1.96.38-1.01.66-1.37c.28-.36.61-.63.99-.81.38-.18.79-.26,1.23-.26s.84.09,1.23.26c.38.18.71.44.99.81.28.36.5.82.66,1.37s.24,1.2.24,1.96ZM217.08,6c0-.66-.05-1.21-.17-1.65-.11-.45-.26-.8-.44-1.08-.19-.27-.4-.47-.64-.58-.24-.12-.5-.18-.76-.18s-.52.06-.76.18c-.24.12-.46.31-.64.58-.18.27-.33.63-.44,1.08-.11.45-.17,1-.17,1.65s.06,1.21.17,1.65c.11.44.26.8.44,1.07.18.27.4.47.64.58.24.12.5.18.76.18s.52-.06.76-.18c.24-.12.46-.31.64-.58.19-.27.33-.63.44-1.07.11-.44.17-.99.17-1.65Z"/>
      <path class="cls-3" d="M219.08,9.64c0-.1.02-.2.06-.29s.09-.17.16-.24c.07-.07.14-.12.24-.16.09-.04.19-.06.29-.06s.2.02.29.06c.09.04.17.09.24.16.07.07.12.15.16.24s.06.19.06.29-.02.21-.06.3-.09.17-.16.24-.15.12-.24.16c-.09.04-.19.06-.29.06s-.2-.02-.29-.06-.17-.09-.24-.16-.12-.15-.16-.24-.06-.19-.06-.3Z"/>
      <path class="cls-3" d="M226.51,7.2h1.3v.61c0,.06-.02.12-.06.16-.04.04-.1.07-.18.07h-1.07v2.26h-.94v-2.26h-3.81c-.08,0-.15-.02-.21-.07-.06-.05-.1-.1-.11-.17l-.11-.55,4.18-5.55h1v5.5ZM225.57,3.65c0-.1,0-.22,0-.34,0-.12.02-.24.04-.37l-3.13,4.25h3.08v-3.55Z"/>
      <path class="cls-3" d="M231.66,1.6c.36,0,.7.05,1.02.16.32.11.59.27.82.47s.41.46.54.75c.13.3.2.63.2,1.01,0,.32-.05.62-.14.89-.1.27-.23.53-.39.78s-.35.49-.57.73c-.21.23-.44.47-.68.72l-2.26,2.32c.16-.04.32-.08.49-.1.16-.03.32-.04.47-.04h2.88c.12,0,.21.03.28.1s.1.16.1.26v.65h-5.74v-.37c0-.08.01-.15.04-.23.03-.08.08-.15.15-.22l2.75-2.77c.23-.23.44-.46.62-.67s.35-.43.48-.65c.13-.22.24-.43.31-.66.07-.22.11-.46.11-.71s-.04-.47-.12-.66c-.08-.19-.19-.35-.33-.47s-.3-.22-.49-.28c-.19-.06-.39-.09-.61-.09s-.42.03-.6.1c-.18.06-.35.15-.49.27-.14.11-.26.25-.36.41s-.17.33-.21.52c-.03.12-.08.2-.14.25-.06.05-.15.08-.25.08-.02,0-.04,0-.06,0s-.05,0-.08,0l-.56-.1c.06-.39.16-.74.32-1.04.16-.3.36-.56.61-.76s.53-.36.85-.46c.32-.11.66-.16,1.03-.16Z"/>
    </g>
    <g class="cls-4">
      <path class="cls-3" d="M183.98,21.58l-2.05-2.96h1.03c.09,0,.15.01.19.04.04.03.08.07.11.12l1.49,2.28c.04-.11.09-.22.16-.34l1.31-1.92c.04-.06.08-.1.12-.14.04-.03.09-.05.15-.05h.98l-2.05,2.9,2.13,3.17h-1.03c-.09,0-.16-.02-.21-.07-.05-.05-.09-.1-.12-.15l-1.53-2.38c-.03.12-.07.22-.13.31l-1.42,2.07c-.04.06-.08.11-.13.15s-.11.07-.19.07h-.95l2.13-3.11Z"/>
    </g>
  </g>
  <g class="cls-4">
    <g class="cls-4">
      <path class="cls-3" d="M189.03,26.82v1.87h-.67v-4.99h1.47c.32,0,.59.04.82.11.23.07.43.18.58.31.15.13.27.3.34.49.08.19.11.4.11.64s-.04.44-.12.64c-.08.19-.2.36-.36.5s-.35.25-.58.33c-.23.08-.5.12-.8.12h-.8ZM189.03,26.29h.8c.19,0,.36-.03.51-.08.15-.05.27-.12.37-.21.1-.09.17-.2.23-.33.05-.13.08-.27.08-.42,0-.32-.1-.57-.29-.74-.2-.18-.49-.27-.89-.27h-.8v2.05Z"/>
    </g>
    <g class="cls-4">
      <path class="cls-3" d="M191.75,28.26c0-.05,0-.1.03-.15.02-.05.05-.09.08-.12.04-.04.08-.06.13-.09.05-.02.11-.03.17-.03.07,0,.13.01.19.04.05.03.1.06.14.11.04.04.06.1.08.16.02.06.03.12.03.19,0,.1-.01.21-.04.33-.03.11-.07.22-.13.33-.06.11-.12.22-.21.32s-.18.2-.28.29l-.11-.1s-.04-.06-.04-.1c0-.03.02-.06.05-.09.02-.03.05-.06.09-.1.04-.04.07-.09.11-.15s.07-.12.1-.18.05-.14.07-.22h-.04c-.06,0-.12-.01-.16-.03s-.09-.05-.13-.09c-.04-.04-.06-.08-.08-.14s-.03-.11-.03-.17Z"/>
    </g>
    <g class="cls-4">
      <path class="cls-3" d="M199,28.69h-.52c-.06,0-.11-.02-.15-.05-.04-.03-.07-.07-.08-.11l-.47-1.2h-2.24l-.47,1.2s-.04.08-.08.11c-.04.03-.09.05-.15.05h-.52l1.99-4.99h.69l1.99,4.99ZM195.73,26.84h1.86l-.78-2.03c-.05-.12-.1-.28-.15-.47-.03.1-.05.18-.08.26s-.05.15-.07.21l-.78,2.03Z"/>
    </g>
  </g>
  <g class="cls-4">
    <path class="cls-3" d="M204.02,19.25h5.15v.81h-5.15v-.81ZM204.02,21.25h5.15v.81h-5.15v-.81Z"/>
    <path class="cls-3" d="M219,20.4c0,.75-.08,1.4-.24,1.95s-.38,1-.66,1.37c-.28.36-.61.63-.99.8s-.79.26-1.23.26-.85-.09-1.23-.26-.71-.44-.99-.8c-.28-.36-.5-.82-.66-1.37-.16-.55-.24-1.2-.24-1.95s.08-1.4.24-1.96c.16-.55.38-1.01.66-1.37.28-.36.61-.63.99-.81.38-.18.79-.26,1.23-.26s.84.09,1.23.26c.38.18.71.44.99.81s.5.82.66,1.37.24,1.2.24,1.96ZM217.89,20.4c0-.66-.05-1.21-.17-1.65-.11-.45-.26-.8-.44-1.08-.19-.27-.4-.47-.64-.58-.24-.12-.5-.18-.76-.18s-.52.06-.76.18c-.24.12-.46.31-.64.58-.18.27-.33.63-.44,1.08-.11.45-.17,1-.17,1.65s.06,1.21.17,1.65c.11.44.26.8.44,1.07.18.27.4.47.64.58.24.12.5.18.76.18s.52-.06.76-.18c.24-.12.46-.31.64-.58.19-.27.33-.63.44-1.07.11-.44.17-.99.17-1.65Z"/>
    <path class="cls-3" d="M219.88,24.04c0-.1.02-.2.06-.29s.09-.17.16-.24c.07-.07.14-.12.24-.16.09-.04.19-.06.29-.06s.2.02.29.06c.09.04.17.09.24.16.07.07.12.15.16.24s.06.19.06.29-.02.21-.06.3-.09.17-.16.24-.15.12-.24.16c-.09.04-.19.06-.29.06s-.2-.02-.29-.06-.17-.09-.24-.16c-.07-.07-.12-.15-.16-.24s-.06-.19-.06-.3Z"/>
    <path class="cls-3" d="M227.77,16.57c0,.15-.05.28-.14.38s-.26.15-.49.15h-2.7l-.4,2.26c.45-.1.86-.14,1.24-.14.45,0,.84.07,1.18.2.34.13.63.31.86.55s.41.51.53.82c.12.32.18.66.18,1.03,0,.46-.08.87-.24,1.24s-.38.68-.66.95c-.28.26-.6.46-.98.6-.38.14-.78.21-1.22.21-.25,0-.49-.02-.73-.07-.23-.05-.45-.12-.65-.2-.2-.08-.39-.18-.56-.29-.17-.11-.32-.22-.46-.34l.32-.46c.07-.1.17-.16.29-.16.08,0,.17.03.27.09.1.06.23.13.37.21.14.08.31.15.51.21.19.06.43.09.69.09.3,0,.57-.05.81-.14.24-.1.45-.23.62-.41s.3-.39.39-.64c.09-.25.14-.53.14-.83,0-.27-.04-.51-.12-.73s-.2-.4-.35-.55c-.16-.15-.36-.27-.59-.35-.24-.08-.51-.13-.83-.13-.22,0-.44.02-.67.05-.23.04-.47.09-.72.17l-.67-.2.7-4.02h4.07v.47Z"/>
    <path class="cls-3" d="M232.33,24.79c-.43,0-.82-.06-1.18-.17-.36-.11-.66-.28-.92-.49-.26-.21-.45-.47-.59-.77-.14-.3-.21-.64-.21-1.02,0-.55.14-1.01.43-1.37.29-.36.7-.61,1.24-.77-.45-.17-.79-.42-1.02-.75s-.34-.73-.34-1.2c0-.32.06-.61.19-.89.12-.28.3-.52.53-.72.23-.2.5-.36.82-.48.32-.12.67-.17,1.06-.17s.74.06,1.06.17c.32.12.59.28.82.48.23.2.4.44.53.72.12.28.19.57.19.89,0,.46-.12.86-.35,1.2-.23.33-.57.58-1.02.75.54.15.95.41,1.24.77.29.36.43.81.43,1.37,0,.38-.07.71-.21,1.02-.14.3-.34.56-.59.77-.25.21-.56.38-.92.49-.36.11-.75.17-1.18.17ZM232.33,23.94c.28,0,.53-.04.75-.12.22-.08.41-.19.56-.33.15-.14.27-.31.35-.51s.12-.42.12-.66c0-.3-.05-.55-.15-.76-.1-.21-.23-.38-.4-.51-.17-.13-.36-.23-.57-.29-.22-.06-.44-.09-.68-.09s-.46.03-.68.09c-.22.06-.41.16-.57.29-.17.13-.3.3-.4.51-.1.21-.15.46-.15.76,0,.24.04.46.12.66s.2.37.35.51c.15.14.34.25.56.33s.47.12.75.12ZM232.33,19.82c.28,0,.52-.04.72-.13.2-.09.36-.2.48-.34.12-.14.21-.3.27-.49.06-.18.08-.37.08-.57s-.03-.39-.1-.56c-.07-.18-.16-.33-.29-.46-.13-.13-.29-.24-.49-.31-.19-.08-.42-.11-.67-.11s-.48.04-.67.11-.36.18-.49.31c-.13.13-.23.29-.29.46-.07.18-.1.36-.1.56s.03.39.08.57c.06.18.15.35.27.49.12.14.29.26.48.34s.44.13.72.13Z"/>
  </g>
  <g class="cls-4">
    <path class="cls-3" d="M214.17,44.67v3.22h-1.16v-8.6h2.54c.54,0,1.02.06,1.42.19.4.13.74.31,1,.54.26.23.46.51.59.84s.2.69.2,1.1-.07.77-.21,1.1-.34.62-.62.86c-.27.24-.6.43-1,.56s-.86.2-1.37.2h-1.38ZM214.17,43.75h1.38c.33,0,.62-.04.88-.13.25-.09.47-.21.64-.37.17-.16.3-.35.39-.57s.13-.46.13-.73c0-.55-.17-.98-.51-1.28-.34-.31-.85-.46-1.53-.46h-1.38v3.54Z"/>
  </g>
</svg>