<?xml version="1.0" encoding="utf-8"?>
<!-- Generator: Adobe Illustrator 24.1.1, SVG Export Plug-In . SVG Version: 6.00 Build 0)  -->
<svg version="1.1" id="Layer_1" xmlns="http://www.w3.org/2000/svg" xmlns:xlink="http://www.w3.org/1999/xlink" x="0px" y="0px"
	 viewBox="0 0 484.09 327.83" style="enable-background:new 0 0 484.09 327.83;" xml:space="preserve">
<style type="text/css">
	.st0{fill:#87A9D8;}
	.st1{fill:#FEDD56;}
	.st2{fill:#00AA88;}
	.st3{clip-path:url(#SVGID_2_);fill:#FEDD56;}
	.st4{clip-path:url(#SVGID_2_);fill:#FDDD56;}
	.st5{clip-path:url(#SVGID_2_);fill:#FCDC57;}
	.st6{clip-path:url(#SVGID_2_);fill:#FBDC57;}
	.st7{clip-path:url(#SVGID_2_);fill:#FADB58;}
	.st8{clip-path:url(#SVGID_2_);fill:#F9DB58;}
	.st9{clip-path:url(#SVGID_2_);fill:#F8DB59;}
	.st10{clip-path:url(#SVGID_2_);fill:#F7DA59;}
	.st11{clip-path:url(#SVGID_2_);fill:#F6DA59;}
	.st12{clip-path:url(#SVGID_2_);fill:#F5DA5A;}
	.st13{clip-path:url(#SVGID_2_);fill:#F4DA5A;}
	.st14{clip-path:url(#SVGID_2_);fill:#F3D95B;}
	.st15{clip-path:url(#SVGID_2_);fill:#F2D95B;}
	.st16{clip-path:url(#SVGID_2_);fill:#F1D95B;}
	.st17{clip-path:url(#SVGID_2_);fill:#F0D85C;}
	.st18{clip-path:url(#SVGID_2_);fill:#EFD85C;}
	.st19{clip-path:url(#SVGID_2_);fill:#EED85D;}
	.st20{clip-path:url(#SVGID_2_);fill:#EDD85D;}
	.st21{clip-path:url(#SVGID_2_);fill:#ECD75D;}
	.st22{clip-path:url(#SVGID_2_);fill:#ECD75E;}
	.st23{clip-path:url(#SVGID_2_);fill:#EBD75E;}
	.st24{clip-path:url(#SVGID_2_);fill:#EAD65E;}
	.st25{clip-path:url(#SVGID_2_);fill:#E9D65F;}
	.st26{clip-path:url(#SVGID_2_);fill:#E8D65F;}
	.st27{clip-path:url(#SVGID_2_);fill:#E7D55F;}
	.st28{clip-path:url(#SVGID_2_);fill:#E6D560;}
	.st29{clip-path:url(#SVGID_2_);fill:#E5D560;}
	.st30{clip-path:url(#SVGID_2_);fill:#E4D561;}
	.st31{clip-path:url(#SVGID_2_);fill:#E3D461;}
	.st32{clip-path:url(#SVGID_2_);fill:#E2D461;}
	.st33{clip-path:url(#SVGID_2_);fill:#E1D462;}
	.st34{clip-path:url(#SVGID_2_);fill:#E0D462;}
	.st35{clip-path:url(#SVGID_2_);fill:#E0D362;}
	.st36{clip-path:url(#SVGID_2_);fill:#DFD363;}
	.st37{clip-path:url(#SVGID_2_);fill:#DED363;}
	.st38{clip-path:url(#SVGID_2_);fill:#DDD363;}
	.st39{clip-path:url(#SVGID_2_);fill:#DCD263;}
	.st40{clip-path:url(#SVGID_2_);fill:#DBD264;}
	.st41{clip-path:url(#SVGID_2_);fill:#DAD264;}
	.st42{clip-path:url(#SVGID_2_);fill:#D9D165;}
	.st43{clip-path:url(#SVGID_2_);fill:#D5D066;}
	.st44{clip-path:url(#SVGID_2_);fill:#D0CF68;}
	.st45{clip-path:url(#SVGID_2_);fill:#CCCD69;}
	.st46{clip-path:url(#SVGID_2_);fill:#C8CC6A;}
	.st47{clip-path:url(#SVGID_2_);fill:#C3CB6C;}
	.st48{clip-path:url(#SVGID_2_);fill:#BFCA6D;}
	.st49{clip-path:url(#SVGID_2_);fill:#BBC96E;}
	.st50{clip-path:url(#SVGID_2_);fill:#B8C76F;}
	.st51{clip-path:url(#SVGID_2_);fill:#B4C670;}
	.st52{clip-path:url(#SVGID_2_);fill:#B0C571;}
	.st53{clip-path:url(#SVGID_2_);fill:#ACC472;}
	.st54{clip-path:url(#SVGID_2_);fill:#A9C373;}
	.st55{clip-path:url(#SVGID_2_);fill:#A5C274;}
	.st56{clip-path:url(#SVGID_2_);fill:#A2C175;}
	.st57{clip-path:url(#SVGID_2_);fill:#9EC176;}
	.st58{clip-path:url(#SVGID_2_);fill:#9BC077;}
	.st59{clip-path:url(#SVGID_2_);fill:#98BF77;}
	.st60{clip-path:url(#SVGID_2_);fill:#95BE78;}
	.st61{clip-path:url(#SVGID_2_);fill:#92BD79;}
	.st62{clip-path:url(#SVGID_2_);fill:#8FBD79;}
	.st63{clip-path:url(#SVGID_2_);fill:#8CBC7A;}
	.st64{clip-path:url(#SVGID_2_);fill:#89BB7A;}
	.st65{clip-path:url(#SVGID_2_);fill:#86BB7B;}
	.st66{clip-path:url(#SVGID_2_);fill:#84BA7C;}
	.st67{clip-path:url(#SVGID_2_);fill:#81B97C;}
	.st68{clip-path:url(#SVGID_2_);fill:#7EB97D;}
	.st69{clip-path:url(#SVGID_2_);fill:#7CB87D;}
	.st70{clip-path:url(#SVGID_2_);fill:#79B87D;}
	.st71{clip-path:url(#SVGID_2_);fill:#77B77E;}
	.st72{clip-path:url(#SVGID_2_);fill:#74B77E;}
	.st73{clip-path:url(#SVGID_2_);fill:#72B67F;}
	.st74{clip-path:url(#SVGID_2_);fill:#70B67F;}
	.st75{clip-path:url(#SVGID_2_);fill:#6DB57F;}
	.st76{clip-path:url(#SVGID_2_);fill:#6BB580;}
	.st77{clip-path:url(#SVGID_2_);fill:#69B480;}
	.st78{clip-path:url(#SVGID_2_);fill:#66B480;}
	.st79{clip-path:url(#SVGID_2_);fill:#64B381;}
	.st80{clip-path:url(#SVGID_2_);fill:#62B381;}
	.st81{clip-path:url(#SVGID_2_);fill:#60B381;}
	.st82{clip-path:url(#SVGID_2_);fill:#5EB282;}
	.st83{clip-path:url(#SVGID_2_);fill:#5CB282;}
	.st84{clip-path:url(#SVGID_2_);fill:#5AB282;}
	.st85{clip-path:url(#SVGID_2_);fill:#58B182;}
	.st86{clip-path:url(#SVGID_2_);fill:#56B183;}
	.st87{clip-path:url(#SVGID_2_);fill:#54B183;}
	.st88{clip-path:url(#SVGID_2_);fill:#52B083;}
	.st89{clip-path:url(#SVGID_2_);fill:#50B083;}
	.st90{clip-path:url(#SVGID_2_);fill:#4EB084;}
	.st91{clip-path:url(#SVGID_2_);fill:#4CB084;}
	.st92{clip-path:url(#SVGID_2_);fill:#4AAF84;}
	.st93{clip-path:url(#SVGID_2_);fill:#49AF84;}
	.st94{clip-path:url(#SVGID_2_);fill:#47AF84;}
	.st95{clip-path:url(#SVGID_2_);fill:#45AF84;}
	.st96{clip-path:url(#SVGID_2_);fill:#43AE85;}
	.st97{clip-path:url(#SVGID_2_);fill:#42AE85;}
	.st98{clip-path:url(#SVGID_2_);fill:#40AE85;}
	.st99{clip-path:url(#SVGID_2_);fill:#3EAE85;}
	.st100{clip-path:url(#SVGID_2_);fill:#3CAE85;}
	.st101{clip-path:url(#SVGID_2_);fill:#3BAE85;}
	.st102{clip-path:url(#SVGID_2_);fill:#39AD85;}
	.st103{clip-path:url(#SVGID_2_);fill:#38AD86;}
	.st104{clip-path:url(#SVGID_2_);fill:#36AD86;}
	.st105{clip-path:url(#SVGID_2_);fill:#34AD86;}
	.st106{clip-path:url(#SVGID_2_);fill:#33AD86;}
	.st107{clip-path:url(#SVGID_2_);fill:#31AD86;}
	.st108{clip-path:url(#SVGID_2_);fill:#30AD86;}
	.st109{clip-path:url(#SVGID_2_);fill:#2EAC86;}
	.st110{clip-path:url(#SVGID_2_);fill:#2DAC86;}
	.st111{clip-path:url(#SVGID_2_);fill:#2BAC86;}
	.st112{clip-path:url(#SVGID_2_);fill:#2AAC86;}
	.st113{clip-path:url(#SVGID_2_);fill:#29AC87;}
	.st114{clip-path:url(#SVGID_2_);fill:#27AC87;}
	.st115{clip-path:url(#SVGID_2_);fill:#26AC87;}
	.st116{clip-path:url(#SVGID_2_);fill:#25AC87;}
	.st117{clip-path:url(#SVGID_2_);fill:#23AC87;}
	.st118{clip-path:url(#SVGID_2_);fill:#22AC87;}
	.st119{clip-path:url(#SVGID_2_);fill:#21AC87;}
	.st120{clip-path:url(#SVGID_2_);fill:#1FAC87;}
	.st121{clip-path:url(#SVGID_2_);fill:#1EAB87;}
	.st122{clip-path:url(#SVGID_2_);fill:#1DAB87;}
	.st123{clip-path:url(#SVGID_2_);fill:#1CAB87;}
	.st124{clip-path:url(#SVGID_2_);fill:#1BAB87;}
	.st125{clip-path:url(#SVGID_2_);fill:#19AB87;}
	.st126{clip-path:url(#SVGID_2_);fill:#18AB87;}
	.st127{clip-path:url(#SVGID_2_);fill:#17AB87;}
	.st128{clip-path:url(#SVGID_2_);fill:#16AB87;}
	.st129{clip-path:url(#SVGID_2_);fill:#15AB87;}
	.st130{clip-path:url(#SVGID_2_);fill:#14AB87;}
	.st131{clip-path:url(#SVGID_2_);fill:#13AB87;}
	.st132{clip-path:url(#SVGID_2_);fill:#12AB87;}
	.st133{clip-path:url(#SVGID_2_);fill:#11AB87;}
	.st134{clip-path:url(#SVGID_2_);fill:#10AB87;}
	.st135{clip-path:url(#SVGID_2_);fill:#0FAB88;}
	.st136{clip-path:url(#SVGID_2_);fill:#0EAB88;}
	.st137{clip-path:url(#SVGID_2_);fill:#0DAB88;}
	.st138{clip-path:url(#SVGID_2_);fill:#0CAB88;}
	.st139{clip-path:url(#SVGID_2_);fill:#0BAB88;}
	.st140{clip-path:url(#SVGID_2_);fill:#0AAB88;}
	.st141{clip-path:url(#SVGID_2_);fill:#09AB88;}
	.st142{clip-path:url(#SVGID_2_);fill:#08AB88;}
	.st143{clip-path:url(#SVGID_2_);fill:#07AB88;}
	.st144{clip-path:url(#SVGID_2_);fill:#06AB88;}
	.st145{clip-path:url(#SVGID_2_);fill:#05AB88;}
	.st146{clip-path:url(#SVGID_2_);fill:#04AB88;}
	.st147{clip-path:url(#SVGID_2_);fill:#03AB88;}
	.st148{clip-path:url(#SVGID_2_);fill:#02AB88;}
	.st149{clip-path:url(#SVGID_2_);fill:#01AB88;}
	.st150{clip-path:url(#SVGID_2_);fill:#01AA88;}
	.st151{clip-path:url(#SVGID_2_);fill:#00AA88;}
</style>
<g>
	<g>
		<rect x="9.55" y="64.11" class="st0" width="54.52" height="256.91"/>
	</g>
	<g>
		<path d="M65.07,322.03H8.55V63.11h56.52V322.03z M10.55,320.03h52.52V65.11H10.55V320.03z"/>
	</g>
</g>
<g>
	<g>
		<g>
			<rect x="111.88" y="268.09" class="st1" width="54.52" height="52.6"/>
		</g>
		<g>
			<path d="M167.4,321.68h-56.52v-54.6h56.52V321.68z M112.88,319.68h52.52v-50.6h-52.52V319.68z"/>
		</g>
	</g>
	<g>
		<g>
			<rect x="111.88" y="97.53" class="st2" width="54.52" height="170.55"/>
		</g>
		<g>
			<path d="M167.4,269.09h-56.52V96.53h56.52V269.09z M112.88,267.09h52.52V98.53h-52.52V267.09z"/>
		</g>
	</g>
	<g>
		<g>
			<rect x="111.88" y="63.77" class="st0" width="54.52" height="33.77"/>
		</g>
		<g>
			<path d="M167.4,98.53h-56.52V62.77h56.52V98.53z M112.88,96.53h52.52V64.77h-52.52V96.53z"/>
		</g>
	</g>
</g>
<g>
	<g>
		<rect x="323.16" y="268.09" class="st1" width="54.52" height="52.6"/>
	</g>
	<g>
		<path d="M378.68,321.68h-56.52v-54.6h56.52V321.68z M324.16,319.68h52.52v-50.6h-52.52V319.68z"/>
	</g>
</g>
<g>
	<g>
		<rect x="323.16" y="97.53" class="st2" width="54.52" height="170.55"/>
	</g>
	<g>
		<path d="M378.68,269.09h-56.52V96.53h56.52V269.09z M324.16,267.09h52.52V98.53h-52.52V267.09z"/>
	</g>
</g>
<g>
	<g>
		<rect x="416.27" y="63.77" class="st0" width="54.52" height="33.77"/>
	</g>
	<g>
		<path d="M471.79,98.53h-6v-2h5v0.43h1V98.53z M462.79,98.53h-5v-2h5V98.53z M454.79,98.53h-5v-2h5V98.53z M446.79,98.53h-5v-2h5
			V98.53z M438.79,98.53h-5v-2h5V98.53z M430.79,98.53h-5v-2h5V98.53z M422.79,98.53h-5v-2h5V98.53z M417.27,96.05h-2v-5h2V96.05z
			 M471.79,93.96h-2v-5h2V93.96z M417.27,88.05h-2v-5h2V88.05z M471.79,85.96h-2v-5h2V85.96z M417.27,80.05h-2v-5h2V80.05z
			 M471.79,77.96h-2v-5h2V77.96z M417.27,72.05h-2v-5h2V72.05z M471.79,69.96h-2v-5h2V69.96z M468.98,64.77h-5v-2h5V64.77z
			 M460.98,64.77h-5v-2h5V64.77z M452.98,64.77h-5v-2h5V64.77z M444.98,64.77h-5v-2h5V64.77z M436.98,64.77h-5v-2h5V64.77z
			 M428.98,64.77h-5v-2h5V64.77z M420.98,64.77h-4.71v-0.71h-1v-1.29h5.71V64.77z"/>
	</g>
</g>
<g>
	<g>
		<rect x="416.27" y="268.09" class="st1" width="54.52" height="52.6"/>
	</g>
	<g>
		<path d="M471.79,321.68h-56.52v-54.6h56.52V321.68z M417.27,319.68h52.52v-50.6h-52.52V319.68z"/>
	</g>
</g>
<g>
	<g>
		<rect x="416.27" y="97.53" class="st2" width="54.52" height="170.55"/>
	</g>
	<g>
		<path d="M471.79,269.09h-56.52V96.53h56.52V269.09z M417.27,267.09h52.52V98.53h-52.52V267.09z"/>
	</g>
</g>
<g>
	<rect x="197" y="12.51" width="2" height="304.55"/>
</g>
<g>
	<path d="M32.45,195.5l-2.52,7.63h-3.24l8.24-24.26h3.78l8.28,24.26h-3.35l-2.59-7.63H32.45z M40.41,193.05l-2.38-6.98
		c-0.54-1.58-0.9-3.02-1.26-4.43H36.7c-0.36,1.44-0.76,2.92-1.22,4.39l-2.38,7.02H40.41z"/>
</g>
<g>
	<path d="M19.12,36.53c-1.31,1.76-2.27,4.1-2.27,7.36c0,3.21,0.99,5.51,2.27,7.31h-1.24c-1.13-1.5-2.36-3.8-2.36-7.31
		c0.02-3.55,1.22-5.85,2.36-7.36H19.12z"/>
	<path d="M22.7,37.8v2.5h2.27v1.21H22.7v4.7c0,1.08,0.31,1.69,1.19,1.69c0.41,0,0.72-0.05,0.92-0.11l0.07,1.19
		c-0.31,0.13-0.79,0.22-1.4,0.22c-0.74,0-1.33-0.23-1.71-0.67c-0.45-0.47-0.61-1.24-0.61-2.27v-4.75H19.8v-1.21h1.35v-2.09
		L22.7,37.8z"/>
	<path d="M29.97,42.95v-1.08h9.29v1.08H29.97z M29.97,46.48V45.4h9.29v1.08H29.97z"/>
	<path d="M47.01,37.8v2.5h2.27v1.21h-2.27v4.7c0,1.08,0.31,1.69,1.19,1.69c0.41,0,0.72-0.05,0.92-0.11l0.07,1.19
		c-0.31,0.13-0.79,0.22-1.4,0.22c-0.74,0-1.33-0.23-1.71-0.67c-0.45-0.47-0.61-1.24-0.61-2.27v-4.75h-1.35v-1.21h1.35v-2.09
		L47.01,37.8z"/>
	<path d="M51.68,51.67v-5.92h-0.04l-1.3,0.63l-0.2-0.94l1.69-0.79h1.1v7.02H51.68z"/>
	<path d="M54.5,51.2c1.28-1.78,2.27-4.12,2.27-7.36c0-3.22-0.97-5.53-2.27-7.31h1.22c1.15,1.48,2.36,3.78,2.36,7.33
		c0,3.53-1.21,5.82-2.36,7.35H54.5z"/>
</g>
<g>
	<path d="M136.96,81.97l-1.26,3.82h-1.62l4.12-12.14h1.89l4.14,12.14h-1.67l-1.3-3.82H136.96z M140.94,80.75l-1.19-3.49
		c-0.27-0.79-0.45-1.51-0.63-2.21h-0.04c-0.18,0.72-0.38,1.46-0.61,2.2l-1.19,3.51H140.94z"/>
</g>
<g>
	<path d="M135.63,185.88c0.68-0.14,1.76-0.25,2.86-0.25c1.57,0,2.57,0.27,3.33,0.88c0.63,0.47,1.01,1.19,1.01,2.14
		c0,1.17-0.77,2.2-2.05,2.66v0.04c1.15,0.29,2.5,1.24,2.5,3.04c0,1.04-0.41,1.84-1.03,2.43c-0.85,0.77-2.21,1.13-4.2,1.13
		c-1.08,0-1.91-0.07-2.43-0.14V185.88z M137.2,190.85h1.42c1.66,0,2.63-0.86,2.63-2.03c0-1.42-1.08-1.98-2.66-1.98
		c-0.72,0-1.13,0.05-1.39,0.11V190.85z M137.2,196.66c0.31,0.05,0.76,0.07,1.31,0.07c1.62,0,3.11-0.59,3.11-2.36
		c0-1.66-1.42-2.34-3.13-2.34h-1.3V196.66z"/>
</g>
<g>
	<path d="M143.77,301.53c-0.58,0.29-1.73,0.58-3.21,0.58c-3.42,0-6-2.16-6-6.14c0-3.8,2.58-6.37,6.34-6.37
		c1.51,0,2.47,0.32,2.88,0.54l-0.38,1.28c-0.59-0.29-1.44-0.5-2.45-0.5c-2.84,0-4.74,1.82-4.74,5.01c0,2.97,1.71,4.88,4.66,4.88
		c0.95,0,1.93-0.2,2.56-0.5L143.77,301.53z"/>
</g>
<g>
	<g>
		<g>
			<rect x="230.05" y="63.77" class="st0" width="54.52" height="33.77"/>
		</g>
		<g>
			<path d="M285.57,98.53h-6v-2h5v0.43h1V98.53z M276.57,98.53h-5v-2h5V98.53z M268.57,98.53h-5v-2h5V98.53z M260.57,98.53h-5v-2h5
				V98.53z M252.57,98.53h-5v-2h5V98.53z M244.57,98.53h-5v-2h5V98.53z M236.57,98.53h-5v-2h5V98.53z M231.05,96.05h-2v-5h2V96.05z
				 M285.57,93.96h-2v-5h2V93.96z M231.05,88.05h-2v-5h2V88.05z M285.57,85.96h-2v-5h2V85.96z M231.05,80.05h-2v-5h2V80.05z
				 M285.57,77.96h-2v-5h2V77.96z M231.05,72.05h-2v-5h2V72.05z M285.57,69.96h-2v-5h2V69.96z M282.76,64.77h-5v-2h5V64.77z
				 M274.76,64.77h-5v-2h5V64.77z M266.76,64.77h-5v-2h5V64.77z M258.76,64.77h-5v-2h5V64.77z M250.76,64.77h-5v-2h5V64.77z
				 M242.76,64.77h-5v-2h5V64.77z M234.76,64.77h-4.71v-0.71h-1v-1.29h5.71V64.77z"/>
		</g>
	</g>
	<g>
		<g>
			<g>
				<defs>
					<rect id="SVGID_1_" x="230.05" y="97.53" width="54.52" height="223.15"/>
				</defs>
				<clipPath id="SVGID_2_">
					<use xlink:href="#SVGID_1_"  style="overflow:visible;"/>
				</clipPath>
				<path class="st3" d="M230.05,320.68h54.52H230.05z"/>
				<rect x="230.05" y="320.07" class="st3" width="54.52" height="0.61"/>
				<rect x="230.05" y="319.46" class="st4" width="54.52" height="0.61"/>
				<rect x="230.05" y="318.85" class="st5" width="54.52" height="0.61"/>
				<rect x="230.05" y="318.24" class="st6" width="54.52" height="0.61"/>
				<rect x="230.05" y="317.63" class="st7" width="54.52" height="0.61"/>
				<rect x="230.05" y="317.01" class="st8" width="54.52" height="0.61"/>
				<rect x="230.05" y="316.4" class="st9" width="54.52" height="0.61"/>
				<rect x="230.05" y="315.79" class="st10" width="54.52" height="0.61"/>
				<rect x="230.05" y="315.18" class="st11" width="54.52" height="0.61"/>
				<rect x="230.05" y="314.57" class="st12" width="54.52" height="0.61"/>
				<rect x="230.05" y="313.96" class="st13" width="54.52" height="0.61"/>
				<rect x="230.05" y="313.35" class="st14" width="54.52" height="0.61"/>
				<rect x="230.05" y="312.74" class="st15" width="54.52" height="0.61"/>
				<rect x="230.05" y="312.12" class="st16" width="54.52" height="0.61"/>
				<rect x="230.05" y="311.51" class="st17" width="54.52" height="0.61"/>
				<rect x="230.05" y="310.9" class="st18" width="54.52" height="0.61"/>
				<rect x="230.05" y="310.29" class="st19" width="54.52" height="0.61"/>
				<rect x="230.05" y="309.68" class="st20" width="54.52" height="0.61"/>
				<rect x="230.05" y="309.07" class="st21" width="54.52" height="0.61"/>
				<rect x="230.05" y="308.46" class="st22" width="54.52" height="0.61"/>
				<rect x="230.05" y="307.85" class="st23" width="54.52" height="0.61"/>
				<rect x="230.05" y="307.24" class="st24" width="54.52" height="0.61"/>
				<rect x="230.05" y="306.62" class="st25" width="54.52" height="0.61"/>
				<rect x="230.05" y="306.01" class="st26" width="54.52" height="0.61"/>
				<rect x="230.05" y="305.4" class="st27" width="54.52" height="0.61"/>
				<rect x="230.05" y="304.79" class="st28" width="54.52" height="0.61"/>
				<rect x="230.05" y="304.18" class="st29" width="54.52" height="0.61"/>
				<rect x="230.05" y="303.57" class="st30" width="54.52" height="0.61"/>
				<rect x="230.05" y="302.96" class="st31" width="54.52" height="0.61"/>
				<rect x="230.05" y="302.35" class="st32" width="54.52" height="0.61"/>
				<rect x="230.05" y="301.73" class="st33" width="54.52" height="0.61"/>
				<rect x="230.05" y="301.12" class="st34" width="54.52" height="0.61"/>
				<rect x="230.05" y="300.51" class="st35" width="54.52" height="0.61"/>
				<rect x="230.05" y="299.9" class="st36" width="54.52" height="0.61"/>
				<rect x="230.05" y="299.29" class="st37" width="54.52" height="0.61"/>
				<rect x="230.05" y="298.68" class="st38" width="54.52" height="0.61"/>
				<rect x="230.05" y="298.07" class="st39" width="54.52" height="0.61"/>
				<rect x="230.05" y="297.46" class="st40" width="54.52" height="0.61"/>
				<rect x="230.05" y="296.85" class="st41" width="54.52" height="0.61"/>
				<rect x="230.05" y="296.23" class="st41" width="54.52" height="0.61"/>
				<rect x="230.05" y="295.62" class="st42" width="54.52" height="0.61"/>
				<rect x="230.05" y="294.37" class="st42" width="54.52" height="1.25"/>
				<rect x="230.05" y="293.12" class="st43" width="54.52" height="1.25"/>
				<rect x="230.05" y="291.86" class="st44" width="54.52" height="1.25"/>
				<rect x="230.05" y="290.61" class="st45" width="54.52" height="1.25"/>
				<rect x="230.05" y="289.35" class="st46" width="54.52" height="1.25"/>
				<rect x="230.05" y="288.1" class="st47" width="54.52" height="1.25"/>
				<rect x="230.05" y="286.85" class="st48" width="54.52" height="1.25"/>
				<rect x="230.05" y="285.59" class="st49" width="54.52" height="1.25"/>
				<rect x="230.05" y="284.34" class="st50" width="54.52" height="1.25"/>
				<rect x="230.05" y="283.09" class="st51" width="54.52" height="1.25"/>
				<rect x="230.05" y="281.83" class="st52" width="54.52" height="1.25"/>
				<rect x="230.05" y="280.58" class="st53" width="54.52" height="1.25"/>
				<rect x="230.05" y="279.32" class="st54" width="54.52" height="1.25"/>
				<rect x="230.05" y="278.07" class="st55" width="54.52" height="1.25"/>
				<rect x="230.05" y="276.82" class="st56" width="54.52" height="1.25"/>
				<rect x="230.05" y="275.56" class="st57" width="54.52" height="1.25"/>
				<rect x="230.05" y="274.31" class="st58" width="54.52" height="1.25"/>
				<rect x="230.05" y="273.06" class="st59" width="54.52" height="1.25"/>
				<rect x="230.05" y="271.8" class="st60" width="54.52" height="1.25"/>
				<rect x="230.05" y="270.55" class="st61" width="54.52" height="1.25"/>
				<rect x="230.05" y="269.29" class="st62" width="54.52" height="1.25"/>
				<rect x="230.05" y="268.04" class="st63" width="54.52" height="1.25"/>
				<rect x="230.05" y="266.79" class="st64" width="54.52" height="1.25"/>
				<rect x="230.05" y="265.53" class="st65" width="54.52" height="1.25"/>
				<rect x="230.05" y="264.28" class="st66" width="54.52" height="1.25"/>
				<rect x="230.05" y="263.03" class="st67" width="54.52" height="1.25"/>
				<rect x="230.05" y="261.77" class="st68" width="54.52" height="1.25"/>
				<rect x="230.05" y="260.52" class="st69" width="54.52" height="1.25"/>
				<rect x="230.05" y="259.26" class="st70" width="54.52" height="1.25"/>
				<rect x="230.05" y="258.01" class="st71" width="54.52" height="1.25"/>
				<rect x="230.05" y="256.76" class="st72" width="54.52" height="1.25"/>
				<rect x="230.05" y="255.5" class="st73" width="54.52" height="1.25"/>
				<rect x="230.05" y="254.25" class="st74" width="54.52" height="1.25"/>
				<rect x="230.05" y="253" class="st75" width="54.52" height="1.25"/>
				<rect x="230.05" y="251.74" class="st76" width="54.52" height="1.25"/>
				<rect x="230.05" y="250.49" class="st77" width="54.52" height="1.25"/>
				<rect x="230.05" y="249.23" class="st78" width="54.52" height="1.25"/>
				<rect x="230.05" y="247.98" class="st79" width="54.52" height="1.25"/>
				<rect x="230.05" y="246.73" class="st80" width="54.52" height="1.25"/>
				<rect x="230.05" y="245.47" class="st81" width="54.52" height="1.25"/>
				<rect x="230.05" y="244.22" class="st82" width="54.52" height="1.25"/>
				<rect x="230.05" y="242.97" class="st83" width="54.52" height="1.25"/>
				<rect x="230.05" y="241.71" class="st84" width="54.52" height="1.25"/>
				<rect x="230.05" y="240.46" class="st85" width="54.52" height="1.25"/>
				<rect x="230.05" y="239.2" class="st86" width="54.52" height="1.25"/>
				<rect x="230.05" y="237.95" class="st87" width="54.52" height="1.25"/>
				<rect x="230.05" y="236.7" class="st88" width="54.52" height="1.25"/>
				<rect x="230.05" y="235.44" class="st89" width="54.52" height="1.25"/>
				<rect x="230.05" y="234.19" class="st90" width="54.52" height="1.25"/>
				<rect x="230.05" y="232.94" class="st91" width="54.52" height="1.25"/>
				<rect x="230.05" y="231.68" class="st92" width="54.52" height="1.25"/>
				<rect x="230.05" y="230.43" class="st93" width="54.52" height="1.25"/>
				<rect x="230.05" y="229.17" class="st94" width="54.52" height="1.25"/>
				<rect x="230.05" y="227.92" class="st95" width="54.52" height="1.25"/>
				<rect x="230.05" y="226.67" class="st96" width="54.52" height="1.25"/>
				<rect x="230.05" y="225.41" class="st97" width="54.52" height="1.25"/>
				<rect x="230.05" y="224.16" class="st98" width="54.52" height="1.25"/>
				<rect x="230.05" y="222.91" class="st99" width="54.52" height="1.25"/>
				<rect x="230.05" y="221.65" class="st100" width="54.52" height="1.25"/>
				<rect x="230.05" y="220.4" class="st101" width="54.52" height="1.25"/>
				<rect x="230.05" y="219.15" class="st102" width="54.52" height="1.25"/>
				<rect x="230.05" y="217.89" class="st103" width="54.52" height="1.25"/>
				<rect x="230.05" y="216.64" class="st104" width="54.52" height="1.25"/>
				<rect x="230.05" y="215.38" class="st105" width="54.52" height="1.25"/>
				<rect x="230.05" y="214.13" class="st106" width="54.52" height="1.25"/>
				<rect x="230.05" y="212.88" class="st107" width="54.52" height="1.25"/>
				<rect x="230.05" y="211.62" class="st108" width="54.52" height="1.25"/>
				<rect x="230.05" y="210.37" class="st109" width="54.52" height="1.25"/>
				<rect x="230.05" y="209.12" class="st110" width="54.52" height="1.25"/>
				<rect x="230.05" y="207.86" class="st111" width="54.52" height="1.25"/>
				<rect x="230.05" y="206.61" class="st112" width="54.52" height="1.25"/>
				<rect x="230.05" y="205.35" class="st113" width="54.52" height="1.25"/>
				<rect x="230.05" y="204.1" class="st114" width="54.52" height="1.25"/>
				<rect x="230.05" y="202.85" class="st115" width="54.52" height="1.25"/>
				<rect x="230.05" y="201.59" class="st116" width="54.52" height="1.25"/>
				<rect x="230.05" y="200.34" class="st117" width="54.52" height="1.25"/>
				<rect x="230.05" y="199.09" class="st118" width="54.52" height="1.25"/>
				<rect x="230.05" y="197.83" class="st119" width="54.52" height="1.25"/>
				<rect x="230.05" y="196.58" class="st120" width="54.52" height="1.25"/>
				<rect x="230.05" y="195.32" class="st121" width="54.52" height="1.25"/>
				<rect x="230.05" y="194.07" class="st122" width="54.52" height="1.25"/>
				<rect x="230.05" y="192.82" class="st123" width="54.52" height="1.25"/>
				<rect x="230.05" y="191.56" class="st124" width="54.52" height="1.25"/>
				<rect x="230.05" y="190.31" class="st125" width="54.52" height="1.25"/>
				<rect x="230.05" y="189.06" class="st126" width="54.52" height="1.25"/>
				<rect x="230.05" y="187.8" class="st127" width="54.52" height="1.25"/>
				<rect x="230.05" y="186.55" class="st128" width="54.52" height="1.25"/>
				<rect x="230.05" y="185.29" class="st129" width="54.52" height="1.25"/>
				<rect x="230.05" y="184.04" class="st130" width="54.52" height="1.25"/>
				<rect x="230.05" y="182.79" class="st131" width="54.52" height="1.25"/>
				<rect x="230.05" y="181.53" class="st132" width="54.52" height="1.25"/>
				<rect x="230.05" y="180.28" class="st133" width="54.52" height="1.25"/>
				<rect x="230.05" y="179.03" class="st134" width="54.52" height="1.25"/>
				<rect x="230.05" y="177.77" class="st135" width="54.52" height="1.25"/>
				<rect x="230.05" y="176.52" class="st136" width="54.52" height="1.25"/>
				<rect x="230.05" y="175.26" class="st137" width="54.52" height="1.25"/>
				<rect x="230.05" y="174.01" class="st138" width="54.52" height="1.25"/>
				<rect x="230.05" y="172.76" class="st139" width="54.52" height="1.25"/>
				<rect x="230.05" y="171.5" class="st140" width="54.52" height="1.25"/>
				<rect x="230.05" y="170.25" class="st141" width="54.52" height="1.25"/>
				<rect x="230.05" y="169" class="st142" width="54.52" height="1.25"/>
				<rect x="230.05" y="167.74" class="st143" width="54.52" height="1.25"/>
				<rect x="230.05" y="166.49" class="st143" width="54.52" height="1.25"/>
				<rect x="230.05" y="165.23" class="st144" width="54.52" height="1.25"/>
				<rect x="230.05" y="163.98" class="st145" width="54.52" height="1.25"/>
				<rect x="230.05" y="162.73" class="st145" width="54.52" height="1.25"/>
				<rect x="230.05" y="161.47" class="st146" width="54.52" height="1.25"/>
				<rect x="230.05" y="160.22" class="st146" width="54.52" height="1.25"/>
				<rect x="230.05" y="158.97" class="st147" width="54.52" height="1.25"/>
				<rect x="230.05" y="157.71" class="st147" width="54.52" height="1.25"/>
				<rect x="230.05" y="156.46" class="st148" width="54.52" height="1.25"/>
				<rect x="230.05" y="155.2" class="st148" width="54.52" height="1.25"/>
				<rect x="230.05" y="153.95" class="st148" width="54.52" height="1.25"/>
				<rect x="230.05" y="152.7" class="st149" width="54.52" height="1.25"/>
				<rect x="230.05" y="151.44" class="st149" width="54.52" height="1.25"/>
				<rect x="230.05" y="150.19" class="st149" width="54.52" height="1.25"/>
				<rect x="230.05" y="148.94" class="st149" width="54.52" height="1.25"/>
				<rect x="230.05" y="147.68" class="st150" width="54.52" height="1.25"/>
				<rect x="230.05" y="146.43" class="st151" width="54.52" height="1.25"/>
				<rect x="230.05" y="145.17" class="st151" width="54.52" height="1.25"/>
				<rect x="230.05" y="143.92" class="st151" width="54.52" height="1.25"/>
				<rect x="230.05" y="142.67" class="st151" width="54.52" height="1.25"/>
				<rect x="230.05" y="141.41" class="st151" width="54.52" height="1.25"/>
				<rect x="230.05" y="140.16" class="st151" width="54.52" height="1.25"/>
				<rect x="230.05" y="138.91" class="st151" width="54.52" height="1.25"/>
				<rect x="230.05" y="137.65" class="st151" width="54.52" height="1.25"/>
				<rect x="230.05" y="136.4" class="st151" width="54.52" height="1.25"/>
				<rect x="230.05" y="135.14" class="st151" width="54.52" height="1.25"/>
				<rect x="230.05" y="133.89" class="st151" width="54.52" height="1.25"/>
				<rect x="230.05" y="132.64" class="st151" width="54.52" height="1.25"/>
				<rect x="230.05" y="131.38" class="st151" width="54.52" height="1.25"/>
				<rect x="230.05" y="130.13" class="st151" width="54.52" height="1.25"/>
				<rect x="230.05" y="128.88" class="st151" width="54.52" height="1.25"/>
				<rect x="230.05" y="127.62" class="st151" width="54.52" height="1.25"/>
				<rect x="230.05" y="126.37" class="st151" width="54.52" height="1.25"/>
				<rect x="230.05" y="125.11" class="st151" width="54.52" height="1.25"/>
				<rect x="230.05" y="123.86" class="st151" width="54.52" height="1.25"/>
				<rect x="230.05" y="122.61" class="st151" width="54.52" height="1.25"/>
				<rect x="230.05" y="121.35" class="st151" width="54.52" height="1.25"/>
				<rect x="230.05" y="120.1" class="st151" width="54.52" height="1.25"/>
				<rect x="230.05" y="118.85" class="st151" width="54.52" height="1.25"/>
				<rect x="230.05" y="117.59" class="st151" width="54.52" height="1.25"/>
				<rect x="230.05" y="116.34" class="st151" width="54.52" height="1.25"/>
				<rect x="230.05" y="115.08" class="st151" width="54.52" height="1.25"/>
				<rect x="230.05" y="113.83" class="st151" width="54.52" height="1.25"/>
				<rect x="230.05" y="112.58" class="st151" width="54.52" height="1.25"/>
				<rect x="230.05" y="111.32" class="st151" width="54.52" height="1.25"/>
				<rect x="230.05" y="110.07" class="st151" width="54.52" height="1.25"/>
				<rect x="230.05" y="108.82" class="st151" width="54.52" height="1.25"/>
				<rect x="230.05" y="107.56" class="st151" width="54.52" height="1.25"/>
				<rect x="230.05" y="106.31" class="st151" width="54.52" height="1.25"/>
				<rect x="230.05" y="105.05" class="st151" width="54.52" height="1.25"/>
				<rect x="230.05" y="103.8" class="st151" width="54.52" height="1.25"/>
				<rect x="230.05" y="102.55" class="st151" width="54.52" height="1.25"/>
				<rect x="230.05" y="101.29" class="st151" width="54.52" height="1.25"/>
				<rect x="230.05" y="100.04" class="st151" width="54.52" height="1.25"/>
				<rect x="230.05" y="98.79" class="st151" width="54.52" height="1.25"/>
				<rect x="230.05" y="97.53" class="st151" width="54.52" height="1.25"/>
				<rect x="230.05" y="97.53" class="st151" width="54.52" height="0"/>
			</g>
		</g>
		<g>
			<path d="M285.57,321.68h-56.52V96.53h56.52V321.68z M231.05,319.68h52.52V98.53h-52.52V319.68z"/>
		</g>
	</g>
	<g>
		<path d="M244.25,196.74c0.34,0.04,0.74,0,1.28-0.05c0.92-0.13,1.78-0.5,2.45-1.13c0.77-0.7,1.33-1.73,1.55-3.12h-0.05
			c-0.65,0.79-1.58,1.26-2.75,1.26c-2.11,0-3.46-1.58-3.46-3.58c0-2.21,1.6-4.16,4-4.16s3.87,1.94,3.87,4.93
			c0,2.57-0.86,4.38-2.02,5.49c-0.9,0.88-2.14,1.42-3.4,1.57c-0.58,0.09-1.08,0.11-1.46,0.09V196.74z M244.83,190
			c0,1.46,0.88,2.49,2.25,2.49c1.06,0,1.89-0.52,2.3-1.22c0.09-0.14,0.14-0.32,0.14-0.58c0-2-0.74-3.53-2.39-3.53
			C245.78,187.16,244.83,188.34,244.83,190z"/>
		<path d="M260.35,191.87c0,3.98-1.48,6.18-4.07,6.18c-2.29,0-3.83-2.14-3.87-6.01c0-3.93,1.69-6.09,4.07-6.09
			C258.94,185.95,260.35,188.15,260.35,191.87z M253.99,192.05c0,3.04,0.94,4.77,2.38,4.77c1.62,0,2.39-1.89,2.39-4.88
			c0-2.88-0.74-4.77-2.38-4.77C255,187.17,253.99,188.87,253.99,192.05z"/>
		<path d="M267.08,189.44c0,2.47-1.3,3.69-2.81,3.69c-1.46,0-2.72-1.17-2.74-3.53c0-2.34,1.28-3.66,2.83-3.66
			C266,185.95,267.08,187.21,267.08,189.44z M262.79,189.55c-0.04,1.5,0.52,2.63,1.51,2.63c1.04,0,1.51-1.12,1.51-2.67
			c0-1.42-0.42-2.61-1.51-2.61C263.32,186.9,262.79,188.07,262.79,189.55z M264.16,198.05l6.88-12.1h1.01l-6.88,12.1H264.16z
			 M274.69,194.29c0,2.47-1.3,3.69-2.79,3.69c-1.46,0-2.72-1.17-2.74-3.51c0-2.36,1.28-3.67,2.83-3.67
			C273.63,190.79,274.69,192.05,274.69,194.29z M270.41,194.39c-0.02,1.49,0.56,2.63,1.53,2.63c1.04,0,1.51-1.12,1.51-2.67
			c0-1.42-0.41-2.61-1.51-2.61C270.95,191.75,270.41,192.92,270.41,194.39z"/>
	</g>
</g>
<g>
	<path d="M335.26,183.41c0-1.48,0.88-2.52,2.32-3.13l-0.02-0.05c-1.3-0.61-1.85-1.62-1.85-2.63c0-1.86,1.57-3.12,3.62-3.12
		c2.27,0,3.4,1.42,3.4,2.88c0,0.99-0.49,2.05-1.93,2.74v0.05c1.46,0.58,2.36,1.6,2.36,3.02c0,2.04-1.75,3.4-3.98,3.4
		C336.73,186.58,335.26,185.12,335.26,183.41z M341.56,183.34c0-1.42-0.99-2.11-2.57-2.56c-1.37,0.4-2.11,1.3-2.11,2.41
		c-0.05,1.19,0.85,2.23,2.34,2.23C340.64,185.43,341.56,184.55,341.56,183.34z M337.2,177.49c0,1.17,0.88,1.8,2.23,2.16
		c1.01-0.34,1.78-1.06,1.78-2.12c0-0.94-0.56-1.91-1.98-1.91C337.92,175.62,337.2,176.48,337.2,177.49z"/>
	<path d="M352.41,180.41c0,3.98-1.48,6.18-4.07,6.18c-2.29,0-3.83-2.14-3.87-6.01c0-3.93,1.69-6.09,4.07-6.09
		C351.01,174.48,352.41,176.68,352.41,180.41z M346.06,180.59c0,3.04,0.94,4.77,2.38,4.77c1.62,0,2.39-1.89,2.39-4.88
		c0-2.88-0.74-4.77-2.38-4.77C347.07,175.71,346.06,177.4,346.06,180.59z"/>
	<path d="M359.14,177.97c0,2.47-1.3,3.69-2.81,3.69c-1.46,0-2.72-1.17-2.74-3.53c0-2.34,1.28-3.66,2.83-3.66
		C358.06,174.48,359.14,175.74,359.14,177.97z M354.86,178.08c-0.04,1.5,0.52,2.63,1.51,2.63c1.04,0,1.51-1.12,1.51-2.67
		c0-1.42-0.42-2.61-1.51-2.61C355.38,175.44,354.86,176.61,354.86,178.08z M356.23,186.58l6.88-12.1h1.01l-6.88,12.1H356.23z
		 M366.76,182.82c0,2.47-1.3,3.69-2.79,3.69c-1.46,0-2.72-1.17-2.74-3.51c0-2.36,1.28-3.67,2.83-3.67
		C365.7,179.33,366.76,180.59,366.76,182.82z M362.48,182.93c-0.02,1.49,0.56,2.63,1.53,2.63c1.04,0,1.51-1.12,1.51-2.67
		c0-1.42-0.41-2.61-1.51-2.61C363.02,180.28,362.48,181.45,362.48,182.93z"/>
</g>
<g>
	<path d="M335.4,301.92v-0.97l1.24-1.21c2.99-2.84,4.34-4.36,4.36-6.12c0-1.19-0.58-2.29-2.32-2.29c-1.06,0-1.95,0.54-2.48,0.99
		l-0.5-1.12c0.81-0.68,1.96-1.19,3.31-1.19c2.52,0,3.58,1.73,3.58,3.4c0,2.16-1.57,3.91-4.03,6.28l-0.94,0.86v0.04h5.26v1.31H335.4z
		"/>
	<path d="M352.41,295.94c0,3.98-1.48,6.18-4.07,6.18c-2.29,0-3.84-2.14-3.87-6.01c0-3.93,1.69-6.09,4.07-6.09
		C351.01,290.02,352.41,292.22,352.41,295.94z M346.06,296.12c0,3.04,0.94,4.77,2.38,4.77c1.62,0,2.39-1.89,2.39-4.88
		c0-2.88-0.74-4.77-2.38-4.77C347.07,291.25,346.06,292.94,346.06,296.12z"/>
	<path d="M359.14,293.51c0,2.47-1.3,3.69-2.81,3.69c-1.46,0-2.72-1.17-2.74-3.53c0-2.34,1.28-3.66,2.83-3.66
		C358.06,290.02,359.14,291.28,359.14,293.51z M354.86,293.62c-0.04,1.5,0.52,2.63,1.51,2.63c1.04,0,1.51-1.12,1.51-2.67
		c0-1.42-0.41-2.61-1.51-2.61C355.38,290.97,354.86,292.14,354.86,293.62z M356.23,302.12l6.88-12.1h1.01l-6.88,12.1H356.23z
		 M366.76,298.36c0,2.47-1.3,3.69-2.79,3.69c-1.46,0-2.72-1.17-2.74-3.51c0-2.36,1.28-3.67,2.83-3.67
		C365.7,294.86,366.76,296.12,366.76,298.36z M362.48,298.47c-0.02,1.49,0.56,2.63,1.53,2.63c1.04,0,1.51-1.12,1.51-2.67
		c0-1.42-0.41-2.61-1.51-2.61C363.02,295.82,362.48,296.99,362.48,298.47z"/>
</g>
<g>
	<path d="M433.53,291.69h-0.04l-2.03,1.1l-0.31-1.21l2.56-1.37h1.35v11.7h-1.53V291.69z"/>
	<path d="M439.18,298.95c0-1.48,0.88-2.52,2.32-3.13l-0.02-0.05c-1.3-0.61-1.85-1.62-1.85-2.63c0-1.86,1.57-3.12,3.62-3.12
		c2.27,0,3.4,1.42,3.4,2.88c0,0.99-0.49,2.05-1.93,2.74v0.05c1.46,0.58,2.36,1.6,2.36,3.02c0,2.04-1.75,3.4-3.98,3.4
		C440.65,302.12,439.18,300.66,439.18,298.95z M445.48,298.88c0-1.42-0.99-2.11-2.58-2.56c-1.37,0.4-2.11,1.3-2.11,2.41
		c-0.05,1.19,0.85,2.23,2.34,2.23C444.56,300.97,445.48,300.08,445.48,298.88z M441.12,293.03c0,1.17,0.88,1.8,2.23,2.16
		c1.01-0.34,1.78-1.06,1.78-2.12c0-0.94-0.56-1.91-1.98-1.91C441.84,291.15,441.12,292.02,441.12,293.03z"/>
	<path d="M453.83,293.51c0,2.47-1.3,3.69-2.81,3.69c-1.46,0-2.72-1.17-2.74-3.53c0-2.34,1.28-3.66,2.83-3.66
		C452.75,290.02,453.83,291.28,453.83,293.51z M449.55,293.62c-0.04,1.5,0.52,2.63,1.51,2.63c1.04,0,1.51-1.12,1.51-2.67
		c0-1.42-0.42-2.61-1.51-2.61C450.07,290.97,449.55,292.14,449.55,293.62z M450.91,302.12l6.88-12.1h1.01l-6.88,12.1H450.91z
		 M461.45,298.36c0,2.47-1.3,3.69-2.79,3.69c-1.46,0-2.72-1.17-2.74-3.51c0-2.36,1.28-3.67,2.83-3.67
		C460.38,294.86,461.45,296.12,461.45,298.36z M457.16,298.46c-0.02,1.49,0.56,2.63,1.53,2.63c1.04,0,1.51-1.12,1.51-2.67
		c0-1.42-0.41-2.61-1.51-2.61C457.7,295.82,457.16,296.99,457.16,298.46z"/>
</g>
<g>
	<path d="M437.69,171.1v1.04l-5.1,10.66h-1.64l5.08-10.35v-0.04h-5.73v-1.31H437.69z"/>
	<path d="M439.32,182.81v-0.97l1.24-1.21c2.99-2.84,4.34-4.36,4.36-6.12c0-1.19-0.58-2.29-2.32-2.29c-1.06,0-1.95,0.54-2.49,0.99
		l-0.5-1.12c0.81-0.68,1.96-1.19,3.31-1.19c2.52,0,3.58,1.73,3.58,3.4c0,2.16-1.57,3.91-4.03,6.28l-0.94,0.86v0.04h5.26v1.31H439.32
		z"/>
	<path d="M453.83,174.4c0,2.47-1.3,3.69-2.81,3.69c-1.46,0-2.72-1.17-2.74-3.53c0-2.34,1.28-3.66,2.83-3.66
		C452.75,170.91,453.83,172.17,453.83,174.4z M449.55,174.51c-0.04,1.5,0.52,2.63,1.51,2.63c1.04,0,1.51-1.12,1.51-2.67
		c0-1.42-0.42-2.61-1.51-2.61C450.07,171.86,449.55,173.03,449.55,174.51z M450.91,183.01l6.88-12.1h1.01l-6.88,12.1H450.91z
		 M461.45,179.24c0,2.47-1.3,3.69-2.79,3.69c-1.46,0-2.72-1.17-2.74-3.51c0-2.36,1.28-3.67,2.83-3.67
		C460.38,175.75,461.45,177.01,461.45,179.24z M457.16,179.35c-0.02,1.49,0.56,2.63,1.53,2.63c1.04,0,1.51-1.12,1.51-2.67
		c0-1.42-0.41-2.61-1.51-2.61C457.7,176.7,457.16,177.87,457.16,179.35z"/>
</g>
<g>
	<g>
		<rect x="70.98" y="189.57" width="22.78" height="6"/>
	</g>
	<g>
		<g>
			<polygon points="91.74,199.45 103.66,192.57 91.74,185.69 			"/>
		</g>
	</g>
</g>
<g>
	<path d="M119.44,36.53c-1.31,1.76-2.27,4.1-2.27,7.36c0,3.21,0.99,5.51,2.27,7.31h-1.24c-1.13-1.5-2.36-3.8-2.36-7.31
		c0.02-3.55,1.22-5.85,2.36-7.36H119.44z"/>
	<path d="M123.02,37.8v2.5h2.27v1.21h-2.27v4.7c0,1.08,0.31,1.69,1.19,1.69c0.41,0,0.72-0.05,0.92-0.11l0.07,1.19
		c-0.31,0.13-0.79,0.22-1.4,0.22c-0.74,0-1.33-0.23-1.71-0.67c-0.45-0.47-0.61-1.24-0.61-2.27v-4.75h-1.35v-1.21h1.35v-2.09
		L123.02,37.8z"/>
	<path d="M130.29,42.95v-1.08h9.29v1.08H130.29z M130.29,46.48V45.4h9.29v1.08H130.29z"/>
	<path d="M147.34,37.8v2.5h2.27v1.21h-2.27v4.7c0,1.08,0.31,1.69,1.19,1.69c0.41,0,0.72-0.05,0.92-0.11l0.07,1.19
		c-0.31,0.13-0.79,0.22-1.4,0.22c-0.74,0-1.33-0.23-1.71-0.67c-0.45-0.47-0.61-1.24-0.61-2.27v-4.75h-1.35v-1.21h1.35v-2.09
		L147.34,37.8z"/>
	<path d="M150.29,51l1.13-1.06c1.49-1.35,2.27-2.2,2.27-3.12c0-0.68-0.43-1.26-1.37-1.26c-0.63,0-1.17,0.32-1.51,0.56l-0.38-0.81
		c0.49-0.41,1.3-0.76,2.2-0.76c1.69,0,2.4,1.06,2.4,2.04c0,1.35-1.03,2.34-2.4,3.55l-0.56,0.5v0.04h3.08v0.99h-4.86V51z"/>
	<path d="M156.03,51.2c1.28-1.78,2.27-4.12,2.27-7.36c0-3.22-0.97-5.53-2.27-7.31h1.22c1.15,1.48,2.36,3.78,2.36,7.33
		c0,3.53-1.21,5.82-2.36,7.35H156.03z"/>
</g>
<g>
	<path d="M32.98,18.94l-1.71,5.19h-2.2l5.6-16.5h2.57l5.63,16.5H40.6l-1.76-5.19H32.98z M38.39,17.27l-1.62-4.75
		c-0.37-1.08-0.61-2.06-0.86-3.01h-0.05c-0.24,0.98-0.51,1.98-0.83,2.99l-1.62,4.77H38.39z"/>
	<path d="M81.63,7.85c0.93-0.2,2.4-0.34,3.89-0.34c2.13,0,3.5,0.37,4.53,1.2c0.86,0.64,1.37,1.62,1.37,2.91
		c0,1.59-1.05,2.99-2.79,3.62v0.05c1.57,0.39,3.4,1.69,3.4,4.14c0,1.42-0.56,2.5-1.4,3.3c-1.15,1.05-3.01,1.54-5.7,1.54
		c-1.47,0-2.59-0.1-3.3-0.2V7.85z M83.76,14.61h1.93c2.25,0,3.57-1.17,3.57-2.77c0-1.93-1.47-2.69-3.62-2.69
		c-0.98,0-1.54,0.07-1.88,0.15V14.61z M83.76,22.51c0.42,0.07,1.03,0.1,1.79,0.1c2.2,0,4.23-0.81,4.23-3.21
		c0-2.25-1.93-3.18-4.26-3.18h-1.76V22.51z"/>
	<path d="M106.3,11.11v5.75h5.53v1.47h-5.53v5.8h-1.57v-5.8H99.2v-1.47h5.53v-5.75H106.3z"/>
	<path d="M131.39,23.59c-0.78,0.39-2.35,0.78-4.36,0.78c-4.65,0-8.15-2.94-8.15-8.35c0-5.16,3.5-8.66,8.62-8.66
		c2.06,0,3.35,0.44,3.92,0.73l-0.51,1.74c-0.81-0.39-1.96-0.69-3.33-0.69c-3.87,0-6.44,2.47-6.44,6.8c0,4.04,2.33,6.63,6.34,6.63
		c1.3,0,2.62-0.27,3.48-0.69L131.39,23.59z"/>
</g>
<g>
	<g>
		<rect x="50.82" y="14.59" width="16.44" height="3"/>
	</g>
	<g>
		<g>
			<polygon points="66.25,19.53 72.21,16.09 66.25,12.65 			"/>
		</g>
	</g>
</g>
<g>
	<path d="M232.13,23.82c-0.45,0.22-1.34,0.45-2.49,0.45c-2.66,0-4.66-1.68-4.66-4.78c0-2.96,2-4.96,4.93-4.96
		c1.18,0,1.92,0.25,2.24,0.42l-0.29,0.99c-0.46-0.22-1.12-0.39-1.9-0.39c-2.21,0-3.68,1.42-3.68,3.89c0,2.31,1.33,3.8,3.63,3.8
		c0.74,0,1.5-0.15,1.99-0.39L232.13,23.82z"/>
	<path d="M239.59,20.68c0,2.51-1.74,3.6-3.38,3.6c-1.83,0-3.25-1.34-3.25-3.49c0-2.27,1.48-3.6,3.36-3.6
		C238.28,17.19,239.59,18.61,239.59,20.68z M234.21,20.75c0,1.48,0.85,2.61,2.06,2.61c1.18,0,2.06-1.11,2.06-2.63
		c0-1.15-0.57-2.61-2.03-2.61C234.84,18.12,234.21,19.46,234.21,20.75z"/>
	<path d="M241.14,19.18c0-0.7-0.01-1.27-0.06-1.83h1.09l0.07,1.12h0.03c0.34-0.64,1.12-1.27,2.24-1.27c0.94,0,2.4,0.56,2.4,2.89
		v4.05h-1.23v-3.91c0-1.09-0.41-2-1.57-2c-0.81,0-1.44,0.57-1.65,1.26c-0.06,0.15-0.08,0.36-0.08,0.57v4.08h-1.23V19.18z"/>
	<path d="M249.21,17.35l1.33,3.81c0.22,0.62,0.41,1.18,0.55,1.74h0.04c0.15-0.56,0.35-1.12,0.57-1.74l1.32-3.81h1.29l-2.66,6.78
		h-1.18l-2.58-6.78H249.21z"/>
	<path d="M256.01,20.96c0.03,1.67,1.09,2.35,2.32,2.35c0.88,0,1.42-0.15,1.88-0.35l0.21,0.88c-0.43,0.2-1.18,0.42-2.25,0.42
		c-2.09,0-3.33-1.37-3.33-3.42s1.2-3.66,3.18-3.66c2.21,0,2.8,1.95,2.8,3.19c0,0.25-0.03,0.45-0.04,0.57H256.01z M259.63,20.08
		c0.01-0.78-0.32-2-1.71-2c-1.25,0-1.79,1.15-1.89,2H259.63z"/>
	<path d="M262.34,19.46c0-0.8-0.01-1.48-0.06-2.12h1.08l0.04,1.33h0.06c0.31-0.91,1.05-1.48,1.88-1.48c0.14,0,0.24,0.01,0.35,0.04
		v1.16c-0.13-0.03-0.25-0.04-0.42-0.04c-0.87,0-1.49,0.66-1.65,1.58c-0.03,0.17-0.06,0.36-0.06,0.57v3.61h-1.22V19.46z"/>
	<path d="M266.75,22.87c0.36,0.24,1.01,0.49,1.63,0.49c0.9,0,1.32-0.45,1.32-1.01c0-0.59-0.35-0.91-1.26-1.25
		c-1.22-0.43-1.79-1.11-1.79-1.92c0-1.09,0.88-1.99,2.34-1.99c0.69,0,1.29,0.2,1.67,0.42l-0.31,0.9c-0.27-0.17-0.76-0.39-1.39-0.39
		c-0.73,0-1.13,0.42-1.13,0.92c0,0.56,0.41,0.81,1.29,1.15c1.18,0.45,1.78,1.04,1.78,2.04c0,1.19-0.92,2.03-2.54,2.03
		c-0.74,0-1.43-0.18-1.91-0.46L266.75,22.87z"/>
	<path d="M273.83,15.44c0.01,0.42-0.29,0.76-0.78,0.76c-0.43,0-0.74-0.34-0.74-0.76c0-0.43,0.32-0.77,0.77-0.77
		C273.54,14.67,273.83,15.01,273.83,15.44z M272.46,24.13v-6.78h1.23v6.78H272.46z"/>
	<path d="M281.87,20.68c0,2.51-1.74,3.6-3.38,3.6c-1.83,0-3.25-1.34-3.25-3.49c0-2.27,1.48-3.6,3.36-3.6
		C280.55,17.19,281.87,18.61,281.87,20.68z M276.49,20.75c0,1.48,0.85,2.61,2.06,2.61c1.18,0,2.06-1.11,2.06-2.63
		c0-1.15-0.57-2.61-2.03-2.61S276.49,19.46,276.49,20.75z"/>
	<path d="M283.42,19.18c0-0.7-0.01-1.27-0.06-1.83h1.09l0.07,1.12h0.03c0.34-0.64,1.12-1.27,2.24-1.27c0.94,0,2.4,0.56,2.4,2.89
		v4.05h-1.23v-3.91c0-1.09-0.41-2-1.57-2c-0.81,0-1.44,0.57-1.65,1.26c-0.06,0.15-0.08,0.36-0.08,0.57v4.08h-1.23V19.18z"/>
	<path d="M252.97,31.21c-1.02,1.37-1.76,3.19-1.76,5.73c0,2.49,0.77,4.29,1.76,5.69H252c-0.88-1.16-1.83-2.96-1.83-5.69
		c0.01-2.76,0.95-4.55,1.83-5.73H252.97z"/>
	<path d="M259.63,40.93l-1.2-2.09c-0.49-0.8-0.8-1.32-1.09-1.86h-0.03c-0.27,0.55-0.53,1.05-1.02,1.88l-1.13,2.07h-1.4l2.89-4.78
		l-2.77-4.66h1.42l1.25,2.21c0.35,0.62,0.62,1.09,0.87,1.6h0.04c0.27-0.56,0.5-0.99,0.85-1.6l1.29-2.21h1.4l-2.87,4.59l2.94,4.85
		H259.63z"/>
	<path d="M261.67,42.62c0.99-1.39,1.76-3.21,1.76-5.73c0-2.51-0.76-4.3-1.76-5.69h0.95c0.9,1.15,1.83,2.94,1.83,5.7
		c0,2.75-0.94,4.52-1.83,5.72H261.67z"/>
</g>
<g>
	<path d="M321.29,22.64c0.55,0.34,1.34,0.62,2.18,0.62c1.25,0,1.98-0.66,1.98-1.61c0-0.88-0.5-1.39-1.78-1.88
		c-1.54-0.55-2.49-1.34-2.49-2.68c0-1.47,1.22-2.56,3.05-2.56c0.97,0,1.67,0.22,2.09,0.46l-0.34,0.99
		c-0.31-0.17-0.94-0.45-1.79-0.45c-1.29,0-1.78,0.77-1.78,1.41c0,0.88,0.57,1.32,1.88,1.82c1.6,0.62,2.41,1.39,2.41,2.77
		c0,1.46-1.08,2.72-3.31,2.72c-0.91,0-1.9-0.27-2.41-0.6L321.29,22.64z"/>
	<path d="M329.09,20.96c0.03,1.67,1.09,2.35,2.33,2.35c0.88,0,1.42-0.15,1.88-0.35l0.21,0.88c-0.43,0.2-1.18,0.42-2.25,0.42
		c-2.09,0-3.33-1.37-3.33-3.42s1.21-3.66,3.18-3.66c2.21,0,2.8,1.95,2.8,3.19c0,0.25-0.03,0.45-0.04,0.57H329.09z M332.71,20.08
		c0.01-0.78-0.32-2-1.71-2c-1.25,0-1.79,1.15-1.89,2H332.71z"/>
	<path d="M335.42,14.18h1.23v9.95h-1.23V14.18z"/>
	<path d="M339.41,20.96c0.03,1.67,1.09,2.35,2.33,2.35c0.88,0,1.41-0.15,1.88-0.35l0.21,0.88c-0.43,0.2-1.18,0.42-2.25,0.42
		c-2.09,0-3.33-1.37-3.33-3.42s1.2-3.66,3.18-3.66c2.21,0,2.8,1.95,2.8,3.19c0,0.25-0.03,0.45-0.04,0.57H339.41z M343.02,20.08
		c0.01-0.78-0.32-2-1.71-2c-1.25,0-1.79,1.15-1.89,2H343.02z"/>
	<path d="M350.57,23.88c-0.32,0.17-1.04,0.39-1.95,0.39c-2.05,0-3.38-1.39-3.38-3.46c0-2.09,1.43-3.6,3.64-3.6
		c0.73,0,1.37,0.18,1.71,0.35l-0.28,0.95c-0.29-0.17-0.76-0.32-1.43-0.32c-1.55,0-2.4,1.15-2.4,2.56c0,1.57,1.01,2.54,2.35,2.54
		c0.7,0,1.16-0.18,1.51-0.34L350.57,23.88z"/>
	<path d="M353.67,15.4v1.95h1.76v0.94h-1.76v3.66c0,0.84,0.24,1.32,0.92,1.32c0.32,0,0.56-0.04,0.71-0.08l0.06,0.92
		c-0.24,0.1-0.62,0.17-1.09,0.17c-0.57,0-1.04-0.18-1.33-0.52c-0.35-0.36-0.48-0.97-0.48-1.76v-3.7h-1.05v-0.94h1.05v-1.63
		L353.67,15.4z"/>
	<path d="M358.2,15.44c0.01,0.42-0.29,0.76-0.78,0.76c-0.43,0-0.74-0.34-0.74-0.76c0-0.43,0.32-0.77,0.77-0.77
		C357.9,14.67,358.2,15.01,358.2,15.44z M356.82,24.13v-6.78h1.23v6.78H356.82z"/>
	<path d="M360.58,17.35l1.33,3.81c0.22,0.62,0.41,1.18,0.55,1.74h0.04c0.15-0.56,0.35-1.12,0.57-1.74l1.32-3.81h1.29l-2.66,6.78
		h-1.18l-2.58-6.78H360.58z"/>
	<path d="M368.21,15.44c0.01,0.42-0.29,0.76-0.78,0.76c-0.43,0-0.74-0.34-0.74-0.76c0-0.43,0.32-0.77,0.77-0.77
		C367.91,14.67,368.21,15.01,368.21,15.44z M366.83,24.13v-6.78h1.23v6.78H366.83z"/>
	<path d="M371.59,15.4v1.95h1.76v0.94h-1.76v3.66c0,0.84,0.24,1.32,0.92,1.32c0.32,0,0.56-0.04,0.71-0.08l0.06,0.92
		c-0.24,0.1-0.62,0.17-1.09,0.17c-0.57,0-1.04-0.18-1.33-0.52c-0.35-0.36-0.48-0.97-0.48-1.76v-3.7h-1.05v-0.94h1.05v-1.63
		L371.59,15.4z"/>
	<path d="M375.32,17.35l1.49,4.01c0.15,0.45,0.32,0.98,0.43,1.39h0.03c0.13-0.41,0.27-0.92,0.43-1.41l1.34-3.98h1.3l-1.85,4.83
		c-0.88,2.33-1.48,3.52-2.33,4.24c-0.6,0.53-1.21,0.74-1.51,0.8l-0.31-1.04c0.31-0.1,0.71-0.29,1.08-0.6
		c0.34-0.27,0.76-0.74,1.04-1.37c0.06-0.13,0.1-0.22,0.1-0.29c0-0.07-0.03-0.17-0.08-0.32l-2.51-6.25H375.32z"/>
	<path d="M346.69,31.21c-1.02,1.37-1.76,3.19-1.76,5.73c0,2.49,0.77,4.29,1.76,5.69h-0.97c-0.88-1.16-1.83-2.96-1.83-5.69
		c0.01-2.76,0.95-4.55,1.83-5.73H346.69z"/>
	<path d="M347.86,39.44c0.55,0.34,1.34,0.62,2.19,0.62c1.25,0,1.97-0.66,1.97-1.61c0-0.88-0.5-1.39-1.78-1.88
		c-1.54-0.55-2.49-1.34-2.49-2.68c0-1.47,1.22-2.56,3.05-2.56c0.97,0,1.67,0.22,2.09,0.46l-0.34,0.99
		c-0.31-0.17-0.94-0.45-1.79-0.45c-1.29,0-1.78,0.77-1.78,1.41c0,0.88,0.57,1.32,1.88,1.82c1.6,0.62,2.41,1.39,2.41,2.77
		c0,1.46-1.08,2.72-3.31,2.72c-0.91,0-1.91-0.27-2.41-0.6L347.86,39.44z"/>
	<path d="M354.15,42.62c0.99-1.39,1.76-3.21,1.76-5.73c0-2.51-0.76-4.3-1.76-5.69h0.95c0.9,1.15,1.83,2.94,1.83,5.7
		c0,2.75-0.94,4.52-1.83,5.72H354.15z"/>
</g>
<g>
	<path d="M410.44,14.81c0.62-0.13,1.5-0.2,2.34-0.2c1.3,0,2.14,0.24,2.73,0.77c0.48,0.42,0.74,1.06,0.74,1.79
		c0,1.25-0.79,2.07-1.78,2.41v0.04c0.73,0.25,1.16,0.92,1.39,1.91c0.31,1.32,0.53,2.23,0.73,2.59h-1.26
		c-0.15-0.27-0.36-1.08-0.63-2.26c-0.28-1.3-0.78-1.79-1.89-1.83h-1.15v4.09h-1.22V14.81z M411.66,19.11h1.25
		c1.3,0,2.13-0.71,2.13-1.79c0-1.22-0.88-1.75-2.17-1.77c-0.59,0-1.01,0.06-1.2,0.11V19.11z"/>
	<path d="M418.67,20.96c0.03,1.67,1.09,2.35,2.33,2.35c0.88,0,1.41-0.15,1.88-0.35l0.21,0.88c-0.43,0.2-1.18,0.42-2.25,0.42
		c-2.09,0-3.33-1.37-3.33-3.42s1.2-3.66,3.18-3.66c2.21,0,2.8,1.95,2.8,3.19c0,0.25-0.03,0.45-0.04,0.57H418.67z M422.28,20.08
		c0.01-0.78-0.32-2-1.71-2c-1.25,0-1.79,1.15-1.89,2H422.28z"/>
	<path d="M425,19.18c0-0.7-0.01-1.27-0.06-1.83h1.09l0.07,1.12h0.03c0.34-0.64,1.12-1.27,2.24-1.27c0.94,0,2.39,0.56,2.39,2.89v4.05
		h-1.23v-3.91c0-1.09-0.41-2-1.57-2c-0.81,0-1.44,0.57-1.65,1.26c-0.06,0.15-0.08,0.36-0.08,0.57v4.08H425V19.18z"/>
	<path d="M438.62,14.18v8.19c0,0.6,0.01,1.29,0.06,1.75h-1.11l-0.06-1.18h-0.03c-0.38,0.76-1.2,1.33-2.31,1.33
		c-1.64,0-2.9-1.39-2.9-3.45c-0.01-2.25,1.39-3.64,3.04-3.64c1.04,0,1.74,0.49,2.04,1.04h0.03v-4.05H438.62z M437.39,20.11
		c0-0.15-0.01-0.36-0.06-0.52c-0.18-0.78-0.85-1.43-1.78-1.43c-1.28,0-2.03,1.12-2.03,2.62c0,1.37,0.67,2.51,2,2.51
		c0.83,0,1.58-0.55,1.81-1.47c0.04-0.17,0.06-0.34,0.06-0.53V20.11z"/>
	<path d="M441.35,20.96c0.03,1.67,1.09,2.35,2.33,2.35c0.88,0,1.42-0.15,1.88-0.35l0.21,0.88c-0.43,0.2-1.18,0.42-2.25,0.42
		c-2.09,0-3.33-1.37-3.33-3.42s1.2-3.66,3.18-3.66c2.21,0,2.8,1.95,2.8,3.19c0,0.25-0.03,0.45-0.04,0.57H441.35z M444.96,20.08
		c0.01-0.78-0.32-2-1.71-2c-1.25,0-1.79,1.15-1.89,2H444.96z"/>
	<path d="M447.68,19.18c0-0.7-0.01-1.27-0.06-1.83h1.08l0.06,1.09h0.04c0.38-0.64,1.01-1.25,2.13-1.25c0.92,0,1.63,0.56,1.92,1.36
		h0.03c0.21-0.38,0.48-0.67,0.76-0.88c0.41-0.31,0.85-0.48,1.5-0.48c0.9,0,2.23,0.59,2.23,2.94v3.99h-1.21v-3.84
		c0-1.3-0.48-2.09-1.47-2.09c-0.7,0-1.25,0.52-1.46,1.12c-0.06,0.17-0.1,0.39-0.1,0.62v4.19h-1.21v-4.06c0-1.08-0.48-1.86-1.41-1.86
		c-0.77,0-1.33,0.62-1.53,1.23c-0.07,0.18-0.1,0.39-0.1,0.6v4.09h-1.21V19.18z"/>
	<path d="M460.04,20.96c0.03,1.67,1.09,2.35,2.33,2.35c0.88,0,1.42-0.15,1.88-0.35l0.21,0.88c-0.43,0.2-1.18,0.42-2.25,0.42
		c-2.09,0-3.33-1.37-3.33-3.42s1.21-3.66,3.18-3.66c2.21,0,2.8,1.95,2.8,3.19c0,0.25-0.03,0.45-0.04,0.57H460.04z M463.65,20.08
		c0.01-0.78-0.32-2-1.71-2c-1.25,0-1.79,1.15-1.89,2H463.65z"/>
	<path d="M466.37,19.18c0-0.7-0.01-1.27-0.06-1.83h1.09l0.07,1.12h0.03c0.34-0.64,1.12-1.27,2.24-1.27c0.94,0,2.4,0.56,2.4,2.89
		v4.05h-1.23v-3.91c0-1.09-0.41-2-1.57-2c-0.81,0-1.44,0.57-1.65,1.26c-0.06,0.15-0.08,0.36-0.08,0.57v4.08h-1.23V19.18z"/>
	<path d="M475.57,15.4v1.95h1.76v0.94h-1.76v3.66c0,0.84,0.24,1.32,0.92,1.32c0.32,0,0.56-0.04,0.71-0.08l0.06,0.92
		c-0.24,0.1-0.62,0.17-1.09,0.17c-0.57,0-1.04-0.18-1.33-0.52c-0.35-0.36-0.48-0.97-0.48-1.76v-3.7h-1.05v-0.94h1.05v-1.63
		L475.57,15.4z"/>
	<path d="M439.49,31.21c-1.02,1.37-1.77,3.19-1.77,5.73c0,2.49,0.77,4.29,1.77,5.69h-0.97c-0.88-1.16-1.83-2.96-1.83-5.69
		c0.01-2.76,0.95-4.55,1.83-5.73H439.49z"/>
	<path d="M440.83,31.61c0.62-0.13,1.5-0.2,2.34-0.2c1.3,0,2.14,0.24,2.73,0.77c0.48,0.42,0.74,1.06,0.74,1.79
		c0,1.25-0.78,2.07-1.78,2.41v0.04c0.73,0.25,1.16,0.92,1.39,1.9c0.31,1.32,0.53,2.23,0.73,2.59h-1.26
		c-0.15-0.27-0.36-1.08-0.63-2.25c-0.28-1.3-0.78-1.79-1.89-1.83h-1.15v4.09h-1.22V31.61z M442.05,35.91h1.25
		c1.3,0,2.13-0.71,2.13-1.79c0-1.22-0.88-1.75-2.17-1.77c-0.59,0-1.01,0.06-1.21,0.11V35.91z"/>
	<path d="M447.58,42.62c0.99-1.39,1.76-3.21,1.76-5.73c0-2.51-0.76-4.3-1.76-5.69h0.95c0.9,1.15,1.83,2.94,1.83,5.7
		c0,2.75-0.94,4.52-1.83,5.72H447.58z"/>
</g>
<g>
	<path d="M299.3,199.63l3.85,3.94l3.85-3.94l0.79,0.79l-3.87,3.94l3.87,3.94l-0.79,0.79l-3.85-3.94l-3.85,3.94l-0.79-0.79l3.85-3.94
		l-3.85-3.94L299.3,199.63z"/>
</g>
<g>
	<path d="M391.1,203.04v-1.08h9.29v1.08H391.1z M391.1,206.57v-1.08h9.29v1.08H391.1z"/>
</g>
</svg>
