<?xml version="1.0" encoding="UTF-8" standalone="no"?>
<!-- Created with Inkscape (http://www.inkscape.org/) -->

<svg
   version="1.1"
   id="svg1"
   width="488.67468"
   height="528.09869"
   viewBox="0 0 488.67468 528.09869"
   xmlns="http://www.w3.org/2000/svg"
   xmlns:svg="http://www.w3.org/2000/svg">
  <defs
     id="defs1">
    <clipPath
       clipPathUnits="userSpaceOnUse"
       id="clipPath5">
      <path
         d="M 0,396.074 H 366.506 V 0 H 0 Z"
         transform="translate(-294.72291,-372.99601)"
         id="path5" />
    </clipPath>
    <clipPath
       clipPathUnits="userSpaceOnUse"
       id="clipPath7">
      <path
         d="M 0,396.074 H 366.506 V 0 H 0 Z"
         transform="translate(-294.72291,-13.078303)"
         id="path7" />
    </clipPath>
    <clipPath
       clipPathUnits="userSpaceOnUse"
       id="clipPath9">
      <path
         d="M 0,396.074 H 366.506 V 0 H 0 Z"
         transform="translate(-172.51221,-372.99601)"
         id="path9" />
    </clipPath>
    <clipPath
       clipPathUnits="userSpaceOnUse"
       id="clipPath11">
      <path
         d="M 0,396.074 H 366.506 V 0 H 0 Z"
         transform="translate(-169.70361,-376.69911)"
         id="path11" />
    </clipPath>
    <clipPath
       clipPathUnits="userSpaceOnUse"
       id="clipPath13">
      <path
         d="M 0,396.074 H 366.506 V 0 H 0 Z"
         transform="translate(-172.95771,-295.03211)"
         id="path13" />
    </clipPath>
    <clipPath
       clipPathUnits="userSpaceOnUse"
       id="clipPath15">
      <path
         d="M 0,396.074 H 366.506 V 0 H 0 Z"
         transform="translate(-175.76631,-291.32901)"
         id="path15" />
    </clipPath>
    <clipPath
       clipPathUnits="userSpaceOnUse"
       id="clipPath17">
      <path
         d="M 0,396.074 H 366.506 V 0 H 0 Z"
         transform="translate(-221.4217,-372.99601)"
         id="path17" />
    </clipPath>
    <clipPath
       clipPathUnits="userSpaceOnUse"
       id="clipPath19">
      <path
         d="M 0,396.074 H 366.506 V 0 H 0 Z"
         transform="translate(-294.72291,-372.99601)"
         id="path19" />
    </clipPath>
    <clipPath
       clipPathUnits="userSpaceOnUse"
       id="clipPath21">
      <path
         d="M 0,396.074 H 366.506 V 0 H 0 Z"
         transform="translate(-343.19761,-369.29281)"
         id="path21" />
    </clipPath>
    <clipPath
       clipPathUnits="userSpaceOnUse"
       id="clipPath23">
      <path
         d="M 0,396.074 H 366.506 V 0 H 0 Z"
         transform="translate(-196.26501,-94.2129)"
         id="path23" />
    </clipPath>
    <clipPath
       clipPathUnits="userSpaceOnUse"
       id="clipPath25">
      <path
         d="M 0,396.074 H 366.506 V 0 H 0 Z"
         transform="translate(-175.76631,-97.916002)"
         id="path25" />
    </clipPath>
    <clipPath
       clipPathUnits="userSpaceOnUse"
       id="clipPath27">
      <path
         d="M 0,396.074 H 366.506 V 0 H 0 Z"
         transform="translate(-272.06611,-94.2129)"
         id="path27" />
    </clipPath>
    <clipPath
       clipPathUnits="userSpaceOnUse"
       id="clipPath29">
      <path
         d="M 0,396.074 H 366.506 V 0 H 0 Z"
         transform="translate(-274.87471,-90.5097)"
         id="path29" />
    </clipPath>
    <clipPath
       clipPathUnits="userSpaceOnUse"
       id="clipPath31">
      <path
         d="M 0,396.074 H 366.506 V 0 H 0 Z"
         transform="translate(-263.59651,-13.078303)"
         id="path31" />
    </clipPath>
    <clipPath
       clipPathUnits="userSpaceOnUse"
       id="clipPath33">
      <path
         d="M 0,396.074 H 366.506 V 0 H 0 Z"
         transform="translate(-260.78791,-16.781503)"
         id="path33" />
    </clipPath>
    <clipPath
       clipPathUnits="userSpaceOnUse"
       id="clipPath35">
      <path
         d="M 0,396.074 H 366.506 V 0 H 0 Z"
         transform="translate(-294.72291,-13.078303)"
         id="path35" />
    </clipPath>
    <clipPath
       clipPathUnits="userSpaceOnUse"
       id="clipPath37">
      <path
         d="M 0,396.074 H 366.506 V 0 H 0 Z"
         transform="translate(-357.72771,-9.3752002)"
         id="path37" />
    </clipPath>
    <clipPath
       clipPathUnits="userSpaceOnUse"
       id="clipPath39">
      <path
         d="M 0,396.074 H 366.506 V 0 H 0 Z"
         transform="translate(-85.879502,-171.8514)"
         id="path39" />
    </clipPath>
    <clipPath
       clipPathUnits="userSpaceOnUse"
       id="clipPath41">
      <path
         d="M 0,396.074 H 366.506 V 0 H 0 Z"
         transform="translate(-82.1764,-117.0876)"
         id="path41" />
    </clipPath>
    <clipPath
       clipPathUnits="userSpaceOnUse"
       id="clipPath43">
      <path
         d="M 0,396.074 H 366.506 V 0 H 0 Z"
         transform="translate(-136.40961,-108.3092)"
         id="path43" />
    </clipPath>
    <clipPath
       clipPathUnits="userSpaceOnUse"
       id="clipPath45">
      <path
         d="M 0,396.074 H 366.506 V 0 H 0 Z"
         transform="translate(-140.11281,-163.0731)"
         id="path45" />
    </clipPath>
    <clipPath
       clipPathUnits="userSpaceOnUse"
       id="clipPath47">
      <path
         d="M 0,396.074 H 366.506 V 0 H 0 Z"
         transform="translate(-85.879502,-277.5684)"
         id="path47" />
    </clipPath>
    <clipPath
       clipPathUnits="userSpaceOnUse"
       id="clipPath49">
      <path
         d="M 0,396.074 H 366.506 V 0 H 0 Z"
         transform="translate(-82.1764,-274.7598)"
         id="path49" />
    </clipPath>
    <clipPath
       clipPathUnits="userSpaceOnUse"
       id="clipPath51">
      <path
         d="M 0,396.074 H 366.506 V 0 H 0 Z"
         transform="translate(-136.40961,-226.39941)"
         id="path51" />
    </clipPath>
    <clipPath
       clipPathUnits="userSpaceOnUse"
       id="clipPath53">
      <path
         d="M 0,396.074 H 366.506 V 0 H 0 Z"
         transform="translate(-140.11281,-229.20801)"
         id="path53" />
    </clipPath>
    <clipPath
       clipPathUnits="userSpaceOnUse"
       id="clipPath55">
      <path
         d="M 0,396.074 H 366.506 V 0 H 0 Z"
         transform="translate(-48.247101,-192.7791)"
         id="path55" />
    </clipPath>
    <clipPath
       clipPathUnits="userSpaceOnUse"
       id="clipPath57">
      <path
         d="M 0,396.074 H 366.506 V 0 H 0 Z"
         transform="translate(-45.438601,-196.4822)"
         id="path57" />
    </clipPath>
    <clipPath
       clipPathUnits="userSpaceOnUse"
       id="clipPath68">
      <path
         d="M 0,396.074 H 366.506 V 0 H 0 Z"
         transform="matrix(1,0,0,-1,-314.53081,380.53121)"
         id="path68" />
    </clipPath>
  </defs>
  <g
     id="layer-MC0">
    <path
       id="path1"
       d="M 166.988,80.55 H 53.133 v 224.458 h 113.855 z"
       style="fill:none;stroke:#231f20;stroke-width:1;stroke-linecap:butt;stroke-linejoin:miter;stroke-miterlimit:10;stroke-dasharray:none;stroke-opacity:1"
       transform="matrix(1.3333333,0,0,-1.3333333,0,528.09867)" />
    <path
       id="path2"
       d="m 266.096,67.321 h -69.831 v 53.783 h 69.831 z"
       style="fill:none;stroke:#231f20;stroke-width:1;stroke-linecap:butt;stroke-linejoin:miter;stroke-miterlimit:10;stroke-dasharray:none;stroke-opacity:1"
       transform="matrix(1.3333333,0,0,-1.3333333,0,528.09867)" />
    <path
       id="path3"
       d="m 221.422,351.526 h -42.94 v 42.94 h 42.94 z"
       style="fill:none;stroke:#231f20;stroke-width:1;stroke-linecap:butt;stroke-linejoin:miter;stroke-miterlimit:10;stroke-dasharray:none;stroke-opacity:1"
       transform="matrix(1.3333333,0,0,-1.3333333,0,528.09867)" />
    <path
       id="path4"
       d="m 0,0 c 0,-6.947 -5.632,-12.578 -12.578,-12.578 -6.947,0 -12.579,5.631 -12.579,12.578 0,6.947 5.632,12.578 12.579,12.578 C -5.632,12.578 0,6.947 0,0 Z"
       style="fill:none;stroke:#231f20;stroke-width:1;stroke-linecap:butt;stroke-linejoin:miter;stroke-miterlimit:10;stroke-dasharray:none;stroke-opacity:1"
       transform="matrix(1.3333333,0,0,-1.3333333,392.96387,30.770667)"
       clip-path="url(#clipPath5)" />
    <path
       id="path6"
       d="m 0,0 c 0,-6.947 -5.632,-12.578 -12.578,-12.578 -6.947,0 -12.579,5.631 -12.579,12.578 0,6.947 5.632,12.578 12.579,12.578 C -5.632,12.578 0,6.947 0,0 Z"
       style="fill:none;stroke:#231f20;stroke-width:1;stroke-linecap:butt;stroke-linejoin:miter;stroke-miterlimit:10;stroke-dasharray:none;stroke-opacity:1"
       transform="matrix(1.3333333,0,0,-1.3333333,392.96387,510.66093)"
       clip-path="url(#clipPath7)" />
    <path
       id="path8"
       d="M 0,0 H -62.452 V -67.988"
       style="fill:none;stroke:#231f20;stroke-width:1;stroke-linecap:butt;stroke-linejoin:miter;stroke-miterlimit:10;stroke-dasharray:none;stroke-opacity:1"
       transform="matrix(1.3333333,0,0,-1.3333333,230.01627,30.770667)"
       clip-path="url(#clipPath9)" />
    <path
       id="path10"
       d="M 0,0 1.573,-3.703 0,-7.406 8.778,-3.703 Z"
       style="fill:#231f20;fill-opacity:1;fill-rule:nonzero;stroke:none"
       transform="matrix(1.3333333,0,0,-1.3333333,226.27147,25.8332)"
       clip-path="url(#clipPath11)" />
    <path
       id="path12"
       d="M 0,0 H 109.187 V 65.386"
       style="fill:none;stroke:#231f20;stroke-width:1;stroke-linecap:butt;stroke-linejoin:miter;stroke-miterlimit:10;stroke-dasharray:none;stroke-opacity:1"
       transform="matrix(1.3333333,0,0,-1.3333333,230.61027,134.72253)"
       clip-path="url(#clipPath13)" />
    <path
       id="path14"
       d="M 0,0 -1.573,3.703 0,7.406 -8.778,3.703 Z"
       style="fill:#231f20;fill-opacity:1;fill-rule:nonzero;stroke:none"
       transform="matrix(1.3333333,0,0,-1.3333333,234.35507,139.66)"
       clip-path="url(#clipPath15)" />
    <path
       id="path16"
       d="M 0,0 H 48.145"
       style="fill:none;stroke:#231f20;stroke-width:1;stroke-linecap:butt;stroke-linejoin:miter;stroke-miterlimit:10;stroke-dasharray:none;stroke-opacity:1"
       transform="matrix(1.3333333,0,0,-1.3333333,295.22893,30.770667)"
       clip-path="url(#clipPath17)" />
    <path
       id="path18"
       d="M 0,0 H 51.283"
       style="fill:none;stroke:#231f20;stroke-width:1;stroke-linecap:butt;stroke-linejoin:miter;stroke-miterlimit:10;stroke-dasharray:none;stroke-opacity:1"
       transform="matrix(1.3333333,0,0,-1.3333333,392.96387,30.770667)"
       clip-path="url(#clipPath19)" />
    <path
       id="path20"
       d="M 0,0 1.573,3.703 0,7.406 8.778,3.703 Z"
       style="fill:#231f20;fill-opacity:1;fill-rule:nonzero;stroke:none"
       transform="matrix(1.3333333,0,0,-1.3333333,457.5968,35.708267)"
       clip-path="url(#clipPath21)" />
    <path
       id="path22"
       d="M 0,0 H -23.307"
       style="fill:none;stroke:#231f20;stroke-width:1;stroke-linecap:butt;stroke-linejoin:miter;stroke-miterlimit:10;stroke-dasharray:none;stroke-opacity:1"
       transform="matrix(1.3333333,0,0,-1.3333333,261.68667,402.48147)"
       clip-path="url(#clipPath23)" />
    <path
       id="path24"
       d="M 0,0 -1.573,-3.703 0,-7.406 -8.778,-3.703 Z"
       style="fill:#231f20;fill-opacity:1;fill-rule:nonzero;stroke:none"
       transform="matrix(1.3333333,0,0,-1.3333333,234.35507,397.544)"
       clip-path="url(#clipPath25)" />
    <path
       id="path26"
       d="M 0,0 H 10.078 V -68.556"
       style="fill:none;stroke:#231f20;stroke-width:1;stroke-linecap:butt;stroke-linejoin:miter;stroke-miterlimit:10;stroke-dasharray:none;stroke-opacity:1"
       transform="matrix(1.3333333,0,0,-1.3333333,362.7548,402.48147)"
       clip-path="url(#clipPath27)" />
    <path
       id="path28"
       d="M 0,0 -1.573,3.703 0,7.406 -8.778,3.703 Z"
       style="fill:#231f20;fill-opacity:1;fill-rule:nonzero;stroke:none"
       transform="matrix(1.3333333,0,0,-1.3333333,366.4996,407.41907)"
       clip-path="url(#clipPath29)" />
    <path
       id="path30"
       d="M 0,0 H -153.536 V 67.472"
       style="fill:none;stroke:#231f20;stroke-width:1;stroke-linecap:butt;stroke-linejoin:miter;stroke-miterlimit:10;stroke-dasharray:none;stroke-opacity:1"
       transform="matrix(1.3333333,0,0,-1.3333333,351.462,510.66093)"
       clip-path="url(#clipPath31)" />
    <path
       id="path32"
       d="M 0,0 1.573,-3.703 0,-7.406 8.778,-3.703 Z"
       style="fill:#231f20;fill-opacity:1;fill-rule:nonzero;stroke:none"
       transform="matrix(1.3333333,0,0,-1.3333333,347.7172,505.72333)"
       clip-path="url(#clipPath33)" />
    <path
       id="path34"
       d="M 0,0 H 65.813"
       style="fill:none;stroke:#231f20;stroke-width:1;stroke-linecap:butt;stroke-linejoin:miter;stroke-miterlimit:10;stroke-dasharray:none;stroke-opacity:1"
       transform="matrix(1.3333333,0,0,-1.3333333,392.96387,510.66093)"
       clip-path="url(#clipPath35)" />
    <path
       id="path36"
       d="M 0,0 1.573,3.703 0,7.406 8.778,3.703 Z"
       style="fill:#231f20;fill-opacity:1;fill-rule:nonzero;stroke:none"
       transform="matrix(1.3333333,0,0,-1.3333333,476.97027,515.5984)"
       clip-path="url(#clipPath37)" />
    <path
       id="path38"
       d="M 0,0 V -57.572"
       style="fill:none;stroke:#231f20;stroke-width:1;stroke-linecap:butt;stroke-linejoin:miter;stroke-miterlimit:10;stroke-dasharray:none;stroke-opacity:1"
       transform="matrix(1.3333333,0,0,-1.3333333,114.506,298.96347)"
       clip-path="url(#clipPath39)" />
    <path
       id="path40"
       d="M 0,0 3.703,-1.573 7.406,0 3.703,-8.778 Z"
       style="fill:#231f20;fill-opacity:1;fill-rule:nonzero;stroke:none"
       transform="matrix(1.3333333,0,0,-1.3333333,109.56853,371.98187)"
       clip-path="url(#clipPath41)" />
    <path
       id="path42"
       d="M 0,0 V 57.572"
       style="fill:none;stroke:#231f20;stroke-width:1;stroke-linecap:butt;stroke-linejoin:miter;stroke-miterlimit:10;stroke-dasharray:none;stroke-opacity:1"
       transform="matrix(1.3333333,0,0,-1.3333333,181.87947,383.6864)"
       clip-path="url(#clipPath43)" />
    <path
       id="path44"
       d="M 0,0 -3.703,1.573 -7.406,0 -3.703,8.778 Z"
       style="fill:#231f20;fill-opacity:1;fill-rule:nonzero;stroke:none"
       transform="matrix(1.3333333,0,0,-1.3333333,186.81707,310.66787)"
       clip-path="url(#clipPath45)" />
    <path
       id="path46"
       d="M 0,0 V -57.139"
       style="fill:none;stroke:#231f20;stroke-width:1;stroke-linecap:butt;stroke-linejoin:miter;stroke-miterlimit:10;stroke-dasharray:none;stroke-opacity:1"
       transform="matrix(1.3333333,0,0,-1.3333333,114.506,158.00747)"
       clip-path="url(#clipPath47)" />
    <path
       id="path48"
       d="M 0,0 3.703,1.573 7.406,0 3.703,8.778 Z"
       style="fill:#231f20;fill-opacity:1;fill-rule:nonzero;stroke:none"
       transform="matrix(1.3333333,0,0,-1.3333333,109.56853,161.75227)"
       clip-path="url(#clipPath49)" />
    <path
       id="path50"
       d="M 0,0 V 57.139"
       style="fill:none;stroke:#231f20;stroke-width:1;stroke-linecap:butt;stroke-linejoin:miter;stroke-miterlimit:10;stroke-dasharray:none;stroke-opacity:1"
       transform="matrix(1.3333333,0,0,-1.3333333,181.87947,226.2328)"
       clip-path="url(#clipPath51)" />
    <path
       id="path52"
       d="M 0,0 -3.703,-1.573 -7.406,0 -3.703,-8.778 Z"
       style="fill:#231f20;fill-opacity:1;fill-rule:nonzero;stroke:none"
       transform="matrix(1.3333333,0,0,-1.3333333,186.81707,222.488)"
       clip-path="url(#clipPath53)" />
    <path
       id="path54"
       d="M 0,0 H -48.247"
       style="fill:none;stroke:#231f20;stroke-width:1;stroke-linecap:butt;stroke-linejoin:miter;stroke-miterlimit:10;stroke-dasharray:none;stroke-opacity:1"
       transform="matrix(1.3333333,0,0,-1.3333333,64.329467,271.05987)"
       clip-path="url(#clipPath55)" />
    <path
       id="path56"
       d="M 0,0 1.573,-3.703 0,-7.406 8.778,-3.703 Z"
       style="fill:#231f20;fill-opacity:1;fill-rule:nonzero;stroke:none"
       transform="matrix(1.3333333,0,0,-1.3333333,60.5848,266.1224)"
       clip-path="url(#clipPath57)" />
    <text
       id="text57"
       xml:space="preserve"
       transform="matrix(1.3333333,0,0,1.3333333,7.8066667,248.36173)"><tspan
         style="font-variant:normal;font-weight:normal;font-stretch:normal;font-size:18px;font-family:'MS Reference Sans Serif';writing-mode:lr-tb;fill:#231f20;fill-opacity:1;fill-rule:nonzero;stroke:none"
         x="0"
         y="0"
         id="tspan57">F</tspan></text>
    <text
       id="text58"
       xml:space="preserve"
       transform="matrix(1.3333333,0,0,1.3333333,88.626933,204.268)"><tspan
         style="font-variant:normal;font-weight:normal;font-stretch:normal;font-size:12px;font-family:'MS Reference Sans Serif';writing-mode:lr-tb;fill:#231f20;fill-opacity:1;fill-rule:nonzero;stroke:none"
         x="0"
         y="0"
         id="tspan58">G</tspan></text>
    <text
       id="text59"
       xml:space="preserve"
       transform="matrix(1.3333333,0,0,1.3333333,101.0332,206.92933)"><tspan
         style="font-variant:normal;font-weight:normal;font-stretch:normal;font-size:6.996px;font-family:'MS Reference Sans Serif';writing-mode:lr-tb;fill:#231f20;fill-opacity:1;fill-rule:nonzero;stroke:none"
         x="0"
         y="0"
         id="tspan59">R</tspan></text>
    <text
       id="text60"
       xml:space="preserve"
       transform="matrix(1.3333333,0,0,1.3333333,156.55853,204.02573)"><tspan
         style="font-variant:normal;font-weight:normal;font-stretch:normal;font-size:12px;font-family:'MS Reference Sans Serif';writing-mode:lr-tb;fill:#231f20;fill-opacity:1;fill-rule:nonzero;stroke:none"
         x="0"
         y="0"
         id="tspan60">L</tspan></text>
    <text
       id="text61"
       xml:space="preserve"
       transform="matrix(1.3333333,0,0,1.3333333,165.4648,206.6872)"><tspan
         style="font-variant:normal;font-weight:normal;font-stretch:normal;font-size:6.996px;font-family:'MS Reference Sans Serif';writing-mode:lr-tb;fill:#231f20;fill-opacity:1;fill-rule:nonzero;stroke:none"
         x="0"
         y="0"
         id="tspan61">R</tspan></text>
    <text
       id="text62"
       xml:space="preserve"
       transform="matrix(1.3333333,0,0,1.3333333,89.5228,344.21067)"><tspan
         style="font-variant:normal;font-weight:normal;font-stretch:normal;font-size:12px;font-family:'MS Reference Sans Serif';writing-mode:lr-tb;fill:#231f20;fill-opacity:1;fill-rule:nonzero;stroke:none"
         x="0"
         y="0"
         id="tspan62">L</tspan></text>
    <text
       id="text63"
       xml:space="preserve"
       transform="matrix(1.3333333,0,0,1.3333333,98.429067,346.87213)"><tspan
         style="font-variant:normal;font-weight:normal;font-stretch:normal;font-size:6.996px;font-family:'MS Reference Sans Serif';writing-mode:lr-tb;fill:#231f20;fill-opacity:1;fill-rule:nonzero;stroke:none"
         x="0"
         y="0"
         id="tspan63">S</tspan></text>
    <text
       id="text64"
       xml:space="preserve"
       transform="matrix(1.3333333,0,0,1.3333333,156.24093,345.0948)"><tspan
         style="font-variant:normal;font-weight:normal;font-stretch:normal;font-size:12px;font-family:'MS Reference Sans Serif';writing-mode:lr-tb;fill:#231f20;fill-opacity:1;fill-rule:nonzero;stroke:none"
         x="0"
         y="0"
         id="tspan64">G</tspan></text>
    <text
       id="text65"
       xml:space="preserve"
       transform="matrix(1.3333333,0,0,1.3333333,168.6472,347.75627)"><tspan
         style="font-variant:normal;font-weight:normal;font-stretch:normal;font-size:6.996px;font-family:'MS Reference Sans Serif';writing-mode:lr-tb;fill:#231f20;fill-opacity:1;fill-rule:nonzero;stroke:none"
         x="0"
         y="0"
         id="tspan65">S</tspan></text>
    <text
       id="text66"
       xml:space="preserve"
       transform="matrix(1.3333333,0,0,1.3333333,299.4212,117.11813)"><tspan
         style="font-variant:normal;font-weight:normal;font-stretch:normal;font-size:18px;font-family:'MS Reference Sans Serif';writing-mode:lr-tb;fill:#231f20;fill-opacity:1;fill-rule:nonzero;stroke:none"
         x="0"
         y="0"
         id="tspan66">R</tspan><tspan
         style="font-variant:normal;font-weight:normal;font-stretch:normal;font-size:18px;font-family:'MS Reference Sans Serif';writing-mode:lr-tb;fill:#231f20;fill-opacity:1;fill-rule:nonzero;stroke:none"
         x="-31.5"
         y="-58.967999"
         id="tspan67">C</tspan></text>
    <text
       id="text67"
       xml:space="preserve"
       transform="matrix(1.3333333,0,0,1.3333333,419.3744,20.723733)"
       clip-path="url(#clipPath68)"><tspan
         style="font-variant:normal;font-weight:normal;font-stretch:normal;font-size:18px;font-family:'MS Reference Sans Serif';writing-mode:lr-tb;fill:#231f20;fill-opacity:1;fill-rule:nonzero;stroke:none"
         x="0"
         y="0"
         id="tspan68">D</tspan></text>
    <text
       id="text68"
       xml:space="preserve"
       transform="matrix(1.3333333,0,0,1.3333333,299.4212,411.07267)"><tspan
         style="font-variant:normal;font-weight:normal;font-stretch:normal;font-size:18px;font-family:'MS Reference Sans Serif';writing-mode:lr-tb;fill:#231f20;fill-opacity:1;fill-rule:nonzero;stroke:none"
         x="0"
         y="0"
         id="tspan69">K</tspan><tspan
         style="font-variant:normal;font-weight:normal;font-stretch:normal;font-size:18px;font-family:'MS Reference Sans Serif';writing-mode:lr-tb;fill:#231f20;fill-opacity:1;fill-rule:nonzero;stroke:none"
         x="-41.400002"
         y="60.875999"
         id="tspan70">B</tspan></text>
  </g>
</svg>
