<?xml version="1.0" encoding="UTF-8" standalone="no"?>
<!-- Created with Inkscape (http://www.inkscape.org/) -->

<svg
   version="1.1"
   id="svg1"
   width="303.50134"
   height="191.62666"
   viewBox="0 0 303.50134 191.62666"
   sodipodi:docname="Oliewaterscheider.pdf"
   xmlns:inkscape="http://www.inkscape.org/namespaces/inkscape"
   xmlns:sodipodi="http://sodipodi.sourceforge.net/DTD/sodipodi-0.dtd"
   xmlns="http://www.w3.org/2000/svg"
   xmlns:svg="http://www.w3.org/2000/svg">
  <defs
     id="defs1">
    <linearGradient
       x1="0"
       y1="0"
       x2="1"
       y2="0"
       gradientUnits="userSpaceOnUse"
       gradientTransform="matrix(0,-47.919506,-47.919506,0,113.24807,83.594589)"
       spreadMethod="pad"
       id="linearGradient3">
      <stop
         style="stop-opacity:1;stop-color:#fbe683"
         offset="0"
         id="stop1" />
      <stop
         style="stop-opacity:1;stop-color:#fbe683"
         offset="0.79908746"
         id="stop2" />
      <stop
         style="stop-opacity:1;stop-color:#e2eef9"
         offset="1"
         id="stop3" />
    </linearGradient>
    <clipPath
       clipPathUnits="userSpaceOnUse"
       id="clipPath5">
      <path
         d="M 0,143.72 H 227.626 V 0 H 0 Z"
         transform="translate(-138.3391,-1.0601975)"
         id="path5" />
    </clipPath>
    <clipPath
       clipPathUnits="userSpaceOnUse"
       id="clipPath7">
      <path
         d="M 0,143.72 H 227.626 V 0 H 0 Z"
         transform="translate(-59.277802,-142.7201)"
         id="path7" />
    </clipPath>
    <clipPath
       clipPathUnits="userSpaceOnUse"
       id="clipPath9">
      <path
         d="M 0,143.72 H 227.626 V 0 H 0 Z"
         transform="translate(-59.188801,-142.7802)"
         id="path9" />
    </clipPath>
    <clipPath
       clipPathUnits="userSpaceOnUse"
       id="clipPath11">
      <path
         d="M 0,143.72 H 227.626 V 0 H 0 Z"
         transform="translate(-138.28791,-33.220101)"
         id="path11" />
    </clipPath>
    <clipPath
       clipPathUnits="userSpaceOnUse"
       id="clipPath13">
      <path
         d="M 0,143.72 H 227.626 V 0 H 0 Z"
         transform="translate(-163.25781,-118.7802)"
         id="path13" />
    </clipPath>
    <clipPath
       clipPathUnits="userSpaceOnUse"
       id="clipPath15">
      <path
         d="M 0,143.72 H 227.626 V 0 H 0 Z"
         transform="translate(-166.25811,-108.8423)"
         id="path15" />
    </clipPath>
    <clipPath
       clipPathUnits="userSpaceOnUse"
       id="clipPath17">
      <path
         d="M 0,143.72 H 227.626 V 0 H 0 Z"
         transform="translate(-183.98601,-46.060101)"
         id="path17" />
    </clipPath>
    <clipPath
       clipPathUnits="userSpaceOnUse"
       id="clipPath19">
      <path
         d="M 0,143.72 H 227.626 V 0 H 0 Z"
         transform="translate(-163.9777,-41.832201)"
         id="path19" />
    </clipPath>
    <clipPath
       clipPathUnits="userSpaceOnUse"
       id="clipPath21">
      <path
         d="M 0,143.72 H 227.626 V 0 H 0 Z"
         transform="translate(-163.25781,-46.060101)"
         id="path21" />
    </clipPath>
    <clipPath
       clipPathUnits="userSpaceOnUse"
       id="clipPath23">
      <path
         d="M 0,143.72 H 227.626 V 0 H 0 Z"
         transform="translate(-13.257801,-100.4202)"
         id="path23" />
    </clipPath>
    <clipPath
       clipPathUnits="userSpaceOnUse"
       id="clipPath25">
      <path
         d="M 0,143.72 H 227.626 V 0 H 0 Z"
         transform="translate(-16.258101,-90.482302)"
         id="path25" />
    </clipPath>
    <clipPath
       clipPathUnits="userSpaceOnUse"
       id="clipPath27">
      <path
         d="M 0,143.72 H 227.626 V 0 H 0 Z"
         transform="translate(-119.93781,-33.220101)"
         id="path27" />
    </clipPath>
    <clipPath
       clipPathUnits="userSpaceOnUse"
       id="clipPath29">
      <path
         d="M 0,143.72 H 227.626 V 0 H 0 Z"
         transform="translate(-154.189,-16.7279)"
         id="path29" />
    </clipPath>
    <clipPath
       clipPathUnits="userSpaceOnUse"
       id="clipPath30">
      <path
         d="M 0,143.72 H 227.626 V 0 H 0 Z"
         transform="matrix(1,0,0,-1,-222.4282,11.628898)"
         id="path30" />
    </clipPath>
    <clipPath
       clipPathUnits="userSpaceOnUse"
       id="clipPath32">
      <path
         d="M 0,143.72 H 227.626 V 0 H 0 Z"
         transform="translate(-54.897802,-107.7401)"
         id="path32" />
    </clipPath>
    <clipPath
       clipPathUnits="userSpaceOnUse"
       id="clipPath34">
      <path
         d="M 0,143.72 H 227.626 V 0 H 0 Z"
         transform="translate(-56.898101,-37.227501)"
         id="path34" />
    </clipPath>
    <clipPath
       clipPathUnits="userSpaceOnUse"
       id="clipPath36">
      <path
         d="M 0,143.72 H 227.626 V 0 H 0 Z"
         transform="translate(-52.898002,-106.74)"
         id="path36" />
    </clipPath>
    <clipPath
       clipPathUnits="userSpaceOnUse"
       id="clipPath38">
      <path
         d="M 0,143.72 H 227.626 V 0 H 0 Z"
         transform="translate(-133.37781,-125.1401)"
         id="path38" />
    </clipPath>
    <clipPath
       clipPathUnits="userSpaceOnUse"
       id="clipPath40">
      <path
         d="M 0,143.72 H 227.626 V 0 H 0 Z"
         transform="translate(-135.3781,-37.265301)"
         id="path40" />
    </clipPath>
    <clipPath
       clipPathUnits="userSpaceOnUse"
       id="clipPath42">
      <path
         d="M 0,143.72 H 227.626 V 0 H 0 Z"
         transform="translate(-131.37801,-124.14)"
         id="path42" />
    </clipPath>
    <clipPath
       clipPathUnits="userSpaceOnUse"
       id="clipPath44">
      <path
         d="M 0,143.72 H 227.626 V 0 H 0 Z"
         transform="translate(-158.69781,-30.267103)"
         id="path44" />
    </clipPath>
    <clipPath
       clipPathUnits="userSpaceOnUse"
       id="clipPath46">
      <path
         d="M 0,143.72 H 227.626 V 0 H 0 Z"
         transform="translate(-34.917801,-0.91960252)"
         id="path46" />
    </clipPath>
    <clipPath
       clipPathUnits="userSpaceOnUse"
       id="clipPath48">
      <path
         d="M 0,143.72 H 227.626 V 0 H 0 Z"
         transform="translate(-34.917801,-1.0001)"
         id="path48" />
    </clipPath>
    <clipPath
       clipPathUnits="userSpaceOnUse"
       id="clipPath50">
      <path
         d="M 0,143.72 H 227.626 V 0 H 0 Z"
         transform="translate(-138.35781,-33.160198)"
         id="path50" />
    </clipPath>
    <clipPath
       clipPathUnits="userSpaceOnUse"
       id="clipPath52">
      <path
         d="M 0,143.72 H 227.626 V 0 H 0 Z"
         transform="translate(-138.35781,-120.2802)"
         id="path52" />
    </clipPath>
    <clipPath
       clipPathUnits="userSpaceOnUse"
       id="clipPath54">
      <path
         d="M 0,143.72 H 227.626 V 0 H 0 Z"
         transform="translate(-59.277802,-142.7201)"
         id="path54" />
    </clipPath>
    <clipPath
       clipPathUnits="userSpaceOnUse"
       id="clipPath56">
      <path
         d="M 0,143.72 H 227.626 V 0 H 0 Z"
         transform="translate(-138.35781,-142.7201)"
         id="path56" />
    </clipPath>
    <clipPath
       clipPathUnits="userSpaceOnUse"
       id="clipPath58">
      <path
         d="M 0,143.72 H 227.626 V 0 H 0 Z"
         transform="translate(-34.917801,-125.4401)"
         id="path58" />
    </clipPath>
    <clipPath
       clipPathUnits="userSpaceOnUse"
       id="clipPath60">
      <path
         d="M 0,143.72 H 227.626 V 0 H 0 Z"
         transform="translate(-34.925601,-125.4401)"
         id="path60" />
    </clipPath>
    <clipPath
       clipPathUnits="userSpaceOnUse"
       id="clipPath61">
      <path
         d="M 0,143.72 H 227.626 V 0 H 0 Z"
         transform="matrix(1,0,0,-1,0,74.821302)"
         id="path61" />
    </clipPath>
  </defs>
  <sodipodi:namedview
     id="namedview1"
     pagecolor="#ffffff"
     bordercolor="#000000"
     borderopacity="0.25"
     inkscape:showpageshadow="2"
     inkscape:pageopacity="0.0"
     inkscape:pagecheckerboard="0"
     inkscape:deskcolor="#d1d1d1">
    <inkscape:page
       x="0"
       y="0"
       inkscape:label="1"
       id="page1"
       width="303.50134"
       height="191.62666"
       margin="0"
       bleed="0" />
  </sodipodi:namedview>
  <g
     id="layer-MC0"
     inkscape:groupmode="layer"
     inkscape:label="Layer 1">
    <path
       id="path3"
       d="M 59.278,134.029 V 33.161 l 99.317,0.143 v 11.06 h -20.256 l 0.286,75.858 c 0,0 12.216,0.292 16.265,-0.073 v 0 c 4.41,-0.397 4.591,-5.863 4.591,-5.863 v 0 h 7.737 c 0,0 0.25,11.755 -11.48,13.717 v 0 c -4.287,0.716 -17.38,0.351 -17.38,0.351 v 0 5.675 z"
       transform="matrix(1.3333333,0,0,-1.3333333,0,191.62667)"
       style="fill:url(#linearGradient3);stroke:none" />
    <path
       id="path4"
       d="m 0,0 -103.614,0.027 0.081,100.592 c 0,0 -10.509,0.09 -14.007,-0.065 -4.234,-0.188 -4.485,-6.074 -4.485,-6.074 h -7.016 c 0,0 -1.594,8.683 8.202,13.107 2.499,1.129 17.306,0.765 17.306,0.765 l 0.062,9.174 h 24.328 L -79.061,32.16 0,32.244 Z"
       style="fill:#e2eef9;fill-opacity:1;fill-rule:nonzero;stroke:none"
       transform="matrix(1.3333333,0,0,-1.3333333,184.45213,190.21307)"
       clip-path="url(#clipPath5)" />
    <path
       id="path6"
       d="M 0,0 V -128.992"
       style="fill:none;stroke:#100f0d;stroke-width:2;stroke-linecap:butt;stroke-linejoin:miter;stroke-miterlimit:8;stroke-dasharray:none;stroke-opacity:1"
       transform="matrix(1.3333333,0,0,-1.3333333,79.037067,1.3332)"
       clip-path="url(#clipPath7)" />
    <path
       id="path8"
       d="m 0,0 h 79.15 v -14.622 h 15.34 c 7.477,0 13.539,-6.058 13.539,-13.532 v -0.34 h -7.737 v 0.34 c 0,3.203 -2.598,5.799 -5.802,5.799 H 79.15 v -76.061 h 20.257 v -11.06 H 79.15 v -29.244 -3 H -24.383 v 100.619 h -13.229 c -2.907,0 -5.263,-2.596 -5.263,-5.799 v -0.34 h -7.016 v 0.34 c 0,7.473 5.497,13.532 12.279,13.532 h 13.229 v 16.121 H 0 Z"
       style="fill:none;stroke:#100f0d;stroke-width:1;stroke-linecap:butt;stroke-linejoin:miter;stroke-miterlimit:8;stroke-dasharray:none;stroke-opacity:1"
       transform="matrix(1.3333333,0,0,-1.3333333,78.9184,1.2530667)"
       clip-path="url(#clipPath9)" />
    <text
       id="text9"
       xml:space="preserve"
       transform="matrix(1.3333333,0,0,1.3333333,112.6308,176.12147)"><tspan
         style="font-variant:normal;font-weight:normal;font-stretch:normal;font-size:11.04px;font-family:Calibri;writing-mode:lr-tb;fill:#100f0d;fill-opacity:1;fill-rule:nonzero;stroke:none"
         x="0 9.8366404 15.1248 18.83424 24.35424"
         y="0"
         sodipodi:role="line"
         id="tspan9">Water</tspan><tspan
         style="font-variant:normal;font-weight:normal;font-stretch:normal;font-size:11.04px;font-family:Calibri;writing-mode:lr-tb;fill:#100f0d;fill-opacity:1;fill-rule:nonzero;stroke:none"
         x="5.0894399 12.39792 14.92608 17.454241"
         y="-74.895363"
         sodipodi:role="line"
         id="tspan10">Olie</tspan></text>
    <path
       id="path10"
       d="M 0,0 H -88.19"
       style="fill:none;stroke:#100f0d;stroke-width:0.5;stroke-linecap:butt;stroke-linejoin:miter;stroke-miterlimit:8;stroke-dasharray:32767, 19050, 6350, 19050;stroke-dashoffset:0;stroke-opacity:1"
       transform="matrix(1.3333333,0,0,-1.3333333,184.38387,147.3332)"
       clip-path="url(#clipPath11)" />
    <path
       id="path12"
       d="M 0,0 V -10.938"
       style="fill:none;stroke:#100f0d;stroke-width:0.75;stroke-linecap:butt;stroke-linejoin:miter;stroke-miterlimit:8;stroke-dasharray:none;stroke-opacity:1"
       transform="matrix(1.3333333,0,0,-1.3333333,217.67707,33.253067)"
       clip-path="url(#clipPath13)" />
    <path
       id="path14"
       d="M 0,0 -3,-6 -6,0 Z"
       style="fill:#100f0d;fill-opacity:1;fill-rule:evenodd;stroke:none"
       transform="matrix(1.3333333,0,0,-1.3333333,221.67747,46.5036)"
       clip-path="url(#clipPath15)" />
    <text
       id="text15"
       xml:space="preserve"
       transform="matrix(1.3333333,0,0,1.3333333,206.65173,70.361067)"><tspan
         style="font-variant:normal;font-weight:normal;font-stretch:normal;font-size:11.04px;font-family:Calibri;writing-mode:lr-tb;fill:#100f0d;fill-opacity:1;fill-rule:nonzero;stroke:none"
         x="0 7.3084798 9.8366404 12.35376"
         y="0"
         sodipodi:role="line"
         id="tspan15">Olie</tspan><tspan
         style="font-variant:normal;font-weight:normal;font-stretch:normal;font-size:11.04px;font-family:Calibri;writing-mode:lr-tb;fill:#100f0d;fill-opacity:1;fill-rule:nonzero;stroke:none"
         x="7.6286402 14.93712 17.465281 19.982401 25.502399 27.909121 33.418079 35.824799 43.740479 49.028641 52.738079 58.25808"
         y="43.51968"
         sodipodi:role="line"
         id="tspan16">Olie + water</tspan></text>
    <path
       id="path16"
       d="M 0,0 H 0.746 V -7.228 H -21.008"
       style="fill:none;stroke:#100f0d;stroke-width:0.75;stroke-linecap:butt;stroke-linejoin:miter;stroke-miterlimit:8;stroke-dasharray:none;stroke-opacity:1"
       transform="matrix(1.3333333,0,0,-1.3333333,245.31467,130.2132)"
       clip-path="url(#clipPath17)" />
    <path
       id="path18"
       d="M 0,0 -6,-3 0,-6 Z"
       style="fill:#100f0d;fill-opacity:1;fill-rule:evenodd;stroke:none"
       transform="matrix(1.3333333,0,0,-1.3333333,218.63693,135.8504)"
       clip-path="url(#clipPath19)" />
    <path
       id="path20"
       d="M 0,0 H 52.253"
       style="fill:none;stroke:#100f0d;stroke-width:0.75;stroke-linecap:butt;stroke-linejoin:miter;stroke-miterlimit:8;stroke-dasharray:none;stroke-opacity:1"
       transform="matrix(1.3333333,0,0,-1.3333333,217.67707,130.2132)"
       clip-path="url(#clipPath21)" />
    <path
       id="path22"
       d="M 0,0 V -10.938"
       style="fill:none;stroke:#100f0d;stroke-width:0.75;stroke-linecap:butt;stroke-linejoin:miter;stroke-miterlimit:8;stroke-dasharray:none;stroke-opacity:1"
       transform="matrix(1.3333333,0,0,-1.3333333,17.677067,57.733067)"
       clip-path="url(#clipPath23)" />
    <path
       id="path24"
       d="M 0,0 -3,-6 -6,0 Z"
       style="fill:#100f0d;fill-opacity:1;fill-rule:evenodd;stroke:none"
       transform="matrix(1.3333333,0,0,-1.3333333,21.677467,70.9836)"
       clip-path="url(#clipPath25)" />
    <path
       id="path26"
       d="M 0,0 H 1.188 V -19.492 H 35.251"
       style="fill:none;stroke:#100f0d;stroke-width:0.75;stroke-linecap:butt;stroke-linejoin:miter;stroke-miterlimit:8;stroke-dasharray:none;stroke-opacity:1"
       transform="matrix(1.3333333,0,0,-1.3333333,159.91707,147.3332)"
       clip-path="url(#clipPath27)" />
    <path
       id="path28"
       d="M 0,0 6,-3 0,-6 Z"
       style="fill:#100f0d;fill-opacity:1;fill-rule:evenodd;stroke:none"
       transform="matrix(1.3333333,0,0,-1.3333333,205.58533,169.3228)"
       clip-path="url(#clipPath29)" />
    <text
       id="text29"
       xml:space="preserve"
       transform="matrix(1.3333333,0,0,1.3333333,220.0788,176.12147)"><tspan
         style="font-variant:normal;font-weight:normal;font-stretch:normal;font-size:11.04px;font-family:Calibri;writing-mode:lr-tb;fill:#100f0d;fill-opacity:1;fill-rule:nonzero;stroke:none"
         x="0 7.3084798 13.0824 16.79184 25.667999 31.188 36.950878 42.117599 44.281441 46.798561 52.08672"
         y="0"
         sodipodi:role="line"
         id="tspan29">Ontmeng laa</tspan></text>
    <text
       id="text30"
       xml:space="preserve"
       transform="matrix(1.3333333,0,0,1.3333333,296.57093,176.12147)"
       clip-path="url(#clipPath30)"><tspan
         style="font-variant:normal;font-weight:normal;font-stretch:normal;font-size:11.04px;font-family:Calibri;writing-mode:lr-tb;fill:#100f0d;fill-opacity:1;fill-rule:nonzero;stroke:none"
         x="0"
         y="0"
         id="tspan30">g</tspan></text>
    <path
       id="path31"
       d="M 0,0 V -71.512"
       style="fill:none;stroke:#100f0d;stroke-width:0.5;stroke-linecap:butt;stroke-linejoin:miter;stroke-miterlimit:8;stroke-dasharray:none;stroke-opacity:1"
       transform="matrix(1.3333333,0,0,-1.3333333,73.197067,47.9732)"
       clip-path="url(#clipPath32)" />
    <path
       id="path33"
       d="M 0,0 -2,-4 -4,0 Z"
       style="fill:#100f0d;fill-opacity:1;fill-rule:evenodd;stroke:none"
       transform="matrix(1.3333333,0,0,-1.3333333,75.864133,141.99)"
       clip-path="url(#clipPath34)" />
    <path
       id="path35"
       d="M 0,0 2,4 4,0 Z"
       style="fill:#100f0d;fill-opacity:1;fill-rule:evenodd;stroke:none"
       transform="matrix(1.3333333,0,0,-1.3333333,70.530667,49.306667)"
       clip-path="url(#clipPath36)" />
    <text
       id="text36"
       xml:space="preserve"
       transform="matrix(0,-1.3333333,1.3333333,0,68.0768,102.88373)"><tspan
         style="font-variant:normal;font-weight:normal;font-stretch:normal;font-size:11.04px;font-family:Calibri;writing-mode:lr-tb;fill:#100f0d;fill-opacity:1;fill-rule:nonzero;stroke:none"
         x="0"
         y="0"
         id="tspan36">h</tspan></text>
    <text
       id="text37"
       xml:space="preserve"
       transform="matrix(0,-1.3333333,1.3333333,0,71.608133,95.206667)"><tspan
         style="font-variant:normal;font-weight:normal;font-stretch:normal;font-size:7.32px;font-family:Calibri;writing-mode:lr-tb;fill:#100f0d;fill-opacity:1;fill-rule:nonzero;stroke:none"
         x="0"
         y="0"
         id="tspan37">2</tspan></text>
    <path
       id="path37"
       d="M 0,0 V -88.875"
       style="fill:none;stroke:#100f0d;stroke-width:0.5;stroke-linecap:butt;stroke-linejoin:miter;stroke-miterlimit:8;stroke-dasharray:none;stroke-opacity:1"
       transform="matrix(1.3333333,0,0,-1.3333333,177.83707,24.7732)"
       clip-path="url(#clipPath38)" />
    <path
       id="path39"
       d="M 0,0 -2,-4 -4,0 Z"
       style="fill:#100f0d;fill-opacity:1;fill-rule:evenodd;stroke:none"
       transform="matrix(1.3333333,0,0,-1.3333333,180.50413,141.9396)"
       clip-path="url(#clipPath40)" />
    <path
       id="path41"
       d="M 0,0 2,4 4,0 Z"
       style="fill:#100f0d;fill-opacity:1;fill-rule:evenodd;stroke:none"
       transform="matrix(1.3333333,0,0,-1.3333333,175.17067,26.106667)"
       clip-path="url(#clipPath42)" />
    <text
       id="text42"
       xml:space="preserve"
       transform="matrix(0,-1.3333333,1.3333333,0,172.63933,90.904667)"><tspan
         style="font-variant:normal;font-weight:normal;font-stretch:normal;font-size:11.04px;font-family:Calibri;writing-mode:lr-tb;fill:#100f0d;fill-opacity:1;fill-rule:nonzero;stroke:none"
         x="0"
         y="0"
         id="tspan42">h</tspan></text>
    <text
       id="text43"
       xml:space="preserve"
       transform="matrix(0,-1.3333333,1.3333333,0,176.18107,83.238)"><tspan
         style="font-variant:normal;font-weight:normal;font-stretch:normal;font-size:7.32px;font-family:Calibri;writing-mode:lr-tb;fill:#100f0d;fill-opacity:1;fill-rule:nonzero;stroke:none"
         x="0"
         y="0"
         id="tspan43">1</tspan></text>
    <path
       id="path43"
       d="M 0,0 V 17.113"
       style="fill:none;stroke:#100f0d;stroke-width:1.25;stroke-linecap:butt;stroke-linejoin:miter;stroke-miterlimit:8;stroke-dasharray:none;stroke-opacity:1"
       transform="matrix(1.3333333,0,0,-1.3333333,211.59707,151.27053)"
       clip-path="url(#clipPath44)" />
    <path
       id="path45"
       d="M 0,0 V 100.641"
       style="fill:none;stroke:#100f0d;stroke-width:2;stroke-linecap:butt;stroke-linejoin:bevel;stroke-miterlimit:10;stroke-dasharray:none;stroke-opacity:1"
       transform="matrix(1.3333333,0,0,-1.3333333,46.557067,190.40053)"
       clip-path="url(#clipPath46)" />
    <path
       id="path47"
       d="M 0,0 H 103.5"
       style="fill:none;stroke:#100f0d;stroke-width:2;stroke-linecap:round;stroke-linejoin:miter;stroke-miterlimit:8;stroke-dasharray:none;stroke-opacity:1"
       transform="matrix(1.3333333,0,0,-1.3333333,46.557067,190.2932)"
       clip-path="url(#clipPath48)" />
    <path
       id="path49"
       d="M 0,0 V -32.25"
       style="fill:none;stroke:#100f0d;stroke-width:2;stroke-linecap:butt;stroke-linejoin:miter;stroke-miterlimit:8;stroke-dasharray:none;stroke-opacity:1"
       transform="matrix(1.3333333,0,0,-1.3333333,184.47707,147.41307)"
       clip-path="url(#clipPath50)" />
    <path
       id="path51"
       d="M 0,0 V -76.078"
       style="fill:none;stroke:#100f0d;stroke-width:2;stroke-linecap:butt;stroke-linejoin:miter;stroke-miterlimit:8;stroke-dasharray:none;stroke-opacity:1"
       transform="matrix(1.3333333,0,0,-1.3333333,184.47707,31.253067)"
       clip-path="url(#clipPath52)" />
    <path
       id="path53"
       d="M 0,0 H 79.125"
       style="fill:none;stroke:#100f0d;stroke-width:2;stroke-linecap:round;stroke-linejoin:miter;stroke-miterlimit:8;stroke-dasharray:none;stroke-opacity:1"
       transform="matrix(1.3333333,0,0,-1.3333333,79.037067,1.3332)"
       clip-path="url(#clipPath54)" />
    <path
       id="path55"
       d="M 0,0 V -14.625"
       style="fill:none;stroke:#100f0d;stroke-width:2;stroke-linecap:butt;stroke-linejoin:miter;stroke-miterlimit:8;stroke-dasharray:none;stroke-opacity:1"
       transform="matrix(1.3333333,0,0,-1.3333333,184.47707,1.3332)"
       clip-path="url(#clipPath56)" />
    <path
       id="path57"
       d="M 0,0 H 24.375"
       style="fill:none;stroke:#100f0d;stroke-width:2;stroke-linecap:round;stroke-linejoin:miter;stroke-miterlimit:8;stroke-dasharray:none;stroke-opacity:1"
       transform="matrix(1.3333333,0,0,-1.3333333,46.557067,24.3732)"
       clip-path="url(#clipPath58)" />
    <path
       id="path59"
       d="M 0,0 -0.128,-15.206"
       style="fill:none;stroke:#100f0d;stroke-width:2;stroke-linecap:round;stroke-linejoin:miter;stroke-miterlimit:8;stroke-dasharray:none;stroke-opacity:1"
       transform="matrix(1.3333333,0,0,-1.3333333,46.567467,24.3732)"
       clip-path="url(#clipPath60)" />
    <text
       id="text60"
       xml:space="preserve"
       transform="matrix(1.3333333,0,0,1.3333333,0,91.864933)"
       clip-path="url(#clipPath61)"><tspan
         style="font-variant:normal;font-weight:normal;font-stretch:normal;font-size:11.04px;font-family:Calibri;writing-mode:lr-tb;fill:#100f0d;fill-opacity:1;fill-rule:nonzero;stroke:none"
         x="0 9.8255997 15.11376 18.81216 24.31008"
         y="0"
         sodipodi:role="line"
         id="tspan60">Water</tspan></text>
  </g>
</svg>
