<?xml version="1.0" encoding="UTF-8" standalone="no"?>
<!-- Created with Inkscape (http://www.inkscape.org/) -->

<svg
   version="1.1"
   id="svg1"
   width="161.94667"
   height="258.39999"
   viewBox="0 0 161.94667 258.39999"
   sodipodi:docname="tegenstroomextractiefenol.pdf"
   xmlns:inkscape="http://www.inkscape.org/namespaces/inkscape"
   xmlns:sodipodi="http://sodipodi.sourceforge.net/DTD/sodipodi-0.dtd"
   xmlns="http://www.w3.org/2000/svg"
   xmlns:svg="http://www.w3.org/2000/svg">
  <defs
     id="defs1">
    <clipPath
       clipPathUnits="userSpaceOnUse"
       id="clipPath3">
      <path
         d="M 0,193.8 H 121.46 V 0 H 0 Z"
         transform="translate(-99.480002,-146.6401)"
         id="path3" />
    </clipPath>
    <clipPath
       clipPathUnits="userSpaceOnUse"
       id="clipPath5">
      <path
         d="M 0,0 H 121.44 V 193.8 H 0 Z"
         id="path5" />
    </clipPath>
    <clipPath
       clipPathUnits="userSpaceOnUse"
       id="clipPath7">
      <path
         d="M 0,0 H 121.44 V 193.8 H 0 Z"
         id="path7" />
    </clipPath>
    <clipPath
       clipPathUnits="userSpaceOnUse"
       id="clipPath9">
      <path
         d="M 0,0 H 121.44 V 193.8 H 0 Z"
         transform="translate(-3.3600001,-36.870001)"
         id="path9" />
    </clipPath>
    <clipPath
       clipPathUnits="userSpaceOnUse"
       id="clipPath11">
      <path
         d="M 0,0 H 121.44 V 193.8 H 0 Z"
         transform="translate(-42.120001,-50.940099)"
         id="path11" />
    </clipPath>
    <clipPath
       clipPathUnits="userSpaceOnUse"
       id="clipPath13">
      <path
         d="M 0,0 H 121.44 V 193.8 H 0 Z"
         transform="translate(-66.960002,-54.840099)"
         id="path13" />
    </clipPath>
    <clipPath
       clipPathUnits="userSpaceOnUse"
       id="clipPath15">
      <path
         d="M 0,0 H 121.44 V 193.8 H 0 Z"
         transform="translate(-79.440002,-76.860002)"
         id="path15" />
    </clipPath>
    <clipPath
       clipPathUnits="userSpaceOnUse"
       id="clipPath17">
      <path
         d="M 0,0 H 121.44 V 193.8 H 0 Z"
         transform="translate(-50.160001,-86.9401)"
         id="path17" />
    </clipPath>
    <clipPath
       clipPathUnits="userSpaceOnUse"
       id="clipPath19">
      <path
         d="M 0,0 H 121.44 V 193.8 H 0 Z"
         transform="translate(-99.480002,-97.620002)"
         id="path19" />
    </clipPath>
    <clipPath
       clipPathUnits="userSpaceOnUse"
       id="clipPath21">
      <path
         d="M 0,0 H 121.44 V 193.8 H 0 Z"
         transform="translate(-46.080001,-110.4601)"
         id="path21" />
    </clipPath>
    <clipPath
       clipPathUnits="userSpaceOnUse"
       id="clipPath23">
      <path
         d="M 0,0 H 121.44 V 193.8 H 0 Z"
         transform="translate(-71.400002,-105.0601)"
         id="path23" />
    </clipPath>
    <clipPath
       clipPathUnits="userSpaceOnUse"
       id="clipPath25">
      <path
         d="M 0,0 H 121.44 V 193.8 H 0 Z"
         transform="translate(-91.320002,-127.74)"
         id="path25" />
    </clipPath>
    <clipPath
       clipPathUnits="userSpaceOnUse"
       id="clipPath27">
      <path
         d="M 0,0 H 121.44 V 193.8 H 0 Z"
         transform="translate(-56.160001,-131.8801)"
         id="path27" />
    </clipPath>
    <clipPath
       clipPathUnits="userSpaceOnUse"
       id="clipPath29">
      <path
         d="M 0,0 H 121.44 V 193.8 H 0 Z"
         transform="translate(-37.680001,-67.080099)"
         id="path29" />
    </clipPath>
    <clipPath
       clipPathUnits="userSpaceOnUse"
       id="clipPath31">
      <path
         d="M 0,0 H 121.44 V 193.8 H 0 Z"
         transform="translate(-76.830002,-185.88)"
         id="path31" />
    </clipPath>
    <clipPath
       clipPathUnits="userSpaceOnUse"
       id="clipPath33">
      <path
         d="M 0,0 H 121.44 V 193.8 H 0 Z"
         transform="translate(-37.680001,-157.5601)"
         id="path33" />
    </clipPath>
    <clipPath
       clipPathUnits="userSpaceOnUse"
       id="clipPath35">
      <path
         d="M 0,0 H 121.44 V 193.8 H 0 Z"
         transform="translate(-73.200002,-34.320098)"
         id="path35" />
    </clipPath>
    <clipPath
       clipPathUnits="userSpaceOnUse"
       id="clipPath42">
      <path
         d="M 0,0 H 121.44 V 193.8 H 0 Z"
         transform="translate(-90.2209,-105.12)"
         id="path42" />
    </clipPath>
    <clipPath
       clipPathUnits="userSpaceOnUse"
       id="clipPath44">
      <path
         d="M 0,0 H 121.44 V 193.8 H 0 Z"
         transform="translate(-81.959905,-107.1202)"
         id="path44" />
    </clipPath>
    <clipPath
       clipPathUnits="userSpaceOnUse"
       id="clipPath46">
      <path
         d="M 0,0 H 121.44 V 193.8 H 0 Z"
         transform="translate(-98.3809,-76.560099)"
         id="path46" />
    </clipPath>
    <clipPath
       clipPathUnits="userSpaceOnUse"
       id="clipPath48">
      <path
         d="M 0,0 H 121.44 V 193.8 H 0 Z"
         transform="translate(-90.119905,-78.560304)"
         id="path48" />
    </clipPath>
  </defs>
  <sodipodi:namedview
     id="namedview1"
     pagecolor="#ffffff"
     bordercolor="#000000"
     borderopacity="0.25"
     inkscape:showpageshadow="2"
     inkscape:pageopacity="0.0"
     inkscape:pagecheckerboard="0"
     inkscape:deskcolor="#d1d1d1">
    <inkscape:page
       x="0"
       y="0"
       inkscape:label="1"
       id="page1"
       width="161.94667"
       height="258.39999"
       margin="0"
       bleed="0" />
  </sodipodi:namedview>
  <g
     id="layer-MC0"
     inkscape:groupmode="layer"
     inkscape:label="Layer 1">
    <path
       id="path1"
       d="m 29.04,148.8 h 91.92 V 24.12 H 29.04 Z"
       style="fill:#e2eef9;fill-opacity:1;fill-rule:evenodd;stroke:none"
       transform="matrix(1.3333333,0,0,-1.3333333,0,258.4)" />
    <path
       id="path2"
       d="M 0,0 C 0,2.187 1.8,3.96 4.02,3.96 6.24,3.96 8.04,2.187 8.04,0 8.04,-2.187 6.24,-3.96 4.02,-3.96 1.8,-3.96 0,-2.187 0,0"
       style="fill:#fbe682;fill-opacity:1;fill-rule:evenodd;stroke:#dab834;stroke-width:1;stroke-linecap:butt;stroke-linejoin:miter;stroke-miterlimit:8;stroke-dasharray:none;stroke-opacity:1"
       transform="matrix(1.3333333,0,0,-1.3333333,132.64,62.879867)"
       clip-path="url(#clipPath3)" />
    <path
       id="path4"
       d="m 29.04,170.4 h 91.92 V 146.52 H 29.04 Z"
       style="fill:#fbe682;fill-opacity:1;fill-rule:evenodd;stroke:none"
       transform="matrix(1.3333333,0,0,-1.3333333,0,258.4)"
       clip-path="url(#clipPath5)" />
    <path
       id="path6"
       d="m 29.04,170.4 h 91.92 V 24.48 H 29.04 Z"
       style="fill:none;stroke:#100f0d;stroke-width:1;stroke-linecap:butt;stroke-linejoin:miter;stroke-miterlimit:8;stroke-dasharray:none;stroke-opacity:1"
       transform="matrix(1.3333333,0,0,-1.3333333,0,258.4)"
       clip-path="url(#clipPath7)" />
    <path
       id="path8"
       d="m 0,0 h 35.22 v 1.77 l 3.54,-3.54 -3.54,-3.54 v 1.77 L 0,-3.54 Z"
       style="fill:#fbe682;fill-opacity:1;fill-rule:evenodd;stroke:#b88c1c;stroke-width:0.5;stroke-linecap:butt;stroke-linejoin:miter;stroke-miterlimit:8;stroke-dasharray:none;stroke-opacity:1"
       transform="matrix(1.3333333,0,0,-1.3333333,4.48,209.24)"
       clip-path="url(#clipPath9)" />
    <path
       id="path10"
       d="M 0,0 C 0,2.154 1.8,3.9 4.02,3.9 6.24,3.9 8.04,2.154 8.04,0 8.04,-2.154 6.24,-3.9 4.02,-3.9 1.8,-3.9 0,-2.154 0,0"
       style="fill:#fbe682;fill-opacity:1;fill-rule:evenodd;stroke:#dab834;stroke-width:1;stroke-linecap:butt;stroke-linejoin:miter;stroke-miterlimit:8;stroke-dasharray:none;stroke-opacity:1"
       transform="matrix(1.3333333,0,0,-1.3333333,56.16,190.47987)"
       clip-path="url(#clipPath11)" />
    <path
       id="path12"
       d="M 0,0 C 0,2.187 1.8,3.96 4.02,3.96 6.24,3.96 8.04,2.187 8.04,0 8.04,-2.187 6.24,-3.96 4.02,-3.96 1.8,-3.96 0,-2.187 0,0"
       style="fill:#fbe682;fill-opacity:1;fill-rule:evenodd;stroke:#dab834;stroke-width:1;stroke-linecap:butt;stroke-linejoin:miter;stroke-miterlimit:8;stroke-dasharray:none;stroke-opacity:1"
       transform="matrix(1.3333333,0,0,-1.3333333,89.28,185.27987)"
       clip-path="url(#clipPath13)" />
    <path
       id="path14"
       d="M 0,0 C 0,2.154 1.827,3.9 4.08,3.9 6.333,3.9 8.16,2.154 8.16,0 8.16,-2.154 6.333,-3.9 4.08,-3.9 1.827,-3.9 0,-2.154 0,0"
       style="fill:#fbe682;fill-opacity:1;fill-rule:evenodd;stroke:#dab834;stroke-width:1;stroke-linecap:butt;stroke-linejoin:miter;stroke-miterlimit:8;stroke-dasharray:none;stroke-opacity:1"
       transform="matrix(1.3333333,0,0,-1.3333333,105.92,155.92)"
       clip-path="url(#clipPath15)" />
    <path
       id="path16"
       d="M 0,0 C 0,2.154 1.8,3.9 4.02,3.9 6.24,3.9 8.04,2.154 8.04,0 8.04,-2.154 6.24,-3.9 4.02,-3.9 1.8,-3.9 0,-2.154 0,0"
       style="fill:#fbe682;fill-opacity:1;fill-rule:evenodd;stroke:#dab834;stroke-width:1;stroke-linecap:butt;stroke-linejoin:miter;stroke-miterlimit:8;stroke-dasharray:none;stroke-opacity:1"
       transform="matrix(1.3333333,0,0,-1.3333333,66.88,142.47987)"
       clip-path="url(#clipPath17)" />
    <path
       id="path18"
       d="M 0,0 C 0,2.154 1.8,3.9 4.02,3.9 6.24,3.9 8.04,2.154 8.04,0 8.04,-2.154 6.24,-3.9 4.02,-3.9 1.8,-3.9 0,-2.154 0,0"
       style="fill:#fbe682;fill-opacity:1;fill-rule:evenodd;stroke:#dab834;stroke-width:1;stroke-linecap:butt;stroke-linejoin:miter;stroke-miterlimit:8;stroke-dasharray:none;stroke-opacity:1"
       transform="matrix(1.3333333,0,0,-1.3333333,132.64,128.24)"
       clip-path="url(#clipPath19)" />
    <path
       id="path20"
       d="M 0,0 C 0,2.154 1.827,3.9 4.08,3.9 6.333,3.9 8.16,2.154 8.16,0 8.16,-2.154 6.333,-3.9 4.08,-3.9 1.827,-3.9 0,-2.154 0,0"
       style="fill:#fbe682;fill-opacity:1;fill-rule:evenodd;stroke:#dab834;stroke-width:1;stroke-linecap:butt;stroke-linejoin:miter;stroke-miterlimit:8;stroke-dasharray:none;stroke-opacity:1"
       transform="matrix(1.3333333,0,0,-1.3333333,61.44,111.11987)"
       clip-path="url(#clipPath21)" />
    <path
       id="path22"
       d="M 0,0 C 0,2.154 1.8,3.9 4.02,3.9 6.24,3.9 8.04,2.154 8.04,0 8.04,-2.154 6.24,-3.9 4.02,-3.9 1.8,-3.9 0,-2.154 0,0"
       style="fill:#fbe682;fill-opacity:1;fill-rule:evenodd;stroke:#dab834;stroke-width:1;stroke-linecap:butt;stroke-linejoin:miter;stroke-miterlimit:8;stroke-dasharray:none;stroke-opacity:1"
       transform="matrix(1.3333333,0,0,-1.3333333,95.2,118.31987)"
       clip-path="url(#clipPath23)" />
    <path
       id="path24"
       d="M 0,0 C 0,2.154 1.827,3.9 4.08,3.9 6.333,3.9 8.16,2.154 8.16,0 8.16,-2.154 6.333,-3.9 4.08,-3.9 1.827,-3.9 0,-2.154 0,0"
       style="fill:#fbe682;fill-opacity:1;fill-rule:evenodd;stroke:#dab834;stroke-width:1;stroke-linecap:butt;stroke-linejoin:miter;stroke-miterlimit:8;stroke-dasharray:none;stroke-opacity:1"
       transform="matrix(1.3333333,0,0,-1.3333333,121.76,88.08)"
       clip-path="url(#clipPath25)" />
    <path
       id="path26"
       d="M 0,0 C 0,2.187 1.8,3.96 4.02,3.96 6.24,3.96 8.04,2.187 8.04,0 8.04,-2.187 6.24,-3.96 4.02,-3.96 1.8,-3.96 0,-2.187 0,0"
       style="fill:#fbe682;fill-opacity:1;fill-rule:evenodd;stroke:#dab834;stroke-width:1;stroke-linecap:butt;stroke-linejoin:miter;stroke-miterlimit:8;stroke-dasharray:none;stroke-opacity:1"
       transform="matrix(1.3333333,0,0,-1.3333333,74.88,82.559867)"
       clip-path="url(#clipPath27)" />
    <path
       id="path28"
       d="M 0,0 C 0,2.187 1.8,3.96 4.02,3.96 6.24,3.96 8.04,2.187 8.04,0 8.04,-2.187 6.24,-3.96 4.02,-3.96 1.8,-3.96 0,-2.187 0,0"
       style="fill:#fbe682;fill-opacity:1;fill-rule:evenodd;stroke:#dab834;stroke-width:1;stroke-linecap:butt;stroke-linejoin:miter;stroke-miterlimit:8;stroke-dasharray:none;stroke-opacity:1"
       transform="matrix(1.3333333,0,0,-1.3333333,50.24,168.95987)"
       clip-path="url(#clipPath29)" />
    <path
       id="path30"
       d="m 0,0 v -39.66 h 1.77 l -3.54,-3.54 -3.54,3.54 h 1.77 l 0,39.66 z"
       style="fill:#e2eef9;fill-opacity:1;fill-rule:evenodd;stroke:#3e71bc;stroke-width:0.5;stroke-linecap:butt;stroke-linejoin:miter;stroke-miterlimit:8;stroke-dasharray:none;stroke-opacity:1"
       transform="matrix(1.3333333,0,0,-1.3333333,102.44,10.56)"
       clip-path="url(#clipPath31)" />
    <path
       id="path32"
       d="m 0,0 h -30.72 v -1.8 l -3.6,3.6 3.6,3.6 V 3.6 L 0,3.6 Z"
       style="fill:#fbe682;fill-opacity:1;fill-rule:evenodd;stroke:#b88c1c;stroke-width:0.5;stroke-linecap:butt;stroke-linejoin:miter;stroke-miterlimit:8;stroke-dasharray:none;stroke-opacity:1"
       transform="matrix(1.3333333,0,0,-1.3333333,50.24,48.319867)"
       clip-path="url(#clipPath33)" />
    <path
       id="path34"
       d="m 0,0 h 3.592 v -24.744 h 36.616 v 1.792 l 3.592,-3.584 -3.592,-3.584 v 1.792 l -40.031,0.189 z"
       style="fill:#e2eef9;fill-opacity:1;fill-rule:evenodd;stroke:#3e71bc;stroke-width:0.5;stroke-linecap:butt;stroke-linejoin:miter;stroke-miterlimit:8;stroke-dasharray:none;stroke-opacity:1"
       transform="matrix(1.3333333,0,0,-1.3333333,97.6,212.63987)"
       clip-path="url(#clipPath35)" />
    <text
       id="text35"
       xml:space="preserve"
       transform="matrix(1.3333333,0,0,1.3333333,123.29813,242.14613)"><tspan
         style="font-variant:normal;font-weight:normal;font-stretch:normal;font-size:14.04px;font-family:Calibri;writing-mode:lr-tb;fill:#100f0d;fill-opacity:1;fill-rule:nonzero;stroke:none"
         x="0"
         y="0"
         id="tspan35">R</tspan><tspan
         style="font-variant:normal;font-weight:normal;font-stretch:normal;font-size:14.04px;font-family:Calibri;writing-mode:lr-tb;fill:#100f0d;fill-opacity:1;fill-rule:nonzero;stroke:none"
         x="-9.4348803"
         y="-164.32416"
         id="tspan36">F</tspan><tspan
         style="font-variant:normal;font-weight:normal;font-stretch:normal;font-size:14.04px;font-family:Calibri;writing-mode:lr-tb;fill:#100f0d;fill-opacity:1;fill-rule:nonzero;stroke:none"
         x="-84.015358"
         y="-155.52107"
         id="tspan37">E</tspan><tspan
         style="font-variant:normal;font-weight:normal;font-stretch:normal;font-size:14.04px;font-family:Calibri;writing-mode:lr-tb;fill:#100f0d;fill-opacity:1;fill-rule:nonzero;stroke:none"
         x="-84.015358"
         y="-29.652479"
         id="tspan38">S</tspan></text>
    <text
       id="text38"
       xml:space="preserve"
       transform="matrix(1.3333333,0,0,1.3333333,73.4544,103.26067)"><tspan
         style="font-variant:normal;font-weight:normal;font-stretch:normal;font-size:12px;font-family:Calibri;writing-mode:lr-tb;fill:#100f0d;fill-opacity:1;fill-rule:nonzero;stroke:none"
         x="0"
         y="0"
         id="tspan39">2</tspan><tspan
         style="font-variant:normal;font-weight:normal;font-stretch:normal;font-size:12px;font-family:Calibri;writing-mode:lr-tb;fill:#100f0d;fill-opacity:1;fill-rule:nonzero;stroke:none"
         x="47.243999"
         y="72.792"
         id="tspan40">1</tspan><tspan
         style="font-variant:normal;font-weight:normal;font-stretch:normal;font-size:12px;font-family:Calibri;writing-mode:lr-tb;fill:#100f0d;fill-opacity:1;fill-rule:nonzero;stroke:none"
         x="37.523998"
         y="15.216"
         id="tspan41">3</tspan></text>
    <path
       id="path41"
       d="M 0,0 H -9.261"
       style="fill:none;stroke:#100f0d;stroke-width:1.25;stroke-linecap:butt;stroke-linejoin:miter;stroke-miterlimit:8;stroke-dasharray:none;stroke-opacity:1"
       transform="matrix(1.3333333,0,0,-1.3333333,120.29453,118.24)"
       clip-path="url(#clipPath42)" />
    <path
       id="path43"
       d="M 0,0 -6,-2 0,-4 Z"
       style="fill:#100f0d;fill-opacity:1;fill-rule:evenodd;stroke:none"
       transform="matrix(1.3333333,0,0,-1.3333333,109.27987,115.57307)"
       clip-path="url(#clipPath44)" />
    <text
       id="text44"
       xml:space="preserve"
       transform="matrix(1.3333333,0,0,1.3333333,134.26693,161.63573)"><tspan
         style="font-variant:normal;font-weight:normal;font-stretch:normal;font-size:12px;font-family:Calibri;writing-mode:lr-tb;fill:#100f0d;fill-opacity:1;fill-rule:nonzero;stroke:none"
         x="0"
         y="0"
         id="tspan44">3</tspan></text>
    <path
       id="path45"
       d="M 0,0 H -9.261"
       style="fill:none;stroke:#100f0d;stroke-width:1.25;stroke-linecap:butt;stroke-linejoin:miter;stroke-miterlimit:8;stroke-dasharray:none;stroke-opacity:1"
       transform="matrix(1.3333333,0,0,-1.3333333,131.17453,156.31987)"
       clip-path="url(#clipPath46)" />
    <path
       id="path47"
       d="M 0,0 -6,-2 0,-4 Z"
       style="fill:#100f0d;fill-opacity:1;fill-rule:evenodd;stroke:none"
       transform="matrix(1.3333333,0,0,-1.3333333,120.15987,153.65293)"
       clip-path="url(#clipPath48)" />
  </g>
</svg>
