<?xml version="1.0" encoding="UTF-8"?>
<svg id="Layer_1" data-name="Layer 1" xmlns="http://www.w3.org/2000/svg" viewBox="0 0 288.14 66.89">
  <defs>
    <style>
      .cls-1 {
        fill: none;
      }

      .cls-1, .cls-2 {
        stroke: #231f20;
        stroke-miterlimit: 10;
      }

      .cls-2 {
        fill: #fff;
      }

      .cls-3 {
        fill: #231f20;
        stroke-width: 0px;
      }
    </style>
  </defs>
  <rect class="cls-2" x="63.32" y="1.55" width="90.38" height="62.6"/>
  <g>
    <line class="cls-1" x1="54.46" y1="15.34" y2="15.34"/>
    <polygon class="cls-3" points="52.48 12.43 63.32 15.34 52.48 18.24 52.48 12.43"/>
  </g>
  <g>
    <line class="cls-1" x1="54.46" y1="53.42" y2="53.42"/>
    <polygon class="cls-3" points="52.48 50.52 63.32 53.42 52.48 56.33 52.48 50.52"/>
  </g>
  <g>
    <line class="cls-1" x1="153.19" y1="32.85" x2="205.1" y2="32.85"/>
    <polygon class="cls-3" points="203.12 35.75 213.96 32.85 203.12 29.94 203.12 35.75"/>
  </g>
  <g>
    <path class="cls-3" d="M7.99,1.79h.96v3.58h.03c.2-.29.4-.55.58-.79l2.27-2.78h1.19l-2.68,3.15,2.89,4.27h-1.13l-2.44-3.64-.7.81v2.83h-.96V1.79Z"/>
    <path class="cls-3" d="M18.73,6.5c0,1.97-1.36,2.83-2.65,2.83-1.44,0-2.55-1.06-2.55-2.74,0-1.78,1.17-2.83,2.64-2.83s2.56,1.11,2.56,2.74ZM14.51,6.56c0,1.17.67,2.05,1.62,2.05s1.62-.87,1.62-2.07c0-.9-.45-2.05-1.6-2.05s-1.64,1.06-1.64,2.07Z"/>
    <path class="cls-3" d="M24.77,6.5c0,1.97-1.36,2.83-2.65,2.83-1.44,0-2.55-1.06-2.55-2.74,0-1.78,1.17-2.83,2.64-2.83s2.56,1.11,2.56,2.74ZM20.55,6.56c0,1.17.67,2.05,1.62,2.05s1.62-.87,1.62-2.07c0-.9-.45-2.05-1.6-2.05s-1.64,1.06-1.64,2.07Z"/>
    <path class="cls-3" d="M25.99,1.4h.97v7.81h-.97V1.4Z"/>
    <path class="cls-3" d="M28.46,8.22c.29.19.79.39,1.28.39.7,0,1.03-.35,1.03-.79,0-.46-.27-.72-.99-.98-.96-.34-1.41-.87-1.41-1.51,0-.86.69-1.56,1.84-1.56.54,0,1.01.15,1.31.33l-.24.7c-.21-.13-.59-.31-1.09-.31-.57,0-.89.33-.89.73,0,.44.32.64,1.01.9.92.35,1.4.81,1.4,1.61,0,.94-.73,1.6-1.99,1.6-.58,0-1.12-.14-1.5-.36l.24-.74Z"/>
    <path class="cls-3" d="M34.11,2.35v1.53h1.39v.74h-1.39v2.87c0,.66.19,1.03.73,1.03.25,0,.44-.03.56-.07l.04.73c-.19.08-.48.13-.86.13-.45,0-.81-.14-1.05-.41-.27-.29-.37-.76-.37-1.39v-2.9h-.82v-.74h.82v-1.28l.95-.25Z"/>
    <path class="cls-3" d="M41.34,6.5c0,1.97-1.36,2.83-2.65,2.83-1.44,0-2.55-1.06-2.55-2.74,0-1.78,1.17-2.83,2.64-2.83s2.56,1.11,2.56,2.74ZM37.11,6.56c0,1.17.67,2.05,1.62,2.05s1.62-.87,1.62-2.07c0-.9-.45-2.05-1.6-2.05s-1.64,1.06-1.64,2.07Z"/>
    <path class="cls-3" d="M42.66,9.21v-4.59h-.75v-.74h.75v-.25c0-.75.17-1.43.62-1.86.36-.35.85-.5,1.3-.5.34,0,.64.08.83.15l-.13.75c-.14-.07-.34-.12-.62-.12-.83,0-1.03.73-1.03,1.54v.29h1.29v.74h-1.29v4.59h-.96Z"/>
  </g>
  <g>
    <path class="cls-3" d="M9.75,20.81h-.02l-1.24.67-.19-.74,1.56-.84h.83v7.15h-.94v-6.25Z"/>
    <path class="cls-3" d="M18.04,23.41c0,2.43-.9,3.77-2.49,3.77-1.4,0-2.34-1.31-2.37-3.67,0-2.4,1.03-3.72,2.49-3.72s2.37,1.34,2.37,3.62ZM14.16,23.52c0,1.86.57,2.92,1.45,2.92.99,0,1.46-1.16,1.46-2.98s-.45-2.92-1.45-2.92c-.85,0-1.46,1.03-1.46,2.98Z"/>
    <path class="cls-3" d="M23.68,23.41c0,2.43-.9,3.77-2.49,3.77-1.4,0-2.34-1.31-2.37-3.67,0-2.4,1.03-3.72,2.49-3.72s2.37,1.34,2.37,3.62ZM19.8,23.52c0,1.86.57,2.92,1.45,2.92.99,0,1.46-1.16,1.46-2.98s-.45-2.92-1.45-2.92c-.85,0-1.46,1.03-1.46,2.98Z"/>
    <path class="cls-3" d="M28.17,24.18h.02c.13-.19.32-.42.47-.6l1.56-1.84h1.17l-2.06,2.19,2.34,3.14h-1.18l-1.84-2.55-.5.55v2h-.96v-7.81h.96v4.93Z"/>
    <path class="cls-3" d="M32.56,23.17c0-.55-.01-1-.04-1.44h.85l.04.86h.03c.3-.51.79-.98,1.67-.98.73,0,1.28.44,1.51,1.07h.02c.17-.3.37-.53.59-.69.32-.24.67-.37,1.18-.37.7,0,1.75.46,1.75,2.31v3.14h-.95v-3.01c0-1.02-.37-1.64-1.16-1.64-.55,0-.98.41-1.14.88-.04.13-.08.31-.08.48v3.29h-.95v-3.19c0-.85-.37-1.46-1.11-1.46-.6,0-1.04.48-1.2.97-.05.14-.08.31-.08.47v3.21h-.95v-3.88Z"/>
    <path class="cls-3" d="M46.55,24.35c0,1.97-1.36,2.83-2.65,2.83-1.44,0-2.55-1.06-2.55-2.74,0-1.78,1.17-2.83,2.64-2.83s2.56,1.11,2.56,2.74ZM42.33,24.41c0,1.17.67,2.05,1.62,2.05s1.62-.87,1.62-2.07c0-.9-.45-2.05-1.6-2.05s-1.64,1.06-1.64,2.07Z"/>
    <path class="cls-3" d="M47.77,19.25h.97v7.81h-.97v-7.81Z"/>
    <path class="cls-3" d="M57.91,26.82c-.35.18-1.06.35-1.96.35-2.09,0-3.66-1.32-3.66-3.75s1.57-3.89,3.87-3.89c.92,0,1.51.2,1.76.33l-.23.78c-.36-.18-.88-.31-1.5-.31-1.74,0-2.89,1.11-2.89,3.06,0,1.81,1.04,2.98,2.85,2.98.58,0,1.18-.12,1.56-.31l.2.76Z"/>
  </g>
  <g>
    <path class="cls-3" d="M7.98,38.88h.96v6.61h3.17v.8h-4.13v-7.42Z"/>
    <path class="cls-3" d="M17.43,44.84c0,.55.01,1.03.04,1.45h-.86l-.06-.87h-.02c-.25.43-.81.99-1.76.99-.84,0-1.84-.46-1.84-2.33v-3.11h.97v2.95c0,1.01.31,1.69,1.19,1.69.65,0,1.1-.45,1.28-.88.06-.14.09-.32.09-.5v-3.27h.97v3.87Z"/>
    <path class="cls-3" d="M22.84,46.09c-.25.13-.81.31-1.53.31-1.61,0-2.65-1.09-2.65-2.72s1.12-2.83,2.86-2.83c.57,0,1.08.14,1.34.27l-.22.75c-.23-.13-.59-.25-1.12-.25-1.22,0-1.88.9-1.88,2.01,0,1.23.79,1.99,1.85,1.99.55,0,.91-.14,1.19-.26l.17.73Z"/>
    <path class="cls-3" d="M23.97,38.48h.97v3.32h.02c.15-.27.4-.52.69-.68.29-.17.63-.27.99-.27.71,0,1.86.44,1.86,2.28v3.17h-.97v-3.06c0-.86-.32-1.58-1.23-1.58-.63,0-1.12.44-1.3.97-.06.13-.07.27-.07.46v3.21h-.97v-7.81Z"/>
    <path class="cls-3" d="M31.19,39.44v1.53h1.39v.74h-1.39v2.87c0,.66.19,1.03.73,1.03.25,0,.44-.03.56-.07l.04.73c-.19.08-.48.13-.86.13-.45,0-.81-.14-1.05-.41-.27-.29-.37-.76-.37-1.39v-2.9h-.82v-.74h.82v-1.28l.95-.25Z"/>
  </g>
  <g>
    <path class="cls-3" d="M7.99,56.73h.96v6.61h3.17v.8h-4.13v-7.42Z"/>
    <path class="cls-3" d="M16.43,61.26h.02c.13-.19.32-.42.47-.6l1.56-1.84h1.17l-2.06,2.19,2.34,3.14h-1.18l-1.84-2.55-.5.55v2h-.96v-7.81h.96v4.93Z"/>
    <path class="cls-3" d="M20.82,60.26c0-.55-.01-1-.04-1.44h.85l.04.86h.03c.3-.51.79-.98,1.67-.98.73,0,1.28.44,1.51,1.07h.02c.17-.3.37-.53.59-.69.32-.24.67-.37,1.18-.37.7,0,1.75.46,1.75,2.31v3.14h-.95v-3.01c0-1.02-.37-1.64-1.16-1.64-.55,0-.98.41-1.14.88-.04.13-.08.31-.08.48v3.29h-.95v-3.19c0-.85-.37-1.46-1.11-1.46-.6,0-1.04.48-1.2.97-.05.14-.08.31-.08.47v3.21h-.95v-3.88Z"/>
    <path class="cls-3" d="M34.81,61.44c0,1.97-1.36,2.83-2.65,2.83-1.44,0-2.55-1.06-2.55-2.74,0-1.78,1.17-2.83,2.64-2.83s2.56,1.11,2.56,2.74ZM30.59,61.49c0,1.17.67,2.05,1.62,2.05s1.62-.87,1.62-2.07c0-.9-.45-2.05-1.6-2.05s-1.64,1.06-1.64,2.07Z"/>
    <path class="cls-3" d="M36.03,56.33h.97v7.81h-.97v-7.81Z"/>
    <path class="cls-3" d="M46.18,63.9c-.35.18-1.06.35-1.96.35-2.09,0-3.66-1.32-3.66-3.75s1.57-3.89,3.87-3.89c.92,0,1.51.2,1.76.33l-.23.78c-.36-.18-.88-.31-1.5-.31-1.74,0-2.89,1.11-2.89,3.06,0,1.81,1.04,2.98,2.85,2.98.58,0,1.18-.12,1.56-.31l.2.76Z"/>
  </g>
  <g>
    <path class="cls-3" d="M163.26,19.64v4.39c0,1.66.74,2.37,1.73,2.37,1.1,0,1.8-.73,1.8-2.37v-4.39h.97v4.32c0,2.28-1.2,3.21-2.81,3.21-1.52,0-2.66-.87-2.66-3.17v-4.37h.97Z"/>
    <path class="cls-3" d="M172.68,24.18h.02c.13-.19.32-.42.47-.6l1.56-1.84h1.17l-2.06,2.19,2.34,3.14h-1.18l-1.84-2.55-.5.55v2h-.96v-7.81h.96v4.93Z"/>
    <path class="cls-3" d="M177.07,23.17c0-.55-.01-1-.04-1.44h.85l.04.86h.03c.3-.51.79-.98,1.67-.98.73,0,1.28.44,1.51,1.07h.02c.17-.3.37-.53.59-.69.32-.24.67-.37,1.18-.37.7,0,1.75.46,1.75,2.31v3.14h-.95v-3.01c0-1.02-.37-1.64-1.16-1.64-.55,0-.98.41-1.14.88-.04.13-.08.31-.08.48v3.29h-.95v-3.19c0-.85-.37-1.46-1.11-1.46-.61,0-1.04.48-1.2.97-.05.14-.08.31-.08.47v3.21h-.95v-3.88Z"/>
    <path class="cls-3" d="M191.06,24.35c0,1.97-1.36,2.83-2.65,2.83-1.44,0-2.55-1.06-2.55-2.74,0-1.78,1.17-2.83,2.64-2.83s2.56,1.11,2.56,2.74ZM186.83,24.41c0,1.17.67,2.05,1.62,2.05s1.62-.87,1.62-2.07c0-.9-.45-2.05-1.59-2.05s-1.64,1.06-1.64,2.07Z"/>
    <path class="cls-3" d="M192.28,19.25h.97v7.81h-.97v-7.81Z"/>
  </g>
  <g>
    <path class="cls-3" d="M79.06,36.27l-2.42-7.42h1.03l1.16,3.65c.32,1,.59,1.9.79,2.77h.02c.21-.86.52-1.79.85-2.76l1.25-3.66h1.02l-2.65,7.42h-1.06Z"/>
    <path class="cls-3" d="M83.71,33.79c.02,1.31.86,1.85,1.83,1.85.69,0,1.11-.12,1.47-.27l.17.69c-.34.15-.92.33-1.77.33-1.64,0-2.62-1.08-2.62-2.68s.95-2.87,2.5-2.87c1.74,0,2.2,1.53,2.2,2.51,0,.2-.02.35-.03.45h-3.74ZM86.55,33.09c.01-.62-.25-1.57-1.34-1.57-.98,0-1.41.9-1.49,1.57h2.83Z"/>
    <path class="cls-3" d="M88.68,32.61c0-.63-.01-1.17-.04-1.66h.85l.03,1.04h.04c.24-.71.83-1.17,1.47-1.17.11,0,.19.01.28.03v.91c-.1-.02-.2-.03-.33-.03-.68,0-1.17.52-1.3,1.24-.02.13-.04.29-.04.45v2.84h-.96v-3.66Z"/>
    <path class="cls-3" d="M92.28,36.27c.02-.36.04-.9.04-1.38v-6.44h.96v3.34h.02c.34-.59.96-.98,1.82-.98,1.32,0,2.26,1.1,2.24,2.72,0,1.9-1.2,2.85-2.39,2.85-.77,0-1.39-.3-1.78-1h-.03l-.04.88h-.84ZM93.28,34.14c0,.12.02.24.04.35.19.67.75,1.13,1.45,1.13,1.01,0,1.62-.83,1.62-2.05,0-1.07-.55-1.98-1.58-1.98-.66,0-1.28.45-1.47,1.19-.02.11-.06.24-.06.4v.96Z"/>
    <path class="cls-3" d="M98.58,32.61c0-.63-.01-1.17-.04-1.66h.85l.03,1.04h.04c.24-.71.83-1.17,1.47-1.17.11,0,.19.01.28.03v.91c-.1-.02-.2-.03-.33-.03-.68,0-1.17.52-1.3,1.24-.02.13-.04.29-.04.45v2.84h-.96v-3.66Z"/>
    <path class="cls-3" d="M105.08,36.27l-.08-.67h-.03c-.3.42-.87.79-1.63.79-1.08,0-1.63-.76-1.63-1.53,0-1.29,1.14-1.99,3.2-1.98v-.11c0-.44-.12-1.23-1.21-1.23-.5,0-1.01.15-1.39.4l-.22-.64c.44-.29,1.08-.47,1.75-.47,1.63,0,2.02,1.11,2.02,2.18v1.99c0,.46.02.91.09,1.28h-.88ZM104.93,33.55c-1.06-.02-2.26.17-2.26,1.2,0,.63.42.92.91.92.69,0,1.13-.44,1.29-.89.03-.1.05-.21.05-.31v-.92Z"/>
    <path class="cls-3" d="M107.43,32.39c0-.55-.01-1-.04-1.44h.86l.06.88h.02c.26-.51.88-1,1.76-1,.74,0,1.88.44,1.88,2.27v3.18h-.97v-3.07c0-.86-.32-1.57-1.23-1.57-.64,0-1.13.45-1.3.99-.04.12-.07.29-.07.45v3.2h-.97v-3.88Z"/>
    <path class="cls-3" d="M118.13,28.46v6.44c0,.47.01,1.01.04,1.38h-.87l-.04-.92h-.02c-.3.59-.95,1.05-1.82,1.05-1.29,0-2.28-1.09-2.28-2.71-.01-1.77,1.09-2.86,2.39-2.86.81,0,1.36.39,1.61.81h.02v-3.18h.97ZM117.16,33.11c0-.12-.01-.29-.04-.41-.14-.62-.67-1.12-1.4-1.12-1,0-1.6.88-1.6,2.06,0,1.08.53,1.97,1.57,1.97.65,0,1.24-.43,1.42-1.16.03-.13.04-.26.04-.42v-.92Z"/>
    <path class="cls-3" d="M120.82,29.45c.01.33-.23.59-.62.59-.34,0-.58-.26-.58-.59s.25-.61.6-.61.59.26.59.61ZM119.74,36.27v-5.32h.97v5.32h-.97Z"/>
    <path class="cls-3" d="M122.31,32.39c0-.55-.01-1-.04-1.44h.86l.06.88h.02c.26-.51.88-1,1.76-1,.74,0,1.88.44,1.88,2.27v3.18h-.97v-3.07c0-.86-.32-1.57-1.23-1.57-.64,0-1.13.45-1.3.99-.04.12-.07.29-.07.45v3.2h-.97v-3.88Z"/>
    <path class="cls-3" d="M133,30.95c-.02.38-.04.81-.04,1.46v3.09c0,1.22-.24,1.97-.76,2.43-.52.48-1.27.64-1.94.64s-1.34-.15-1.77-.44l.24-.74c.35.22.9.42,1.56.42.99,0,1.72-.52,1.72-1.86v-.59h-.02c-.3.5-.87.89-1.69.89-1.32,0-2.27-1.12-2.27-2.6,0-1.8,1.18-2.83,2.4-2.83.92,0,1.43.48,1.66.92h.02l.04-.8h.85ZM132,33.05c0-.17-.01-.31-.06-.44-.18-.56-.65-1.02-1.35-1.02-.92,0-1.58.78-1.58,2.01,0,1.04.53,1.91,1.57,1.91.59,0,1.13-.37,1.34-.99.06-.17.08-.35.08-.52v-.96Z"/>
  </g>
  <g>
    <path class="cls-3" d="M248.93,11.51h-.02l-1.24.67-.19-.74,1.56-.84h.83v7.15h-.93v-6.25Z"/>
    <path class="cls-3" d="M256.74,11.42h-2.73l-.28,1.84c.17-.02.32-.04.58-.04.55,0,1.1.12,1.54.38.56.32,1.02.94,1.02,1.84,0,1.4-1.11,2.44-2.66,2.44-.78,0-1.44-.22-1.78-.44l.24-.74c.3.18.88.4,1.53.4.91,0,1.69-.59,1.69-1.55-.01-.92-.63-1.58-2.06-1.58-.41,0-.73.04-.99.08l.46-3.43h3.42v.81Z"/>
    <path class="cls-3" d="M263.67,12.62c0,1.51-.79,2.26-1.72,2.26s-1.66-.72-1.67-2.16c0-1.43.78-2.23,1.73-2.23,1,0,1.66.77,1.66,2.13ZM261.05,12.69c-.02.91.32,1.61.92,1.61.64,0,.92-.68.92-1.63,0-.87-.25-1.6-.92-1.6-.61,0-.92.72-.92,1.62ZM261.89,17.88l4.2-7.39h.62l-4.2,7.39h-.62ZM268.32,15.58c0,1.51-.79,2.26-1.71,2.26s-1.66-.72-1.67-2.15c0-1.44.78-2.24,1.73-2.24,1,0,1.65.77,1.65,2.13ZM265.7,15.65c-.01.91.34,1.61.93,1.61.64,0,.92-.68.92-1.63,0-.87-.25-1.6-.92-1.6-.6,0-.93.71-.93,1.62Z"/>
    <path class="cls-3" d="M277.01,17.52c-.35.18-1.06.35-1.96.35-2.09,0-3.66-1.32-3.66-3.75s1.57-3.89,3.87-3.89c.92,0,1.51.2,1.76.33l-.23.78c-.36-.18-.88-.31-1.5-.31-1.74,0-2.89,1.11-2.89,3.06,0,1.81,1.04,2.98,2.85,2.98.58,0,1.18-.12,1.56-.31l.2.76Z"/>
    <path class="cls-3" d="M284.32,13.98c0,2.55-1.55,3.91-3.44,3.91s-3.33-1.52-3.33-3.76c0-2.35,1.46-3.89,3.44-3.89s3.33,1.55,3.33,3.75ZM278.56,14.1c0,1.58.86,3,2.37,3s2.38-1.4,2.38-3.08c0-1.47-.77-3.01-2.37-3.01s-2.38,1.46-2.38,3.09Z"/>
    <path class="cls-3" d="M284.85,18.97l.69-.65c.91-.83,1.39-1.34,1.39-1.9,0-.42-.26-.77-.84-.77-.38,0-.71.2-.92.34l-.23-.49c.3-.25.79-.46,1.34-.46,1.03,0,1.46.65,1.46,1.24,0,.83-.63,1.43-1.46,2.17l-.34.31v.02h1.88v.6h-2.97v-.41Z"/>
    <path class="cls-3" d="M256.59,24.49c-.2-.01-.45,0-.73.04-1.52.25-2.32,1.36-2.49,2.54h.03c.34-.45.93-.82,1.73-.82,1.27,0,2.16.91,2.16,2.31,0,1.31-.89,2.52-2.38,2.52s-2.53-1.19-2.53-3.05c0-1.41.51-2.52,1.21-3.22.59-.58,1.39-.95,2.29-1.06.29-.04.53-.06.7-.06v.79ZM256.32,28.62c0-1.02-.58-1.64-1.47-1.64-.58,0-1.12.36-1.39.88-.07.11-.11.25-.11.43.02,1.18.56,2.05,1.57,2.05.84,0,1.4-.69,1.4-1.72Z"/>
    <path class="cls-3" d="M263.71,25.82c0,1.51-.79,2.26-1.72,2.26s-1.66-.72-1.67-2.16c0-1.43.78-2.23,1.73-2.23,1,0,1.66.77,1.66,2.13ZM261.09,25.89c-.02.91.32,1.61.92,1.61.64,0,.92-.68.92-1.63,0-.87-.25-1.6-.92-1.6-.61,0-.92.72-.92,1.62ZM261.93,31.08l4.2-7.39h.62l-4.2,7.39h-.62ZM268.36,28.78c0,1.51-.79,2.26-1.71,2.26s-1.66-.72-1.67-2.15c0-1.44.78-2.24,1.73-2.24,1,0,1.65.77,1.65,2.13ZM265.75,28.85c-.01.91.34,1.61.94,1.61.64,0,.92-.68.92-1.63,0-.87-.25-1.6-.92-1.6-.61,0-.94.71-.94,1.62Z"/>
    <path class="cls-3" d="M277.05,30.72c-.35.18-1.06.35-1.96.35-2.09,0-3.66-1.32-3.66-3.75s1.57-3.89,3.87-3.89c.92,0,1.51.2,1.76.33l-.23.78c-.36-.18-.88-.31-1.5-.31-1.74,0-2.89,1.11-2.89,3.06,0,1.81,1.04,2.98,2.85,2.98.58,0,1.18-.12,1.56-.31l.2.76Z"/>
    <path class="cls-3" d="M284.36,27.18c0,2.55-1.55,3.91-3.44,3.91s-3.33-1.52-3.33-3.76c0-2.35,1.46-3.89,3.44-3.89s3.33,1.55,3.33,3.75ZM278.6,27.3c0,1.58.86,3,2.37,3s2.38-1.4,2.38-3.08c0-1.47-.77-3.01-2.37-3.01s-2.38,1.46-2.38,3.09Z"/>
    <path class="cls-3" d="M242.82,38.84l1.17,3.15c.12.35.25.77.34,1.09h.02c.1-.32.21-.73.34-1.11l1.06-3.12h1.02l-1.45,3.8c-.69,1.83-1.17,2.76-1.83,3.33-.47.42-.95.58-1.19.63l-.24-.81c.24-.08.56-.23.85-.47.26-.21.59-.58.81-1.08.04-.1.08-.18.08-.23s-.02-.13-.07-.25l-1.97-4.91h1.06Z"/>
    <path class="cls-3" d="M247.89,41.5v2.56c0,.97.43,1.38,1.01,1.38.64,0,1.05-.42,1.05-1.38v-2.56h.56v2.52c0,1.33-.7,1.87-1.63,1.87-.88,0-1.55-.51-1.55-1.85v-2.54h.56Z"/>
    <path class="cls-3" d="M250.93,46.61c.14-.38.31-1.06.38-1.53l.63-.06c-.15.54-.43,1.26-.61,1.56l-.4.04Z"/>
    <path class="cls-3" d="M252.64,45.82v-4.32h.61l1.38,2.19c.32.51.57.96.78,1.4h.01c-.05-.58-.06-1.11-.06-1.78v-1.81h.53v4.32h-.56l-1.37-2.19c-.3-.48-.59-.97-.81-1.44h-.02c.03.55.04,1.07.04,1.79v1.85h-.53Z"/>
    <path class="cls-3" d="M256.45,46.53l.4-.38c.53-.48.81-.78.81-1.11,0-.24-.15-.45-.49-.45-.22,0-.42.12-.54.2l-.13-.29c.17-.15.46-.27.78-.27.6,0,.85.38.85.72,0,.48-.37.83-.85,1.26l-.2.18h0s1.1.01,1.1.01v.35h-1.73v-.24Z"/>
    <path class="cls-3" d="M264.42,39.02c0,1.51-.79,2.26-1.72,2.26s-1.66-.72-1.67-2.16c0-1.43.78-2.23,1.73-2.23,1,0,1.66.77,1.66,2.13ZM261.8,39.09c-.02.91.32,1.61.92,1.61.64,0,.92-.68.92-1.63,0-.87-.25-1.6-.92-1.6-.61,0-.92.72-.92,1.62ZM262.64,44.28l4.2-7.39h.62l-4.2,7.39h-.62ZM269.07,41.98c0,1.51-.79,2.26-1.71,2.26s-1.66-.72-1.67-2.15c0-1.44.78-2.24,1.73-2.24,1,0,1.65.77,1.65,2.13ZM266.45,42.05c-.01.91.34,1.61.93,1.61.64,0,.92-.68.92-1.63,0-.87-.25-1.6-.92-1.6-.6,0-.93.71-.93,1.62Z"/>
    <path class="cls-3" d="M272.58,44.16v-7.42h1.04l2.38,3.75c.55.87.98,1.65,1.33,2.41h.02c-.09-1-.11-1.9-.11-3.06v-3.1h.9v7.42h-.97l-2.35-3.76c-.52-.83-1.01-1.67-1.39-2.48h-.03c.05.95.08,1.84.08,3.07v3.17h-.9Z"/>
    <path class="cls-3" d="M279.11,45.37l.69-.65c.91-.83,1.39-1.34,1.39-1.9,0-.42-.26-.77-.84-.77-.38,0-.71.2-.92.34l-.23-.49c.3-.25.79-.46,1.34-.46,1.03,0,1.46.65,1.46,1.24,0,.83-.63,1.43-1.46,2.17l-.34.31v.02h1.88v.6h-2.97v-.41Z"/>
    <path class="cls-3" d="M239.83,57.36v-.59l.76-.74c1.83-1.74,2.65-2.66,2.66-3.74,0-.73-.35-1.4-1.42-1.4-.65,0-1.19.33-1.52.6l-.31-.68c.5-.42,1.2-.73,2.02-.73,1.54,0,2.19,1.06,2.19,2.08,0,1.32-.96,2.39-2.46,3.84l-.57.53v.02h3.21v.8h-4.57Z"/>
    <path class="cls-3" d="M245.55,56.79c0-.41.27-.69.66-.69s.65.29.65.69-.25.69-.66.69c-.38,0-.65-.3-.65-.69Z"/>
    <path class="cls-3" d="M247.98,56.25c.27.18.91.45,1.58.45,1.24,0,1.63-.79,1.62-1.39-.01-1-.91-1.43-1.85-1.43h-.54v-.73h.54c.7,0,1.6-.36,1.6-1.21,0-.57-.36-1.08-1.25-1.08-.57,0-1.12.25-1.43.47l-.25-.7c.37-.27,1.1-.55,1.87-.55,1.41,0,2.05.84,2.05,1.71,0,.74-.44,1.36-1.32,1.68v.02c.88.18,1.6.84,1.6,1.84,0,1.14-.89,2.15-2.61,2.15-.8,0-1.51-.25-1.86-.48l.26-.75Z"/>
    <path class="cls-3" d="M258.04,50.21v.64l-3.11,6.51h-1l3.1-6.33v-.02h-3.5v-.8h4.51Z"/>
    <path class="cls-3" d="M264.59,52.22c0,1.51-.79,2.26-1.72,2.26s-1.66-.72-1.67-2.16c0-1.43.78-2.23,1.73-2.23,1,0,1.66.77,1.66,2.13ZM261.97,52.29c-.02.91.32,1.61.92,1.61.64,0,.92-.68.92-1.63,0-.87-.25-1.6-.92-1.6-.61,0-.92.72-.92,1.62ZM262.81,57.48l4.2-7.39h.62l-4.2,7.39h-.62ZM269.25,55.18c0,1.51-.79,2.26-1.71,2.26s-1.66-.72-1.67-2.15c0-1.44.78-2.24,1.73-2.24,1,0,1.65.77,1.65,2.13ZM266.63,55.25c-.01.91.34,1.61.93,1.61.64,0,.92-.68.92-1.63,0-.87-.25-1.6-.92-1.6-.6,0-.93.71-.93,1.62Z"/>
    <path class="cls-3" d="M279.09,53.58c0,2.55-1.55,3.91-3.44,3.91s-3.33-1.52-3.33-3.76c0-2.35,1.46-3.89,3.44-3.89s3.33,1.55,3.33,3.75ZM273.34,53.7c0,1.58.86,3,2.37,3s2.38-1.4,2.38-3.08c0-1.47-.77-3.01-2.37-3.01s-2.38,1.46-2.38,3.09Z"/>
    <path class="cls-3" d="M279.63,58.57l.69-.65c.91-.83,1.39-1.34,1.39-1.9,0-.42-.26-.77-.84-.77-.38,0-.71.2-.92.34l-.23-.49c.3-.25.79-.46,1.34-.46,1.03,0,1.46.65,1.46,1.24,0,.83-.63,1.43-1.46,2.17l-.34.31v.02h1.88v.6h-2.97v-.41Z"/>
  </g>
</svg>
