<?xml version="1.0" encoding="utf-8"?>
<!-- Generator: Adobe Illustrator 24.1.1, SVG Export Plug-In . SVG Version: 6.00 Build 0)  -->
<svg version="1.1" id="Layer_1" xmlns="http://www.w3.org/2000/svg" xmlns:xlink="http://www.w3.org/1999/xlink" x="0px" y="0px"
	 viewBox="0 0 454.47 82.72" style="enable-background:new 0 0 454.47 82.72;" xml:space="preserve">
<style type="text/css">
	.st0{fill:#FFFFFF;}
</style>
<g>
	<rect x="147.8" y="5.65" class="st0" width="116" height="72"/>
	<path d="M264.3,78.15h-117v-73h117V78.15z M148.3,77.15h115v-71h-115V77.15z"/>
</g>
<g>
	<path d="M173.93,33.85c0.92-0.19,2.25-0.29,3.51-0.29c1.95,0,3.21,0.36,4.09,1.15c0.71,0.63,1.11,1.6,1.11,2.69
		c0,1.87-1.18,3.11-2.67,3.61v0.06c1.09,0.38,1.74,1.39,2.08,2.86c0.46,1.97,0.8,3.34,1.09,3.88h-1.89
		c-0.23-0.4-0.55-1.62-0.94-3.38c-0.42-1.95-1.18-2.69-2.83-2.75h-1.72v6.13h-1.83V33.85z M175.75,40.29h1.87
		c1.95,0,3.19-1.07,3.19-2.69c0-1.83-1.32-2.62-3.25-2.65c-0.88,0-1.51,0.08-1.81,0.17V40.29z"/>
	<path d="M186.28,43.07c0.04,2.5,1.64,3.53,3.49,3.53c1.32,0,2.12-0.23,2.81-0.52l0.31,1.32c-0.65,0.29-1.76,0.63-3.38,0.63
		c-3.13,0-5-2.06-5-5.12s1.81-5.48,4.77-5.48c3.32,0,4.2,2.92,4.2,4.79c0,0.38-0.04,0.67-0.06,0.86H186.28z M191.69,41.74
		c0.02-1.18-0.48-3-2.56-3c-1.87,0-2.69,1.72-2.83,3H191.69z"/>
	<path d="M201.39,47.81l-0.15-1.28h-0.06c-0.57,0.8-1.66,1.51-3.11,1.51c-2.06,0-3.11-1.45-3.11-2.92c0-2.46,2.18-3.8,6.11-3.78
		v-0.21c0-0.84-0.23-2.35-2.31-2.35c-0.94,0-1.93,0.29-2.65,0.76l-0.42-1.22c0.84-0.55,2.06-0.9,3.34-0.9
		c3.11,0,3.86,2.12,3.86,4.16v3.8c0,0.88,0.04,1.74,0.17,2.44H201.39z M201.12,42.63c-2.02-0.04-4.3,0.31-4.3,2.29
		c0,1.2,0.8,1.76,1.74,1.76c1.32,0,2.16-0.84,2.46-1.7c0.06-0.19,0.1-0.4,0.1-0.59V42.63z"/>
	<path d="M213.13,47.43c-0.48,0.25-1.55,0.59-2.92,0.59c-3.07,0-5.06-2.08-5.06-5.19c0-3.13,2.14-5.4,5.46-5.4
		c1.09,0,2.06,0.27,2.56,0.52l-0.42,1.43c-0.44-0.25-1.13-0.48-2.14-0.48c-2.33,0-3.59,1.72-3.59,3.84c0,2.35,1.51,3.8,3.53,3.8
		c1.05,0,1.74-0.27,2.27-0.5L213.13,47.43z"/>
	<path d="M217.8,34.73v2.92h2.65v1.41h-2.65v5.48c0,1.26,0.36,1.97,1.39,1.97c0.48,0,0.84-0.06,1.07-0.13l0.08,1.39
		c-0.36,0.15-0.92,0.25-1.64,0.25c-0.86,0-1.55-0.27-1.99-0.78c-0.52-0.55-0.71-1.45-0.71-2.65v-5.54h-1.57v-1.41h1.57v-2.44
		L217.8,34.73z"/>
	<path d="M231.59,42.65c0,3.76-2.6,5.4-5.06,5.4c-2.75,0-4.87-2.02-4.87-5.23c0-3.4,2.23-5.4,5.04-5.4
		C229.62,37.42,231.59,39.54,231.59,42.65z M223.53,42.75c0,2.23,1.28,3.91,3.09,3.91c1.76,0,3.09-1.66,3.09-3.95
		c0-1.72-0.86-3.91-3.04-3.91S223.53,40.82,223.53,42.75z"/>
	<path d="M233.92,40.82c0-1.2-0.02-2.22-0.08-3.17h1.62l0.06,1.99h0.08c0.46-1.36,1.58-2.22,2.81-2.22c0.21,0,0.36,0.02,0.53,0.06
		v1.74c-0.19-0.04-0.38-0.06-0.63-0.06c-1.3,0-2.22,0.99-2.48,2.37c-0.04,0.25-0.08,0.54-0.08,0.86v5.42h-1.83V40.82z"/>
</g>
<g>
	<g>
		<rect x="87.83" y="41.15" width="46.68" height="1"/>
	</g>
	<g>
		<g>
			<polygon points="131.53,37.29 147.8,41.65 131.53,46.01 			"/>
		</g>
	</g>
</g>
<g>
	<g>
		<rect x="263.8" y="41.15" width="47.68" height="1"/>
	</g>
	<g>
		<g>
			<polygon points="308.5,46.01 324.77,41.65 308.5,37.29 			"/>
		</g>
	</g>
</g>
<g>
	<path d="M6.65,25.05l1.45,2.18c0.38,0.57,0.69,1.09,1.03,1.66h0.06c0.34-0.61,0.67-1.13,1.01-1.68l1.43-2.16h1.99l-3.46,4.91
		l3.57,5.25h-2.1l-1.49-2.29c-0.4-0.59-0.73-1.15-1.09-1.76H9c-0.34,0.61-0.69,1.16-1.07,1.76l-1.47,2.29H4.42l3.61-5.19l-3.44-4.98
		H6.65z"/>
	<path d="M19.96,27.8c0-1.05-0.02-1.91-0.08-2.75h1.62l0.08,1.64h0.06c0.57-0.97,1.51-1.87,3.19-1.87c1.39,0,2.44,0.84,2.88,2.04
		h0.04c0.31-0.57,0.71-1.01,1.13-1.32c0.61-0.46,1.28-0.71,2.25-0.71c1.34,0,3.34,0.88,3.34,4.41v5.98h-1.81v-5.75
		c0-1.95-0.71-3.13-2.2-3.13c-1.05,0-1.87,0.78-2.18,1.68c-0.08,0.25-0.15,0.59-0.15,0.92v6.28h-1.81v-6.09
		c0-1.62-0.71-2.79-2.12-2.79c-1.15,0-1.99,0.92-2.29,1.85c-0.1,0.27-0.15,0.59-0.15,0.9v6.13h-1.81V27.8z"/>
	<path d="M46.67,30.05c0,3.76-2.6,5.4-5.06,5.4c-2.75,0-4.87-2.02-4.87-5.23c0-3.4,2.23-5.4,5.04-5.4
		C44.7,24.82,46.67,26.94,46.67,30.05z M38.61,30.15c0,2.23,1.28,3.91,3.09,3.91c1.76,0,3.09-1.66,3.09-3.95
		c0-1.72-0.86-3.91-3.04-3.91S38.61,28.22,38.61,30.15z"/>
	<path d="M49.01,20.3h1.85v14.91h-1.85V20.3z"/>
	<path d="M68.37,34.75c-0.67,0.34-2.02,0.67-3.74,0.67c-3.99,0-6.99-2.52-6.99-7.16c0-4.43,3-7.43,7.39-7.43
		c1.76,0,2.88,0.38,3.36,0.63l-0.44,1.49c-0.69-0.34-1.68-0.59-2.86-0.59c-3.32,0-5.52,2.12-5.52,5.84c0,3.46,1.99,5.69,5.44,5.69
		c1.11,0,2.25-0.23,2.98-0.59L68.37,34.75z"/>
	<path d="M82.31,27.99c0,4.87-2.96,7.45-6.57,7.45c-3.74,0-6.36-2.9-6.36-7.18c0-4.49,2.79-7.43,6.57-7.43
		C79.81,20.83,82.31,23.79,82.31,27.99z M71.33,28.22c0,3.02,1.64,5.73,4.51,5.73c2.9,0,4.54-2.67,4.54-5.88
		c0-2.81-1.47-5.75-4.51-5.75C72.84,22.32,71.33,25.11,71.33,28.22z"/>
	<path d="M6.46,50.25l2.23,6c0.23,0.67,0.48,1.47,0.65,2.08h0.04c0.19-0.61,0.4-1.38,0.65-2.12l2.02-5.96H14l-2.77,7.24
		C9.9,60.98,9,62.76,7.74,63.85c-0.9,0.8-1.81,1.11-2.27,1.2L5.01,63.5c0.46-0.15,1.07-0.44,1.62-0.9c0.5-0.4,1.13-1.11,1.55-2.06
		c0.08-0.19,0.15-0.34,0.15-0.44c0-0.1-0.04-0.25-0.13-0.48l-3.76-9.36H6.46z"/>
	<path d="M20.13,53c0-1.05-0.02-1.91-0.08-2.75h1.62l0.08,1.64h0.06c0.57-0.97,1.51-1.87,3.19-1.87c1.39,0,2.44,0.84,2.88,2.04h0.04
		c0.31-0.57,0.71-1.01,1.13-1.32c0.61-0.46,1.28-0.71,2.25-0.71c1.34,0,3.34,0.88,3.34,4.41v5.98h-1.81v-5.75
		c0-1.95-0.71-3.13-2.2-3.13c-1.05,0-1.87,0.78-2.18,1.68c-0.08,0.25-0.15,0.59-0.15,0.92v6.28h-1.81v-6.09
		c0-1.62-0.71-2.79-2.12-2.79c-1.15,0-1.99,0.92-2.29,1.85c-0.1,0.27-0.15,0.59-0.15,0.9v6.13h-1.81V53z"/>
	<path d="M46.84,55.25c0,3.76-2.6,5.4-5.06,5.4c-2.75,0-4.87-2.02-4.87-5.23c0-3.4,2.23-5.4,5.04-5.4
		C44.87,50.02,46.84,52.14,46.84,55.25z M38.78,55.35c0,2.22,1.28,3.9,3.09,3.9c1.76,0,3.09-1.66,3.09-3.95
		c0-1.72-0.86-3.9-3.04-3.9S38.78,53.42,38.78,55.35z"/>
	<path d="M49.17,45.5h1.85v14.91h-1.85V45.5z"/>
	<path d="M68.53,59.95c-0.67,0.34-2.02,0.67-3.74,0.67c-3.99,0-6.99-2.52-6.99-7.16c0-4.43,3-7.43,7.39-7.43
		c1.76,0,2.88,0.38,3.36,0.63l-0.44,1.49c-0.69-0.34-1.68-0.59-2.86-0.59c-3.32,0-5.52,2.12-5.52,5.84c0,3.46,1.99,5.69,5.44,5.69
		c1.11,0,2.25-0.23,2.98-0.59L68.53,59.95z"/>
	<path d="M70.76,45.5h1.85v14.91h-1.85V45.5z"/>
	<path d="M74.44,62.72l1.32-1.24c1.74-1.58,2.65-2.56,2.65-3.63c0-0.8-0.5-1.47-1.6-1.47c-0.73,0-1.36,0.38-1.76,0.65l-0.44-0.95
		c0.57-0.48,1.51-0.88,2.56-0.88c1.97,0,2.79,1.24,2.79,2.37c0,1.58-1.2,2.73-2.79,4.14l-0.65,0.59v0.04h3.59v1.16h-5.67V62.72z"/>
</g>
<g>
	<path d="M361.52,15.2c0-1.05-0.02-1.91-0.08-2.75h1.62l0.08,1.64h0.06c0.57-0.97,1.51-1.87,3.19-1.87c1.39,0,2.44,0.84,2.88,2.04
		h0.04c0.31-0.57,0.71-1.01,1.13-1.32c0.61-0.46,1.28-0.71,2.25-0.71c1.34,0,3.34,0.88,3.34,4.41v5.98h-1.81v-5.75
		c0-1.95-0.71-3.13-2.21-3.13c-1.05,0-1.87,0.78-2.18,1.68c-0.08,0.25-0.15,0.59-0.15,0.92v6.28h-1.81v-6.09
		c0-1.62-0.71-2.79-2.12-2.79c-1.15,0-1.99,0.92-2.29,1.85c-0.11,0.27-0.15,0.59-0.15,0.9v6.13h-1.81V15.2z"/>
	<path d="M388.23,17.45c0,3.76-2.6,5.4-5.06,5.4c-2.75,0-4.87-2.02-4.87-5.23c0-3.4,2.23-5.4,5.04-5.4
		C386.25,12.22,388.23,14.34,388.23,17.45z M380.16,17.55c0,2.23,1.28,3.91,3.09,3.91c1.76,0,3.09-1.66,3.09-3.95
		c0-1.72-0.86-3.91-3.04-3.91S380.16,15.62,380.16,17.55z"/>
	<path d="M390.56,7.7h1.85v14.91h-1.85V7.7z"/>
	<path d="M409.92,22.15c-0.67,0.34-2.02,0.67-3.74,0.67c-3.99,0-6.99-2.52-6.99-7.16c0-4.43,3-7.43,7.39-7.43
		c1.76,0,2.88,0.38,3.36,0.63l-0.44,1.49c-0.69-0.34-1.68-0.59-2.86-0.59c-3.32,0-5.52,2.12-5.52,5.84c0,3.46,2,5.69,5.44,5.69
		c1.11,0,2.25-0.23,2.98-0.59L409.92,22.15z"/>
	<path d="M412.15,7.7h1.85v14.91h-1.85V7.7z"/>
	<path d="M415.82,24.92l1.32-1.24c1.74-1.57,2.65-2.56,2.65-3.63c0-0.8-0.5-1.47-1.6-1.47c-0.73,0-1.36,0.38-1.76,0.65l-0.44-0.94
		c0.57-0.48,1.51-0.88,2.56-0.88c1.97,0,2.79,1.24,2.79,2.37c0,1.57-1.2,2.73-2.79,4.14l-0.65,0.59v0.04h3.59v1.15h-5.67V24.92z"/>
	<path d="M361.52,40.4c0-1.05-0.02-1.91-0.08-2.75h1.62l0.08,1.64h0.06c0.57-0.97,1.51-1.87,3.19-1.87c1.39,0,2.44,0.84,2.88,2.04
		h0.04c0.31-0.57,0.71-1.01,1.13-1.32c0.61-0.46,1.28-0.71,2.25-0.71c1.34,0,3.34,0.88,3.34,4.41v5.98h-1.81v-5.75
		c0-1.95-0.71-3.13-2.21-3.13c-1.05,0-1.87,0.78-2.18,1.68c-0.08,0.25-0.15,0.59-0.15,0.92v6.28h-1.81v-6.09
		c0-1.62-0.71-2.79-2.12-2.79c-1.15,0-1.99,0.92-2.29,1.85c-0.11,0.27-0.15,0.59-0.15,0.9v6.13h-1.81V40.4z"/>
	<path d="M388.23,42.65c0,3.76-2.6,5.4-5.06,5.4c-2.75,0-4.87-2.02-4.87-5.23c0-3.4,2.23-5.4,5.04-5.4
		C386.25,37.42,388.23,39.54,388.23,42.65z M380.16,42.75c0,2.22,1.28,3.9,3.09,3.9c1.76,0,3.09-1.66,3.09-3.95
		c0-1.72-0.86-3.9-3.04-3.9S380.16,40.82,380.16,42.75z"/>
	<path d="M390.56,32.9h1.85v14.91h-1.85V32.9z"/>
	<path d="M409.92,47.35c-0.67,0.34-2.02,0.67-3.74,0.67c-3.99,0-6.99-2.52-6.99-7.16c0-4.43,3-7.43,7.39-7.43
		c1.76,0,2.88,0.38,3.36,0.63l-0.44,1.49c-0.69-0.34-1.68-0.59-2.86-0.59c-3.32,0-5.52,2.12-5.52,5.84c0,3.46,2,5.69,5.44,5.69
		c1.11,0,2.25-0.23,2.98-0.59L409.92,47.35z"/>
	<path d="M423.86,40.59c0,4.87-2.96,7.45-6.57,7.45c-3.74,0-6.36-2.9-6.36-7.18c0-4.49,2.79-7.43,6.57-7.43
		C421.36,33.43,423.86,36.39,423.86,40.59z M412.88,40.82c0,3.02,1.64,5.73,4.51,5.73c2.9,0,4.54-2.67,4.54-5.88
		c0-2.81-1.47-5.75-4.51-5.75C414.39,34.92,412.88,37.71,412.88,40.82z"/>
	<path d="M436.13,47.35c-0.67,0.34-2.02,0.67-3.74,0.67c-3.99,0-6.99-2.52-6.99-7.16c0-4.43,3-7.43,7.39-7.43
		c1.76,0,2.88,0.38,3.36,0.63l-0.44,1.49c-0.69-0.34-1.68-0.59-2.86-0.59c-3.32,0-5.52,2.12-5.52,5.84c0,3.46,1.99,5.69,5.44,5.69
		c1.11,0,2.25-0.23,2.98-0.59L436.13,47.35z"/>
	<path d="M438.35,32.9h1.85v14.91h-1.85V32.9z"/>
	<path d="M442.03,50.12l1.32-1.24c1.74-1.58,2.65-2.56,2.65-3.63c0-0.8-0.5-1.47-1.6-1.47c-0.73,0-1.36,0.38-1.76,0.65l-0.44-0.95
		c0.57-0.48,1.51-0.88,2.56-0.88c1.97,0,2.79,1.24,2.79,2.37c0,1.58-1.2,2.73-2.79,4.14l-0.65,0.59v0.04h3.59v1.16h-5.67V50.12z"/>
	<path d="M361.52,65.6c0-1.05-0.02-1.91-0.08-2.75h1.62l0.08,1.64h0.06c0.57-0.97,1.51-1.87,3.19-1.87c1.39,0,2.44,0.84,2.88,2.04
		h0.04c0.31-0.57,0.71-1.01,1.13-1.32c0.61-0.46,1.28-0.71,2.25-0.71c1.34,0,3.34,0.88,3.34,4.41v5.98h-1.81v-5.75
		c0-1.95-0.71-3.13-2.21-3.13c-1.05,0-1.87,0.78-2.18,1.68c-0.08,0.25-0.15,0.59-0.15,0.92v6.28h-1.81v-6.09
		c0-1.62-0.71-2.79-2.12-2.79c-1.15,0-1.99,0.92-2.29,1.85c-0.11,0.27-0.15,0.59-0.15,0.9v6.13h-1.81V65.6z"/>
	<path d="M388.23,67.85c0,3.76-2.6,5.4-5.06,5.4c-2.75,0-4.87-2.02-4.87-5.23c0-3.4,2.23-5.4,5.04-5.4
		C386.25,62.62,388.23,64.74,388.23,67.85z M380.16,67.95c0,2.23,1.28,3.91,3.09,3.91c1.76,0,3.09-1.66,3.09-3.95
		c0-1.72-0.86-3.91-3.04-3.91S380.16,66.02,380.16,67.95z"/>
	<path d="M390.56,58.1h1.85v14.91h-1.85V58.1z"/>
	<path d="M409.92,72.55c-0.67,0.34-2.02,0.67-3.74,0.67c-3.99,0-6.99-2.52-6.99-7.16c0-4.43,3-7.43,7.39-7.43
		c1.76,0,2.88,0.38,3.36,0.63l-0.44,1.49c-0.69-0.34-1.68-0.59-2.86-0.59c-3.32,0-5.52,2.12-5.52,5.84c0,3.46,2,5.69,5.44,5.69
		c1.11,0,2.25-0.23,2.98-0.59L409.92,72.55z"/>
	<path d="M423.86,65.79c0,4.87-2.96,7.45-6.57,7.45c-3.74,0-6.36-2.9-6.36-7.18c0-4.49,2.79-7.43,6.57-7.43
		C421.36,58.63,423.86,61.59,423.86,65.79z M412.88,66.02c0,3.02,1.64,5.73,4.51,5.73c2.9,0,4.54-2.67,4.54-5.88
		c0-2.81-1.47-5.75-4.51-5.75C414.39,60.12,412.88,62.91,412.88,66.02z"/>
</g>
<g>
	<path d="M344.91,20.49c0.53,0.34,1.74,0.86,3.02,0.86c2.37,0,3.11-1.51,3.09-2.65c-0.02-1.91-1.74-2.73-3.53-2.73h-1.03v-1.39h1.03
		c1.34,0,3.04-0.69,3.04-2.31c0-1.09-0.69-2.06-2.39-2.06c-1.09,0-2.14,0.48-2.73,0.9l-0.48-1.34c0.71-0.52,2.1-1.05,3.57-1.05
		c2.69,0,3.91,1.6,3.91,3.25c0,1.41-0.84,2.6-2.52,3.21v0.04c1.68,0.34,3.04,1.6,3.04,3.51c0,2.18-1.7,4.09-4.98,4.09
		c-1.53,0-2.88-0.48-3.55-0.92L344.91,20.49z"/>
	<path d="M337.71,35.89h-0.04l-2.37,1.28l-0.36-1.41l2.98-1.6h1.58v13.65h-1.79V35.89z"/>
	<path d="M353.54,40.84c0,4.64-1.72,7.2-4.74,7.2c-2.67,0-4.47-2.5-4.51-7.01c0-4.58,1.97-7.1,4.75-7.1
		C351.9,33.93,353.54,36.49,353.54,40.84z M346.13,41.05c0,3.55,1.09,5.56,2.77,5.56c1.89,0,2.79-2.2,2.79-5.69
		c0-3.36-0.86-5.56-2.77-5.56C347.31,35.36,346.13,37.33,346.13,41.05z"/>
	<path d="M353.33,59.36v1.22l-5.94,12.43h-1.91l5.92-12.07V60.9h-6.68v-1.53H353.33z"/>
</g>
</svg>
