<svg id="svg259" xmlns="http://www.w3.org/2000/svg" viewBox="0 0 646.07 430.89"><defs><style>.cls-1{fill:none;stroke-miterlimit:8;stroke-width:0.64px;}.cls-1,.cls-6{stroke:#000;}.cls-2,.cls-3,.cls-4{isolation:isolate;}.cls-3{font-size:24px;}.cls-3,.cls-4{font-family:Calibri, Calibri;}.cls-4{font-size:16px;}.cls-5{letter-spacing:0em;}.cls-6{stroke-linejoin:round;stroke-width:0.02px;}.cls-7{fill:#fff;}.cls-8{letter-spacing:-0.01em;}.cls-9{letter-spacing:-0.01em;}.cls-10{letter-spacing:-0.01em;}.cls-11{letter-spacing:-0.01em;}</style></defs><title>Vraag3a2</title><path id="path5" class="cls-1" d="M3.92,433.94H327.34" transform="translate(-3.92 -3.38)"/><g id="text11" class="cls-2"><text class="cls-3" transform="translate(9.6 418.99)">CH</text></g><g id="text17" class="cls-2"><text class="cls-4" transform="translate(37.29 424.91)">4</text></g><g id="text23" class="cls-2"><text class="cls-3" transform="translate(45.45 418.99)"><tspan class="cls-5">(</tspan><tspan x="7.39" y="0">g) + H</tspan></text></g><g id="text29" class="cls-2"><text class="cls-4" transform="translate(109.63 424.91)">2</text></g><g id="text35" class="cls-2"><text class="cls-3" transform="translate(117.79 418.99)">O (l)</text></g><path id="path37" class="cls-1" d="M3.92,377.93H210" transform="translate(-3.92 -3.38)"/><g id="text43" class="cls-2"><text class="cls-3" transform="translate(9.6 362.97)">CH</text></g><g id="text49" class="cls-2"><text class="cls-4" transform="translate(37.29 368.9)">4</text></g><g id="text55" class="cls-2"><text class="cls-3" transform="translate(45.45 362.97)"><tspan class="cls-5">(</tspan><tspan x="7.39" y="0">g) + H</tspan></text></g><g id="text61" class="cls-2"><text class="cls-4" transform="translate(109.63 368.9)">2</text></g><g id="text67" class="cls-2"><text class="cls-3" transform="translate(117.79 362.97)">O <tspan class="cls-5" x="21.32" y="0">(</tspan><tspan x="28.71" y="0">g)</tspan></text></g><path id="path69" class="cls-6" d="M210.57,433.94V384.61h-1.34v49.33Zm3.32-48-4-8-4,8Z" transform="translate(-3.92 -3.38)"/><path id="path71" class="cls-7" d="M212.61,392v37.77h75.7V392Z" transform="translate(-3.92 -3.38)"/><g id="text77" class="cls-2"><text class="cls-3" transform="translate(218.41 415.86)">+44 kJ</text></g><path id="path79" class="cls-7" d="M222.25,421.9v1.6h60.33v-1.6Z" transform="translate(-3.92 -3.38)"/><path id="path81" class="cls-1" d="M4.56,149.88H365" transform="translate(-3.92 -3.38)"/><g id="text87" class="cls-2"><text class="cls-3" transform="translate(10.25 134.92)">CH</text></g><g id="text93" class="cls-2"><text class="cls-4" transform="translate(37.94 140.84)">4</text></g><g id="text99" class="cls-2"><text class="cls-3" transform="translate(46.1 134.92)"><tspan class="cls-5">(</tspan><tspan x="7.39" y="0">g) + H</tspan></text></g><g id="text105" class="cls-2"><text class="cls-4" transform="translate(110.27 140.84)">2 </text></g><g id="text111" class="cls-2"><text class="cls-3" transform="translate(122.28 134.92)">+ ½ O</text></g><g id="text117" class="cls-2"><text class="cls-4" transform="translate(177.17 140.84)">2</text></g><g id="text123" class="cls-2"><text class="cls-3" transform="translate(190.93 134.92)"><tspan class="cls-5">(</tspan><tspan x="7.39" y="0">g)</tspan></text></g><path id="path125" class="cls-6" d="M310.59,433.94V156.56h-1.34V433.94Zm3.32-276.06-4-8-4,8Z" transform="translate(-3.92 -3.38)"/><path id="path127" class="cls-6" d="M189.6,377.93V156.56h-1.34V377.93Zm3.32-220.05-4-8-4,8Z" transform="translate(-3.92 -3.38)"/><path id="path129" class="cls-7" d="M142.51,243v38.73h92.66V243Z" transform="translate(-3.92 -3.38)"/><g id="text135" class="cls-2"><text class="cls-3" transform="translate(148.34 266.93)">+242 kJ</text></g><path id="path137" class="cls-7" d="M266.54,244.46v38.73H359.2V244.46Z" transform="translate(-3.92 -3.38)"/><g id="text143" class="cls-2"><text class="cls-3" transform="translate(272.37 268.34)">+286 kJ</text></g><path id="path145" class="cls-6" d="M209.89,377.61H215v.64h-5.12Zm7,0h.64v.64h-.64Zm2.56,0h5.12v.64h-5.12Zm7,0h.64v.64h-.64Zm2.56,0h5.12v.64h-5.12Zm7,0h.64v.64h-.64Zm2.56,0h5.12v.64H238.7Zm7,0h.64v.64h-.64Zm2.56,0h5.12v.64H248.3Zm7,0H256v.64h-.64Zm2.56,0H263v.64H257.9Zm7,0h.64v.64h-.64Zm2.56,0h5.12v.64H267.5Zm7,0h.64v.64h-.64Zm2.56,0h5.12v.64h-5.12Zm7,0h.64v.64h-.64Zm2.56,0h5.12v.64h-5.12Zm7,0h.64v.64h-.64Zm2.56,0h5.12v.64h-5.12Zm7,0H304v.64h-.64Zm2.56,0H311v.64h-5.12Zm7,0h.64v.64H313Zm2.56,0h5.12v.64h-5.12Zm7,0h.64v.64h-.64Zm2.56,0h5.12v.64h-5.12Zm7,0h.64v.64h-.64Zm2.56,0h5.12v.64h-5.12Zm7,0h.64v.64h-.64Zm2.56,0h5.12v.64h-5.12Zm7,0H352v.64h-.64Zm2.56,0H359v.64h-5.12Zm7,0h.64v.64H361Zm2.56,0h5.12v.64h-5.12Zm7,0h.64v.64h-.64Zm2.56,0h5.12v.64h-5.12Zm7,0h.64v.64h-.64Zm2.56,0h5.12v.64h-5.12Zm7,0h.64v.64h-.64Zm2.56,0h5.12v.64h-5.12Zm7,0H400v.64h-.64Zm2.56,0h5.12v.64h-5.12Zm7,0h.64v.64H409Zm2.56,0h4.4v.64h-4.4Z" transform="translate(-3.92 -3.38)"/><path id="path147" class="cls-1" d="M174.52,35.77H444" transform="translate(-3.92 -3.38)"/><g id="text153" class="cls-2"><text class="cls-3" transform="translate(180.28 20.89)">C+ 2H</text></g><g id="text159" class="cls-2"><text class="cls-4" transform="translate(237.73 26.82)">2</text></g><g id="text165" class="cls-2"><text class="cls-3" transform="translate(251.5 20.89)">+ H</text></g><g id="text171" class="cls-2"><text class="cls-4" transform="translate(283.82 26.82)">2 </text></g><g id="text177" class="cls-2"><text class="cls-3" transform="translate(295.83 20.89)">+ ½ O</text></g><g id="text183" class="cls-2"><text class="cls-4" transform="translate(350.88 26.82)">2</text></g><path id="path185" class="cls-6" d="M268.34,149.8V42.45H267V149.8Zm3.32-106-4-8-4,8Z" transform="translate(-3.92 -3.38)"/><path id="path187" class="cls-7" d="M231.49,73.22v38.73h80.34V73.22Z" transform="translate(-3.92 -3.38)"/><g id="text193" class="cls-2"><text class="cls-3" transform="translate(237.19 97.05)">+76 kJ</text></g><path id="path195" class="cls-1" d="M384.65,204.45h177" transform="translate(-3.92 -3.38)"/><g id="text201" class="cls-2"><text class="cls-3" transform="translate(470.62 189.71)"><tspan class="cls-8">C</tspan><tspan x="12.59" y="0">O+ 3H</tspan></text></g><g id="text207" class="cls-2"><text class="cls-4" transform="translate(543.6 195.63)">2</text></g><path id="path209" class="cls-6" d="M430.3,35.77V197.85H429V35.77Zm3.32,160.74-4,8-4-8Z" transform="translate(-3.92 -3.38)"/><path id="path211" class="cls-7" d="M389.29,100.1v38.73h88V100.1Z" transform="translate(-3.92 -3.38)"/><g id="text217" class="cls-2"><text class="cls-3" transform="translate(395.12 124)">-</text></g><g id="text223" class="cls-2"><text class="cls-3" transform="translate(402.48 124)">111 kJ</text></g><path id="path225" class="cls-6" d="M402.61,377.81V211.13h-1.34V377.81Zm3.32-165.36-4-8-4,8Z" transform="translate(-3.92 -3.38)"/><path id="path227" class="cls-7" d="M414.9,273.42v38.73H650V273.42Z" transform="translate(-3.92 -3.38)"/><g id="text233" class="cls-2"><text class="cls-3" transform="translate(420.61 297.34)">Δ</text></g><g id="text239" class="cls-2"><text class="cls-3" transform="translate(434.21 297.34)">H</text></g><g id="text245" class="cls-2"><text class="cls-4" transform="translate(449.1 303.26)"><tspan class="cls-9">r</tspan><tspan x="5.37" y="0">eactie</tspan></text></g><g id="text251" class="cls-2"><text class="cls-3" transform="translate(497.59 297.34)">= +207 kJ/mol</text></g><g id="text257" class="cls-2"><text class="cls-3" transform="translate(386.89 19.58)">Eleme<tspan class="cls-10" x="60.28" y="0">n</tspan><tspan class="cls-11" x="72.67" y="0">t</tspan><tspan x="80.45" y="0">en</tspan></text></g></svg>