<?xml version="1.0" encoding="utf-8"?>
<!-- Generator: Adobe Illustrator 24.1.1, SVG Export Plug-In . SVG Version: 6.00 Build 0)  -->
<svg version="1.1" id="Layer_1" xmlns="http://www.w3.org/2000/svg" xmlns:xlink="http://www.w3.org/1999/xlink" x="0px" y="0px"
	 viewBox="0 0 430.52 163.76" style="enable-background:new 0 0 430.52 163.76;" xml:space="preserve">
<style type="text/css">
	.st0{font-family:'Calibri';}
	.st1{font-size:12px;}
	.st2{fill:none;stroke:#000000;stroke-linejoin:round;}
	.st3{fill:none;stroke:#000000;stroke-width:0.75;stroke-linejoin:round;stroke-miterlimit:8;}
	.st4{fill:none;stroke:#000000;stroke-miterlimit:10;}
</style>
<g>
	<text transform="matrix(1 0 0 1 221.1291 9.0603)" class="st0 st1">D</text>
</g>
<g>
	<text transform="matrix(1 0 0 1 311.3308 17.5889)"><tspan x="0" y="0" class="st0 st1">T</tspan><tspan x="5.87" y="0" class="st0 st1">o</tspan><tspan x="12.12" y="0" class="st0 st1">pp</tspan><tspan x="24.82" y="0" class="st0 st1">r</tspan><tspan x="28.91" y="0" class="st0 st1">o</tspan><tspan x="35.26" y="0" class="st0 st1">d</tspan><tspan x="41.51" y="0" class="st0 st1">u</tspan><tspan x="47.86" y="0" class="st0 st1">c</tspan><tspan x="52.91" y="0" class="st0 st1">t</tspan><tspan x="56.99" y="0" class="st0 st1"> </tspan><tspan x="59.63" y="0" class="st0 st1">D</tspan><tspan x="67.06" y="0" class="st0 st1"> </tspan><tspan x="69.81" y="0" class="st0 st1">=</tspan><tspan x="75.69" y="0" class="st0 st1"> 6</tspan><tspan x="84.56" y="0" class="st0 st1">0</tspan><tspan x="90.57" y="0" class="st0 st1"> </tspan><tspan x="93.32" y="0" class="st0 st1">k</tspan><tspan x="98.72" y="0" class="st0 st1">g</tspan><tspan x="104.37" y="0" class="st0 st1">/</tspan><tspan x="109.04" y="0" class="st0 st1">s</tspan></text>
</g>
<g>
	<text transform="matrix(1 0 0 1 221.1292 28.1366)"><tspan x="0" y="0" class="st0 st1">7</tspan><tspan x="6.01" y="0" class="st0 st1">5 </tspan><tspan x="14.88" y="0" class="st0 st1">%</tspan><tspan x="23.41" y="0" class="st0 st1"> </tspan><tspan x="26.16" y="0" class="st0 st1">e</tspan><tspan x="32.04" y="0" class="st0 st1">t</tspan><tspan x="36.12" y="0" class="st0 st1">h</tspan><tspan x="42.47" y="0" class="st0 st1">a</tspan><tspan x="48.12" y="0" class="st0 st1">n</tspan><tspan x="54.47" y="0" class="st0 st1">o</tspan><tspan x="60.82" y="0" class="st0 st1">l</tspan></text>
</g>
<g>
	<text transform="matrix(1 0 0 1 221.1291 42.7773)"><tspan x="0" y="0" class="st0 st1">1</tspan><tspan x="6.01" y="0" class="st0 st1">5 </tspan><tspan x="14.88" y="0" class="st0 st1">%</tspan><tspan x="23.41" y="0" class="st0 st1"> </tspan><tspan x="26.16" y="0" class="st0 st1">m</tspan><tspan x="35.75" y="0" class="st0 st1">e</tspan><tspan x="41.64" y="0" class="st0 st1">t</tspan><tspan x="45.72" y="0" class="st0 st1">h</tspan><tspan x="52.07" y="0" class="st0 st1">a</tspan><tspan x="57.71" y="0" class="st0 st1">n</tspan><tspan x="64.07" y="0" class="st0 st1">o</tspan><tspan x="70.42" y="0" class="st0 st1">l </tspan></text>
</g>
<g>
	<text transform="matrix(1 0 0 1 5.4019 67.7478)"><tspan x="0" y="0" class="st0 st1">F</tspan><tspan x="5.41" y="0" class="st0 st1"> </tspan><tspan x="8.15" y="0" class="st0 st1">=</tspan><tspan x="14.14" y="0" class="st0 st1"> </tspan><tspan x="16.78" y="0" class="st0 st1">10</tspan><tspan x="29.02" y="0" class="st0 st1">0</tspan><tspan x="35.03" y="0" class="st0 st1"> </tspan><tspan x="37.78" y="0" class="st0 st1">k</tspan><tspan x="43.19" y="0" class="st0 st1">g</tspan><tspan x="48.83" y="0" class="st0 st1">/</tspan><tspan x="53.51" y="0" class="st0 st1">s</tspan></text>
</g>
<g>
	<text transform="matrix(1 0 0 1 221.1293 58.5564)"><tspan x="0" y="0" class="st0 st1">10</tspan><tspan x="12.24" y="0" class="st0 st1"> </tspan><tspan x="14.88" y="0" class="st0 st1">%</tspan><tspan x="23.51" y="0" class="st0 st1"> </tspan><tspan x="26.16" y="0" class="st0 st1">w</tspan><tspan x="34.79" y="0" class="st0 st1">a</tspan><tspan x="40.54" y="0" class="st0 st1">t</tspan><tspan x="44.51" y="0" class="st0 st1">e</tspan><tspan x="50.51" y="0" class="st0 st1">r</tspan></text>
</g>
<g>
	<text transform="matrix(1 0 0 1 2.6441 97.0291)"><tspan x="0" y="0" class="st0 st1">5</tspan><tspan x="6.01" y="0" class="st0 st1">0 </tspan><tspan x="14.88" y="0" class="st0 st1">%</tspan><tspan x="23.41" y="0" class="st0 st1"> </tspan><tspan x="26.16" y="0" class="st0 st1">e</tspan><tspan x="32.04" y="0" class="st0 st1">t</tspan><tspan x="36.12" y="0" class="st0 st1">h</tspan><tspan x="42.48" y="0" class="st0 st1">a</tspan><tspan x="48.11" y="0" class="st0 st1">n</tspan><tspan x="54.47" y="0" class="st0 st1">o</tspan><tspan x="60.82" y="0" class="st0 st1">l</tspan></text>
</g>
<g>
	<text transform="matrix(1 0 0 1 2.6441 111.6697)"><tspan x="0" y="0" class="st0 st1">1</tspan><tspan x="6.01" y="0" class="st0 st1">0 </tspan><tspan x="14.88" y="0" class="st0 st1">%</tspan><tspan x="23.41" y="0" class="st0 st1"> </tspan><tspan x="26.16" y="0" class="st0 st1">m</tspan><tspan x="35.75" y="0" class="st0 st1">e</tspan><tspan x="41.64" y="0" class="st0 st1">t</tspan><tspan x="45.72" y="0" class="st0 st1">h</tspan><tspan x="52.07" y="0" class="st0 st1">a</tspan><tspan x="57.71" y="0" class="st0 st1">n</tspan><tspan x="64.07" y="0" class="st0 st1">o</tspan><tspan x="70.42" y="0" class="st0 st1">l</tspan></text>
</g>
<g>
	<text transform="matrix(1 0 0 1 220.0143 115.4144)"><tspan x="0" y="0" class="st0 st1">x</tspan><tspan x="5.16" y="0" class="st0 st1"> </tspan><tspan x="7.91" y="0" class="st0 st1">%</tspan><tspan x="16.55" y="0" class="st0 st1"> </tspan><tspan x="19.3" y="0" class="st0 st1">m</tspan><tspan x="28.79" y="0" class="st0 st1">e</tspan><tspan x="34.78" y="0" class="st0 st1">t</tspan><tspan x="38.75" y="0" class="st0 st1">h</tspan><tspan x="45.11" y="0" class="st0 st1">a</tspan><tspan x="50.85" y="0" class="st0 st1">n</tspan><tspan x="57.21" y="0" class="st0 st1">o</tspan><tspan x="63.45" y="0" class="st0 st1">l</tspan></text>
</g>
<g>
	<text transform="matrix(1 0 0 1 2.6441 126.3103)"><tspan x="0" y="0" class="st0 st1">4</tspan><tspan x="6.01" y="0" class="st0 st1">0 </tspan><tspan x="14.88" y="0" class="st0 st1">%</tspan><tspan x="23.41" y="0" class="st0 st1"> </tspan><tspan x="26.16" y="0" class="st0 st1">w</tspan><tspan x="34.79" y="0" class="st0 st1">a</tspan><tspan x="40.43" y="0" class="st0 st1">t</tspan><tspan x="44.51" y="0" class="st0 st1">e</tspan><tspan x="50.51" y="0" class="st0 st1">r</tspan></text>
</g>
<g>
	<text transform="matrix(1 0 0 1 220.0143 130.055)"><tspan x="0" y="0" class="st0 st1">y</tspan><tspan x="5.41" y="0" class="st0 st1"> </tspan><tspan x="8.16" y="0" class="st0 st1">%</tspan><tspan x="16.79" y="0" class="st0 st1"> </tspan><tspan x="19.44" y="0" class="st0 st1">m</tspan><tspan x="29.03" y="0" class="st0 st1">e</tspan><tspan x="35.03" y="0" class="st0 st1">t</tspan><tspan x="39" y="0" class="st0 st1">h</tspan><tspan x="45.35" y="0" class="st0 st1">a</tspan><tspan x="51.1" y="0" class="st0 st1">n</tspan><tspan x="57.34" y="0" class="st0 st1">o</tspan><tspan x="63.7" y="0" class="st0 st1">l</tspan></text>
</g>
<g>
	<text transform="matrix(1 0 0 1 220.0143 144.6956)"><tspan x="0" y="0" class="st0 st1">z</tspan><tspan x="4.79" y="0" class="st0 st1"> </tspan><tspan x="7.43" y="0" class="st0 st1">%</tspan><tspan x="16.07" y="0" class="st0 st1"> </tspan><tspan x="18.71" y="0" class="st0 st1">w</tspan><tspan x="27.35" y="0" class="st0 st1">a</tspan><tspan x="33.09" y="0" class="st0 st1">t</tspan><tspan x="37.07" y="0" class="st0 st1">e</tspan><tspan x="43.06" y="0" class="st0 st1">r</tspan></text>
</g>
<g>
	<text transform="matrix(1 0 0 1 311.3311 153.549)"><tspan x="0" y="0" class="st0 st1">B</tspan><tspan x="6.49" y="0" class="st0 st1">o</tspan><tspan x="12.84" y="0" class="st0 st1">d</tspan><tspan x="19.2" y="0" class="st0 st1">e</tspan><tspan x="25.19" y="0" class="st0 st1">m</tspan><tspan x="34.68" y="0" class="st0 st1">p</tspan><tspan x="41.03" y="0" class="st0 st1">r</tspan><tspan x="45.23" y="0" class="st0 st1">o</tspan><tspan x="51.47" y="0" class="st0 st1">du</tspan><tspan x="64.18" y="0" class="st0 st1">c</tspan><tspan x="69.23" y="0" class="st0 st1">t</tspan><tspan x="73.2" y="0" class="st0 st1"> </tspan><tspan x="75.95" y="0" class="st0 st1">B</tspan><tspan x="82.44" y="0" class="st0 st1"> </tspan><tspan x="85.19" y="0" class="st0 st1">(</tspan><tspan x="88.79" y="0" class="st0 st1">k</tspan><tspan x="94.2" y="0" class="st0 st1">g</tspan><tspan x="99.85" y="0" class="st0 st1">/</tspan><tspan x="104.52" y="0" class="st0 st1">s</tspan><tspan x="109.2" y="0" class="st0 st1">)</tspan></text>
</g>
<g>
	<text transform="matrix(1 0 0 1 220.0141 163.7563)" class="st0 st1">B</text>
</g>
<g>
	<g>
		<line class="st2" x1="0" y1="79.37" x2="105.14" y2="79.41"/>
		<g>
			<polygon points="103.16,82.31 114,79.41 103.16,76.5 			"/>
		</g>
	</g>
</g>
<line class="st3" x1="114" y1="79.41" x2="145.5" y2="79.41"/>
<g>
	<g>
		<line class="st2" x1="181.5" y1="14.26" x2="295.14" y2="14.26"/>
		<g>
			<polygon points="293.16,17.17 304,14.26 293.16,11.36 			"/>
		</g>
	</g>
</g>
<g>
	<g>
		<line class="st2" x1="181.5" y1="149.81" x2="295.14" y2="149.81"/>
		<g>
			<polygon points="293.16,152.72 304,149.81 293.16,146.91 			"/>
		</g>
	</g>
</g>
<rect x="145.5" y="2.04" class="st4" width="36" height="159.99"/>
</svg>
